M48
;Layer_Color=9474304
;FILE_FORMAT=2:5
INCH,LZ
;TYPE=PLATED
T1F00S00C0.01181
T2F00S00C0.01299
T3F00S00C0.03543
T5F00S00C0.07874
T6F00S00C0.12598
%
T01
X04885Y02
X0491Y0215
X05065Y02195
X052Y0219
X05365Y02195
X0537Y0234
X0512032Y0232968
X0496Y0237
X0484Y02405
X0478Y02265
X0479Y02605
X04775Y0272
X0469169Y0267331
X0480169Y0283669
X05055Y02795
X0508Y02715
X0505Y0266
X05515Y02815
X0554Y02895
X0566Y0284
X05705Y0266
X05715Y0245
X0565Y02275
X05515Y02165
X05455Y02035
X0562Y02
X0529
X05035Y02035
X04615Y0236
X0458Y02465
X0423Y0249
X0427Y02375
X0429Y0218
X04095Y0207
X04105Y01985
X03875Y0218
X039Y02325
X03905Y0241
X03815Y0248
X03735Y0256
X03675Y0244
X03645Y02375
X03495
X0349Y0255
X03435Y026
X03405Y0268
X0324Y0269
X0328Y026
X03195Y0253
X0326Y0244
X0338Y02465
X034Y0227
X0344Y0217
X0341Y02015
X0358Y02505
X03645Y02665
X03615Y0274
Y0283
X0353Y02825
X03425Y02845
X033Y0288
X03175Y02965
X03235Y03035
X03125Y02805
X037Y02745
X03785Y02925
X03925Y0291
X0402Y02835
X04145Y0284
X04135Y0278
X04115Y0265
X04245Y0268
X0397Y02695
X03965Y02565
X0402Y0254
X04165Y03045
X04405Y03105
X04595Y03
X04635Y0282031
X0375Y0311
X03655Y0303
X0309Y03
X0311Y02935
X02995Y0289
X0302Y03015
X02865Y02975
X0277
X0272Y031
X0268Y02835
X0289Y02775
X03025Y02695
X02885Y0256
X0292Y0242
X02785
X028Y02255
X02845Y02065
X02995Y0218
X0307Y0243
X0278Y02665
X0251Y02715
X02505Y02595
X0249Y02455
X0239Y02365
X02445Y02245
X0261Y0219
X0237Y0253
Y02745
Y0303
X025Y0298
X0266Y0318
X02825Y03235
X02925Y03165
X0306Y0315
X0304Y03305
X02985Y0338
X0307138Y0352138
Y0356862
X0311862
Y0352138
X030261Y037039
X0295Y03665
X0274Y0372
Y03795
Y0386
X02825
X029Y03885
X0273Y03505
X0238Y03535
X02385Y0374
X02375Y0385
X0238Y03285
X03235Y03305
X03275Y0334
X0332Y0339
X03325Y0344
X03375Y03455
X0343Y0346
X0347Y0341
X0357Y03385
X03555Y03325
X03625Y03275
X03745Y0331
X0373Y03195
X0385Y03225
X03905Y0323
X0399Y032
X03965Y03315
X0411
X04165Y03195
X0427Y03155
X0423Y0344
X0426Y0351
X04375Y0349
X04365Y03435
X044Y03705
X04535Y03675
X0447Y03815
X04635Y038
X0433Y03855
X04255Y0376
X04245Y0364
X0414Y03725
X04035Y03775
Y0363
X0409Y03515
X03985Y0349
X0385Y03455
X0391Y03855
X03735Y03875
X0363Y0383
X03455Y03785
X0342Y0387
X03335Y03885
X03175Y03895
X03135Y03725
X0324Y03695
X03365Y0363358
X03345Y0354
X03295Y03545
X03385Y0334
X03445Y0328
X0346Y0322
X0347Y0314
X0342Y03135
X03235Y0315517
X03155Y03145
X04635Y0323
X0416Y03865
X04985Y0334
X0498Y0326
T02
X0402638Y02295
X0407362
T03
X0512Y02655
X0522
X0532
X0542
X0552
X0265Y0339
Y0349
Y0359
Y0369
Y0379
X0255
Y0369
Y0359
Y0349
Y0339
X0451Y0336
Y0346
Y0326
Y0316
X05635Y03145
Y03245
Y03345
Y03445
T05
X0475Y0202
X03525
Y0393
T06
X0238Y0412783
X0462094
M30
