%FSLAX25Y25*%
%MOIN*%
G70*
G01*
G75*
G04 Layer_Color=16711935*
%ADD10R,0.03150X0.05512*%
%ADD11R,0.02559X0.00984*%
%ADD12R,0.02362X0.04528*%
%ADD13O,0.07284X0.02362*%
%ADD14R,0.07874X0.03937*%
%ADD15R,0.17716X0.17716*%
%ADD16O,0.02559X0.00984*%
%ADD17O,0.00984X0.02559*%
%ADD18R,0.03543X0.02953*%
%ADD19R,0.05315X0.03740*%
%ADD20R,0.11811X0.00039*%
%ADD21R,0.01575X0.01575*%
%ADD22R,0.06102X0.02559*%
%ADD23O,0.00984X0.02362*%
%ADD24R,0.08268X0.05512*%
%ADD25O,0.01772X0.05118*%
%ADD26R,0.00984X0.01969*%
%ADD27R,0.05118X0.03937*%
%ADD28R,0.03937X0.03543*%
%ADD29R,0.03937X0.01378*%
%ADD30R,0.02953X0.09449*%
%ADD31O,0.02362X0.08071*%
%ADD32R,0.08071X0.03150*%
%ADD33R,0.03543X0.03150*%
%ADD34R,0.01969X0.02362*%
%ADD35R,0.03150X0.03543*%
%ADD36R,0.02362X0.01969*%
%ADD37R,0.03937X0.05118*%
%ADD38C,0.03937*%
%ADD39C,0.01000*%
%ADD40C,0.01969*%
%ADD41C,0.01181*%
%ADD42C,0.03150*%
%ADD43C,0.05906*%
%ADD44C,0.01575*%
%ADD45C,0.03937*%
%ADD46C,0.02362*%
%ADD47C,0.00787*%
G04:AMPARAMS|DCode=48|XSize=18.11mil|YSize=66.44mil|CornerRadius=0mil|HoleSize=0mil|Usage=FLASHONLY|Rotation=34.500|XOffset=0mil|YOffset=0mil|HoleType=Round|Shape=Rectangle|*
%AMROTATEDRECTD48*
4,1,4,0.01135,-0.03251,-0.02628,0.02225,-0.01135,0.03251,0.02628,-0.02225,0.01135,-0.03251,0.0*
%
%ADD48ROTATEDRECTD48*%

%ADD49R,0.01811X0.07992*%
%ADD50R,0.12598X0.05079*%
%ADD51R,0.12598X0.04764*%
%ADD52R,0.08583X0.15590*%
%ADD53R,1.00709X0.04764*%
%ADD54R,0.36142X0.03937*%
%ADD55R,0.19193X0.05079*%
%ADD56R,0.04724X0.03150*%
%ADD57R,0.03937X0.02913*%
%ADD58R,0.35500X0.02000*%
%ADD59R,0.12728X0.02500*%
%ADD60R,0.03032X0.06303*%
%ADD61R,0.05906X0.05906*%
%ADD62C,0.05906*%
%ADD63R,0.05906X0.05906*%
%ADD64C,0.11811*%
%ADD65C,0.06000*%
%ADD66C,0.02598*%
%ADD67C,0.03150*%
%ADD68C,0.07874*%
%ADD69C,0.00984*%
%ADD70C,0.00800*%
%ADD71C,0.11811*%
D61*
X552000Y265500D02*
D03*
D62*
X542000D02*
D03*
X532000D02*
D03*
X522000D02*
D03*
X512000D02*
D03*
X451000Y326000D02*
D03*
Y336000D02*
D03*
Y346000D02*
D03*
X563500Y324500D02*
D03*
Y334500D02*
D03*
Y344500D02*
D03*
D63*
X451000Y316000D02*
D03*
X563500Y314500D02*
D03*
D64*
X426193Y198689D02*
D03*
X462807D02*
D03*
X444500Y210500D02*
D03*
X237193Y198689D02*
D03*
X273807D02*
D03*
X255500Y210500D02*
D03*
X300193Y198689D02*
D03*
X336807D02*
D03*
X318500Y210500D02*
D03*
X363193Y198689D02*
D03*
X399807D02*
D03*
X381500Y210500D02*
D03*
D65*
X238000Y412783D02*
D03*
X462094D02*
D03*
D66*
X311862Y356862D02*
D03*
Y352138D02*
D03*
X307138Y356862D02*
D03*
Y352138D02*
D03*
X402638Y229500D02*
D03*
D68*
X352500Y202000D02*
D03*
X475000D02*
D03*
X352500Y393000D02*
D03*
D71*
X246000Y226500D02*
D03*
Y398000D02*
D03*
X461000D02*
D03*
M02*
