M48
;Layer_Color=9474304
;FILE_FORMAT=2:5
INCH,LZ
;TYPE=PLATED
T1F00S00C0.01181
T2F00S00C0.01299
T3F00S00C0.03543
T4F00S00C0.07874
T5F00S00C0.12598
%
T01
X04885Y02
X0491Y0215
X0484Y02205
X0485Y0237
X04815Y0241
X04825Y02485
X0479Y02605
X04775Y0272
X0469169Y0267331
X0480169Y0283669
X05055Y02795
X0508Y02715
X0505Y0266
X0498Y02325
X05065Y02195
X052Y0219
X05365Y02195
X05515Y02165
X05455Y02035
X0529Y02
X05035Y02035
X0562Y02
X0565Y02275
X05715Y0245
X05705Y0266
X0566Y0284
X05615Y0281
X0554Y02895
X04635Y0282031
X04595Y03
X04405Y03105
X04165Y03045
X04145Y0284
X04135Y0278
X04115Y0265
X04245Y0268
X0423Y0249
X0427Y02375
X0429Y0218
X04095Y0207
X04105Y01985
X04065Y02295
X03905Y0241
X03815Y0248
X03735Y0256
X03675Y0244
X03645Y02375
X03495
X0349Y0255
X03435Y026
X0328
X03195Y0253
X0326Y0244
X0338Y02465
X034Y0227
X0344Y0217
X03875Y0218
X03965Y02565
X0402Y0254
Y02835
X03865Y02845
X0387Y02965
X0375Y0311
X03655Y0303
X03615Y0283
Y0274
X037Y02745
X03755
X03645Y02665
X03575Y02635
X0353Y0267
Y0275
Y02825
X0341Y02885
X0323Y0288
X03175Y02965
X03235Y03035
X0316Y0279
X03175Y02665
X0358Y02505
X04585Y0249
X04615Y0236
X0307Y0243
X0292Y0242
X02785
X028Y02255
X0261Y0219
X0249Y02455
X02505Y02595
X0251Y02715
X0237Y02745
Y0253
X0239Y02365
X0237Y0303
X025Y0298
X0277Y02975
X02865
X0302Y03015
X0309Y03
X0311Y02935
X02995Y0289
X0289Y02775
X03025Y02695
X0278Y02665
X02885Y0256
X0268Y02835
X0272Y031
X02995Y0218
X0306Y0315
X02925Y03165
X02825Y03235
X0266Y0318
X0267Y03345
X0255Y03375
X0247Y03345
X024Y0338
X0238Y03285
X0236Y03685
X02465Y0372
X02515Y0376
X02555Y03735
X0259Y0388
X0274Y0386
Y03795
Y0372
X0266Y0364
X0273Y03505
X0307138Y0352138
X0311862
Y0356862
X0307138
X030261Y037039
X0295Y03665
X029Y03885
X02825Y0386
X02375Y0385
X02985Y0338
X0304Y03305
X03235
X03275Y0334
X0332Y0339
X03325Y0344
X03375Y03455
X0343Y0346
X0347Y0341
X0357Y03385
X03555Y03325
X03625Y03275
X0378Y03305
X0385Y03225
X03905Y0323
X03965Y03315
X0411
X04165Y03195
X0412Y03145
X0427Y03155
X0423Y0344
X0426Y0351
X04375Y0349
X04365Y03435
X044Y03705
X04535Y03675
X0447Y03815
X0433Y03855
X04255Y0376
X04245Y0364
X0414Y03725
X04035Y03775
Y0363
X0409Y03515
X03985Y0349
X0385Y03455
X0373Y03195
X0346Y0322
X03445Y0328
X03385Y0334
X03345Y0354
X03295Y03545
X03365Y0363358
X0324Y03695
X03135Y03725
X03175Y03895
X03335Y03885
X0342Y0387
X03455Y03785
X0363Y0383
X03735Y03875
X0391Y03855
X0416Y03865
X04635Y038
Y0323
X0347Y0314
X0342Y03135
X03235Y0315517
X03155Y03145
X0498Y0326
X04985Y0334
T02
X0402638Y02295
T03
X0512Y02655
X0522
X0532
X0542
X0552
X0451Y0316
Y0326
Y0336
Y0346
X05635Y03445
Y03345
Y03245
Y03145
T04
X0475Y0202
X0462807Y0198689
X04445Y02105
X0426193Y0198689
X0399807
X03815Y02105
X0363193Y0198689
X03525Y0202
X0336807Y0198689
X03185Y02105
X0300193Y0198689
X0273807
X02555Y02105
X0237193Y0198689
X03525Y0393
T05
X0238Y0412783
X0462094
M30
