%FSLAX25Y25*%
%MOIN*%
G70*
G01*
G75*
G04 Layer_Color=32896*
%ADD10R,0.03150X0.05512*%
%ADD11R,0.02559X0.00984*%
%ADD12R,0.02362X0.04528*%
%ADD13O,0.07284X0.02362*%
%ADD14R,0.07874X0.03937*%
%ADD15R,0.17716X0.17716*%
%ADD16O,0.02559X0.00984*%
%ADD17O,0.00984X0.02559*%
%ADD18R,0.03543X0.02953*%
%ADD19R,0.05315X0.03740*%
%ADD20R,0.11811X0.00039*%
%ADD21R,0.01575X0.01575*%
%ADD22R,0.06102X0.02559*%
%ADD23O,0.00984X0.02362*%
%ADD24R,0.08268X0.05512*%
%ADD25O,0.01772X0.05118*%
%ADD26R,0.00984X0.01969*%
%ADD27R,0.05118X0.03937*%
%ADD28R,0.03937X0.03543*%
%ADD29R,0.03937X0.01378*%
%ADD30R,0.02953X0.09449*%
%ADD31O,0.02362X0.08071*%
%ADD32R,0.08071X0.03150*%
%ADD33R,0.03543X0.03150*%
%ADD34R,0.01969X0.02362*%
%ADD35R,0.03150X0.03543*%
%ADD36R,0.02362X0.01969*%
%ADD37R,0.03937X0.05118*%
%ADD38C,0.03937*%
%ADD39C,0.01000*%
%ADD40C,0.01969*%
%ADD41C,0.01181*%
%ADD42C,0.03150*%
%ADD43C,0.05906*%
%ADD44C,0.01575*%
%ADD45C,0.03937*%
%ADD46C,0.02362*%
%ADD47C,0.00787*%
G04:AMPARAMS|DCode=48|XSize=18.11mil|YSize=66.44mil|CornerRadius=0mil|HoleSize=0mil|Usage=FLASHONLY|Rotation=34.500|XOffset=0mil|YOffset=0mil|HoleType=Round|Shape=Rectangle|*
%AMROTATEDRECTD48*
4,1,4,0.01135,-0.03251,-0.02628,0.02225,-0.01135,0.03251,0.02628,-0.02225,0.01135,-0.03251,0.0*
%
%ADD48ROTATEDRECTD48*%

%ADD49R,0.01811X0.07992*%
%ADD50R,0.12598X0.05079*%
%ADD51R,0.12598X0.04764*%
%ADD52R,0.08583X0.15590*%
%ADD53R,1.00709X0.04764*%
%ADD54R,0.36142X0.03937*%
%ADD55R,0.19193X0.05079*%
%ADD56R,0.04724X0.03150*%
%ADD57R,0.03937X0.02913*%
%ADD58R,0.35500X0.02000*%
%ADD59R,0.12728X0.02500*%
%ADD60R,0.03032X0.06303*%
%ADD61R,0.05906X0.05906*%
%ADD62C,0.05906*%
%ADD63R,0.05906X0.05906*%
%ADD64C,0.11811*%
%ADD65C,0.06000*%
%ADD66C,0.02598*%
%ADD67C,0.03150*%
%ADD68C,0.07874*%
%ADD69C,0.00984*%
%ADD70C,0.00800*%
%ADD71C,0.11811*%
D39*
X416449Y217783D02*
X472650D01*
Y191307D02*
Y217783D01*
X416449Y191307D02*
Y217783D01*
Y191307D02*
X472650D01*
X227449Y217783D02*
X283650D01*
Y191307D02*
Y217783D01*
X227449Y191307D02*
Y217783D01*
Y191307D02*
X283650D01*
X290449Y217783D02*
X346650D01*
Y191307D02*
Y217783D01*
X290449Y191307D02*
Y217783D01*
Y191307D02*
X346650D01*
X353449Y217783D02*
X409650D01*
Y191307D02*
Y217783D01*
X353449Y191307D02*
Y217783D01*
Y191307D02*
X409650D01*
D47*
X507000Y255500D02*
Y260500D01*
Y255500D02*
X557000D01*
Y260500D01*
X553667Y242167D02*
Y255500D01*
X552000Y240500D02*
X553667Y242167D01*
X550333D02*
X552000Y240500D01*
X550333Y242167D02*
Y255500D01*
X543667Y242167D02*
Y255500D01*
X542000Y240500D02*
X543667Y242167D01*
X540333D02*
X542000Y240500D01*
X540333Y242167D02*
Y255500D01*
X533667Y242167D02*
Y255500D01*
X532000Y240500D02*
X533667Y242167D01*
X530333D02*
X532000Y240500D01*
X530333Y242167D02*
Y255500D01*
X523667Y242167D02*
Y255500D01*
X522000Y240500D02*
X523667Y242167D01*
X520333D02*
X522000Y240500D01*
X520333Y242167D02*
Y255500D01*
X513667Y242167D02*
Y255500D01*
X512000Y240500D02*
X513667Y242167D01*
X510333D02*
X512000Y240500D01*
X510333Y242167D02*
Y255500D01*
X507000Y260500D02*
X557000D01*
X446000Y351000D02*
X456000D01*
X446000Y311000D02*
Y351000D01*
X456000Y311000D02*
Y351000D01*
X446000Y311000D02*
X456000D01*
X560500Y259500D02*
X564436D01*
Y261468D01*
X563780Y262124D01*
X562468D01*
X561812Y261468D01*
Y259500D01*
X564436Y266060D02*
Y263436D01*
X562468D01*
X563124Y264748D01*
Y265404D01*
X562468Y266060D01*
X561156D01*
X560500Y265404D01*
Y264092D01*
X561156Y263436D01*
X455600Y354200D02*
Y358136D01*
X453632D01*
X452976Y357480D01*
Y356168D01*
X453632Y355512D01*
X455600D01*
X451664Y358136D02*
X449040D01*
Y357480D01*
X451664Y354856D01*
Y354200D01*
X472400Y221100D02*
Y225036D01*
X470432D01*
X469776Y224380D01*
Y223068D01*
X470432Y222412D01*
X472400D01*
X468464Y221100D02*
X467152D01*
X467808D01*
Y225036D01*
X468464Y224380D01*
X283400Y221100D02*
Y225036D01*
X281432D01*
X280776Y224380D01*
Y223068D01*
X281432Y222412D01*
X283400D01*
X277496Y221100D02*
Y225036D01*
X279464Y223068D01*
X276840D01*
X346400Y221100D02*
Y225036D01*
X344432D01*
X343776Y224380D01*
Y223068D01*
X344432Y222412D01*
X346400D01*
X342464Y224380D02*
X341808Y225036D01*
X340496D01*
X339840Y224380D01*
Y223724D01*
X340496Y223068D01*
X341152D01*
X340496D01*
X339840Y222412D01*
Y221756D01*
X340496Y221100D01*
X341808D01*
X342464Y221756D01*
X409400Y221100D02*
Y225036D01*
X407432D01*
X406776Y224380D01*
Y223068D01*
X407432Y222412D01*
X409400D01*
X402840Y221100D02*
X405464D01*
X402840Y223724D01*
Y224380D01*
X403496Y225036D01*
X404808D01*
X405464Y224380D01*
X515436Y270500D02*
X511500D01*
Y272468D01*
X512156Y273124D01*
X512812D01*
X513468Y272468D01*
Y270500D01*
Y272468D01*
X514124Y273124D01*
X514780D01*
X515436Y272468D01*
Y270500D01*
X511500Y274436D02*
Y275748D01*
Y275092D01*
X515436D01*
Y274436D01*
X514124Y278372D02*
Y279683D01*
X513468Y280339D01*
X511500D01*
Y278372D01*
X512156Y277715D01*
X512812Y278372D01*
Y280339D01*
X514124Y284275D02*
Y282307D01*
X513468Y281651D01*
X512156D01*
X511500Y282307D01*
Y284275D01*
Y285587D02*
X515436D01*
X512812D02*
X514124Y287555D01*
X512812Y285587D02*
X511500Y287555D01*
X524936Y270500D02*
X521000D01*
Y272468D01*
X521656Y273124D01*
X522312D01*
X522968Y272468D01*
Y270500D01*
Y272468D01*
X523624Y273124D01*
X524280D01*
X524936Y272468D01*
Y270500D01*
X523624Y274436D02*
X521000D01*
X522312D01*
X522968Y275092D01*
X523624Y275748D01*
Y276404D01*
X521000Y279027D02*
Y280339D01*
X521656Y280995D01*
X522968D01*
X523624Y280339D01*
Y279027D01*
X522968Y278372D01*
X521656D01*
X521000Y279027D01*
X523624Y282307D02*
X521656D01*
X521000Y282963D01*
X521656Y283619D01*
X521000Y284275D01*
X521656Y284931D01*
X523624D01*
X521000Y286243D02*
X523624D01*
Y288211D01*
X522968Y288867D01*
X521000D01*
X534436Y270500D02*
X533780D01*
X532468Y271812D01*
X533780Y273124D01*
X534436D01*
X532468Y271812D02*
X530500D01*
Y276404D02*
Y275092D01*
X531156Y274436D01*
X532468D01*
X533124Y275092D01*
Y276404D01*
X532468Y277060D01*
X531812D01*
Y274436D01*
X530500Y278372D02*
Y279683D01*
Y279027D01*
X534436D01*
Y278372D01*
X530500Y281651D02*
Y282963D01*
Y282307D01*
X534436D01*
Y281651D01*
X530500Y285587D02*
Y286899D01*
X531156Y287555D01*
X532468D01*
X533124Y286899D01*
Y285587D01*
X532468Y284931D01*
X531156D01*
X530500Y285587D01*
X533124Y288867D02*
X531156D01*
X530500Y289523D01*
X531156Y290179D01*
X530500Y290835D01*
X531156Y291491D01*
X533124D01*
X544936Y272468D02*
Y271156D01*
X544280Y270500D01*
X541656D01*
X541000Y271156D01*
Y272468D01*
X541656Y273124D01*
X544280D01*
X544936Y272468D01*
X543624Y274436D02*
X541000D01*
X542312D01*
X542968Y275092D01*
X543624Y275748D01*
Y276404D01*
Y279027D02*
Y280339D01*
X542968Y280995D01*
X541000D01*
Y279027D01*
X541656Y278372D01*
X542312Y279027D01*
Y280995D01*
X541000Y282307D02*
X543624D01*
Y284275D01*
X542968Y284931D01*
X541000D01*
X539688Y287555D02*
Y288211D01*
X540344Y288867D01*
X543624D01*
Y286899D01*
X542968Y286243D01*
X541656D01*
X541000Y286899D01*
Y288867D01*
Y292147D02*
Y290835D01*
X541656Y290179D01*
X542968D01*
X543624Y290835D01*
Y292147D01*
X542968Y292803D01*
X542312D01*
Y290179D01*
X554000Y270000D02*
X557936D01*
Y271968D01*
X557280Y272624D01*
X555968D01*
X555312Y271968D01*
Y270000D01*
Y271312D02*
X554000Y272624D01*
Y275904D02*
Y274592D01*
X554656Y273936D01*
X555968D01*
X556624Y274592D01*
Y275904D01*
X555968Y276560D01*
X555312D01*
Y273936D01*
X557936Y280495D02*
X554000D01*
Y278527D01*
X554656Y277871D01*
X555968D01*
X556624Y278527D01*
Y280495D01*
M02*
