%FSLAX25Y25*%
%MOIN*%
G70*
G01*
G75*
G04 Layer_Color=8388736*
%ADD10R,0.03150X0.05512*%
%ADD11R,0.02559X0.00984*%
%ADD12R,0.02362X0.04528*%
%ADD13O,0.07284X0.02362*%
%ADD14R,0.07874X0.03937*%
%ADD15R,0.17716X0.17716*%
%ADD16O,0.02559X0.00984*%
%ADD17O,0.00984X0.02559*%
%ADD18R,0.03543X0.02953*%
%ADD19R,0.05315X0.03740*%
%ADD20R,0.11811X0.00039*%
%ADD21R,0.01575X0.01575*%
%ADD22R,0.06102X0.02559*%
%ADD23O,0.00984X0.02362*%
%ADD24R,0.08268X0.05512*%
%ADD25O,0.01772X0.05118*%
%ADD26R,0.00984X0.01969*%
%ADD27R,0.05118X0.03937*%
%ADD28R,0.03937X0.03543*%
%ADD29R,0.03937X0.01378*%
%ADD30R,0.02953X0.09449*%
%ADD31O,0.02362X0.08071*%
%ADD32R,0.08071X0.03150*%
%ADD33R,0.03543X0.03150*%
%ADD34R,0.01969X0.02362*%
%ADD35R,0.03150X0.03543*%
%ADD36R,0.02362X0.01969*%
%ADD37R,0.03937X0.05118*%
%ADD38C,0.03937*%
%ADD39C,0.01000*%
%ADD40C,0.01969*%
%ADD41C,0.01181*%
%ADD42C,0.03150*%
%ADD43C,0.05906*%
%ADD44C,0.01575*%
%ADD45C,0.03937*%
%ADD46C,0.02362*%
%ADD47C,0.00787*%
G04:AMPARAMS|DCode=48|XSize=18.11mil|YSize=66.44mil|CornerRadius=0mil|HoleSize=0mil|Usage=FLASHONLY|Rotation=34.500|XOffset=0mil|YOffset=0mil|HoleType=Round|Shape=Rectangle|*
%AMROTATEDRECTD48*
4,1,4,0.01135,-0.03251,-0.02628,0.02225,-0.01135,0.03251,0.02628,-0.02225,0.01135,-0.03251,0.0*
%
%ADD48ROTATEDRECTD48*%

%ADD49R,0.01811X0.07992*%
%ADD50R,0.12598X0.05079*%
%ADD51R,0.12598X0.04764*%
%ADD52R,0.08583X0.15590*%
%ADD53R,1.00709X0.04764*%
%ADD54R,0.36142X0.03937*%
%ADD55R,0.19193X0.05079*%
%ADD56R,0.04724X0.03150*%
%ADD57R,0.03937X0.02913*%
%ADD58R,0.35500X0.02000*%
%ADD59R,0.12728X0.02500*%
%ADD60R,0.03032X0.06303*%
%ADD61R,0.05906X0.05906*%
%ADD62C,0.05906*%
%ADD63R,0.05906X0.05906*%
%ADD64C,0.11811*%
%ADD65C,0.06000*%
%ADD66C,0.02598*%
%ADD67C,0.03150*%
%ADD68C,0.07874*%
%ADD69C,0.00984*%
%ADD70C,0.00800*%
%ADD71C,0.11811*%
D10*
X439500Y286500D02*
D03*
D11*
X435169Y283941D02*
D03*
Y286500D02*
D03*
Y289059D02*
D03*
X443831D02*
D03*
Y286500D02*
D03*
Y283941D02*
D03*
D12*
X440500Y255571D02*
D03*
X436760Y264429D02*
D03*
X444240D02*
D03*
D13*
X343646Y266000D02*
D03*
Y271000D02*
D03*
Y276000D02*
D03*
Y281000D02*
D03*
X324354Y266000D02*
D03*
Y271000D02*
D03*
Y276000D02*
D03*
Y281000D02*
D03*
D14*
X440500Y232398D02*
D03*
Y244602D02*
D03*
D15*
X309500Y354500D02*
D03*
D16*
X297590Y345642D02*
D03*
Y347610D02*
D03*
Y349579D02*
D03*
Y351547D02*
D03*
Y353516D02*
D03*
Y355484D02*
D03*
Y357453D02*
D03*
Y359421D02*
D03*
Y361390D02*
D03*
Y363358D02*
D03*
X321410D02*
D03*
Y361390D02*
D03*
Y359421D02*
D03*
Y357453D02*
D03*
Y355484D02*
D03*
Y353516D02*
D03*
Y351547D02*
D03*
Y349579D02*
D03*
Y347610D02*
D03*
Y345642D02*
D03*
D17*
X300642Y366409D02*
D03*
X302610D02*
D03*
X304579D02*
D03*
X306547D02*
D03*
X308516D02*
D03*
X310484D02*
D03*
X312453D02*
D03*
X314421D02*
D03*
X316390D02*
D03*
X318358D02*
D03*
Y342590D02*
D03*
X316390D02*
D03*
X314421D02*
D03*
X312453D02*
D03*
X310484D02*
D03*
X308516D02*
D03*
X306547D02*
D03*
X304579D02*
D03*
X302610D02*
D03*
X300642D02*
D03*
D18*
X510658Y334000D02*
D03*
X505342D02*
D03*
X510658Y326000D02*
D03*
X505342D02*
D03*
D19*
X282500Y356752D02*
D03*
Y363248D02*
D03*
D22*
X394941Y363453D02*
D03*
Y357744D02*
D03*
X374665D02*
D03*
Y363453D02*
D03*
X522059Y326547D02*
D03*
Y332256D02*
D03*
X542335D02*
D03*
Y326547D02*
D03*
D23*
X407953Y235405D02*
D03*
X405984D02*
D03*
X404016D02*
D03*
X402047D02*
D03*
Y223594D02*
D03*
X404016D02*
D03*
X405984D02*
D03*
X407953D02*
D03*
D24*
X405000Y229500D02*
D03*
D25*
X485161Y267331D02*
D03*
X487720D02*
D03*
X490279D02*
D03*
X492839D02*
D03*
X485161Y283669D02*
D03*
X487720D02*
D03*
X490279D02*
D03*
X492839D02*
D03*
D26*
X400032Y274500D02*
D03*
X402000D02*
D03*
X403968D02*
D03*
Y278831D02*
D03*
X402000D02*
D03*
X400032D02*
D03*
D27*
X393500Y272350D02*
D03*
Y278650D02*
D03*
D28*
X319661Y375842D02*
D03*
Y381748D02*
D03*
X327929Y381650D02*
D03*
Y375744D02*
D03*
D29*
X306457Y381059D02*
D03*
Y378500D02*
D03*
Y375941D02*
D03*
X313642D02*
D03*
Y378500D02*
D03*
Y381059D02*
D03*
D30*
X241500Y348626D02*
D03*
X246500D02*
D03*
X251500D02*
D03*
X256500D02*
D03*
X261500D02*
D03*
X241500Y364374D02*
D03*
X246500D02*
D03*
X251500D02*
D03*
X256500D02*
D03*
X261500D02*
D03*
D31*
X539500Y249941D02*
D03*
X534500D02*
D03*
X529500D02*
D03*
X524500D02*
D03*
X519500D02*
D03*
X514500D02*
D03*
X509500D02*
D03*
X504500D02*
D03*
X539500Y230059D02*
D03*
X534500D02*
D03*
X529500D02*
D03*
X524500D02*
D03*
X519500D02*
D03*
X514500D02*
D03*
X509500D02*
D03*
X504500D02*
D03*
D32*
X427000Y286028D02*
D03*
Y276972D02*
D03*
D33*
X396449Y219500D02*
D03*
X402551D02*
D03*
X434449Y336500D02*
D03*
X440551D02*
D03*
X434449Y326000D02*
D03*
X440551D02*
D03*
D34*
X409000Y274532D02*
D03*
Y278468D02*
D03*
X421500Y319969D02*
D03*
Y316032D02*
D03*
X286000Y374532D02*
D03*
Y378468D02*
D03*
X494000Y233469D02*
D03*
Y229532D02*
D03*
X484000Y232968D02*
D03*
Y229031D02*
D03*
X474500Y232968D02*
D03*
Y229031D02*
D03*
X551000Y235968D02*
D03*
Y232031D02*
D03*
X310500Y323468D02*
D03*
Y319531D02*
D03*
X315500Y323468D02*
D03*
Y319531D02*
D03*
X500000Y274031D02*
D03*
Y277969D02*
D03*
X306500Y387531D02*
D03*
Y391469D02*
D03*
X418000Y216531D02*
D03*
Y220468D02*
D03*
X379500Y278468D02*
D03*
Y274532D02*
D03*
X430000Y260469D02*
D03*
Y256532D02*
D03*
X292500Y378468D02*
D03*
Y374532D02*
D03*
X400000Y314531D02*
D03*
Y318468D02*
D03*
X263000Y247969D02*
D03*
Y244032D02*
D03*
X421500Y311968D02*
D03*
Y308032D02*
D03*
X323000Y391469D02*
D03*
Y387531D02*
D03*
X328000Y391469D02*
D03*
Y387531D02*
D03*
X356000Y363469D02*
D03*
Y359531D02*
D03*
X293000Y342469D02*
D03*
Y338531D02*
D03*
X508500Y286469D02*
D03*
Y282531D02*
D03*
X302000Y387531D02*
D03*
Y391469D02*
D03*
X453000Y285968D02*
D03*
Y282031D02*
D03*
X457500Y285968D02*
D03*
Y282031D02*
D03*
X418000Y226031D02*
D03*
Y229969D02*
D03*
X409000Y216469D02*
D03*
Y212531D02*
D03*
X404500Y323532D02*
D03*
Y327468D02*
D03*
X283500Y344468D02*
D03*
Y340531D02*
D03*
X289000Y346468D02*
D03*
Y342531D02*
D03*
X400000Y323532D02*
D03*
Y327468D02*
D03*
X301500Y374532D02*
D03*
Y378468D02*
D03*
X291000Y364032D02*
D03*
Y367969D02*
D03*
X297000Y374532D02*
D03*
Y378468D02*
D03*
D35*
X268500Y242949D02*
D03*
Y249051D02*
D03*
Y260551D02*
D03*
Y254449D02*
D03*
D36*
X256031Y318500D02*
D03*
X259968D02*
D03*
X256031Y313000D02*
D03*
X259968D02*
D03*
X365968Y363500D02*
D03*
X362032D02*
D03*
X434031Y296500D02*
D03*
X437968D02*
D03*
X451031Y264500D02*
D03*
X454969D02*
D03*
X272532Y357000D02*
D03*
X276468D02*
D03*
X272532Y363000D02*
D03*
X276468D02*
D03*
X437532Y277000D02*
D03*
X441468D02*
D03*
X320031Y336000D02*
D03*
X323969D02*
D03*
X326031Y366500D02*
D03*
X329969D02*
D03*
X395468Y283000D02*
D03*
X391531D02*
D03*
D37*
X407850Y243000D02*
D03*
X414150D02*
D03*
D61*
X552000Y265500D02*
D03*
D62*
X542000D02*
D03*
X532000D02*
D03*
X522000D02*
D03*
X512000D02*
D03*
X451000Y326000D02*
D03*
Y336000D02*
D03*
Y346000D02*
D03*
X563500Y324500D02*
D03*
Y334500D02*
D03*
Y344500D02*
D03*
D63*
X451000Y316000D02*
D03*
X563500Y314500D02*
D03*
D64*
X426193Y198689D02*
D03*
X462807D02*
D03*
X444500Y210500D02*
D03*
X237193Y198689D02*
D03*
X273807D02*
D03*
X255500Y210500D02*
D03*
X300193Y198689D02*
D03*
X336807D02*
D03*
X318500Y210500D02*
D03*
X363193Y198689D02*
D03*
X399807D02*
D03*
X381500Y210500D02*
D03*
D65*
X238000Y412783D02*
D03*
X462094D02*
D03*
D68*
X352500Y202000D02*
D03*
X475000D02*
D03*
X352500Y393000D02*
D03*
D71*
X246000Y226500D02*
D03*
Y398000D02*
D03*
X461000D02*
D03*
M02*
