%FSLAX25Y25*%
%MOIN*%
G70*
G01*
G75*
G04 Layer_Color=32896*
%ADD10O,0.01378X0.05512*%
%ADD11R,0.02362X0.04528*%
%ADD12R,0.03937X0.07874*%
%ADD13R,0.01772X0.02362*%
%ADD14R,0.08268X0.05906*%
%ADD15R,0.17716X0.17716*%
%ADD16O,0.02559X0.00984*%
%ADD17O,0.00984X0.02559*%
%ADD18R,0.05315X0.03740*%
%ADD19R,0.01575X0.01575*%
%ADD20R,0.11811X0.00039*%
%ADD21R,0.05512X0.08268*%
%ADD22O,0.02362X0.00984*%
%ADD23R,0.06693X0.03150*%
%ADD24R,0.00984X0.01969*%
%ADD25R,0.03937X0.03543*%
%ADD26R,0.03937X0.01378*%
%ADD27R,0.03150X0.06496*%
%ADD28R,0.03150X0.03543*%
%ADD29R,0.02362X0.01969*%
%ADD30R,0.01969X0.02362*%
%ADD31R,0.03543X0.03150*%
%ADD32R,0.03937X0.05118*%
%ADD33R,0.05118X0.03937*%
%ADD34C,0.03937*%
%ADD35C,0.00787*%
%ADD36C,0.03937*%
%ADD37C,0.01969*%
%ADD38C,0.01000*%
%ADD39C,0.01181*%
%ADD40C,0.01575*%
%ADD41C,0.02000*%
%ADD42C,0.02362*%
%ADD43R,0.03937X0.02913*%
%ADD44R,0.04724X0.03150*%
%ADD45R,0.18898X0.05079*%
%ADD46R,0.36142X0.03937*%
%ADD47R,1.00709X0.04764*%
%ADD48R,0.08583X0.15590*%
%ADD49R,0.12598X0.04764*%
%ADD50R,0.12598X0.05079*%
%ADD51R,0.01811X0.07992*%
G04:AMPARAMS|DCode=52|XSize=18.11mil|YSize=66.44mil|CornerRadius=0mil|HoleSize=0mil|Usage=FLASHONLY|Rotation=214.500|XOffset=0mil|YOffset=0mil|HoleType=Round|Shape=Rectangle|*
%AMROTATEDRECTD52*
4,1,4,-0.01135,0.03251,0.02628,-0.02225,0.01135,-0.03251,-0.02628,0.02225,-0.01135,0.03251,0.0*
%
%ADD52ROTATEDRECTD52*%

%ADD53R,0.35500X0.02000*%
%ADD54R,0.09055X0.04823*%
%ADD55R,0.12598X0.03150*%
%ADD56C,0.04724*%
%ADD57C,0.05512*%
%ADD58C,0.05906*%
%ADD59R,0.05906X0.05906*%
%ADD60R,0.05906X0.05906*%
%ADD61C,0.06299*%
%ADD62C,0.06000*%
%ADD63C,0.02598*%
%ADD64C,0.03150*%
%ADD65R,0.05000X0.03543*%
%ADD66R,0.03150X0.05709*%
%ADD67R,0.05118X0.02559*%
%ADD68O,0.02362X0.07284*%
%ADD69R,0.02756X0.05315*%
%ADD70O,0.02165X0.01181*%
%ADD71R,0.03543X0.02953*%
%ADD72R,0.02953X0.03543*%
%ADD73C,0.00984*%
%ADD74C,0.11811*%
%ADD75C,0.00800*%
D35*
X397342Y348327D02*
Y370768D01*
X408563Y349705D02*
Y369291D01*
X405020D02*
X408563D01*
X405020Y349705D02*
X408563D01*
X394488Y407185D02*
X396850D01*
Y410236D01*
X394488Y418996D02*
X396850D01*
Y415945D02*
Y418996D01*
X408071Y542323D02*
Y551181D01*
X388386Y542323D02*
Y551181D01*
Y542323D02*
X408071D01*
X388386Y551181D02*
X408071D01*
X393110Y582185D02*
Y582382D01*
X389370D02*
X393110D01*
X385236D02*
X388976D01*
X385236Y582185D02*
Y582382D01*
Y590256D02*
Y590453D01*
Y590256D02*
X388976D01*
X389370D02*
X393110D01*
Y590453D01*
X400406Y435124D02*
Y437289D01*
X368000Y330000D02*
Y380000D01*
X388000Y330000D02*
Y380000D01*
X368000Y330000D02*
X388000D01*
X368000Y380000D02*
X388000D01*
X357205Y475906D02*
X367205D01*
Y515906D01*
X357205Y475906D02*
Y515906D01*
X367205D01*
X321358Y557579D02*
X326279D01*
X321358D02*
Y579134D01*
X331496D01*
Y557579D02*
Y579134D01*
X326279Y557579D02*
X331496D01*
X379724Y398917D02*
X384055D01*
X328602Y240472D02*
Y250472D01*
X288602D02*
X328602D01*
X288602Y240472D02*
X328602D01*
X288602D02*
Y250472D01*
X400098Y259547D02*
X400886D01*
X400098Y261910D02*
X400886D01*
X400295Y252559D02*
X401083D01*
X400295Y254921D02*
X401083D01*
X365650Y584878D02*
Y585665D01*
X368012Y584878D02*
Y585665D01*
X345374Y584842D02*
Y585630D01*
X347736Y584842D02*
Y585630D01*
X405315Y443799D02*
X406102D01*
X405315Y441437D02*
X406102D01*
X393209Y402854D02*
X393996D01*
X393209Y400492D02*
X393996D01*
X321850Y608169D02*
X326772D01*
X321850D02*
Y629724D01*
X331988D01*
Y608169D02*
Y629724D01*
X326772Y608169D02*
X331988D01*
X359298Y580035D02*
X361463D01*
X339384Y580031D02*
X341550D01*
X391996Y356136D02*
X391340Y356792D01*
Y358104D01*
X391996Y358760D01*
X392652D01*
X393308Y358104D01*
Y356792D01*
X393964Y356136D01*
X394620D01*
X395276Y356792D01*
Y358104D01*
X394620Y358760D01*
X395276Y352200D02*
Y354824D01*
X392652Y352200D01*
X391996D01*
X391340Y352856D01*
Y354168D01*
X391996Y354824D01*
X406888Y411122D02*
X403609D01*
X402953Y411778D01*
Y413090D01*
X403609Y413746D01*
X406888D01*
X406233Y415058D02*
X406888Y415714D01*
Y417026D01*
X406233Y417682D01*
X405577D01*
X404921Y417026D01*
Y416370D01*
Y417026D01*
X404265Y417682D01*
X403609D01*
X402953Y417026D01*
Y415714D01*
X403609Y415058D01*
X377757Y590650D02*
X381037D01*
X381693Y589994D01*
Y588682D01*
X381037Y588026D01*
X377757D01*
Y584090D02*
Y586714D01*
X379725D01*
X379069Y585402D01*
Y584746D01*
X379725Y584090D01*
X381037D01*
X381693Y584746D01*
Y586058D01*
X381037Y586714D01*
X394982Y435532D02*
X398917D01*
Y433564D01*
X398261Y432908D01*
X395637D01*
X394982Y433564D01*
Y435532D01*
X398917Y431596D02*
Y430284D01*
Y430940D01*
X394982D01*
X395637Y431596D01*
X365453Y379232D02*
X361517D01*
Y377264D01*
X362173Y376608D01*
X363485D01*
X364141Y377264D01*
Y379232D01*
X365453Y373329D02*
X361517D01*
X363485Y375296D01*
Y372673D01*
X370374Y496555D02*
X374310D01*
Y498523D01*
X373654Y499179D01*
X372342D01*
X371686Y498523D01*
Y496555D01*
X370374Y503115D02*
Y500491D01*
X372998Y503115D01*
X373654D01*
X374310Y502459D01*
Y501147D01*
X373654Y500491D01*
X333661Y563976D02*
X337597D01*
Y565944D01*
X336941Y566600D01*
X335629D01*
X334973Y565944D01*
Y563976D01*
X333661Y567912D02*
Y569224D01*
Y568568D01*
X337597D01*
X336941Y567912D01*
X374476Y404660D02*
X373820Y405316D01*
Y406628D01*
X374476Y407283D01*
X377100D01*
X377756Y406628D01*
Y405316D01*
X377100Y404660D01*
X377756Y400724D02*
Y403348D01*
X375132Y400724D01*
X374476D01*
X373820Y401380D01*
Y402692D01*
X374476Y403348D01*
X406595Y257480D02*
X410530D01*
Y259448D01*
X409874Y260104D01*
X408562D01*
X407906Y259448D01*
Y257480D01*
Y258792D02*
X406595Y260104D01*
X410530Y261416D02*
Y264040D01*
Y262728D01*
X406595D01*
Y265352D02*
Y266664D01*
Y266008D01*
X410530D01*
X409874Y265352D01*
X398524Y339272D02*
Y342420D01*
X396949D01*
X396425Y341896D01*
Y340846D01*
X396949Y340321D01*
X398524D01*
X397474D02*
X396425Y339272D01*
X393276D02*
X395375D01*
X393276Y341371D01*
Y341896D01*
X393801Y342420D01*
X394850D01*
X395375Y341896D01*
X390127Y342420D02*
X391177Y341896D01*
X392226Y340846D01*
Y339796D01*
X391702Y339272D01*
X390652D01*
X390127Y339796D01*
Y340321D01*
X390652Y340846D01*
X392226D01*
X394488Y258169D02*
X390552D01*
Y256201D01*
X391208Y255545D01*
X392520D01*
X393176Y256201D01*
Y258169D01*
Y256857D02*
X394488Y255545D01*
Y251610D02*
Y254234D01*
X391864Y251610D01*
X391208D01*
X390552Y252266D01*
Y253578D01*
X391208Y254234D01*
X390552Y247674D02*
Y250298D01*
X392520D01*
X391864Y248986D01*
Y248330D01*
X392520Y247674D01*
X393832D01*
X394488Y248330D01*
Y249642D01*
X393832Y250298D01*
X381890Y270472D02*
X385825D01*
Y272440D01*
X385170Y273096D01*
X383858D01*
X383202Y272440D01*
Y270472D01*
Y271784D02*
X381890Y273096D01*
Y277032D02*
Y274408D01*
X384514Y277032D01*
X385170D01*
X385825Y276376D01*
Y275064D01*
X385170Y274408D01*
X381890Y280968D02*
Y278344D01*
X384514Y280968D01*
X385170D01*
X385825Y280312D01*
Y279000D01*
X385170Y278344D01*
X370177Y581102D02*
X374113D01*
Y583070D01*
X373457Y583726D01*
X372145D01*
X371489Y583070D01*
Y581102D01*
Y582414D02*
X370177Y583726D01*
Y587662D02*
Y585038D01*
X372801Y587662D01*
X373457D01*
X374113Y587006D01*
Y585694D01*
X373457Y585038D01*
X370177Y588974D02*
Y590286D01*
Y589630D01*
X374113D01*
X373457Y588974D01*
X351673Y591929D02*
Y595865D01*
X349705D01*
X349049Y595209D01*
Y593897D01*
X349705Y593241D01*
X351673D01*
X350361D02*
X349049Y591929D01*
X345114D02*
X347738D01*
X345114Y594553D01*
Y595209D01*
X345770Y595865D01*
X347081D01*
X347738Y595209D01*
X343802D02*
X343146Y595865D01*
X341834D01*
X341178Y595209D01*
Y592585D01*
X341834Y591929D01*
X343146D01*
X343802Y592585D01*
Y595209D01*
X383169Y575689D02*
Y571753D01*
X385137D01*
X385793Y572409D01*
Y573721D01*
X385137Y574377D01*
X383169D01*
X384481D02*
X385793Y575689D01*
X387105D02*
X388417D01*
X387761D01*
Y571753D01*
X387105Y572409D01*
X393009Y571753D02*
X391697Y572409D01*
X390385Y573721D01*
Y575033D01*
X391041Y575689D01*
X392353D01*
X393009Y575033D01*
Y574377D01*
X392353Y573721D01*
X390385D01*
X409547Y446850D02*
Y450786D01*
X407579D01*
X406923Y450130D01*
Y448818D01*
X407579Y448162D01*
X409547D01*
X408235D02*
X406923Y446850D01*
X405612D02*
X404300D01*
X404955D01*
Y450786D01*
X405612Y450130D01*
X400364Y446850D02*
Y450786D01*
X402332Y448818D01*
X399708D01*
X393012Y398228D02*
Y394293D01*
X394980D01*
X395636Y394949D01*
Y396260D01*
X394980Y396916D01*
X393012D01*
X394324D02*
X395636Y398228D01*
X399571D02*
X396948D01*
X399571Y395604D01*
Y394949D01*
X398915Y394293D01*
X397604D01*
X396948Y394949D01*
X319882Y626968D02*
X315946D01*
Y625001D01*
X316602Y624345D01*
X317914D01*
X318570Y625001D01*
Y626968D01*
X316602Y623033D02*
X315946Y622377D01*
Y621065D01*
X316602Y620409D01*
X317258D01*
X317914Y621065D01*
Y621721D01*
Y621065D01*
X318570Y620409D01*
X319226D01*
X319882Y621065D01*
Y622377D01*
X319226Y623033D01*
X371753Y289862D02*
X375689D01*
Y287238D01*
X372409Y285927D02*
X371753Y285271D01*
Y283959D01*
X372409Y283303D01*
X373065D01*
X373721Y283959D01*
Y284615D01*
Y283959D01*
X374377Y283303D01*
X375033D01*
X375689Y283959D01*
Y285271D01*
X375033Y285927D01*
X352265Y588815D02*
X356201D01*
Y586847D01*
X355545Y586191D01*
X352921D01*
X352265Y586847D01*
Y588815D01*
X352921Y584879D02*
X352265Y584223D01*
Y582911D01*
X352921Y582255D01*
X353577D01*
X354233Y582911D01*
Y583567D01*
Y582911D01*
X354889Y582255D01*
X355545D01*
X356201Y582911D01*
Y584223D01*
X355545Y584879D01*
X332383Y592618D02*
X336319D01*
Y590650D01*
X335663Y589994D01*
X333039D01*
X332383Y590650D01*
Y592618D01*
X336319Y586059D02*
Y588682D01*
X333695Y586059D01*
X333039D01*
X332383Y586715D01*
Y588026D01*
X333039Y588682D01*
X404791Y333431D02*
X405315Y333956D01*
X406365D01*
X406890Y333431D01*
Y331332D01*
X406365Y330807D01*
X405315D01*
X404791Y331332D01*
X401642Y330807D02*
X403741D01*
X401642Y332906D01*
Y333431D01*
X402167Y333956D01*
X403216D01*
X403741Y333431D01*
X400593Y331332D02*
X400068Y330807D01*
X399018D01*
X398494Y331332D01*
Y333431D01*
X399018Y333956D01*
X400068D01*
X400593Y333431D01*
Y332906D01*
X400068Y332381D01*
X398494D01*
X400723Y273162D02*
X401379Y273818D01*
X402691D01*
X403346Y273162D01*
Y270538D01*
X402691Y269882D01*
X401379D01*
X400723Y270538D01*
X396787Y269882D02*
X399411D01*
X396787Y272506D01*
Y273162D01*
X397443Y273818D01*
X398755D01*
X399411Y273162D01*
X395475D02*
X394819Y273818D01*
X393507D01*
X392851Y273162D01*
Y272506D01*
X393507Y271850D01*
X392851Y271194D01*
Y270538D01*
X393507Y269882D01*
X394819D01*
X395475Y270538D01*
Y271194D01*
X394819Y271850D01*
X395475Y272506D01*
Y273162D01*
X394819Y271850D02*
X393507D01*
X405347Y586876D02*
X406003Y586220D01*
Y584908D01*
X405347Y584252D01*
X402723D01*
X402067Y584908D01*
Y586220D01*
X402723Y586876D01*
X402067Y588188D02*
Y589500D01*
Y588844D01*
X406003D01*
X405347Y588188D01*
X402723Y591468D02*
X402067Y592123D01*
Y593435D01*
X402723Y594091D01*
X405347D01*
X406003Y593435D01*
Y592123D01*
X405347Y591468D01*
X404691D01*
X404035Y592123D01*
Y594091D01*
X358531Y283350D02*
X357875Y284006D01*
Y285317D01*
X358531Y285974D01*
X361155D01*
X361811Y285317D01*
Y284006D01*
X361155Y283350D01*
X358531Y282038D02*
X357875Y281382D01*
Y280070D01*
X358531Y279414D01*
X359187D01*
X359843Y280070D01*
X360499Y279414D01*
X361155D01*
X361811Y280070D01*
Y281382D01*
X361155Y282038D01*
X360499D01*
X359843Y281382D01*
X359187Y282038D01*
X358531D01*
X359843Y281382D02*
Y280070D01*
D38*
X319094Y557579D02*
X321358D01*
X318799Y579134D02*
X321358D01*
X318898Y608366D02*
X321457D01*
X318701Y629528D02*
X321457D01*
X410630Y569581D02*
Y564582D01*
X409630Y563583D01*
X407631D01*
X406631Y564582D01*
Y569581D01*
X404632Y568581D02*
X403632Y569581D01*
X401633D01*
X400633Y568581D01*
Y567581D01*
X401633Y566582D01*
X400633Y565582D01*
Y564582D01*
X401633Y563583D01*
X403632D01*
X404632Y564582D01*
Y565582D01*
X403632Y566582D01*
X404632Y567581D01*
Y568581D01*
X403632Y566582D02*
X401633D01*
X290236Y237992D02*
Y231994D01*
X293235D01*
X294235Y232994D01*
Y234993D01*
X293235Y235993D01*
X290236D01*
X300233Y231994D02*
X296234D01*
Y234993D01*
X298234Y233993D01*
X299233D01*
X300233Y234993D01*
Y236993D01*
X299233Y237992D01*
X297234D01*
X296234Y236993D01*
D42*
X393504Y547244D02*
G03*
X393504Y547244I-1181J0D01*
G01*
D73*
X390650Y405905D02*
G03*
X390650Y405905I-492J0D01*
G01*
X387874Y556398D02*
G03*
X387874Y556398I-492J0D01*
G01*
X396457Y591437D02*
G03*
X396457Y591437I-492J0D01*
G01*
D75*
X381000Y381000D02*
Y382666D01*
Y381833D01*
X385998D01*
X385165Y381000D01*
Y385165D02*
X385998Y385998D01*
Y387665D01*
X385165Y388498D01*
X381833D01*
X381000Y387665D01*
Y385998D01*
X381833Y385165D01*
X385165D01*
X371833Y381000D02*
X371000Y381833D01*
Y383499D01*
X371833Y384332D01*
X375165D01*
X375998Y383499D01*
Y381833D01*
X375165Y381000D01*
X374332D01*
X373499Y381833D01*
Y384332D01*
X371000Y327000D02*
Y328666D01*
Y327833D01*
X375998D01*
X375165Y327000D01*
X381000Y328332D02*
Y325000D01*
X384332Y328332D01*
X385165D01*
X385998Y327499D01*
Y325833D01*
X385165Y325000D01*
M02*
