%FSLAX25Y25*%
%MOIN*%
G70*
G01*
G75*
G04 Layer_Color=8421504*
%ADD10O,0.01378X0.05512*%
%ADD11R,0.02362X0.04528*%
%ADD12R,0.03937X0.07874*%
%ADD13R,0.01772X0.02362*%
%ADD14R,0.08268X0.05906*%
%ADD15R,0.17716X0.17716*%
%ADD16O,0.02559X0.00984*%
%ADD17O,0.00984X0.02559*%
%ADD18R,0.05315X0.03740*%
%ADD19R,0.01575X0.01575*%
%ADD20R,0.11811X0.00039*%
%ADD21R,0.05512X0.08268*%
%ADD22O,0.02362X0.00984*%
%ADD23R,0.06693X0.03150*%
%ADD24R,0.00984X0.01969*%
%ADD25R,0.03937X0.03543*%
%ADD26R,0.03937X0.01378*%
%ADD27R,0.03150X0.06496*%
%ADD28R,0.03150X0.03543*%
%ADD29R,0.02362X0.01969*%
%ADD30R,0.01969X0.02362*%
%ADD31R,0.03543X0.03150*%
%ADD32R,0.03937X0.05118*%
%ADD33R,0.05118X0.03937*%
%ADD34C,0.03937*%
%ADD35C,0.00787*%
%ADD36C,0.03937*%
%ADD37C,0.01969*%
%ADD38C,0.01000*%
%ADD39C,0.01181*%
%ADD40C,0.01575*%
%ADD41C,0.02000*%
%ADD42C,0.02362*%
%ADD43R,0.03937X0.02913*%
%ADD44R,0.04724X0.03150*%
%ADD45R,0.18898X0.05079*%
%ADD46R,0.36142X0.03937*%
%ADD47R,1.00709X0.04764*%
%ADD48R,0.08583X0.15590*%
%ADD49R,0.12598X0.04764*%
%ADD50R,0.12598X0.05079*%
%ADD51R,0.01811X0.07992*%
G04:AMPARAMS|DCode=52|XSize=18.11mil|YSize=66.44mil|CornerRadius=0mil|HoleSize=0mil|Usage=FLASHONLY|Rotation=214.500|XOffset=0mil|YOffset=0mil|HoleType=Round|Shape=Rectangle|*
%AMROTATEDRECTD52*
4,1,4,-0.01135,0.03251,0.02628,-0.02225,0.01135,-0.03251,-0.02628,0.02225,-0.01135,0.03251,0.0*
%
%ADD52ROTATEDRECTD52*%

%ADD53R,0.35500X0.02000*%
%ADD54R,0.09055X0.04823*%
%ADD55R,0.12598X0.03150*%
%ADD56C,0.04724*%
%ADD57C,0.05512*%
%ADD58C,0.05906*%
%ADD59R,0.05906X0.05906*%
%ADD60R,0.05906X0.05906*%
%ADD61C,0.06299*%
%ADD62C,0.06000*%
%ADD63C,0.02598*%
%ADD64C,0.03150*%
%ADD65R,0.05000X0.03543*%
%ADD66R,0.03150X0.05709*%
%ADD67R,0.05118X0.02559*%
%ADD68O,0.02362X0.07284*%
%ADD69R,0.02756X0.05315*%
%ADD70O,0.02165X0.01181*%
%ADD71R,0.03543X0.02953*%
%ADD72R,0.02953X0.03543*%
%ADD73C,0.00984*%
D10*
X364173Y448032D02*
D03*
X366732D02*
D03*
X369291D02*
D03*
X371850D02*
D03*
X374409D02*
D03*
X376969D02*
D03*
X379528D02*
D03*
X364173Y470079D02*
D03*
X366732D02*
D03*
X369291D02*
D03*
X371850D02*
D03*
X374409D02*
D03*
X376969D02*
D03*
X379528D02*
D03*
D11*
X359744Y586319D02*
D03*
X363484Y577461D02*
D03*
X356004D02*
D03*
X360630Y552559D02*
D03*
X364370Y543701D02*
D03*
X356890D02*
D03*
D12*
X329823Y589468D02*
D03*
X317618D02*
D03*
D13*
X399791Y251803D02*
D03*
X403728D02*
D03*
X407665D02*
D03*
Y263614D02*
D03*
X403728D02*
D03*
X399791D02*
D03*
D14*
X403728Y257709D02*
D03*
D15*
X370000Y306433D02*
D03*
D16*
X381909Y315291D02*
D03*
Y313323D02*
D03*
Y311354D02*
D03*
Y309386D02*
D03*
Y307417D02*
D03*
Y305449D02*
D03*
Y303480D02*
D03*
Y301512D02*
D03*
Y299543D02*
D03*
Y297575D02*
D03*
X358090D02*
D03*
Y299543D02*
D03*
Y301512D02*
D03*
Y303480D02*
D03*
Y305449D02*
D03*
Y307417D02*
D03*
Y309386D02*
D03*
Y311354D02*
D03*
Y313323D02*
D03*
Y315291D02*
D03*
D17*
X378858Y294524D02*
D03*
X376890D02*
D03*
X374921D02*
D03*
X372953D02*
D03*
X370984D02*
D03*
X369016D02*
D03*
X367047D02*
D03*
X365079D02*
D03*
X363110D02*
D03*
X361142D02*
D03*
Y318342D02*
D03*
X363110D02*
D03*
X365079D02*
D03*
X367047D02*
D03*
X369016D02*
D03*
X370984D02*
D03*
X372953D02*
D03*
X374921D02*
D03*
X376890D02*
D03*
X378858D02*
D03*
D18*
X402756Y312106D02*
D03*
Y305610D02*
D03*
D19*
X352740Y199886D02*
D03*
D20*
X361740Y200886D02*
D03*
D21*
X296358Y592717D02*
D03*
D22*
X302264Y595669D02*
D03*
Y593701D02*
D03*
Y591732D02*
D03*
Y589764D02*
D03*
X290453D02*
D03*
Y591732D02*
D03*
Y593701D02*
D03*
Y595669D02*
D03*
D23*
X404724Y345768D02*
D03*
Y359842D02*
D03*
D24*
X386713Y573524D02*
D03*
X384744D02*
D03*
X382776D02*
D03*
Y569193D02*
D03*
X384744D02*
D03*
X386713D02*
D03*
D25*
X364173Y282382D02*
D03*
Y276476D02*
D03*
X355906Y276575D02*
D03*
Y282480D02*
D03*
D26*
X377756Y274311D02*
D03*
Y276870D02*
D03*
Y279429D02*
D03*
X370571D02*
D03*
Y276870D02*
D03*
Y274311D02*
D03*
D27*
X387697Y453150D02*
D03*
X399508D02*
D03*
D28*
X380020Y427165D02*
D03*
Y433268D02*
D03*
X362205Y537697D02*
D03*
Y531595D02*
D03*
X306594Y581890D02*
D03*
Y587992D02*
D03*
X374508Y427165D02*
D03*
Y433268D02*
D03*
X368996Y427165D02*
D03*
Y433268D02*
D03*
X380906Y502461D02*
D03*
Y496358D02*
D03*
X363386Y427264D02*
D03*
Y433366D02*
D03*
X370669Y489567D02*
D03*
Y483465D02*
D03*
X386910Y496358D02*
D03*
Y502461D02*
D03*
D29*
X373721Y540551D02*
D03*
X369783D02*
D03*
X382972Y326772D02*
D03*
X379035D02*
D03*
X404260Y269209D02*
D03*
X408197D02*
D03*
X388976Y294882D02*
D03*
X392913D02*
D03*
X358169Y287598D02*
D03*
X354232D02*
D03*
X387106Y564764D02*
D03*
X391043D02*
D03*
D30*
X365453Y375295D02*
D03*
Y379232D02*
D03*
X404823Y365551D02*
D03*
Y369488D02*
D03*
X366437Y355118D02*
D03*
Y351181D02*
D03*
X392815Y264764D02*
D03*
Y260827D02*
D03*
X392913Y251870D02*
D03*
Y255807D02*
D03*
X352756Y205906D02*
D03*
Y201969D02*
D03*
X311024Y590650D02*
D03*
Y594587D02*
D03*
X356004Y571555D02*
D03*
Y567618D02*
D03*
X401181Y563878D02*
D03*
Y567815D02*
D03*
X369783Y581004D02*
D03*
Y584941D02*
D03*
X386910Y491043D02*
D03*
Y487106D02*
D03*
X387106Y323228D02*
D03*
Y319291D02*
D03*
X360000Y266465D02*
D03*
Y270402D02*
D03*
X355000Y266465D02*
D03*
Y270402D02*
D03*
X399902Y369488D02*
D03*
Y365551D02*
D03*
X408071Y313484D02*
D03*
Y317421D02*
D03*
X408071Y308465D02*
D03*
Y304528D02*
D03*
X356693Y208957D02*
D03*
Y205020D02*
D03*
X311024Y599016D02*
D03*
Y602953D02*
D03*
X314961Y598228D02*
D03*
Y602165D02*
D03*
X381000Y288402D02*
D03*
Y284465D02*
D03*
X373500Y288402D02*
D03*
Y284465D02*
D03*
X377000Y288402D02*
D03*
Y284465D02*
D03*
X363492Y326850D02*
D03*
Y330787D02*
D03*
X390945Y319291D02*
D03*
Y323228D02*
D03*
X359492Y326850D02*
D03*
Y330787D02*
D03*
X378150Y573327D02*
D03*
Y569390D02*
D03*
X358366Y448425D02*
D03*
Y452362D02*
D03*
D31*
X364764Y558957D02*
D03*
X358661D02*
D03*
D32*
X290945Y609154D02*
D03*
X297244D02*
D03*
D33*
X392618Y575492D02*
D03*
Y569193D02*
D03*
X356890Y426968D02*
D03*
Y433268D02*
D03*
D34*
X403543Y208760D02*
D03*
X291043Y208563D02*
D03*
X291142Y625492D02*
D03*
M02*
