%FSLAX25Y25*%
%MOIN*%
G70*
G01*
G75*
G04 Layer_Color=16711935*
%ADD10O,0.01378X0.05512*%
%ADD11R,0.02362X0.04528*%
%ADD12R,0.03937X0.07874*%
%ADD13R,0.01772X0.02362*%
%ADD14R,0.08268X0.05906*%
%ADD15R,0.17716X0.17716*%
%ADD16O,0.02559X0.00984*%
%ADD17O,0.00984X0.02559*%
%ADD18R,0.05315X0.03740*%
%ADD19R,0.01575X0.01575*%
%ADD20R,0.11811X0.00039*%
%ADD21R,0.05512X0.08268*%
%ADD22O,0.02362X0.00984*%
%ADD23R,0.06693X0.03150*%
%ADD24R,0.00984X0.01969*%
%ADD25R,0.03937X0.03543*%
%ADD26R,0.03937X0.01378*%
%ADD27R,0.03150X0.06496*%
%ADD28R,0.03150X0.03543*%
%ADD29R,0.02362X0.01969*%
%ADD30R,0.01969X0.02362*%
%ADD31R,0.03543X0.03150*%
%ADD32R,0.03937X0.05118*%
%ADD33R,0.05118X0.03937*%
%ADD34C,0.03937*%
%ADD35C,0.00787*%
%ADD36C,0.03937*%
%ADD37C,0.01969*%
%ADD38C,0.01000*%
%ADD39C,0.01181*%
%ADD40C,0.01575*%
%ADD41C,0.02000*%
%ADD42C,0.02362*%
%ADD43R,0.03937X0.02913*%
%ADD44R,0.04724X0.03150*%
%ADD45R,0.18898X0.05079*%
%ADD46R,0.36142X0.03937*%
%ADD47R,1.00709X0.04764*%
%ADD48R,0.08583X0.15590*%
%ADD49R,0.12598X0.04764*%
%ADD50R,0.12598X0.05079*%
%ADD51R,0.01811X0.07992*%
G04:AMPARAMS|DCode=52|XSize=18.11mil|YSize=66.44mil|CornerRadius=0mil|HoleSize=0mil|Usage=FLASHONLY|Rotation=214.500|XOffset=0mil|YOffset=0mil|HoleType=Round|Shape=Rectangle|*
%AMROTATEDRECTD52*
4,1,4,-0.01135,0.03251,0.02628,-0.02225,0.01135,-0.03251,-0.02628,0.02225,-0.01135,0.03251,0.0*
%
%ADD52ROTATEDRECTD52*%

%ADD53R,0.35500X0.02000*%
%ADD54R,0.09055X0.04823*%
%ADD55R,0.12598X0.03150*%
%ADD56C,0.04724*%
%ADD57C,0.05512*%
%ADD58C,0.05906*%
%ADD59R,0.05906X0.05906*%
%ADD60R,0.05906X0.05906*%
%ADD61C,0.06299*%
%ADD62C,0.06000*%
%ADD63C,0.02598*%
%ADD64C,0.03150*%
%ADD65R,0.05000X0.03543*%
%ADD66R,0.03150X0.05709*%
%ADD67R,0.05118X0.02559*%
%ADD68O,0.02362X0.07284*%
%ADD69R,0.02756X0.05315*%
%ADD70O,0.02165X0.01181*%
%ADD71R,0.03543X0.02953*%
%ADD72R,0.02953X0.03543*%
%ADD73C,0.00984*%
%ADD74C,0.11811*%
D28*
X366831Y588323D02*
D03*
Y582221D02*
D03*
X346555Y588287D02*
D03*
Y582185D02*
D03*
D29*
X392224Y337303D02*
D03*
X396161D02*
D03*
X389862Y578346D02*
D03*
X385925D02*
D03*
X395866Y331988D02*
D03*
X391929D02*
D03*
X401968Y267028D02*
D03*
X398031D02*
D03*
D30*
X379000Y279902D02*
D03*
Y275965D02*
D03*
X379000Y284465D02*
D03*
Y288402D02*
D03*
X398819Y587894D02*
D03*
Y583957D02*
D03*
X365500Y284902D02*
D03*
Y280965D02*
D03*
D31*
X397441Y260728D02*
D03*
X403543D02*
D03*
X397638Y253740D02*
D03*
X403740D02*
D03*
X408760Y442618D02*
D03*
X402658D02*
D03*
X396654Y401673D02*
D03*
X390551D02*
D03*
D33*
X381890Y395768D02*
D03*
Y402067D02*
D03*
D56*
X383858Y552658D02*
D03*
X373858D02*
D03*
D57*
X367413Y394913D02*
D03*
Y409087D02*
D03*
X381685Y409185D02*
D03*
D58*
X383000Y375000D02*
D03*
X373000D02*
D03*
X383000Y365000D02*
D03*
X373000D02*
D03*
X383000Y355000D02*
D03*
X373000D02*
D03*
X383000Y345000D02*
D03*
X373000D02*
D03*
X383000Y335000D02*
D03*
X362205Y510906D02*
D03*
Y500906D02*
D03*
Y490906D02*
D03*
X326279Y573032D02*
D03*
Y563031D02*
D03*
X303602Y245472D02*
D03*
X313602D02*
D03*
X323602D02*
D03*
X326772Y623622D02*
D03*
Y613622D02*
D03*
D59*
X373000Y335000D02*
D03*
X362205Y480905D02*
D03*
D60*
X293602Y245472D02*
D03*
D61*
X340551Y600787D02*
D03*
X389169Y617850D02*
D03*
X389138Y600823D02*
D03*
X360661Y617850D02*
D03*
X360630Y600823D02*
D03*
X340551Y617815D02*
D03*
D62*
X380000Y228500D02*
D03*
Y525000D02*
D03*
D63*
X367638Y304071D02*
D03*
Y308795D02*
D03*
X372362Y304071D02*
D03*
Y308795D02*
D03*
X389173Y586319D02*
D03*
X296358Y590354D02*
D03*
Y595079D02*
D03*
D64*
X357776Y533661D02*
D03*
X341142Y572244D02*
D03*
X330020Y582382D02*
D03*
X313090Y612500D02*
D03*
X408071Y351870D02*
D03*
X396949Y361811D02*
D03*
X402658Y340256D02*
D03*
X400591Y336713D02*
D03*
X396949Y345472D02*
D03*
X397721Y566535D02*
D03*
X379035Y565748D02*
D03*
X408661Y229134D02*
D03*
X408268Y240748D02*
D03*
X390650Y219094D02*
D03*
X399016Y228346D02*
D03*
X394193Y234646D02*
D03*
X378839Y245472D02*
D03*
X367224Y233957D02*
D03*
X361221Y227264D02*
D03*
X365748Y218012D02*
D03*
X403150Y216339D02*
D03*
X409449Y202067D02*
D03*
X394882Y207283D02*
D03*
X374803Y208071D02*
D03*
X348425Y251575D02*
D03*
X358760Y247835D02*
D03*
X343996Y235138D02*
D03*
X332579Y230118D02*
D03*
X319783D02*
D03*
X303740Y229528D02*
D03*
X290354Y228839D02*
D03*
X295768Y218110D02*
D03*
X312303Y218012D02*
D03*
X332283Y217421D02*
D03*
X345079Y225886D02*
D03*
X344783Y215748D02*
D03*
X338287Y206890D02*
D03*
X319980Y207283D02*
D03*
X303740Y207382D02*
D03*
X397539Y243307D02*
D03*
X392913Y276378D02*
D03*
X397835Y277953D02*
D03*
X388583Y251673D02*
D03*
X388878Y264469D02*
D03*
X343110Y577067D02*
D03*
X375886Y594783D02*
D03*
X400197Y608760D02*
D03*
X376870Y624311D02*
D03*
X372933Y608661D02*
D03*
X351772Y624311D02*
D03*
X350689Y608465D02*
D03*
X310433Y616437D02*
D03*
X311910Y623425D02*
D03*
X303051Y618209D02*
D03*
X306594Y626083D02*
D03*
X304232Y573327D02*
D03*
X311024Y564764D02*
D03*
X296555Y567126D02*
D03*
X294980Y579921D02*
D03*
X402067Y578248D02*
D03*
X370276Y388484D02*
D03*
X375984Y456791D02*
D03*
X393504Y467421D02*
D03*
X404823Y401083D02*
D03*
X404331Y389173D02*
D03*
X392913Y491831D02*
D03*
X396850Y478839D02*
D03*
X380020Y349902D02*
D03*
X370276Y462697D02*
D03*
X402362Y318799D02*
D03*
X395374Y308465D02*
D03*
X397835Y319291D02*
D03*
X399410Y328642D02*
D03*
X387697Y360728D02*
D03*
X391240Y423819D02*
D03*
X386910Y483760D02*
D03*
X390354Y369783D02*
D03*
X366043Y346850D02*
D03*
X400395Y323435D02*
D03*
X390946Y326585D02*
D03*
X364469Y272539D02*
D03*
X368899Y265069D02*
D03*
X368976Y259134D02*
D03*
X369292Y269685D02*
D03*
X359744Y465748D02*
D03*
X354233Y369587D02*
D03*
X355906Y385827D02*
D03*
X357962Y418307D02*
D03*
X397737Y438386D02*
D03*
X365060Y461811D02*
D03*
X405021Y428051D02*
D03*
X386714Y315551D02*
D03*
X362404Y570867D02*
D03*
X353840Y381299D02*
D03*
X405710Y581693D02*
D03*
X408171Y380217D02*
D03*
X365748Y370079D02*
D03*
X360476D02*
D03*
X362993Y420768D02*
D03*
X373623Y422342D02*
D03*
X388190Y443012D02*
D03*
X376279Y323721D02*
D03*
X400394Y574114D02*
D03*
X408858Y575000D02*
D03*
X372342Y399311D02*
D03*
X372244Y414764D02*
D03*
X351789Y310054D02*
D03*
X353150Y306102D02*
D03*
X352576Y301885D02*
D03*
X352559Y297933D02*
D03*
X357104Y294404D02*
D03*
X358858Y290551D02*
D03*
X354840Y290959D02*
D03*
X354742Y330823D02*
D03*
X360352Y322260D02*
D03*
X357972Y318898D02*
D03*
X355135Y326886D02*
D03*
X356299Y322933D02*
D03*
X366142Y288878D02*
D03*
X381416Y292042D02*
D03*
X384842Y294783D02*
D03*
X361713Y334646D02*
D03*
X396850Y512894D02*
D03*
X396555Y507480D02*
D03*
X390158D02*
D03*
X390650Y512894D02*
D03*
X379528Y578937D02*
D03*
X351772Y569980D02*
D03*
X345669Y564075D02*
D03*
X369685Y436909D02*
D03*
X349410Y556890D02*
D03*
X352658Y553740D02*
D03*
X357972Y524705D02*
D03*
X370965Y510532D02*
D03*
X369094Y522539D02*
D03*
X374114Y536713D02*
D03*
X379724Y514075D02*
D03*
X396850Y519685D02*
D03*
X386811Y535039D02*
D03*
X381201Y559842D02*
D03*
X376079Y559575D02*
D03*
X365453Y382185D02*
D03*
X404429Y394783D02*
D03*
X407106Y327280D02*
D03*
X403150Y326476D02*
D03*
X409941Y335827D02*
D03*
X332382Y243307D02*
D03*
X394882Y563287D02*
D03*
X404921Y546555D02*
D03*
X398524Y544882D02*
D03*
X382972Y563976D02*
D03*
X394390Y527067D02*
D03*
X396949Y530413D02*
D03*
D65*
X400787Y367717D02*
D03*
Y351181D02*
D03*
D66*
X408268Y373031D02*
D03*
Y345866D02*
D03*
D67*
X390158Y409350D02*
D03*
Y416831D02*
D03*
X398425Y413091D02*
D03*
D68*
X405728Y537106D02*
D03*
X400728D02*
D03*
X395728D02*
D03*
X390728D02*
D03*
X405728Y556398D02*
D03*
X400728D02*
D03*
X395728D02*
D03*
X390728D02*
D03*
D69*
X389173Y586319D02*
D03*
D70*
X385335Y588878D02*
D03*
Y586319D02*
D03*
Y583760D02*
D03*
X393012D02*
D03*
Y586319D02*
D03*
Y588878D02*
D03*
D71*
X403248Y436024D02*
D03*
X408563D02*
D03*
D72*
X360563Y582878D02*
D03*
Y588193D02*
D03*
X340650Y582874D02*
D03*
Y588189D02*
D03*
D74*
X403543Y208760D02*
D03*
X291043Y208563D02*
D03*
X291142Y625492D02*
D03*
M02*
