%FSLAX25Y25*%
%MOIN*%
G70*
G01*
G75*
G04 Layer_Physical_Order=1*
G04 Layer_Color=255*
%ADD10O,0.01378X0.05512*%
%ADD11R,0.02362X0.04528*%
%ADD12R,0.03937X0.07874*%
%ADD13R,0.01772X0.02362*%
%ADD14R,0.08268X0.05906*%
%ADD15R,0.17716X0.17716*%
%ADD16O,0.02559X0.00984*%
%ADD17O,0.00984X0.02559*%
%ADD18R,0.05315X0.03740*%
%ADD19R,0.01575X0.01575*%
%ADD20R,0.11811X0.00039*%
%ADD21R,0.05512X0.08268*%
%ADD22O,0.02362X0.00984*%
%ADD23R,0.06693X0.03150*%
%ADD24R,0.00984X0.01969*%
%ADD25R,0.03937X0.03543*%
%ADD26R,0.03937X0.01378*%
%ADD27R,0.03150X0.06496*%
%ADD28R,0.03150X0.03543*%
%ADD29R,0.02362X0.01969*%
%ADD30R,0.01969X0.02362*%
%ADD31R,0.03543X0.03150*%
%ADD32R,0.03937X0.05118*%
%ADD33R,0.05118X0.03937*%
%ADD34C,0.03937*%
%ADD35C,0.00787*%
%ADD36C,0.03937*%
%ADD37C,0.01969*%
%ADD38C,0.01000*%
%ADD39C,0.01181*%
%ADD40C,0.01575*%
%ADD41C,0.02000*%
%ADD42C,0.02362*%
%ADD43R,0.03937X0.02913*%
%ADD44R,0.04724X0.03150*%
%ADD45R,0.18898X0.05079*%
%ADD46R,0.36142X0.03937*%
%ADD47R,1.00709X0.04764*%
%ADD48R,0.08583X0.15590*%
%ADD49R,0.12598X0.04764*%
%ADD50R,0.12598X0.05079*%
%ADD51R,0.01811X0.07992*%
G04:AMPARAMS|DCode=52|XSize=18.11mil|YSize=66.44mil|CornerRadius=0mil|HoleSize=0mil|Usage=FLASHONLY|Rotation=214.500|XOffset=0mil|YOffset=0mil|HoleType=Round|Shape=Rectangle|*
%AMROTATEDRECTD52*
4,1,4,-0.01135,0.03251,0.02628,-0.02225,0.01135,-0.03251,-0.02628,0.02225,-0.01135,0.03251,0.0*
%
%ADD52ROTATEDRECTD52*%

%ADD53R,0.35500X0.02000*%
%ADD54R,0.09055X0.04823*%
%ADD55R,0.12598X0.03150*%
%ADD56C,0.04724*%
%ADD57C,0.05512*%
%ADD58C,0.05906*%
%ADD59R,0.05906X0.05906*%
%ADD60R,0.05906X0.05906*%
%ADD61C,0.06299*%
%ADD62C,0.06000*%
%ADD63C,0.02598*%
%ADD64C,0.03150*%
G36*
X355726Y522458D02*
X356384Y521953D01*
X357150Y521636D01*
X357972Y521528D01*
X358795Y521636D01*
X359561Y521953D01*
X359589Y521975D01*
X360366Y521847D01*
X360786Y521219D01*
X367043Y514961D01*
X368718Y512778D01*
X368213Y512120D01*
X367896Y511354D01*
X367788Y510532D01*
X367896Y509709D01*
X368213Y508943D01*
X368462Y508619D01*
X368114Y507913D01*
X366505D01*
X366157Y508619D01*
X366160Y508622D01*
X366616Y509724D01*
X366705Y510405D01*
X357704D01*
X357794Y509724D01*
X358250Y508622D01*
X358549Y508232D01*
X358421Y507455D01*
X358226Y507325D01*
X356061Y505159D01*
X355626Y504508D01*
X354861Y504660D01*
Y522361D01*
X355607Y522614D01*
X355726Y522458D01*
D02*
G37*
G36*
X344548Y554035D02*
Y551181D01*
X344548Y551181D01*
X344548D01*
X344701Y550413D01*
X345136Y549762D01*
X350847Y544051D01*
Y538174D01*
X350120Y537872D01*
X334132Y553860D01*
X334434Y554587D01*
X343996D01*
X344548Y554035D01*
D02*
G37*
G36*
X357874Y548721D02*
X363386D01*
Y550650D01*
X370436D01*
X371050Y549850D01*
X371873Y549219D01*
X372831Y548822D01*
X373858Y548687D01*
X374886Y548822D01*
X375844Y549219D01*
X376666Y549850D01*
X377297Y550672D01*
X377694Y551630D01*
X377741Y551985D01*
X378486Y552238D01*
X379486Y551238D01*
X379486D01*
X379486Y551238D01*
X379486D01*
X379486Y551238D01*
Y551238D01*
X379486Y551238D01*
Y551238D01*
X380137Y550803D01*
X380385Y550754D01*
X380419Y550672D01*
X381050Y549850D01*
X381873Y549219D01*
X382831Y548822D01*
X383858Y548687D01*
X384886Y548822D01*
X385844Y549219D01*
X386666Y549850D01*
X386814Y550043D01*
X387560Y549789D01*
Y538715D01*
X387311Y538496D01*
Y535039D01*
X386811D01*
Y534539D01*
X383700D01*
X383742Y534217D01*
X384060Y533451D01*
X384546Y532818D01*
X384036Y532217D01*
X383179Y532675D01*
X381621Y533148D01*
X380000Y533308D01*
X378379Y533148D01*
X376821Y532675D01*
X375384Y531908D01*
X374126Y530874D01*
X373092Y529615D01*
X372325Y528179D01*
X371852Y526621D01*
X371727Y525357D01*
X371005Y525043D01*
X370683Y525290D01*
X369917Y525608D01*
X369595Y525650D01*
Y522539D01*
X368595D01*
Y525650D01*
X368272Y525608D01*
X367506Y525290D01*
X366848Y524786D01*
X366343Y524128D01*
X366026Y523362D01*
X365944Y522736D01*
X365198Y522483D01*
X364212Y523469D01*
Y528248D01*
X365354D01*
Y534350D01*
Y535690D01*
X366929D01*
X367697Y535843D01*
X368348Y536278D01*
X369893Y537822D01*
X370680Y537797D01*
X371028Y537400D01*
X371003Y537213D01*
X377225D01*
X377183Y537535D01*
X376865Y538301D01*
X376476Y538808D01*
Y540051D01*
X373721D01*
Y540551D01*
X373220D01*
Y543110D01*
X367126D01*
Y543201D01*
X361614D01*
Y542155D01*
X360887Y541853D01*
X359646Y543094D01*
Y547539D01*
X354134D01*
Y547470D01*
X353406Y547168D01*
X348562Y552012D01*
Y552856D01*
X349202Y553314D01*
X349552Y553196D01*
X349589Y552918D01*
X349906Y552152D01*
X350411Y551494D01*
X351069Y550989D01*
X351835Y550672D01*
X352157Y550629D01*
Y553740D01*
X352658D01*
Y554240D01*
X355768D01*
X355726Y554562D01*
X355482Y555152D01*
X355800Y555629D01*
X356032Y555807D01*
X357874D01*
Y548721D01*
D02*
G37*
G36*
X367520Y486221D02*
Y480118D01*
X369843D01*
Y474907D01*
X369291Y474454D01*
X368408Y474278D01*
X368012Y474013D01*
X367616Y474278D01*
X366732Y474454D01*
X365849Y474278D01*
X365453Y474013D01*
X365056Y474278D01*
X364673Y474354D01*
Y473139D01*
X364600Y473029D01*
X364424Y472146D01*
Y470079D01*
X364173D01*
Y469579D01*
X361865D01*
Y468987D01*
X361210Y468550D01*
X360566Y468817D01*
X360244Y468859D01*
Y465748D01*
Y462637D01*
X360566Y462679D01*
X361333Y462997D01*
X361936Y462210D01*
X361883Y461811D01*
X361992Y460989D01*
X362166Y460568D01*
Y451169D01*
X362041Y450982D01*
X361865Y450098D01*
Y450039D01*
X360925D01*
Y451862D01*
X355807D01*
Y449606D01*
Y445669D01*
X360925D01*
Y446024D01*
X361865D01*
Y445965D01*
X362041Y445081D01*
X362541Y444333D01*
X363290Y443832D01*
X364173Y443656D01*
X365056Y443832D01*
X365246Y443959D01*
X365987Y443693D01*
X366180Y443058D01*
X361561Y438439D01*
X361151Y437905D01*
X360999Y437540D01*
X360893Y437282D01*
X360831Y436811D01*
X354861D01*
Y484710D01*
X355626Y484862D01*
X356061Y484211D01*
X357677Y482595D01*
Y476378D01*
X366732D01*
Y485433D01*
X360516D01*
X359772Y486177D01*
X360209Y486831D01*
X361023Y486494D01*
X362205Y486339D01*
X363387Y486494D01*
X364488Y486951D01*
X365282Y487560D01*
X367520D01*
Y486221D01*
D02*
G37*
G36*
X377756Y499114D02*
Y493012D01*
X378898D01*
Y487150D01*
X376189Y484441D01*
X375754Y483790D01*
X375601Y483022D01*
Y479621D01*
X374585Y478604D01*
X373857Y478906D01*
Y482283D01*
X373819Y482477D01*
Y486221D01*
Y492913D01*
X367520D01*
Y491574D01*
X366683D01*
X366616Y492087D01*
X366160Y493189D01*
X365434Y494135D01*
X364488Y494860D01*
X363387Y495317D01*
X362205Y495472D01*
X361023Y495317D01*
X360142Y494952D01*
X359487Y495389D01*
Y496422D01*
X360142Y496859D01*
X361023Y496494D01*
X362205Y496339D01*
X363387Y496494D01*
X364488Y496951D01*
X365434Y497676D01*
X366160Y498622D01*
X366616Y499724D01*
X366714Y500473D01*
X377756D01*
Y499114D01*
D02*
G37*
G36*
X373092Y520385D02*
X374126Y519126D01*
X375384Y518092D01*
X376821Y517325D01*
X377405Y517148D01*
X377546Y516373D01*
X377478Y516321D01*
X376973Y515663D01*
X376656Y514897D01*
X376613Y514575D01*
X382835D01*
X382793Y514897D01*
X382476Y515663D01*
X381995Y516289D01*
X382031Y516400D01*
X382608Y517151D01*
X383179Y517325D01*
X384450Y518004D01*
X385059Y517552D01*
X385080Y517526D01*
X385001Y517126D01*
Y510630D01*
X385001Y510630D01*
X385001D01*
X385154Y509862D01*
X385589Y509211D01*
X387020Y507779D01*
X386981Y507480D01*
X387089Y506658D01*
X387170Y506462D01*
X386945Y506124D01*
X386161Y506047D01*
X383309Y508899D01*
X382658Y509335D01*
X381890Y509487D01*
X374601D01*
X374082Y510079D01*
X374141Y510532D01*
X374033Y511354D01*
X373716Y512120D01*
X373211Y512778D01*
X372972Y512961D01*
Y513878D01*
X372819Y514646D01*
X372384Y515297D01*
X369038Y518643D01*
X369291Y519388D01*
X369917Y519471D01*
X370683Y519788D01*
X371341Y520293D01*
X371846Y520951D01*
X371905Y521095D01*
X372692Y521134D01*
X373092Y520385D01*
D02*
G37*
G36*
X391543Y562205D02*
X391921D01*
X392131Y561699D01*
X392636Y561041D01*
X393293Y560536D01*
X394060Y560219D01*
X394382Y560177D01*
Y563287D01*
X395382D01*
Y560177D01*
X395704Y560219D01*
X396150Y559143D01*
X396113Y558957D01*
X396221Y558412D01*
Y553587D01*
X394073Y551439D01*
X393346Y551740D01*
Y555905D01*
X393193Y556674D01*
X392758Y557325D01*
X390199Y559884D01*
X389548Y560319D01*
X388779Y560472D01*
X384873D01*
X384561Y561225D01*
X385219Y561730D01*
X385583Y562205D01*
X390543D01*
Y564764D01*
X391543D01*
Y562205D01*
D02*
G37*
G36*
X356988Y582919D02*
Y582480D01*
X362500D01*
Y582934D01*
X367224D01*
Y582185D01*
Y581600D01*
X366570Y581163D01*
X366240Y581299D01*
Y581299D01*
X366240Y581299D01*
X360728D01*
Y573622D01*
X360728D01*
X360728Y573552D01*
X360158Y573114D01*
X359653Y572456D01*
X359335Y571690D01*
X359335D01*
X358563Y571843D01*
Y573622D01*
X358760D01*
Y581299D01*
X355368D01*
X355067Y582027D01*
X356261Y583221D01*
X356988Y582919D01*
D02*
G37*
G36*
X324244Y600819D02*
X329356Y595708D01*
X329055Y594980D01*
X326279D01*
Y583957D01*
X326553D01*
Y583268D01*
X326641Y582600D01*
X326895Y581986D01*
X326912Y581854D01*
X326206Y581505D01*
X322078Y585634D01*
Y589468D01*
X322021Y589900D01*
X322212Y590091D01*
X322780Y590831D01*
X323137Y591693D01*
X323259Y592618D01*
Y593504D01*
X323259Y593504D01*
X323259Y593504D01*
Y593504D01*
Y600879D01*
X324005Y601132D01*
X324244Y600819D01*
D02*
G37*
G36*
X412008Y614468D02*
Y577294D01*
X411262Y577041D01*
X411105Y577246D01*
X410447Y577751D01*
X409681Y578068D01*
X408858Y578177D01*
X408701Y578156D01*
X408109Y578675D01*
Y579646D01*
X408461Y580104D01*
X408778Y580871D01*
X408887Y581693D01*
X408778Y582515D01*
X408461Y583281D01*
X407956Y583939D01*
X407298Y584444D01*
X406532Y584761D01*
X405710Y584870D01*
X404888Y584761D01*
X404121Y584444D01*
X403464Y583939D01*
X402959Y583281D01*
X402641Y582515D01*
X402533Y581693D01*
Y581693D01*
X402067Y581425D01*
X401245Y581317D01*
X400479Y580999D01*
X399821Y580494D01*
X399316Y579836D01*
X398998Y579070D01*
X398890Y578248D01*
X398998Y577426D01*
X399168Y577016D01*
X398805Y576865D01*
X398147Y576361D01*
X397642Y575703D01*
X397524Y575417D01*
X396752Y575571D01*
Y579035D01*
X388484D01*
Y578590D01*
X384744D01*
X383822Y578406D01*
X383313Y578066D01*
X382716Y578437D01*
X376417D01*
X376459Y578115D01*
X376776Y577349D01*
X377206Y576789D01*
X376935Y576239D01*
X376815Y576083D01*
X375591D01*
Y575924D01*
X371450D01*
X369853Y577521D01*
X370154Y578248D01*
X372342D01*
Y582185D01*
Y587697D01*
X367224D01*
Y586948D01*
X362500D01*
Y590158D01*
X356988D01*
Y588900D01*
X355709D01*
X355041Y588812D01*
X354729Y588683D01*
X354418Y588554D01*
X353884Y588144D01*
X349061Y583321D01*
X348651Y582787D01*
X348468Y582346D01*
X348393Y582164D01*
X348305Y581496D01*
Y577939D01*
X346979Y576614D01*
X346273Y576962D01*
X346287Y577067D01*
X346179Y577889D01*
X345861Y578655D01*
X345357Y579313D01*
X344699Y579818D01*
X343933Y580135D01*
X343610Y580178D01*
Y577067D01*
X342610D01*
Y580178D01*
X342288Y580135D01*
X341522Y579818D01*
X340864Y579313D01*
X340359Y578655D01*
X340271Y578443D01*
X339499Y578597D01*
Y594193D01*
X339377Y595118D01*
X339215Y595510D01*
X339694Y596135D01*
X340551Y596022D01*
X341785Y596185D01*
X342934Y596661D01*
X343921Y597418D01*
X344678Y598405D01*
X345154Y599554D01*
X345316Y600787D01*
X345154Y602021D01*
X344678Y603170D01*
X343921Y604157D01*
X342934Y604914D01*
X341785Y605390D01*
X340551Y605553D01*
X339318Y605390D01*
X338169Y604914D01*
X337182Y604157D01*
X336424Y603170D01*
X335948Y602021D01*
X335786Y600787D01*
X335839Y600388D01*
X335132Y600040D01*
X330346Y604827D01*
Y610842D01*
X330727Y611339D01*
X331183Y612440D01*
X331338Y613622D01*
X331183Y614804D01*
X330727Y615905D01*
X330001Y616851D01*
X329055Y617577D01*
X327954Y618033D01*
X327319Y618117D01*
X327190Y618497D01*
X327606Y619165D01*
X327954Y619211D01*
X329055Y619667D01*
X330001Y620393D01*
X330727Y621339D01*
X331183Y622440D01*
X331338Y623622D01*
X331183Y624804D01*
X330727Y625905D01*
X330001Y626851D01*
X329055Y627577D01*
X327954Y628033D01*
X326772Y628189D01*
X325590Y628033D01*
X324488Y627577D01*
X323543Y626851D01*
X322817Y625905D01*
X322361Y624804D01*
X322279Y624184D01*
X317158Y619063D01*
X316590Y618322D01*
X316442Y617965D01*
X316233Y617460D01*
X316111Y616536D01*
X316111Y616536D01*
X316111D01*
X316111Y616535D01*
X316111D01*
Y614962D01*
X315366Y614709D01*
X315337Y614746D01*
X314679Y615251D01*
X313913Y615568D01*
X313503Y615623D01*
X313544Y615937D01*
X307322D01*
X307365Y615615D01*
X307682Y614849D01*
X308187Y614191D01*
X308845Y613686D01*
X309611Y613369D01*
X310021Y613314D01*
X309980Y613000D01*
X313090D01*
Y612500D01*
X313591D01*
Y609389D01*
X313913Y609432D01*
X314679Y609749D01*
X315337Y610254D01*
X315366Y610291D01*
X316111Y610038D01*
Y604921D01*
X315461D01*
Y602165D01*
X314461D01*
Y604921D01*
X313583D01*
Y605709D01*
X311524D01*
Y602953D01*
X311024D01*
Y602453D01*
X308465D01*
Y600197D01*
Y597676D01*
X303457D01*
X302953Y597777D01*
X301575D01*
X301298Y597722D01*
X300689Y598221D01*
Y598425D01*
X296858D01*
Y592717D01*
Y587008D01*
X300689D01*
Y587212D01*
X301298Y587711D01*
X301575Y587656D01*
X302953D01*
X303445Y587253D01*
Y584646D01*
Y582390D01*
X306594D01*
Y581890D01*
X307095D01*
Y578543D01*
X307194D01*
X307450Y578287D01*
X307450Y578287D01*
D01*
X307572Y577362D01*
X307781Y576858D01*
X307929Y576501D01*
X308496Y575760D01*
X308496Y575760D01*
X308496D01*
Y575760D01*
X308496Y575760D01*
X321787Y562470D01*
X321868Y561850D01*
X322209Y561028D01*
X321771Y560373D01*
X295516D01*
X292460Y563430D01*
Y576995D01*
X293166Y577343D01*
X293392Y577170D01*
X294158Y576853D01*
X294480Y576810D01*
Y579921D01*
Y583032D01*
X294158Y582990D01*
X293392Y582672D01*
X293166Y582499D01*
X292460Y582847D01*
Y587008D01*
X295858D01*
Y592717D01*
Y598425D01*
X292028D01*
Y598221D01*
X291419Y597722D01*
X291142Y597777D01*
X289764D01*
X289605Y597907D01*
Y604976D01*
X289650Y605020D01*
X296744D01*
Y609154D01*
Y613287D01*
X287402D01*
Y608449D01*
X286751Y607798D01*
X286024Y608100D01*
Y621070D01*
X286718Y621441D01*
X288142Y620492D01*
X290142Y619492D01*
X291642D01*
X294642Y620492D01*
X296142Y621992D01*
X297142Y624992D01*
Y625992D01*
X296642Y627992D01*
X295642Y629492D01*
X295278Y629765D01*
X295527Y630512D01*
X395965D01*
X412008Y614468D01*
D02*
G37*
G36*
X339553Y569493D02*
X340319Y569176D01*
X341119Y569070D01*
X341156Y568963D01*
X341255Y568208D01*
X333421Y560373D01*
X331438D01*
X330933Y560583D01*
X330779Y561355D01*
X338452Y569028D01*
X338746Y569411D01*
X339527Y569513D01*
X339553Y569493D01*
D02*
G37*
G36*
X406163Y561572D02*
Y550166D01*
X405571Y549646D01*
X404921Y549732D01*
X404099Y549624D01*
X403333Y549306D01*
X402675Y548801D01*
X402170Y548143D01*
X401853Y547377D01*
X401800Y546980D01*
X401040Y546776D01*
X400770Y547128D01*
X400112Y547633D01*
X399346Y547950D01*
X399024Y547993D01*
Y544882D01*
Y541771D01*
X399346Y541813D01*
X400112Y542131D01*
X400770Y542636D01*
X401275Y543294D01*
X401592Y544060D01*
X401644Y544457D01*
X402405Y544661D01*
X402675Y544309D01*
X403333Y543804D01*
X404099Y543487D01*
X404587Y543422D01*
Y431934D01*
X403602Y430948D01*
X403532Y430843D01*
X403433Y430802D01*
X402774Y430298D01*
X402270Y429640D01*
X401952Y428873D01*
X401844Y428051D01*
X401952Y427229D01*
X402270Y426463D01*
X402774Y425805D01*
X403433Y425300D01*
X404199Y424983D01*
X405021Y424874D01*
X405571Y424947D01*
X406163Y424428D01*
Y404680D01*
X405571Y404161D01*
X405323Y404194D01*
Y401083D01*
X404323D01*
Y404194D01*
X404001Y404151D01*
X403234Y403834D01*
X402576Y403329D01*
X402261Y402917D01*
X401515Y403170D01*
Y415551D01*
X401362Y416319D01*
X400927Y416970D01*
X394378Y423520D01*
X394417Y423819D01*
X394309Y424641D01*
X393991Y425407D01*
X393486Y426065D01*
X392828Y426570D01*
X392111Y426867D01*
X391957Y427640D01*
X394333Y430015D01*
X394768Y430666D01*
X394920Y431434D01*
Y435687D01*
X395627Y436035D01*
X396149Y435635D01*
X396915Y435317D01*
X397237Y435275D01*
Y438386D01*
Y441497D01*
X396915Y441454D01*
X396149Y441137D01*
X395627Y440736D01*
X394920Y441084D01*
Y458329D01*
X394768Y459097D01*
X394333Y459749D01*
X391294Y462787D01*
X390643Y463222D01*
X389875Y463375D01*
X383521D01*
X381535Y465362D01*
Y466941D01*
X381660Y467129D01*
X381836Y468012D01*
Y472146D01*
X381660Y473029D01*
X381535Y473217D01*
Y473972D01*
X384985Y477422D01*
X390514D01*
X391283Y477575D01*
X391934Y478010D01*
X392868Y478945D01*
X393318Y478885D01*
X393684Y478761D01*
X393782Y478016D01*
X394099Y477250D01*
X394604Y476592D01*
X395262Y476087D01*
X396028Y475770D01*
X396350Y475728D01*
Y478839D01*
X396850D01*
Y479339D01*
X399961D01*
X399919Y479661D01*
X399602Y480427D01*
X399097Y481085D01*
X398439Y481590D01*
X397673Y481907D01*
X396928Y482005D01*
X396804Y482371D01*
X396744Y482821D01*
X400730Y486806D01*
X401165Y487458D01*
X401318Y488226D01*
Y508622D01*
X401318Y508622D01*
Y510433D01*
X401191Y511074D01*
X401165Y511201D01*
X400730Y511852D01*
X399988Y512595D01*
X400027Y512894D01*
X399919Y513716D01*
X399602Y514482D01*
X399097Y515140D01*
X398439Y515645D01*
X397833Y515896D01*
Y516683D01*
X398439Y516934D01*
X399097Y517439D01*
X399602Y518097D01*
X399919Y518863D01*
X399961Y519185D01*
X396850D01*
Y519685D01*
X396350D01*
Y522796D01*
X396300Y522789D01*
X395708Y523309D01*
Y524204D01*
X395978Y524316D01*
X396636Y524821D01*
X397141Y525479D01*
X397458Y526245D01*
X397567Y527067D01*
X397534Y527314D01*
X397771Y527345D01*
X398537Y527662D01*
X399195Y528167D01*
X399700Y528825D01*
X400017Y529591D01*
X400060Y529913D01*
X396949D01*
Y530413D01*
X396449D01*
Y533524D01*
X396300Y533505D01*
X395708Y534024D01*
Y542182D01*
X396414Y542531D01*
X396935Y542131D01*
X397701Y541813D01*
X398024Y541771D01*
Y544882D01*
Y547993D01*
X397701Y547950D01*
X397107Y547704D01*
X396670Y548359D01*
X399648Y551337D01*
X400083Y551988D01*
X400235Y552756D01*
Y557972D01*
X402677Y560414D01*
X402677Y560414D01*
X402677Y560414D01*
X403135Y561100D01*
X403140Y561122D01*
X403740D01*
Y561477D01*
X404232D01*
X405000Y561630D01*
X405469Y561943D01*
X406163Y561572D01*
D02*
G37*
G36*
X368538Y571490D02*
X368538D01*
X368538Y571490D01*
X368538D01*
X368538Y571490D01*
Y571490D01*
X368538Y571490D01*
Y571490D01*
X369075Y571078D01*
X369702Y570818D01*
X370374Y570730D01*
X375591D01*
Y570571D01*
Y569890D01*
X378150D01*
Y568890D01*
X375591D01*
Y567153D01*
X374982Y566653D01*
X374886Y566672D01*
X358563D01*
Y567118D01*
X356004D01*
Y568118D01*
X358563D01*
Y568799D01*
Y569892D01*
X359335Y570045D01*
X359335D01*
X359653Y569279D01*
X360158Y568621D01*
X360816Y568116D01*
X361582Y567799D01*
X362404Y567691D01*
X363226Y567799D01*
X363992Y568116D01*
X364650Y568621D01*
X365155Y569279D01*
X365472Y570045D01*
X365581Y570867D01*
X365472Y571690D01*
X365451Y571742D01*
X365491Y571948D01*
Y573622D01*
X366240Y573622D01*
D01*
D01*
Y573622D01*
X366357Y573671D01*
X368538Y571490D01*
D02*
G37*
G36*
X373526Y465879D02*
X374409Y465704D01*
X374961Y465251D01*
Y464862D01*
X375114Y464094D01*
X375549Y463443D01*
X380618Y458374D01*
X381269Y457939D01*
X382037Y457786D01*
X384547D01*
Y455157D01*
X379425D01*
X378987Y455811D01*
X379053Y455969D01*
X379095Y456291D01*
X372873D01*
X372916Y455969D01*
X373233Y455203D01*
X373738Y454545D01*
X373769Y454068D01*
X372990Y453289D01*
X372555Y452638D01*
X372555Y452638D01*
Y452638D01*
X372126Y452352D01*
X371850Y452407D01*
X370967Y452231D01*
X370571Y451966D01*
X370175Y452231D01*
X369291Y452407D01*
X368408Y452231D01*
X368012Y451966D01*
X367616Y452231D01*
X366732Y452407D01*
X366180Y452860D01*
Y458866D01*
X366649Y459060D01*
X367307Y459565D01*
X367811Y460223D01*
X367811Y460223D01*
Y460223D01*
X368029Y460451D01*
Y460451D01*
X368029Y460451D01*
X368687Y459946D01*
X369453Y459628D01*
X370276Y459520D01*
X371098Y459628D01*
X371864Y459946D01*
X372522Y460451D01*
X373027Y461108D01*
X373344Y461875D01*
X373452Y462697D01*
X373344Y463519D01*
X373027Y464285D01*
X372522Y464943D01*
X372353Y465072D01*
X372517Y465775D01*
X373250Y466064D01*
X373526Y465879D01*
D02*
G37*
G36*
X353411Y366518D02*
X354233Y366410D01*
X355056Y366518D01*
X355162Y366461D01*
X355232Y366106D01*
X355667Y365455D01*
X356894Y364228D01*
Y342590D01*
X357047Y341823D01*
X357482Y341171D01*
X360424Y338230D01*
X360270Y337457D01*
X360124Y337397D01*
X359466Y336892D01*
X358961Y336234D01*
X358644Y335468D01*
X358602Y335146D01*
X361713D01*
Y334146D01*
X358602D01*
X358603Y334135D01*
X358084Y333543D01*
X356933D01*
X356933Y333543D01*
Y333543D01*
X356591Y333375D01*
X356330Y333574D01*
X355564Y333892D01*
X354742Y334000D01*
X353920Y333892D01*
X353214Y333599D01*
X352559Y334037D01*
Y366162D01*
X353214Y366600D01*
X353411Y366518D01*
D02*
G37*
G36*
X405342Y353487D02*
X405320Y353458D01*
X405002Y352692D01*
X404894Y351870D01*
X405002Y351048D01*
X405320Y350282D01*
X405825Y349624D01*
X405825Y349624D01*
Y349624D01*
X405282Y348917D01*
X405224D01*
Y345768D01*
X404224D01*
Y348917D01*
X399803D01*
Y348185D01*
X399646Y348065D01*
X399097Y347794D01*
X398537Y348224D01*
X397771Y348541D01*
X397449Y348583D01*
Y345472D01*
X396949D01*
Y344972D01*
X393838D01*
X393880Y344650D01*
X394198Y343884D01*
X394703Y343226D01*
X395360Y342721D01*
X396127Y342404D01*
X396949Y342296D01*
X397067Y341401D01*
X396317Y340651D01*
X395882Y340000D01*
X395729Y339232D01*
Y334649D01*
X392897Y331817D01*
X392462Y331166D01*
X392309Y330398D01*
Y330179D01*
X391717Y329660D01*
X391446Y329696D01*
Y326585D01*
X390446D01*
Y329696D01*
X390124Y329654D01*
X389768Y329506D01*
X389113Y329944D01*
Y330894D01*
X388961Y331662D01*
X388526Y332313D01*
X387297Y333542D01*
X387411Y333818D01*
X387567Y335000D01*
X387411Y336182D01*
X386955Y337283D01*
X386860Y337406D01*
X387087Y338008D01*
X387738Y338443D01*
X390691Y341396D01*
X391126Y342047D01*
X391151Y342174D01*
X391279Y342815D01*
Y349365D01*
X396107Y354194D01*
X404994D01*
X405342Y353487D01*
D02*
G37*
G36*
X397342Y366732D02*
Y366051D01*
X399902D01*
Y365051D01*
X397021D01*
X396949Y364988D01*
X396127Y364880D01*
X395360Y364562D01*
X394703Y364057D01*
X394198Y363399D01*
X393880Y362633D01*
X393838Y362311D01*
X396949D01*
Y361311D01*
X393838D01*
X393880Y360989D01*
X394198Y360223D01*
X394703Y359565D01*
X395360Y359060D01*
X395553Y358980D01*
X395399Y358208D01*
X395276D01*
X394635Y358080D01*
X394508Y358055D01*
X393856Y357620D01*
X387852Y351616D01*
X387417Y350965D01*
X387265Y350197D01*
Y348104D01*
X386519Y347851D01*
X386229Y348229D01*
X385283Y348955D01*
X384182Y349411D01*
X383726Y349471D01*
X383424Y350199D01*
X383672Y350522D01*
X384182Y350589D01*
X385283Y351045D01*
X386229Y351771D01*
X386955Y352717D01*
X387411Y353818D01*
X387567Y355000D01*
X387411Y356182D01*
X387096Y356943D01*
X387575Y357568D01*
X387697Y357552D01*
X388519Y357660D01*
X389285Y357977D01*
X389943Y358482D01*
X390448Y359140D01*
X390765Y359906D01*
X390874Y360728D01*
X390765Y361551D01*
X390448Y362317D01*
X389943Y362975D01*
X389605Y363234D01*
Y366108D01*
X390197Y366627D01*
X390354Y366607D01*
X391177Y366715D01*
X391943Y367032D01*
X392601Y367537D01*
X392784Y367776D01*
X397342D01*
Y366732D01*
D02*
G37*
G36*
X352248Y191868D02*
X351929Y192894D01*
X353740D01*
X352248Y191868D01*
D02*
G37*
G36*
X375157Y273005D02*
X375135Y272835D01*
Y256105D01*
X353287Y234257D01*
X352559Y234558D01*
Y233529D01*
X350804Y231774D01*
X350388Y231232D01*
X350126Y230600D01*
X350037Y229921D01*
Y207972D01*
X350126Y207294D01*
X350388Y206662D01*
X350804Y206119D01*
X351142Y205860D01*
Y204724D01*
X350197D01*
Y200886D01*
X284154D01*
X284154Y200886D01*
Y250694D01*
X332500D01*
X333191Y250831D01*
X333420Y250984D01*
X334154D01*
X351979Y268810D01*
X352441Y268618D01*
Y267646D01*
Y266965D01*
X355000D01*
Y266465D01*
X355500D01*
Y263709D01*
X359500D01*
Y266465D01*
X360000D01*
Y266965D01*
X362559D01*
Y267646D01*
Y269213D01*
X363214Y269650D01*
X363646Y269471D01*
X363968Y269428D01*
Y272539D01*
X364968D01*
Y269428D01*
X365291Y269471D01*
X365502Y269559D01*
X366184Y269165D01*
X366224Y268863D01*
X366541Y268097D01*
X366724Y267859D01*
X366652Y267316D01*
X366148Y266658D01*
X365830Y265891D01*
X365722Y265069D01*
X365830Y264247D01*
X366148Y263481D01*
X366652Y262823D01*
X366969Y262580D01*
Y261564D01*
X366730Y261380D01*
X366225Y260722D01*
X365908Y259956D01*
X365800Y259134D01*
X365908Y258312D01*
X366225Y257545D01*
X366730Y256888D01*
X367388Y256383D01*
X368154Y256065D01*
X368976Y255957D01*
X369799Y256065D01*
X370565Y256383D01*
X371223Y256888D01*
X371728Y257545D01*
X372045Y258312D01*
X372153Y259134D01*
X372045Y259956D01*
X371728Y260722D01*
X371223Y261380D01*
X370983Y261564D01*
Y262699D01*
X371145Y262823D01*
X371650Y263481D01*
X371967Y264247D01*
X372076Y265069D01*
X371967Y265891D01*
X371650Y266658D01*
X371467Y266896D01*
X371539Y267439D01*
X372044Y268097D01*
X372361Y268863D01*
X372404Y269185D01*
X369292D01*
Y270185D01*
X372404D01*
X372361Y270507D01*
X372044Y271273D01*
X371992Y271341D01*
X372340Y272047D01*
X374114D01*
Y274606D01*
X374213D01*
Y274606D01*
X375157D01*
Y273005D01*
D02*
G37*
G36*
X405667Y334408D02*
X406319Y333973D01*
X407087Y333820D01*
X407511D01*
X407695Y333580D01*
X408353Y333076D01*
X409119Y332758D01*
X409941Y332650D01*
X410763Y332758D01*
X411353Y333003D01*
X412008Y332565D01*
Y272047D01*
X406164D01*
X406140Y272168D01*
X406114Y272296D01*
X405679Y272947D01*
X400972Y277654D01*
X401011Y277953D01*
X400903Y278775D01*
X400586Y279541D01*
X400081Y280199D01*
X399423Y280704D01*
X398657Y281021D01*
X397835Y281130D01*
X397012Y281021D01*
X396246Y280704D01*
X395588Y280199D01*
X395083Y279541D01*
X395066Y279498D01*
X394338Y279197D01*
X393736Y279447D01*
X392913Y279555D01*
X392091Y279447D01*
X391325Y279129D01*
X390667Y278624D01*
X390162Y277966D01*
X389845Y277200D01*
X389737Y276378D01*
X389845Y275556D01*
X390162Y274790D01*
X390667Y274132D01*
X391325Y273627D01*
X392091Y273309D01*
X392913Y273201D01*
X393736Y273309D01*
X394502Y273627D01*
X395160Y274132D01*
X395665Y274790D01*
X395682Y274833D01*
X396410Y275134D01*
X397012Y274884D01*
X397835Y274776D01*
X398134Y274815D01*
X400174Y272775D01*
X399873Y272047D01*
X386319D01*
Y270974D01*
X385801Y270628D01*
X384506Y269333D01*
X384071Y268682D01*
X383918Y267913D01*
Y262106D01*
X383918Y262106D01*
X383918D01*
X384071Y261338D01*
X384506Y260687D01*
X385786Y259408D01*
X386319Y259051D01*
Y253897D01*
X385831Y253262D01*
X385514Y252495D01*
X385406Y251673D01*
X385514Y250851D01*
X385831Y250085D01*
X386319Y249450D01*
Y247441D01*
X412008D01*
Y241967D01*
X411236Y241813D01*
X411019Y242336D01*
X410514Y242994D01*
X409856Y243499D01*
X409090Y243817D01*
X408768Y243859D01*
Y240748D01*
Y237637D01*
X409090Y237680D01*
X409856Y237997D01*
X410514Y238502D01*
X411019Y239160D01*
X411236Y239683D01*
X412008Y239529D01*
Y231171D01*
X411262Y230918D01*
X410908Y231380D01*
X410250Y231885D01*
X409484Y232202D01*
X409161Y232245D01*
Y229134D01*
Y226023D01*
X409484Y226065D01*
X410250Y226383D01*
X410908Y226887D01*
X411262Y227349D01*
X412008Y227097D01*
Y204963D01*
X411302Y204615D01*
X411037Y204818D01*
X410271Y205135D01*
X409949Y205178D01*
Y202067D01*
X409449D01*
Y201567D01*
X406338D01*
X406350Y201472D01*
X405831Y200880D01*
X369715D01*
Y200886D01*
X369593Y201500D01*
X369245Y202021D01*
X369220Y202038D01*
Y202480D01*
X368166D01*
X368109Y202491D01*
X364173D01*
X364116Y202480D01*
X362240D01*
Y200886D01*
X361240D01*
Y202480D01*
X359504D01*
X359448Y202491D01*
X359252D01*
Y204520D01*
X356693D01*
Y205520D01*
X359252D01*
Y207776D01*
X359109D01*
X358702Y208048D01*
X358426Y208384D01*
X358539Y208957D01*
X358399Y209663D01*
X358307Y209801D01*
Y210768D01*
X356871D01*
X356693Y210803D01*
X355278D01*
Y228836D01*
X379609Y253167D01*
X380026Y253709D01*
X380026Y253709D01*
X380026Y253709D01*
X380287Y254341D01*
X380377Y255020D01*
Y272835D01*
X380354Y273005D01*
Y274606D01*
X381299D01*
Y276370D01*
X377756D01*
Y277165D01*
X381299D01*
Y277165D01*
Y281693D01*
D01*
Y281693D01*
X381315Y281709D01*
X383559D01*
Y283965D01*
X381000D01*
Y284965D01*
X383559D01*
Y285646D01*
Y287449D01*
X385591Y289481D01*
X386027Y290132D01*
X386179Y290900D01*
Y291928D01*
X386431Y292032D01*
X386810Y292323D01*
X392413D01*
Y294882D01*
Y297441D01*
X387620D01*
X387329Y297877D01*
X387208Y298168D01*
X390182Y301143D01*
X394491D01*
X395259Y301295D01*
X395910Y301730D01*
X395913Y301733D01*
X400886D01*
X401654Y301886D01*
X402072Y302165D01*
X405512D01*
Y301772D01*
X410630D01*
Y305709D01*
Y307965D01*
X408071D01*
Y308965D01*
X410630D01*
Y311221D01*
X410630D01*
Y312984D01*
X408071D01*
Y313984D01*
X410630D01*
Y314665D01*
Y320177D01*
X405512D01*
Y320177D01*
X405200D01*
X405113Y320388D01*
X404608Y321045D01*
X403951Y321550D01*
X403673Y321665D01*
X403372Y322393D01*
X403463Y322613D01*
X403561Y323354D01*
X403972Y323408D01*
X404738Y323725D01*
X405396Y324230D01*
X405599Y324495D01*
X406284Y324211D01*
X407106Y324103D01*
X407929Y324211D01*
X408695Y324529D01*
X409353Y325033D01*
X409858Y325691D01*
X410175Y326458D01*
X410283Y327280D01*
X410175Y328102D01*
X409858Y328868D01*
X409353Y329526D01*
X408695Y330031D01*
X407929Y330348D01*
X407106Y330456D01*
X406808Y330417D01*
X402832Y334393D01*
X402837Y334466D01*
X403342Y335124D01*
X403542Y335607D01*
X404314Y335761D01*
X405667Y334408D01*
D02*
G37*
G36*
X369771Y371771D02*
X370717Y371045D01*
X371818Y370589D01*
X373000Y370433D01*
X374182Y370589D01*
X374472Y370709D01*
X374944Y370394D01*
Y369606D01*
X374472Y369291D01*
X374182Y369411D01*
X373000Y369567D01*
X371818Y369411D01*
X370717Y368955D01*
X369771Y368229D01*
X369045Y367283D01*
X368589Y366182D01*
X368433Y365000D01*
X368589Y363818D01*
X369045Y362717D01*
X369771Y361771D01*
X370717Y361045D01*
X371818Y360589D01*
X373000Y360433D01*
X374182Y360589D01*
X374472Y360709D01*
X374944Y360394D01*
Y359606D01*
X374472Y359291D01*
X374182Y359411D01*
X373000Y359567D01*
X371818Y359411D01*
X370717Y358955D01*
X369771Y358229D01*
X369498Y357874D01*
X368996Y357874D01*
Y357874D01*
X364058D01*
Y359602D01*
X366970Y362514D01*
X367406Y363165D01*
X367558Y363933D01*
Y367498D01*
X367994Y367832D01*
X368499Y368490D01*
X368817Y369256D01*
X368925Y370079D01*
X368817Y370901D01*
X368499Y371667D01*
X368238Y372008D01*
X368437Y372411D01*
X369220Y372489D01*
X369771Y371771D01*
D02*
G37*
G36*
X389652Y421068D02*
X390418Y420750D01*
X391240Y420642D01*
X391539Y420681D01*
X397501Y414720D01*
Y385379D01*
X388174Y376051D01*
X387401Y376205D01*
X386955Y377283D01*
X386229Y378229D01*
X385283Y378955D01*
X384182Y379411D01*
X383000Y379567D01*
X381818Y379411D01*
X380717Y378955D01*
X379847Y378288D01*
X379141Y378636D01*
Y386646D01*
X378988Y387414D01*
X378553Y388065D01*
X374350Y392268D01*
Y396881D01*
X374589Y397065D01*
X375094Y397723D01*
X375411Y398489D01*
X375519Y399311D01*
X375411Y400133D01*
X375094Y400899D01*
X374589Y401557D01*
X373931Y402062D01*
X373788Y402778D01*
X376321Y405310D01*
X376756Y405962D01*
X376909Y406730D01*
Y407382D01*
X377681Y407535D01*
X377902Y407001D01*
X378596Y406096D01*
X379501Y405402D01*
X380555Y404966D01*
X381685Y404817D01*
X382816Y404966D01*
X383869Y405402D01*
X384774Y406096D01*
X385468Y407001D01*
X385904Y408054D01*
X386053Y409185D01*
X385904Y410316D01*
X385468Y411369D01*
X384774Y412274D01*
X383869Y412968D01*
X382816Y413404D01*
X382502Y413446D01*
X382249Y414191D01*
X389049Y420991D01*
X389627Y421086D01*
X389652Y421068D01*
D02*
G37*
G36*
X363493Y417657D02*
X363815Y417699D01*
X364178Y417849D01*
X364832Y417412D01*
Y412565D01*
X364325Y412175D01*
X363631Y411271D01*
X363194Y410217D01*
X363045Y409087D01*
X363194Y407956D01*
X363631Y406903D01*
X364325Y405998D01*
X364394Y405944D01*
X364969Y405084D01*
X364992Y404740D01*
X361636Y401384D01*
X360909Y401685D01*
Y417191D01*
X361030Y417485D01*
X361032Y417495D01*
X361714Y417889D01*
X362171Y417699D01*
X362493Y417657D01*
Y420768D01*
X363493D01*
Y417657D01*
D02*
G37*
G36*
X379941Y441157D02*
X380709Y441005D01*
X385760D01*
X385944Y440765D01*
X386602Y440261D01*
X387368Y439943D01*
X388190Y439835D01*
X388739Y439907D01*
X389332Y439388D01*
Y432918D01*
X386119Y429705D01*
X385392Y430007D01*
Y434920D01*
X385264Y435560D01*
X385239Y435688D01*
X384804Y436339D01*
X383503Y437640D01*
X382852Y438075D01*
X382084Y438228D01*
X379965D01*
X378976Y439217D01*
Y440967D01*
X379670Y441338D01*
X379941Y441157D01*
D02*
G37*
G36*
X365229Y391130D02*
X366283Y390694D01*
X366804Y390626D01*
X367234Y390296D01*
X367457Y389910D01*
X367207Y389306D01*
X367165Y388984D01*
X370276D01*
Y388484D01*
X370776D01*
Y385373D01*
X371098Y385416D01*
X371864Y385733D01*
X372522Y386238D01*
X373027Y386896D01*
X373054Y386961D01*
X373826Y387115D01*
X375127Y385814D01*
Y379728D01*
X374472Y379291D01*
X374182Y379411D01*
X373000Y379567D01*
X371818Y379411D01*
X370717Y378955D01*
X369771Y378229D01*
X369500Y377876D01*
X368012D01*
Y378944D01*
X368050Y379232D01*
Y380396D01*
X368204Y380597D01*
X368521Y381363D01*
X368630Y382185D01*
X368521Y383007D01*
X368204Y383773D01*
X367699Y384431D01*
X367041Y384936D01*
X366275Y385254D01*
X365453Y385362D01*
X364650Y385256D01*
X364058Y385775D01*
Y391139D01*
X364764Y391487D01*
X365229Y391130D01*
D02*
G37*
G36*
X404831Y386062D02*
X405153Y386105D01*
X405509Y386252D01*
X406163Y385815D01*
Y382646D01*
X405924Y382463D01*
X405419Y381805D01*
X405102Y381039D01*
X404994Y380217D01*
X405102Y379394D01*
X405419Y378628D01*
X405924Y377970D01*
X406582Y377465D01*
X407348Y377148D01*
X408171Y377040D01*
X408621Y377099D01*
X409213Y376580D01*
Y362992D01*
X407382D01*
Y366732D01*
Y372244D01*
X402264D01*
Y372244D01*
X397342D01*
Y371791D01*
X392784D01*
X392601Y372030D01*
X391943Y372535D01*
X391460Y372735D01*
X391306Y373507D01*
X400927Y383128D01*
X401362Y383779D01*
X401515Y384547D01*
Y386474D01*
X402221Y386822D01*
X402742Y386422D01*
X403509Y386105D01*
X403831Y386062D01*
Y389173D01*
X404831D01*
Y386062D01*
D02*
G37*
G36*
X355715Y416061D02*
X356373Y415556D01*
X356894Y415340D01*
Y389471D01*
X356302Y388951D01*
X355906Y389003D01*
X355453Y388944D01*
X354861Y389463D01*
Y415949D01*
X355607Y416202D01*
X355715Y416061D01*
D02*
G37*
%LPC*%
G36*
X289854Y231949D02*
X289532Y231907D01*
X288766Y231590D01*
X288108Y231085D01*
X287603Y230427D01*
X287286Y229661D01*
X287243Y229339D01*
X289854D01*
Y231949D01*
D02*
G37*
G36*
X290854D02*
Y229339D01*
X293465D01*
X293423Y229661D01*
X293106Y230427D01*
X292601Y231085D01*
X291943Y231590D01*
X291177Y231907D01*
X290854Y231949D01*
D02*
G37*
G36*
X408161Y232245D02*
X407839Y232202D01*
X407073Y231885D01*
X406415Y231380D01*
X405910Y230722D01*
X405593Y229956D01*
X405550Y229634D01*
X408161D01*
Y232245D01*
D02*
G37*
G36*
X361720Y230375D02*
Y227764D01*
X364331D01*
X364289Y228086D01*
X363972Y228852D01*
X363467Y229510D01*
X362809Y230015D01*
X362043Y230332D01*
X361720Y230375D01*
D02*
G37*
G36*
X398516Y231457D02*
X398194Y231415D01*
X397427Y231098D01*
X396769Y230593D01*
X396265Y229935D01*
X395947Y229169D01*
X395905Y228847D01*
X398516D01*
Y231457D01*
D02*
G37*
G36*
X399516D02*
Y228847D01*
X402127D01*
X402084Y229169D01*
X401767Y229935D01*
X401262Y230593D01*
X400604Y231098D01*
X399838Y231415D01*
X399516Y231457D01*
D02*
G37*
G36*
X303240Y232639D02*
X302918Y232596D01*
X302152Y232279D01*
X301494Y231774D01*
X300989Y231116D01*
X300672Y230350D01*
X300629Y230028D01*
X303240D01*
Y232639D01*
D02*
G37*
G36*
X332079Y233229D02*
X331756Y233187D01*
X330990Y232869D01*
X330332Y232364D01*
X329828Y231707D01*
X329510Y230940D01*
X329468Y230618D01*
X332079D01*
Y233229D01*
D02*
G37*
G36*
X333079D02*
Y230618D01*
X335690D01*
X335647Y230940D01*
X335330Y231707D01*
X334825Y232364D01*
X334167Y232869D01*
X333401Y233187D01*
X333079Y233229D01*
D02*
G37*
G36*
X366724Y233457D02*
X364113D01*
X364156Y233135D01*
X364473Y232368D01*
X364978Y231710D01*
X365636Y231206D01*
X366402Y230888D01*
X366724Y230846D01*
Y233457D01*
D02*
G37*
G36*
X304240Y232639D02*
Y230028D01*
X306851D01*
X306809Y230350D01*
X306491Y231116D01*
X305986Y231774D01*
X305328Y232279D01*
X304562Y232596D01*
X304240Y232639D01*
D02*
G37*
G36*
X319284Y233229D02*
X318961Y233187D01*
X318195Y232869D01*
X317537Y232364D01*
X317032Y231707D01*
X316715Y230940D01*
X316672Y230618D01*
X319284D01*
Y233229D01*
D02*
G37*
G36*
X320284D02*
Y230618D01*
X322894D01*
X322852Y230940D01*
X322535Y231707D01*
X322030Y232364D01*
X321372Y232869D01*
X320606Y233187D01*
X320284Y233229D01*
D02*
G37*
G36*
X408161Y228634D02*
X405550D01*
X405593Y228312D01*
X405910Y227545D01*
X406415Y226887D01*
X407073Y226383D01*
X407839Y226065D01*
X408161Y226023D01*
Y228634D01*
D02*
G37*
G36*
X344579Y228997D02*
X344256Y228954D01*
X343490Y228637D01*
X342832Y228132D01*
X342328Y227474D01*
X342010Y226708D01*
X341968Y226386D01*
X344579D01*
Y228997D01*
D02*
G37*
G36*
X345579D02*
Y226386D01*
X348190D01*
X348147Y226708D01*
X347830Y227474D01*
X347325Y228132D01*
X346667Y228637D01*
X345901Y228954D01*
X345579Y228997D01*
D02*
G37*
G36*
X402127Y227847D02*
X399516D01*
Y225236D01*
X399838Y225278D01*
X400604Y225595D01*
X401262Y226100D01*
X401767Y226758D01*
X402084Y227524D01*
X402127Y227847D01*
D02*
G37*
G36*
X289854Y228339D02*
X287243D01*
X287286Y228016D01*
X287603Y227250D01*
X288108Y226592D01*
X288766Y226087D01*
X289532Y225770D01*
X289854Y225728D01*
Y228339D01*
D02*
G37*
G36*
X293465D02*
X290854D01*
Y225728D01*
X291177Y225770D01*
X291943Y226087D01*
X292601Y226592D01*
X293106Y227250D01*
X293423Y228016D01*
X293465Y228339D01*
D02*
G37*
G36*
X303240Y229028D02*
X300629D01*
X300672Y228705D01*
X300989Y227939D01*
X301494Y227281D01*
X302152Y226776D01*
X302918Y226459D01*
X303240Y226417D01*
Y229028D01*
D02*
G37*
G36*
X332079Y229618D02*
X329468D01*
X329510Y229296D01*
X329828Y228530D01*
X330332Y227872D01*
X330990Y227367D01*
X331756Y227050D01*
X332079Y227007D01*
Y229618D01*
D02*
G37*
G36*
X335690D02*
X333079D01*
Y227007D01*
X333401Y227050D01*
X334167Y227367D01*
X334825Y227872D01*
X335330Y228530D01*
X335647Y229296D01*
X335690Y229618D01*
D02*
G37*
G36*
X360720Y230375D02*
X360398Y230332D01*
X359632Y230015D01*
X358974Y229510D01*
X358469Y228852D01*
X358152Y228086D01*
X358109Y227764D01*
X360720D01*
Y230375D01*
D02*
G37*
G36*
X306851Y229028D02*
X304240D01*
Y226417D01*
X304562Y226459D01*
X305328Y226776D01*
X305986Y227281D01*
X306491Y227939D01*
X306809Y228705D01*
X306851Y229028D01*
D02*
G37*
G36*
X319284Y229618D02*
X316672D01*
X316715Y229296D01*
X317032Y228530D01*
X317537Y227872D01*
X318195Y227367D01*
X318961Y227050D01*
X319284Y227007D01*
Y229618D01*
D02*
G37*
G36*
X322894D02*
X320284D01*
Y227007D01*
X320606Y227050D01*
X321372Y227367D01*
X322030Y227872D01*
X322535Y228530D01*
X322852Y229296D01*
X322894Y229618D01*
D02*
G37*
G36*
X378339Y244972D02*
X375728D01*
X375770Y244650D01*
X376087Y243884D01*
X376592Y243226D01*
X377250Y242721D01*
X378016Y242404D01*
X378339Y242361D01*
Y244972D01*
D02*
G37*
G36*
X381949D02*
X379339D01*
Y242361D01*
X379661Y242404D01*
X380427Y242721D01*
X381085Y243226D01*
X381590Y243884D01*
X381907Y244650D01*
X381949Y244972D01*
D02*
G37*
G36*
X358260Y247335D02*
X355649D01*
X355691Y247012D01*
X356009Y246246D01*
X356514Y245588D01*
X357172Y245083D01*
X357938Y244766D01*
X358260Y244724D01*
Y247335D01*
D02*
G37*
G36*
X298130Y250000D02*
X289075D01*
Y240945D01*
X298130D01*
Y250000D01*
D02*
G37*
G36*
X407768Y243859D02*
X407445Y243817D01*
X406679Y243499D01*
X406021Y242994D01*
X405517Y242336D01*
X405199Y241570D01*
X405157Y241248D01*
X407768D01*
Y243859D01*
D02*
G37*
G36*
X313602Y250039D02*
X312420Y249884D01*
X311319Y249427D01*
X310373Y248702D01*
X309648Y247756D01*
X309191Y246654D01*
X309036Y245472D01*
X309191Y244290D01*
X309648Y243189D01*
X310366Y242253D01*
X310366Y242253D01*
X310265Y242164D01*
X310265Y242164D01*
X310229Y242133D01*
X309794Y242119D01*
X307899Y244014D01*
X308013Y244290D01*
X308169Y245472D01*
X308013Y246654D01*
X307557Y247756D01*
X306831Y248702D01*
X305886Y249427D01*
X304784Y249884D01*
X303602Y250039D01*
X302420Y249884D01*
X301319Y249427D01*
X300373Y248702D01*
X299648Y247756D01*
X299191Y246654D01*
X299036Y245472D01*
X299191Y244290D01*
X299648Y243189D01*
X300373Y242243D01*
X301319Y241518D01*
X302420Y241061D01*
X303602Y240906D01*
X304784Y241061D01*
X305061Y241176D01*
X308482Y237754D01*
X309134Y237319D01*
X309902Y237166D01*
X328248D01*
X329016Y237319D01*
X329667Y237754D01*
X329667Y237754D01*
X329667Y237754D01*
X332083Y240170D01*
X332382Y240130D01*
X333204Y240239D01*
X333970Y240556D01*
X334628Y241061D01*
X335133Y241719D01*
X335450Y242485D01*
X335559Y243307D01*
X335450Y244129D01*
X335133Y244896D01*
X334628Y245553D01*
X333970Y246058D01*
X333204Y246376D01*
X332382Y246484D01*
X331560Y246376D01*
X330793Y246058D01*
X330136Y245553D01*
X329631Y244896D01*
X329313Y244129D01*
X329205Y243307D01*
X329244Y243008D01*
X327417Y241180D01*
X326224D01*
X326063Y241654D01*
X326831Y242243D01*
X327557Y243189D01*
X328013Y244290D01*
X328103Y244972D01*
X319102D01*
X319191Y244290D01*
X319648Y243189D01*
X320373Y242243D01*
X321142Y241654D01*
X320981Y241180D01*
X316224D01*
X316063Y241654D01*
X316831Y242243D01*
X317557Y243189D01*
X318013Y244290D01*
X318169Y245472D01*
X318013Y246654D01*
X317557Y247756D01*
X316831Y248702D01*
X315886Y249427D01*
X314784Y249884D01*
X313602Y250039D01*
D02*
G37*
G36*
X361871Y247335D02*
X359260D01*
Y244724D01*
X359582Y244766D01*
X360348Y245083D01*
X361006Y245588D01*
X361511Y246246D01*
X361828Y247012D01*
X361871Y247335D01*
D02*
G37*
G36*
X379339Y248583D02*
Y245972D01*
X381949D01*
X381907Y246295D01*
X381590Y247061D01*
X381085Y247719D01*
X380427Y248224D01*
X379661Y248541D01*
X379339Y248583D01*
D02*
G37*
G36*
X358260Y250946D02*
X357938Y250903D01*
X357172Y250586D01*
X356514Y250081D01*
X356009Y249423D01*
X355691Y248657D01*
X355649Y248335D01*
X358260D01*
Y250946D01*
D02*
G37*
G36*
X359260D02*
Y248335D01*
X361871D01*
X361828Y248657D01*
X361511Y249423D01*
X361006Y250081D01*
X360348Y250586D01*
X359582Y250903D01*
X359260Y250946D01*
D02*
G37*
G36*
X323102Y249973D02*
X322420Y249884D01*
X321319Y249427D01*
X320373Y248702D01*
X319648Y247756D01*
X319191Y246654D01*
X319102Y245972D01*
X323102D01*
Y249973D01*
D02*
G37*
G36*
X324102D02*
Y245972D01*
X328103D01*
X328013Y246654D01*
X327557Y247756D01*
X326831Y248702D01*
X325886Y249427D01*
X324784Y249884D01*
X324102Y249973D01*
D02*
G37*
G36*
X378339Y248583D02*
X378016Y248541D01*
X377250Y248224D01*
X376592Y247719D01*
X376087Y247061D01*
X375770Y246295D01*
X375728Y245972D01*
X378339D01*
Y248583D01*
D02*
G37*
G36*
X343496Y234638D02*
X340885D01*
X340928Y234316D01*
X341245Y233549D01*
X341750Y232892D01*
X342408Y232387D01*
X343174Y232069D01*
X343496Y232027D01*
Y234638D01*
D02*
G37*
G36*
X347107D02*
X344496D01*
Y232027D01*
X344818Y232069D01*
X345585Y232387D01*
X346242Y232892D01*
X346747Y233549D01*
X347065Y234316D01*
X347107Y234638D01*
D02*
G37*
G36*
X366724Y237068D02*
X366402Y237025D01*
X365636Y236708D01*
X364978Y236203D01*
X364473Y235545D01*
X364156Y234779D01*
X364113Y234457D01*
X366724D01*
Y237068D01*
D02*
G37*
G36*
X370335Y233457D02*
X367724D01*
Y230846D01*
X368047Y230888D01*
X368813Y231206D01*
X369471Y231710D01*
X369976Y232368D01*
X370293Y233135D01*
X370335Y233457D01*
D02*
G37*
G36*
X393693Y234146D02*
X391082D01*
X391124Y233823D01*
X391442Y233057D01*
X391947Y232399D01*
X392604Y231894D01*
X393371Y231577D01*
X393693Y231535D01*
Y234146D01*
D02*
G37*
G36*
X397304D02*
X394693D01*
Y231535D01*
X395015Y231577D01*
X395781Y231894D01*
X396439Y232399D01*
X396944Y233057D01*
X397261Y233823D01*
X397304Y234146D01*
D02*
G37*
G36*
X367724Y237068D02*
Y234457D01*
X370335D01*
X370293Y234779D01*
X369976Y235545D01*
X369471Y236203D01*
X368813Y236708D01*
X368047Y237025D01*
X367724Y237068D01*
D02*
G37*
G36*
X344496Y238249D02*
Y235638D01*
X347107D01*
X347065Y235960D01*
X346747Y236726D01*
X346242Y237384D01*
X345585Y237889D01*
X344818Y238206D01*
X344496Y238249D01*
D02*
G37*
G36*
X407768Y240248D02*
X405157D01*
X405199Y239926D01*
X405517Y239160D01*
X406021Y238502D01*
X406679Y237997D01*
X407445Y237680D01*
X407768Y237637D01*
Y240248D01*
D02*
G37*
G36*
X397539Y246484D02*
X396717Y246376D01*
X395951Y246058D01*
X395293Y245553D01*
X394788Y244896D01*
X394471Y244129D01*
X394363Y243307D01*
X394471Y242485D01*
X394788Y241719D01*
X395293Y241061D01*
X395951Y240556D01*
X396717Y240239D01*
X397539Y240130D01*
X398362Y240239D01*
X399128Y240556D01*
X399786Y241061D01*
X400290Y241719D01*
X400608Y242485D01*
X400716Y243307D01*
X400608Y244129D01*
X400290Y244896D01*
X399786Y245553D01*
X399128Y246058D01*
X398362Y246376D01*
X397539Y246484D01*
D02*
G37*
G36*
X393693Y237757D02*
X393371Y237714D01*
X392604Y237397D01*
X391947Y236892D01*
X391442Y236234D01*
X391124Y235468D01*
X391082Y235146D01*
X393693D01*
Y237757D01*
D02*
G37*
G36*
X394693D02*
Y235146D01*
X397304D01*
X397261Y235468D01*
X396944Y236234D01*
X396439Y236892D01*
X395781Y237397D01*
X395015Y237714D01*
X394693Y237757D01*
D02*
G37*
G36*
X343496Y238249D02*
X343174Y238206D01*
X342408Y237889D01*
X341750Y237384D01*
X341245Y236726D01*
X340928Y235960D01*
X340885Y235638D01*
X343496D01*
Y238249D01*
D02*
G37*
G36*
X398516Y227847D02*
X395905D01*
X395947Y227524D01*
X396265Y226758D01*
X396769Y226100D01*
X397427Y225595D01*
X398194Y225278D01*
X398516Y225236D01*
Y227847D01*
D02*
G37*
G36*
X303240Y210493D02*
X302918Y210450D01*
X302152Y210133D01*
X301494Y209628D01*
X300989Y208970D01*
X300672Y208204D01*
X300629Y207882D01*
X303240D01*
Y210493D01*
D02*
G37*
G36*
X304240D02*
Y207882D01*
X306851D01*
X306809Y208204D01*
X306491Y208970D01*
X305986Y209628D01*
X305328Y210133D01*
X304562Y210450D01*
X304240Y210493D01*
D02*
G37*
G36*
X374303Y211182D02*
X373981Y211139D01*
X373215Y210822D01*
X372557Y210317D01*
X372052Y209659D01*
X371735Y208893D01*
X371692Y208571D01*
X374303D01*
Y211182D01*
D02*
G37*
G36*
X319480Y210394D02*
X319158Y210352D01*
X318392Y210035D01*
X317734Y209530D01*
X317229Y208872D01*
X316912Y208106D01*
X316869Y207784D01*
X319480D01*
Y210394D01*
D02*
G37*
G36*
X320480D02*
Y207784D01*
X323091D01*
X323049Y208106D01*
X322731Y208872D01*
X322227Y209530D01*
X321569Y210035D01*
X320802Y210352D01*
X320480Y210394D01*
D02*
G37*
G36*
X394382D02*
X394060Y210352D01*
X393293Y210035D01*
X392636Y209530D01*
X392131Y208872D01*
X391813Y208106D01*
X391771Y207784D01*
X394382D01*
Y210394D01*
D02*
G37*
G36*
X375303Y211182D02*
Y208571D01*
X377914D01*
X377872Y208893D01*
X377554Y209659D01*
X377049Y210317D01*
X376392Y210822D01*
X375625Y211139D01*
X375303Y211182D01*
D02*
G37*
G36*
X331784Y216921D02*
X329172D01*
X329215Y216599D01*
X329532Y215833D01*
X330037Y215175D01*
X330695Y214670D01*
X331461Y214353D01*
X331784Y214310D01*
Y216921D01*
D02*
G37*
G36*
X335394D02*
X332784D01*
Y214310D01*
X333106Y214353D01*
X333872Y214670D01*
X334530Y215175D01*
X335035Y215833D01*
X335352Y216599D01*
X335394Y216921D01*
D02*
G37*
G36*
X311803Y217512D02*
X309192D01*
X309235Y217190D01*
X309552Y216423D01*
X310057Y215766D01*
X310715Y215261D01*
X311481Y214943D01*
X311803Y214901D01*
Y217512D01*
D02*
G37*
G36*
X406261Y215839D02*
X400039D01*
X400081Y215516D01*
X400398Y214750D01*
X400611Y214473D01*
X400435Y213705D01*
X399543Y213260D01*
X398043Y211260D01*
X397768Y209882D01*
X397031Y209605D01*
X396470Y210035D01*
X395704Y210352D01*
X395382Y210394D01*
Y207283D01*
Y204172D01*
X395704Y204215D01*
X396470Y204532D01*
X397128Y205037D01*
X397633Y205695D01*
X397697Y205850D01*
X398484Y205878D01*
X399043Y204760D01*
X400543Y203760D01*
X402543Y202760D01*
X404043D01*
X405766Y203334D01*
X406373Y202833D01*
X406338Y202567D01*
X408949D01*
Y205558D01*
X408731Y205822D01*
X409543Y208260D01*
Y209260D01*
X409043Y211260D01*
X408043Y212760D01*
X406043Y214260D01*
X405873Y214714D01*
X405901Y214750D01*
X406218Y215516D01*
X406261Y215839D01*
D02*
G37*
G36*
X344284Y215248D02*
X341672D01*
X341715Y214926D01*
X342032Y214160D01*
X342537Y213502D01*
X343195Y212997D01*
X343961Y212680D01*
X344284Y212637D01*
Y215248D01*
D02*
G37*
G36*
X347894D02*
X345284D01*
Y212637D01*
X345606Y212680D01*
X346372Y212997D01*
X347030Y213502D01*
X347535Y214160D01*
X347852Y214926D01*
X347894Y215248D01*
D02*
G37*
G36*
X341398Y206390D02*
X338787D01*
Y203779D01*
X339110Y203821D01*
X339876Y204139D01*
X340534Y204643D01*
X341039Y205301D01*
X341356Y206067D01*
X341398Y206390D01*
D02*
G37*
G36*
X319480Y206784D02*
X316869D01*
X316912Y206461D01*
X317229Y205695D01*
X317734Y205037D01*
X318392Y204532D01*
X319158Y204215D01*
X319480Y204172D01*
Y206784D01*
D02*
G37*
G36*
X323091D02*
X320480D01*
Y204172D01*
X320802Y204215D01*
X321569Y204532D01*
X322227Y205037D01*
X322731Y205695D01*
X323049Y206461D01*
X323091Y206784D01*
D02*
G37*
G36*
X306095Y629194D02*
X305772Y629151D01*
X305006Y628834D01*
X304348Y628329D01*
X303843Y627671D01*
X303526Y626905D01*
X303484Y626583D01*
X306095D01*
Y629194D01*
D02*
G37*
G36*
X291043Y214563D02*
X289043Y214063D01*
X287043Y213063D01*
X285543Y211063D01*
X285043Y208563D01*
X285543Y206563D01*
X286543Y204563D01*
X288043Y203563D01*
X290043Y202563D01*
X291543D01*
X294543Y203563D01*
X296043Y205063D01*
X297043Y208063D01*
Y209063D01*
X296543Y211063D01*
X295543Y212563D01*
X293543Y214063D01*
X291043Y214563D01*
D02*
G37*
G36*
X337787Y206390D02*
X335176D01*
X335219Y206067D01*
X335536Y205301D01*
X336041Y204643D01*
X336699Y204139D01*
X337465Y203821D01*
X337787Y203779D01*
Y206390D01*
D02*
G37*
G36*
X394382Y206784D02*
X391771D01*
X391813Y206461D01*
X392131Y205695D01*
X392636Y205037D01*
X393293Y204532D01*
X394060Y204215D01*
X394382Y204172D01*
Y206784D01*
D02*
G37*
G36*
X377914Y207571D02*
X375303D01*
Y204960D01*
X375625Y205002D01*
X376392Y205320D01*
X377049Y205824D01*
X377554Y206483D01*
X377872Y207249D01*
X377914Y207571D01*
D02*
G37*
G36*
X337787Y210001D02*
X337465Y209958D01*
X336699Y209641D01*
X336041Y209136D01*
X335536Y208478D01*
X335219Y207712D01*
X335176Y207390D01*
X337787D01*
Y210001D01*
D02*
G37*
G36*
X338787D02*
Y207390D01*
X341398D01*
X341356Y207712D01*
X341039Y208478D01*
X340534Y209136D01*
X339876Y209641D01*
X339110Y209958D01*
X338787Y210001D01*
D02*
G37*
G36*
X303240Y206882D02*
X300629D01*
X300672Y206560D01*
X300989Y205793D01*
X301494Y205136D01*
X302152Y204631D01*
X302918Y204313D01*
X303240Y204271D01*
Y206882D01*
D02*
G37*
G36*
X306851D02*
X304240D01*
Y204271D01*
X304562Y204313D01*
X305328Y204631D01*
X305986Y205136D01*
X306491Y205793D01*
X306809Y206560D01*
X306851Y206882D01*
D02*
G37*
G36*
X374303Y207571D02*
X371692D01*
X371735Y207249D01*
X372052Y206483D01*
X372557Y205824D01*
X373215Y205320D01*
X373981Y205002D01*
X374303Y204960D01*
Y207571D01*
D02*
G37*
G36*
X366248Y221123D02*
Y218512D01*
X368859D01*
X368817Y218834D01*
X368499Y219600D01*
X367994Y220258D01*
X367336Y220763D01*
X366570Y221080D01*
X366248Y221123D01*
D02*
G37*
G36*
X295268Y221221D02*
X294946Y221179D01*
X294179Y220861D01*
X293521Y220357D01*
X293017Y219699D01*
X292699Y218933D01*
X292657Y218610D01*
X295268D01*
Y221221D01*
D02*
G37*
G36*
X296268D02*
Y218610D01*
X298879D01*
X298836Y218933D01*
X298519Y219699D01*
X298014Y220357D01*
X297356Y220861D01*
X296590Y221179D01*
X296268Y221221D01*
D02*
G37*
G36*
X311803Y221123D02*
X311481Y221080D01*
X310715Y220763D01*
X310057Y220258D01*
X309552Y219600D01*
X309235Y218834D01*
X309192Y218512D01*
X311803D01*
Y221123D01*
D02*
G37*
G36*
X312803D02*
Y218512D01*
X315414D01*
X315372Y218834D01*
X315054Y219600D01*
X314549Y220258D01*
X313892Y220763D01*
X313125Y221080D01*
X312803Y221123D01*
D02*
G37*
G36*
X365248D02*
X364926Y221080D01*
X364160Y220763D01*
X363502Y220258D01*
X362997Y219600D01*
X362680Y218834D01*
X362637Y218512D01*
X365248D01*
Y221123D01*
D02*
G37*
G36*
X390150Y222205D02*
X389827Y222163D01*
X389061Y221846D01*
X388403Y221341D01*
X387898Y220683D01*
X387581Y219917D01*
X387539Y219595D01*
X390150D01*
Y222205D01*
D02*
G37*
G36*
X348190Y225386D02*
X345579D01*
Y222775D01*
X345901Y222817D01*
X346667Y223135D01*
X347325Y223639D01*
X347830Y224297D01*
X348147Y225064D01*
X348190Y225386D01*
D02*
G37*
G36*
X360720Y226764D02*
X358109D01*
X358152Y226442D01*
X358469Y225675D01*
X358974Y225017D01*
X359632Y224513D01*
X360398Y224195D01*
X360720Y224153D01*
Y226764D01*
D02*
G37*
G36*
X364331D02*
X361720D01*
Y224153D01*
X362043Y224195D01*
X362809Y224513D01*
X363467Y225017D01*
X363972Y225675D01*
X364289Y226442D01*
X364331Y226764D01*
D02*
G37*
G36*
X391150Y222205D02*
Y219595D01*
X393761D01*
X393718Y219917D01*
X393401Y220683D01*
X392896Y221341D01*
X392238Y221846D01*
X391472Y222163D01*
X391150Y222205D01*
D02*
G37*
G36*
X380000Y236808D02*
X378379Y236648D01*
X376821Y236175D01*
X375384Y235408D01*
X374126Y234374D01*
X373092Y233116D01*
X372325Y231679D01*
X371852Y230121D01*
X371692Y228500D01*
X371852Y226879D01*
X372325Y225321D01*
X373092Y223885D01*
X374126Y222626D01*
X375384Y221592D01*
X376821Y220825D01*
X378379Y220352D01*
X380000Y220192D01*
X381621Y220352D01*
X383179Y220825D01*
X384615Y221592D01*
X385874Y222626D01*
X386908Y223885D01*
X387675Y225321D01*
X388148Y226879D01*
X388308Y228500D01*
X388148Y230121D01*
X387675Y231679D01*
X386908Y233116D01*
X385874Y234374D01*
X384615Y235408D01*
X383179Y236175D01*
X381621Y236648D01*
X380000Y236808D01*
D02*
G37*
G36*
X344579Y225386D02*
X341968D01*
X342010Y225064D01*
X342328Y224297D01*
X342832Y223639D01*
X343490Y223135D01*
X344256Y222817D01*
X344579Y222775D01*
Y225386D01*
D02*
G37*
G36*
X295268Y217610D02*
X292657D01*
X292699Y217288D01*
X293017Y216522D01*
X293521Y215864D01*
X294179Y215359D01*
X294946Y215042D01*
X295268Y214999D01*
Y217610D01*
D02*
G37*
G36*
X298879D02*
X296268D01*
Y214999D01*
X296590Y215042D01*
X297356Y215359D01*
X298014Y215864D01*
X298519Y216522D01*
X298836Y217288D01*
X298879Y217610D01*
D02*
G37*
G36*
X390150Y218595D02*
X387539D01*
X387581Y218272D01*
X387898Y217506D01*
X388403Y216848D01*
X389061Y216343D01*
X389827Y216026D01*
X390150Y215984D01*
Y218595D01*
D02*
G37*
G36*
X315414Y217512D02*
X312803D01*
Y214901D01*
X313125Y214943D01*
X313892Y215261D01*
X314549Y215766D01*
X315054Y216423D01*
X315372Y217190D01*
X315414Y217512D01*
D02*
G37*
G36*
X365248D02*
X362637D01*
X362680Y217190D01*
X362997Y216423D01*
X363502Y215766D01*
X364160Y215261D01*
X364926Y214943D01*
X365248Y214901D01*
Y217512D01*
D02*
G37*
G36*
X368859D02*
X366248D01*
Y214901D01*
X366570Y214943D01*
X367336Y215261D01*
X367994Y215766D01*
X368499Y216423D01*
X368817Y217190D01*
X368859Y217512D01*
D02*
G37*
G36*
X393761Y218595D02*
X391150D01*
Y215984D01*
X391472Y216026D01*
X392238Y216343D01*
X392896Y216848D01*
X393401Y217506D01*
X393718Y218272D01*
X393761Y218595D01*
D02*
G37*
G36*
X403650Y219449D02*
Y216839D01*
X406261D01*
X406218Y217161D01*
X405901Y217927D01*
X405396Y218585D01*
X404738Y219090D01*
X403972Y219407D01*
X403650Y219449D01*
D02*
G37*
G36*
X331784Y220532D02*
X331461Y220490D01*
X330695Y220172D01*
X330037Y219668D01*
X329532Y219010D01*
X329215Y218244D01*
X329172Y217921D01*
X331784D01*
Y220532D01*
D02*
G37*
G36*
X332784D02*
Y217921D01*
X335394D01*
X335352Y218244D01*
X335035Y219010D01*
X334530Y219668D01*
X333872Y220172D01*
X333106Y220490D01*
X332784Y220532D01*
D02*
G37*
G36*
X344284Y218859D02*
X343961Y218817D01*
X343195Y218499D01*
X342537Y217994D01*
X342032Y217336D01*
X341715Y216570D01*
X341672Y216248D01*
X344284D01*
Y218859D01*
D02*
G37*
G36*
X345284D02*
Y216248D01*
X347894D01*
X347852Y216570D01*
X347535Y217336D01*
X347030Y217994D01*
X346372Y218499D01*
X345606Y218817D01*
X345284Y218859D01*
D02*
G37*
G36*
X402650Y219449D02*
X402327Y219407D01*
X401561Y219090D01*
X400903Y218585D01*
X400398Y217927D01*
X400081Y217161D01*
X400039Y216839D01*
X402650D01*
Y219449D01*
D02*
G37*
G36*
X296055Y570237D02*
X295733Y570194D01*
X294967Y569877D01*
X294309Y569372D01*
X293804Y568714D01*
X293487Y567948D01*
X293444Y567626D01*
X296055D01*
Y570237D01*
D02*
G37*
G36*
X297055D02*
Y567626D01*
X299666D01*
X299624Y567948D01*
X299306Y568714D01*
X298801Y569372D01*
X298144Y569877D01*
X297377Y570194D01*
X297055Y570237D01*
D02*
G37*
G36*
X303732Y572827D02*
X301121D01*
X301164Y572505D01*
X301481Y571738D01*
X301986Y571080D01*
X302644Y570576D01*
X303410Y570258D01*
X303732Y570216D01*
Y572827D01*
D02*
G37*
G36*
X299666Y566626D02*
X297055D01*
Y564015D01*
X297377Y564057D01*
X298144Y564375D01*
X298801Y564880D01*
X299306Y565538D01*
X299624Y566304D01*
X299666Y566626D01*
D02*
G37*
G36*
X310524Y567875D02*
X310201Y567832D01*
X309435Y567515D01*
X308777Y567010D01*
X308272Y566352D01*
X307955Y565586D01*
X307913Y565264D01*
X310524D01*
Y567875D01*
D02*
G37*
G36*
X311524D02*
Y565264D01*
X314135D01*
X314092Y565586D01*
X313775Y566352D01*
X313270Y567010D01*
X312612Y567515D01*
X311846Y567832D01*
X311524Y567875D01*
D02*
G37*
G36*
X307343Y572827D02*
X304732D01*
Y570216D01*
X305054Y570258D01*
X305821Y570576D01*
X306479Y571080D01*
X306983Y571738D01*
X307301Y572505D01*
X307343Y572827D01*
D02*
G37*
G36*
X298091Y579421D02*
X295480D01*
Y576810D01*
X295802Y576853D01*
X296569Y577170D01*
X297227Y577675D01*
X297731Y578333D01*
X298049Y579099D01*
X298091Y579421D01*
D02*
G37*
G36*
X306095Y581390D02*
X303445D01*
Y578543D01*
X306095D01*
Y581390D01*
D02*
G37*
G36*
X379028Y582048D02*
X378705Y582006D01*
X377939Y581688D01*
X377281Y581183D01*
X376776Y580525D01*
X376459Y579759D01*
X376417Y579437D01*
X379028D01*
Y582048D01*
D02*
G37*
G36*
X312591Y612000D02*
X309980D01*
X310022Y611678D01*
X310339Y610912D01*
X310844Y610254D01*
X311502Y609749D01*
X312268Y609432D01*
X312591Y609389D01*
Y612000D01*
D02*
G37*
G36*
X303732Y576438D02*
X303410Y576395D01*
X302644Y576078D01*
X301986Y575573D01*
X301481Y574915D01*
X301164Y574149D01*
X301121Y573827D01*
X303732D01*
Y576438D01*
D02*
G37*
G36*
X304732D02*
Y573827D01*
X307343D01*
X307301Y574149D01*
X306983Y574915D01*
X306479Y575573D01*
X305821Y576078D01*
X305054Y576395D01*
X304732Y576438D01*
D02*
G37*
G36*
X363870Y547539D02*
X361614D01*
Y544201D01*
X363870D01*
Y547539D01*
D02*
G37*
G36*
X367126D02*
X364870D01*
Y544201D01*
X367126D01*
Y547539D01*
D02*
G37*
G36*
X389169Y622616D02*
X387936Y622453D01*
X386787Y621977D01*
X385800Y621220D01*
X385043Y620233D01*
X384566Y619084D01*
X384404Y617850D01*
X384566Y616617D01*
X385043Y615468D01*
X385800Y614481D01*
X386787Y613724D01*
X387936Y613248D01*
X389169Y613085D01*
X390403Y613248D01*
X391552Y613724D01*
X392539Y614481D01*
X393296Y615468D01*
X393772Y616617D01*
X393934Y617850D01*
X393772Y619084D01*
X393296Y620233D01*
X392539Y621220D01*
X391552Y621977D01*
X390403Y622453D01*
X389169Y622616D01*
D02*
G37*
G36*
X386311Y538150D02*
X385989Y538108D01*
X385223Y537790D01*
X384565Y537286D01*
X384060Y536628D01*
X383742Y535862D01*
X383700Y535539D01*
X386311D01*
Y538150D01*
D02*
G37*
G36*
X302551Y617709D02*
X299940D01*
X299983Y617386D01*
X300300Y616620D01*
X300805Y615962D01*
X301463Y615457D01*
X302229Y615140D01*
X302551Y615098D01*
Y617709D01*
D02*
G37*
G36*
X376476Y543110D02*
X374220D01*
Y541051D01*
X376476D01*
Y543110D01*
D02*
G37*
G36*
X355768Y553240D02*
X353157D01*
Y550629D01*
X353480Y550672D01*
X354246Y550989D01*
X354904Y551494D01*
X355409Y552152D01*
X355726Y552918D01*
X355768Y553240D01*
D02*
G37*
G36*
X310524Y564264D02*
X307913D01*
X307955Y563942D01*
X308272Y563175D01*
X308777Y562517D01*
X309435Y562013D01*
X310201Y561695D01*
X310524Y561653D01*
Y564264D01*
D02*
G37*
G36*
X314135D02*
X311524D01*
Y561653D01*
X311846Y561695D01*
X312612Y562013D01*
X313270Y562517D01*
X313775Y563175D01*
X314092Y563942D01*
X314135Y564264D01*
D02*
G37*
G36*
X296055Y566626D02*
X293444D01*
X293487Y566304D01*
X293804Y565538D01*
X294309Y564880D01*
X294967Y564375D01*
X295733Y564057D01*
X296055Y564015D01*
Y566626D01*
D02*
G37*
G36*
X360661Y622616D02*
X359428Y622453D01*
X358279Y621977D01*
X357292Y621220D01*
X356535Y620233D01*
X356059Y619084D01*
X355896Y617850D01*
X356059Y616617D01*
X356535Y615468D01*
X357292Y614481D01*
X358279Y613724D01*
X359428Y613248D01*
X360661Y613085D01*
X361895Y613248D01*
X363044Y613724D01*
X364031Y614481D01*
X364788Y615468D01*
X365264Y616617D01*
X365427Y617850D01*
X365264Y619084D01*
X364788Y620233D01*
X364031Y621220D01*
X363044Y621977D01*
X361895Y622453D01*
X360661Y622616D01*
D02*
G37*
G36*
X340551Y622580D02*
X339318Y622418D01*
X338169Y621942D01*
X337182Y621184D01*
X336424Y620197D01*
X335948Y619048D01*
X335786Y617815D01*
X335948Y616582D01*
X336424Y615432D01*
X337182Y614445D01*
X338169Y613688D01*
X339318Y613212D01*
X340551Y613050D01*
X341785Y613212D01*
X342934Y613688D01*
X343921Y614445D01*
X344678Y615432D01*
X345154Y616582D01*
X345316Y617815D01*
X345154Y619048D01*
X344678Y620197D01*
X343921Y621184D01*
X342934Y621942D01*
X341785Y622418D01*
X340551Y622580D01*
D02*
G37*
G36*
X300787Y613287D02*
X297744D01*
Y609654D01*
X300787D01*
Y613287D01*
D02*
G37*
G36*
Y608653D02*
X297744D01*
Y605020D01*
X300787D01*
Y608653D01*
D02*
G37*
G36*
X350189Y607965D02*
X347578D01*
X347620Y607642D01*
X347938Y606876D01*
X348443Y606218D01*
X349101Y605713D01*
X349867Y605396D01*
X350189Y605354D01*
Y607965D01*
D02*
G37*
G36*
X353800D02*
X351189D01*
Y605354D01*
X351511Y605396D01*
X352277Y605713D01*
X352935Y606218D01*
X353440Y606876D01*
X353758Y607642D01*
X353800Y607965D01*
D02*
G37*
G36*
X360630Y605588D02*
X359397Y605426D01*
X358247Y604950D01*
X357260Y604192D01*
X356503Y603205D01*
X356027Y602056D01*
X355865Y600823D01*
X356027Y599589D01*
X356503Y598440D01*
X357260Y597453D01*
X358247Y596696D01*
X359397Y596220D01*
X360630Y596058D01*
X361863Y596220D01*
X363013Y596696D01*
X363999Y597453D01*
X364757Y598440D01*
X365233Y599589D01*
X365395Y600823D01*
X365233Y602056D01*
X364757Y603205D01*
X363999Y604192D01*
X363013Y604950D01*
X361863Y605426D01*
X360630Y605588D01*
D02*
G37*
G36*
X389138D02*
X387905Y605426D01*
X386755Y604950D01*
X385768Y604192D01*
X385011Y603205D01*
X384535Y602056D01*
X384373Y600823D01*
X384535Y599589D01*
X385011Y598440D01*
X385768Y597453D01*
X386755Y596696D01*
X387905Y596220D01*
X389138Y596058D01*
X390371Y596220D01*
X391520Y596696D01*
X392507Y597453D01*
X393265Y598440D01*
X393741Y599589D01*
X393903Y600823D01*
X393741Y602056D01*
X393265Y603205D01*
X392507Y604192D01*
X391520Y604950D01*
X390371Y605426D01*
X389138Y605588D01*
D02*
G37*
G36*
X310524Y605709D02*
X308465D01*
Y603453D01*
X310524D01*
Y605709D01*
D02*
G37*
G36*
X372433Y608161D02*
X369822D01*
X369865Y607839D01*
X370182Y607073D01*
X370687Y606415D01*
X371345Y605910D01*
X372111Y605593D01*
X372433Y605550D01*
Y608161D01*
D02*
G37*
G36*
X350189Y611576D02*
X349867Y611533D01*
X349101Y611216D01*
X348443Y610711D01*
X347938Y610053D01*
X347620Y609287D01*
X347578Y608965D01*
X350189D01*
Y611576D01*
D02*
G37*
G36*
X351189D02*
Y608965D01*
X353800D01*
X353758Y609287D01*
X353440Y610053D01*
X352935Y610711D01*
X352277Y611216D01*
X351511Y611533D01*
X351189Y611576D01*
D02*
G37*
G36*
X372433Y611772D02*
X372111Y611730D01*
X371345Y611413D01*
X370687Y610908D01*
X370182Y610250D01*
X369865Y609484D01*
X369822Y609161D01*
X372433D01*
Y611772D01*
D02*
G37*
G36*
X376044Y608161D02*
X373433D01*
Y605550D01*
X373755Y605593D01*
X374521Y605910D01*
X375179Y606415D01*
X375684Y607073D01*
X376002Y607839D01*
X376044Y608161D01*
D02*
G37*
G36*
X399697Y608260D02*
X397086D01*
X397128Y607938D01*
X397446Y607171D01*
X397951Y606514D01*
X398608Y606009D01*
X399375Y605691D01*
X399697Y605649D01*
Y608260D01*
D02*
G37*
G36*
X403308D02*
X400697D01*
Y605649D01*
X401019Y605691D01*
X401785Y606009D01*
X402443Y606514D01*
X402948Y607171D01*
X403265Y607938D01*
X403308Y608260D01*
D02*
G37*
G36*
X399697Y611871D02*
X399375Y611828D01*
X398608Y611511D01*
X397951Y611006D01*
X397446Y610348D01*
X397128Y609582D01*
X397086Y609260D01*
X399697D01*
Y611871D01*
D02*
G37*
G36*
X388673Y585819D02*
X386340D01*
X386373Y585569D01*
X386663Y584869D01*
X387123Y584269D01*
X387724Y583809D01*
X388423Y583519D01*
X388673Y583486D01*
Y585819D01*
D02*
G37*
G36*
X392006D02*
X389673D01*
Y583486D01*
X389924Y583519D01*
X390623Y583809D01*
X391223Y584269D01*
X391684Y584869D01*
X391973Y585569D01*
X392006Y585819D01*
D02*
G37*
G36*
X380028Y582048D02*
Y579437D01*
X382639D01*
X382596Y579759D01*
X382279Y580525D01*
X381774Y581183D01*
X381116Y581688D01*
X380350Y582006D01*
X380028Y582048D01*
D02*
G37*
G36*
X295480Y583032D02*
Y580421D01*
X298091D01*
X298049Y580744D01*
X297731Y581510D01*
X297227Y582168D01*
X296569Y582672D01*
X295802Y582990D01*
X295480Y583032D01*
D02*
G37*
G36*
X400697Y611871D02*
Y609260D01*
X403308D01*
X403265Y609582D01*
X402948Y610348D01*
X402443Y611006D01*
X401785Y611511D01*
X401019Y611828D01*
X400697Y611871D01*
D02*
G37*
G36*
X388673Y589152D02*
X388423Y589119D01*
X387724Y588829D01*
X387123Y588369D01*
X386663Y587768D01*
X386373Y587069D01*
X386340Y586819D01*
X388673D01*
Y589152D01*
D02*
G37*
G36*
X375386Y597894D02*
X375064Y597852D01*
X374297Y597535D01*
X373639Y597030D01*
X373135Y596372D01*
X372817Y595606D01*
X372775Y595284D01*
X375386D01*
Y597894D01*
D02*
G37*
G36*
X376386D02*
Y595284D01*
X378997D01*
X378954Y595606D01*
X378637Y596372D01*
X378132Y597030D01*
X377474Y597535D01*
X376708Y597852D01*
X376386Y597894D01*
D02*
G37*
G36*
X373433Y611772D02*
Y609161D01*
X376044D01*
X376002Y609484D01*
X375684Y610250D01*
X375179Y610908D01*
X374521Y611413D01*
X373755Y611730D01*
X373433Y611772D01*
D02*
G37*
G36*
X389673Y589152D02*
Y586819D01*
X392006D01*
X391973Y587069D01*
X391684Y587768D01*
X391223Y588369D01*
X390623Y588829D01*
X389924Y589119D01*
X389673Y589152D01*
D02*
G37*
G36*
X375386Y594283D02*
X372775D01*
X372817Y593961D01*
X373135Y593195D01*
X373639Y592537D01*
X374297Y592032D01*
X375064Y591715D01*
X375386Y591673D01*
Y594283D01*
D02*
G37*
G36*
X378997D02*
X376386D01*
Y591673D01*
X376708Y591715D01*
X377474Y592032D01*
X378132Y592537D01*
X378637Y593195D01*
X378954Y593961D01*
X378997Y594283D01*
D02*
G37*
G36*
X377225Y536213D02*
X374614D01*
Y533602D01*
X374936Y533644D01*
X375703Y533961D01*
X376361Y534466D01*
X376865Y535124D01*
X377183Y535890D01*
X377225Y536213D01*
D02*
G37*
G36*
X369776Y387984D02*
X367165D01*
X367207Y387662D01*
X367524Y386896D01*
X368029Y386238D01*
X368687Y385733D01*
X369453Y385416D01*
X369776Y385373D01*
Y387984D01*
D02*
G37*
G36*
X376370Y623811D02*
X373759D01*
X373801Y623489D01*
X374119Y622723D01*
X374624Y622065D01*
X375282Y621560D01*
X376048Y621243D01*
X376370Y621200D01*
Y623811D01*
D02*
G37*
G36*
X354883D02*
X352272D01*
Y621200D01*
X352594Y621243D01*
X353360Y621560D01*
X354018Y622065D01*
X354523Y622723D01*
X354840Y623489D01*
X354883Y623811D01*
D02*
G37*
G36*
X312409Y626536D02*
Y623925D01*
X315020D01*
X314978Y624247D01*
X314661Y625014D01*
X314156Y625671D01*
X313498Y626176D01*
X312732Y626494D01*
X312409Y626536D01*
D02*
G37*
G36*
X306095Y625583D02*
X303484D01*
X303526Y625260D01*
X303843Y624494D01*
X304348Y623836D01*
X305006Y623331D01*
X305772Y623014D01*
X306095Y622972D01*
Y625583D01*
D02*
G37*
G36*
X379981Y623811D02*
X377370D01*
Y621200D01*
X377692Y621243D01*
X378458Y621560D01*
X379116Y622065D01*
X379621Y622723D01*
X379939Y623489D01*
X379981Y623811D01*
D02*
G37*
G36*
X351272D02*
X348661D01*
X348703Y623489D01*
X349021Y622723D01*
X349525Y622065D01*
X350183Y621560D01*
X350949Y621243D01*
X351272Y621200D01*
Y623811D01*
D02*
G37*
G36*
X398237Y441497D02*
Y438886D01*
X400848D01*
X400806Y439208D01*
X400489Y439974D01*
X399984Y440632D01*
X399326Y441137D01*
X398560Y441454D01*
X398237Y441497D01*
D02*
G37*
G36*
X399008Y452650D02*
X396358D01*
Y448327D01*
X399008D01*
Y452650D01*
D02*
G37*
G36*
X402658D02*
X400008D01*
Y448327D01*
X402658D01*
Y452650D01*
D02*
G37*
G36*
X315020Y622925D02*
X312409D01*
Y620314D01*
X312732Y620357D01*
X313498Y620674D01*
X314156Y621179D01*
X314661Y621837D01*
X314978Y622603D01*
X315020Y622925D01*
D02*
G37*
G36*
X307095Y629194D02*
Y626083D01*
Y622972D01*
X307417Y623014D01*
X308118Y623305D01*
X308800Y622911D01*
X308841Y622603D01*
X309158Y621837D01*
X309663Y621179D01*
X310321Y620674D01*
X311087Y620357D01*
X311409Y620314D01*
Y623425D01*
Y626536D01*
X311087Y626494D01*
X310385Y626203D01*
X309704Y626597D01*
X309663Y626905D01*
X309346Y627671D01*
X308841Y628329D01*
X308183Y628834D01*
X307417Y629151D01*
X307095Y629194D01*
D02*
G37*
G36*
X400848Y437886D02*
X398237D01*
Y435275D01*
X398560Y435317D01*
X399326Y435635D01*
X399984Y436139D01*
X400489Y436797D01*
X400806Y437564D01*
X400848Y437886D01*
D02*
G37*
G36*
X348925Y254686D02*
Y252075D01*
X351536D01*
X351494Y252397D01*
X351176Y253163D01*
X350672Y253821D01*
X350014Y254326D01*
X349247Y254643D01*
X348925Y254686D01*
D02*
G37*
G36*
X377370Y627422D02*
Y624811D01*
X379981D01*
X379939Y625133D01*
X379621Y625899D01*
X379116Y626557D01*
X378458Y627062D01*
X377692Y627380D01*
X377370Y627422D01*
D02*
G37*
G36*
X354500Y265965D02*
X352441D01*
Y263709D01*
X354500D01*
Y265965D01*
D02*
G37*
G36*
X347925Y251075D02*
X345314D01*
X345357Y250753D01*
X345674Y249986D01*
X346179Y249328D01*
X346837Y248824D01*
X347603Y248506D01*
X347925Y248464D01*
Y251075D01*
D02*
G37*
G36*
X351536D02*
X348925D01*
Y248464D01*
X349247Y248506D01*
X350014Y248824D01*
X350672Y249328D01*
X351176Y249986D01*
X351494Y250753D01*
X351536Y251075D01*
D02*
G37*
G36*
X347925Y254686D02*
X347603Y254643D01*
X346837Y254326D01*
X346179Y253821D01*
X345674Y253163D01*
X345357Y252397D01*
X345314Y252075D01*
X347925D01*
Y254686D01*
D02*
G37*
G36*
X362559Y265965D02*
X360500D01*
Y263709D01*
X362559D01*
Y265965D01*
D02*
G37*
G36*
X352272Y627422D02*
Y624811D01*
X354883D01*
X354840Y625133D01*
X354523Y625899D01*
X354018Y626557D01*
X353360Y627062D01*
X352594Y627380D01*
X352272Y627422D01*
D02*
G37*
G36*
X351272D02*
X350949Y627380D01*
X350183Y627062D01*
X349525Y626557D01*
X349021Y625899D01*
X348703Y625133D01*
X348661Y624811D01*
X351272D01*
Y627422D01*
D02*
G37*
G36*
X396449Y348583D02*
X396127Y348541D01*
X395360Y348224D01*
X394703Y347719D01*
X394198Y347061D01*
X393880Y346295D01*
X393838Y345972D01*
X396449D01*
Y348583D01*
D02*
G37*
G36*
X395669Y294382D02*
X393413D01*
Y292323D01*
X395669D01*
Y294382D01*
D02*
G37*
G36*
Y297441D02*
X393413D01*
Y295382D01*
X395669D01*
Y297441D01*
D02*
G37*
G36*
X376370Y627422D02*
X376048Y627380D01*
X375282Y627062D01*
X374624Y626557D01*
X374119Y625899D01*
X373801Y625133D01*
X373759Y624811D01*
X376370D01*
Y627422D01*
D02*
G37*
G36*
X310933Y619548D02*
Y616937D01*
X313544D01*
X313502Y617259D01*
X313184Y618025D01*
X312679Y618683D01*
X312021Y619188D01*
X311255Y619506D01*
X310933Y619548D01*
D02*
G37*
G36*
X309933D02*
X309611Y619506D01*
X308845Y619188D01*
X308187Y618683D01*
X307682Y618025D01*
X307365Y617259D01*
X307322Y616937D01*
X309933D01*
Y619548D01*
D02*
G37*
G36*
X306162Y617709D02*
X303551D01*
Y615098D01*
X303873Y615140D01*
X304640Y615457D01*
X305297Y615962D01*
X305802Y616620D01*
X306120Y617386D01*
X306162Y617709D01*
D02*
G37*
G36*
X363673Y474354D02*
X363290Y474278D01*
X362541Y473778D01*
X362041Y473029D01*
X361865Y472146D01*
Y470579D01*
X363673D01*
Y474354D01*
D02*
G37*
G36*
X399961Y478339D02*
X397350D01*
Y475728D01*
X397673Y475770D01*
X398439Y476087D01*
X399097Y476592D01*
X399602Y477250D01*
X399919Y478016D01*
X399961Y478339D01*
D02*
G37*
G36*
X302551Y621320D02*
X302229Y621277D01*
X301463Y620960D01*
X300805Y620455D01*
X300300Y619797D01*
X299983Y619031D01*
X299940Y618709D01*
X302551D01*
Y621320D01*
D02*
G37*
G36*
X379224Y513575D02*
X376613D01*
X376656Y513253D01*
X376973Y512486D01*
X377478Y511829D01*
X378136Y511324D01*
X378902Y511006D01*
X379224Y510964D01*
Y513575D01*
D02*
G37*
G36*
X397350Y522796D02*
Y520185D01*
X399961D01*
X399919Y520507D01*
X399602Y521273D01*
X399097Y521931D01*
X398439Y522436D01*
X397673Y522754D01*
X397350Y522796D01*
D02*
G37*
G36*
X397449Y533524D02*
Y530913D01*
X400060D01*
X400017Y531236D01*
X399700Y532002D01*
X399195Y532660D01*
X398537Y533165D01*
X397771Y533482D01*
X397449Y533524D01*
D02*
G37*
G36*
X373614Y536213D02*
X371003D01*
X371046Y535890D01*
X371363Y535124D01*
X371868Y534466D01*
X372526Y533961D01*
X373292Y533644D01*
X373614Y533602D01*
Y536213D01*
D02*
G37*
G36*
X382835Y513575D02*
X380224D01*
Y510964D01*
X380547Y511006D01*
X381313Y511324D01*
X381971Y511829D01*
X382476Y512486D01*
X382793Y513253D01*
X382835Y513575D01*
D02*
G37*
G36*
X361705Y515406D02*
X361023Y515316D01*
X359921Y514860D01*
X358976Y514135D01*
X358250Y513189D01*
X357794Y512087D01*
X357704Y511406D01*
X361705D01*
Y515406D01*
D02*
G37*
G36*
X362705D02*
Y511406D01*
X366705D01*
X366616Y512087D01*
X366160Y513189D01*
X365434Y514135D01*
X364488Y514860D01*
X363387Y515316D01*
X362705Y515406D01*
D02*
G37*
G36*
X402658Y457972D02*
X400008D01*
Y453650D01*
X402658D01*
Y457972D01*
D02*
G37*
G36*
X375484Y459902D02*
X375162Y459860D01*
X374396Y459543D01*
X373738Y459038D01*
X373233Y458380D01*
X372916Y457614D01*
X372873Y457291D01*
X375484D01*
Y459902D01*
D02*
G37*
G36*
X376484D02*
Y457291D01*
X379095D01*
X379053Y457614D01*
X378735Y458380D01*
X378231Y459038D01*
X377573Y459543D01*
X376806Y459860D01*
X376484Y459902D01*
D02*
G37*
G36*
X357866Y455118D02*
X355807D01*
Y452862D01*
X357866D01*
Y455118D01*
D02*
G37*
G36*
X360925D02*
X358866D01*
Y452862D01*
X360925D01*
Y455118D01*
D02*
G37*
G36*
X399008Y457972D02*
X396358D01*
Y453650D01*
X399008D01*
Y457972D01*
D02*
G37*
G36*
X303551Y621320D02*
Y618709D01*
X306162D01*
X306120Y619031D01*
X305802Y619797D01*
X305297Y620455D01*
X304640Y620960D01*
X303873Y621277D01*
X303551Y621320D01*
D02*
G37*
G36*
X359244Y468859D02*
X358922Y468817D01*
X358156Y468499D01*
X357498Y467994D01*
X356993Y467336D01*
X356676Y466570D01*
X356633Y466248D01*
X359244D01*
Y468859D01*
D02*
G37*
G36*
X393004Y470532D02*
X392682Y470490D01*
X391915Y470172D01*
X391258Y469668D01*
X390753Y469010D01*
X390435Y468244D01*
X390393Y467921D01*
X393004D01*
Y470532D01*
D02*
G37*
G36*
X394004D02*
Y467921D01*
X396615D01*
X396572Y468244D01*
X396255Y469010D01*
X395750Y469668D01*
X395092Y470172D01*
X394326Y470490D01*
X394004Y470532D01*
D02*
G37*
G36*
X359244Y465248D02*
X356633D01*
X356676Y464926D01*
X356993Y464160D01*
X357498Y463502D01*
X358156Y462997D01*
X358922Y462679D01*
X359244Y462637D01*
Y465248D01*
D02*
G37*
G36*
X393004Y466921D02*
X390393D01*
X390435Y466599D01*
X390753Y465833D01*
X391258Y465175D01*
X391915Y464670D01*
X392682Y464353D01*
X393004Y464310D01*
Y466921D01*
D02*
G37*
G36*
X396615D02*
X394004D01*
Y464310D01*
X394326Y464353D01*
X395092Y464670D01*
X395750Y465175D01*
X396255Y465833D01*
X396572Y466599D01*
X396615Y466921D01*
D02*
G37*
%LPD*%
D10*
X364173Y448032D02*
D03*
X366732D02*
D03*
X369291D02*
D03*
X371850D02*
D03*
X374409D02*
D03*
X376969D02*
D03*
X379528D02*
D03*
X364173Y470079D02*
D03*
X366732D02*
D03*
X369291D02*
D03*
X371850D02*
D03*
X374409D02*
D03*
X376969D02*
D03*
X379528D02*
D03*
D11*
X359744Y586319D02*
D03*
X363484Y577461D02*
D03*
X356004D02*
D03*
X360630Y552559D02*
D03*
X364370Y543701D02*
D03*
X356890D02*
D03*
D12*
X329823Y589468D02*
D03*
X317618D02*
D03*
D13*
X399791Y251803D02*
D03*
X403728D02*
D03*
X407665D02*
D03*
Y263614D02*
D03*
X403728D02*
D03*
X399791D02*
D03*
D14*
X403728Y257709D02*
D03*
D15*
X370000Y306433D02*
D03*
D16*
X381909Y315291D02*
D03*
Y313323D02*
D03*
Y311354D02*
D03*
Y309386D02*
D03*
Y307417D02*
D03*
Y305449D02*
D03*
Y303480D02*
D03*
Y301512D02*
D03*
Y299543D02*
D03*
Y297575D02*
D03*
X358090D02*
D03*
Y299543D02*
D03*
Y301512D02*
D03*
Y303480D02*
D03*
Y305449D02*
D03*
Y307417D02*
D03*
Y309386D02*
D03*
Y311354D02*
D03*
Y313323D02*
D03*
Y315291D02*
D03*
D17*
X378858Y294524D02*
D03*
X376890D02*
D03*
X374921D02*
D03*
X372953D02*
D03*
X370984D02*
D03*
X369016D02*
D03*
X367047D02*
D03*
X365079D02*
D03*
X363110D02*
D03*
X361142D02*
D03*
Y318342D02*
D03*
X363110D02*
D03*
X365079D02*
D03*
X367047D02*
D03*
X369016D02*
D03*
X370984D02*
D03*
X372953D02*
D03*
X374921D02*
D03*
X376890D02*
D03*
X378858D02*
D03*
D18*
X402756Y312106D02*
D03*
Y305610D02*
D03*
D19*
X352740Y199886D02*
D03*
D20*
X361740Y200886D02*
D03*
D21*
X296358Y592717D02*
D03*
D22*
X302264Y595669D02*
D03*
Y593701D02*
D03*
Y591732D02*
D03*
Y589764D02*
D03*
X290453D02*
D03*
Y591732D02*
D03*
Y593701D02*
D03*
Y595669D02*
D03*
D23*
X404724Y345768D02*
D03*
Y359842D02*
D03*
D24*
X386713Y573524D02*
D03*
X384744D02*
D03*
X382776D02*
D03*
Y569193D02*
D03*
X384744D02*
D03*
X386713D02*
D03*
D25*
X364173Y282382D02*
D03*
Y276476D02*
D03*
X355906Y276575D02*
D03*
Y282480D02*
D03*
D26*
X377756Y274311D02*
D03*
Y276870D02*
D03*
Y279429D02*
D03*
X370571D02*
D03*
Y276870D02*
D03*
Y274311D02*
D03*
D27*
X387697Y453150D02*
D03*
X399508D02*
D03*
D28*
X380020Y427165D02*
D03*
Y433268D02*
D03*
X362205Y537697D02*
D03*
Y531595D02*
D03*
X306594Y581890D02*
D03*
Y587992D02*
D03*
X374508Y427165D02*
D03*
Y433268D02*
D03*
X368996Y427165D02*
D03*
Y433268D02*
D03*
X380906Y502461D02*
D03*
Y496358D02*
D03*
X363386Y427264D02*
D03*
Y433366D02*
D03*
X370669Y489567D02*
D03*
Y483465D02*
D03*
X386910Y496358D02*
D03*
Y502461D02*
D03*
D29*
X373721Y540551D02*
D03*
X369783D02*
D03*
X382972Y326772D02*
D03*
X379035D02*
D03*
X404260Y269209D02*
D03*
X408197D02*
D03*
X388976Y294882D02*
D03*
X392913D02*
D03*
X358169Y287598D02*
D03*
X354232D02*
D03*
X387106Y564764D02*
D03*
X391043D02*
D03*
D30*
X365453Y375295D02*
D03*
Y379232D02*
D03*
X404823Y365551D02*
D03*
Y369488D02*
D03*
X366437Y355118D02*
D03*
Y351181D02*
D03*
X392815Y264764D02*
D03*
Y260827D02*
D03*
X392913Y251870D02*
D03*
Y255807D02*
D03*
X352756Y205906D02*
D03*
Y201969D02*
D03*
X311024Y590650D02*
D03*
Y594587D02*
D03*
X356004Y571555D02*
D03*
Y567618D02*
D03*
X401181Y563878D02*
D03*
Y567815D02*
D03*
X369783Y581004D02*
D03*
Y584941D02*
D03*
X386910Y491043D02*
D03*
Y487106D02*
D03*
X387106Y323228D02*
D03*
Y319291D02*
D03*
X360000Y266465D02*
D03*
Y270402D02*
D03*
X355000Y266465D02*
D03*
Y270402D02*
D03*
X399902Y369488D02*
D03*
Y365551D02*
D03*
X408071Y313484D02*
D03*
Y317421D02*
D03*
X408071Y308465D02*
D03*
Y304528D02*
D03*
X356693Y208957D02*
D03*
Y205020D02*
D03*
X311024Y599016D02*
D03*
Y602953D02*
D03*
X314961Y598228D02*
D03*
Y602165D02*
D03*
X381000Y288402D02*
D03*
Y284465D02*
D03*
X373500Y288402D02*
D03*
Y284465D02*
D03*
X377000Y288402D02*
D03*
Y284465D02*
D03*
X363492Y326850D02*
D03*
Y330787D02*
D03*
X390945Y319291D02*
D03*
Y323228D02*
D03*
X359492Y326850D02*
D03*
Y330787D02*
D03*
X378150Y573327D02*
D03*
Y569390D02*
D03*
X358366Y448425D02*
D03*
Y452362D02*
D03*
D31*
X364764Y558957D02*
D03*
X358661D02*
D03*
D32*
X290945Y609154D02*
D03*
X297244D02*
D03*
D33*
X392618Y575492D02*
D03*
Y569193D02*
D03*
X356890Y426968D02*
D03*
Y433268D02*
D03*
D34*
X403543Y208760D02*
D03*
X291043Y208563D02*
D03*
X291142Y625492D02*
D03*
D35*
X370571Y543701D02*
X373721Y540551D01*
X364370Y543701D02*
X370571D01*
X353248Y547638D02*
X360433D01*
X364370Y543701D01*
X353248Y547638D02*
X354429Y546457D01*
X351329Y549557D02*
X353248Y547638D01*
X366929Y537697D02*
X369783Y540551D01*
X362205Y537697D02*
X366929D01*
X356890Y543012D02*
X362205Y537697D01*
X356890Y543012D02*
Y543701D01*
X362205Y522638D02*
Y531595D01*
X374114Y536713D02*
Y540158D01*
X357333Y532824D02*
X358171Y533661D01*
X357333Y524163D02*
Y532824D01*
X357776Y533661D02*
X358171D01*
X354429Y517717D02*
Y546457D01*
X360728Y552658D02*
X373858D01*
X360630Y552559D02*
X360728Y552658D01*
X351476Y558957D02*
X358661D01*
X349410Y556890D02*
X351476Y558957D01*
X374016Y556595D02*
X376969D01*
X371654Y558957D02*
X374016Y556595D01*
X364764Y558957D02*
X371654D01*
X376941Y559575D02*
X379626Y556890D01*
X376079Y559575D02*
X376941D01*
X376969Y556595D02*
X380906Y552658D01*
X383858D01*
X314961Y598228D02*
X319685Y593504D01*
X299311Y589764D02*
X302264D01*
X306496Y581988D02*
X306594Y581890D01*
X312795Y604036D02*
Y612205D01*
X313090Y612500D01*
X408957Y343012D02*
X409547Y343602D01*
X401516Y343012D02*
X408957D01*
X399902Y341397D02*
X401516Y343012D01*
X409547Y343602D02*
Y349508D01*
X410335Y356201D02*
X411221Y357087D01*
X395276Y356201D02*
X410335D01*
X389272Y350197D02*
X395276Y356201D01*
X396949Y345472D02*
X397244Y345768D01*
X404724D01*
X395079Y363681D02*
X396949Y361811D01*
X395079Y363681D02*
Y365454D01*
X397736Y339232D02*
X399902Y341397D01*
Y341397D01*
X397736Y333818D02*
Y339232D01*
X394316Y330398D02*
X397736Y333818D01*
X394316Y326058D02*
Y330398D01*
X394982Y365551D02*
X395079Y365454D01*
X400148Y573868D02*
X400394Y574114D01*
X398622Y572342D02*
X400148Y573868D01*
X400591Y573425D01*
X399902Y574114D02*
X400148Y573868D01*
X389570Y572342D02*
X398622D01*
X388389Y573524D02*
X389570Y572342D01*
X386713Y573524D02*
X388389D01*
X366339Y202854D02*
X380610D01*
X403728Y225972D01*
Y251803D01*
X387221Y269209D02*
X404260D01*
X385925Y267913D02*
X387221Y269209D01*
X385925Y262106D02*
Y267913D01*
Y262106D02*
X387205Y260827D01*
X392815D01*
X397835Y277953D02*
X404260Y271528D01*
Y269209D02*
Y271528D01*
X408197Y300126D02*
X409646Y301575D01*
X408197Y269209D02*
Y300126D01*
X388583Y251673D02*
X392717D01*
X388878Y264469D02*
X392520D01*
X392913Y251870D02*
X392980Y251803D01*
X399791D01*
X392815Y264764D02*
X395669D01*
X396819Y263614D01*
X399791D01*
X392913Y255807D02*
Y260728D01*
X393996Y294882D02*
X400689Y301575D01*
X392913Y294882D02*
X393996D01*
X384842Y294783D02*
X388878D01*
X384547Y294488D02*
X385138D01*
X290453Y562598D02*
Y589764D01*
X344421Y568535D02*
X348554D01*
X287894Y591732D02*
X290453D01*
X287008Y590846D02*
X287894Y591732D01*
X287008Y561909D02*
Y590846D01*
Y561909D02*
X292323Y556595D01*
X343996D01*
X310925Y602165D02*
X312795Y604036D01*
X310827Y602067D02*
X310925Y602165D01*
X296358Y592717D02*
X299311Y589764D01*
X303740Y609154D02*
X310827Y602067D01*
X297244Y609154D02*
X303740D01*
X310925Y602165D02*
X314961D01*
X310335Y595669D02*
X310925Y596260D01*
X302264Y595669D02*
X310335D01*
X310925Y596260D02*
Y598032D01*
Y594587D02*
Y596260D01*
X310827Y598130D02*
X310925Y598032D01*
X287598Y605807D02*
X290945Y609154D01*
X287598Y593701D02*
Y605807D01*
Y593701D02*
X290453D01*
X296358Y595079D02*
Y608268D01*
Y592717D02*
Y595079D01*
X386910Y586319D02*
X389173D01*
X379528Y578937D02*
X386910Y586319D01*
X405709Y581693D02*
X406102Y581299D01*
X402067Y577362D02*
Y578248D01*
Y577362D02*
X404232Y575197D01*
Y563484D02*
Y575197D01*
X357480Y485630D02*
X362205Y480905D01*
X357480Y485630D02*
Y503740D01*
X359646Y505905D01*
X369980D02*
X371555Y507480D01*
X358839Y510906D02*
X362205D01*
X354724Y506791D02*
X358839Y510906D01*
X354724Y477362D02*
Y506791D01*
Y477362D02*
X356594Y475492D01*
X360039D01*
X362205Y500906D02*
X363779Y502480D01*
X380886D01*
X362205Y490906D02*
X363543Y489567D01*
X370669D01*
X371850Y470079D02*
Y482283D01*
X370669Y483465D02*
X371850Y482283D01*
X353543Y326180D02*
X355135Y327772D01*
Y326886D02*
Y327772D01*
X356890Y293842D02*
Y294938D01*
X383598Y313323D02*
X387106Y316831D01*
X361142Y318342D02*
Y323110D01*
X360352Y322260D02*
X361154Y323122D01*
X352559Y301862D02*
X352576D01*
X352559D02*
Y302067D01*
X394783Y308465D02*
X395374D01*
X399380Y315719D02*
X402461Y318799D01*
X369291Y463681D02*
X370276Y462697D01*
X369291Y463681D02*
Y470079D01*
X398159Y315719D02*
X399380D01*
X402362Y318799D02*
X402461D01*
X390315Y307874D02*
X398159Y315719D01*
X387058Y307874D02*
X390315D01*
X384633Y305449D02*
X387058Y307874D01*
X381909Y305449D02*
X384633D01*
X392618Y306299D02*
X394783Y308465D01*
X388046Y306299D02*
X392618D01*
X385227Y303480D02*
X388046Y306299D01*
X381909Y303480D02*
X385227D01*
X389392Y309449D02*
X396457Y316513D01*
X386406Y309449D02*
X389392D01*
X384374Y307417D02*
X386406Y309449D01*
X381909Y307417D02*
X384374D01*
X385753Y311024D02*
X388740D01*
X384116Y309386D02*
X385753Y311024D01*
X381909Y309386D02*
X384116D01*
X388740Y311024D02*
X394882Y317166D01*
X385101Y312598D02*
X388088D01*
X383857Y311354D02*
X385101Y312598D01*
X381909Y311354D02*
X383857D01*
X388088Y312598D02*
X393307Y317818D01*
X398917Y308268D02*
X402756Y312106D01*
X398917Y307283D02*
Y308268D01*
X396949Y305315D02*
X398917Y307283D01*
X394429Y305315D02*
X396949D01*
X393839Y304724D02*
X394429Y305315D01*
X388699Y304724D02*
X393839D01*
X385486Y301512D02*
X388699Y304724D01*
X395082Y303740D02*
X400886D01*
X394491Y303150D02*
X395082Y303740D01*
X389351Y303150D02*
X394491D01*
X385745Y299543D02*
X389351Y303150D01*
X400886Y303740D02*
X402756Y305610D01*
X408071Y317421D02*
Y317421D01*
X402756Y312106D02*
X408071Y317421D01*
X400394Y322933D02*
X408071D01*
X410630Y320374D01*
Y313287D02*
Y320374D01*
X408317Y310974D02*
X410630Y313287D01*
X408071Y310974D02*
X408317D01*
X408071D02*
Y313484D01*
Y308465D02*
Y310974D01*
X408071Y313484D02*
X408071Y313484D01*
Y308465D02*
X410728Y305807D01*
Y302658D02*
Y305807D01*
X409646Y301575D02*
X410728Y302658D01*
X400689Y301575D02*
X409646D01*
X406988Y305610D02*
X408071Y304528D01*
X402756Y305610D02*
X406988D01*
X384701Y294783D02*
X384842D01*
X384350D02*
X384701D01*
X381909Y297575D02*
X384701Y294783D01*
X396457Y317913D02*
X397835Y319291D01*
X396457Y316513D02*
Y317913D01*
X394882Y324114D02*
X399410Y328642D01*
X394882Y317166D02*
Y324114D01*
X393307Y325048D02*
X394316Y326058D01*
X393307Y317818D02*
Y325048D01*
X387598Y360827D02*
X387697Y360728D01*
X387598Y360827D02*
Y372638D01*
X399508Y384547D01*
Y415551D01*
X391240Y423819D02*
X399508Y415551D01*
X392913Y431434D02*
Y458329D01*
X387629Y426150D02*
X392913Y431434D01*
X387629Y422410D02*
Y426150D01*
X374902Y409682D02*
X387629Y422410D01*
X385974Y426722D02*
X391339Y432087D01*
X385974Y422982D02*
Y426722D01*
X391339Y432087D02*
Y457677D01*
X373327Y410335D02*
X385974Y422982D01*
X386910Y483760D02*
Y487106D01*
X399606Y369783D02*
X399902Y369488D01*
X390354Y369783D02*
X399606D01*
X403728Y263614D02*
X404260Y264146D01*
Y269209D01*
X351988Y309856D02*
X352576Y309267D01*
X351789Y310054D02*
X351988Y309856D01*
X366043Y346850D02*
X366437Y347244D01*
Y351181D01*
X376890Y318342D02*
Y324626D01*
X374921Y322657D02*
X376890Y324626D01*
X365087Y266465D02*
X370571Y271949D01*
X364173Y273031D02*
X365158Y272047D01*
X370000Y306433D02*
X372953Y309386D01*
X390945Y323228D02*
Y326083D01*
X370000Y306433D02*
X372362Y308795D01*
X368976Y259134D02*
Y265335D01*
X408465Y350590D02*
X409547Y349508D01*
X389272Y342815D02*
Y350197D01*
X386319Y339862D02*
X389272Y342815D01*
X360476Y370079D02*
Y397386D01*
Y343243D02*
Y370079D01*
X354232Y369587D02*
X355512Y370866D01*
Y374526D01*
X356596Y375610D01*
Y385137D01*
X355906Y385827D02*
X356596Y385137D01*
X358169Y317658D02*
Y319941D01*
X377134Y330972D02*
Y386646D01*
X370382Y324220D02*
X377134Y330972D01*
X370382Y323223D02*
Y324220D01*
X371957Y322571D02*
Y323529D01*
X377365Y328937D01*
X377461D01*
X378709Y330185D01*
X370984Y321599D02*
X371957Y322571D01*
X378709Y330185D02*
Y336976D01*
X369016Y321857D02*
X370382Y323223D01*
X357961Y418307D02*
X358902Y417366D01*
X397737Y443996D02*
X399508Y445766D01*
Y453150D01*
X397737Y438386D02*
Y443996D01*
X399508Y463189D02*
X402559Y466240D01*
X399508Y453150D02*
Y463189D01*
X364173Y460925D02*
X365059Y461811D01*
X364173Y448032D02*
Y460925D01*
X358366Y464272D02*
X364173Y470079D01*
X358366Y452362D02*
Y464272D01*
X360039Y475492D02*
X364173Y471358D01*
Y470079D02*
Y471358D01*
X405021Y429529D02*
X406595Y431102D01*
X405021Y428051D02*
Y429529D01*
X384547Y294488D02*
X384842Y294783D01*
X384172Y294113D02*
X384547Y294488D01*
X384055D02*
X384547D01*
X384842Y294783D02*
X385138Y294488D01*
X384172Y290900D02*
Y294113D01*
X381674Y288402D02*
X384172Y290900D01*
X381000Y288402D02*
X381674D01*
X377000D02*
X380102D01*
X364173Y273031D02*
Y276476D01*
X359941Y287500D02*
Y292126D01*
X363484Y571948D02*
Y577461D01*
X362404Y570867D02*
X363484Y571948D01*
X406102Y573858D02*
Y581299D01*
Y573858D02*
X408171Y571790D01*
X383000Y335000D02*
X387106Y330894D01*
Y323228D02*
Y330894D01*
X394982Y365551D02*
X399902D01*
X357087Y373874D02*
X358902Y375689D01*
X357087Y366874D02*
Y373874D01*
Y366874D02*
X358902Y365059D01*
Y375689D02*
Y417366D01*
Y342590D02*
Y365059D01*
X362051Y360433D02*
X365551Y363933D01*
X362051Y343895D02*
Y360433D01*
X361122Y420768D02*
X362992D01*
X356890Y425000D02*
X361122Y420768D01*
X356890Y425000D02*
Y426968D01*
X374508Y421949D02*
X376870D01*
X380020Y425098D01*
Y427165D01*
X380709Y443012D02*
X388189D01*
X379528Y444193D02*
X380709Y443012D01*
X379528Y444193D02*
Y448032D01*
X381594Y339862D02*
X386319D01*
X378709Y336976D02*
X381594Y339862D01*
X400591Y568405D02*
Y573425D01*
Y568405D02*
X401181Y567815D01*
X399902Y574114D02*
X400394D01*
X408858Y575000D02*
X411221Y572638D01*
X370984Y318342D02*
Y321599D01*
X372342Y391437D02*
Y399311D01*
Y391437D02*
X377134Y386646D01*
X369016Y318342D02*
Y321857D01*
X372244Y414764D02*
X375529D01*
X383384Y422619D01*
Y434920D01*
X382084Y436221D02*
X383384Y434920D01*
X379134Y436221D02*
X382084D01*
X376969Y438386D02*
X379134Y436221D01*
X376969Y438386D02*
Y448032D01*
X366535Y403445D02*
X369390D01*
X360476Y397386D02*
X366535Y403445D01*
X367323Y401870D02*
X370042D01*
X362051Y396598D02*
X367323Y401870D01*
X379528Y464530D02*
Y470079D01*
Y464530D02*
X382690Y461368D01*
X389875D01*
X392913Y458329D01*
X374902Y406730D02*
Y409682D01*
X370042Y401870D02*
X374902Y406730D01*
X373327Y407382D02*
Y410335D01*
X369390Y403445D02*
X373327Y407382D01*
X382037Y459793D02*
X389222D01*
X391339Y457677D01*
X376969Y464862D02*
X382037Y459793D01*
X376969Y464862D02*
Y470079D01*
X363110Y318342D02*
Y322633D01*
X362051Y343895D02*
X368807Y337139D01*
Y323875D02*
Y337139D01*
X360476Y343243D02*
X367232Y336487D01*
Y324528D02*
Y336487D01*
X367047Y322116D02*
X368807Y323875D01*
X367047Y318342D02*
Y322116D01*
X365079Y322374D02*
X367232Y324528D01*
X365079Y318342D02*
Y322374D01*
X355217Y315012D02*
Y320039D01*
Y315012D02*
X356905Y313323D01*
X358090D01*
X353543Y314458D02*
X356351Y311650D01*
X357795D02*
X358090Y311354D01*
X356351Y311650D02*
X357795D01*
X351969Y313806D02*
X356388Y309386D01*
X352576Y309169D02*
Y309267D01*
X351969Y313806D02*
Y328051D01*
X353543Y314458D02*
Y326180D01*
X353150Y305807D02*
Y306102D01*
X352791Y305449D02*
X353150Y305807D01*
X352576Y301862D02*
Y301885D01*
X352559Y302067D02*
X352953Y302461D01*
X355772Y307417D02*
X358090D01*
X354020Y309169D02*
X355772Y307417D01*
X352953Y297933D02*
X356532Y301512D01*
X352559Y297933D02*
X352953D01*
X356532Y301512D02*
X358090D01*
X354720Y303480D02*
X358090D01*
X353701Y302461D02*
X354720Y303480D01*
X352953Y302461D02*
X353701D01*
X351988Y309757D02*
Y309856D01*
Y309757D02*
X352576Y309169D01*
X354020D01*
X355502Y298140D02*
X356905Y299543D01*
X355502Y296699D02*
Y298140D01*
X356905Y299543D02*
X358090D01*
X354134Y292024D02*
Y295331D01*
X355502Y296699D01*
X357104Y294056D02*
Y294404D01*
X356890Y293842D02*
X357104Y294056D01*
X353954Y291845D02*
X354134Y292024D01*
X354840Y290959D02*
Y291420D01*
X354429Y291831D02*
X354840Y291420D01*
X352756Y262894D02*
X353789Y261860D01*
X352756Y262894D02*
Y279331D01*
X355906Y282480D01*
X353789Y261860D02*
X355000Y263071D01*
X353248Y261319D02*
X353789Y261860D01*
X354134Y287500D02*
X354232Y287598D01*
X354134Y285126D02*
Y287500D01*
X358957D02*
X359941D01*
X356614Y277284D02*
X361024Y281693D01*
X355906Y276575D02*
X356614Y277284D01*
X355000Y276213D02*
X356071Y277284D01*
X356614D02*
X356799D01*
X356071D02*
X356614D01*
X361024Y281693D02*
Y285186D01*
Y271425D02*
Y271756D01*
X360000Y270402D02*
X361024Y271425D01*
X364339Y281563D02*
Y283090D01*
X361024Y271756D02*
Y278737D01*
X364173Y281887D01*
Y282382D01*
X356388Y309386D02*
X358090D01*
X351969Y328051D02*
X354741Y330823D01*
X354742D01*
X355217Y320039D02*
X356299Y321122D01*
Y322933D01*
X358090Y320020D02*
Y320102D01*
X359492Y326150D02*
X361142Y324500D01*
X359492Y326150D02*
Y326850D01*
X358090Y320020D02*
X358169Y319941D01*
X358090Y317579D02*
X358169Y317658D01*
X358090Y315291D02*
Y317579D01*
X352791Y305449D02*
X358090D01*
X354237Y291638D02*
X354429Y291831D01*
Y291831D01*
X354161Y291638D02*
X354237D01*
X353954Y291845D02*
X354161Y291638D01*
X356890Y294938D02*
X358090Y296139D01*
Y297575D01*
X364653Y276870D02*
X370571D01*
X361024Y285186D02*
X361811Y285974D01*
X359941Y292126D02*
X361142Y293327D01*
X361811Y285974D02*
Y291043D01*
X363110Y292342D01*
X363386Y290046D02*
X365079Y291739D01*
X363386Y284043D02*
Y290046D01*
Y284043D02*
X364339Y283090D01*
X365079Y291739D02*
Y294524D01*
X354134Y285126D02*
X356071Y283189D01*
X363110Y292342D02*
Y294524D01*
X361142Y293327D02*
Y294524D01*
X376890Y291614D02*
X380102Y288402D01*
X381000D01*
X379513Y292042D02*
X381416D01*
X378858Y292697D02*
X379513Y292042D01*
X378858Y292697D02*
Y294524D01*
X384055Y294488D02*
X384350Y294783D01*
X373500Y288402D02*
X377000D01*
X387106Y319291D02*
X387106Y319291D01*
X390945D01*
X387106Y316831D02*
Y319291D01*
X381909Y313323D02*
X383598D01*
X382972Y324803D02*
Y326772D01*
X381909Y323740D02*
X382972Y324803D01*
X381909Y315291D02*
Y323740D01*
X372953Y320689D02*
X374921Y322657D01*
X372953Y318342D02*
Y320689D01*
X374921Y318342D02*
Y322657D01*
X376890Y324626D02*
X378858Y326594D01*
X379035Y326772D01*
X378858Y318342D02*
Y326594D01*
X358902Y342590D02*
X365657Y335835D01*
X361713Y330787D02*
Y334646D01*
Y330787D02*
X363492D01*
X359492D02*
X361713D01*
X365657Y325180D02*
Y335835D01*
X363110Y322633D02*
X365657Y325180D01*
X399902Y369488D02*
X404823D01*
X404823Y359744D02*
Y365551D01*
X355000Y263071D02*
Y263661D01*
Y266465D01*
X372980Y355020D02*
X373000Y355000D01*
X366634Y355020D02*
X372980D01*
X381890Y507480D02*
X386910Y502461D01*
X371555Y507480D02*
X381890D01*
X380906Y486319D02*
Y496358D01*
X377608Y483022D02*
X380906Y486319D01*
X377608Y478789D02*
Y483022D01*
X396850Y512894D02*
X399311Y510433D01*
Y508622D02*
Y510433D01*
Y508622D02*
X399311Y508622D01*
Y488226D02*
Y508622D01*
X390514Y479429D02*
X399311Y488226D01*
X384154Y479429D02*
X390514D01*
X379528Y474803D02*
X384154Y479429D01*
X379528Y470079D02*
Y474803D01*
X396555Y487697D02*
Y507480D01*
X389862Y481004D02*
X396555Y487697D01*
X383268Y481004D02*
X389862D01*
X376969Y474705D02*
X383268Y481004D01*
X376969Y470079D02*
Y474705D01*
X387008Y510630D02*
X390158Y507480D01*
X390650Y512894D02*
X391339D01*
X387008Y510630D02*
Y517126D01*
X386910Y502461D02*
X391732D01*
X374409Y448032D02*
Y451870D01*
X375689Y453150D01*
X387697D01*
X374409Y475591D02*
X377608Y478789D01*
X374409Y470079D02*
Y475591D01*
X377313Y567372D02*
Y568750D01*
X375394Y569291D02*
X377313Y567372D01*
X369390Y569291D02*
X375394D01*
X351772Y569980D02*
X354134Y567618D01*
X356004D01*
X386910Y491043D02*
Y496358D01*
X380906Y496358D02*
X386910D01*
X358366Y448425D02*
X358760Y448032D01*
X364173D01*
X356890Y433268D02*
X363287D01*
X374508D02*
X380020D01*
X368996Y436221D02*
X369685Y436909D01*
X368996Y433268D02*
Y436221D01*
X368209Y441437D02*
X369291Y442520D01*
Y448032D01*
X371850Y441634D02*
Y448032D01*
X370571Y271949D02*
Y274311D01*
X360000Y266465D02*
X365087D01*
X367717Y567618D02*
X369390Y569291D01*
X356004Y567618D02*
X367717D01*
X359744Y586319D02*
X361122Y584941D01*
X369783D01*
X366240Y577461D02*
X369783Y581004D01*
X356004Y577461D02*
X356004Y577461D01*
Y571555D02*
Y577461D01*
X361142Y324500D02*
X363492Y326850D01*
X361142Y323110D02*
Y324500D01*
Y323110D02*
X361154Y323122D01*
X374114Y274902D02*
Y276870D01*
X373524Y274311D02*
X374114Y274902D01*
X370571Y274311D02*
X373524D01*
X374114Y276870D02*
X377756D01*
X370571D02*
X374114D01*
X381909Y301512D02*
X385486D01*
X381909Y299543D02*
X385745D01*
X381000Y277358D02*
Y284465D01*
X380512Y276870D02*
X381000Y277358D01*
X377756Y276870D02*
X380512D01*
X377000Y284465D02*
X381000D01*
X373500D02*
X377000D01*
X367047Y291480D02*
Y294524D01*
X366000Y290433D02*
X367047Y291480D01*
X403728Y251803D02*
Y257709D01*
X408693D01*
X410236Y259252D01*
Y267169D01*
X408197Y269209D02*
X410236Y267169D01*
X355000Y263661D02*
X355866Y262795D01*
X359055D01*
X360000Y263740D01*
Y266465D01*
X360469Y266933D01*
X355000Y270402D02*
Y276213D01*
X372953Y288949D02*
Y294524D01*
Y288949D02*
X373500Y288402D01*
X374921Y291122D02*
Y294524D01*
Y291122D02*
X377000Y289043D01*
Y288402D02*
Y289043D01*
X376890Y291614D02*
Y294524D01*
X290453Y562598D02*
X294685Y558366D01*
X334252D01*
X344421Y568535D01*
X391732Y502461D02*
X393701Y504429D01*
X361240Y510906D02*
X362205D01*
X346555Y554035D02*
X349410Y556890D01*
X346555Y551181D02*
Y554035D01*
X359646Y505905D02*
X369980D01*
X351329Y549557D02*
Y552411D01*
X352658Y553740D01*
X362205Y522638D02*
X370965Y513878D01*
Y510532D02*
Y513878D01*
X352854Y382285D02*
X353840Y381299D01*
X352854Y382285D02*
Y544882D01*
X346555Y551181D02*
X352854Y544882D01*
X354429Y517717D02*
X361240Y510906D01*
X348554Y568535D02*
X352424Y564665D01*
X343996Y556595D02*
X350394Y562992D01*
X372661D01*
X401181Y563484D02*
X404232D01*
X392126Y575984D02*
X392618Y575492D01*
X384744Y567224D02*
Y569193D01*
X382579Y565059D02*
X384744Y567224D01*
X379035Y565748D02*
Y568504D01*
X377313Y568750D02*
X378150Y569390D01*
X379035Y568504D01*
X377313Y567372D02*
X377411D01*
X379035Y565748D01*
X394882Y563287D02*
X395276Y562894D01*
X352424Y564665D02*
X374886D01*
X376657Y562894D01*
X372661Y562992D02*
X376079Y559575D01*
X376657Y562894D02*
X378150D01*
X381201Y559842D01*
X382579Y558465D01*
X387008Y517126D02*
X389567Y519685D01*
X362051Y374071D02*
Y396598D01*
Y374071D02*
X365551Y370571D01*
Y363933D02*
Y370571D01*
X406244Y327280D02*
X407106D01*
X400591Y333796D02*
Y336713D01*
Y333796D02*
X407106Y327280D01*
X402658Y340256D02*
X407087Y335827D01*
X409941D01*
X303602Y245472D02*
X309902Y239173D01*
X328248D01*
X332382Y243307D01*
X398524Y544882D02*
X402559Y540846D01*
Y466240D02*
Y540846D01*
X411221Y357087D02*
Y572638D01*
X408171Y380217D02*
Y571790D01*
X379626Y556890D02*
X386516D01*
X382579Y558465D02*
X388779D01*
X406595Y431102D02*
Y545079D01*
X388779Y558465D02*
X391339Y555905D01*
X386516Y556890D02*
X389567Y553839D01*
Y519685D02*
Y553839D01*
X391339Y512894D02*
Y555905D01*
X393701Y548228D02*
X398228Y552756D01*
Y558957D01*
X382579Y564665D02*
Y565059D01*
X393701Y504429D02*
Y548228D01*
X404528Y547146D02*
X406595Y545079D01*
X352756Y199311D02*
Y201969D01*
D36*
X319685Y592618D02*
Y593504D01*
X318504Y591437D02*
X319685Y592618D01*
Y616535D02*
X326772Y623622D01*
X319685Y593504D02*
Y616535D01*
X335925Y571555D02*
Y594193D01*
X327402Y563031D02*
X335925Y571555D01*
X326279Y563031D02*
X327402D01*
X326772Y603346D02*
X335925Y594193D01*
X326772Y603346D02*
Y613622D01*
X311024Y578287D02*
Y585433D01*
X352658Y207972D02*
Y229921D01*
X377756Y255020D01*
Y272835D01*
X318504Y584154D02*
X326279Y576378D01*
X318504Y584154D02*
Y589468D01*
X311024Y578287D02*
X326279Y563031D01*
Y573032D02*
Y576378D01*
D37*
X355709Y586319D02*
X359744D01*
X350886Y581496D02*
X355709Y586319D01*
X350886Y576870D02*
Y581496D01*
X346260Y572244D02*
X350886Y576870D01*
X341142Y572244D02*
X346260D01*
X329134Y583268D02*
Y589468D01*
X310925Y585532D02*
X311024Y585433D01*
X308169Y586909D02*
X311811D01*
X302264Y583563D02*
Y589370D01*
X303839Y581988D02*
X306496D01*
X302264Y583563D02*
X303839Y581988D01*
X310039Y590453D02*
X316437D01*
X363386Y436614D02*
X368209Y441437D01*
X363386Y433366D02*
Y436614D01*
X371850Y441634D02*
X374508Y438976D01*
Y433268D02*
Y438976D01*
X368996Y427165D02*
X374508D01*
X363484D02*
X368996D01*
X363386Y427264D02*
X363484Y427165D01*
X367413Y409087D02*
Y425583D01*
X365453Y375295D02*
X372705D01*
X373000Y375000D01*
D38*
X329134Y583268D02*
X330020Y582382D01*
X316437Y590453D02*
X317323Y589567D01*
X326279Y613130D02*
X326772Y613622D01*
X367413Y425583D02*
X368996Y427165D01*
X369016Y280984D02*
X370571Y279429D01*
X369016Y280984D02*
Y294524D01*
X375189Y281996D02*
X377756Y279429D01*
X371983Y281996D02*
X375189D01*
X370984Y282994D02*
X371983Y281996D01*
X370984Y282994D02*
Y294524D01*
X392618Y569193D02*
X395063D01*
X400378Y563878D02*
X401181D01*
X398228Y558957D02*
X401181Y561909D01*
Y563484D01*
Y563878D01*
D39*
X307087Y587992D02*
X307283D01*
X307087D02*
X308169Y586909D01*
X306594Y587992D02*
X307087D01*
X306791Y593701D02*
X310039Y590453D01*
X302264Y593701D02*
X306791D01*
X302264Y591732D02*
X304823D01*
X306594Y587992D02*
Y589961D01*
X304823Y591732D02*
X306594Y589961D01*
X384744Y573524D02*
Y576181D01*
X386713Y564665D02*
Y568799D01*
X395063Y569193D02*
X400378Y563878D01*
X390650Y564665D02*
X393504D01*
X394882Y563287D01*
D40*
X384744Y576181D02*
X391929D01*
X387106Y569193D02*
X392618D01*
D41*
X378248Y573524D02*
X382087D01*
X377854Y569193D02*
X382283D01*
X370374Y573327D02*
X378150D01*
X366240Y577461D02*
X370374Y573327D01*
X363484Y577461D02*
X366240D01*
X365453Y379232D02*
Y382185D01*
X365453Y382185D01*
D42*
X352756Y208957D02*
X356693D01*
D43*
X366141Y199429D02*
D03*
X357479Y199429D02*
D03*
D44*
X361810Y183958D02*
D03*
D45*
X377572Y195438D02*
D03*
D46*
X377519Y180414D02*
D03*
D47*
X345236Y176063D02*
D03*
D48*
X391298Y190178D02*
D03*
D49*
X361810Y187915D02*
D03*
D50*
X361812Y195431D02*
D03*
D51*
X352835Y196890D02*
D03*
D52*
X354875Y189645D02*
D03*
D53*
X377494Y178331D02*
D03*
D54*
X370472Y195423D02*
D03*
D55*
X361811Y202461D02*
D03*
D56*
X383858Y552658D02*
D03*
X373858D02*
D03*
D57*
X367413Y394913D02*
D03*
Y409087D02*
D03*
X381685Y409185D02*
D03*
D58*
X383000Y375000D02*
D03*
X373000D02*
D03*
X383000Y365000D02*
D03*
X373000D02*
D03*
X383000Y355000D02*
D03*
X373000D02*
D03*
X383000Y345000D02*
D03*
X373000D02*
D03*
X383000Y335000D02*
D03*
X362205Y510906D02*
D03*
Y500906D02*
D03*
Y490906D02*
D03*
X326279Y573032D02*
D03*
Y563031D02*
D03*
X303602Y245472D02*
D03*
X313602D02*
D03*
X323602D02*
D03*
X326772Y623622D02*
D03*
Y613622D02*
D03*
D59*
X373000Y335000D02*
D03*
X362205Y480905D02*
D03*
D60*
X293602Y245472D02*
D03*
D61*
X340551Y600787D02*
D03*
X389169Y617850D02*
D03*
X389138Y600823D02*
D03*
X360661Y617850D02*
D03*
X360630Y600823D02*
D03*
X340551Y617815D02*
D03*
D62*
X380000Y228500D02*
D03*
Y525000D02*
D03*
D63*
X367638Y304071D02*
D03*
Y308795D02*
D03*
X372362Y304071D02*
D03*
Y308795D02*
D03*
X389173Y586319D02*
D03*
X296358Y590354D02*
D03*
Y595079D02*
D03*
D64*
X357776Y533661D02*
D03*
X341142Y572244D02*
D03*
X330020Y582382D02*
D03*
X313090Y612500D02*
D03*
X408071Y351870D02*
D03*
X396949Y361811D02*
D03*
X402658Y340256D02*
D03*
X400591Y336713D02*
D03*
X396949Y345472D02*
D03*
X397721Y566535D02*
D03*
X379035Y565748D02*
D03*
X408661Y229134D02*
D03*
X408268Y240748D02*
D03*
X390650Y219094D02*
D03*
X399016Y228346D02*
D03*
X394193Y234646D02*
D03*
X378839Y245472D02*
D03*
X367224Y233957D02*
D03*
X361221Y227264D02*
D03*
X365748Y218012D02*
D03*
X403150Y216339D02*
D03*
X409449Y202067D02*
D03*
X394882Y207283D02*
D03*
X374803Y208071D02*
D03*
X348425Y251575D02*
D03*
X358760Y247835D02*
D03*
X343996Y235138D02*
D03*
X332579Y230118D02*
D03*
X319783D02*
D03*
X303740Y229528D02*
D03*
X290354Y228839D02*
D03*
X295768Y218110D02*
D03*
X312303Y218012D02*
D03*
X332283Y217421D02*
D03*
X345079Y225886D02*
D03*
X344783Y215748D02*
D03*
X338287Y206890D02*
D03*
X319980Y207283D02*
D03*
X303740Y207382D02*
D03*
X397539Y243307D02*
D03*
X392913Y276378D02*
D03*
X397835Y277953D02*
D03*
X388583Y251673D02*
D03*
X388878Y264469D02*
D03*
X343110Y577067D02*
D03*
X375886Y594783D02*
D03*
X400197Y608760D02*
D03*
X376870Y624311D02*
D03*
X372933Y608661D02*
D03*
X351772Y624311D02*
D03*
X350689Y608465D02*
D03*
X310433Y616437D02*
D03*
X311910Y623425D02*
D03*
X303051Y618209D02*
D03*
X306594Y626083D02*
D03*
X304232Y573327D02*
D03*
X311024Y564764D02*
D03*
X296555Y567126D02*
D03*
X294980Y579921D02*
D03*
X402067Y578248D02*
D03*
X370276Y388484D02*
D03*
X375984Y456791D02*
D03*
X393504Y467421D02*
D03*
X404823Y401083D02*
D03*
X404331Y389173D02*
D03*
X392913Y491831D02*
D03*
X396850Y478839D02*
D03*
X380020Y349902D02*
D03*
X370276Y462697D02*
D03*
X402362Y318799D02*
D03*
X395374Y308465D02*
D03*
X397835Y319291D02*
D03*
X399410Y328642D02*
D03*
X387697Y360728D02*
D03*
X391240Y423819D02*
D03*
X386910Y483760D02*
D03*
X390354Y369783D02*
D03*
X366043Y346850D02*
D03*
X400395Y323435D02*
D03*
X390946Y326585D02*
D03*
X364469Y272539D02*
D03*
X368899Y265069D02*
D03*
X368976Y259134D02*
D03*
X369292Y269685D02*
D03*
X359744Y465748D02*
D03*
X354233Y369587D02*
D03*
X355906Y385827D02*
D03*
X357962Y418307D02*
D03*
X397737Y438386D02*
D03*
X365060Y461811D02*
D03*
X405021Y428051D02*
D03*
X386714Y315551D02*
D03*
X362404Y570867D02*
D03*
X353840Y381299D02*
D03*
X405710Y581693D02*
D03*
X408171Y380217D02*
D03*
X365748Y370079D02*
D03*
X360476D02*
D03*
X362993Y420768D02*
D03*
X373623Y422342D02*
D03*
X388190Y443012D02*
D03*
X376279Y323721D02*
D03*
X400394Y574114D02*
D03*
X408858Y575000D02*
D03*
X372342Y399311D02*
D03*
X372244Y414764D02*
D03*
X351789Y310054D02*
D03*
X353150Y306102D02*
D03*
X352576Y301885D02*
D03*
X352559Y297933D02*
D03*
X357104Y294404D02*
D03*
X358858Y290551D02*
D03*
X354840Y290959D02*
D03*
X354742Y330823D02*
D03*
X360352Y322260D02*
D03*
X357972Y318898D02*
D03*
X355135Y326886D02*
D03*
X356299Y322933D02*
D03*
X366142Y288878D02*
D03*
X381416Y292042D02*
D03*
X384842Y294783D02*
D03*
X361713Y334646D02*
D03*
X396850Y512894D02*
D03*
X396555Y507480D02*
D03*
X390158D02*
D03*
X390650Y512894D02*
D03*
X379528Y578937D02*
D03*
X351772Y569980D02*
D03*
X345669Y564075D02*
D03*
X369685Y436909D02*
D03*
X349410Y556890D02*
D03*
X352658Y553740D02*
D03*
X357972Y524705D02*
D03*
X370965Y510532D02*
D03*
X369094Y522539D02*
D03*
X374114Y536713D02*
D03*
X379724Y514075D02*
D03*
X396850Y519685D02*
D03*
X386811Y535039D02*
D03*
X381201Y559842D02*
D03*
X376079Y559575D02*
D03*
X365453Y382185D02*
D03*
X404429Y394783D02*
D03*
X407106Y327280D02*
D03*
X403150Y326476D02*
D03*
X409941Y335827D02*
D03*
X332382Y243307D02*
D03*
X394882Y563287D02*
D03*
X404921Y546555D02*
D03*
X398524Y544882D02*
D03*
X382972Y563976D02*
D03*
X394390Y527067D02*
D03*
X396949Y530413D02*
D03*
M02*
