M48
;Layer_Color=9474304
;FILE_FORMAT=2:5
INCH,LZ
;TYPE=PLATED
T1F00S00C0.01181
T2F00S00C0.02756
T3F00S00C0.03150
T4F00S00C0.03543
T5F00S00C0.04331
T6F00S00C0.06299
T7F00S00C0.13386
%
T01
X031998Y0207283
X0338287Y020689
X0344783Y0215748
X0345079Y0225886
X0343996Y0235138
X0332579Y0230118
X0319783
X0332283Y0217421
X0332382Y0243307
X0348425Y0251575
X035876Y0247835
X0368976Y0259134
X0368899Y0265069
X0369292Y0269685
X0364469Y0272539
X0366142Y0288878
X0358858Y0290551
X035484Y0290959
X0357104Y0294404
X0352559Y0297933
X0352576Y0301885
X035315Y0306102
X0351789Y0310054
X0367638Y0308795
Y0304071
X0372362
Y0308795
X0395374Y0308465
X0384842Y0294783
X0381416Y0292042
X0392913Y0276378
X0397835Y0277953
X0388878Y0264469
X0388583Y0251673
X0378839Y0245472
X0397539Y0243307
X0394193Y0234646
X0399016Y0228346
X0408661Y0229134
X0408268Y0240748
X040315Y0216339
X039065Y0219094
X0394882Y0207283
X0409449Y0202067
X0374803Y0208071
X0365748Y0218012
X0361221Y0227264
X0367224Y0233957
X030374Y0229528
X0290354Y0228839
X0295768Y021811
X0312303Y0218012
X030374Y0207382
X0357972Y0318898
X0356299Y0322933
X0360352Y032226
X0355135Y0326886
X0354742Y0330823
X0361713Y0334646
X0366043Y034685
X038002Y0349902
X0387697Y0360728
X0396949Y0361811
X0390354Y0369783
X0365748Y0370079
X0360476
X0354233Y0369587
X035384Y0381299
X0355906Y0385827
X0365453Y0382185
X0370276Y0388484
X0372342Y0399311
X0372244Y0414764
X0373623Y0422342
X0362993Y0420768
X0357962Y0418307
X0369685Y0436909
X038819Y0443012
X0397737Y0438386
X0405021Y0428051
X039124Y0423819
X0404823Y0401083
X0404429Y0394783
X0404331Y0389173
X0408171Y0380217
X0408071Y035187
X0402658Y0340256
X0400591Y0336713
X039941Y0328642
X040315Y0326476
X0407106Y032728
X0400395Y0323435
X0402362Y0318799
X0397835Y0319291
X0390946Y0326585
X0386714Y0315551
X0376279Y0323721
X0396949Y0345472
X0409941Y0335827
X0393504Y0467421
X0370276Y0462697
X036506Y0461811
X0359744Y0465748
X0375984Y0456791
X038691Y048376
X0392913Y0491831
X039685Y0478839
X0396555Y050748
X039685Y0512894
X039065
X0390158Y050748
X0379724Y0514075
X0370965Y0510532
X0369094Y0522539
X0357972Y0524705
X0357776Y0533661
X0374114Y0536713
X0386811Y0535039
X0396949Y0530413
X039439Y0527067
X039685Y0519685
X0398524Y0544882
X0404921Y0546555
X0394882Y0563287
X0397721Y0566535
X0400394Y0574114
X0402067Y0578248
X040571Y0581693
X0408858Y0575
X0389173Y0586319
X0379528Y0578937
X0379035Y0565748
X0382972Y0563976
X0381201Y0559842
X0376079Y0559575
X0362404Y0570867
X0351772Y056998
X0345669Y0564075
X034941Y055689
X0352658Y055374
X0341142Y0572244
X034311Y0577067
X033002Y0582382
X0350689Y0608465
X0351772Y0624311
X037687
X0372933Y0608661
X0375886Y0594783
X0400197Y060876
X031309Y06125
X0310433Y0616437
X031191Y0623425
X0303051Y0618209
X0296358Y0595079
Y0590354
X029498Y0579921
X0296555Y0567126
X0304232Y0573327
X0311024Y0564764
X0306594Y0626083
T02
X0373858Y0552658
X0383858
T03
X0367413Y0394913
Y0409087
X0381685Y0409185
T04
X0313602Y0245472
X0323602
X0303602
X0293602
X0373Y0335
Y0345
Y0355
Y0365
Y0375
X0383
Y0365
Y0355
Y0345
Y0335
X0362205Y0480905
Y0490906
Y0500906
Y0510906
T05
X0326279Y0563031
Y0573032
X0326772Y0613622
Y0623622
T06
X0340551Y0600787
Y0617815
X0360661Y061785
X036063Y0600823
X0389138
X0389169Y061785
T07
X038Y02285
Y0525
M30
