%FSLAX25Y25*%
%MOIN*%
G70*
G01*
G75*
G04 Layer_Physical_Order=3*
G04 Layer_Color=16440176*
%ADD10O,0.00984X0.02559*%
%ADD11O,0.02559X0.00984*%
%ADD12R,0.17716X0.17716*%
%ADD13R,0.02953X0.03543*%
%ADD14R,0.05315X0.03740*%
%ADD15R,0.01575X0.01575*%
%ADD16R,0.00039X0.11811*%
%ADD17R,0.02559X0.06102*%
%ADD18R,0.03543X0.03937*%
%ADD19R,0.03937X0.01378*%
%ADD20R,0.02953X0.09449*%
%ADD21R,0.01969X0.02362*%
%ADD22R,0.02362X0.01969*%
%ADD23C,0.03937*%
%ADD24C,0.00787*%
%ADD25C,0.02000*%
%ADD26C,0.01969*%
%ADD27C,0.01181*%
%ADD28C,0.01000*%
%ADD29C,0.03937*%
%ADD30R,0.02913X0.03937*%
%ADD31R,0.03150X0.04724*%
%ADD32R,0.05079X0.19193*%
%ADD33R,0.03937X0.36142*%
%ADD34R,0.04764X1.00709*%
%ADD35R,0.15590X0.08583*%
%ADD36R,0.04764X0.12598*%
%ADD37R,0.05079X0.12598*%
%ADD38R,0.07992X0.01811*%
G04:AMPARAMS|DCode=39|XSize=18.11mil|YSize=66.44mil|CornerRadius=0mil|HoleSize=0mil|Usage=FLASHONLY|Rotation=124.500|XOffset=0mil|YOffset=0mil|HoleType=Round|Shape=Rectangle|*
%AMROTATEDRECTD39*
4,1,4,0.03251,0.01135,-0.02225,-0.02628,-0.03251,-0.01135,0.02225,0.02628,0.03251,0.01135,0.0*
%
%ADD39ROTATEDRECTD39*%

%ADD40R,0.03500X0.06000*%
%ADD41R,0.04000X0.03870*%
%ADD42R,0.04000X0.03709*%
%ADD43C,0.05906*%
%ADD44R,0.05906X0.05906*%
%ADD45C,0.11811*%
%ADD46C,0.02598*%
%ADD47C,0.03150*%
G36*
X399756Y329191D02*
X400178Y329275D01*
X400364Y329400D01*
X400806Y329164D01*
Y317551D01*
X400344Y317359D01*
X397704Y319999D01*
Y329166D01*
X398145Y329401D01*
X398334Y329275D01*
X398756Y329191D01*
Y331500D01*
X399756D01*
Y329191D01*
D02*
G37*
G36*
X364297Y381297D02*
X364796Y380964D01*
Y380000D01*
X364796Y380000D01*
X364887Y379539D01*
X365148Y379149D01*
X366148Y378149D01*
X366148Y378149D01*
X366383Y377992D01*
X366539Y377887D01*
X367000Y377796D01*
X370501D01*
X389796Y358501D01*
Y346000D01*
X389796Y346000D01*
X389887Y345539D01*
X390148Y345148D01*
X393296Y342001D01*
Y318000D01*
X393296Y318000D01*
X393387Y317539D01*
X393649Y317148D01*
X401796Y309001D01*
Y302036D01*
X401297Y301703D01*
X400775Y300922D01*
X400592Y300000D01*
X400775Y299078D01*
X401297Y298297D01*
X402078Y297775D01*
X403000Y297591D01*
X403922Y297775D01*
X404703Y298297D01*
X405225Y299078D01*
X405408Y300000D01*
X405225Y300922D01*
X404703Y301703D01*
X404204Y302036D01*
Y309106D01*
X404591Y309423D01*
X404945Y309352D01*
X407296Y307001D01*
Y302036D01*
X406797Y301703D01*
X406275Y300922D01*
X406091Y300000D01*
X406275Y299078D01*
X406797Y298297D01*
X407578Y297775D01*
X408500Y297591D01*
X409422Y297775D01*
X410203Y298297D01*
X410725Y299078D01*
X410909Y300000D01*
X410725Y300922D01*
X410203Y301703D01*
X409704Y302036D01*
Y307500D01*
X409613Y307961D01*
X409351Y308351D01*
X409351Y308351D01*
X405978Y311725D01*
X406169Y312187D01*
X416956D01*
X430656Y298488D01*
Y291932D01*
X430266Y291672D01*
X429806Y290984D01*
X429766Y291000D01*
X427500D01*
Y289191D01*
X427922Y289275D01*
X428703Y289797D01*
X429163Y290485D01*
X429625Y290294D01*
X429560Y289968D01*
X429743Y289047D01*
X430266Y288265D01*
X431047Y287743D01*
X431968Y287560D01*
X432890Y287743D01*
X433672Y288265D01*
X434194Y289047D01*
X434377Y289968D01*
X434194Y290890D01*
X433672Y291672D01*
X433281Y291932D01*
Y298440D01*
X433668Y298757D01*
X434000Y298691D01*
Y301000D01*
Y303309D01*
X433578Y303225D01*
X432797Y302703D01*
X432275Y301922D01*
X432156Y301324D01*
X431677Y301179D01*
X422179Y310678D01*
X422324Y311156D01*
X422922Y311275D01*
X423703Y311797D01*
X424225Y312578D01*
X424408Y313500D01*
X424225Y314422D01*
X423703Y315203D01*
X422922Y315725D01*
X422000Y315909D01*
X421412Y315791D01*
X420665Y316538D01*
X420856Y317000D01*
X483500D01*
Y297000D01*
X505000D01*
Y244000D01*
X500860D01*
X500700Y244474D01*
X501167Y244832D01*
X501767Y245614D01*
X502144Y246524D01*
X502272Y247500D01*
X502144Y248476D01*
X501767Y249386D01*
X501167Y250167D01*
X500386Y250767D01*
X499476Y251144D01*
X498500Y251272D01*
X497524Y251144D01*
X496614Y250767D01*
X495832Y250167D01*
X495233Y249386D01*
X494856Y248476D01*
X494728Y247500D01*
X494856Y246524D01*
X495233Y245614D01*
X495832Y244832D01*
X496300Y244474D01*
X496140Y244000D01*
X490860D01*
X490700Y244474D01*
X491167Y244832D01*
X491767Y245614D01*
X492144Y246524D01*
X492272Y247500D01*
X492144Y248476D01*
X491767Y249386D01*
X491167Y250167D01*
X490386Y250767D01*
X489476Y251144D01*
X488683Y251248D01*
X481965Y257965D01*
X481390Y258407D01*
X480719Y258685D01*
X480000Y258780D01*
X472000D01*
X471281Y258685D01*
X470610Y258407D01*
X470035Y257965D01*
X464000Y251931D01*
X457966Y257965D01*
X457390Y258407D01*
X456719Y258685D01*
X456000Y258780D01*
X427000D01*
X426281Y258685D01*
X425610Y258407D01*
X425035Y257965D01*
X418317Y251248D01*
X417524Y251144D01*
X416614Y250767D01*
X415833Y250167D01*
X415233Y249386D01*
X414856Y248476D01*
X414728Y247500D01*
X414856Y246524D01*
X415233Y245614D01*
X415833Y244832D01*
X416300Y244474D01*
X416140Y244000D01*
X396740D01*
Y250740D01*
X389260D01*
Y244000D01*
X385978D01*
X385756Y244448D01*
X386267Y245114D01*
X386644Y246024D01*
X386772Y247000D01*
X386644Y247976D01*
X386267Y248886D01*
X385667Y249668D01*
X384886Y250267D01*
X383976Y250644D01*
X383000Y250772D01*
X382024Y250644D01*
X381114Y250267D01*
X380332Y249668D01*
X379733Y248886D01*
X379356Y247976D01*
X379228Y247000D01*
X379356Y246024D01*
X379733Y245114D01*
X380243Y244448D01*
X380022Y244000D01*
X375978D01*
X375757Y244448D01*
X376267Y245114D01*
X376644Y246024D01*
X376772Y247000D01*
X376644Y247976D01*
X376267Y248886D01*
X375668Y249668D01*
X374886Y250267D01*
X373976Y250644D01*
X373000Y250772D01*
X372024Y250644D01*
X371114Y250267D01*
X370333Y249668D01*
X369733Y248886D01*
X369356Y247976D01*
X369228Y247000D01*
X369356Y246024D01*
X369733Y245114D01*
X370244Y244448D01*
X370022Y244000D01*
X365978D01*
X365757Y244448D01*
X366267Y245114D01*
X366644Y246024D01*
X366772Y247000D01*
X366644Y247976D01*
X366267Y248886D01*
X365668Y249668D01*
X364886Y250267D01*
X363976Y250644D01*
X363000Y250772D01*
X362024Y250644D01*
X361114Y250267D01*
X360332Y249668D01*
X359733Y248886D01*
X359356Y247976D01*
X359228Y247000D01*
X359356Y246024D01*
X359733Y245114D01*
X360244Y244448D01*
X360022Y244000D01*
X355978D01*
X355756Y244448D01*
X356267Y245114D01*
X356644Y246024D01*
X356772Y247000D01*
X356644Y247976D01*
X356267Y248886D01*
X355667Y249668D01*
X354886Y250267D01*
X353976Y250644D01*
X353000Y250772D01*
X352024Y250644D01*
X351114Y250267D01*
X350332Y249668D01*
X349733Y248886D01*
X349356Y247976D01*
X349340Y247857D01*
X348841Y247841D01*
X348725Y248422D01*
X348203Y249203D01*
X347422Y249725D01*
X347000Y249809D01*
Y247500D01*
Y245191D01*
X347422Y245275D01*
X348203Y245797D01*
X348725Y246578D01*
X348762Y246761D01*
X349261Y246745D01*
X349356Y246024D01*
X349733Y245114D01*
X350243Y244448D01*
X350022Y244000D01*
X342500D01*
Y285965D01*
X342941Y286201D01*
X343578Y285775D01*
X344000Y285691D01*
Y288000D01*
Y290309D01*
X343578Y290225D01*
X342941Y289799D01*
X342500Y290035D01*
Y331360D01*
X342962Y331551D01*
X350233Y324280D01*
Y321500D01*
X350233Y321500D01*
X350233D01*
X350340Y320962D01*
X350644Y320507D01*
X358097Y313054D01*
X358553Y312749D01*
X359091Y312642D01*
X362223D01*
X362761Y312749D01*
X363216Y313054D01*
X364946Y314784D01*
X365251Y315239D01*
X365298Y315478D01*
X365796Y315429D01*
Y293000D01*
X365796Y293000D01*
X365887Y292539D01*
X366148Y292148D01*
X368649Y289649D01*
X368649Y289649D01*
X368883Y289492D01*
X369039Y289387D01*
X369500Y289296D01*
X373464D01*
X373797Y288797D01*
X374578Y288275D01*
X375500Y288091D01*
X376422Y288275D01*
X377203Y288797D01*
X377725Y289578D01*
X377908Y290500D01*
X377725Y291422D01*
X377203Y292203D01*
X376422Y292725D01*
X375500Y292909D01*
X374578Y292725D01*
X373797Y292203D01*
X373464Y291704D01*
X369999D01*
X368204Y293499D01*
Y299896D01*
X368702Y299945D01*
X368775Y299578D01*
X369297Y298797D01*
X370078Y298275D01*
X371000Y298092D01*
X371922Y298275D01*
X372703Y298797D01*
X373225Y299578D01*
X373409Y300500D01*
X373225Y301422D01*
X372703Y302203D01*
X371922Y302725D01*
X371000Y302908D01*
X370591Y302827D01*
X370204Y303144D01*
Y322896D01*
X370702Y322945D01*
X370775Y322578D01*
X371297Y321797D01*
X372078Y321275D01*
X372500Y321191D01*
Y323500D01*
Y325809D01*
X372078Y325725D01*
X371297Y325203D01*
X370775Y324422D01*
X370648Y323783D01*
X370148Y323783D01*
X370113Y323961D01*
X369851Y324352D01*
X369851Y324352D01*
X364279Y329924D01*
Y331779D01*
X364720Y332014D01*
X365078Y331775D01*
X365500Y331691D01*
Y334000D01*
Y336309D01*
X365078Y336225D01*
X364720Y335986D01*
X364279Y336221D01*
Y356925D01*
X364187Y357386D01*
X364083Y357542D01*
X363926Y357777D01*
X363926Y357777D01*
X360852Y360852D01*
X360461Y361113D01*
X360000Y361204D01*
X360000Y361204D01*
X356288D01*
X351875Y365617D01*
X352020Y366096D01*
X352922Y366275D01*
X353703Y366797D01*
X354225Y367578D01*
X354409Y368500D01*
X354225Y369422D01*
X353703Y370203D01*
X353377Y370421D01*
X353279Y370911D01*
X353725Y371578D01*
X353908Y372500D01*
X353725Y373422D01*
X353203Y374203D01*
X352564Y374630D01*
X352466Y375121D01*
X352730Y375515D01*
X352913Y376437D01*
X352841Y376799D01*
X353195Y377152D01*
X353500Y377092D01*
X354422Y377275D01*
X354678Y377446D01*
X355140Y377255D01*
X355275Y376578D01*
X355797Y375797D01*
X356578Y375275D01*
X357500Y375092D01*
X358422Y375275D01*
X359203Y375797D01*
X359725Y376578D01*
X359909Y377500D01*
X359725Y378422D01*
X359279Y379089D01*
X359377Y379579D01*
X359703Y379797D01*
X360225Y380578D01*
X360272Y380814D01*
X360734Y381005D01*
X361078Y380775D01*
X362000Y380592D01*
X362922Y380775D01*
X363703Y381297D01*
X363750Y381367D01*
X364250D01*
X364297Y381297D01*
D02*
G37*
G36*
X352194Y355752D02*
Y334240D01*
X351753Y334004D01*
X351422Y334225D01*
X351000Y334309D01*
Y332000D01*
X350500D01*
Y331500D01*
X348191D01*
X348275Y331078D01*
X348602Y330588D01*
X348216Y330271D01*
X344452Y334035D01*
Y348163D01*
X344893Y348399D01*
X345078Y348275D01*
X345500Y348191D01*
Y350500D01*
X346000D01*
Y351000D01*
X348309D01*
X348225Y351422D01*
X347703Y352203D01*
X347259Y352500D01*
Y353000D01*
X347703Y353297D01*
X348225Y354078D01*
X348409Y355000D01*
X348225Y355922D01*
X347703Y356703D01*
X347633Y356750D01*
Y357250D01*
X347703Y357297D01*
X348225Y358078D01*
X348394Y358928D01*
X348873Y359073D01*
X352194Y355752D01*
D02*
G37*
G36*
X360296Y351323D02*
Y327500D01*
X360296Y327500D01*
X360387Y327039D01*
X360648Y326648D01*
X364000Y323297D01*
X363764Y322856D01*
X363500Y322908D01*
X362578Y322725D01*
X361797Y322203D01*
X361275Y321422D01*
X361091Y320500D01*
X361181Y320050D01*
X360740Y319815D01*
X355806Y324748D01*
Y351170D01*
X356285Y351315D01*
X356297Y351297D01*
X357078Y350775D01*
X358000Y350591D01*
X358922Y350775D01*
X359703Y351297D01*
X359817Y351468D01*
X360296Y351323D01*
D02*
G37*
G36*
X484752Y247317D02*
X484856Y246524D01*
X485233Y245614D01*
X485833Y244832D01*
X486300Y244474D01*
X486140Y244000D01*
X482372D01*
X482226Y244479D01*
X482703Y244797D01*
X483225Y245578D01*
X483309Y246000D01*
X481000D01*
Y246500D01*
X480500D01*
Y248809D01*
X480078Y248725D01*
X479297Y248203D01*
X478775Y247422D01*
X478749Y247292D01*
X478256Y247374D01*
X478272Y247500D01*
X478144Y248476D01*
X477767Y249386D01*
X477168Y250167D01*
X476386Y250767D01*
X475476Y251144D01*
X474500Y251272D01*
X473524Y251144D01*
X472614Y250767D01*
X471833Y250167D01*
X471233Y249386D01*
X470856Y248476D01*
X470728Y247500D01*
X470856Y246524D01*
X471233Y245614D01*
X471833Y244832D01*
X472300Y244474D01*
X472140Y244000D01*
X466860D01*
X466700Y244474D01*
X467168Y244832D01*
X467767Y245614D01*
X468144Y246524D01*
X468272Y247500D01*
X468175Y248243D01*
X473151Y253220D01*
X478849D01*
X484752Y247317D01*
D02*
G37*
G36*
X404500Y401356D02*
X404038Y401165D01*
X388851Y416352D01*
X388597Y416522D01*
X388742Y417000D01*
X404500D01*
Y401356D01*
D02*
G37*
G36*
X356714Y416613D02*
X356592Y416000D01*
X356775Y415078D01*
X356901Y414889D01*
X356665Y414448D01*
X347819D01*
X347725Y414922D01*
X347203Y415703D01*
X346422Y416225D01*
X345500Y416408D01*
X344578Y416225D01*
X343797Y415703D01*
X343275Y414922D01*
X343092Y414000D01*
X343275Y413078D01*
X343797Y412297D01*
X344578Y411775D01*
X345500Y411591D01*
X346422Y411775D01*
X346818Y412040D01*
X368244D01*
X368244Y412040D01*
X368705Y412132D01*
X369096Y412393D01*
X370917Y414214D01*
X371411Y414141D01*
X371564Y413855D01*
X371275Y413422D01*
X371092Y412500D01*
X371275Y411578D01*
X371797Y410797D01*
X372578Y410275D01*
X373500Y410091D01*
X374422Y410275D01*
X375203Y410797D01*
X375725Y411578D01*
X375908Y412500D01*
X375725Y413422D01*
X375436Y413855D01*
X375672Y414296D01*
X387501D01*
X388539Y413259D01*
X388241Y412857D01*
X387574Y413213D01*
X386312Y413596D01*
X385000Y413725D01*
X383688Y413596D01*
X382426Y413213D01*
X381264Y412592D01*
X380244Y411756D01*
X379408Y410736D01*
X378787Y409574D01*
X378404Y408312D01*
X378275Y407000D01*
X378404Y405688D01*
X378787Y404426D01*
X379408Y403264D01*
X380244Y402245D01*
X381264Y401408D01*
X382426Y400787D01*
X383688Y400404D01*
X385000Y400275D01*
X386312Y400404D01*
X387574Y400787D01*
X388709Y401394D01*
X389110Y401096D01*
X389091Y401000D01*
X389275Y400078D01*
X389797Y399297D01*
X390578Y398775D01*
X391000Y398691D01*
Y401000D01*
Y403532D01*
X390846Y403739D01*
X391213Y404426D01*
X391596Y405688D01*
X391725Y407000D01*
X391596Y408312D01*
X391213Y409574D01*
X390857Y410241D01*
X391259Y410538D01*
X402296Y399501D01*
Y393104D01*
X401798Y393055D01*
X401725Y393422D01*
X401203Y394203D01*
X400422Y394725D01*
X399500Y394908D01*
X398578Y394725D01*
X397797Y394203D01*
X397275Y393422D01*
X397092Y392500D01*
X397275Y391578D01*
X397797Y390797D01*
X398578Y390275D01*
X399500Y390091D01*
X400422Y390275D01*
X401203Y390797D01*
X401725Y391578D01*
X401798Y391945D01*
X402296Y391896D01*
Y390499D01*
X398393Y386596D01*
X398131Y386205D01*
X398040Y385744D01*
X398040Y385744D01*
Y381256D01*
X398040Y381256D01*
X398131Y380795D01*
X398393Y380404D01*
X403552Y375245D01*
Y367834D01*
X403111Y367599D01*
X402922Y367725D01*
X402500Y367809D01*
Y365500D01*
Y363191D01*
X402922Y363275D01*
X403111Y363401D01*
X403552Y363165D01*
Y350834D01*
X403111Y350599D01*
X402922Y350725D01*
X402000Y350908D01*
X401078Y350725D01*
X400297Y350203D01*
X399775Y349422D01*
X399591Y348500D01*
X399775Y347578D01*
X400297Y346797D01*
X401078Y346275D01*
X402000Y346092D01*
X402922Y346275D01*
X403111Y346401D01*
X403552Y346165D01*
Y342415D01*
X403073Y342270D01*
X403046Y342310D01*
X396313Y349044D01*
Y361000D01*
X396213Y361502D01*
X395928Y361928D01*
X390067Y367789D01*
X390303Y368230D01*
X391000Y368092D01*
X391922Y368275D01*
X392703Y368797D01*
X393225Y369578D01*
X393408Y370500D01*
X393225Y371422D01*
X392703Y372203D01*
X391922Y372725D01*
X391000Y372908D01*
X390078Y372725D01*
X389297Y372203D01*
X388775Y371422D01*
X388592Y370500D01*
X388730Y369803D01*
X388289Y369567D01*
X376096Y381761D01*
X376145Y382258D01*
X376203Y382297D01*
X376725Y383078D01*
X376908Y384000D01*
X376725Y384922D01*
X376203Y385703D01*
X375422Y386225D01*
X374500Y386408D01*
X373578Y386225D01*
X372797Y385703D01*
X372275Y384922D01*
X372198Y384534D01*
X371703Y384203D01*
X370922Y384725D01*
X370000Y384909D01*
X369078Y384725D01*
X368411Y384279D01*
X367921Y384377D01*
X367703Y384703D01*
X366922Y385225D01*
X366000Y385408D01*
X365078Y385225D01*
X364297Y384703D01*
X364250Y384633D01*
X363750D01*
X363703Y384703D01*
X362922Y385225D01*
X362000Y385408D01*
X361078Y385225D01*
X360297Y384703D01*
X359775Y383922D01*
X359728Y383686D01*
X359266Y383495D01*
X358922Y383725D01*
X358000Y383909D01*
X357078Y383725D01*
X356297Y383203D01*
X355775Y382422D01*
X355592Y381500D01*
X355592Y381499D01*
X355176Y381221D01*
X354422Y381725D01*
X353500Y381908D01*
X352578Y381725D01*
X351797Y381203D01*
X351291Y380446D01*
X350800Y380543D01*
X350725Y380922D01*
X350203Y381703D01*
X349422Y382225D01*
X348500Y382408D01*
X348308Y382370D01*
X348030Y382786D01*
X348225Y383078D01*
X348409Y384000D01*
X348225Y384922D01*
X347703Y385703D01*
X346922Y386225D01*
X346000Y386408D01*
X345078Y386225D01*
X344645Y385936D01*
X344204Y386172D01*
Y396501D01*
X347999Y400296D01*
X356828D01*
X357064Y399855D01*
X356775Y399422D01*
X356592Y398500D01*
X356775Y397578D01*
X357297Y396797D01*
X358078Y396275D01*
X359000Y396092D01*
X359922Y396275D01*
X360703Y396797D01*
X361225Y397578D01*
X361250Y397703D01*
X361750D01*
X361775Y397578D01*
X362297Y396797D01*
X363078Y396275D01*
X364000Y396092D01*
X364922Y396275D01*
X365703Y396797D01*
X366225Y397578D01*
X366408Y398500D01*
X366225Y399422D01*
X365703Y400203D01*
X364922Y400725D01*
X364000Y400909D01*
X363412Y400791D01*
X361852Y402352D01*
X361461Y402613D01*
X361000Y402704D01*
X361000Y402704D01*
X347500D01*
X347039Y402613D01*
X346649Y402352D01*
X342962Y398665D01*
X342500Y398856D01*
Y417000D01*
X356396D01*
X356714Y416613D01*
D02*
G37*
G36*
X460752Y247317D02*
X460856Y246524D01*
X461233Y245614D01*
X461833Y244832D01*
X462300Y244474D01*
X462140Y244000D01*
X430860D01*
X430700Y244474D01*
X431168Y244832D01*
X431767Y245614D01*
X432144Y246524D01*
X432272Y247500D01*
X432144Y248476D01*
X431767Y249386D01*
X431168Y250167D01*
X430386Y250767D01*
X429476Y251144D01*
X428500Y251272D01*
X427524Y251144D01*
X426614Y250767D01*
X425833Y250167D01*
X425233Y249386D01*
X424856Y248476D01*
X424728Y247500D01*
X424856Y246524D01*
X425233Y245614D01*
X425833Y244832D01*
X426300Y244474D01*
X426140Y244000D01*
X420860D01*
X420700Y244474D01*
X421168Y244832D01*
X421767Y245614D01*
X422144Y246524D01*
X422248Y247317D01*
X428151Y253220D01*
X454849D01*
X460752Y247317D01*
D02*
G37*
%LPC*%
G36*
X500000Y277500D02*
X498191D01*
X498275Y277078D01*
X498797Y276297D01*
X499578Y275775D01*
X500000Y275691D01*
Y277500D01*
D02*
G37*
G36*
X457500D02*
X455691D01*
X455775Y277078D01*
X456297Y276297D01*
X457078Y275775D01*
X457500Y275691D01*
Y277500D01*
D02*
G37*
G36*
X460309D02*
X458500D01*
Y275691D01*
X458922Y275775D01*
X459703Y276297D01*
X460225Y277078D01*
X460309Y277500D01*
D02*
G37*
G36*
X407500Y279309D02*
X407078Y279225D01*
X406297Y278703D01*
X405775Y277922D01*
X405691Y277500D01*
X407500D01*
Y279309D01*
D02*
G37*
G36*
X408500D02*
Y277500D01*
X410309D01*
X410225Y277922D01*
X409703Y278703D01*
X408922Y279225D01*
X408500Y279309D01*
D02*
G37*
G36*
X452000Y278309D02*
Y276500D01*
X453809D01*
X453725Y276922D01*
X453203Y277703D01*
X452422Y278225D01*
X452000Y278309D01*
D02*
G37*
G36*
X502809Y277500D02*
X501000D01*
Y275691D01*
X501422Y275775D01*
X502203Y276297D01*
X502725Y277078D01*
X502809Y277500D01*
D02*
G37*
G36*
X451000Y278309D02*
X450578Y278225D01*
X449797Y277703D01*
X449275Y276922D01*
X449191Y276500D01*
X451000D01*
Y278309D01*
D02*
G37*
G36*
X482638Y275528D02*
X482324Y275465D01*
X481633Y275004D01*
X481172Y274314D01*
X481110Y274000D01*
X482638D01*
Y275528D01*
D02*
G37*
G36*
X483638D02*
Y274000D01*
X485166D01*
X485103Y274314D01*
X484642Y275004D01*
X483952Y275465D01*
X483638Y275528D01*
D02*
G37*
G36*
X453809Y275500D02*
X452000D01*
Y273691D01*
X452422Y273775D01*
X453203Y274297D01*
X453725Y275078D01*
X453809Y275500D01*
D02*
G37*
G36*
X430500Y277409D02*
X429578Y277225D01*
X428797Y276703D01*
X428275Y275922D01*
X428091Y275000D01*
X428275Y274078D01*
X428797Y273297D01*
X429578Y272775D01*
X430500Y272591D01*
X431422Y272775D01*
X432203Y273297D01*
X432725Y274078D01*
X432908Y275000D01*
X432725Y275922D01*
X432203Y276703D01*
X431422Y277225D01*
X430500Y277409D01*
D02*
G37*
G36*
X451000Y275500D02*
X449191D01*
X449275Y275078D01*
X449797Y274297D01*
X450578Y273775D01*
X451000Y273691D01*
Y275500D01*
D02*
G37*
G36*
X487362Y275528D02*
X487048Y275465D01*
X486358Y275004D01*
X485897Y274314D01*
X485834Y274000D01*
X487362D01*
Y275528D01*
D02*
G37*
G36*
X392000Y277000D02*
X390191D01*
X390275Y276578D01*
X390797Y275797D01*
X391578Y275275D01*
X392000Y275191D01*
Y277000D01*
D02*
G37*
G36*
X394809D02*
X393000D01*
Y275191D01*
X393422Y275275D01*
X394203Y275797D01*
X394725Y276578D01*
X394809Y277000D01*
D02*
G37*
G36*
X410309Y276500D02*
X408500D01*
Y274691D01*
X408922Y274775D01*
X409703Y275297D01*
X410225Y276078D01*
X410309Y276500D01*
D02*
G37*
G36*
X488362Y275528D02*
Y274000D01*
X489890D01*
X489828Y274314D01*
X489367Y275004D01*
X488676Y275465D01*
X488362Y275528D01*
D02*
G37*
G36*
X407500Y276500D02*
X405691D01*
X405775Y276078D01*
X406297Y275297D01*
X407078Y274775D01*
X407500Y274691D01*
Y276500D01*
D02*
G37*
G36*
X392000Y279809D02*
X391578Y279725D01*
X390797Y279203D01*
X390275Y278422D01*
X390191Y278000D01*
X392000D01*
Y279809D01*
D02*
G37*
G36*
X470000Y285809D02*
Y284000D01*
X471809D01*
X471725Y284422D01*
X471203Y285203D01*
X470422Y285725D01*
X470000Y285809D01*
D02*
G37*
G36*
X387000Y286309D02*
X386578Y286225D01*
X385797Y285703D01*
X385275Y284922D01*
X385191Y284500D01*
X387000D01*
Y286309D01*
D02*
G37*
G36*
X469000Y285809D02*
X468578Y285725D01*
X467797Y285203D01*
X467275Y284422D01*
X467191Y284000D01*
X469000D01*
Y285809D01*
D02*
G37*
G36*
X415500Y284309D02*
X415078Y284225D01*
X414297Y283703D01*
X413775Y282922D01*
X413691Y282500D01*
X415500D01*
Y284309D01*
D02*
G37*
G36*
X416500D02*
Y282500D01*
X418309D01*
X418225Y282922D01*
X417703Y283703D01*
X416922Y284225D01*
X416500Y284309D01*
D02*
G37*
G36*
X396000Y290000D02*
X394191D01*
X394275Y289578D01*
X394797Y288797D01*
X395578Y288275D01*
X396000Y288191D01*
Y290000D01*
D02*
G37*
G36*
X398809D02*
X397000D01*
Y288191D01*
X397422Y288275D01*
X398203Y288797D01*
X398725Y289578D01*
X398809Y290000D01*
D02*
G37*
G36*
X491000Y291408D02*
X490078Y291225D01*
X489297Y290703D01*
X488775Y289922D01*
X488591Y289000D01*
X488734Y288283D01*
X488272Y288092D01*
X488187Y288219D01*
X487406Y288741D01*
X486484Y288924D01*
X485563Y288741D01*
X484781Y288219D01*
X484259Y287437D01*
X484076Y286516D01*
X484259Y285594D01*
X484781Y284813D01*
X485563Y284291D01*
X486484Y284107D01*
X487406Y284291D01*
X488187Y284813D01*
X488709Y285594D01*
X488893Y286516D01*
X488750Y287233D01*
X489212Y287424D01*
X489297Y287297D01*
X490078Y286775D01*
X491000Y286592D01*
X491922Y286775D01*
X492703Y287297D01*
X493225Y288078D01*
X493408Y289000D01*
X493225Y289922D01*
X492703Y290703D01*
X491922Y291225D01*
X491000Y291408D01*
D02*
G37*
G36*
X388000Y286309D02*
Y284500D01*
X389809D01*
X389725Y284922D01*
X389203Y285703D01*
X388422Y286225D01*
X388000Y286309D01*
D02*
G37*
G36*
X346809Y287500D02*
X345000D01*
Y285691D01*
X345422Y285775D01*
X346203Y286297D01*
X346725Y287078D01*
X346809Y287500D01*
D02*
G37*
G36*
X389809Y283500D02*
X388000D01*
Y281691D01*
X388422Y281775D01*
X389203Y282297D01*
X389725Y283078D01*
X389809Y283500D01*
D02*
G37*
G36*
X500000Y280309D02*
X499578Y280225D01*
X498797Y279703D01*
X498275Y278922D01*
X498191Y278500D01*
X500000D01*
Y280309D01*
D02*
G37*
G36*
X501000D02*
Y278500D01*
X502809D01*
X502725Y278922D01*
X502203Y279703D01*
X501422Y280225D01*
X501000Y280309D01*
D02*
G37*
G36*
X458500D02*
Y278500D01*
X460309D01*
X460225Y278922D01*
X459703Y279703D01*
X458922Y280225D01*
X458500Y280309D01*
D02*
G37*
G36*
X393000Y279809D02*
Y278000D01*
X394809D01*
X394725Y278422D01*
X394203Y279203D01*
X393422Y279725D01*
X393000Y279809D01*
D02*
G37*
G36*
X457500Y280309D02*
X457078Y280225D01*
X456297Y279703D01*
X455775Y278922D01*
X455691Y278500D01*
X457500D01*
Y280309D01*
D02*
G37*
G36*
X471809Y283000D02*
X470000D01*
Y281191D01*
X470422Y281275D01*
X471203Y281797D01*
X471725Y282578D01*
X471809Y283000D01*
D02*
G37*
G36*
X387000Y283500D02*
X385191D01*
X385275Y283078D01*
X385797Y282297D01*
X386578Y281775D01*
X387000Y281691D01*
Y283500D01*
D02*
G37*
G36*
X469000Y283000D02*
X467191D01*
X467275Y282578D01*
X467797Y281797D01*
X468578Y281275D01*
X469000Y281191D01*
Y283000D01*
D02*
G37*
G36*
X415500Y281500D02*
X413691D01*
X413775Y281078D01*
X414297Y280297D01*
X415078Y279775D01*
X415500Y279691D01*
Y281500D01*
D02*
G37*
G36*
X418309D02*
X416500D01*
Y279691D01*
X416922Y279775D01*
X417703Y280297D01*
X418225Y281078D01*
X418309Y281500D01*
D02*
G37*
G36*
X489890Y273000D02*
X488362D01*
Y271472D01*
X488676Y271534D01*
X489367Y271996D01*
X489828Y272686D01*
X489890Y273000D01*
D02*
G37*
G36*
X403500Y266408D02*
X402578Y266225D01*
X401797Y265703D01*
X401275Y264922D01*
X401091Y264000D01*
X401275Y263078D01*
X401797Y262297D01*
X402578Y261775D01*
X403500Y261592D01*
X404422Y261775D01*
X405203Y262297D01*
X405725Y263078D01*
X405908Y264000D01*
X405725Y264922D01*
X405203Y265703D01*
X404422Y266225D01*
X403500Y266408D01*
D02*
G37*
G36*
X468000Y263500D02*
X466191D01*
X466275Y263078D01*
X466797Y262297D01*
X467578Y261775D01*
X468000Y261691D01*
Y263500D01*
D02*
G37*
G36*
X426309Y262500D02*
X424500D01*
Y260691D01*
X424922Y260775D01*
X425703Y261297D01*
X426225Y262078D01*
X426309Y262500D01*
D02*
G37*
G36*
X501000Y259309D02*
Y257500D01*
X502809D01*
X502725Y257922D01*
X502203Y258703D01*
X501422Y259225D01*
X501000Y259309D01*
D02*
G37*
G36*
X423500Y262500D02*
X421691D01*
X421775Y262078D01*
X422297Y261297D01*
X423078Y260775D01*
X423500Y260691D01*
Y262500D01*
D02*
G37*
G36*
X357500Y266000D02*
X355691D01*
X355775Y265578D01*
X356297Y264797D01*
X357078Y264275D01*
X357500Y264191D01*
Y266000D01*
D02*
G37*
G36*
X360309D02*
X358500D01*
Y264191D01*
X358922Y264275D01*
X359703Y264797D01*
X360225Y265578D01*
X360309Y266000D01*
D02*
G37*
G36*
X475309Y265500D02*
X473500D01*
Y263691D01*
X473922Y263775D01*
X474703Y264297D01*
X475225Y265078D01*
X475309Y265500D01*
D02*
G37*
G36*
X423500Y265309D02*
X423078Y265225D01*
X422297Y264703D01*
X421775Y263922D01*
X421691Y263500D01*
X423500D01*
Y265309D01*
D02*
G37*
G36*
X424500D02*
Y263500D01*
X426309D01*
X426225Y263922D01*
X425703Y264703D01*
X424922Y265225D01*
X424500Y265309D01*
D02*
G37*
G36*
X481500Y248809D02*
Y247000D01*
X483309D01*
X483225Y247422D01*
X482703Y248203D01*
X481922Y248725D01*
X481500Y248809D01*
D02*
G37*
G36*
X346000Y249809D02*
X345578Y249725D01*
X344797Y249203D01*
X344275Y248422D01*
X344191Y248000D01*
X346000D01*
Y249809D01*
D02*
G37*
G36*
X411809Y247000D02*
X410000D01*
Y245191D01*
X410422Y245275D01*
X411203Y245797D01*
X411725Y246578D01*
X411809Y247000D01*
D02*
G37*
G36*
X346000D02*
X344191D01*
X344275Y246578D01*
X344797Y245797D01*
X345578Y245275D01*
X346000Y245191D01*
Y247000D01*
D02*
G37*
G36*
X409000D02*
X407191D01*
X407275Y246578D01*
X407797Y245797D01*
X408578Y245275D01*
X409000Y245191D01*
Y247000D01*
D02*
G37*
G36*
X502809Y256500D02*
X501000D01*
Y254691D01*
X501422Y254775D01*
X502203Y255297D01*
X502725Y256078D01*
X502809Y256500D01*
D02*
G37*
G36*
X500000Y259309D02*
X499578Y259225D01*
X498797Y258703D01*
X498275Y257922D01*
X498191Y257500D01*
X500000D01*
Y259309D01*
D02*
G37*
G36*
Y256500D02*
X498191D01*
X498275Y256078D01*
X498797Y255297D01*
X499578Y254775D01*
X500000Y254691D01*
Y256500D01*
D02*
G37*
G36*
X409000Y249809D02*
X408578Y249725D01*
X407797Y249203D01*
X407275Y248422D01*
X407191Y248000D01*
X409000D01*
Y249809D01*
D02*
G37*
G36*
X410000D02*
Y248000D01*
X411809D01*
X411725Y248422D01*
X411203Y249203D01*
X410422Y249725D01*
X410000Y249809D01*
D02*
G37*
G36*
X367000Y266000D02*
X365191D01*
X365275Y265578D01*
X365797Y264797D01*
X366578Y264275D01*
X367000Y264191D01*
Y266000D01*
D02*
G37*
G36*
X378000Y268809D02*
Y267000D01*
X379809D01*
X379725Y267422D01*
X379203Y268203D01*
X378422Y268725D01*
X378000Y268809D01*
D02*
G37*
G36*
X500000Y269309D02*
X499578Y269225D01*
X498797Y268703D01*
X498275Y267922D01*
X498191Y267500D01*
X500000D01*
Y269309D01*
D02*
G37*
G36*
X377000Y268809D02*
X376578Y268725D01*
X375797Y268203D01*
X375275Y267422D01*
X375191Y267000D01*
X377000D01*
Y268809D01*
D02*
G37*
G36*
X367000D02*
X366578Y268725D01*
X365797Y268203D01*
X365275Y267422D01*
X365191Y267000D01*
X367000D01*
Y268809D01*
D02*
G37*
G36*
X368000D02*
Y267000D01*
X369809D01*
X369725Y267422D01*
X369203Y268203D01*
X368422Y268725D01*
X368000Y268809D01*
D02*
G37*
G36*
X485166Y273000D02*
X483638D01*
Y271472D01*
X483952Y271534D01*
X484642Y271996D01*
X485103Y272686D01*
X485166Y273000D01*
D02*
G37*
G36*
X487362D02*
X485834D01*
X485897Y272686D01*
X486358Y271996D01*
X487048Y271534D01*
X487362Y271472D01*
Y273000D01*
D02*
G37*
G36*
X482638D02*
X481110D01*
X481172Y272686D01*
X481633Y271996D01*
X482324Y271534D01*
X482638Y271472D01*
Y273000D01*
D02*
G37*
G36*
X501000Y269309D02*
Y267500D01*
X502809D01*
X502725Y267922D01*
X502203Y268703D01*
X501422Y269225D01*
X501000Y269309D01*
D02*
G37*
G36*
X424000Y272409D02*
X423078Y272225D01*
X422297Y271703D01*
X421775Y270922D01*
X421592Y270000D01*
X421775Y269078D01*
X422297Y268297D01*
X423078Y267775D01*
X424000Y267592D01*
X424922Y267775D01*
X425703Y268297D01*
X426225Y269078D01*
X426408Y270000D01*
X426225Y270922D01*
X425703Y271703D01*
X424922Y272225D01*
X424000Y272409D01*
D02*
G37*
G36*
X468000Y266309D02*
X467578Y266225D01*
X466797Y265703D01*
X466275Y264922D01*
X466191Y264500D01*
X468000D01*
Y266309D01*
D02*
G37*
G36*
X500000Y266500D02*
X498191D01*
X498275Y266078D01*
X498797Y265297D01*
X499578Y264775D01*
X500000Y264691D01*
Y266500D01*
D02*
G37*
G36*
X379809Y266000D02*
X378000D01*
Y264191D01*
X378422Y264275D01*
X379203Y264797D01*
X379725Y265578D01*
X379809Y266000D01*
D02*
G37*
G36*
X369809D02*
X368000D01*
Y264191D01*
X368422Y264275D01*
X369203Y264797D01*
X369725Y265578D01*
X369809Y266000D01*
D02*
G37*
G36*
X377000D02*
X375191D01*
X375275Y265578D01*
X375797Y264797D01*
X376578Y264275D01*
X377000Y264191D01*
Y266000D01*
D02*
G37*
G36*
X357500Y268809D02*
X357078Y268725D01*
X356297Y268203D01*
X355775Y267422D01*
X355691Y267000D01*
X357500D01*
Y268809D01*
D02*
G37*
G36*
X358500D02*
Y267000D01*
X360309D01*
X360225Y267422D01*
X359703Y268203D01*
X358922Y268725D01*
X358500Y268809D01*
D02*
G37*
G36*
X473500Y268309D02*
Y266500D01*
X475309D01*
X475225Y266922D01*
X474703Y267703D01*
X473922Y268225D01*
X473500Y268309D01*
D02*
G37*
G36*
X502809Y266500D02*
X501000D01*
Y264691D01*
X501422Y264775D01*
X502203Y265297D01*
X502725Y266078D01*
X502809Y266500D01*
D02*
G37*
G36*
X472500Y268309D02*
X472078Y268225D01*
X471297Y267703D01*
X470775Y266922D01*
X470591Y266000D01*
X470592Y265999D01*
X470176Y265721D01*
X469422Y266225D01*
X469000Y266309D01*
Y264000D01*
Y261691D01*
X469422Y261775D01*
X470203Y262297D01*
X470725Y263078D01*
X470908Y264000D01*
X470908Y264001D01*
X471324Y264279D01*
X472078Y263775D01*
X472500Y263691D01*
Y266000D01*
Y268309D01*
D02*
G37*
G36*
X345000Y290309D02*
Y288500D01*
X346809D01*
X346725Y288922D01*
X346203Y289703D01*
X345422Y290225D01*
X345000Y290309D01*
D02*
G37*
G36*
X381000Y333809D02*
Y332000D01*
X382809D01*
X382725Y332422D01*
X382203Y333203D01*
X381422Y333725D01*
X381000Y333809D01*
D02*
G37*
G36*
X350000Y334309D02*
X349578Y334225D01*
X348797Y333703D01*
X348275Y332922D01*
X348191Y332500D01*
X350000D01*
Y334309D01*
D02*
G37*
G36*
X380000Y333809D02*
X379578Y333725D01*
X378797Y333203D01*
X378275Y332422D01*
X378191Y332000D01*
X380000D01*
Y333809D01*
D02*
G37*
G36*
X382809Y331000D02*
X381000D01*
Y329191D01*
X381422Y329275D01*
X382203Y329797D01*
X382725Y330578D01*
X382809Y331000D01*
D02*
G37*
G36*
X368309Y333500D02*
X366500D01*
Y331691D01*
X366922Y331775D01*
X367703Y332297D01*
X368225Y333078D01*
X368309Y333500D01*
D02*
G37*
G36*
X376500Y353409D02*
X375578Y353225D01*
X374797Y352703D01*
X374275Y351922D01*
X374092Y351000D01*
X374275Y350078D01*
X374797Y349297D01*
X375578Y348775D01*
X376500Y348591D01*
X377422Y348775D01*
X378203Y349297D01*
X378725Y350078D01*
X378908Y351000D01*
X378725Y351922D01*
X378203Y352703D01*
X377422Y353225D01*
X376500Y353409D01*
D02*
G37*
G36*
X386000Y355409D02*
X385078Y355225D01*
X384297Y354703D01*
X383775Y353922D01*
X383592Y353000D01*
X383775Y352078D01*
X384297Y351297D01*
X385078Y350775D01*
X386000Y350591D01*
X386922Y350775D01*
X387703Y351297D01*
X388225Y352078D01*
X388408Y353000D01*
X388225Y353922D01*
X387703Y354703D01*
X386922Y355225D01*
X386000Y355409D01*
D02*
G37*
G36*
X348309Y350000D02*
X346500D01*
Y348191D01*
X346922Y348275D01*
X347703Y348797D01*
X348225Y349578D01*
X348309Y350000D01*
D02*
G37*
G36*
X366500Y336309D02*
Y334500D01*
X368309D01*
X368225Y334922D01*
X367703Y335703D01*
X366922Y336225D01*
X366500Y336309D01*
D02*
G37*
G36*
X368000Y351908D02*
X367078Y351725D01*
X366297Y351203D01*
X365775Y350422D01*
X365592Y349500D01*
X365775Y348578D01*
X366297Y347797D01*
X367078Y347275D01*
X368000Y347092D01*
X368922Y347275D01*
X369703Y347797D01*
X370225Y348578D01*
X370409Y349500D01*
X370225Y350422D01*
X369703Y351203D01*
X368922Y351725D01*
X368000Y351908D01*
D02*
G37*
G36*
X380000Y331000D02*
X378191D01*
X378275Y330578D01*
X378797Y329797D01*
X379578Y329275D01*
X380000Y329191D01*
Y331000D01*
D02*
G37*
G36*
X442500Y314309D02*
Y312500D01*
X444309D01*
X444225Y312922D01*
X443703Y313703D01*
X442922Y314225D01*
X442500Y314309D01*
D02*
G37*
G36*
X345500Y322000D02*
X343691D01*
X343775Y321578D01*
X344297Y320797D01*
X345078Y320275D01*
X345500Y320191D01*
Y322000D01*
D02*
G37*
G36*
X441500Y314309D02*
X441078Y314225D01*
X440297Y313703D01*
X439775Y312922D01*
X439691Y312500D01*
X441500D01*
Y314309D01*
D02*
G37*
G36*
X373500Y315909D02*
X372578Y315725D01*
X371797Y315203D01*
X371275Y314422D01*
X371092Y313500D01*
X371275Y312578D01*
X371797Y311797D01*
X372578Y311275D01*
X373500Y311091D01*
X374422Y311275D01*
X375203Y311797D01*
X375725Y312578D01*
X375908Y313500D01*
X375725Y314422D01*
X375203Y315203D01*
X374422Y315725D01*
X373500Y315909D01*
D02*
G37*
G36*
X392000Y316408D02*
X391078Y316225D01*
X390297Y315703D01*
X389775Y314922D01*
X389592Y314000D01*
X389775Y313078D01*
X390297Y312297D01*
X391078Y311775D01*
X392000Y311592D01*
X392922Y311775D01*
X393703Y312297D01*
X394225Y313078D01*
X394408Y314000D01*
X394225Y314922D01*
X393703Y315703D01*
X392922Y316225D01*
X392000Y316408D01*
D02*
G37*
G36*
X346500Y324809D02*
Y323000D01*
X348309D01*
X348225Y323422D01*
X347703Y324203D01*
X346922Y324725D01*
X346500Y324809D01*
D02*
G37*
G36*
X373500Y325809D02*
Y324000D01*
X375309D01*
X375225Y324422D01*
X374703Y325203D01*
X373922Y325725D01*
X373500Y325809D01*
D02*
G37*
G36*
X345500Y324809D02*
X345078Y324725D01*
X344297Y324203D01*
X343775Y323422D01*
X343691Y323000D01*
X345500D01*
Y324809D01*
D02*
G37*
G36*
X348309Y322000D02*
X346500D01*
Y320191D01*
X346922Y320275D01*
X347703Y320797D01*
X348225Y321578D01*
X348309Y322000D01*
D02*
G37*
G36*
X375309Y323000D02*
X373500D01*
Y321191D01*
X373922Y321275D01*
X374703Y321797D01*
X375225Y322578D01*
X375309Y323000D01*
D02*
G37*
G36*
X393000Y394000D02*
X391191D01*
X391275Y393578D01*
X391797Y392797D01*
X392578Y392275D01*
X393000Y392191D01*
Y394000D01*
D02*
G37*
G36*
X395809D02*
X394000D01*
Y392191D01*
X394422Y392275D01*
X395203Y392797D01*
X395725Y393578D01*
X395809Y394000D01*
D02*
G37*
G36*
X382469Y388777D02*
Y386968D01*
X384278D01*
X384194Y387390D01*
X383672Y388172D01*
X382890Y388694D01*
X382469Y388777D01*
D02*
G37*
G36*
X384278Y385968D02*
X382469D01*
Y384159D01*
X382890Y384243D01*
X383672Y384766D01*
X384194Y385547D01*
X384278Y385968D01*
D02*
G37*
G36*
X381469Y388777D02*
X381047Y388694D01*
X380265Y388172D01*
X379743Y387390D01*
X379660Y386968D01*
X381469D01*
Y388777D01*
D02*
G37*
G36*
X393809Y400500D02*
X392000D01*
Y398691D01*
X392422Y398775D01*
X393203Y399297D01*
X393725Y400078D01*
X393809Y400500D01*
D02*
G37*
G36*
X392000Y403309D02*
Y401500D01*
X393809D01*
X393725Y401922D01*
X393203Y402703D01*
X392422Y403225D01*
X392000Y403309D01*
D02*
G37*
G36*
X394000Y396809D02*
Y395000D01*
X395809D01*
X395725Y395422D01*
X395203Y396203D01*
X394422Y396725D01*
X394000Y396809D01*
D02*
G37*
G36*
X387000Y397409D02*
X386078Y397225D01*
X385297Y396703D01*
X384775Y395922D01*
X384592Y395000D01*
X384775Y394078D01*
X385297Y393297D01*
X386078Y392775D01*
X387000Y392592D01*
X387922Y392775D01*
X388703Y393297D01*
X389225Y394078D01*
X389408Y395000D01*
X389225Y395922D01*
X388703Y396703D01*
X387922Y397225D01*
X387000Y397409D01*
D02*
G37*
G36*
X393000Y396809D02*
X392578Y396725D01*
X391797Y396203D01*
X391275Y395422D01*
X391191Y395000D01*
X393000D01*
Y396809D01*
D02*
G37*
G36*
X381469Y385968D02*
X379660D01*
X379743Y385547D01*
X380265Y384766D01*
X381047Y384243D01*
X381469Y384159D01*
Y385968D01*
D02*
G37*
G36*
X401500Y367809D02*
X401078Y367725D01*
X400297Y367203D01*
X399775Y366422D01*
X399691Y366000D01*
X401500D01*
Y367809D01*
D02*
G37*
G36*
X396500Y371409D02*
X395578Y371225D01*
X394797Y370703D01*
X394275Y369922D01*
X394092Y369000D01*
X394275Y368078D01*
X394797Y367297D01*
X395578Y366775D01*
X396500Y366592D01*
X397422Y366775D01*
X398203Y367297D01*
X398725Y368078D01*
X398908Y369000D01*
X398725Y369922D01*
X398203Y370703D01*
X397422Y371225D01*
X396500Y371409D01*
D02*
G37*
G36*
X401500Y365000D02*
X399691D01*
X399775Y364578D01*
X400297Y363797D01*
X401078Y363275D01*
X401500Y363191D01*
Y365000D01*
D02*
G37*
G36*
X369138Y363638D02*
X367610D01*
X367672Y363324D01*
X368133Y362633D01*
X368824Y362172D01*
X369138Y362110D01*
Y363638D01*
D02*
G37*
G36*
X376390D02*
X374862D01*
Y362110D01*
X375176Y362172D01*
X375867Y362633D01*
X376328Y363324D01*
X376390Y363638D01*
D02*
G37*
G36*
X390000Y378908D02*
X389078Y378725D01*
X388297Y378203D01*
X387775Y377422D01*
X387592Y376500D01*
X387775Y375578D01*
X388297Y374797D01*
X389078Y374275D01*
X390000Y374092D01*
X390922Y374275D01*
X391703Y374797D01*
X392225Y375578D01*
X392408Y376500D01*
X392225Y377422D01*
X391703Y378203D01*
X390922Y378725D01*
X390000Y378908D01*
D02*
G37*
G36*
X396000Y379908D02*
X395078Y379725D01*
X394297Y379203D01*
X393775Y378422D01*
X393591Y377500D01*
X393775Y376578D01*
X394297Y375797D01*
X395078Y375275D01*
X396000Y375092D01*
X396922Y375275D01*
X397703Y375797D01*
X398225Y376578D01*
X398409Y377500D01*
X398225Y378422D01*
X397703Y379203D01*
X396922Y379725D01*
X396000Y379908D01*
D02*
G37*
G36*
X374862Y370890D02*
Y369362D01*
X376390D01*
X376328Y369676D01*
X375867Y370367D01*
X375176Y370828D01*
X374862Y370890D01*
D02*
G37*
G36*
X373862D02*
X373548Y370828D01*
X372858Y370367D01*
X372397Y369676D01*
X372250Y368939D01*
X371750D01*
X371603Y369676D01*
X371142Y370367D01*
X370452Y370828D01*
X370138Y370890D01*
Y368862D01*
X369638D01*
Y368362D01*
X367610D01*
X367672Y368048D01*
X368133Y367358D01*
X368824Y366897D01*
X369561Y366750D01*
Y366250D01*
X368824Y366103D01*
X368133Y365642D01*
X367672Y364952D01*
X367610Y364638D01*
X369638D01*
Y364138D01*
X370138D01*
Y362110D01*
X370452Y362172D01*
X371142Y362633D01*
X371603Y363324D01*
X371750Y364061D01*
X372250D01*
X372397Y363324D01*
X372858Y362633D01*
X373548Y362172D01*
X373862Y362110D01*
Y364138D01*
X374362D01*
Y364638D01*
X376390D01*
X376328Y364952D01*
X375867Y365642D01*
X375176Y366103D01*
X374439Y366250D01*
Y366750D01*
X375176Y366897D01*
X375867Y367358D01*
X376328Y368048D01*
X376390Y368362D01*
X374362D01*
Y368862D01*
X373862D01*
Y370890D01*
D02*
G37*
G36*
X369138D02*
X368824Y370828D01*
X368133Y370367D01*
X367672Y369676D01*
X367610Y369362D01*
X369138D01*
Y370890D01*
D02*
G37*
G36*
X478000Y312809D02*
Y311000D01*
X479809D01*
X479725Y311422D01*
X479203Y312203D01*
X478422Y312725D01*
X478000Y312809D01*
D02*
G37*
G36*
X389309Y296000D02*
X387500D01*
Y294191D01*
X387922Y294275D01*
X388703Y294797D01*
X389225Y295578D01*
X389309Y296000D01*
D02*
G37*
G36*
X386500Y298809D02*
X386078Y298725D01*
X385297Y298203D01*
X384775Y297422D01*
X384691Y297000D01*
X386500D01*
Y298809D01*
D02*
G37*
G36*
Y296000D02*
X384691D01*
X384775Y295578D01*
X385297Y294797D01*
X386078Y294275D01*
X386500Y294191D01*
Y296000D01*
D02*
G37*
G36*
X487000Y295809D02*
X486578Y295725D01*
X485797Y295203D01*
X485275Y294422D01*
X485191Y294000D01*
X487000D01*
Y295809D01*
D02*
G37*
G36*
X488000D02*
Y294000D01*
X489809D01*
X489725Y294422D01*
X489203Y295203D01*
X488422Y295725D01*
X488000Y295809D01*
D02*
G37*
G36*
X393500Y304908D02*
X392578Y304725D01*
X391797Y304203D01*
X391275Y303422D01*
X391091Y302500D01*
X391275Y301578D01*
X391797Y300797D01*
X392578Y300275D01*
X393500Y300092D01*
X394422Y300275D01*
X395203Y300797D01*
X395725Y301578D01*
X395908Y302500D01*
X395725Y303422D01*
X395203Y304203D01*
X394422Y304725D01*
X393500Y304908D01*
D02*
G37*
G36*
X348500Y303000D02*
X346691D01*
X346775Y302578D01*
X347297Y301797D01*
X348078Y301275D01*
X348500Y301191D01*
Y303000D01*
D02*
G37*
G36*
X436809Y300500D02*
X435000D01*
Y298691D01*
X435422Y298775D01*
X436203Y299297D01*
X436725Y300078D01*
X436809Y300500D01*
D02*
G37*
G36*
X387500Y298809D02*
Y297000D01*
X389309D01*
X389225Y297422D01*
X388703Y298203D01*
X387922Y298725D01*
X387500Y298809D01*
D02*
G37*
G36*
X362000Y303409D02*
X361078Y303225D01*
X360297Y302703D01*
X359775Y301922D01*
X359592Y301000D01*
X359775Y300078D01*
X360297Y299297D01*
X361078Y298775D01*
X362000Y298591D01*
X362922Y298775D01*
X363703Y299297D01*
X364225Y300078D01*
X364408Y301000D01*
X364225Y301922D01*
X363703Y302703D01*
X362922Y303225D01*
X362000Y303409D01*
D02*
G37*
G36*
X443000Y294809D02*
Y293000D01*
X444809D01*
X444725Y293422D01*
X444203Y294203D01*
X443422Y294725D01*
X443000Y294809D01*
D02*
G37*
G36*
X397000Y292809D02*
Y291000D01*
X398809D01*
X398725Y291422D01*
X398203Y292203D01*
X397422Y292725D01*
X397000Y292809D01*
D02*
G37*
G36*
X487000Y293000D02*
X485191D01*
X485275Y292578D01*
X485797Y291797D01*
X486578Y291275D01*
X487000Y291191D01*
Y293000D01*
D02*
G37*
G36*
X396000Y292809D02*
X395578Y292725D01*
X394797Y292203D01*
X394275Y291422D01*
X394191Y291000D01*
X396000D01*
Y292809D01*
D02*
G37*
G36*
X361000Y293408D02*
X360078Y293225D01*
X359297Y292703D01*
X358775Y291922D01*
X358592Y291000D01*
X358775Y290078D01*
X359297Y289297D01*
X360078Y288775D01*
X361000Y288592D01*
X361922Y288775D01*
X362703Y289297D01*
X363225Y290078D01*
X363408Y291000D01*
X363225Y291922D01*
X362703Y292703D01*
X361922Y293225D01*
X361000Y293408D01*
D02*
G37*
G36*
X426500Y291000D02*
X424691D01*
X424775Y290578D01*
X425297Y289797D01*
X426078Y289275D01*
X426500Y289191D01*
Y291000D01*
D02*
G37*
G36*
X427500Y293809D02*
Y292000D01*
X429309D01*
X429225Y292422D01*
X428703Y293203D01*
X427922Y293725D01*
X427500Y293809D01*
D02*
G37*
G36*
X442000Y294809D02*
X441578Y294725D01*
X440797Y294203D01*
X440275Y293422D01*
X440191Y293000D01*
X442000D01*
Y294809D01*
D02*
G37*
G36*
X426500Y293809D02*
X426078Y293725D01*
X425297Y293203D01*
X424775Y292422D01*
X424691Y292000D01*
X426500D01*
Y293809D01*
D02*
G37*
G36*
X489809Y293000D02*
X488000D01*
Y291191D01*
X488422Y291275D01*
X489203Y291797D01*
X489725Y292578D01*
X489809Y293000D01*
D02*
G37*
G36*
X448000Y292225D02*
X446688Y292096D01*
X445426Y291713D01*
X445188Y291586D01*
X444786Y291883D01*
X444809Y292000D01*
X440191D01*
X440275Y291578D01*
X440797Y290797D01*
X441578Y290275D01*
X442500Y290091D01*
X442501Y290092D01*
X442758Y289663D01*
X442408Y289236D01*
X441787Y288074D01*
X441404Y286812D01*
X441275Y285500D01*
X441404Y284188D01*
X441787Y282926D01*
X442408Y281764D01*
X443245Y280745D01*
X444264Y279908D01*
X445426Y279287D01*
X446688Y278904D01*
X448000Y278775D01*
X449312Y278904D01*
X450574Y279287D01*
X451736Y279908D01*
X452755Y280745D01*
X453592Y281764D01*
X454213Y282926D01*
X454596Y284188D01*
X454725Y285500D01*
X454596Y286812D01*
X454213Y288074D01*
X453592Y289236D01*
X452755Y290255D01*
X451736Y291092D01*
X450574Y291713D01*
X449312Y292096D01*
X448000Y292225D01*
D02*
G37*
G36*
X477000Y310000D02*
X475191D01*
X475275Y309578D01*
X475797Y308797D01*
X476578Y308275D01*
X477000Y308191D01*
Y310000D01*
D02*
G37*
G36*
X479809D02*
X478000D01*
Y308191D01*
X478422Y308275D01*
X479203Y308797D01*
X479725Y309578D01*
X479809Y310000D01*
D02*
G37*
G36*
X349500Y312909D02*
X348578Y312725D01*
X347797Y312203D01*
X347275Y311422D01*
X347092Y310500D01*
X347275Y309578D01*
X347797Y308797D01*
X348578Y308275D01*
X349500Y308091D01*
X350422Y308275D01*
X351203Y308797D01*
X351725Y309578D01*
X351908Y310500D01*
X351725Y311422D01*
X351203Y312203D01*
X350422Y312725D01*
X349500Y312909D01*
D02*
G37*
G36*
X431809Y308500D02*
X430000D01*
Y306691D01*
X430422Y306775D01*
X431203Y307297D01*
X431725Y308078D01*
X431809Y308500D01*
D02*
G37*
G36*
X455000Y312408D02*
X454078Y312225D01*
X453297Y311703D01*
X452775Y310922D01*
X452592Y310000D01*
X452775Y309078D01*
X453297Y308297D01*
X454078Y307775D01*
X455000Y307592D01*
X455922Y307775D01*
X456703Y308297D01*
X457225Y309078D01*
X457409Y310000D01*
X457225Y310922D01*
X456703Y311703D01*
X455922Y312225D01*
X455000Y312408D01*
D02*
G37*
G36*
X444309Y311500D02*
X442500D01*
Y309691D01*
X442922Y309775D01*
X443703Y310297D01*
X444225Y311078D01*
X444309Y311500D01*
D02*
G37*
G36*
X477000Y312809D02*
X476578Y312725D01*
X475797Y312203D01*
X475275Y311422D01*
X475191Y311000D01*
X477000D01*
Y312809D01*
D02*
G37*
G36*
X441500Y311500D02*
X439691D01*
X439775Y311078D01*
X440297Y310297D01*
X441078Y309775D01*
X441500Y309691D01*
Y311500D01*
D02*
G37*
G36*
X429000Y311309D02*
X428578Y311225D01*
X427797Y310703D01*
X427275Y309922D01*
X427191Y309500D01*
X429000D01*
Y311309D01*
D02*
G37*
G36*
X430000D02*
Y309500D01*
X431809D01*
X431725Y309922D01*
X431203Y310703D01*
X430422Y311225D01*
X430000Y311309D01*
D02*
G37*
G36*
X429000Y308500D02*
X427191D01*
X427275Y308078D01*
X427797Y307297D01*
X428578Y306775D01*
X429000Y306691D01*
Y308500D01*
D02*
G37*
G36*
X389809Y303500D02*
X388000D01*
Y301691D01*
X388422Y301775D01*
X389203Y302297D01*
X389725Y303078D01*
X389809Y303500D01*
D02*
G37*
G36*
X382000Y304000D02*
X380191D01*
X380275Y303578D01*
X380797Y302797D01*
X381578Y302275D01*
X382000Y302191D01*
Y304000D01*
D02*
G37*
G36*
X383000Y306809D02*
Y304500D01*
Y302191D01*
X383422Y302275D01*
X384203Y302797D01*
X384709Y303554D01*
X385200Y303457D01*
X385275Y303078D01*
X385797Y302297D01*
X386578Y301775D01*
X387000Y301691D01*
Y304000D01*
Y306309D01*
X386578Y306225D01*
X385797Y305703D01*
X385291Y304946D01*
X384800Y305043D01*
X384725Y305422D01*
X384203Y306203D01*
X383422Y306725D01*
X383000Y306809D01*
D02*
G37*
G36*
X351309Y303000D02*
X349500D01*
Y301191D01*
X349922Y301275D01*
X350703Y301797D01*
X351225Y302578D01*
X351309Y303000D01*
D02*
G37*
G36*
X435000Y303309D02*
Y301500D01*
X436809D01*
X436725Y301922D01*
X436203Y302703D01*
X435422Y303225D01*
X435000Y303309D01*
D02*
G37*
G36*
X382000Y306809D02*
X381578Y306725D01*
X380797Y306203D01*
X380275Y305422D01*
X380191Y305000D01*
X382000D01*
Y306809D01*
D02*
G37*
G36*
X438500Y310408D02*
X437578Y310225D01*
X436797Y309703D01*
X436275Y308922D01*
X436092Y308000D01*
X436275Y307078D01*
X436797Y306297D01*
X437578Y305775D01*
X438500Y305592D01*
X439422Y305775D01*
X440203Y306297D01*
X440725Y307078D01*
X440908Y308000D01*
X440725Y308922D01*
X440203Y309703D01*
X439422Y310225D01*
X438500Y310408D01*
D02*
G37*
G36*
X388000Y306309D02*
Y304500D01*
X389809D01*
X389725Y304922D01*
X389203Y305703D01*
X388422Y306225D01*
X388000Y306309D01*
D02*
G37*
G36*
X348500Y305809D02*
X348078Y305725D01*
X347297Y305203D01*
X346775Y304422D01*
X346691Y304000D01*
X348500D01*
Y305809D01*
D02*
G37*
G36*
X349500D02*
Y304000D01*
X351309D01*
X351225Y304422D01*
X350703Y305203D01*
X349922Y305725D01*
X349500Y305809D01*
D02*
G37*
%LPD*%
D24*
X403500Y390000D02*
Y400000D01*
X388000Y415500D02*
X403500Y400000D01*
X370500Y415500D02*
X388000D01*
X371000Y379000D02*
X391000Y359000D01*
X367000Y379000D02*
X371000D01*
X366000Y380000D02*
X367000Y379000D01*
X369000Y302500D02*
X371000Y300500D01*
X369000Y302500D02*
Y323500D01*
X363075Y329425D02*
X369000Y323500D01*
X363075Y329425D02*
Y356925D01*
X360000Y360000D02*
X363075Y356925D01*
X355789Y360000D02*
X360000D01*
X347500Y368289D02*
X355789Y360000D01*
X347500Y368289D02*
Y379000D01*
X348500Y380000D01*
X369500Y290500D02*
X375500D01*
X367000Y293000D02*
X369500Y290500D01*
X367000Y293000D02*
Y322000D01*
X361500Y327500D02*
X367000Y322000D01*
X361500Y327500D02*
Y355000D01*
X359000Y357500D02*
X361500Y355000D01*
X356062Y357500D02*
X359000D01*
X345744Y367818D02*
X356062Y357500D01*
X345744Y367818D02*
Y383744D01*
X346000Y384000D01*
X403000Y300000D02*
Y309500D01*
X394500Y318000D02*
X403000Y309500D01*
X394500Y318000D02*
Y342500D01*
X391000Y346000D02*
X394500Y342500D01*
X391000Y346000D02*
Y359000D01*
X366000Y380000D02*
Y383000D01*
X393000Y347000D02*
X396500Y343500D01*
Y319500D02*
Y343500D01*
X408500Y300000D02*
Y307500D01*
X396500Y319500D02*
X408500Y307500D01*
X393000Y347000D02*
Y359500D01*
X370000Y382500D02*
X393000Y359500D01*
X402000Y365500D02*
Y375500D01*
X391032Y386469D02*
X402000Y375500D01*
X381968Y386469D02*
X391032D01*
X404756Y317244D02*
Y375744D01*
Y317244D02*
X406000Y316000D01*
X399244Y381256D02*
X404756Y375744D01*
X419500Y316000D02*
X422000Y313500D01*
X406000Y316000D02*
X419500D01*
X399244Y381256D02*
Y385744D01*
X403500Y390000D01*
X368244Y413244D02*
X370500Y415500D01*
X346256Y413244D02*
X368244D01*
X345500Y414000D02*
X346256Y413244D01*
X361000Y401500D02*
X364000Y398500D01*
X347500Y401500D02*
X361000D01*
X343000Y397000D02*
X347500Y401500D01*
X343000Y357500D02*
Y397000D01*
Y357500D02*
X345500Y355000D01*
X346000D01*
D26*
X380500Y306500D02*
X382500Y304500D01*
X380500Y306500D02*
Y331500D01*
X354000Y324000D02*
Y356500D01*
X347500Y363000D02*
X354000Y356500D01*
X346000Y363000D02*
X347500D01*
X354000Y324000D02*
X361000Y317000D01*
D27*
X363500Y320500D02*
X363953Y320047D01*
Y315777D02*
Y320047D01*
X362223Y314047D02*
X363953Y315777D01*
X359091Y314047D02*
X362223D01*
X351638Y321500D02*
X359091Y314047D01*
X351638Y321500D02*
Y324862D01*
X343047Y352047D02*
X346000Y355000D01*
X343047Y333453D02*
Y352047D01*
Y333453D02*
X351638Y324862D01*
D28*
X395000Y348500D02*
Y361000D01*
X374500Y381500D02*
X395000Y361000D01*
X374500Y381500D02*
Y384000D01*
X395000Y348500D02*
X402118Y341382D01*
Y316382D02*
Y341382D01*
Y316382D02*
X405000Y313500D01*
X417500D01*
X431968Y299031D01*
Y289968D02*
Y299031D01*
D29*
X480000Y256000D02*
X488500Y247500D01*
X472000Y256000D02*
X480000D01*
X464500Y248500D02*
X472000Y256000D01*
X464500Y247500D02*
Y248500D01*
X456000Y256000D02*
X464500Y247500D01*
X427000Y256000D02*
X456000D01*
X418500Y247500D02*
X427000Y256000D01*
D43*
X418500Y247500D02*
D03*
X488500D02*
D03*
X464500D02*
D03*
D46*
X374362Y368862D02*
D03*
Y364138D02*
D03*
X369638Y368862D02*
D03*
Y364138D02*
D03*
X487862Y273500D02*
D03*
X483138D02*
D03*
D47*
X346000Y322500D02*
D03*
X382500Y304500D02*
D03*
X387500Y284000D02*
D03*
X396500Y290500D02*
D03*
X416000Y282000D02*
D03*
X371000Y300500D02*
D03*
X375500Y290500D02*
D03*
X344500Y288000D02*
D03*
X363500Y320500D02*
D03*
X361000Y317000D02*
D03*
X408500Y300000D02*
D03*
X403000D02*
D03*
X424000Y263000D02*
D03*
X458000Y278000D02*
D03*
X422000Y313500D02*
D03*
X399256Y331500D02*
D03*
X468500Y264000D02*
D03*
X500500Y257000D02*
D03*
X481000Y246500D02*
D03*
X402000Y365500D02*
D03*
X366000Y383000D02*
D03*
X370000Y382500D02*
D03*
X374500Y384000D02*
D03*
X381968Y386469D02*
D03*
X346000Y350500D02*
D03*
X350500Y332000D02*
D03*
X366000Y334000D02*
D03*
X380500Y331500D02*
D03*
X364000Y398500D02*
D03*
X345500Y414000D02*
D03*
X346000Y384000D02*
D03*
X348500Y380000D02*
D03*
X346000Y363000D02*
D03*
Y355000D02*
D03*
X431968Y289968D02*
D03*
X391500Y401000D02*
D03*
X393500Y394500D02*
D03*
X373000Y323500D02*
D03*
X349000Y303500D02*
D03*
X387500Y304000D02*
D03*
X346500Y247500D02*
D03*
X392500Y277500D02*
D03*
X387000Y296500D02*
D03*
X408000Y277000D02*
D03*
X367500Y266500D02*
D03*
X358000D02*
D03*
X377500D02*
D03*
X409500Y247500D02*
D03*
X429500Y309000D02*
D03*
X442000Y312000D02*
D03*
X477500Y310500D02*
D03*
X500500Y267000D02*
D03*
Y278000D02*
D03*
X487500Y293500D02*
D03*
X473000Y266000D02*
D03*
X451500Y276000D02*
D03*
X469500Y283500D02*
D03*
X427000Y291500D02*
D03*
X442500Y292500D02*
D03*
X434500Y301000D02*
D03*
M02*
