%FSLAX25Y25*%
%MOIN*%
G70*
G01*
G75*
G04 Layer_Physical_Order=1*
G04 Layer_Color=255*
%ADD10O,0.00984X0.02559*%
%ADD11O,0.02559X0.00984*%
%ADD12R,0.17716X0.17716*%
%ADD13R,0.02953X0.03543*%
%ADD14R,0.05315X0.03740*%
%ADD15R,0.01575X0.01575*%
%ADD16R,0.00039X0.11811*%
%ADD17R,0.02559X0.06102*%
%ADD18R,0.03543X0.03937*%
%ADD19R,0.03937X0.01378*%
%ADD20R,0.02953X0.09449*%
%ADD21R,0.01969X0.02362*%
%ADD22R,0.02362X0.01969*%
%ADD23C,0.03937*%
%ADD24C,0.00787*%
%ADD25C,0.02000*%
%ADD26C,0.01969*%
%ADD27C,0.01181*%
%ADD28C,0.01000*%
%ADD29C,0.03937*%
%ADD30R,0.02913X0.03937*%
%ADD31R,0.03150X0.04724*%
%ADD32R,0.05079X0.19193*%
%ADD33R,0.03937X0.36142*%
%ADD34R,0.04764X1.00709*%
%ADD35R,0.15590X0.08583*%
%ADD36R,0.04764X0.12598*%
%ADD37R,0.05079X0.12598*%
%ADD38R,0.07992X0.01811*%
G04:AMPARAMS|DCode=39|XSize=18.11mil|YSize=66.44mil|CornerRadius=0mil|HoleSize=0mil|Usage=FLASHONLY|Rotation=124.500|XOffset=0mil|YOffset=0mil|HoleType=Round|Shape=Rectangle|*
%AMROTATEDRECTD39*
4,1,4,0.03251,0.01135,-0.02225,-0.02628,-0.03251,-0.01135,0.02225,0.02628,0.03251,0.01135,0.0*
%
%ADD39ROTATEDRECTD39*%

%ADD40R,0.03500X0.06000*%
%ADD41R,0.04000X0.03870*%
%ADD42R,0.04000X0.03709*%
%ADD43C,0.05906*%
%ADD44R,0.05906X0.05906*%
%ADD45C,0.11811*%
%ADD46C,0.02598*%
%ADD47C,0.03150*%
G36*
X495218Y249351D02*
X494856Y248476D01*
X494728Y247500D01*
X494856Y246524D01*
X495233Y245614D01*
X495832Y244832D01*
X496300Y244474D01*
X496140Y244000D01*
X490860D01*
X490700Y244474D01*
X491167Y244832D01*
X491767Y245614D01*
X492144Y246524D01*
X492272Y247500D01*
X492144Y248476D01*
X491767Y249386D01*
X491167Y250167D01*
X490386Y250767D01*
X489476Y251144D01*
X489245Y251174D01*
X489219Y251185D01*
X488500Y251280D01*
X487781Y251185D01*
X487755Y251174D01*
X487524Y251144D01*
X486614Y250767D01*
X485833Y250167D01*
X485233Y249386D01*
X484856Y248476D01*
X484728Y247500D01*
X484856Y246524D01*
X485233Y245614D01*
X485833Y244832D01*
X486300Y244474D01*
X486140Y244000D01*
X482372D01*
X482226Y244479D01*
X482703Y244797D01*
X483225Y245578D01*
X483309Y246000D01*
X481000D01*
Y246500D01*
X480500D01*
Y248809D01*
X480396Y248788D01*
X480160Y249229D01*
X483651Y252720D01*
X491849D01*
X495218Y249351D01*
D02*
G37*
G36*
X470925Y248644D02*
X470856Y248476D01*
X470728Y247500D01*
X470856Y246524D01*
X471233Y245614D01*
X471833Y244832D01*
X472300Y244474D01*
X472140Y244000D01*
X466860D01*
X466700Y244474D01*
X467168Y244832D01*
X467767Y245614D01*
X468144Y246524D01*
X468272Y247500D01*
X468144Y248476D01*
X467767Y249386D01*
X467168Y250167D01*
X466386Y250767D01*
X465476Y251144D01*
X464500Y251272D01*
X463524Y251144D01*
X462614Y250767D01*
X461833Y250167D01*
X461233Y249386D01*
X460856Y248476D01*
X460728Y247500D01*
X460856Y246524D01*
X461233Y245614D01*
X461833Y244832D01*
X462300Y244474D01*
X462140Y244000D01*
X430860D01*
X430700Y244474D01*
X431168Y244832D01*
X431767Y245614D01*
X432144Y246524D01*
X432248Y247317D01*
X438151Y253220D01*
X466349D01*
X470925Y248644D01*
D02*
G37*
G36*
X399500Y390091D02*
X399764Y390144D01*
X400000Y389703D01*
X398393Y388096D01*
X398131Y387705D01*
X398040Y387244D01*
X398040Y387244D01*
Y379508D01*
X397599Y379273D01*
X396922Y379725D01*
X396000Y379908D01*
X395490Y379807D01*
X395196Y380101D01*
X395388Y380563D01*
X395772D01*
Y384146D01*
X395772Y384146D01*
X395772D01*
X395772Y384500D01*
Y384500D01*
D01*
X395772Y384854D01*
X395772Y384854D01*
X395772D01*
Y385968D01*
X394000D01*
Y386469D01*
X393500D01*
Y388437D01*
X392228D01*
D01*
D01*
X392228Y388437D01*
X391772D01*
Y388437D01*
X390500D01*
Y386469D01*
X390000D01*
Y385968D01*
X388228D01*
Y384854D01*
X388228Y384854D01*
X388228D01*
X388228Y384500D01*
Y384500D01*
D01*
X388228Y384146D01*
X388228Y384146D01*
X388228D01*
Y380563D01*
X388796D01*
Y378536D01*
X388297Y378203D01*
X387775Y377422D01*
X387592Y376500D01*
X387708Y375912D01*
X386573Y374776D01*
X386074Y374801D01*
X385926Y374980D01*
X386001Y375358D01*
X385937Y375683D01*
X386351Y376097D01*
X386351Y376097D01*
X386613Y376488D01*
X386704Y376949D01*
Y380563D01*
X387272D01*
Y384146D01*
X387272Y384146D01*
X387272D01*
X387272Y384500D01*
Y384500D01*
D01*
X387272Y384854D01*
X387272Y384854D01*
X387272D01*
Y385968D01*
X385500D01*
Y386469D01*
X385000D01*
Y388437D01*
X383728D01*
Y388437D01*
X383274Y388437D01*
X382890Y388694D01*
X382469Y388777D01*
Y386469D01*
Y384159D01*
X382890Y384243D01*
X383274Y384500D01*
X383304D01*
X383728Y384273D01*
X383728Y384146D01*
X383728Y384146D01*
X383728D01*
Y380563D01*
X384296D01*
Y377448D01*
X383511Y376663D01*
X383122D01*
X382623Y376564D01*
X382200Y376281D01*
X382124Y376168D01*
X381774Y376274D01*
X381668Y376624D01*
X381781Y376700D01*
X382064Y377123D01*
X382163Y377622D01*
Y377909D01*
X380858D01*
Y378410D01*
X380358D01*
Y380402D01*
X379936Y380119D01*
X379812D01*
X379390Y380402D01*
Y378410D01*
X378390D01*
Y380402D01*
X377967Y380119D01*
X377844D01*
X377421Y380402D01*
Y378410D01*
X376421D01*
Y380402D01*
X375999Y380119D01*
X375875D01*
X375453Y380402D01*
Y378410D01*
X374453D01*
Y380637D01*
X374297Y380765D01*
Y381425D01*
X374500Y381592D01*
X375422Y381775D01*
X376203Y382297D01*
X376725Y383078D01*
X376908Y384000D01*
X376725Y384922D01*
X376203Y385703D01*
X375422Y386225D01*
X374500Y386408D01*
X374236Y386356D01*
X374000Y386797D01*
X376499Y389296D01*
X381523D01*
X381524Y389290D01*
X382413D01*
X382414Y389296D01*
X397500D01*
X397500Y389296D01*
X397961Y389387D01*
X398352Y389649D01*
X398912Y390209D01*
X399500Y390091D01*
D02*
G37*
G36*
X334008Y326000D02*
X332982Y327492D01*
X334008Y327811D01*
Y326000D01*
D02*
G37*
G36*
X356714Y416613D02*
X356592Y416000D01*
X356775Y415078D01*
X356943Y414827D01*
X356707Y414386D01*
X356264D01*
Y414386D01*
X351736D01*
D01*
D01*
X351736Y414386D01*
X351264D01*
Y414386D01*
X347832D01*
X347725Y414922D01*
X347203Y415703D01*
X346422Y416225D01*
X345500Y416408D01*
X344578Y416225D01*
X343797Y415703D01*
X343275Y414922D01*
X343092Y414000D01*
X343275Y413078D01*
X343797Y412297D01*
X344578Y411775D01*
X345500Y411591D01*
X346088Y411709D01*
X346736Y411061D01*
Y403362D01*
X351264D01*
Y403362D01*
X351264D01*
X351264Y403362D01*
X351736D01*
Y403362D01*
X352796D01*
Y402500D01*
X352796Y402500D01*
X352887Y402039D01*
X353149Y401649D01*
X354149Y400648D01*
X354149Y400648D01*
X354383Y400492D01*
X354539Y400387D01*
X355000Y400296D01*
X356828D01*
X357064Y399855D01*
X356775Y399422D01*
X356619Y398638D01*
X356264D01*
Y398638D01*
X351736D01*
D01*
D01*
X351736Y398638D01*
X351264D01*
Y398638D01*
X349500D01*
Y393126D01*
Y387614D01*
X351264D01*
Y387614D01*
X351264D01*
X351264Y387614D01*
X351736D01*
Y387614D01*
X352872D01*
X352887Y387539D01*
X353149Y387148D01*
X354563Y385734D01*
X354372Y385272D01*
X353000D01*
D01*
X353000Y385272D01*
X353000D01*
Y385272D01*
D01*
X351532D01*
Y383500D01*
X351031D01*
Y383000D01*
X349063D01*
Y382691D01*
X348725Y382413D01*
X348230Y382486D01*
X348030Y382786D01*
X348225Y383078D01*
X348409Y384000D01*
X348225Y384922D01*
X347703Y385703D01*
X346922Y386225D01*
X346000Y386408D01*
X345078Y386225D01*
X344297Y385703D01*
X343775Y384922D01*
X343591Y384000D01*
X343775Y383078D01*
X344124Y382556D01*
X344067Y382272D01*
X344067Y382272D01*
Y370228D01*
X344067Y370228D01*
X344159Y369767D01*
X344420Y369377D01*
X346052Y367745D01*
Y365744D01*
X346052Y365744D01*
X346052Y365744D01*
X346052Y365744D01*
X346000Y365408D01*
X345078Y365225D01*
X344297Y364703D01*
X343775Y363922D01*
X343591Y363000D01*
X343775Y362078D01*
X344297Y361297D01*
X344367Y361250D01*
Y360750D01*
X344297Y360703D01*
X343775Y359922D01*
X343591Y359000D01*
X343775Y358078D01*
X344297Y357297D01*
X344367Y357250D01*
Y356750D01*
X344297Y356703D01*
X343775Y355922D01*
X343591Y355000D01*
X343775Y354078D01*
X344297Y353297D01*
X344741Y353000D01*
Y352500D01*
X344297Y352203D01*
X343775Y351422D01*
X343691Y351000D01*
X346000D01*
Y350000D01*
X343691D01*
X343775Y349578D01*
X344297Y348797D01*
X345078Y348275D01*
X346000Y348092D01*
X346228Y347904D01*
Y344854D01*
X346228Y344854D01*
X346228D01*
X346228Y344500D01*
Y344500D01*
D01*
X346228Y344146D01*
X346228Y344146D01*
X346228D01*
Y343032D01*
X349772D01*
Y344146D01*
X349772Y344146D01*
X349772D01*
X349772Y344500D01*
Y344500D01*
D01*
X349772Y344854D01*
X349772Y344854D01*
X349772D01*
Y345264D01*
X351291D01*
Y343673D01*
X356409D01*
Y347285D01*
X356735Y347611D01*
X357197Y347419D01*
Y346929D01*
X359756D01*
Y346429D01*
X360256D01*
Y343673D01*
X362296D01*
Y342503D01*
X360710Y340917D01*
X357098D01*
Y335405D01*
X358453D01*
Y334272D01*
X357354D01*
X357354Y334272D01*
Y334272D01*
X357000Y334272D01*
X357000D01*
D01*
X356646Y334272D01*
X356646Y334272D01*
Y334272D01*
X355532D01*
Y332500D01*
Y330728D01*
X356646D01*
X356646Y330728D01*
Y330728D01*
X357000Y330728D01*
X357000D01*
D01*
X357354Y330728D01*
X357354Y330728D01*
Y330728D01*
X360937D01*
Y334272D01*
X360862D01*
Y335405D01*
X362216D01*
Y339017D01*
X364352Y341152D01*
X364352Y341152D01*
X364508Y341387D01*
X364613Y341543D01*
X364704Y342004D01*
X364704Y342004D01*
X364704Y342004D01*
Y342004D01*
Y348501D01*
X365235Y349032D01*
X365714Y348887D01*
X365775Y348578D01*
X366297Y347797D01*
X367078Y347275D01*
X368000Y347092D01*
X368908Y347272D01*
X369143Y346831D01*
X367848Y345535D01*
X365602D01*
Y342583D01*
Y342000D01*
X371114D01*
Y342583D01*
Y344828D01*
X371918Y345632D01*
X371991Y345625D01*
X372787Y344828D01*
Y342583D01*
Y342000D01*
X378299D01*
Y342583D01*
Y343563D01*
X378728D01*
Y343563D01*
X380000D01*
Y345532D01*
X381000D01*
Y343563D01*
X381923D01*
X382114Y343101D01*
X380507Y341494D01*
X380202Y341038D01*
X380182Y340937D01*
X379728D01*
Y337354D01*
X379728Y337354D01*
X379728D01*
X379728Y337000D01*
Y337000D01*
D01*
X379728Y336646D01*
X379728Y336646D01*
X379728D01*
Y335531D01*
X381500D01*
Y334531D01*
X379728D01*
Y333755D01*
X379578Y333725D01*
X378797Y333203D01*
X378275Y332422D01*
X378191Y332000D01*
X382809D01*
X382725Y332422D01*
X382591Y332622D01*
X382827Y333063D01*
X383272D01*
Y333063D01*
X383272D01*
X383272Y333063D01*
X383728D01*
Y333063D01*
X385000D01*
Y335032D01*
X385500D01*
Y335531D01*
X387272D01*
Y336646D01*
X387272Y336646D01*
X387272D01*
X387272Y337000D01*
Y337000D01*
D01*
Y337210D01*
X387625Y337563D01*
X390575D01*
X391112Y337670D01*
X391568Y337975D01*
X391568Y337975D01*
X391568Y337975D01*
X391680Y338087D01*
X392142Y337896D01*
Y330374D01*
X387272D01*
Y330937D01*
X383728D01*
Y327354D01*
X383728Y327354D01*
X383728D01*
X383728Y327000D01*
Y327000D01*
D01*
X383728Y326646D01*
X383728Y326646D01*
X383728D01*
Y323063D01*
X384296D01*
Y310500D01*
X384296Y310500D01*
X384079Y310236D01*
X371772D01*
Y310646D01*
X371772Y310647D01*
D01*
D01*
X371772Y311000D01*
D01*
Y311000D01*
Y311000D01*
D01*
Y311018D01*
X371772Y311162D01*
X372969D01*
X373057Y311180D01*
X373500Y311091D01*
X374422Y311275D01*
X375203Y311797D01*
X375725Y312578D01*
X375908Y313500D01*
X375725Y314422D01*
X375203Y315203D01*
X374422Y315725D01*
X373500Y315909D01*
X372578Y315725D01*
X371797Y315203D01*
X371619Y314937D01*
X368228D01*
D01*
D01*
X368228Y314937D01*
X367772Y314937D01*
Y314937D01*
X364228D01*
Y313143D01*
X364194Y312968D01*
X364228Y312794D01*
Y311354D01*
X364228Y311354D01*
X364228D01*
X364228Y311000D01*
Y311000D01*
D01*
X364228Y310646D01*
X364228Y310646D01*
X364228D01*
Y309531D01*
X366000D01*
Y309032D01*
X366500D01*
Y307063D01*
X367772D01*
Y307063D01*
X367772D01*
X367772Y307063D01*
X368228Y307063D01*
Y307063D01*
X371772D01*
Y307827D01*
X386470D01*
X387449Y306848D01*
X387304Y306369D01*
X386578Y306225D01*
X385797Y305703D01*
X385291Y304946D01*
X384800Y305043D01*
X384725Y305422D01*
X384203Y306203D01*
X383422Y306725D01*
X383000Y306809D01*
Y304500D01*
Y302191D01*
X383422Y302275D01*
X384203Y302797D01*
X384709Y303554D01*
X385200Y303457D01*
X385275Y303078D01*
X385797Y302297D01*
X386578Y301775D01*
X387000Y301691D01*
Y304000D01*
X388000D01*
Y301691D01*
X388422Y301775D01*
X389203Y302297D01*
X389725Y303078D01*
X389869Y303804D01*
X390348Y303949D01*
X391209Y303088D01*
X391091Y302500D01*
X391275Y301578D01*
X391797Y300797D01*
X392578Y300275D01*
X393500Y300092D01*
X394422Y300275D01*
X395203Y300797D01*
X395725Y301578D01*
X395908Y302500D01*
X395725Y303422D01*
X395203Y304203D01*
X394422Y304725D01*
X393500Y304908D01*
X392912Y304791D01*
X387820Y309883D01*
X387820Y309883D01*
X386704Y310999D01*
Y323063D01*
X387272D01*
Y326646D01*
X387272Y326646D01*
X387272D01*
X387272Y327000D01*
Y327000D01*
D01*
Y327210D01*
X387625Y327564D01*
X392142D01*
Y325504D01*
X391480D01*
Y317827D01*
X392142D01*
Y316525D01*
X392000Y316408D01*
X391078Y316225D01*
X390297Y315703D01*
X389775Y314922D01*
X389592Y314000D01*
X389775Y313078D01*
X390297Y312297D01*
X391078Y311775D01*
X392000Y311592D01*
X392922Y311775D01*
X393703Y312297D01*
X394225Y313078D01*
X394408Y314000D01*
X394338Y314352D01*
X394541Y314554D01*
X394845Y315010D01*
X394952Y315547D01*
Y317827D01*
X395614D01*
Y325504D01*
X394952D01*
Y329000D01*
Y338102D01*
X395614D01*
Y345779D01*
X391480D01*
Y341861D01*
X389993Y340373D01*
X387272D01*
Y340937D01*
X384577D01*
X384386Y341399D01*
X385493Y342507D01*
X385798Y342962D01*
X385905Y343500D01*
Y343563D01*
X386272D01*
Y347146D01*
X386272Y347147D01*
X386272D01*
X386272Y347500D01*
Y347500D01*
D01*
X386272Y347854D01*
X386272Y347854D01*
X386272D01*
Y350646D01*
X386742Y350739D01*
X387228Y350253D01*
Y348854D01*
X387228Y348854D01*
X387228D01*
X387228Y348500D01*
Y348500D01*
D01*
X387228Y348146D01*
X387228Y348146D01*
X387228D01*
Y347031D01*
X390772D01*
Y348146D01*
X390772Y348146D01*
X390772D01*
X390772Y348500D01*
Y348500D01*
D01*
X390772Y348854D01*
X390772Y348854D01*
X390772D01*
Y352437D01*
X389018D01*
X388397Y353059D01*
X388367Y353208D01*
X388684Y353594D01*
X392954D01*
X394369Y352180D01*
X394369Y352180D01*
X394760Y351919D01*
X394760Y351919D01*
X394760Y351919D01*
D01*
X394760Y351919D01*
X394760Y351919D01*
X395220Y351827D01*
X395228Y351788D01*
Y351063D01*
X398772D01*
Y355000D01*
D01*
Y355000D01*
X398772Y355000D01*
Y355000D01*
X398772D01*
X398772D01*
Y356469D01*
X397000D01*
Y357469D01*
X398772D01*
Y358937D01*
D01*
Y358937D01*
X398772Y358937D01*
X398772Y359063D01*
X398772D01*
Y360531D01*
X397000D01*
Y361531D01*
X398772D01*
Y363000D01*
D01*
Y363000D01*
X398772Y363000D01*
Y363000D01*
X398772D01*
X398772D01*
Y366937D01*
X398493D01*
X398257Y367378D01*
X398725Y368078D01*
X398908Y369000D01*
X398725Y369922D01*
X398203Y370703D01*
X397422Y371225D01*
X397199Y371269D01*
X397054Y371748D01*
X399274Y373969D01*
X399736Y373777D01*
Y371783D01*
X401500D01*
Y374342D01*
X402500D01*
Y371783D01*
X404264D01*
D01*
X404264D01*
X404500Y371547D01*
Y366872D01*
X404022Y366726D01*
X403703Y367203D01*
X402922Y367725D01*
X402500Y367809D01*
Y365500D01*
Y363191D01*
X402922Y363275D01*
X403703Y363797D01*
X404022Y364274D01*
X404500Y364128D01*
Y361717D01*
X404500D01*
X404264D01*
X404146Y361717D01*
X404146Y361717D01*
Y361717D01*
X402500D01*
Y359157D01*
X402000D01*
Y358658D01*
X399736D01*
Y356755D01*
X399736Y356755D01*
X399736D01*
X399736Y356598D01*
Y356500D01*
Y356402D01*
X399736Y356245D01*
X399736Y356245D01*
X399736D01*
Y351284D01*
X400796D01*
Y350536D01*
X400297Y350203D01*
X399775Y349422D01*
X399591Y348500D01*
X399775Y347578D01*
X400297Y346797D01*
X401078Y346275D01*
X401078D01*
X400993Y345845D01*
D01*
Y345845D01*
X400993Y345845D01*
D01*
Y345845D01*
X400980Y345779D01*
X399756D01*
Y342441D01*
X401323D01*
Y345711D01*
X401323D01*
Y345779D01*
X401323D01*
Y345779D01*
D01*
D01*
X401339Y345862D01*
X401755Y346140D01*
X402000Y346092D01*
X402922Y346275D01*
X403703Y346797D01*
X404022Y347274D01*
X404500Y347128D01*
Y317000D01*
X483500D01*
Y297000D01*
X505000D01*
Y244000D01*
X500860D01*
X500700Y244474D01*
X501167Y244832D01*
X501767Y245614D01*
X502144Y246524D01*
X502272Y247500D01*
X502144Y248476D01*
X501767Y249386D01*
X501276Y250026D01*
X501185Y250719D01*
X500907Y251390D01*
X500465Y251965D01*
X494966Y257466D01*
X494390Y257907D01*
X493719Y258185D01*
X493000Y258280D01*
X482500D01*
X481781Y258185D01*
X481110Y257907D01*
X480535Y257466D01*
X475250Y252181D01*
X469465Y257965D01*
X468890Y258407D01*
X468219Y258685D01*
X467500Y258780D01*
X437000D01*
X436281Y258685D01*
X435610Y258407D01*
X435035Y257965D01*
X428317Y251248D01*
X427524Y251144D01*
X426614Y250767D01*
X425833Y250167D01*
X425233Y249386D01*
X424856Y248476D01*
X424728Y247500D01*
X424856Y246524D01*
X425233Y245614D01*
X425833Y244832D01*
X426300Y244474D01*
X426140Y244000D01*
X420860D01*
X420700Y244474D01*
X421168Y244832D01*
X421767Y245614D01*
X422144Y246524D01*
X422272Y247500D01*
X422144Y248476D01*
X421767Y249386D01*
X421168Y250167D01*
X420386Y250767D01*
X419476Y251144D01*
X418500Y251272D01*
X417524Y251144D01*
X416614Y250767D01*
X415833Y250167D01*
X415233Y249386D01*
X414856Y248476D01*
X414728Y247500D01*
X414856Y246524D01*
X415233Y245614D01*
X415833Y244832D01*
X416300Y244474D01*
X416140Y244000D01*
X396740D01*
Y250740D01*
X389260D01*
Y244000D01*
X385978D01*
X385756Y244448D01*
X386267Y245114D01*
X386644Y246024D01*
X386772Y247000D01*
X386644Y247976D01*
X386267Y248886D01*
X385667Y249668D01*
X384886Y250267D01*
X383976Y250644D01*
X383000Y250772D01*
X382024Y250644D01*
X381114Y250267D01*
X380332Y249668D01*
X379733Y248886D01*
X379356Y247976D01*
X379228Y247000D01*
X379356Y246024D01*
X379733Y245114D01*
X380243Y244448D01*
X380022Y244000D01*
X375978D01*
X375757Y244448D01*
X376267Y245114D01*
X376644Y246024D01*
X376772Y247000D01*
X376644Y247976D01*
X376267Y248886D01*
X375668Y249668D01*
X374886Y250267D01*
X373976Y250644D01*
X373000Y250772D01*
X372024Y250644D01*
X371114Y250267D01*
X370333Y249668D01*
X369733Y248886D01*
X369356Y247976D01*
X369228Y247000D01*
X369356Y246024D01*
X369733Y245114D01*
X370244Y244448D01*
X370022Y244000D01*
X365978D01*
X365757Y244448D01*
X366267Y245114D01*
X366644Y246024D01*
X366772Y247000D01*
X366644Y247976D01*
X366267Y248886D01*
X365668Y249668D01*
X364886Y250267D01*
X363976Y250644D01*
X363000Y250772D01*
X362024Y250644D01*
X361114Y250267D01*
X360332Y249668D01*
X359733Y248886D01*
X359356Y247976D01*
X359228Y247000D01*
X359356Y246024D01*
X359733Y245114D01*
X360244Y244448D01*
X360022Y244000D01*
X355978D01*
X355756Y244448D01*
X356267Y245114D01*
X356644Y246024D01*
X356772Y247000D01*
X356644Y247976D01*
X356267Y248886D01*
X355667Y249668D01*
X354886Y250267D01*
X353976Y250644D01*
X353000Y250772D01*
X352024Y250644D01*
X351114Y250267D01*
X350332Y249668D01*
X349733Y248886D01*
X349356Y247976D01*
X349340Y247857D01*
X348841Y247841D01*
X348725Y248422D01*
X348203Y249203D01*
X347422Y249725D01*
X347000Y249809D01*
Y247500D01*
Y245191D01*
X347422Y245275D01*
X348203Y245797D01*
X348725Y246578D01*
X348762Y246761D01*
X349261Y246745D01*
X349356Y246024D01*
X349733Y245114D01*
X350243Y244448D01*
X350022Y244000D01*
X342500D01*
Y285965D01*
X342941Y286201D01*
X343578Y285775D01*
X344000Y285691D01*
Y288000D01*
Y290309D01*
X343578Y290225D01*
X342941Y289799D01*
X342500Y290035D01*
Y311017D01*
X342568Y311062D01*
X342731Y311307D01*
X342807D01*
Y317500D01*
X342000D01*
Y318500D01*
X342807D01*
Y324693D01*
X342807D01*
X342807Y325154D01*
X342857Y325228D01*
X344500D01*
D01*
X344500Y325228D01*
X344500Y325228D01*
X344500D01*
Y325228D01*
Y325228D01*
X345057D01*
X345106Y324731D01*
X345078Y324725D01*
X344297Y324203D01*
X343775Y323422D01*
X343691Y323000D01*
X348309D01*
X348225Y323422D01*
X347986Y323779D01*
X348222Y324220D01*
X367500D01*
X368219Y324315D01*
X368890Y324593D01*
X369465Y325034D01*
X369465Y325034D01*
X369465Y325034D01*
X377509Y333078D01*
X377951Y333653D01*
X378228Y334324D01*
X378323Y335043D01*
X378323Y335043D01*
X378323Y335043D01*
Y335043D01*
Y338000D01*
X378299Y338181D01*
Y340024D01*
Y341000D01*
X372787D01*
Y340024D01*
Y338181D01*
X372764Y338000D01*
Y337829D01*
X372720Y337500D01*
X372764Y337171D01*
Y336195D01*
X366349Y329780D01*
X352290D01*
X352145Y330258D01*
X352203Y330297D01*
X352491Y330728D01*
X353063Y330728D01*
Y330728D01*
X354532D01*
Y332500D01*
Y334272D01*
X353063D01*
Y333277D01*
X352585Y333132D01*
X352203Y333703D01*
X351422Y334225D01*
X351000Y334309D01*
Y332000D01*
X350000D01*
Y334309D01*
X349578Y334225D01*
X348797Y333703D01*
X348750Y333633D01*
X348272Y333778D01*
Y334469D01*
X344728D01*
Y333354D01*
X344728Y333354D01*
X344728D01*
X344728Y333000D01*
Y333000D01*
D01*
X344728Y332646D01*
X344728Y332646D01*
X344728D01*
Y331206D01*
X344694Y331031D01*
Y328772D01*
X344500Y328772D01*
D01*
X344500D01*
Y328772D01*
D01*
X342500D01*
Y417000D01*
X356396D01*
X356714Y416613D01*
D02*
G37*
G36*
X379903Y416522D02*
X379883Y416508D01*
X379648Y416352D01*
X379648Y416352D01*
X376265Y412968D01*
X375786Y413113D01*
X375725Y413422D01*
X375203Y414203D01*
X374422Y414725D01*
X373500Y414909D01*
X372578Y414725D01*
X371797Y414203D01*
X371742Y414121D01*
X371264Y414266D01*
Y414386D01*
X367293D01*
X367057Y414827D01*
X367225Y415078D01*
X367408Y416000D01*
X367286Y416613D01*
X367604Y417000D01*
X379758D01*
X379903Y416522D01*
D02*
G37*
G36*
X404500Y396492D02*
X404022Y396347D01*
X403852Y396602D01*
X403852Y396602D01*
X396010Y404443D01*
X396302Y404849D01*
X397000Y404500D01*
X398500D01*
X401500Y405500D01*
X403000Y407000D01*
X404000Y410000D01*
Y411000D01*
X403500Y413000D01*
X402500Y414500D01*
X400500Y416000D01*
X398000Y416500D01*
X396000Y416000D01*
X394000Y415000D01*
X392602Y413136D01*
X392103Y413100D01*
X388851Y416352D01*
X388597Y416522D01*
X388742Y417000D01*
X404500D01*
Y396492D01*
D02*
G37*
G36*
X388539Y413258D02*
X388241Y412857D01*
X387574Y413213D01*
X386312Y413596D01*
X385000Y413725D01*
X383688Y413596D01*
X382426Y413213D01*
X381264Y412592D01*
X380244Y411756D01*
X379408Y410736D01*
X378787Y409574D01*
X378404Y408312D01*
X378275Y407000D01*
X378404Y405688D01*
X378787Y404426D01*
X379408Y403264D01*
X380244Y402245D01*
X381264Y401408D01*
X382426Y400787D01*
X383688Y400404D01*
X385000Y400275D01*
X386312Y400404D01*
X387574Y400787D01*
X388709Y401394D01*
X389110Y401096D01*
X389091Y401000D01*
X389275Y400078D01*
X389797Y399297D01*
X390578Y398775D01*
X391000Y398691D01*
Y401000D01*
Y403532D01*
X390846Y403739D01*
X391213Y404426D01*
X391434Y405154D01*
X391929Y405227D01*
X392148Y404899D01*
X401796Y395251D01*
Y394177D01*
X401317Y394032D01*
X401203Y394203D01*
X400422Y394725D01*
X399500Y394908D01*
X398578Y394725D01*
X397797Y394203D01*
X397275Y393422D01*
X397092Y392500D01*
X397173Y392091D01*
X396856Y391704D01*
X394104D01*
X394055Y392202D01*
X394422Y392275D01*
X395203Y392797D01*
X395725Y393578D01*
X395809Y394000D01*
X391191D01*
X391275Y393578D01*
X391797Y392797D01*
X392578Y392275D01*
X392945Y392202D01*
X392896Y391704D01*
X376000D01*
X375539Y391613D01*
X375149Y391352D01*
X371726Y387929D01*
X371264Y388120D01*
Y392796D01*
X374063D01*
Y392228D01*
X377646D01*
X377646Y392228D01*
Y392228D01*
X378000Y392228D01*
X378000D01*
D01*
X378354Y392228D01*
X378354Y392228D01*
Y392228D01*
X381937D01*
Y392796D01*
X386000D01*
X386000Y392796D01*
X386036Y392803D01*
X386078Y392775D01*
X387000Y392592D01*
X387922Y392775D01*
X388703Y393297D01*
X389225Y394078D01*
X389408Y395000D01*
X389225Y395922D01*
X388703Y396703D01*
X387922Y397225D01*
X387000Y397409D01*
X386078Y397225D01*
X385297Y396703D01*
X384775Y395922D01*
X384632Y395204D01*
X381937D01*
Y395772D01*
X378354D01*
X378354Y395772D01*
Y395772D01*
X378000Y395772D01*
X378000D01*
D01*
X377646Y395772D01*
X377646Y395772D01*
Y395772D01*
X374063D01*
Y395204D01*
X371264D01*
Y398638D01*
X366736D01*
Y398638D01*
X366381D01*
X366225Y399422D01*
X365936Y399855D01*
X366172Y400296D01*
X371500D01*
X371500Y400296D01*
X371961Y400387D01*
X372352Y400648D01*
X374352Y402648D01*
X374352Y402648D01*
X374613Y403039D01*
X374613Y403039D01*
X374613Y403039D01*
X374704Y403500D01*
X374704Y403500D01*
Y408001D01*
X380999Y414296D01*
X387501D01*
X388539Y413258D01*
D02*
G37*
%LPC*%
G36*
X452000Y278309D02*
Y276500D01*
X453809D01*
X453725Y276922D01*
X453203Y277703D01*
X452422Y278225D01*
X452000Y278309D01*
D02*
G37*
G36*
X407500Y279309D02*
X407078Y279225D01*
X406297Y278703D01*
X405775Y277922D01*
X405691Y277500D01*
X407500D01*
Y279309D01*
D02*
G37*
G36*
X451000Y278309D02*
X450578Y278225D01*
X449797Y277703D01*
X449275Y276922D01*
X449191Y276500D01*
X451000D01*
Y278309D01*
D02*
G37*
G36*
X500000Y277500D02*
X498191D01*
X498275Y277078D01*
X498797Y276297D01*
X499578Y275775D01*
X500000Y275691D01*
Y277500D01*
D02*
G37*
G36*
X502809D02*
X501000D01*
Y275691D01*
X501422Y275775D01*
X502203Y276297D01*
X502725Y277078D01*
X502809Y277500D01*
D02*
G37*
G36*
X457500Y280309D02*
X457078Y280225D01*
X456297Y279703D01*
X455775Y278922D01*
X455691Y278500D01*
X457500D01*
Y280309D01*
D02*
G37*
G36*
X458500D02*
Y278500D01*
X460309D01*
X460225Y278922D01*
X459703Y279703D01*
X458922Y280225D01*
X458500Y280309D01*
D02*
G37*
G36*
X393000Y279809D02*
Y278000D01*
X394809D01*
X394725Y278422D01*
X394203Y279203D01*
X393422Y279725D01*
X393000Y279809D01*
D02*
G37*
G36*
X408500Y279309D02*
Y277500D01*
X410309D01*
X410225Y277922D01*
X409703Y278703D01*
X408922Y279225D01*
X408500Y279309D01*
D02*
G37*
G36*
X392000Y279809D02*
X391578Y279725D01*
X390797Y279203D01*
X390275Y278422D01*
X390191Y278000D01*
X392000D01*
Y279809D01*
D02*
G37*
G36*
X460309Y277500D02*
X458500D01*
Y275691D01*
X458922Y275775D01*
X459703Y276297D01*
X460225Y277078D01*
X460309Y277500D01*
D02*
G37*
G36*
X487362Y275528D02*
X487048Y275465D01*
X486358Y275004D01*
X485897Y274314D01*
X485834Y274000D01*
X487362D01*
Y275528D01*
D02*
G37*
G36*
X488362D02*
Y274000D01*
X489890D01*
X489828Y274314D01*
X489367Y275004D01*
X488676Y275465D01*
X488362Y275528D01*
D02*
G37*
G36*
X483638D02*
Y274000D01*
X485166D01*
X485103Y274314D01*
X484642Y275004D01*
X483952Y275465D01*
X483638Y275528D01*
D02*
G37*
G36*
X453809Y275500D02*
X452000D01*
Y273691D01*
X452422Y273775D01*
X453203Y274297D01*
X453725Y275078D01*
X453809Y275500D01*
D02*
G37*
G36*
X482638Y275528D02*
X482324Y275465D01*
X481633Y275004D01*
X481172Y274314D01*
X481110Y274000D01*
X482638D01*
Y275528D01*
D02*
G37*
G36*
X394809Y277000D02*
X393000D01*
Y275191D01*
X393422Y275275D01*
X394203Y275797D01*
X394725Y276578D01*
X394809Y277000D01*
D02*
G37*
G36*
X457500Y277500D02*
X455691D01*
X455775Y277078D01*
X456297Y276297D01*
X457078Y275775D01*
X457500Y275691D01*
Y277500D01*
D02*
G37*
G36*
X392000Y277000D02*
X390191D01*
X390275Y276578D01*
X390797Y275797D01*
X391578Y275275D01*
X392000Y275191D01*
Y277000D01*
D02*
G37*
G36*
X407500Y276500D02*
X405691D01*
X405775Y276078D01*
X406297Y275297D01*
X407078Y274775D01*
X407500Y274691D01*
Y276500D01*
D02*
G37*
G36*
X410309D02*
X408500D01*
Y274691D01*
X408922Y274775D01*
X409703Y275297D01*
X410225Y276078D01*
X410309Y276500D01*
D02*
G37*
G36*
X396000Y290000D02*
X394191D01*
X394275Y289578D01*
X394797Y288797D01*
X395578Y288275D01*
X396000Y288191D01*
Y290000D01*
D02*
G37*
G36*
X398809D02*
X397000D01*
Y288191D01*
X397422Y288275D01*
X398203Y288797D01*
X398725Y289578D01*
X398809Y290000D01*
D02*
G37*
G36*
X375500Y292909D02*
X374578Y292725D01*
X373797Y292203D01*
X373275Y291422D01*
X373092Y290500D01*
X373275Y289578D01*
X373797Y288797D01*
X374578Y288275D01*
X375500Y288091D01*
X376422Y288275D01*
X377203Y288797D01*
X377725Y289578D01*
X377908Y290500D01*
X377725Y291422D01*
X377203Y292203D01*
X376422Y292725D01*
X375500Y292909D01*
D02*
G37*
G36*
X388000Y286309D02*
Y284500D01*
X389809D01*
X389725Y284922D01*
X389203Y285703D01*
X388422Y286225D01*
X388000Y286309D01*
D02*
G37*
G36*
X346809Y287500D02*
X345000D01*
Y285691D01*
X345422Y285775D01*
X346203Y286297D01*
X346725Y287078D01*
X346809Y287500D01*
D02*
G37*
G36*
X345000Y290309D02*
Y288500D01*
X346809D01*
X346725Y288922D01*
X346203Y289703D01*
X345422Y290225D01*
X345000Y290309D01*
D02*
G37*
G36*
X396000Y292809D02*
X395578Y292725D01*
X394797Y292203D01*
X394275Y291422D01*
X394191Y291000D01*
X396000D01*
Y292809D01*
D02*
G37*
G36*
X397000D02*
Y291000D01*
X398809D01*
X398725Y291422D01*
X398203Y292203D01*
X397422Y292725D01*
X397000Y292809D01*
D02*
G37*
G36*
X431968Y292377D02*
X431047Y292194D01*
X430266Y291672D01*
X429806Y290984D01*
X429766Y291000D01*
X427500D01*
Y289191D01*
X427922Y289275D01*
X428703Y289797D01*
X429163Y290485D01*
X429625Y290294D01*
X429560Y289968D01*
X429652Y289508D01*
X429572Y289428D01*
X429287Y289002D01*
X429187Y288500D01*
Y276964D01*
X428797Y276703D01*
X428275Y275922D01*
X428091Y275000D01*
X428275Y274078D01*
X428797Y273297D01*
X429578Y272775D01*
X430500Y272591D01*
X431422Y272775D01*
X432203Y273297D01*
X432725Y274078D01*
X432908Y275000D01*
X432725Y275922D01*
X432203Y276703D01*
X431813Y276964D01*
Y287432D01*
X431968Y287560D01*
X432890Y287743D01*
X433672Y288265D01*
X434194Y289047D01*
X434377Y289968D01*
X434194Y290890D01*
X433672Y291672D01*
X432890Y292194D01*
X431968Y292377D01*
D02*
G37*
G36*
X361000Y293408D02*
X360078Y293225D01*
X359297Y292703D01*
X358775Y291922D01*
X358592Y291000D01*
X358775Y290078D01*
X359297Y289297D01*
X360078Y288775D01*
X361000Y288592D01*
X361922Y288775D01*
X362703Y289297D01*
X363225Y290078D01*
X363408Y291000D01*
X363225Y291922D01*
X362703Y292703D01*
X361922Y293225D01*
X361000Y293408D01*
D02*
G37*
G36*
X426500Y291000D02*
X424691D01*
X424775Y290578D01*
X425297Y289797D01*
X426078Y289275D01*
X426500Y289191D01*
Y291000D01*
D02*
G37*
G36*
X418309Y281500D02*
X416500D01*
Y279691D01*
X416922Y279775D01*
X417703Y280297D01*
X418225Y281078D01*
X418309Y281500D01*
D02*
G37*
G36*
X469000Y283000D02*
X467191D01*
X467275Y282578D01*
X467797Y281797D01*
X468578Y281275D01*
X469000Y281191D01*
Y283000D01*
D02*
G37*
G36*
X415500Y281500D02*
X413691D01*
X413775Y281078D01*
X414297Y280297D01*
X415078Y279775D01*
X415500Y279691D01*
Y281500D01*
D02*
G37*
G36*
X500000Y280309D02*
X499578Y280225D01*
X498797Y279703D01*
X498275Y278922D01*
X498191Y278500D01*
X500000D01*
Y280309D01*
D02*
G37*
G36*
X501000D02*
Y278500D01*
X502809D01*
X502725Y278922D01*
X502203Y279703D01*
X501422Y280225D01*
X501000Y280309D01*
D02*
G37*
G36*
X471809Y283000D02*
X470000D01*
Y281191D01*
X470422Y281275D01*
X471203Y281797D01*
X471725Y282578D01*
X471809Y283000D01*
D02*
G37*
G36*
X416500Y284309D02*
Y282500D01*
X418309D01*
X418225Y282922D01*
X417703Y283703D01*
X416922Y284225D01*
X416500Y284309D01*
D02*
G37*
G36*
X387000Y286309D02*
X386578Y286225D01*
X385797Y285703D01*
X385275Y284922D01*
X385191Y284500D01*
X387000D01*
Y286309D01*
D02*
G37*
G36*
X415500Y284309D02*
X415078Y284225D01*
X414297Y283703D01*
X413775Y282922D01*
X413691Y282500D01*
X415500D01*
Y284309D01*
D02*
G37*
G36*
X387000Y283500D02*
X385191D01*
X385275Y283078D01*
X385797Y282297D01*
X386578Y281775D01*
X387000Y281691D01*
Y283500D01*
D02*
G37*
G36*
X389809D02*
X388000D01*
Y281691D01*
X388422Y281775D01*
X389203Y282297D01*
X389725Y283078D01*
X389809Y283500D01*
D02*
G37*
G36*
X468000Y263500D02*
X466191D01*
X466275Y263078D01*
X466797Y262297D01*
X467578Y261775D01*
X468000Y261691D01*
Y263500D01*
D02*
G37*
G36*
X423500Y265309D02*
X423078Y265225D01*
X422297Y264703D01*
X421775Y263922D01*
X421691Y263500D01*
X423500D01*
Y265309D01*
D02*
G37*
G36*
X403500Y266408D02*
X402578Y266225D01*
X401797Y265703D01*
X401275Y264922D01*
X401091Y264000D01*
X401275Y263078D01*
X401797Y262297D01*
X402578Y261775D01*
X403500Y261592D01*
X404422Y261775D01*
X405203Y262297D01*
X405725Y263078D01*
X405908Y264000D01*
X405725Y264922D01*
X405203Y265703D01*
X404422Y266225D01*
X403500Y266408D01*
D02*
G37*
G36*
X423500Y262500D02*
X421691D01*
X421775Y262078D01*
X422297Y261297D01*
X423078Y260775D01*
X423500Y260691D01*
Y262500D01*
D02*
G37*
G36*
X426309D02*
X424500D01*
Y260691D01*
X424922Y260775D01*
X425703Y261297D01*
X426225Y262078D01*
X426309Y262500D01*
D02*
G37*
G36*
X360309Y266000D02*
X358500D01*
Y264191D01*
X358922Y264275D01*
X359703Y264797D01*
X360225Y265578D01*
X360309Y266000D01*
D02*
G37*
G36*
X367000D02*
X365191D01*
X365275Y265578D01*
X365797Y264797D01*
X366578Y264275D01*
X367000Y264191D01*
Y266000D01*
D02*
G37*
G36*
X357500D02*
X355691D01*
X355775Y265578D01*
X356297Y264797D01*
X357078Y264275D01*
X357500Y264191D01*
Y266000D01*
D02*
G37*
G36*
X424500Y265309D02*
Y263500D01*
X426309D01*
X426225Y263922D01*
X425703Y264703D01*
X424922Y265225D01*
X424500Y265309D01*
D02*
G37*
G36*
X475309Y265500D02*
X473500D01*
Y263691D01*
X473922Y263775D01*
X474703Y264297D01*
X475225Y265078D01*
X475309Y265500D01*
D02*
G37*
G36*
X501000Y259309D02*
Y257500D01*
X502809D01*
X502725Y257922D01*
X502203Y258703D01*
X501422Y259225D01*
X501000Y259309D01*
D02*
G37*
G36*
X481500Y248809D02*
Y247000D01*
X483309D01*
X483225Y247422D01*
X482703Y248203D01*
X481922Y248725D01*
X481500Y248809D01*
D02*
G37*
G36*
X346000Y249809D02*
X345578Y249725D01*
X344797Y249203D01*
X344275Y248422D01*
X344191Y248000D01*
X346000D01*
Y249809D01*
D02*
G37*
G36*
X411809Y247000D02*
X410000D01*
Y245191D01*
X410422Y245275D01*
X411203Y245797D01*
X411725Y246578D01*
X411809Y247000D01*
D02*
G37*
G36*
X346000D02*
X344191D01*
X344275Y246578D01*
X344797Y245797D01*
X345578Y245275D01*
X346000Y245191D01*
Y247000D01*
D02*
G37*
G36*
X409000D02*
X407191D01*
X407275Y246578D01*
X407797Y245797D01*
X408578Y245275D01*
X409000Y245191D01*
Y247000D01*
D02*
G37*
G36*
X502809Y256500D02*
X501000D01*
Y254691D01*
X501422Y254775D01*
X502203Y255297D01*
X502725Y256078D01*
X502809Y256500D01*
D02*
G37*
G36*
X500000Y259309D02*
X499578Y259225D01*
X498797Y258703D01*
X498275Y257922D01*
X498191Y257500D01*
X500000D01*
Y259309D01*
D02*
G37*
G36*
Y256500D02*
X498191D01*
X498275Y256078D01*
X498797Y255297D01*
X499578Y254775D01*
X500000Y254691D01*
Y256500D01*
D02*
G37*
G36*
X409000Y249809D02*
X408578Y249725D01*
X407797Y249203D01*
X407275Y248422D01*
X407191Y248000D01*
X409000D01*
Y249809D01*
D02*
G37*
G36*
X410000D02*
Y248000D01*
X411809D01*
X411725Y248422D01*
X411203Y249203D01*
X410422Y249725D01*
X410000Y249809D01*
D02*
G37*
G36*
X369809Y266000D02*
X368000D01*
Y264191D01*
X368422Y264275D01*
X369203Y264797D01*
X369725Y265578D01*
X369809Y266000D01*
D02*
G37*
G36*
X501000Y269309D02*
Y267500D01*
X502809D01*
X502725Y267922D01*
X502203Y268703D01*
X501422Y269225D01*
X501000Y269309D01*
D02*
G37*
G36*
X424000Y272409D02*
X423078Y272225D01*
X422297Y271703D01*
X421775Y270922D01*
X421592Y270000D01*
X421775Y269078D01*
X422297Y268297D01*
X423078Y267775D01*
X424000Y267592D01*
X424922Y267775D01*
X425703Y268297D01*
X426225Y269078D01*
X426408Y270000D01*
X426225Y270922D01*
X425703Y271703D01*
X424922Y272225D01*
X424000Y272409D01*
D02*
G37*
G36*
X500000Y269309D02*
X499578Y269225D01*
X498797Y268703D01*
X498275Y267922D01*
X498191Y267500D01*
X500000D01*
Y269309D01*
D02*
G37*
G36*
X377000Y268809D02*
X376578Y268725D01*
X375797Y268203D01*
X375275Y267422D01*
X375191Y267000D01*
X377000D01*
Y268809D01*
D02*
G37*
G36*
X378000D02*
Y267000D01*
X379809D01*
X379725Y267422D01*
X379203Y268203D01*
X378422Y268725D01*
X378000Y268809D01*
D02*
G37*
G36*
X489890Y273000D02*
X488362D01*
Y271472D01*
X488676Y271534D01*
X489367Y271996D01*
X489828Y272686D01*
X489890Y273000D01*
D02*
G37*
G36*
X451000Y275500D02*
X449191D01*
X449275Y275078D01*
X449797Y274297D01*
X450578Y273775D01*
X451000Y273691D01*
Y275500D01*
D02*
G37*
G36*
X487362Y273000D02*
X485834D01*
X485897Y272686D01*
X486358Y271996D01*
X487048Y271534D01*
X487362Y271472D01*
Y273000D01*
D02*
G37*
G36*
X482638D02*
X481110D01*
X481172Y272686D01*
X481633Y271996D01*
X482324Y271534D01*
X482638Y271472D01*
Y273000D01*
D02*
G37*
G36*
X485166D02*
X483638D01*
Y271472D01*
X483952Y271534D01*
X484642Y271996D01*
X485103Y272686D01*
X485166Y273000D01*
D02*
G37*
G36*
X368000Y268809D02*
Y267000D01*
X369809D01*
X369725Y267422D01*
X369203Y268203D01*
X368422Y268725D01*
X368000Y268809D01*
D02*
G37*
G36*
X500000Y266500D02*
X498191D01*
X498275Y266078D01*
X498797Y265297D01*
X499578Y264775D01*
X500000Y264691D01*
Y266500D01*
D02*
G37*
G36*
X502809D02*
X501000D01*
Y264691D01*
X501422Y264775D01*
X502203Y265297D01*
X502725Y266078D01*
X502809Y266500D01*
D02*
G37*
G36*
X468000Y266309D02*
X467578Y266225D01*
X466797Y265703D01*
X466275Y264922D01*
X466191Y264500D01*
X468000D01*
Y266309D01*
D02*
G37*
G36*
X377000Y266000D02*
X375191D01*
X375275Y265578D01*
X375797Y264797D01*
X376578Y264275D01*
X377000Y264191D01*
Y266000D01*
D02*
G37*
G36*
X379809D02*
X378000D01*
Y264191D01*
X378422Y264275D01*
X379203Y264797D01*
X379725Y265578D01*
X379809Y266000D01*
D02*
G37*
G36*
X358500Y268809D02*
Y267000D01*
X360309D01*
X360225Y267422D01*
X359703Y268203D01*
X358922Y268725D01*
X358500Y268809D01*
D02*
G37*
G36*
X367000D02*
X366578Y268725D01*
X365797Y268203D01*
X365275Y267422D01*
X365191Y267000D01*
X367000D01*
Y268809D01*
D02*
G37*
G36*
X357500D02*
X357078Y268725D01*
X356297Y268203D01*
X355775Y267422D01*
X355691Y267000D01*
X357500D01*
Y268809D01*
D02*
G37*
G36*
X472500Y268309D02*
X472078Y268225D01*
X471297Y267703D01*
X470775Y266922D01*
X470591Y266000D01*
X470592Y265999D01*
X470176Y265721D01*
X469422Y266225D01*
X469000Y266309D01*
Y264000D01*
Y261691D01*
X469422Y261775D01*
X470203Y262297D01*
X470725Y263078D01*
X470908Y264000D01*
X470908Y264001D01*
X471324Y264279D01*
X472078Y263775D01*
X472500Y263691D01*
Y266000D01*
Y268309D01*
D02*
G37*
G36*
X473500D02*
Y266500D01*
X475309D01*
X475225Y266922D01*
X474703Y267703D01*
X473922Y268225D01*
X473500Y268309D01*
D02*
G37*
G36*
X448000Y292225D02*
X446688Y292096D01*
X445426Y291713D01*
X445188Y291586D01*
X444786Y291883D01*
X444809Y292000D01*
X440191D01*
X440275Y291578D01*
X440797Y290797D01*
X441578Y290275D01*
X442500Y290091D01*
X442501Y290092D01*
X442758Y289663D01*
X442408Y289236D01*
X441787Y288074D01*
X441404Y286812D01*
X441275Y285500D01*
X441404Y284188D01*
X441787Y282926D01*
X442408Y281764D01*
X443245Y280745D01*
X444264Y279908D01*
X445426Y279287D01*
X446688Y278904D01*
X448000Y278775D01*
X449312Y278904D01*
X450574Y279287D01*
X451736Y279908D01*
X452755Y280745D01*
X453592Y281764D01*
X454213Y282926D01*
X454596Y284188D01*
X454725Y285500D01*
X454596Y286812D01*
X454213Y288074D01*
X453592Y289236D01*
X452755Y290255D01*
X451736Y291092D01*
X450574Y291713D01*
X449312Y292096D01*
X448000Y292225D01*
D02*
G37*
G36*
X348272Y336937D02*
X347000D01*
Y335469D01*
X348272D01*
Y336937D01*
D02*
G37*
G36*
X367858Y338441D02*
X365602D01*
Y337465D01*
X367858D01*
Y338441D01*
D02*
G37*
G36*
X346000Y336937D02*
X344728D01*
Y335469D01*
X346000D01*
Y336937D01*
D02*
G37*
G36*
X353252Y337661D02*
X351193D01*
Y335405D01*
X353252D01*
Y337661D01*
D02*
G37*
G36*
X356311D02*
X354252D01*
Y335405D01*
X356311D01*
Y337661D01*
D02*
G37*
G36*
X371114Y338441D02*
X368858D01*
Y337465D01*
X371114D01*
Y338441D01*
D02*
G37*
G36*
X356311Y340917D02*
X354252D01*
Y338661D01*
X356311D01*
Y340917D01*
D02*
G37*
G36*
X371114Y341000D02*
X365602D01*
Y340024D01*
Y339441D01*
X371114D01*
Y340024D01*
Y341000D01*
D02*
G37*
G36*
X353252Y340917D02*
X351193D01*
Y338661D01*
X353252D01*
Y340917D01*
D02*
G37*
G36*
X398756Y341441D02*
X397189D01*
Y338102D01*
X398756D01*
Y341441D01*
D02*
G37*
G36*
X401323D02*
X399756D01*
Y338102D01*
X401323D01*
Y341441D01*
D02*
G37*
G36*
X401565Y331000D02*
X399756D01*
Y329191D01*
X400178Y329275D01*
X400959Y329797D01*
X401481Y330578D01*
X401565Y331000D01*
D02*
G37*
G36*
X365500Y333500D02*
X363691D01*
X363775Y333078D01*
X364297Y332297D01*
X365078Y331775D01*
X365500Y331691D01*
Y333500D01*
D02*
G37*
G36*
X398756Y331000D02*
X396947D01*
X397031Y330578D01*
X397553Y329797D01*
X398334Y329275D01*
X398756Y329191D01*
Y331000D01*
D02*
G37*
G36*
X380000D02*
X378191D01*
X378275Y330578D01*
X378797Y329797D01*
X379578Y329275D01*
X380000Y329191D01*
Y331000D01*
D02*
G37*
G36*
X382809D02*
X381000D01*
Y329191D01*
X381422Y329275D01*
X382203Y329797D01*
X382725Y330578D01*
X382809Y331000D01*
D02*
G37*
G36*
X368309Y333500D02*
X366500D01*
Y331691D01*
X366922Y331775D01*
X367703Y332297D01*
X368225Y333078D01*
X368309Y333500D01*
D02*
G37*
G36*
X365500Y336309D02*
X365078Y336225D01*
X364297Y335703D01*
X363775Y334922D01*
X363691Y334500D01*
X365500D01*
Y336309D01*
D02*
G37*
G36*
X366500D02*
Y334500D01*
X368309D01*
X368225Y334922D01*
X367703Y335703D01*
X366922Y336225D01*
X366500Y336309D01*
D02*
G37*
G36*
X387272Y334531D02*
X386000D01*
Y333063D01*
X387272D01*
Y334531D01*
D02*
G37*
G36*
X398756Y333809D02*
X398334Y333725D01*
X397553Y333203D01*
X397031Y332422D01*
X396947Y332000D01*
X398756D01*
Y333809D01*
D02*
G37*
G36*
X399756D02*
Y332000D01*
X401565D01*
X401481Y332422D01*
X400959Y333203D01*
X400178Y333725D01*
X399756Y333809D01*
D02*
G37*
G36*
X389500Y388437D02*
X388228D01*
Y386968D01*
X389500D01*
Y388437D01*
D02*
G37*
G36*
X395772D02*
X394500D01*
Y386968D01*
X395772D01*
Y388437D01*
D02*
G37*
G36*
X387272D02*
X386000D01*
Y386968D01*
X387272D01*
Y388437D01*
D02*
G37*
G36*
X381469Y385968D02*
X379660D01*
X379743Y385547D01*
X380265Y384766D01*
X381047Y384243D01*
X381469Y384159D01*
Y385968D01*
D02*
G37*
G36*
Y388777D02*
X381047Y388694D01*
X380265Y388172D01*
X379743Y387390D01*
X379660Y386968D01*
X381469D01*
Y388777D01*
D02*
G37*
G36*
X348500Y392626D02*
X346736D01*
Y387614D01*
X348500D01*
Y392626D01*
D02*
G37*
G36*
X393809Y400500D02*
X392000D01*
Y398691D01*
X392422Y398775D01*
X393203Y399297D01*
X393725Y400078D01*
X393809Y400500D01*
D02*
G37*
G36*
X392000Y403309D02*
Y401500D01*
X393809D01*
X393725Y401922D01*
X393203Y402703D01*
X392422Y403225D01*
X392000Y403309D01*
D02*
G37*
G36*
X394000Y396809D02*
Y395000D01*
X395809D01*
X395725Y395422D01*
X395203Y396203D01*
X394422Y396725D01*
X394000Y396809D01*
D02*
G37*
G36*
X348500Y398638D02*
X346736D01*
Y393626D01*
X348500D01*
Y398638D01*
D02*
G37*
G36*
X393000Y396809D02*
X392578Y396725D01*
X391797Y396203D01*
X391275Y395422D01*
X391191Y395000D01*
X393000D01*
Y396809D01*
D02*
G37*
G36*
X359256Y345929D02*
X357197D01*
Y343673D01*
X359256D01*
Y345929D01*
D02*
G37*
G36*
X388500Y346031D02*
X387228D01*
Y344563D01*
X388500D01*
Y346031D01*
D02*
G37*
G36*
X398756Y345779D02*
X397189D01*
Y342441D01*
X398756D01*
Y345779D01*
D02*
G37*
G36*
X347500Y342032D02*
X346228D01*
Y340563D01*
X347500D01*
Y342032D01*
D02*
G37*
G36*
X349772D02*
X348500D01*
Y340563D01*
X349772D01*
Y342032D01*
D02*
G37*
G36*
X390772Y346031D02*
X389500D01*
Y344563D01*
X390772D01*
Y346031D01*
D02*
G37*
G36*
X381358Y380402D02*
Y378909D01*
X382163D01*
Y379197D01*
X382064Y379696D01*
X381781Y380119D01*
X381358Y380402D01*
D02*
G37*
G36*
X350532Y385272D02*
X349063D01*
Y384000D01*
X350532D01*
Y385272D01*
D02*
G37*
G36*
X401500Y367809D02*
X401078Y367725D01*
X400297Y367203D01*
X399775Y366422D01*
X399691Y366000D01*
X401500D01*
Y367809D01*
D02*
G37*
G36*
Y361717D02*
X399736D01*
Y359658D01*
X401500D01*
Y361717D01*
D02*
G37*
G36*
Y365000D02*
X399691D01*
X399775Y364578D01*
X400297Y363797D01*
X401078Y363275D01*
X401500Y363191D01*
Y365000D01*
D02*
G37*
G36*
X348500Y305809D02*
X348078Y305725D01*
X347297Y305203D01*
X346775Y304422D01*
X346691Y304000D01*
X348500D01*
Y305809D01*
D02*
G37*
G36*
X349500D02*
Y304000D01*
X351309D01*
X351225Y304422D01*
X350703Y305203D01*
X349922Y305725D01*
X349500Y305809D01*
D02*
G37*
G36*
X382000Y304000D02*
X380191D01*
X380275Y303578D01*
X380797Y302797D01*
X381578Y302275D01*
X382000Y302191D01*
Y304000D01*
D02*
G37*
G36*
X434000Y303309D02*
X433578Y303225D01*
X432797Y302703D01*
X432275Y301922D01*
X432191Y301500D01*
X434000D01*
Y303309D01*
D02*
G37*
G36*
X435000D02*
Y301500D01*
X436809D01*
X436725Y301922D01*
X436203Y302703D01*
X435422Y303225D01*
X435000Y303309D01*
D02*
G37*
G36*
X382000Y306809D02*
X381578Y306725D01*
X380797Y306203D01*
X380275Y305422D01*
X380191Y305000D01*
X382000D01*
Y306809D01*
D02*
G37*
G36*
X365500Y308531D02*
X364228D01*
Y307063D01*
X365500D01*
Y308531D01*
D02*
G37*
G36*
X455000Y312408D02*
X454078Y312225D01*
X453297Y311703D01*
X452775Y310922D01*
X452592Y310000D01*
X452775Y309078D01*
X453297Y308297D01*
X454078Y307775D01*
X455000Y307592D01*
X455922Y307775D01*
X456703Y308297D01*
X457225Y309078D01*
X457409Y310000D01*
X457225Y310922D01*
X456703Y311703D01*
X455922Y312225D01*
X455000Y312408D01*
D02*
G37*
G36*
X431809Y308500D02*
X430000D01*
Y306691D01*
X430422Y306775D01*
X431203Y307297D01*
X431725Y308078D01*
X431809Y308500D01*
D02*
G37*
G36*
X438500Y310408D02*
X437578Y310225D01*
X436797Y309703D01*
X436275Y308922D01*
X436092Y308000D01*
X436275Y307078D01*
X436797Y306297D01*
X437578Y305775D01*
X438500Y305592D01*
X439422Y305775D01*
X440203Y306297D01*
X440725Y307078D01*
X440908Y308000D01*
X440725Y308922D01*
X440203Y309703D01*
X439422Y310225D01*
X438500Y310408D01*
D02*
G37*
G36*
X429000Y308500D02*
X427191D01*
X427275Y308078D01*
X427797Y307297D01*
X428578Y306775D01*
X429000Y306691D01*
Y308500D01*
D02*
G37*
G36*
X389309Y296000D02*
X387500D01*
Y294191D01*
X387922Y294275D01*
X388703Y294797D01*
X389225Y295578D01*
X389309Y296000D01*
D02*
G37*
G36*
X408500Y302409D02*
X407578Y302225D01*
X406797Y301703D01*
X406275Y300922D01*
X406091Y300000D01*
X406275Y299078D01*
X406797Y298297D01*
X407578Y297775D01*
X408500Y297591D01*
X408961Y297683D01*
X409369Y297275D01*
X409178Y296813D01*
X407544D01*
X405234Y299122D01*
X405408Y300000D01*
X405225Y300922D01*
X404703Y301703D01*
X403922Y302225D01*
X403000Y302409D01*
X402078Y302225D01*
X401297Y301703D01*
X400775Y300922D01*
X400592Y300000D01*
X400775Y299078D01*
X401297Y298297D01*
X402078Y297775D01*
X403000Y297591D01*
X403044Y297600D01*
X406072Y294572D01*
X406498Y294287D01*
X407000Y294187D01*
X425909D01*
X426054Y293709D01*
X425297Y293203D01*
X424775Y292422D01*
X424691Y292000D01*
X429309D01*
X429225Y292422D01*
X428703Y293203D01*
X427946Y293709D01*
X428091Y294187D01*
X440256D01*
X440492Y293746D01*
X440275Y293422D01*
X440191Y293000D01*
X444809D01*
X444725Y293422D01*
X444508Y293746D01*
X444744Y294187D01*
X451956D01*
X460556Y285588D01*
X460556Y285588D01*
X460556D01*
X460556Y285588D01*
X460556D01*
X460556Y285588D01*
Y285588D01*
Y285588D01*
D01*
D01*
X460556D01*
Y285588D01*
X460982Y285303D01*
X461484Y285203D01*
X467267D01*
X467502Y284762D01*
X467275Y284422D01*
X467191Y284000D01*
X471809D01*
X471725Y284422D01*
X471498Y284762D01*
X471733Y285203D01*
X484520D01*
X484781Y284813D01*
X485563Y284291D01*
X486484Y284107D01*
X487406Y284291D01*
X488187Y284813D01*
X488709Y285594D01*
X488893Y286516D01*
X488750Y287233D01*
X489212Y287424D01*
X489297Y287297D01*
X490078Y286775D01*
X491000Y286592D01*
X491922Y286775D01*
X492703Y287297D01*
X492941Y287652D01*
X493439Y287621D01*
X494000Y286500D01*
X495500Y285500D01*
X497500Y284500D01*
X499000D01*
X502000Y285500D01*
X503500Y287000D01*
X504500Y290000D01*
Y291000D01*
X504000Y293000D01*
X503000Y294500D01*
X501000Y296000D01*
X498500Y296500D01*
X496500Y296000D01*
X494500Y295000D01*
X493000Y293000D01*
X492648Y291240D01*
X492186Y291049D01*
X491922Y291225D01*
X491000Y291408D01*
X490078Y291225D01*
X489297Y290703D01*
X489289Y290691D01*
X488035D01*
X487986Y291188D01*
X488422Y291275D01*
X489203Y291797D01*
X489725Y292578D01*
X489809Y293000D01*
X485191D01*
X485275Y292578D01*
X485797Y291797D01*
X486578Y291275D01*
X487014Y291188D01*
X486965Y290691D01*
X485299D01*
X484796Y290591D01*
X484371Y290306D01*
X483877Y289813D01*
X462571D01*
X453956Y298428D01*
X453530Y298713D01*
X453028Y298813D01*
X436339D01*
X436194Y299291D01*
X436203Y299297D01*
X436725Y300078D01*
X436809Y300500D01*
X432191D01*
X432275Y300078D01*
X432797Y299297D01*
X432806Y299291D01*
X432661Y298813D01*
X411544D01*
X410817Y299539D01*
X410909Y300000D01*
X410725Y300922D01*
X410203Y301703D01*
X409422Y302225D01*
X408500Y302409D01*
D02*
G37*
G36*
X386500Y296000D02*
X384691D01*
X384775Y295578D01*
X385297Y294797D01*
X386078Y294275D01*
X386500Y294191D01*
Y296000D01*
D02*
G37*
G36*
X487000Y295809D02*
X486578Y295725D01*
X485797Y295203D01*
X485275Y294422D01*
X485191Y294000D01*
X487000D01*
Y295809D01*
D02*
G37*
G36*
X488000D02*
Y294000D01*
X489809D01*
X489725Y294422D01*
X489203Y295203D01*
X488422Y295725D01*
X488000Y295809D01*
D02*
G37*
G36*
X386500Y298809D02*
X386078Y298725D01*
X385297Y298203D01*
X384775Y297422D01*
X384691Y297000D01*
X386500D01*
Y298809D01*
D02*
G37*
G36*
X348500Y303000D02*
X346691D01*
X346775Y302578D01*
X347297Y301797D01*
X348078Y301275D01*
X348500Y301191D01*
Y303000D01*
D02*
G37*
G36*
X351309D02*
X349500D01*
Y301191D01*
X349922Y301275D01*
X350703Y301797D01*
X351225Y302578D01*
X351309Y303000D01*
D02*
G37*
G36*
X349500Y312909D02*
X348578Y312725D01*
X347797Y312203D01*
X347275Y311422D01*
X347092Y310500D01*
X347275Y309578D01*
X347797Y308797D01*
X348578Y308275D01*
X349500Y308091D01*
X350088Y308209D01*
X358149Y300149D01*
X358539Y299887D01*
X359000Y299796D01*
X359000Y299796D01*
X359964D01*
X360297Y299297D01*
X361078Y298775D01*
X362000Y298591D01*
X362922Y298775D01*
X363703Y299297D01*
X364225Y300078D01*
X364408Y301000D01*
X364225Y301922D01*
X363703Y302703D01*
X362922Y303225D01*
X362000Y303409D01*
X361078Y303225D01*
X360297Y302703D01*
X359996Y302253D01*
X359499Y302204D01*
X351791Y309912D01*
X351908Y310500D01*
X351725Y311422D01*
X351203Y312203D01*
X350422Y312725D01*
X349500Y312909D01*
D02*
G37*
G36*
X387500Y298809D02*
Y297000D01*
X389309D01*
X389225Y297422D01*
X388703Y298203D01*
X387922Y298725D01*
X387500Y298809D01*
D02*
G37*
G36*
X371000Y302908D02*
X370078Y302725D01*
X369297Y302203D01*
X368775Y301422D01*
X368591Y300500D01*
X368775Y299578D01*
X369297Y298797D01*
X370078Y298275D01*
X371000Y298092D01*
X371922Y298275D01*
X372703Y298797D01*
X373225Y299578D01*
X373409Y300500D01*
X373225Y301422D01*
X372703Y302203D01*
X371922Y302725D01*
X371000Y302908D01*
D02*
G37*
G36*
X345500Y322000D02*
X343691D01*
X343775Y321578D01*
X344297Y320797D01*
X345078Y320275D01*
X345500Y320191D01*
Y322000D01*
D02*
G37*
G36*
X348309D02*
X346500D01*
Y320191D01*
X346922Y320275D01*
X347703Y320797D01*
X348225Y321578D01*
X348309Y322000D01*
D02*
G37*
G36*
X401323Y321165D02*
X399756D01*
Y317827D01*
X401323D01*
Y321165D01*
D02*
G37*
G36*
X363500Y322908D02*
X362578Y322725D01*
X361797Y322203D01*
X361275Y321422D01*
X361091Y320500D01*
X361154Y320184D01*
X361000Y319408D01*
X360078Y319225D01*
X359297Y318703D01*
X358775Y317922D01*
X358592Y317000D01*
X358775Y316078D01*
X359297Y315297D01*
X360078Y314775D01*
X361000Y314592D01*
X361922Y314775D01*
X362703Y315297D01*
X363225Y316078D01*
X363408Y317000D01*
X363346Y317316D01*
X363500Y318092D01*
X364422Y318275D01*
X365203Y318797D01*
X365725Y319578D01*
X365909Y320500D01*
X365725Y321422D01*
X365203Y322203D01*
X364422Y322725D01*
X363500Y322908D01*
D02*
G37*
G36*
X398756Y321165D02*
X397189D01*
Y317827D01*
X398756D01*
Y321165D01*
D02*
G37*
G36*
X372500Y323000D02*
X370691D01*
X370775Y322578D01*
X371297Y321797D01*
X372078Y321275D01*
X372500Y321191D01*
Y323000D01*
D02*
G37*
G36*
Y325809D02*
X372078Y325725D01*
X371297Y325203D01*
X370775Y324422D01*
X370691Y324000D01*
X372500D01*
Y325809D01*
D02*
G37*
G36*
X373500D02*
Y324000D01*
X375309D01*
X375225Y324422D01*
X374703Y325203D01*
X373922Y325725D01*
X373500Y325809D01*
D02*
G37*
G36*
X401323Y325504D02*
X399756D01*
Y322165D01*
X401323D01*
Y325504D01*
D02*
G37*
G36*
X375309Y323000D02*
X373500D01*
Y321191D01*
X373922Y321275D01*
X374703Y321797D01*
X375225Y322578D01*
X375309Y323000D01*
D02*
G37*
G36*
X398756Y325504D02*
X397189D01*
Y322165D01*
X398756D01*
Y325504D01*
D02*
G37*
G36*
X430000Y311309D02*
Y309500D01*
X431809D01*
X431725Y309922D01*
X431203Y310703D01*
X430422Y311225D01*
X430000Y311309D01*
D02*
G37*
G36*
X441500Y311500D02*
X439691D01*
X439775Y311078D01*
X440297Y310297D01*
X441078Y309775D01*
X441500Y309691D01*
Y311500D01*
D02*
G37*
G36*
X429000Y311309D02*
X428578Y311225D01*
X427797Y310703D01*
X427275Y309922D01*
X427191Y309500D01*
X429000D01*
Y311309D01*
D02*
G37*
G36*
X477000Y310000D02*
X475191D01*
X475275Y309578D01*
X475797Y308797D01*
X476578Y308275D01*
X477000Y308191D01*
Y310000D01*
D02*
G37*
G36*
X479809D02*
X478000D01*
Y308191D01*
X478422Y308275D01*
X479203Y308797D01*
X479725Y309578D01*
X479809Y310000D01*
D02*
G37*
G36*
X444309Y311500D02*
X442500D01*
Y309691D01*
X442922Y309775D01*
X443703Y310297D01*
X444225Y311078D01*
X444309Y311500D01*
D02*
G37*
G36*
X441500Y314309D02*
X441078Y314225D01*
X440297Y313703D01*
X439775Y312922D01*
X439691Y312500D01*
X441500D01*
Y314309D01*
D02*
G37*
G36*
X442500D02*
Y312500D01*
X444309D01*
X444225Y312922D01*
X443703Y313703D01*
X442922Y314225D01*
X442500Y314309D01*
D02*
G37*
G36*
X422000Y315909D02*
X421078Y315725D01*
X420297Y315203D01*
X419775Y314422D01*
X419592Y313500D01*
X419775Y312578D01*
X420297Y311797D01*
X421078Y311275D01*
X422000Y311091D01*
X422922Y311275D01*
X423703Y311797D01*
X424225Y312578D01*
X424408Y313500D01*
X424225Y314422D01*
X423703Y315203D01*
X422922Y315725D01*
X422000Y315909D01*
D02*
G37*
G36*
X477000Y312809D02*
X476578Y312725D01*
X475797Y312203D01*
X475275Y311422D01*
X475191Y311000D01*
X477000D01*
Y312809D01*
D02*
G37*
G36*
X478000D02*
Y311000D01*
X479809D01*
X479725Y311422D01*
X479203Y312203D01*
X478422Y312725D01*
X478000Y312809D01*
D02*
G37*
%LPD*%
D10*
X380858Y378410D02*
D03*
X378890D02*
D03*
X376921D02*
D03*
X374953D02*
D03*
X372984D02*
D03*
X371016D02*
D03*
X369047D02*
D03*
X367079D02*
D03*
X365110D02*
D03*
X363142D02*
D03*
Y354591D02*
D03*
X365110D02*
D03*
X367079D02*
D03*
X369047D02*
D03*
X371016D02*
D03*
X372984D02*
D03*
X374953D02*
D03*
X376921D02*
D03*
X378890D02*
D03*
X380858D02*
D03*
D11*
X360090Y375358D02*
D03*
Y373390D02*
D03*
Y371421D02*
D03*
Y369453D02*
D03*
Y367484D02*
D03*
Y365516D02*
D03*
Y363547D02*
D03*
Y361579D02*
D03*
Y359610D02*
D03*
Y357642D02*
D03*
X383910D02*
D03*
Y359610D02*
D03*
Y361579D02*
D03*
Y363547D02*
D03*
Y365516D02*
D03*
Y367484D02*
D03*
Y369453D02*
D03*
Y371421D02*
D03*
Y373390D02*
D03*
Y375358D02*
D03*
D12*
X372000Y366500D02*
D03*
D13*
X402000Y353842D02*
D03*
Y359157D02*
D03*
Y379658D02*
D03*
Y374342D02*
D03*
D14*
X392000Y356252D02*
D03*
Y362748D02*
D03*
D15*
X341000Y327000D02*
D03*
D16*
X342000Y318000D02*
D03*
D17*
X393547Y321665D02*
D03*
X399256D02*
D03*
Y341941D02*
D03*
X393547D02*
D03*
D18*
X359756Y346429D02*
D03*
X353850D02*
D03*
X353752Y338161D02*
D03*
X359658D02*
D03*
D19*
X368358Y338941D02*
D03*
Y341500D02*
D03*
Y344059D02*
D03*
X375543D02*
D03*
Y341500D02*
D03*
Y338941D02*
D03*
D20*
X369000Y408874D02*
D03*
X364000D02*
D03*
X359000D02*
D03*
X354000D02*
D03*
X349000D02*
D03*
X369000Y393126D02*
D03*
X364000D02*
D03*
X359000D02*
D03*
X354000D02*
D03*
X349000D02*
D03*
D21*
X385500Y328969D02*
D03*
Y325031D02*
D03*
X380500Y345532D02*
D03*
Y349468D02*
D03*
X394000Y386469D02*
D03*
Y382531D02*
D03*
X366000Y309032D02*
D03*
Y312968D02*
D03*
X389000Y346532D02*
D03*
Y350468D02*
D03*
X390000Y386469D02*
D03*
Y382531D02*
D03*
X346500Y334968D02*
D03*
Y331031D02*
D03*
X397000Y353031D02*
D03*
Y356968D02*
D03*
X397000Y364968D02*
D03*
Y361032D02*
D03*
X385500Y386469D02*
D03*
Y382531D02*
D03*
X348000Y346468D02*
D03*
Y342531D02*
D03*
X385500Y335032D02*
D03*
Y338968D02*
D03*
X370000Y312968D02*
D03*
Y309032D02*
D03*
X384500Y349468D02*
D03*
Y345532D02*
D03*
X381500Y335032D02*
D03*
Y338968D02*
D03*
D22*
X350532Y354000D02*
D03*
X354468D02*
D03*
X351031Y383500D02*
D03*
X354969D02*
D03*
X358968Y332500D02*
D03*
X355031D02*
D03*
X342531Y327000D02*
D03*
X346468D02*
D03*
X379969Y394000D02*
D03*
X376031D02*
D03*
D23*
X318000Y246500D02*
D03*
X398000Y410500D02*
D03*
X498500Y290500D02*
D03*
X322500Y410500D02*
D03*
D24*
X393000Y405750D02*
X403000Y395750D01*
X393000Y405750D02*
Y410500D01*
X403000Y391000D02*
Y395750D01*
X388000Y415500D02*
X393000Y410500D01*
X380500Y415500D02*
X388000D01*
X372000Y366500D02*
X378890Y373390D01*
X385500Y310500D02*
X386968Y309032D01*
X385500Y310500D02*
Y325031D01*
X386968Y309032D02*
X393500Y302500D01*
X370000Y309032D02*
X386968D01*
X345272Y382272D02*
X346500Y383500D01*
X359000Y301000D02*
X362000D01*
X349500Y310500D02*
X359000Y301000D01*
X351000Y372000D02*
X352397D01*
X350795Y377205D02*
X356579Y371421D01*
X350000Y376500D02*
X350705Y377205D01*
X350000Y376500D02*
X351000D01*
X396000Y377500D02*
X396500Y378000D01*
X391756Y373256D02*
X396000Y377500D01*
X378890Y373390D02*
Y378410D01*
X372969Y312968D02*
X373500Y313500D01*
X355968Y352500D02*
X361500D01*
X370000Y412500D02*
X373500D01*
X369000Y411500D02*
X370000Y412500D01*
X373500Y408500D02*
X380500Y415500D01*
X373500Y403500D02*
Y408500D01*
X354000Y402500D02*
Y408874D01*
Y402500D02*
X355000Y401500D01*
X371500D01*
X373500Y403500D01*
X393744Y370142D02*
X399244Y375641D01*
Y387244D02*
X403000Y391000D01*
X399244Y375641D02*
Y387244D01*
X357000Y377500D02*
X359142Y375358D01*
X396000Y377500D02*
Y378000D01*
X396500Y378500D01*
X397500Y390500D02*
X399500Y392500D01*
X400000Y393000D01*
X402000Y348500D02*
Y353842D01*
Y379658D02*
Y383500D01*
X354000Y388000D02*
Y393126D01*
X376000Y390500D02*
X397500D01*
X371500Y386000D02*
X376000Y390500D01*
X356000Y386000D02*
X371500D01*
X354000Y388000D02*
X356000Y386000D01*
X386000Y394000D02*
X387000Y395000D01*
X379969Y394000D02*
X386000D01*
X396500Y378000D02*
Y378500D01*
X388983Y373256D02*
X391756D01*
X385180Y369453D02*
X388983Y373256D01*
X383910Y369453D02*
X385180D01*
X387449Y368949D02*
X389449D01*
X385984Y367484D02*
X387449Y368949D01*
X383910Y367484D02*
X385984D01*
X389449Y368949D02*
X391000Y370500D01*
X393744Y368971D02*
Y370142D01*
X392147Y367374D02*
X393744Y368971D01*
X388201Y367374D02*
X392147D01*
X386343Y365516D02*
X388201Y367374D01*
X383910Y365516D02*
X386343D01*
X388853Y365799D02*
X392799D01*
X396000Y369000D01*
X396500D01*
X388161Y365107D02*
X388853Y365799D01*
X388161Y364161D02*
Y365107D01*
X387547Y363547D02*
X388161Y364161D01*
X383910Y363547D02*
X387547D01*
X366000Y383000D02*
X367079Y381921D01*
Y378410D02*
Y381921D01*
X362000Y383000D02*
X365110Y379890D01*
Y378410D02*
Y379890D01*
X369047Y381547D02*
X370000Y382500D01*
X369047Y378410D02*
Y381547D01*
X390000Y376500D02*
X394000Y380500D01*
Y382531D01*
X390000Y376500D02*
Y382531D01*
X386890Y373390D02*
X390000Y376500D01*
X383910Y373390D02*
X386890D01*
X390000Y386469D02*
X394000D01*
X385500D02*
X390000D01*
X374953Y379453D02*
X376921Y381421D01*
X374953Y378410D02*
Y379453D01*
X376921Y381421D02*
X378890Y383390D01*
X380858Y385358D01*
X378890Y378410D02*
Y383390D01*
X381968Y386469D02*
X385500D01*
X380858Y385358D02*
X381968Y386469D01*
X380858Y378410D02*
Y385358D01*
X376921Y378410D02*
Y381421D01*
X385500Y376949D02*
Y382531D01*
X383910Y375358D02*
X385500Y376949D01*
X380858Y353110D02*
X384500Y349468D01*
X380858Y353110D02*
Y354591D01*
X368500Y350500D02*
X369047Y351047D01*
Y354591D01*
X376500Y351000D02*
X378031Y349468D01*
X380500D01*
X376921Y351421D02*
X378890Y353390D01*
Y354591D01*
X376921Y351421D02*
Y354591D01*
X374953Y352547D02*
X376500Y351000D01*
X374953Y352547D02*
Y354591D01*
X369000Y393126D02*
X369874Y394000D01*
X376031D01*
X345500Y414000D02*
X349000Y410500D01*
Y408874D02*
Y410500D01*
X359000Y408874D02*
Y416000D01*
X364000Y415000D02*
X365000Y416000D01*
X364000Y408874D02*
Y415000D01*
X369000Y408874D02*
Y411500D01*
X356000Y383500D02*
X358000Y381500D01*
X354969Y383500D02*
X356000D01*
X358500Y381000D02*
X361090Y378410D01*
X363142D01*
X357000Y377500D02*
X357500D01*
X353500D02*
X357610Y373390D01*
X353500Y377500D02*
Y379500D01*
X357610Y373390D02*
X360090D01*
X359142Y375358D02*
X360090D01*
X350705Y377205D02*
X350795D01*
X346847Y370881D02*
Y378346D01*
X345272Y370228D02*
Y382272D01*
X346847Y370881D02*
X348831Y368896D01*
X346847Y378346D02*
X347500Y379000D01*
X345272Y370228D02*
X347256Y368244D01*
X346000Y384000D02*
X346500Y383500D01*
X356579Y371421D02*
X360090D01*
X352397Y372000D02*
X354945Y369453D01*
X351000Y372000D02*
X351500Y372500D01*
X354945Y369453D02*
X360090D01*
X348831Y366396D02*
Y368896D01*
Y366396D02*
X349711Y365516D01*
X360090D01*
X352000Y368500D02*
X353016Y367484D01*
X349500Y363500D02*
X354500D01*
X347256Y365744D02*
X349500Y363500D01*
X347256Y365744D02*
Y368244D01*
X346000Y363000D02*
X347421Y361579D01*
X360090D01*
X346610Y359610D02*
X360090D01*
X346000Y359000D02*
X346610Y359610D01*
X348642Y357642D02*
X360090D01*
X346000Y355000D02*
X348642Y357642D01*
X354500Y363500D02*
X354547Y363547D01*
X360090D01*
X354468Y354000D02*
X355968Y352500D01*
X361500D02*
X363142Y354142D01*
Y354591D01*
X353016Y367484D02*
X360090D01*
X395220Y353031D02*
X397000D01*
X392000Y356252D02*
X395220Y353031D01*
X394220Y364968D02*
X397000D01*
X392000Y362748D02*
X394220Y364968D01*
X390831Y361579D02*
X392000Y362748D01*
X383910Y361579D02*
X390831D01*
X390248Y356252D02*
X392000D01*
X386890Y359610D02*
X390248Y356252D01*
X383910Y359610D02*
X386890D01*
X359658Y338161D02*
X363500Y342004D01*
X353850Y346429D02*
X357421Y350000D01*
X348000Y346468D02*
X353811D01*
X358968Y332500D02*
X359658Y333189D01*
Y338161D01*
X363500Y342004D02*
Y349000D01*
X367079Y352579D01*
Y354591D01*
X357421Y350000D02*
X362273D01*
X365110Y352837D01*
Y354591D01*
D25*
X351972Y332000D02*
X353752Y333780D01*
X402000Y365500D02*
Y374342D01*
Y359157D02*
Y365500D01*
X458000Y274500D02*
X468500Y264000D01*
X458000Y274500D02*
Y278000D01*
X347031Y350500D02*
X350532Y354000D01*
X350500Y332000D02*
X351972D01*
X397000Y359500D02*
X397342Y359157D01*
X402000D01*
X397000Y359500D02*
Y361032D01*
Y356968D02*
Y359500D01*
X359756Y344528D02*
Y346429D01*
X353752Y338524D02*
X359756Y344528D01*
X353752Y333780D02*
X355031Y332500D01*
X353752Y333780D02*
Y338161D01*
X346500Y341032D02*
X348000Y342531D01*
X346500Y334968D02*
Y339500D01*
Y341032D01*
X347839Y338161D02*
X353752D01*
X346500Y339500D02*
X347839Y338161D01*
D26*
X344000Y288000D02*
Y314000D01*
X348500Y284000D02*
X387500D01*
X344500Y288000D02*
X348500Y284000D01*
X366000Y312968D02*
X372969D01*
X346500Y327031D02*
Y331031D01*
D27*
X382500Y304500D02*
X396500Y290500D01*
X369000Y304500D02*
X382500D01*
X366000Y307500D02*
X369000Y304500D01*
X366000Y307500D02*
Y309032D01*
X390000Y284000D02*
X396500Y290500D01*
X387500Y284000D02*
X390000D01*
X392000Y314000D02*
X393547Y315547D01*
Y321665D01*
X381323Y335032D02*
X381500D01*
X379138Y337217D02*
X381323Y335032D01*
X379138Y337217D02*
Y341862D01*
X378750Y342250D02*
X379138Y341862D01*
X378750Y342250D02*
X380500Y344000D01*
X378000Y341500D02*
X378750Y342250D01*
X383910Y355559D02*
X389000Y350468D01*
X399256Y331500D02*
Y341941D01*
Y321665D02*
Y331500D01*
X366500Y334000D02*
X368358Y335858D01*
X366000Y334000D02*
X366500D01*
X368358Y335858D02*
Y338941D01*
X381500Y332000D02*
Y335032D01*
X393516Y328969D02*
X393547Y329000D01*
X385500Y328969D02*
X393516D01*
X393547Y329000D02*
Y341941D01*
Y321665D02*
Y329000D01*
X381500Y335032D02*
X385500D01*
X390575Y338968D02*
X393547Y341941D01*
X385500Y338968D02*
X390575D01*
X383910Y355559D02*
Y357642D01*
X384500Y343500D02*
Y345532D01*
X381500Y340500D02*
X384500Y343500D01*
X381500Y338968D02*
Y340500D01*
X380500Y344000D02*
Y345532D01*
X375543Y341500D02*
X378000D01*
X349000Y393126D02*
X349031Y393094D01*
Y385500D02*
Y393094D01*
Y385500D02*
X351031Y383500D01*
X343047Y367953D02*
Y390547D01*
X345626Y393126D01*
X349000D01*
X368358Y341500D02*
X371951D01*
X375543D01*
X368358Y338941D02*
X371441D01*
X371951Y339451D01*
Y341500D01*
X372984Y346618D02*
Y354591D01*
Y346618D02*
X375543Y344059D01*
X371016Y346717D02*
Y354591D01*
X368358Y344059D02*
X371016Y346717D01*
D28*
X416000Y271000D02*
Y282000D01*
Y271000D02*
X424000Y263000D01*
X408500Y300000D02*
X411000Y297500D01*
X453028D01*
X403000Y299500D02*
Y300000D01*
Y299500D02*
X407000Y295500D01*
X453028Y297500D02*
X462028Y288500D01*
X484421D01*
X485299Y289378D01*
X490622D01*
X491000Y289000D01*
X461484Y286516D02*
X486484D01*
X452500Y295500D02*
X461484Y286516D01*
X407000Y295500D02*
X452500D01*
X467500Y263000D02*
X468500Y264000D01*
X424000Y263000D02*
X467500D01*
X343000Y349000D02*
Y367905D01*
X399256Y341941D02*
Y344744D01*
X396500Y347500D02*
X399256Y344744D01*
X389968Y347500D02*
X396500D01*
X389000Y346532D02*
X389968Y347500D01*
X343000Y349000D02*
X344500Y350500D01*
X346000D01*
X343000Y336000D02*
Y349000D01*
X344032Y334968D02*
X346500D01*
X343000Y336000D02*
X344032Y334968D01*
X372984Y382484D02*
X374500Y384000D01*
X372984Y378410D02*
Y382484D01*
X430500Y288500D02*
X431968Y289968D01*
X430500Y275000D02*
Y288500D01*
D29*
X498500Y247500D02*
Y250000D01*
X493000Y255500D02*
X498500Y250000D01*
X482500Y255500D02*
X493000D01*
X474500Y247500D02*
X482500Y255500D01*
X467500Y256000D02*
X474500Y249000D01*
X437000Y256000D02*
X467500D01*
X428500Y247500D02*
X437000Y256000D01*
X474500Y247500D02*
Y249000D01*
X488500Y247500D02*
Y248500D01*
X348000Y327000D02*
X367500D01*
X375543Y335043D01*
Y338000D01*
X375500Y337500D02*
X375543Y337457D01*
D30*
X340543Y313598D02*
D03*
Y322260D02*
D03*
D31*
X325071Y317929D02*
D03*
D32*
X336547Y302329D02*
D03*
D33*
X321528Y302221D02*
D03*
D34*
X317177Y334504D02*
D03*
D35*
X331291Y288441D02*
D03*
D36*
X329028Y317929D02*
D03*
D37*
X336547Y317929D02*
D03*
D38*
X338004Y326905D02*
D03*
D39*
X330757Y324865D02*
D03*
D40*
X343750Y318500D02*
D03*
D41*
X343500Y313565D02*
D03*
D42*
Y322146D02*
D03*
D43*
X353000Y247000D02*
D03*
X363000D02*
D03*
X373000D02*
D03*
X383000D02*
D03*
X428500Y247500D02*
D03*
X418500D02*
D03*
X498500D02*
D03*
X488500D02*
D03*
X474500D02*
D03*
X464500D02*
D03*
D44*
X393000Y247000D02*
D03*
D45*
X448000Y285500D02*
D03*
X326000Y254000D02*
D03*
X385000Y407000D02*
D03*
D46*
X374362Y368862D02*
D03*
Y364138D02*
D03*
X369638Y368862D02*
D03*
Y364138D02*
D03*
X487862Y273500D02*
D03*
X483138D02*
D03*
D47*
X346000Y322500D02*
D03*
X382500Y304500D02*
D03*
X387500Y284000D02*
D03*
X396500Y290500D02*
D03*
X416000Y282000D02*
D03*
X393500Y302500D02*
D03*
X371000Y300500D02*
D03*
X375500Y290500D02*
D03*
X362000Y301000D02*
D03*
X349500Y310500D02*
D03*
X361000Y291000D02*
D03*
X344500Y288000D02*
D03*
X363500Y320500D02*
D03*
X361000Y317000D02*
D03*
X392000Y314000D02*
D03*
X455000Y310000D02*
D03*
X408500Y300000D02*
D03*
X403000D02*
D03*
X491000Y289000D02*
D03*
X486484Y286516D02*
D03*
X424000Y263000D02*
D03*
X458000Y278000D02*
D03*
X438500Y308000D02*
D03*
X403500Y264000D02*
D03*
X373500Y313500D02*
D03*
X422000D02*
D03*
X399256Y331500D02*
D03*
X373500Y412500D02*
D03*
X396000Y377500D02*
D03*
X399500Y392500D02*
D03*
X402000Y348500D02*
D03*
Y383500D02*
D03*
X387000Y395000D02*
D03*
X468500Y264000D02*
D03*
X500500Y257000D02*
D03*
X481000Y246500D02*
D03*
X402000Y365500D02*
D03*
X391000Y370500D02*
D03*
X396500Y369000D02*
D03*
X366000Y383000D02*
D03*
X362000D02*
D03*
X370000Y382500D02*
D03*
X374500Y384000D02*
D03*
X390000Y376500D02*
D03*
X381968Y386469D02*
D03*
X346000Y350500D02*
D03*
X350500Y332000D02*
D03*
X366000Y334000D02*
D03*
X380500Y331500D02*
D03*
X386000Y353000D02*
D03*
X368000Y349500D02*
D03*
X376500Y351000D02*
D03*
X364000Y398500D02*
D03*
X359000D02*
D03*
X345500Y414000D02*
D03*
X359000Y416000D02*
D03*
X365000D02*
D03*
X358000Y381500D02*
D03*
X357500Y377500D02*
D03*
X353500Y379500D02*
D03*
X350505Y376437D02*
D03*
X346000Y384000D02*
D03*
X351500Y372500D02*
D03*
X348500Y380000D02*
D03*
X352000Y368500D02*
D03*
X346000Y363000D02*
D03*
Y359000D02*
D03*
Y355000D02*
D03*
X358000Y353000D02*
D03*
X431968Y289968D02*
D03*
X430500Y275000D02*
D03*
X424000Y270000D02*
D03*
X391500Y401000D02*
D03*
X393500Y394500D02*
D03*
X373000Y323500D02*
D03*
X349000Y303500D02*
D03*
X387500Y304000D02*
D03*
X346500Y247500D02*
D03*
X392500Y277500D02*
D03*
X387000Y296500D02*
D03*
X408000Y277000D02*
D03*
X367500Y266500D02*
D03*
X358000D02*
D03*
X377500D02*
D03*
X409500Y247500D02*
D03*
X429500Y309000D02*
D03*
X442000Y312000D02*
D03*
X477500Y310500D02*
D03*
X500500Y267000D02*
D03*
Y278000D02*
D03*
X487500Y293500D02*
D03*
X473000Y266000D02*
D03*
X451500Y276000D02*
D03*
X469500Y283500D02*
D03*
X427000Y291500D02*
D03*
X442500Y292500D02*
D03*
X434500Y301000D02*
D03*
M02*
