%FSLAX25Y25*%
%MOIN*%
G70*
G01*
G75*
G04 Layer_Color=255*
%ADD10O,0.00984X0.02559*%
%ADD11O,0.02559X0.00984*%
%ADD12R,0.17716X0.17716*%
%ADD13R,0.02953X0.03543*%
%ADD14R,0.05315X0.03740*%
%ADD15R,0.01575X0.01575*%
%ADD16R,0.00039X0.11811*%
%ADD17R,0.02559X0.06102*%
%ADD18R,0.03543X0.03937*%
%ADD19R,0.03937X0.01378*%
%ADD20R,0.02953X0.09449*%
%ADD21R,0.01969X0.02362*%
%ADD22R,0.02362X0.01969*%
%ADD23C,0.03937*%
%ADD24C,0.00787*%
%ADD25C,0.02000*%
%ADD26C,0.01969*%
%ADD27C,0.01181*%
%ADD28C,0.01000*%
%ADD29C,0.03937*%
%ADD30R,0.02913X0.03937*%
%ADD31R,0.03150X0.04724*%
%ADD32R,0.05079X0.19193*%
%ADD33R,0.03937X0.36142*%
%ADD34R,0.04764X1.00709*%
%ADD35R,0.15590X0.08583*%
%ADD36R,0.04764X0.12598*%
%ADD37R,0.05079X0.12598*%
%ADD38R,0.07992X0.01811*%
G04:AMPARAMS|DCode=39|XSize=18.11mil|YSize=66.44mil|CornerRadius=0mil|HoleSize=0mil|Usage=FLASHONLY|Rotation=124.500|XOffset=0mil|YOffset=0mil|HoleType=Round|Shape=Rectangle|*
%AMROTATEDRECTD39*
4,1,4,0.03251,0.01135,-0.02225,-0.02628,-0.03251,-0.01135,0.02225,0.02628,0.03251,0.01135,0.0*
%
%ADD39ROTATEDRECTD39*%

%ADD40R,0.03500X0.06000*%
%ADD41R,0.04000X0.03870*%
%ADD42R,0.04000X0.03709*%
%ADD43C,0.05906*%
%ADD44R,0.05906X0.05906*%
%ADD45C,0.11811*%
%ADD46C,0.02598*%
%ADD47C,0.03150*%
%ADD48R,0.02559X0.00984*%
%ADD49R,0.03150X0.05512*%
%ADD50R,0.02362X0.04528*%
%ADD51O,0.02362X0.07284*%
%ADD52R,0.03937X0.06496*%
%ADD53R,0.08268X0.05512*%
%ADD54O,0.00984X0.02362*%
%ADD55O,0.05118X0.01772*%
%ADD56R,0.01969X0.00984*%
%ADD57R,0.05118X0.03937*%
%ADD58O,0.02362X0.08071*%
%ADD59R,0.08071X0.03150*%
%ADD60R,0.03543X0.03150*%
%ADD61R,0.03937X0.05118*%
%ADD62R,0.03150X0.03543*%
%ADD63C,0.03150*%
%ADD64C,0.01575*%
D17*
X393547Y341835D02*
D03*
X399256D02*
D03*
Y321559D02*
D03*
X393547D02*
D03*
D21*
X420500Y268032D02*
D03*
Y271969D02*
D03*
X366000Y341531D02*
D03*
Y345468D02*
D03*
X376500Y344032D02*
D03*
Y347969D02*
D03*
X483500Y257531D02*
D03*
Y261469D02*
D03*
X475000Y257531D02*
D03*
Y261469D02*
D03*
X450862Y300472D02*
D03*
Y304409D02*
D03*
X446362Y300472D02*
D03*
Y304409D02*
D03*
X386500Y262469D02*
D03*
Y258531D02*
D03*
X457500Y258531D02*
D03*
Y262469D02*
D03*
X438500Y259032D02*
D03*
Y262968D02*
D03*
X479000Y261469D02*
D03*
Y257531D02*
D03*
X397500Y305532D02*
D03*
Y309469D02*
D03*
X397500Y300969D02*
D03*
Y297031D02*
D03*
X346000Y371532D02*
D03*
Y375468D02*
D03*
D22*
X428031Y263000D02*
D03*
X431968D02*
D03*
X460394Y293941D02*
D03*
X464331D02*
D03*
X385469Y315000D02*
D03*
X381532D02*
D03*
X350532Y293000D02*
D03*
X354468D02*
D03*
X431968Y286500D02*
D03*
X428031D02*
D03*
X461394Y312441D02*
D03*
X465331D02*
D03*
X400032Y251500D02*
D03*
X403968D02*
D03*
X379969Y286500D02*
D03*
X376031D02*
D03*
X374969Y296000D02*
D03*
X371031D02*
D03*
X362032Y296000D02*
D03*
X365968D02*
D03*
X357031Y286500D02*
D03*
X360968D02*
D03*
X381532Y319000D02*
D03*
X385469D02*
D03*
D23*
X318000Y246500D02*
D03*
X398000Y410500D02*
D03*
X498500Y290500D02*
D03*
X322500Y410500D02*
D03*
D43*
X353000Y247000D02*
D03*
X363000D02*
D03*
X373000D02*
D03*
X383000D02*
D03*
X428500Y247500D02*
D03*
X418500D02*
D03*
X498500D02*
D03*
X488500D02*
D03*
X474500D02*
D03*
X464500D02*
D03*
D44*
X393000Y247000D02*
D03*
D45*
X448000Y285500D02*
D03*
X326000Y254000D02*
D03*
X385000Y407000D02*
D03*
D48*
X457500Y299882D02*
D03*
Y302441D02*
D03*
Y305000D02*
D03*
X466161D02*
D03*
Y302441D02*
D03*
Y299882D02*
D03*
D49*
X461831Y302441D02*
D03*
D50*
X444260Y264429D02*
D03*
X451740D02*
D03*
X448000Y255571D02*
D03*
D51*
X418000Y288354D02*
D03*
X413000D02*
D03*
X408000D02*
D03*
X403000D02*
D03*
X418000Y307646D02*
D03*
X413000D02*
D03*
X408000D02*
D03*
X403000D02*
D03*
D52*
X435898Y247500D02*
D03*
X448102D02*
D03*
D53*
X485500Y273500D02*
D03*
D54*
X482547Y267595D02*
D03*
X484516D02*
D03*
X486484D02*
D03*
X488453D02*
D03*
Y279405D02*
D03*
X486484D02*
D03*
X484516D02*
D03*
X482547D02*
D03*
D55*
X393831Y257161D02*
D03*
Y259720D02*
D03*
Y262280D02*
D03*
Y264839D02*
D03*
X410169Y257161D02*
D03*
Y259720D02*
D03*
Y262280D02*
D03*
Y264839D02*
D03*
D56*
X427776Y271969D02*
D03*
Y270000D02*
D03*
Y268032D02*
D03*
X432106D02*
D03*
Y270000D02*
D03*
Y271969D02*
D03*
D57*
X474000Y272350D02*
D03*
Y278650D02*
D03*
D58*
X381000Y258059D02*
D03*
X376000D02*
D03*
X371000D02*
D03*
X366000D02*
D03*
X361000D02*
D03*
X356000D02*
D03*
X351000D02*
D03*
X346000D02*
D03*
X381000Y277941D02*
D03*
X376000D02*
D03*
X371000D02*
D03*
X366000D02*
D03*
X361000D02*
D03*
X356000D02*
D03*
X351000D02*
D03*
X346000D02*
D03*
D59*
X475362Y292913D02*
D03*
Y301969D02*
D03*
D60*
X355051Y297500D02*
D03*
X348949D02*
D03*
X488449Y256500D02*
D03*
X494551D02*
D03*
D61*
X427350Y280000D02*
D03*
X433650D02*
D03*
D62*
X402000Y379551D02*
D03*
Y373449D02*
D03*
Y353449D02*
D03*
Y359551D02*
D03*
X355000Y302449D02*
D03*
Y308551D02*
D03*
M02*
