%FSLAX25Y25*%
%MOIN*%
G70*
G01*
G75*
G04 Layer_Physical_Order=4*
G04 Layer_Color=16711680*
%ADD10O,0.00984X0.02559*%
%ADD11O,0.02559X0.00984*%
%ADD12R,0.17716X0.17716*%
%ADD13R,0.02953X0.03543*%
%ADD14R,0.05315X0.03740*%
%ADD15R,0.01575X0.01575*%
%ADD16R,0.00039X0.11811*%
%ADD17R,0.02559X0.06102*%
%ADD18R,0.03543X0.03937*%
%ADD19R,0.03937X0.01378*%
%ADD20R,0.02953X0.09449*%
%ADD21R,0.01969X0.02362*%
%ADD22R,0.02362X0.01969*%
%ADD23C,0.03937*%
%ADD24C,0.00787*%
%ADD25C,0.02000*%
%ADD26C,0.01969*%
%ADD27C,0.01181*%
%ADD28C,0.01000*%
%ADD29C,0.03937*%
%ADD30R,0.02913X0.03937*%
%ADD31R,0.03150X0.04724*%
%ADD32R,0.05079X0.19193*%
%ADD33R,0.03937X0.36142*%
%ADD34R,0.04764X1.00709*%
%ADD35R,0.15590X0.08583*%
%ADD36R,0.04764X0.12598*%
%ADD37R,0.05079X0.12598*%
%ADD38R,0.07992X0.01811*%
G04:AMPARAMS|DCode=39|XSize=18.11mil|YSize=66.44mil|CornerRadius=0mil|HoleSize=0mil|Usage=FLASHONLY|Rotation=124.500|XOffset=0mil|YOffset=0mil|HoleType=Round|Shape=Rectangle|*
%AMROTATEDRECTD39*
4,1,4,0.03251,0.01135,-0.02225,-0.02628,-0.03251,-0.01135,0.02225,0.02628,0.03251,0.01135,0.0*
%
%ADD39ROTATEDRECTD39*%

%ADD40R,0.03500X0.06000*%
%ADD41R,0.04000X0.03870*%
%ADD42R,0.04000X0.03709*%
%ADD43C,0.05906*%
%ADD44R,0.05906X0.05906*%
%ADD45C,0.11811*%
%ADD46C,0.02598*%
%ADD47C,0.03150*%
%ADD48R,0.02559X0.00984*%
%ADD49R,0.03150X0.05512*%
%ADD50R,0.02362X0.04528*%
%ADD51O,0.02362X0.07284*%
%ADD52R,0.03937X0.06496*%
%ADD53R,0.08268X0.05512*%
%ADD54O,0.00984X0.02362*%
%ADD55O,0.05118X0.01772*%
%ADD56R,0.01969X0.00984*%
%ADD57R,0.05118X0.03937*%
%ADD58O,0.02362X0.08071*%
%ADD59R,0.08071X0.03150*%
%ADD60R,0.03543X0.03150*%
%ADD61R,0.03937X0.05118*%
%ADD62R,0.03150X0.03543*%
%ADD63C,0.03150*%
%ADD64C,0.01575*%
G36*
X404500Y384872D02*
X404022Y384726D01*
X403703Y385203D01*
X402922Y385725D01*
X402000Y385909D01*
X401097Y385729D01*
X400861Y386170D01*
X403107Y388416D01*
X403107Y388416D01*
X403369Y388807D01*
X403460Y389268D01*
Y394244D01*
X403460Y394244D01*
X403369Y394705D01*
X403107Y395096D01*
X399352Y398851D01*
X398961Y399113D01*
X398500Y399204D01*
X398500Y399204D01*
X393671D01*
X393436Y399645D01*
X393725Y400078D01*
X393809Y400500D01*
X391500D01*
Y401000D01*
X391000D01*
Y403532D01*
X390846Y403739D01*
X391213Y404426D01*
X391596Y405688D01*
X391725Y407000D01*
X391596Y408312D01*
X391213Y409574D01*
X390592Y410736D01*
X389756Y411756D01*
X388736Y412592D01*
X387574Y413213D01*
X386312Y413596D01*
X385000Y413725D01*
X383688Y413596D01*
X382426Y413213D01*
X381264Y412592D01*
X380244Y411756D01*
X379408Y410736D01*
X378787Y409574D01*
X378404Y408312D01*
X378275Y407000D01*
X378404Y405688D01*
X378787Y404426D01*
X379408Y403264D01*
X380244Y402245D01*
X381264Y401408D01*
X382426Y400787D01*
X383688Y400404D01*
X385000Y400275D01*
X386312Y400404D01*
X387574Y400787D01*
X388709Y401394D01*
X389110Y401096D01*
X389091Y401000D01*
X389275Y400078D01*
X389564Y399645D01*
X389329Y399204D01*
X377000D01*
X376539Y399113D01*
X376479Y399073D01*
X376162Y399459D01*
X377107Y400404D01*
X377107Y400404D01*
X377264Y400639D01*
X377368Y400795D01*
X377460Y401256D01*
X377460Y401256D01*
X377460Y401256D01*
Y401256D01*
Y414244D01*
X377368Y414705D01*
X377107Y415096D01*
X375665Y416538D01*
X375856Y417000D01*
X404500D01*
Y384872D01*
D02*
G37*
G36*
X486894Y260335D02*
Y258862D01*
X485890D01*
Y255849D01*
X485815Y255668D01*
X485720Y254949D01*
Y250021D01*
X485233Y249386D01*
X484856Y248476D01*
X484728Y247500D01*
X484856Y246524D01*
X485233Y245614D01*
X485833Y244832D01*
X486300Y244474D01*
X486140Y244000D01*
X482372D01*
X482226Y244479D01*
X482703Y244797D01*
X483225Y245578D01*
X483309Y246000D01*
X481000D01*
Y246500D01*
X480500D01*
Y248809D01*
X480078Y248725D01*
X479297Y248203D01*
X478775Y247422D01*
X478749Y247292D01*
X478256Y247374D01*
X478272Y247500D01*
X478144Y248476D01*
X477767Y249386D01*
X477168Y250167D01*
X477140Y250586D01*
X480277Y253723D01*
X480669Y254309D01*
X480806Y255000D01*
Y256967D01*
X481266Y257428D01*
X481728Y257236D01*
Y255563D01*
X483000D01*
Y257531D01*
X483500D01*
Y258032D01*
X485272D01*
Y259500D01*
D01*
X485272Y259500D01*
Y259500D01*
X485272D01*
Y261304D01*
X485734Y261496D01*
X486894Y260335D01*
D02*
G37*
G36*
X367838Y390541D02*
X362588Y385291D01*
X362000Y385408D01*
X361078Y385225D01*
X360297Y384703D01*
X359775Y383922D01*
X359728Y383686D01*
X359266Y383495D01*
X358922Y383725D01*
X358000Y383909D01*
X357078Y383725D01*
X356297Y383203D01*
X355775Y382422D01*
X355592Y381500D01*
X355592Y381499D01*
X355176Y381221D01*
X354422Y381725D01*
X353500Y381908D01*
X352611Y381732D01*
X352376Y382173D01*
X360999Y390796D01*
X367000D01*
X367000Y390796D01*
X367461Y390887D01*
X367521Y390927D01*
X367838Y390541D01*
D02*
G37*
G36*
X344228Y375537D02*
Y373500D01*
D01*
X344228Y373500D01*
X344228Y373500D01*
D01*
D01*
Y373500D01*
X344228D01*
D01*
Y369563D01*
X346265D01*
X348180Y367649D01*
X348180Y367649D01*
X348414Y367492D01*
X348571Y367387D01*
X349031Y367296D01*
X349964D01*
X350297Y366797D01*
X350796Y366464D01*
Y338999D01*
X346649Y334852D01*
X346387Y334461D01*
X346296Y334000D01*
X346296Y334000D01*
Y330500D01*
X346296Y330500D01*
X346387Y330039D01*
X346649Y329648D01*
X348296Y328001D01*
Y324177D01*
X347817Y324032D01*
X347703Y324203D01*
X346922Y324725D01*
X346500Y324809D01*
Y322500D01*
Y320191D01*
X346922Y320275D01*
X347703Y320797D01*
X347817Y320968D01*
X348296Y320823D01*
Y312536D01*
X347797Y312203D01*
X347275Y311422D01*
X347092Y310500D01*
X347275Y309578D01*
X347797Y308797D01*
X348578Y308275D01*
X349500Y308091D01*
X350422Y308275D01*
X351203Y308797D01*
X351725Y309578D01*
X351908Y310500D01*
X351725Y311422D01*
X351203Y312203D01*
X350704Y312536D01*
Y328500D01*
X350704Y328500D01*
X350613Y328961D01*
X350477Y329163D01*
X350669Y329625D01*
X351422Y329775D01*
X352203Y330297D01*
X352369Y330545D01*
X352847Y330400D01*
Y311110D01*
X352638D01*
Y305992D01*
X357194D01*
Y305248D01*
X356953Y305008D01*
X352638D01*
Y299890D01*
D01*
Y299890D01*
X352610Y299862D01*
X352492D01*
Y295138D01*
X352492D01*
Y294772D01*
X352146Y294772D01*
X352146Y294772D01*
Y294772D01*
X351508D01*
Y295138D01*
X351508D01*
Y297000D01*
X346390D01*
Y295138D01*
X348563D01*
Y294772D01*
X348563D01*
Y293500D01*
X350532D01*
Y293000D01*
X351031D01*
Y291228D01*
X352146D01*
X352146Y291228D01*
Y291228D01*
X352500Y291228D01*
X352500D01*
D01*
X352854Y291228D01*
X352854Y291228D01*
Y291228D01*
X354294D01*
X354468Y291194D01*
X354643Y291228D01*
X356437D01*
Y292493D01*
X356669Y292840D01*
X356806Y293531D01*
Y295138D01*
X357610D01*
Y299862D01*
X357362D01*
Y299890D01*
X357362D01*
Y300725D01*
X357640Y300780D01*
X358226Y301171D01*
X359579Y302525D01*
X359966Y302208D01*
X359775Y301922D01*
X359592Y301000D01*
X359775Y300078D01*
X360297Y299297D01*
X361078Y298775D01*
X362000Y298591D01*
X362588Y298709D01*
X363063Y298234D01*
X362872Y297772D01*
X362531D01*
Y296000D01*
Y294228D01*
X364000D01*
Y294228D01*
D01*
X364000Y294228D01*
X364000D01*
Y294228D01*
X364796D01*
Y282358D01*
X364581Y282214D01*
X364146Y281563D01*
X363993Y280795D01*
Y275087D01*
X364146Y274319D01*
X364581Y273667D01*
X365232Y273232D01*
X366000Y273080D01*
X366768Y273232D01*
X367419Y273667D01*
X367854Y274319D01*
X368007Y275087D01*
Y280795D01*
X367854Y281563D01*
X367419Y282214D01*
X367204Y282358D01*
Y294228D01*
X367937D01*
Y297772D01*
X366894D01*
X366820Y297883D01*
X366820Y297883D01*
X364291Y300412D01*
X364408Y301000D01*
X364225Y301922D01*
X363703Y302703D01*
X362922Y303225D01*
X362000Y303409D01*
X361078Y303225D01*
X360700Y302972D01*
X360346Y303326D01*
X360669Y303809D01*
X360806Y304500D01*
Y313986D01*
X361268Y314177D01*
X372525Y302921D01*
X372208Y302534D01*
X371922Y302725D01*
X371000Y302908D01*
X370078Y302725D01*
X369297Y302203D01*
X368775Y301422D01*
X368591Y300500D01*
X368775Y299578D01*
X369297Y298797D01*
X369796Y298464D01*
Y297772D01*
X369063D01*
Y294228D01*
X369796D01*
Y282358D01*
X369581Y282214D01*
X369146Y281563D01*
X368993Y280795D01*
Y275087D01*
X369146Y274319D01*
X369581Y273667D01*
X370232Y273232D01*
X371000Y273080D01*
X371768Y273232D01*
X372419Y273667D01*
X372854Y274319D01*
X373007Y275087D01*
Y280795D01*
X372854Y281563D01*
X372419Y282214D01*
X372204Y282358D01*
Y294228D01*
X372646D01*
X372646Y294228D01*
Y294228D01*
X373000Y294228D01*
X373000D01*
D01*
X373354Y294228D01*
X373354Y294228D01*
Y294228D01*
X374468D01*
Y296000D01*
Y297772D01*
X373354D01*
X373354Y297772D01*
Y297772D01*
X373000Y297772D01*
X373000D01*
D01*
X372646Y297772D01*
X372646Y297772D01*
Y297772D01*
X372204D01*
Y298464D01*
X372703Y298797D01*
X373225Y299578D01*
X373409Y300500D01*
X373225Y301422D01*
X373034Y301708D01*
X373421Y302025D01*
X389025Y286421D01*
X388708Y286034D01*
X388422Y286225D01*
X388000Y286309D01*
Y284500D01*
X389809D01*
X389725Y284922D01*
X389534Y285208D01*
X389921Y285525D01*
X408363Y267083D01*
Y266518D01*
X407843Y266415D01*
X407290Y266045D01*
X406920Y265491D01*
X406790Y264839D01*
X406920Y264186D01*
X407290Y263632D01*
Y263486D01*
X406920Y262932D01*
X406790Y262280D01*
X406920Y261627D01*
X407290Y261073D01*
Y260927D01*
X406920Y260373D01*
X406790Y259720D01*
X406920Y259068D01*
X407290Y258514D01*
Y258368D01*
X406920Y257814D01*
X406790Y257161D01*
X406920Y256509D01*
X407290Y255955D01*
X407628Y255729D01*
X407677Y255231D01*
X405752Y253306D01*
X403968D01*
X403794Y253272D01*
X402000D01*
D01*
X402000Y253272D01*
X402000D01*
D01*
X401838Y253272D01*
Y255783D01*
X404777Y258723D01*
X404777Y258723D01*
X404777Y258723D01*
X405169Y259309D01*
X405306Y260000D01*
Y262452D01*
X405725Y263078D01*
X405908Y264000D01*
X405725Y264922D01*
X405203Y265703D01*
X404422Y266225D01*
X403500Y266408D01*
X402578Y266225D01*
X401797Y265703D01*
X401275Y264922D01*
X401091Y264000D01*
X401275Y263078D01*
X401694Y262452D01*
Y260748D01*
X398754Y257809D01*
X398363Y257223D01*
X398225Y256532D01*
X398225Y256532D01*
X398225D01*
X398225Y256532D01*
X398225D01*
Y253983D01*
X397763Y253791D01*
X396323Y255231D01*
X396372Y255729D01*
X396710Y255955D01*
X397080Y256509D01*
X397210Y257161D01*
X397080Y257814D01*
X396710Y258368D01*
Y258514D01*
X397080Y259068D01*
X397210Y259720D01*
X397080Y260373D01*
X396710Y260927D01*
Y261073D01*
X397080Y261627D01*
X397210Y262280D01*
X397080Y262932D01*
X396710Y263486D01*
Y263632D01*
X397080Y264186D01*
X397111Y264339D01*
X390551D01*
X390581Y264186D01*
X390951Y263632D01*
Y263486D01*
X390581Y262932D01*
X390452Y262280D01*
X390581Y261627D01*
X390951Y261073D01*
Y260927D01*
X390581Y260373D01*
X390452Y259720D01*
X390544Y259256D01*
X390227Y258869D01*
X388717D01*
X388272Y259314D01*
Y260146D01*
X388272Y260146D01*
X388272D01*
X388272Y260500D01*
Y260500D01*
D01*
X388272Y260854D01*
X388272Y260854D01*
X388272D01*
Y261968D01*
X384728D01*
Y260854D01*
X384728Y260854D01*
X384728D01*
X384728Y260500D01*
Y260500D01*
D01*
Y260219D01*
X384375Y259865D01*
X383007D01*
Y260913D01*
X382854Y261682D01*
X382419Y262333D01*
X381768Y262768D01*
X381000Y262920D01*
X380232Y262768D01*
X379581Y262333D01*
X379146Y261682D01*
X378993Y260913D01*
Y255205D01*
X379146Y254437D01*
X379581Y253785D01*
X380232Y253350D01*
X381000Y253198D01*
X381768Y253350D01*
X382419Y253785D01*
X382854Y254437D01*
X383007Y255205D01*
Y256253D01*
X386028D01*
X386192Y256285D01*
X386691Y255786D01*
X387277Y255394D01*
X387968Y255257D01*
X391937D01*
X392024Y255169D01*
X392024Y255169D01*
D01*
X392162Y254478D01*
X392553Y253892D01*
X395243Y251202D01*
X395052Y250740D01*
X389260D01*
Y244000D01*
X385978D01*
X385756Y244448D01*
X386267Y245114D01*
X386644Y246024D01*
X386772Y247000D01*
X386644Y247976D01*
X386267Y248886D01*
X385667Y249668D01*
X384886Y250267D01*
X383976Y250644D01*
X383000Y250772D01*
X382024Y250644D01*
X381960Y250618D01*
X377902Y254676D01*
X378007Y255205D01*
Y260913D01*
X377854Y261682D01*
X377419Y262333D01*
X376768Y262768D01*
X376000Y262920D01*
X375232Y262768D01*
X374581Y262333D01*
X374146Y261682D01*
X373993Y260913D01*
Y255205D01*
X374146Y254437D01*
X374178Y254389D01*
Y254000D01*
X374178Y254000D01*
X374316Y253303D01*
X374711Y252711D01*
X379382Y248040D01*
X379356Y247976D01*
X379228Y247000D01*
X379356Y246024D01*
X379733Y245114D01*
X380243Y244448D01*
X380022Y244000D01*
X375978D01*
X375757Y244448D01*
X376267Y245114D01*
X376644Y246024D01*
X376772Y247000D01*
X376644Y247976D01*
X376267Y248886D01*
X375668Y249668D01*
X374886Y250267D01*
X373976Y250644D01*
X373000Y250772D01*
X372822Y250928D01*
Y254389D01*
X372854Y254437D01*
X373007Y255205D01*
Y260913D01*
X372854Y261682D01*
X372419Y262333D01*
X371768Y262768D01*
X371000Y262920D01*
X370232Y262768D01*
X369581Y262333D01*
X369146Y261682D01*
X368993Y260913D01*
Y255205D01*
X369146Y254437D01*
X369178Y254389D01*
Y249000D01*
X369178Y249000D01*
X369316Y248303D01*
X369424Y248141D01*
X369356Y247976D01*
X369228Y247000D01*
X369356Y246024D01*
X369733Y245114D01*
X370244Y244448D01*
X370022Y244000D01*
X365978D01*
X365757Y244448D01*
X366267Y245114D01*
X366644Y246024D01*
X366772Y247000D01*
X366644Y247976D01*
X366617Y248040D01*
X367289Y248711D01*
X367684Y249303D01*
X367822Y250000D01*
X367822Y250000D01*
Y254389D01*
X367854Y254437D01*
X368007Y255205D01*
Y260913D01*
X367854Y261682D01*
X367419Y262333D01*
X366768Y262768D01*
X366000Y262920D01*
X365232Y262768D01*
X364581Y262333D01*
X364146Y261682D01*
X363993Y260913D01*
Y255205D01*
X364146Y254437D01*
X364178Y254389D01*
Y251130D01*
X364091Y250921D01*
X363802Y250667D01*
X363000Y250772D01*
X362024Y250644D01*
X361114Y250267D01*
X360332Y249668D01*
X359733Y248886D01*
X359356Y247976D01*
X359228Y247000D01*
X359356Y246024D01*
X359733Y245114D01*
X360244Y244448D01*
X360022Y244000D01*
X355978D01*
X355756Y244448D01*
X356267Y245114D01*
X356644Y246024D01*
X356772Y247000D01*
X356644Y247976D01*
X356617Y248040D01*
X362249Y253672D01*
X362419Y253785D01*
X362854Y254437D01*
X363007Y255205D01*
Y260913D01*
X362854Y261682D01*
X362419Y262333D01*
X361768Y262768D01*
X361000Y262920D01*
X360232Y262768D01*
X359581Y262333D01*
X359146Y261682D01*
X358993Y260913D01*
Y255570D01*
X358524Y255102D01*
X358160Y255174D01*
X358007Y255238D01*
Y260913D01*
X357854Y261682D01*
X357419Y262333D01*
X356768Y262768D01*
X356000Y262920D01*
X355232Y262768D01*
X354581Y262333D01*
X354146Y261682D01*
X353993Y260913D01*
Y255205D01*
X354146Y254437D01*
X354581Y253785D01*
X355232Y253350D01*
X355997Y253198D01*
X356005Y253173D01*
X356103Y252680D01*
X354040Y250618D01*
X353976Y250644D01*
X353000Y250772D01*
X352024Y250644D01*
X351114Y250267D01*
X350332Y249668D01*
X349733Y248886D01*
X349356Y247976D01*
X349340Y247857D01*
X348841Y247841D01*
X348725Y248422D01*
X348203Y249203D01*
X347422Y249725D01*
X347000Y249809D01*
Y247500D01*
Y245191D01*
X347422Y245275D01*
X348203Y245797D01*
X348725Y246578D01*
X348762Y246761D01*
X349261Y246745D01*
X349356Y246024D01*
X349733Y245114D01*
X350243Y244448D01*
X350022Y244000D01*
X342500D01*
Y285965D01*
X342941Y286201D01*
X343578Y285775D01*
X344000Y285691D01*
Y288000D01*
Y290309D01*
X343578Y290225D01*
X342941Y289799D01*
X342500Y290035D01*
Y376612D01*
X342962Y376803D01*
X344228Y375537D01*
D02*
G37*
G36*
X399638Y375194D02*
Y370890D01*
X404362D01*
D01*
X404362D01*
X404500Y370752D01*
Y366872D01*
X404022Y366726D01*
X403703Y367203D01*
X402922Y367725D01*
X402500Y367809D01*
Y365500D01*
X402000D01*
Y365000D01*
X399691D01*
X399775Y364578D01*
X400062Y364149D01*
X399908Y363863D01*
X399414Y363789D01*
X396968Y366235D01*
X397113Y366714D01*
X397422Y366775D01*
X398203Y367297D01*
X398725Y368078D01*
X398908Y369000D01*
X398725Y369922D01*
X398203Y370703D01*
X397422Y371225D01*
X396996Y371310D01*
X394204Y374101D01*
Y375328D01*
X394645Y375564D01*
X395078Y375275D01*
X396000Y375092D01*
X396922Y375275D01*
X397703Y375797D01*
X398017Y376267D01*
X398515Y376316D01*
X399638Y375194D01*
D02*
G37*
G36*
X359583Y392950D02*
X359631Y392834D01*
X349088Y382291D01*
X348500Y382408D01*
X348308Y382370D01*
X348030Y382786D01*
X348225Y383078D01*
X348409Y384000D01*
X348225Y384922D01*
X347703Y385703D01*
X347204Y386036D01*
Y389001D01*
X351499Y393296D01*
X359352D01*
X359583Y392950D01*
D02*
G37*
G36*
X463122Y314674D02*
X462931Y314213D01*
X461894D01*
Y312441D01*
Y310669D01*
X463009D01*
X463009Y310669D01*
Y310669D01*
X463362Y310669D01*
X463362D01*
D01*
X463716Y310669D01*
X463716Y310669D01*
Y310669D01*
X464849D01*
Y306279D01*
X464094D01*
Y305984D01*
X462331D01*
Y302441D01*
Y298898D01*
X464094D01*
Y298602D01*
X464949D01*
Y297137D01*
X463525Y295713D01*
X462362D01*
D01*
X462362Y295713D01*
X462362D01*
Y295713D01*
D01*
X460894D01*
Y293941D01*
Y292169D01*
X461929D01*
X462259Y291793D01*
X462258Y291785D01*
X462220Y291500D01*
Y274010D01*
X455419Y267209D01*
X453709D01*
Y267480D01*
X453055D01*
X453017Y267537D01*
X450277Y270277D01*
X449691Y270669D01*
X449000Y270806D01*
X444806D01*
Y277000D01*
X444669Y277691D01*
X444277Y278277D01*
X440306Y282248D01*
Y290670D01*
X440785Y290815D01*
X440797Y290797D01*
X441578Y290275D01*
X442500Y290091D01*
X442501Y290092D01*
X442758Y289663D01*
X442408Y289236D01*
X441787Y288074D01*
X441404Y286812D01*
X441275Y285500D01*
X441404Y284188D01*
X441787Y282926D01*
X442408Y281764D01*
X443245Y280745D01*
X444264Y279908D01*
X445426Y279287D01*
X446688Y278904D01*
X448000Y278775D01*
X449312Y278904D01*
X450574Y279287D01*
X451736Y279908D01*
X452755Y280745D01*
X453592Y281764D01*
X454213Y282926D01*
X454596Y284188D01*
X454725Y285500D01*
X454596Y286812D01*
X454213Y288074D01*
X453592Y289236D01*
X452755Y290255D01*
X451736Y291092D01*
X450574Y291713D01*
X449312Y292096D01*
X448000Y292225D01*
X446688Y292096D01*
X445426Y291713D01*
X445188Y291586D01*
X444786Y291883D01*
X444809Y292000D01*
X442500D01*
Y292500D01*
X442000D01*
Y294809D01*
X441578Y294725D01*
X440797Y294203D01*
X440785Y294185D01*
X440306Y294330D01*
Y306452D01*
X440725Y307078D01*
X440908Y308000D01*
X440725Y308922D01*
X440203Y309703D01*
X439422Y310225D01*
X438500Y310408D01*
X437578Y310225D01*
X436797Y309703D01*
X436275Y308922D01*
X436092Y308000D01*
X436275Y307078D01*
X436694Y306452D01*
Y302830D01*
X436215Y302685D01*
X436203Y302703D01*
X435422Y303225D01*
X435000Y303309D01*
Y301000D01*
Y298691D01*
X435422Y298775D01*
X436203Y299297D01*
X436215Y299315D01*
X436694Y299170D01*
Y283347D01*
X436406D01*
Y283347D01*
X430894D01*
Y277724D01*
X430507Y277407D01*
X430500Y277409D01*
X430493Y277407D01*
X430106Y277724D01*
Y283347D01*
X428663D01*
Y284728D01*
X429646D01*
X429646Y284728D01*
Y284728D01*
X430000Y284728D01*
X430000D01*
D01*
X430354Y284728D01*
X430354Y284728D01*
Y284728D01*
X433937D01*
Y288272D01*
X433937Y288272D01*
X433937D01*
X433821Y288489D01*
X434194Y289047D01*
X434377Y289968D01*
X434194Y290890D01*
X433672Y291672D01*
X432890Y292194D01*
X431968Y292377D01*
X431047Y292194D01*
X430266Y291672D01*
X429806Y290984D01*
X429766Y291000D01*
X427000D01*
Y291500D01*
X426500D01*
Y293809D01*
X426078Y293725D01*
X425346Y293236D01*
X424905Y293472D01*
Y302146D01*
X424798Y302683D01*
X424494Y303139D01*
X420007Y307626D01*
Y309520D01*
X421648Y311161D01*
X422000Y311091D01*
X422922Y311275D01*
X423703Y311797D01*
X424225Y312578D01*
X424408Y313500D01*
X424225Y314422D01*
X423936Y314855D01*
X424171Y315296D01*
X462501D01*
X463122Y314674D01*
D02*
G37*
G36*
X399449Y395348D02*
X399304Y394869D01*
X398578Y394725D01*
X397797Y394203D01*
X397275Y393422D01*
X397092Y392500D01*
X397275Y391578D01*
X397796Y390799D01*
Y390499D01*
X392148Y384852D01*
X391887Y384461D01*
X391796Y384000D01*
X391796Y384000D01*
Y378671D01*
X391355Y378436D01*
X390922Y378725D01*
X390000Y378908D01*
X389078Y378725D01*
X388297Y378203D01*
X387775Y377422D01*
X387592Y376500D01*
X387775Y375578D01*
X388297Y374797D01*
X389078Y374275D01*
X390000Y374092D01*
X390922Y374275D01*
X391355Y374564D01*
X391796Y374328D01*
Y373603D01*
X391796Y373603D01*
X391884Y373156D01*
X391834Y373106D01*
X391415Y372826D01*
X391000Y372908D01*
X390078Y372725D01*
X389297Y372203D01*
X388775Y371422D01*
X388592Y370500D01*
X388775Y369578D01*
X389297Y368797D01*
X390078Y368275D01*
X391000Y368092D01*
X391588Y368209D01*
X398145Y361652D01*
X398145Y361652D01*
X398535Y361391D01*
X398996Y361300D01*
X398996Y361300D01*
X399638D01*
Y360755D01*
X389948D01*
X374851Y375851D01*
X374461Y376113D01*
X374000Y376204D01*
X374000Y376204D01*
X360499D01*
X359791Y376912D01*
X359909Y377500D01*
X359725Y378422D01*
X359279Y379089D01*
X359377Y379579D01*
X359703Y379797D01*
X360225Y380578D01*
X360272Y380814D01*
X360734Y381005D01*
X361078Y380775D01*
X362000Y380592D01*
X362922Y380775D01*
X363703Y381297D01*
X363750Y381367D01*
X364250D01*
X364297Y381297D01*
X365078Y380775D01*
X366000Y380592D01*
X366922Y380775D01*
X367589Y381221D01*
X368079Y381123D01*
X368297Y380797D01*
X369078Y380275D01*
X370000Y380092D01*
X370922Y380275D01*
X371703Y380797D01*
X372225Y381578D01*
X372302Y381966D01*
X372797Y382297D01*
X373578Y381775D01*
X374500Y381592D01*
X375422Y381775D01*
X376203Y382297D01*
X376725Y383078D01*
X376908Y384000D01*
X376725Y384922D01*
X376203Y385703D01*
X375422Y386225D01*
X374500Y386408D01*
X373578Y386225D01*
X372797Y385703D01*
X372275Y384922D01*
X372198Y384534D01*
X371703Y384203D01*
X370922Y384725D01*
X370000Y384909D01*
X369078Y384725D01*
X368411Y384279D01*
X367921Y384377D01*
X367703Y384703D01*
X366922Y385225D01*
X366613Y385286D01*
X366468Y385765D01*
X377499Y396796D01*
X384828D01*
X385064Y396355D01*
X384775Y395922D01*
X384592Y395000D01*
X384775Y394078D01*
X385297Y393297D01*
X386078Y392775D01*
X387000Y392592D01*
X387922Y392775D01*
X388703Y393297D01*
X389225Y394078D01*
X389408Y395000D01*
X389225Y395922D01*
X388936Y396355D01*
X389172Y396796D01*
X391823D01*
X391968Y396317D01*
X391797Y396203D01*
X391275Y395422D01*
X391191Y395000D01*
X395809D01*
X395725Y395422D01*
X395203Y396203D01*
X395032Y396317D01*
X395177Y396796D01*
X398001D01*
X399449Y395348D01*
D02*
G37*
G36*
X483500Y297000D02*
X505000D01*
Y244000D01*
X500860D01*
X500700Y244474D01*
X501167Y244832D01*
X501767Y245614D01*
X502144Y246524D01*
X502272Y247500D01*
X502144Y248476D01*
X501767Y249386D01*
X501167Y250167D01*
X500386Y250767D01*
X499476Y251144D01*
X498500Y251272D01*
X497524Y251144D01*
X496614Y250767D01*
X495832Y250167D01*
X495233Y249386D01*
X494856Y248476D01*
X494728Y247500D01*
X494856Y246524D01*
X495233Y245614D01*
X495832Y244832D01*
X496300Y244474D01*
X496140Y244000D01*
X490860D01*
X490700Y244474D01*
X491167Y244832D01*
X491767Y245614D01*
X492144Y246524D01*
X492272Y247500D01*
X492144Y248476D01*
X491767Y249386D01*
X491280Y250021D01*
Y254949D01*
X491185Y255668D01*
X491008Y256096D01*
Y258862D01*
X490106D01*
Y261000D01*
X489983Y261614D01*
X489635Y262135D01*
X487889Y263881D01*
Y265319D01*
X487953Y265371D01*
Y267595D01*
X488453D01*
Y268094D01*
X489757D01*
Y268284D01*
X489658Y268783D01*
X489375Y269206D01*
X488968Y269478D01*
X489113Y269957D01*
X490421D01*
Y273000D01*
X480579D01*
Y269957D01*
X481887D01*
X482032Y269478D01*
X481625Y269206D01*
X481342Y268783D01*
X481243Y268284D01*
Y267635D01*
X481235Y267595D01*
Y266591D01*
X478081Y263437D01*
X477228D01*
D01*
D01*
X477228Y263437D01*
X476772Y263437D01*
Y263437D01*
X474277D01*
X474132Y263915D01*
X474703Y264297D01*
X475225Y265078D01*
X475309Y265500D01*
X473000D01*
Y266000D01*
X472500D01*
Y268309D01*
X472078Y268225D01*
X471297Y267703D01*
X470775Y266922D01*
X470591Y266000D01*
X470592Y265999D01*
X470176Y265721D01*
X469422Y266225D01*
X469000Y266309D01*
Y264000D01*
Y261691D01*
X469422Y261775D01*
X470203Y262297D01*
X470725Y263078D01*
X470908Y264000D01*
X470908Y264001D01*
X471324Y264279D01*
X472078Y263775D01*
X473000Y263592D01*
X473228Y262443D01*
Y259854D01*
X473228Y259854D01*
X473228D01*
X473228Y259500D01*
Y259500D01*
D01*
X473228Y259146D01*
X473228Y259146D01*
X473228D01*
Y258032D01*
X475000D01*
Y257531D01*
X475500D01*
Y255563D01*
X476355D01*
X476546Y255101D01*
X473223Y251777D01*
X472831Y251191D01*
X472759Y250827D01*
X472614Y250767D01*
X471833Y250167D01*
X471233Y249386D01*
X470856Y248476D01*
X470728Y247500D01*
X470856Y246524D01*
X471233Y245614D01*
X471833Y244832D01*
X472300Y244474D01*
X472140Y244000D01*
X466860D01*
X466700Y244474D01*
X467168Y244832D01*
X467767Y245614D01*
X468144Y246524D01*
X468272Y247500D01*
X468144Y248476D01*
X467767Y249386D01*
X467168Y250167D01*
X466386Y250767D01*
X465476Y251144D01*
X464500Y251272D01*
X463524Y251144D01*
X462614Y250767D01*
X461833Y250167D01*
X461233Y249386D01*
X460856Y248476D01*
X460728Y247500D01*
X460856Y246524D01*
X461233Y245614D01*
X461833Y244832D01*
X462300Y244474D01*
X462140Y244000D01*
X450858D01*
Y247319D01*
X450882Y247500D01*
Y252791D01*
X456071D01*
X456790Y252886D01*
X457461Y253164D01*
X458036Y253605D01*
X458036Y253605D01*
X458036Y253605D01*
X459466Y255034D01*
X459907Y255610D01*
X460185Y256281D01*
X460280Y257000D01*
X460185Y257719D01*
X459907Y258390D01*
X459466Y258965D01*
X459272Y259114D01*
Y260500D01*
D01*
Y260500D01*
X459272Y260500D01*
Y260500D01*
X459272D01*
X459272D01*
Y262433D01*
X459407Y262610D01*
X459685Y263281D01*
X459735Y263662D01*
X466965Y270893D01*
X467407Y271468D01*
X467685Y272139D01*
X467780Y272858D01*
X467780Y272858D01*
X467780Y272858D01*
Y272858D01*
Y281278D01*
X468221Y281514D01*
X468578Y281275D01*
X469000Y281191D01*
Y283500D01*
Y285809D01*
X468578Y285725D01*
X468221Y285486D01*
X467780Y285722D01*
Y290349D01*
X469215Y291785D01*
X469657Y292360D01*
X469935Y293031D01*
X470030Y293750D01*
X469958Y294295D01*
X470115Y294373D01*
X470539Y294109D01*
Y290551D01*
X480185D01*
Y295276D01*
X474802D01*
X470933Y299144D01*
X471124Y299606D01*
X480185D01*
Y304331D01*
X470539D01*
Y304263D01*
X468228D01*
Y306279D01*
X467474D01*
Y311610D01*
X467374Y312112D01*
X467299Y312225D01*
Y314213D01*
X466526D01*
X466443Y314630D01*
X466339Y314787D01*
X466182Y315021D01*
X466182Y315021D01*
X464665Y316538D01*
X464856Y317000D01*
X483500D01*
Y297000D01*
D02*
G37*
G36*
X388597Y358700D02*
X388597D01*
X388597Y358700D01*
X388597D01*
X388597Y358700D01*
Y358700D01*
X388597Y358700D01*
Y358700D01*
X388988Y358439D01*
X389449Y358347D01*
X399638D01*
Y356992D01*
X403552D01*
Y356008D01*
X399638D01*
Y350890D01*
X400463D01*
X400609Y350411D01*
X400297Y350203D01*
X399775Y349422D01*
X399591Y348500D01*
X399775Y347578D01*
X400297Y346797D01*
X401078Y346275D01*
X402000Y346092D01*
X402922Y346275D01*
X403111Y346401D01*
X403552Y346165D01*
Y317744D01*
X403552Y317744D01*
X403643Y317283D01*
X403904Y316893D01*
X405149Y315649D01*
X405539Y315387D01*
X406000Y315296D01*
X406000Y315296D01*
X419829D01*
X420064Y314855D01*
X419775Y314422D01*
X419592Y313500D01*
X419662Y313148D01*
X418523Y312009D01*
X418000Y312113D01*
X417232Y311961D01*
X416581Y311526D01*
X416146Y310874D01*
X415993Y310106D01*
Y305185D01*
X416146Y304417D01*
X416581Y303766D01*
X417232Y303331D01*
X418000Y303178D01*
X418768Y303331D01*
X419419Y303766D01*
X419850Y303808D01*
X422095Y301564D01*
Y284082D01*
X418284Y280271D01*
X417898Y280588D01*
X418225Y281078D01*
X418309Y281500D01*
X413691D01*
X413738Y281263D01*
X413297Y281028D01*
X412725Y281600D01*
X412462Y281993D01*
X411728Y282728D01*
X411334Y282991D01*
X409592Y284733D01*
X409854Y285126D01*
X410007Y285894D01*
Y290815D01*
X409854Y291583D01*
X409419Y292234D01*
X408768Y292669D01*
X408000Y292822D01*
X407232Y292669D01*
X406581Y292234D01*
X406146Y291583D01*
X405993Y290815D01*
Y285894D01*
X406146Y285126D01*
X406581Y284474D01*
X406702Y284393D01*
X406787Y283966D01*
X407072Y283540D01*
X407212Y283400D01*
X407020Y282939D01*
X401765D01*
X396968Y287735D01*
X397113Y288213D01*
X397422Y288275D01*
X398203Y288797D01*
X398725Y289578D01*
X398809Y290000D01*
X396500D01*
Y290500D01*
X396000D01*
Y292809D01*
X395578Y292725D01*
X395145Y292436D01*
X394704Y292671D01*
Y300464D01*
X395203Y300797D01*
X395250Y300867D01*
X395728Y300722D01*
Y299354D01*
X395728Y299354D01*
X395728D01*
X395728Y299000D01*
Y299000D01*
D01*
X395728Y298646D01*
X395728Y298646D01*
X395728D01*
Y295063D01*
X399272D01*
Y295719D01*
X405532D01*
X406034Y295819D01*
X406460Y296103D01*
X406460Y296103D01*
X406460Y296103D01*
X408039Y297683D01*
X408500Y297591D01*
X409422Y297775D01*
X410203Y298297D01*
X410725Y299078D01*
X410909Y300000D01*
X410725Y300922D01*
X410203Y301703D01*
X409422Y302225D01*
X409313Y302247D01*
Y303695D01*
X409419Y303766D01*
X409854Y304417D01*
X410007Y305185D01*
Y310106D01*
X409854Y310874D01*
X409419Y311526D01*
X408768Y311961D01*
X408000Y312113D01*
X407232Y311961D01*
X406581Y311526D01*
X406146Y310874D01*
X405993Y310106D01*
Y305185D01*
X406146Y304417D01*
X406581Y303766D01*
X406687Y303695D01*
Y301539D01*
X406275Y300922D01*
X406091Y300000D01*
X406183Y299539D01*
X405711Y299067D01*
X405270Y299303D01*
X405408Y300000D01*
X405225Y300922D01*
X404703Y301703D01*
X404313Y301964D01*
Y303695D01*
X404419Y303766D01*
X404854Y304417D01*
X405007Y305185D01*
Y310106D01*
X404854Y310874D01*
X404419Y311526D01*
X403768Y311961D01*
X403000Y312113D01*
X402232Y311961D01*
X401581Y311526D01*
X401146Y310874D01*
X401127Y310781D01*
X399272D01*
Y311437D01*
X395728D01*
Y307854D01*
X395728Y307854D01*
X395728D01*
X395728Y307500D01*
Y307500D01*
D01*
X395728Y307146D01*
X395728Y307146D01*
X395728D01*
Y304278D01*
X395250Y304133D01*
X395203Y304203D01*
X394422Y304725D01*
X393500Y304908D01*
X392578Y304725D01*
X391797Y304203D01*
X391275Y303422D01*
X391091Y302500D01*
X391275Y301578D01*
X391797Y300797D01*
X392296Y300464D01*
Y289500D01*
X392296Y289500D01*
X392387Y289039D01*
X392649Y288649D01*
X400414Y280883D01*
X400414Y280883D01*
X400805Y280622D01*
X401266Y280530D01*
X409952D01*
X410475Y280007D01*
X410869Y279744D01*
X414978Y275634D01*
X415241Y275241D01*
X415634Y274978D01*
X418728Y271884D01*
Y270000D01*
D01*
X418728Y270000D01*
X418728Y270000D01*
D01*
D01*
Y270000D01*
X418728D01*
D01*
Y268531D01*
X420500D01*
Y268032D01*
X421000D01*
Y266063D01*
X422272D01*
Y267783D01*
X422713Y268019D01*
X423078Y267775D01*
X424000Y267592D01*
X424922Y267775D01*
X425563Y268203D01*
X426004Y267968D01*
Y266752D01*
X427276D01*
Y268032D01*
X427776D01*
Y268531D01*
X429547D01*
Y268721D01*
Y270689D01*
Y272387D01*
X429883Y272662D01*
X430335Y272448D01*
Y270689D01*
Y268721D01*
Y266752D01*
X430794D01*
Y264772D01*
X430354D01*
X430354Y264772D01*
Y264772D01*
X430000Y264772D01*
X430000D01*
D01*
X429646Y264772D01*
X429646Y264772D01*
Y264772D01*
X428532D01*
Y263000D01*
Y261228D01*
X429646D01*
X429646Y261228D01*
Y261228D01*
X430000Y261228D01*
X430000D01*
D01*
X430354Y261228D01*
X430354Y261228D01*
Y261228D01*
X433937D01*
Y264772D01*
X433937D01*
Y264840D01*
X434291Y265194D01*
X436728D01*
Y264937D01*
X436728D01*
Y261354D01*
X436728Y261354D01*
X436728D01*
X436728Y261000D01*
Y261000D01*
D01*
X436728Y260646D01*
X436728Y260646D01*
X436728D01*
Y259531D01*
X440272D01*
Y260646D01*
X440272Y260646D01*
X440272D01*
X440272Y261000D01*
Y261000D01*
D01*
X440272Y261354D01*
X440272Y261354D01*
X440272D01*
Y262884D01*
X440504Y263117D01*
X442291D01*
Y261378D01*
X446228D01*
Y267194D01*
X448252D01*
X449460Y265985D01*
X449333Y265819D01*
X449055Y265149D01*
X448960Y264429D01*
X449055Y263710D01*
X449333Y263039D01*
X449772Y262468D01*
Y261378D01*
X453709D01*
Y261649D01*
X455536D01*
X455610Y261593D01*
X455728Y261544D01*
Y260500D01*
D01*
X455728Y260500D01*
X455728Y260500D01*
D01*
D01*
Y260500D01*
X455728D01*
D01*
Y259114D01*
X455535Y258965D01*
X454919Y258350D01*
X449968D01*
Y258622D01*
X446032D01*
Y257533D01*
X445593Y256961D01*
X445315Y256290D01*
X445220Y255571D01*
X445315Y254851D01*
X445323Y254833D01*
Y247500D01*
X445346Y247319D01*
Y244000D01*
X438654D01*
Y247319D01*
X438677Y247500D01*
X438654Y247681D01*
Y251535D01*
X433142D01*
Y250280D01*
X431021D01*
X430386Y250767D01*
X429476Y251144D01*
X428500Y251272D01*
X427524Y251144D01*
X426614Y250767D01*
X425833Y250167D01*
X425233Y249386D01*
X424856Y248476D01*
X424728Y247500D01*
X424856Y246524D01*
X425233Y245614D01*
X425833Y244832D01*
X426300Y244474D01*
X426140Y244000D01*
X420860D01*
X420700Y244474D01*
X421168Y244832D01*
X421767Y245614D01*
X422144Y246524D01*
X422272Y247500D01*
X422144Y248476D01*
X421767Y249386D01*
X421168Y250167D01*
X420386Y250767D01*
X419476Y251144D01*
X418500Y251272D01*
X417524Y251144D01*
X416614Y250767D01*
X415833Y250167D01*
X415233Y249386D01*
X414856Y248476D01*
X414728Y247500D01*
X414856Y246524D01*
X415233Y245614D01*
X415833Y244832D01*
X416300Y244474D01*
X416140Y244000D01*
X396740D01*
Y245194D01*
X404000D01*
X404691Y245331D01*
X405277Y245723D01*
X406710Y247156D01*
X407189Y247011D01*
X407275Y246578D01*
X407797Y245797D01*
X408578Y245275D01*
X409000Y245191D01*
Y247500D01*
Y249809D01*
X408578Y249725D01*
X408247Y249504D01*
X407806Y249740D01*
Y250252D01*
X411447Y253892D01*
X411838Y254478D01*
X411976Y255169D01*
X411976Y255169D01*
D01*
D01*
D01*
X412495Y255585D01*
X412495D01*
X412495Y255585D01*
X413049Y255955D01*
X413419Y256509D01*
X413549Y257161D01*
X413419Y257814D01*
X413049Y258368D01*
Y258514D01*
X413419Y259068D01*
X413549Y259720D01*
X413419Y260373D01*
X413049Y260927D01*
Y261073D01*
X413419Y261627D01*
X413549Y262280D01*
X413419Y262932D01*
X413049Y263486D01*
Y263632D01*
X413419Y264186D01*
X413549Y264839D01*
X413419Y265491D01*
X413049Y266045D01*
X412495Y266415D01*
X411976Y266518D01*
Y267831D01*
X411838Y268522D01*
X411447Y269108D01*
X386927Y293627D01*
X387072Y294106D01*
X387922Y294275D01*
X388703Y294797D01*
X389225Y295578D01*
X389309Y296000D01*
X387000D01*
Y296500D01*
X386500D01*
Y298809D01*
X386078Y298725D01*
X385297Y298203D01*
X384775Y297422D01*
X384606Y296572D01*
X384127Y296427D01*
X363372Y317182D01*
X363346Y317316D01*
X363467Y317923D01*
X363945Y318068D01*
X364006Y318007D01*
X364462Y317702D01*
X365000Y317595D01*
X379563D01*
X379563Y317228D01*
X379563D01*
D01*
Y316772D01*
X379563D01*
Y313228D01*
X383146D01*
X383146Y313228D01*
Y313228D01*
X383500Y313228D01*
X383500D01*
D01*
X383854Y313228D01*
X383854Y313228D01*
Y313228D01*
X384968D01*
Y315000D01*
X385469D01*
Y315500D01*
X387437D01*
Y316772D01*
D01*
Y316772D01*
X387437Y316772D01*
X387437Y317228D01*
D01*
X387437Y317595D01*
X390988D01*
X391526Y317702D01*
X391553Y317721D01*
X395614D01*
Y325398D01*
X394952D01*
Y337996D01*
X395614D01*
Y345673D01*
X391480D01*
Y337996D01*
X392142D01*
Y325398D01*
X391480D01*
Y321479D01*
X390406Y320405D01*
X387437D01*
Y320772D01*
X383854D01*
X383854Y320772D01*
Y320772D01*
X383500Y320772D01*
X383500D01*
D01*
X383146Y320772D01*
X383146Y320772D01*
Y320772D01*
X379563D01*
Y320405D01*
X365986D01*
X365909Y320500D01*
X365725Y321422D01*
X365203Y322203D01*
X364422Y322725D01*
X363500Y322908D01*
X362578Y322725D01*
X361797Y322203D01*
X361275Y321422D01*
X361091Y320500D01*
X361154Y320184D01*
X361000Y319408D01*
X360313Y319272D01*
X360035Y319688D01*
X360169Y319888D01*
X360306Y320579D01*
Y347252D01*
X362777Y349723D01*
X363169Y350309D01*
X363306Y351000D01*
X363306Y351000D01*
X363306Y351000D01*
Y351000D01*
Y360000D01*
X363169Y360691D01*
X362777Y361277D01*
X360806Y363248D01*
Y372103D01*
X360669Y372794D01*
X360294Y373355D01*
X360428Y373605D01*
X360555Y373796D01*
X373501D01*
X388597Y358700D01*
D02*
G37*
G36*
X362714Y416613D02*
X362592Y416000D01*
X362775Y415078D01*
X363297Y414297D01*
X364078Y413775D01*
X365000Y413591D01*
X365922Y413775D01*
X366703Y414297D01*
X367036Y414796D01*
X371823D01*
X371968Y414317D01*
X371797Y414203D01*
X371275Y413422D01*
X371092Y412500D01*
X371275Y411578D01*
X371797Y410797D01*
X372296Y410464D01*
Y402499D01*
X365501Y395704D01*
X364604D01*
X364555Y396202D01*
X364922Y396275D01*
X365703Y396797D01*
X366225Y397578D01*
X366408Y398500D01*
X366225Y399422D01*
X365703Y400203D01*
X364922Y400725D01*
X364000Y400909D01*
X363078Y400725D01*
X362297Y400203D01*
X361775Y399422D01*
X361750Y399297D01*
X361250D01*
X361225Y399422D01*
X360703Y400203D01*
X359922Y400725D01*
X359000Y400909D01*
X358078Y400725D01*
X357297Y400203D01*
X356775Y399422D01*
X356592Y398500D01*
X356673Y398091D01*
X356356Y397704D01*
X350000D01*
X350000Y397704D01*
X349539Y397613D01*
X349149Y397352D01*
X342962Y391165D01*
X342500Y391356D01*
Y417000D01*
X356396D01*
X356714Y416613D01*
X356592Y416000D01*
X356775Y415078D01*
X357297Y414297D01*
X358078Y413775D01*
X359000Y413591D01*
X359922Y413775D01*
X360703Y414297D01*
X361225Y415078D01*
X361408Y416000D01*
X361286Y416613D01*
X361604Y417000D01*
X362396D01*
X362714Y416613D01*
D02*
G37*
%LPC*%
G36*
X500000Y277500D02*
X498191D01*
X498275Y277078D01*
X498797Y276297D01*
X499578Y275775D01*
X500000Y275691D01*
Y277500D01*
D02*
G37*
G36*
X407500Y279309D02*
X407078Y279225D01*
X406297Y278703D01*
X405775Y277922D01*
X405691Y277500D01*
X407500D01*
Y279309D01*
D02*
G37*
G36*
X451000Y278309D02*
X450578Y278225D01*
X449797Y277703D01*
X449275Y276922D01*
X449191Y276500D01*
X451000D01*
Y278309D01*
D02*
G37*
G36*
X502809Y277500D02*
X501000D01*
Y275691D01*
X501422Y275775D01*
X502203Y276297D01*
X502725Y277078D01*
X502809Y277500D01*
D02*
G37*
G36*
X452000Y278309D02*
Y276500D01*
X453809D01*
X453725Y276922D01*
X453203Y277703D01*
X452422Y278225D01*
X452000Y278309D01*
D02*
G37*
G36*
X408500Y279309D02*
Y277500D01*
X410309D01*
X410225Y277922D01*
X409703Y278703D01*
X408922Y279225D01*
X408500Y279309D01*
D02*
G37*
G36*
X381500Y282703D02*
Y278441D01*
X383007D01*
Y280795D01*
X382854Y281563D01*
X382419Y282214D01*
X381768Y282650D01*
X381500Y282703D01*
D02*
G37*
G36*
X457500Y280309D02*
X457078Y280225D01*
X456297Y279703D01*
X455775Y278922D01*
X455691Y278500D01*
X457500D01*
Y280309D01*
D02*
G37*
G36*
X458500D02*
Y278500D01*
X460309D01*
X460225Y278922D01*
X459703Y279703D01*
X458922Y280225D01*
X458500Y280309D01*
D02*
G37*
G36*
X392000Y279809D02*
X391578Y279725D01*
X390797Y279203D01*
X390275Y278422D01*
X390191Y278000D01*
X392000D01*
Y279809D01*
D02*
G37*
G36*
X393000D02*
Y278000D01*
X394809D01*
X394725Y278422D01*
X394203Y279203D01*
X393422Y279725D01*
X393000Y279809D01*
D02*
G37*
G36*
X380500Y282703D02*
X380232Y282650D01*
X379581Y282214D01*
X379146Y281563D01*
X378993Y280795D01*
Y278441D01*
X380500D01*
Y282703D01*
D02*
G37*
G36*
X383007Y277441D02*
X381500D01*
Y273179D01*
X381768Y273232D01*
X382419Y273667D01*
X382854Y274319D01*
X383007Y275087D01*
Y277441D01*
D02*
G37*
G36*
X451000Y275500D02*
X449191D01*
X449275Y275078D01*
X449797Y274297D01*
X450578Y273775D01*
X451000Y273691D01*
Y275500D01*
D02*
G37*
G36*
X453809D02*
X452000D01*
Y273691D01*
X452422Y273775D01*
X453203Y274297D01*
X453725Y275078D01*
X453809Y275500D01*
D02*
G37*
G36*
X351000Y282802D02*
X350232Y282650D01*
X349581Y282214D01*
X349146Y281563D01*
X348993Y280795D01*
Y275087D01*
X349146Y274319D01*
X349581Y273667D01*
X350232Y273232D01*
X351000Y273080D01*
X351768Y273232D01*
X352419Y273667D01*
X352854Y274319D01*
X353007Y275087D01*
Y280795D01*
X352854Y281563D01*
X352419Y282214D01*
X351768Y282650D01*
X351000Y282802D01*
D02*
G37*
G36*
X356000D02*
X355232Y282650D01*
X354581Y282214D01*
X354146Y281563D01*
X353993Y280795D01*
Y275087D01*
X354146Y274319D01*
X354581Y273667D01*
X355232Y273232D01*
X356000Y273080D01*
X356768Y273232D01*
X357419Y273667D01*
X357854Y274319D01*
X358007Y275087D01*
Y280795D01*
X357854Y281563D01*
X357419Y282214D01*
X356768Y282650D01*
X356000Y282802D01*
D02*
G37*
G36*
X380500Y277441D02*
X378993D01*
Y275087D01*
X379146Y274319D01*
X379581Y273667D01*
X380232Y273232D01*
X380500Y273179D01*
Y277441D01*
D02*
G37*
G36*
X394809Y277000D02*
X393000D01*
Y275191D01*
X393422Y275275D01*
X394203Y275797D01*
X394725Y276578D01*
X394809Y277000D01*
D02*
G37*
G36*
X457500Y277500D02*
X455691D01*
X455775Y277078D01*
X456297Y276297D01*
X457078Y275775D01*
X457500Y275691D01*
Y277500D01*
D02*
G37*
G36*
X460309D02*
X458500D01*
Y275691D01*
X458922Y275775D01*
X459703Y276297D01*
X460225Y277078D01*
X460309Y277500D01*
D02*
G37*
G36*
X407500Y276500D02*
X405691D01*
X405775Y276078D01*
X406297Y275297D01*
X407078Y274775D01*
X407500Y274691D01*
Y276500D01*
D02*
G37*
G36*
X410309D02*
X408500D01*
Y274691D01*
X408922Y274775D01*
X409703Y275297D01*
X410225Y276078D01*
X410309Y276500D01*
D02*
G37*
G36*
X392000Y277000D02*
X390191D01*
X390275Y276578D01*
X390797Y275797D01*
X391578Y275275D01*
X392000Y275191D01*
Y277000D01*
D02*
G37*
G36*
X356532Y288272D02*
X355063D01*
Y287000D01*
X356532D01*
Y288272D01*
D02*
G37*
G36*
X361000Y293408D02*
X360078Y293225D01*
X359297Y292703D01*
X358775Y291922D01*
X358592Y291000D01*
X358775Y290078D01*
X359297Y289297D01*
X359796Y288964D01*
Y288272D01*
X359354D01*
X359353Y288272D01*
Y288272D01*
X359000Y288272D01*
X359000D01*
D01*
X358646Y288272D01*
X358646Y288272D01*
Y288272D01*
X357531D01*
Y286500D01*
Y284728D01*
X358646D01*
X358646Y284728D01*
Y284728D01*
X359000Y284728D01*
X359000D01*
D01*
X359353Y284728D01*
X359354Y284728D01*
Y284728D01*
X359796D01*
Y282358D01*
X359581Y282214D01*
X359146Y281563D01*
X358993Y280795D01*
Y275087D01*
X359146Y274319D01*
X359581Y273667D01*
X360232Y273232D01*
X361000Y273080D01*
X361768Y273232D01*
X362419Y273667D01*
X362854Y274319D01*
X363007Y275087D01*
Y280795D01*
X362854Y281563D01*
X362419Y282214D01*
X362204Y282358D01*
Y284728D01*
X362937D01*
Y288272D01*
X362204D01*
Y288964D01*
X362703Y289297D01*
X363225Y290078D01*
X363408Y291000D01*
X363225Y291922D01*
X362703Y292703D01*
X361922Y293225D01*
X361000Y293408D01*
D02*
G37*
G36*
X345000Y290309D02*
Y288500D01*
X346809D01*
X346725Y288922D01*
X346203Y289703D01*
X345422Y290225D01*
X345000Y290309D01*
D02*
G37*
G36*
X356532Y286000D02*
X355063D01*
Y284728D01*
X356532D01*
Y286000D01*
D02*
G37*
G36*
X346809Y287500D02*
X345000D01*
Y285691D01*
X345422Y285775D01*
X346203Y286297D01*
X346725Y287078D01*
X346809Y287500D01*
D02*
G37*
G36*
X381937Y288272D02*
X380469D01*
Y287000D01*
X381937D01*
Y288272D01*
D02*
G37*
G36*
X402500Y292723D02*
X402232Y292669D01*
X401581Y292234D01*
X401146Y291583D01*
X400993Y290815D01*
Y288854D01*
X402500D01*
Y292723D01*
D02*
G37*
G36*
X417500D02*
X417232Y292669D01*
X416581Y292234D01*
X416146Y291583D01*
X415993Y290815D01*
Y288854D01*
X417500D01*
Y292723D01*
D02*
G37*
G36*
X418500D02*
Y288854D01*
X420007D01*
Y290815D01*
X419854Y291583D01*
X419419Y292234D01*
X418768Y292669D01*
X418500Y292723D01*
D02*
G37*
G36*
X397000Y292809D02*
Y291000D01*
X398809D01*
X398725Y291422D01*
X398203Y292203D01*
X397422Y292725D01*
X397000Y292809D01*
D02*
G37*
G36*
X403500Y292723D02*
Y288854D01*
X405007D01*
Y290815D01*
X404854Y291583D01*
X404419Y292234D01*
X403768Y292669D01*
X403500Y292723D01*
D02*
G37*
G36*
X412500D02*
X412232Y292669D01*
X411581Y292234D01*
X411146Y291583D01*
X410993Y290815D01*
Y288854D01*
X412500D01*
Y292723D01*
D02*
G37*
G36*
X413500D02*
Y288854D01*
X415007D01*
Y290815D01*
X414854Y291583D01*
X414419Y292234D01*
X413768Y292669D01*
X413500Y292723D01*
D02*
G37*
G36*
X389809Y283500D02*
X388000D01*
Y281691D01*
X388422Y281775D01*
X389203Y282297D01*
X389725Y283078D01*
X389809Y283500D01*
D02*
G37*
G36*
X402500Y287854D02*
X400993D01*
Y285894D01*
X401146Y285126D01*
X401581Y284474D01*
X402232Y284039D01*
X402500Y283986D01*
Y287854D01*
D02*
G37*
G36*
X405007D02*
X403500D01*
Y283986D01*
X403768Y284039D01*
X404419Y284474D01*
X404854Y285126D01*
X405007Y285894D01*
Y287854D01*
D02*
G37*
G36*
X500000Y280309D02*
X499578Y280225D01*
X498797Y279703D01*
X498275Y278922D01*
X498191Y278500D01*
X500000D01*
Y280309D01*
D02*
G37*
G36*
X501000D02*
Y278500D01*
X502809D01*
X502725Y278922D01*
X502203Y279703D01*
X501422Y280225D01*
X501000Y280309D01*
D02*
G37*
G36*
X387000Y283500D02*
X385191D01*
X385275Y283078D01*
X385797Y282297D01*
X386578Y281775D01*
X387000Y281691D01*
Y283500D01*
D02*
G37*
G36*
X412500Y287854D02*
X410993D01*
Y285894D01*
X411146Y285126D01*
X411581Y284474D01*
X412232Y284039D01*
X412500Y283986D01*
Y287854D01*
D02*
G37*
G36*
X387000Y286309D02*
X386578Y286225D01*
X385797Y285703D01*
X385275Y284922D01*
X385191Y284500D01*
X387000D01*
Y286309D01*
D02*
G37*
G36*
X375500Y292909D02*
X374578Y292725D01*
X373797Y292203D01*
X373275Y291422D01*
X373092Y290500D01*
X373275Y289578D01*
X373797Y288797D01*
X374063Y288619D01*
X374063Y288272D01*
X374063D01*
Y284728D01*
X374796D01*
Y282358D01*
X374581Y282214D01*
X374146Y281563D01*
X373993Y280795D01*
Y275087D01*
X374146Y274319D01*
X374581Y273667D01*
X375232Y273232D01*
X376000Y273080D01*
X376768Y273232D01*
X377419Y273667D01*
X377854Y274319D01*
X378007Y275087D01*
Y280795D01*
X377854Y281563D01*
X377419Y282214D01*
X377204Y282358D01*
Y284728D01*
X377646D01*
X377646Y284728D01*
Y284728D01*
X378000Y284728D01*
X378000D01*
D01*
X378354Y284728D01*
X378354Y284728D01*
Y284728D01*
X379468D01*
Y286500D01*
Y288272D01*
X378354D01*
X378354Y288272D01*
Y288272D01*
X378000Y288272D01*
X378000D01*
D01*
X377646Y288272D01*
X377646Y288272D01*
Y288272D01*
X377236D01*
Y288846D01*
X377725Y289578D01*
X377908Y290500D01*
X377725Y291422D01*
X377203Y292203D01*
X376422Y292725D01*
X375500Y292909D01*
D02*
G37*
G36*
X381937Y286000D02*
X380469D01*
Y284728D01*
X381937D01*
Y286000D01*
D02*
G37*
G36*
X415007Y287854D02*
X413500D01*
Y283986D01*
X413768Y284039D01*
X414419Y284474D01*
X414854Y285126D01*
X415007Y285894D01*
Y287854D01*
D02*
G37*
G36*
X470000Y285809D02*
Y284000D01*
X471809D01*
X471725Y284422D01*
X471203Y285203D01*
X470422Y285725D01*
X470000Y285809D01*
D02*
G37*
G36*
X420007Y287854D02*
X415993D01*
Y285894D01*
X416146Y285126D01*
X416358Y284808D01*
X416080Y284393D01*
X416000Y284408D01*
X415078Y284225D01*
X414297Y283703D01*
X413775Y282922D01*
X413691Y282500D01*
X418309D01*
X418225Y282922D01*
X417904Y283403D01*
X417940Y283584D01*
X418071Y283901D01*
X418768Y284039D01*
X419419Y284474D01*
X419854Y285126D01*
X420007Y285894D01*
Y287854D01*
D02*
G37*
G36*
X346000Y282802D02*
X345232Y282650D01*
X344581Y282214D01*
X344146Y281563D01*
X343993Y280795D01*
Y275087D01*
X344146Y274319D01*
X344581Y273667D01*
X345232Y273232D01*
X346000Y273080D01*
X346768Y273232D01*
X347419Y273667D01*
X347854Y274319D01*
X348007Y275087D01*
Y280795D01*
X347854Y281563D01*
X347419Y282214D01*
X346768Y282650D01*
X346000Y282802D01*
D02*
G37*
G36*
X440272Y258531D02*
X439000D01*
Y257063D01*
X440272D01*
Y258531D01*
D02*
G37*
G36*
X500000Y259309D02*
X499578Y259225D01*
X498797Y258703D01*
X498275Y257922D01*
X498191Y257500D01*
X500000D01*
Y259309D01*
D02*
G37*
G36*
X501000D02*
Y257500D01*
X502809D01*
X502725Y257922D01*
X502203Y258703D01*
X501422Y259225D01*
X501000Y259309D01*
D02*
G37*
G36*
X494051Y258862D02*
X491992D01*
Y257000D01*
X494051D01*
Y258862D01*
D02*
G37*
G36*
X497110D02*
X495051D01*
Y257000D01*
X497110D01*
Y258862D01*
D02*
G37*
G36*
X438000Y258531D02*
X436728D01*
Y257063D01*
X438000D01*
Y258531D01*
D02*
G37*
G36*
X423500Y262500D02*
X421691D01*
X421775Y262078D01*
X422297Y261297D01*
X423078Y260775D01*
X423500Y260691D01*
Y262500D01*
D02*
G37*
G36*
X388272Y264437D02*
X387000D01*
Y262968D01*
X388272D01*
Y264437D01*
D02*
G37*
G36*
X423500Y265309D02*
X423078Y265225D01*
X422297Y264703D01*
X421775Y263922D01*
X421691Y263500D01*
X423500D01*
Y265309D01*
D02*
G37*
G36*
X357500Y266000D02*
X355691D01*
X355775Y265578D01*
X356297Y264797D01*
X357078Y264275D01*
X357500Y264191D01*
Y266000D01*
D02*
G37*
G36*
X424500Y265309D02*
Y263000D01*
Y260691D01*
X424922Y260775D01*
X425703Y261297D01*
X425726Y261331D01*
X426063Y261228D01*
Y261228D01*
X426063Y261228D01*
X427531D01*
Y263000D01*
Y264772D01*
X426063D01*
X426063Y264772D01*
Y264772D01*
X425726Y264669D01*
X425703Y264703D01*
X424922Y265225D01*
X424500Y265309D01*
D02*
G37*
G36*
X468000Y263500D02*
X466191D01*
X466275Y263078D01*
X466797Y262297D01*
X467578Y261775D01*
X468000Y261691D01*
Y263500D01*
D02*
G37*
G36*
X386000Y264437D02*
X384728D01*
Y262968D01*
X386000D01*
Y264437D01*
D02*
G37*
G36*
X346000Y249809D02*
X345578Y249725D01*
X344797Y249203D01*
X344275Y248422D01*
X344191Y248000D01*
X346000D01*
Y249809D01*
D02*
G37*
G36*
X410000D02*
Y248000D01*
X411809D01*
X411725Y248422D01*
X411203Y249203D01*
X410422Y249725D01*
X410000Y249809D01*
D02*
G37*
G36*
X346000Y262920D02*
X345232Y262768D01*
X344581Y262333D01*
X344146Y261682D01*
X343993Y260913D01*
Y255205D01*
X344146Y254437D01*
X344581Y253785D01*
X345232Y253350D01*
X346000Y253198D01*
X346768Y253350D01*
X347419Y253785D01*
X347854Y254437D01*
X348007Y255205D01*
Y260913D01*
X347854Y261682D01*
X347419Y262333D01*
X346768Y262768D01*
X346000Y262920D01*
D02*
G37*
G36*
Y247000D02*
X344191D01*
X344275Y246578D01*
X344797Y245797D01*
X345578Y245275D01*
X346000Y245191D01*
Y247000D01*
D02*
G37*
G36*
X411809D02*
X410000D01*
Y245191D01*
X410422Y245275D01*
X411203Y245797D01*
X411725Y246578D01*
X411809Y247000D01*
D02*
G37*
G36*
X481500Y248809D02*
Y247000D01*
X483309D01*
X483225Y247422D01*
X482703Y248203D01*
X481922Y248725D01*
X481500Y248809D01*
D02*
G37*
G36*
X351000Y262920D02*
X350232Y262768D01*
X349581Y262333D01*
X349146Y261682D01*
X348993Y260913D01*
Y255205D01*
X349146Y254437D01*
X349581Y253785D01*
X350232Y253350D01*
X351000Y253198D01*
X351768Y253350D01*
X352419Y253785D01*
X352854Y254437D01*
X353007Y255205D01*
Y260913D01*
X352854Y261682D01*
X352419Y262333D01*
X351768Y262768D01*
X351000Y262920D01*
D02*
G37*
G36*
X502809Y256500D02*
X501000D01*
Y254691D01*
X501422Y254775D01*
X502203Y255297D01*
X502725Y256078D01*
X502809Y256500D01*
D02*
G37*
G36*
X474500Y257031D02*
X473228D01*
Y255563D01*
X474500D01*
Y257031D01*
D02*
G37*
G36*
X485272D02*
X484000D01*
Y255563D01*
X485272D01*
Y257031D01*
D02*
G37*
G36*
X494051Y256000D02*
X491992D01*
Y254138D01*
X494051D01*
Y256000D01*
D02*
G37*
G36*
X497110D02*
X495051D01*
Y254138D01*
X497110D01*
Y256000D01*
D02*
G37*
G36*
X500000Y256500D02*
X498191D01*
X498275Y256078D01*
X498797Y255297D01*
X499578Y254775D01*
X500000Y254691D01*
Y256500D01*
D02*
G37*
G36*
X367000Y268809D02*
X366578Y268725D01*
X365797Y268203D01*
X365275Y267422D01*
X365191Y267000D01*
X367000D01*
Y268809D01*
D02*
G37*
G36*
X368000D02*
Y267000D01*
X369809D01*
X369725Y267422D01*
X369203Y268203D01*
X368422Y268725D01*
X368000Y268809D01*
D02*
G37*
G36*
X377000D02*
X376578Y268725D01*
X375797Y268203D01*
X375275Y267422D01*
X375191Y267000D01*
X377000D01*
Y268809D01*
D02*
G37*
G36*
X429547Y267531D02*
X428276D01*
Y266752D01*
X429547D01*
Y267531D01*
D02*
G37*
G36*
X357500Y268809D02*
X357078Y268725D01*
X356297Y268203D01*
X355775Y267422D01*
X355691Y267000D01*
X357500D01*
Y268809D01*
D02*
G37*
G36*
X358500D02*
Y267000D01*
X360309D01*
X360225Y267422D01*
X359703Y268203D01*
X358922Y268725D01*
X358500Y268809D01*
D02*
G37*
G36*
X378000D02*
Y267000D01*
X379809D01*
X379725Y267422D01*
X379203Y268203D01*
X378422Y268725D01*
X378000Y268809D01*
D02*
G37*
G36*
X477347Y271850D02*
X474500D01*
Y269595D01*
X477347D01*
Y271850D01*
D02*
G37*
G36*
X473500Y275106D02*
X470653D01*
Y272850D01*
X473500D01*
Y275106D01*
D02*
G37*
G36*
X477347D02*
X474500D01*
Y272850D01*
X477347D01*
Y275106D01*
D02*
G37*
G36*
X500000Y269309D02*
X499578Y269225D01*
X498797Y268703D01*
X498275Y267922D01*
X498191Y267500D01*
X500000D01*
Y269309D01*
D02*
G37*
G36*
X501000D02*
Y267500D01*
X502809D01*
X502725Y267922D01*
X502203Y268703D01*
X501422Y269225D01*
X501000Y269309D01*
D02*
G37*
G36*
X473500Y271850D02*
X470653D01*
Y269595D01*
X473500D01*
Y271850D01*
D02*
G37*
G36*
X377000Y266000D02*
X375191D01*
X375275Y265578D01*
X375797Y264797D01*
X376578Y264275D01*
X377000Y264191D01*
Y266000D01*
D02*
G37*
G36*
X379809D02*
X378000D01*
Y264191D01*
X378422Y264275D01*
X379203Y264797D01*
X379725Y265578D01*
X379809Y266000D01*
D02*
G37*
G36*
X468000Y266309D02*
X467578Y266225D01*
X466797Y265703D01*
X466275Y264922D01*
X466191Y264500D01*
X468000D01*
Y266309D01*
D02*
G37*
G36*
X360309Y266000D02*
X358500D01*
Y264191D01*
X358922Y264275D01*
X359703Y264797D01*
X360225Y265578D01*
X360309Y266000D01*
D02*
G37*
G36*
X367000D02*
X365191D01*
X365275Y265578D01*
X365797Y264797D01*
X366578Y264275D01*
X367000Y264191D01*
Y266000D01*
D02*
G37*
G36*
X369809D02*
X368000D01*
Y264191D01*
X368422Y264275D01*
X369203Y264797D01*
X369725Y265578D01*
X369809Y266000D01*
D02*
G37*
G36*
X500000Y266500D02*
X498191D01*
X498275Y266078D01*
X498797Y265297D01*
X499578Y264775D01*
X500000Y264691D01*
Y266500D01*
D02*
G37*
G36*
X489757Y267094D02*
X488953D01*
Y265701D01*
X489375Y265983D01*
X489658Y266406D01*
X489757Y266905D01*
Y267094D01*
D02*
G37*
G36*
X420000Y267531D02*
X418728D01*
Y266063D01*
X420000D01*
Y267531D01*
D02*
G37*
G36*
X473500Y268309D02*
Y266500D01*
X475309D01*
X475225Y266922D01*
X474703Y267703D01*
X473922Y268225D01*
X473500Y268309D01*
D02*
G37*
G36*
X502809Y266500D02*
X501000D01*
Y264691D01*
X501422Y264775D01*
X502203Y265297D01*
X502725Y266078D01*
X502809Y266500D01*
D02*
G37*
G36*
X393331Y266545D02*
X392158D01*
X391505Y266415D01*
X390951Y266045D01*
X390581Y265491D01*
X390551Y265339D01*
X393331D01*
Y266545D01*
D02*
G37*
G36*
X395504D02*
X394331D01*
Y265339D01*
X397111D01*
X397080Y265491D01*
X396710Y266045D01*
X396157Y266415D01*
X395504Y266545D01*
D02*
G37*
G36*
X498500Y296500D02*
X496500Y296000D01*
X494500Y295000D01*
X493000Y293000D01*
X492648Y291240D01*
X492186Y291049D01*
X491922Y291225D01*
X491000Y291408D01*
X490078Y291225D01*
X489297Y290703D01*
X488775Y289922D01*
X488591Y289000D01*
X488734Y288283D01*
X488272Y288092D01*
X488187Y288219D01*
X487406Y288741D01*
X486484Y288924D01*
X485563Y288741D01*
X484781Y288219D01*
X484259Y287437D01*
X484076Y286516D01*
X484259Y285594D01*
X484781Y284813D01*
X485172Y284552D01*
Y283338D01*
X484710Y283147D01*
X484428Y283428D01*
X484002Y283713D01*
X483500Y283813D01*
X476500D01*
X475998Y283713D01*
X475572Y283428D01*
X473549Y281405D01*
X471472D01*
X471236Y281846D01*
X471725Y282578D01*
X471809Y283000D01*
X470000D01*
Y281191D01*
X470267Y281244D01*
X470653Y280927D01*
Y275894D01*
X477347D01*
Y281187D01*
X481208D01*
X481444Y280746D01*
X481342Y280594D01*
X481243Y280095D01*
Y278716D01*
X481342Y278217D01*
X481625Y277794D01*
X482032Y277522D01*
X481887Y277043D01*
X480579D01*
Y274000D01*
X490421D01*
Y277043D01*
X489113D01*
X488968Y277522D01*
X489375Y277794D01*
X489658Y278217D01*
X489757Y278716D01*
Y279365D01*
X489765Y279405D01*
Y283409D01*
X491928Y285572D01*
X492213Y285998D01*
X492313Y286500D01*
X492313Y286500D01*
X492313Y286500D01*
Y286500D01*
Y287036D01*
X492703Y287297D01*
X492941Y287652D01*
X493439Y287621D01*
X494000Y286500D01*
X495500Y285500D01*
X497500Y284500D01*
X499000D01*
X502000Y285500D01*
X503500Y287000D01*
X504500Y290000D01*
Y291000D01*
X504000Y293000D01*
X503000Y294500D01*
X501000Y296000D01*
X498500Y296500D01*
D02*
G37*
G36*
X368309Y333500D02*
X366500D01*
Y331691D01*
X366922Y331775D01*
X367703Y332297D01*
X368225Y333078D01*
X368309Y333500D01*
D02*
G37*
G36*
X380000Y333809D02*
X379578Y333725D01*
X378797Y333203D01*
X378275Y332422D01*
X378191Y332000D01*
X380000D01*
Y333809D01*
D02*
G37*
G36*
X381000D02*
Y332000D01*
X382809D01*
X382725Y332422D01*
X382203Y333203D01*
X381422Y333725D01*
X381000Y333809D01*
D02*
G37*
G36*
X398756Y331000D02*
X396947D01*
X397031Y330578D01*
X397553Y329797D01*
X398334Y329275D01*
X398756Y329191D01*
Y331000D01*
D02*
G37*
G36*
X401565D02*
X399756D01*
Y329191D01*
X400178Y329275D01*
X400959Y329797D01*
X401481Y330578D01*
X401565Y331000D01*
D02*
G37*
G36*
X365500Y333500D02*
X363691D01*
X363775Y333078D01*
X364297Y332297D01*
X365078Y331775D01*
X365500Y331691D01*
Y333500D01*
D02*
G37*
G36*
X398756Y333809D02*
X398334Y333725D01*
X397553Y333203D01*
X397031Y332422D01*
X396947Y332000D01*
X398756D01*
Y333809D01*
D02*
G37*
G36*
Y341335D02*
X397189D01*
Y337996D01*
X398756D01*
Y341335D01*
D02*
G37*
G36*
X401323D02*
X399756D01*
Y337996D01*
X401323D01*
Y341335D01*
D02*
G37*
G36*
X365500Y341032D02*
X364228D01*
Y339563D01*
X365500D01*
Y341032D01*
D02*
G37*
G36*
X399756Y333809D02*
Y332000D01*
X401565D01*
X401481Y332422D01*
X400959Y333203D01*
X400178Y333725D01*
X399756Y333809D01*
D02*
G37*
G36*
X365500Y336309D02*
X365078Y336225D01*
X364297Y335703D01*
X363775Y334922D01*
X363691Y334500D01*
X365500D01*
Y336309D01*
D02*
G37*
G36*
X366500D02*
Y334500D01*
X368309D01*
X368225Y334922D01*
X367703Y335703D01*
X366922Y336225D01*
X366500Y336309D01*
D02*
G37*
G36*
X345500Y322000D02*
X343691D01*
X343775Y321578D01*
X344297Y320797D01*
X345078Y320275D01*
X345500Y320191D01*
Y322000D01*
D02*
G37*
G36*
X372500Y323000D02*
X370691D01*
X370775Y322578D01*
X371297Y321797D01*
X372078Y321275D01*
X372500Y321191D01*
Y323000D01*
D02*
G37*
G36*
X375309D02*
X373500D01*
Y321191D01*
X373922Y321275D01*
X374703Y321797D01*
X375225Y322578D01*
X375309Y323000D01*
D02*
G37*
G36*
X387437Y314500D02*
X385968D01*
Y313228D01*
X387437D01*
Y314500D01*
D02*
G37*
G36*
X398756Y321059D02*
X397189D01*
Y317721D01*
X398756D01*
Y321059D01*
D02*
G37*
G36*
X401323D02*
X399756D01*
Y317721D01*
X401323D01*
Y321059D01*
D02*
G37*
G36*
X398756Y325398D02*
X397189D01*
Y322059D01*
X398756D01*
Y325398D01*
D02*
G37*
G36*
X373500Y325809D02*
Y324000D01*
X375309D01*
X375225Y324422D01*
X374703Y325203D01*
X373922Y325725D01*
X373500Y325809D01*
D02*
G37*
G36*
X380000Y331000D02*
X378191D01*
X378275Y330578D01*
X378797Y329797D01*
X379578Y329275D01*
X380000Y329191D01*
Y331000D01*
D02*
G37*
G36*
X382809D02*
X381000D01*
Y329191D01*
X381422Y329275D01*
X382203Y329797D01*
X382725Y330578D01*
X382809Y331000D01*
D02*
G37*
G36*
X401323Y325398D02*
X399756D01*
Y322059D01*
X401323D01*
Y325398D01*
D02*
G37*
G36*
X345500Y324809D02*
X345078Y324725D01*
X344297Y324203D01*
X343775Y323422D01*
X343691Y323000D01*
X345500D01*
Y324809D01*
D02*
G37*
G36*
X372500Y325809D02*
X372078Y325725D01*
X371297Y325203D01*
X370775Y324422D01*
X370691Y324000D01*
X372500D01*
Y325809D01*
D02*
G37*
G36*
X374862Y370890D02*
Y369362D01*
X376390D01*
X376328Y369676D01*
X375867Y370367D01*
X375176Y370828D01*
X374862Y370890D01*
D02*
G37*
G36*
X381469Y385968D02*
X379660D01*
X379743Y385547D01*
X380265Y384766D01*
X381047Y384243D01*
X381469Y384159D01*
Y385968D01*
D02*
G37*
G36*
X384278D02*
X382469D01*
Y384159D01*
X382890Y384243D01*
X383672Y384766D01*
X384194Y385547D01*
X384278Y385968D01*
D02*
G37*
G36*
X401500Y367809D02*
X401078Y367725D01*
X400297Y367203D01*
X399775Y366422D01*
X399691Y366000D01*
X401500D01*
Y367809D01*
D02*
G37*
G36*
X373862Y370890D02*
X373548Y370828D01*
X372858Y370367D01*
X372397Y369676D01*
X372250Y368939D01*
X371750D01*
X371603Y369676D01*
X371142Y370367D01*
X370452Y370828D01*
X370138Y370890D01*
Y368862D01*
X369638D01*
Y368362D01*
X367610D01*
X367672Y368048D01*
X368133Y367358D01*
X368824Y366897D01*
X369561Y366750D01*
Y366250D01*
X368824Y366103D01*
X368133Y365642D01*
X367672Y364952D01*
X367610Y364638D01*
X369638D01*
Y364138D01*
X370138D01*
Y362110D01*
X370452Y362172D01*
X371142Y362633D01*
X371603Y363324D01*
X371750Y364061D01*
X372250D01*
X372397Y363324D01*
X372858Y362633D01*
X373548Y362172D01*
X373862Y362110D01*
Y364138D01*
X374362D01*
Y364638D01*
X376390D01*
X376328Y364952D01*
X375867Y365642D01*
X375176Y366103D01*
X374439Y366250D01*
Y366750D01*
X375176Y366897D01*
X375867Y367358D01*
X376328Y368048D01*
X376390Y368362D01*
X374362D01*
Y368862D01*
X373862D01*
Y370890D01*
D02*
G37*
G36*
X369138D02*
X368824Y370828D01*
X368133Y370367D01*
X367672Y369676D01*
X367610Y369362D01*
X369138D01*
Y370890D01*
D02*
G37*
G36*
X381469Y388777D02*
X381047Y388694D01*
X380265Y388172D01*
X379743Y387390D01*
X379660Y386968D01*
X381469D01*
Y388777D01*
D02*
G37*
G36*
X392000Y403309D02*
Y401500D01*
X393809D01*
X393725Y401922D01*
X393203Y402703D01*
X392422Y403225D01*
X392000Y403309D01*
D02*
G37*
G36*
X398000Y416500D02*
X396000Y416000D01*
X394000Y415000D01*
X392500Y413000D01*
X392000Y410500D01*
X392500Y408500D01*
X393500Y406500D01*
X395000Y405500D01*
X397000Y404500D01*
X398500D01*
X401500Y405500D01*
X403000Y407000D01*
X404000Y410000D01*
Y411000D01*
X403500Y413000D01*
X402500Y414500D01*
X400500Y416000D01*
X398000Y416500D01*
D02*
G37*
G36*
X345500Y416408D02*
X344578Y416225D01*
X343797Y415703D01*
X343275Y414922D01*
X343092Y414000D01*
X343275Y413078D01*
X343797Y412297D01*
X344578Y411775D01*
X345500Y411591D01*
X346422Y411775D01*
X347203Y412297D01*
X347725Y413078D01*
X347908Y414000D01*
X347725Y414922D01*
X347203Y415703D01*
X346422Y416225D01*
X345500Y416408D01*
D02*
G37*
G36*
X382469Y388777D02*
Y386968D01*
X384278D01*
X384194Y387390D01*
X383672Y388172D01*
X382890Y388694D01*
X382469Y388777D01*
D02*
G37*
G36*
X393000Y394000D02*
X391191D01*
X391275Y393578D01*
X391797Y392797D01*
X392578Y392275D01*
X393000Y392191D01*
Y394000D01*
D02*
G37*
G36*
X395809D02*
X394000D01*
Y392191D01*
X394422Y392275D01*
X395203Y392797D01*
X395725Y393578D01*
X395809Y394000D01*
D02*
G37*
G36*
X378272Y343531D02*
X377000D01*
Y342063D01*
X378272D01*
Y343531D01*
D02*
G37*
G36*
X398756Y345673D02*
X397189D01*
Y342335D01*
X398756D01*
Y345673D01*
D02*
G37*
G36*
X401323D02*
X399756D01*
Y342335D01*
X401323D01*
Y345673D01*
D02*
G37*
G36*
X367772Y341032D02*
X366500D01*
Y339563D01*
X367772D01*
Y341032D01*
D02*
G37*
G36*
X368000Y351908D02*
X367078Y351725D01*
X366297Y351203D01*
X365775Y350422D01*
X365592Y349500D01*
X365709Y348912D01*
X365148Y348352D01*
X364887Y347961D01*
X364796Y347500D01*
X364481Y347437D01*
X364228D01*
Y343854D01*
X364228Y343854D01*
X364228D01*
X364228Y343500D01*
Y343500D01*
D01*
X364228Y343146D01*
X364228Y343146D01*
X364228D01*
Y342032D01*
X367772D01*
Y343146D01*
X367772Y343146D01*
X367772D01*
X367772Y343500D01*
Y343500D01*
D01*
X367772Y343854D01*
X367772Y343854D01*
X367772D01*
Y346904D01*
X368000Y347092D01*
X368922Y347275D01*
X369703Y347797D01*
X370225Y348578D01*
X370409Y349500D01*
X370225Y350422D01*
X369703Y351203D01*
X368922Y351725D01*
X368000Y351908D01*
D02*
G37*
G36*
X376000Y343531D02*
X374728D01*
Y342063D01*
X376000D01*
Y343531D01*
D02*
G37*
G36*
X376500Y353409D02*
X375578Y353225D01*
X374797Y352703D01*
X374275Y351922D01*
X374092Y351000D01*
X374275Y350078D01*
X374728Y349400D01*
Y346354D01*
X374728Y346354D01*
X374728D01*
X374728Y346000D01*
Y346000D01*
D01*
X374728Y345646D01*
X374728Y345646D01*
X374728D01*
Y344531D01*
X378272D01*
Y345646D01*
X378272Y345646D01*
X378272D01*
X378272Y346000D01*
Y346000D01*
D01*
X378272Y346354D01*
X378272Y346354D01*
X378272D01*
Y349400D01*
X378725Y350078D01*
X378908Y351000D01*
X378725Y351922D01*
X378203Y352703D01*
X377422Y353225D01*
X376500Y353409D01*
D02*
G37*
G36*
X346000Y365408D02*
X345078Y365225D01*
X344297Y364703D01*
X343775Y363922D01*
X343591Y363000D01*
X343775Y362078D01*
X344297Y361297D01*
X344367Y361250D01*
Y360750D01*
X344297Y360703D01*
X343775Y359922D01*
X343591Y359000D01*
X343775Y358078D01*
X344297Y357297D01*
X344367Y357250D01*
Y356750D01*
X344297Y356703D01*
X343775Y355922D01*
X343591Y355000D01*
X343775Y354078D01*
X344297Y353297D01*
X344741Y353000D01*
Y352500D01*
X344297Y352203D01*
X343775Y351422D01*
X343691Y351000D01*
X348309D01*
X348225Y351422D01*
X347703Y352203D01*
X347259Y352500D01*
Y353000D01*
X347703Y353297D01*
X348225Y354078D01*
X348409Y355000D01*
X348225Y355922D01*
X347703Y356703D01*
X347633Y356750D01*
Y357250D01*
X347703Y357297D01*
X348225Y358078D01*
X348409Y359000D01*
X348225Y359922D01*
X347703Y360703D01*
X347633Y360750D01*
Y361250D01*
X347703Y361297D01*
X348225Y362078D01*
X348409Y363000D01*
X348225Y363922D01*
X347703Y364703D01*
X346922Y365225D01*
X346000Y365408D01*
D02*
G37*
G36*
X369138Y363638D02*
X367610D01*
X367672Y363324D01*
X368133Y362633D01*
X368824Y362172D01*
X369138Y362110D01*
Y363638D01*
D02*
G37*
G36*
X376390D02*
X374862D01*
Y362110D01*
X375176Y362172D01*
X375867Y362633D01*
X376328Y363324D01*
X376390Y363638D01*
D02*
G37*
G36*
X345500Y350000D02*
X343691D01*
X343775Y349578D01*
X344297Y348797D01*
X345078Y348275D01*
X345500Y348191D01*
Y350000D01*
D02*
G37*
G36*
X348309D02*
X346500D01*
Y348191D01*
X346922Y348275D01*
X347703Y348797D01*
X348225Y349578D01*
X348309Y350000D01*
D02*
G37*
G36*
X386000Y355409D02*
X385078Y355225D01*
X384297Y354703D01*
X383775Y353922D01*
X383592Y353000D01*
X383775Y352078D01*
X384297Y351297D01*
X385078Y350775D01*
X386000Y350591D01*
X386922Y350775D01*
X387703Y351297D01*
X388225Y352078D01*
X388408Y353000D01*
X388225Y353922D01*
X387703Y354703D01*
X386922Y355225D01*
X386000Y355409D01*
D02*
G37*
G36*
X460894Y314213D02*
X459425D01*
Y312941D01*
X460894D01*
Y314213D01*
D02*
G37*
G36*
X445862Y299972D02*
X444591D01*
Y298504D01*
X445862D01*
Y299972D01*
D02*
G37*
G36*
X448134D02*
X446862D01*
Y298504D01*
X448134D01*
Y299972D01*
D02*
G37*
G36*
X450362D02*
X449090D01*
Y298504D01*
X450362D01*
Y299972D01*
D02*
G37*
G36*
X387500Y298809D02*
Y297000D01*
X389309D01*
X389225Y297422D01*
X388703Y298203D01*
X387922Y298725D01*
X387500Y298809D01*
D02*
G37*
G36*
X348449Y299862D02*
X346390D01*
Y298000D01*
X348449D01*
Y299862D01*
D02*
G37*
G36*
X351508D02*
X349449D01*
Y298000D01*
X351508D01*
Y299862D01*
D02*
G37*
G36*
X452634Y299972D02*
X451362D01*
Y298504D01*
X452634D01*
Y299972D01*
D02*
G37*
G36*
X351309Y303000D02*
X349500D01*
Y301191D01*
X349922Y301275D01*
X350703Y301797D01*
X351225Y302578D01*
X351309Y303000D01*
D02*
G37*
G36*
X434000Y303309D02*
X433578Y303225D01*
X432797Y302703D01*
X432275Y301922D01*
X432191Y301500D01*
X434000D01*
Y303309D01*
D02*
G37*
G36*
X383000Y306809D02*
Y304500D01*
Y302191D01*
X383422Y302275D01*
X384203Y302797D01*
X384709Y303554D01*
X385200Y303457D01*
X385275Y303078D01*
X385797Y302297D01*
X386578Y301775D01*
X387000Y301691D01*
Y304000D01*
Y306309D01*
X386578Y306225D01*
X385797Y305703D01*
X385291Y304946D01*
X384800Y305043D01*
X384725Y305422D01*
X384203Y306203D01*
X383422Y306725D01*
X383000Y306809D01*
D02*
G37*
G36*
X457000Y299382D02*
X455433D01*
Y298602D01*
X457000D01*
Y299382D01*
D02*
G37*
G36*
X434000Y300500D02*
X432191D01*
X432275Y300078D01*
X432797Y299297D01*
X433578Y298775D01*
X434000Y298691D01*
Y300500D01*
D02*
G37*
G36*
X348500Y303000D02*
X346691D01*
X346775Y302578D01*
X347297Y301797D01*
X348078Y301275D01*
X348500Y301191D01*
Y303000D01*
D02*
G37*
G36*
X427500Y293809D02*
Y292000D01*
X429309D01*
X429225Y292422D01*
X428703Y293203D01*
X427922Y293725D01*
X427500Y293809D01*
D02*
G37*
G36*
X459894Y293441D02*
X458425D01*
Y292169D01*
X459894D01*
Y293441D01*
D02*
G37*
G36*
X443000Y294809D02*
Y293000D01*
X444809D01*
X444725Y293422D01*
X444203Y294203D01*
X443422Y294725D01*
X443000Y294809D01*
D02*
G37*
G36*
X487000Y293000D02*
X485191D01*
X485275Y292578D01*
X485797Y291797D01*
X486578Y291275D01*
X487000Y291191D01*
Y293000D01*
D02*
G37*
G36*
X489809D02*
X488000D01*
Y291191D01*
X488422Y291275D01*
X489203Y291797D01*
X489725Y292578D01*
X489809Y293000D01*
D02*
G37*
G36*
X350031Y292500D02*
X348563D01*
Y291228D01*
X350031D01*
Y292500D01*
D02*
G37*
G36*
X487000Y295809D02*
X486578Y295725D01*
X485797Y295203D01*
X485275Y294422D01*
X485191Y294000D01*
X487000D01*
Y295809D01*
D02*
G37*
G36*
X459894Y295713D02*
X458425D01*
Y294441D01*
X459894D01*
Y295713D01*
D02*
G37*
G36*
X376937Y297772D02*
X375468D01*
Y296500D01*
X376937D01*
Y297772D01*
D02*
G37*
G36*
X361531Y297772D02*
X360063D01*
Y296500D01*
X361531D01*
Y297772D01*
D02*
G37*
G36*
X488000Y295809D02*
Y294000D01*
X489809D01*
X489725Y294422D01*
X489203Y295203D01*
X488422Y295725D01*
X488000Y295809D01*
D02*
G37*
G36*
X376937Y295500D02*
X375468D01*
Y294228D01*
X376937D01*
Y295500D01*
D02*
G37*
G36*
X361531Y295500D02*
X360063D01*
Y294228D01*
X361531D01*
Y295500D01*
D02*
G37*
G36*
X430000Y311309D02*
Y309500D01*
X431809D01*
X431725Y309922D01*
X431203Y310703D01*
X430422Y311225D01*
X430000Y311309D01*
D02*
G37*
G36*
X441500Y311500D02*
X439691D01*
X439775Y311078D01*
X440297Y310297D01*
X441078Y309775D01*
X441500Y309691D01*
Y311500D01*
D02*
G37*
G36*
X444309D02*
X442500D01*
Y309691D01*
X442922Y309775D01*
X443703Y310297D01*
X444225Y311078D01*
X444309Y311500D01*
D02*
G37*
G36*
X477000Y310000D02*
X475191D01*
X475275Y309578D01*
X475797Y308797D01*
X476578Y308275D01*
X477000Y308191D01*
Y310000D01*
D02*
G37*
G36*
X479809D02*
X478000D01*
Y308191D01*
X478422Y308275D01*
X479203Y308797D01*
X479725Y309578D01*
X479809Y310000D01*
D02*
G37*
G36*
X429000Y311309D02*
X428578Y311225D01*
X427797Y310703D01*
X427275Y309922D01*
X427191Y309500D01*
X429000D01*
Y311309D01*
D02*
G37*
G36*
X460894Y311941D02*
X459425D01*
Y310669D01*
X460894D01*
Y311941D01*
D02*
G37*
G36*
X392000Y316408D02*
X391078Y316225D01*
X390297Y315703D01*
X389775Y314922D01*
X389592Y314000D01*
X389775Y313078D01*
X390297Y312297D01*
X391078Y311775D01*
X392000Y311592D01*
X392922Y311775D01*
X393703Y312297D01*
X394225Y313078D01*
X394408Y314000D01*
X394225Y314922D01*
X393703Y315703D01*
X392922Y316225D01*
X392000Y316408D01*
D02*
G37*
G36*
X441500Y314309D02*
X441078Y314225D01*
X440297Y313703D01*
X439775Y312922D01*
X439691Y312500D01*
X441500D01*
Y314309D01*
D02*
G37*
G36*
X442500D02*
Y312500D01*
X444309D01*
X444225Y312922D01*
X443703Y313703D01*
X442922Y314225D01*
X442500Y314309D01*
D02*
G37*
G36*
X477000Y312809D02*
X476578Y312725D01*
X475797Y312203D01*
X475275Y311422D01*
X475191Y311000D01*
X477000D01*
Y312809D01*
D02*
G37*
G36*
X478000D02*
Y311000D01*
X479809D01*
X479725Y311422D01*
X479203Y312203D01*
X478422Y312725D01*
X478000Y312809D01*
D02*
G37*
G36*
X373500Y315909D02*
X372578Y315725D01*
X371797Y315203D01*
X371275Y314422D01*
X371092Y313500D01*
X371275Y312578D01*
X371797Y311797D01*
X372578Y311275D01*
X373500Y311091D01*
X374422Y311275D01*
X375203Y311797D01*
X375725Y312578D01*
X375908Y313500D01*
X375725Y314422D01*
X375203Y315203D01*
X374422Y315725D01*
X373500Y315909D01*
D02*
G37*
G36*
X415007Y307146D02*
X413500D01*
Y303277D01*
X413768Y303331D01*
X414419Y303766D01*
X414854Y304417D01*
X415007Y305185D01*
Y307146D01*
D02*
G37*
G36*
X348500Y305809D02*
X348078Y305725D01*
X347297Y305203D01*
X346775Y304422D01*
X346691Y304000D01*
X348500D01*
Y305809D01*
D02*
G37*
G36*
X349500D02*
Y304000D01*
X351309D01*
X351225Y304422D01*
X350703Y305203D01*
X349922Y305725D01*
X349500Y305809D01*
D02*
G37*
G36*
X389809Y303500D02*
X388000D01*
Y301691D01*
X388422Y301775D01*
X389203Y302297D01*
X389725Y303078D01*
X389809Y303500D01*
D02*
G37*
G36*
X382000Y304000D02*
X380191D01*
X380275Y303578D01*
X380797Y302797D01*
X381578Y302275D01*
X382000Y302191D01*
Y304000D01*
D02*
G37*
G36*
X412500Y307146D02*
X410993D01*
Y305185D01*
X411146Y304417D01*
X411581Y303766D01*
X412232Y303331D01*
X412500Y303277D01*
Y307146D01*
D02*
G37*
G36*
X388000Y306309D02*
Y304500D01*
X389809D01*
X389725Y304922D01*
X389203Y305703D01*
X388422Y306225D01*
X388000Y306309D01*
D02*
G37*
G36*
X455000Y312408D02*
X454078Y312225D01*
X453297Y311703D01*
X452775Y310922D01*
X452592Y310000D01*
X452775Y309078D01*
X453297Y308297D01*
X454078Y307775D01*
X454789Y307633D01*
X455138Y307284D01*
X454947Y306822D01*
X446953D01*
X446953Y306822D01*
X446255Y306684D01*
X445798Y306378D01*
X444591D01*
Y304665D01*
X444540Y304409D01*
X444591Y304154D01*
Y302795D01*
X444591Y302795D01*
X444591D01*
X444591Y302441D01*
Y302441D01*
D01*
X444591Y302087D01*
X444591Y302087D01*
X444591D01*
Y300972D01*
X448134D01*
Y302087D01*
X448134Y302087D01*
X448134D01*
X448134Y302441D01*
Y302441D01*
D01*
X448134Y302795D01*
X448134Y302795D01*
X448134D01*
Y303178D01*
X449090D01*
Y302795D01*
X449090Y302795D01*
X449090D01*
X449090Y302441D01*
Y302441D01*
D01*
X449090Y302087D01*
X449090Y302087D01*
X449090D01*
Y300972D01*
X452634D01*
Y301279D01*
X452939Y301483D01*
X453096Y301548D01*
X453131Y301513D01*
X453557Y301228D01*
X454059Y301128D01*
X455433D01*
Y300382D01*
X457500D01*
Y299882D01*
X458000D01*
Y298602D01*
X459567D01*
Y298898D01*
X461331D01*
Y302441D01*
Y305984D01*
X459567D01*
Y306279D01*
X459322D01*
Y307500D01*
X459184Y308197D01*
X459025Y308434D01*
X458789Y308789D01*
X458789Y308789D01*
X457367Y310211D01*
X457225Y310922D01*
X456703Y311703D01*
X455922Y312225D01*
X455000Y312408D01*
D02*
G37*
G36*
X412500Y312014D02*
X412232Y311961D01*
X411581Y311526D01*
X411146Y310874D01*
X410993Y310106D01*
Y308146D01*
X412500D01*
Y312014D01*
D02*
G37*
G36*
X413500D02*
Y308146D01*
X415007D01*
Y310106D01*
X414854Y310874D01*
X414419Y311526D01*
X413768Y311961D01*
X413500Y312014D01*
D02*
G37*
G36*
X382000Y306809D02*
X381578Y306725D01*
X380797Y306203D01*
X380275Y305422D01*
X380191Y305000D01*
X382000D01*
Y306809D01*
D02*
G37*
G36*
X429000Y308500D02*
X427191D01*
X427275Y308078D01*
X427797Y307297D01*
X428578Y306775D01*
X429000Y306691D01*
Y308500D01*
D02*
G37*
G36*
X431809D02*
X430000D01*
Y306691D01*
X430422Y306775D01*
X431203Y307297D01*
X431725Y308078D01*
X431809Y308500D01*
D02*
G37*
%LPD*%
D17*
X393547Y341835D02*
D03*
X399256D02*
D03*
Y321559D02*
D03*
X393547D02*
D03*
D21*
X420500Y268032D02*
D03*
Y271969D02*
D03*
X366000Y341531D02*
D03*
Y345468D02*
D03*
X376500Y344032D02*
D03*
Y347969D02*
D03*
X483500Y257531D02*
D03*
Y261469D02*
D03*
X475000Y257531D02*
D03*
Y261469D02*
D03*
X450862Y300472D02*
D03*
Y304409D02*
D03*
X446362Y300472D02*
D03*
Y304409D02*
D03*
X386500Y262469D02*
D03*
Y258531D02*
D03*
X457500Y258531D02*
D03*
Y262469D02*
D03*
X438500Y259032D02*
D03*
Y262968D02*
D03*
X479000Y261469D02*
D03*
Y257531D02*
D03*
X397500Y305532D02*
D03*
Y309469D02*
D03*
X397500Y300969D02*
D03*
Y297031D02*
D03*
X346000Y371532D02*
D03*
Y375468D02*
D03*
D22*
X428031Y263000D02*
D03*
X431968D02*
D03*
X460394Y293941D02*
D03*
X464331D02*
D03*
X385469Y315000D02*
D03*
X381532D02*
D03*
X350532Y293000D02*
D03*
X354468D02*
D03*
X431968Y286500D02*
D03*
X428031D02*
D03*
X461394Y312441D02*
D03*
X465331D02*
D03*
X400032Y251500D02*
D03*
X403968D02*
D03*
X379969Y286500D02*
D03*
X376031D02*
D03*
X374969Y296000D02*
D03*
X371031D02*
D03*
X362032Y296000D02*
D03*
X365968D02*
D03*
X357031Y286500D02*
D03*
X360968D02*
D03*
X381532Y319000D02*
D03*
X385469D02*
D03*
D23*
X318000Y246500D02*
D03*
X398000Y410500D02*
D03*
X498500Y290500D02*
D03*
X322500Y410500D02*
D03*
D24*
X401266Y281734D02*
X410734D01*
X393500Y289500D02*
X401266Y281734D01*
X393500Y289500D02*
Y302500D01*
X395969D02*
X397500Y300969D01*
X393500Y302500D02*
X395969D01*
X371000Y296031D02*
X371031Y296000D01*
X371000Y296031D02*
Y300500D01*
X376031Y286500D02*
Y289968D01*
X347500Y330500D02*
X349500Y328500D01*
Y310500D02*
Y328500D01*
X362000Y301000D02*
X365968Y297031D01*
Y296000D02*
Y297031D01*
X347500Y330500D02*
Y334000D01*
X352000Y338500D01*
Y368500D01*
X361000Y286531D02*
Y291000D01*
X353500Y377603D02*
X359000Y372103D01*
X353500Y377603D02*
Y379500D01*
X356000Y370000D02*
Y372000D01*
X351847Y376153D02*
X356000Y372000D01*
X350788Y376153D02*
X351847D01*
X465331Y312441D02*
Y314169D01*
X463000Y316500D02*
X465331Y314169D01*
X406000Y316500D02*
X463000D01*
X404756Y317744D02*
X406000Y316500D01*
X404756Y317744D02*
Y361812D01*
X404064Y362504D02*
X404756Y361812D01*
X398996Y362504D02*
X404064D01*
X391000Y370500D02*
X398996Y362504D01*
X365000Y416000D02*
X374500D01*
X376256Y414244D01*
Y401256D02*
Y414244D01*
X367000Y392000D02*
X376256Y401256D01*
X360500Y392000D02*
X367000D01*
X348500Y380000D02*
X360500Y392000D01*
X373500Y402000D02*
Y412500D01*
X366000Y394500D02*
X373500Y402000D01*
X389449Y359551D02*
X402000D01*
X374000Y375000D02*
X389449Y359551D01*
X360000Y375000D02*
X374000D01*
X357500Y377500D02*
X360000Y375000D01*
X398500Y398000D02*
X402256Y394244D01*
X377000Y398000D02*
X398500D01*
X362000Y383000D02*
X377000Y398000D01*
X399000Y386012D02*
X402256Y389268D01*
X399000Y377534D02*
Y386012D01*
Y377534D02*
X402000Y374534D01*
X402256Y389268D02*
Y394244D01*
X402000Y373449D02*
Y374534D01*
X393000Y384000D02*
X399000Y390000D01*
X393000Y373603D02*
Y384000D01*
Y373603D02*
X396500Y370103D01*
X399000Y392000D02*
X399500Y392500D01*
X399000Y390000D02*
Y392000D01*
X402000Y348500D02*
Y353449D01*
Y379551D02*
Y383500D01*
X396500Y369000D02*
Y370103D01*
X351000Y394500D02*
X366000D01*
X346000Y389500D02*
X351000Y394500D01*
X346000Y384000D02*
Y389500D01*
X357000Y396500D02*
X359000Y398500D01*
X350000Y396500D02*
X357000D01*
X343244Y389744D02*
X350000Y396500D01*
X343244Y378224D02*
Y389744D01*
Y378224D02*
X346000Y375468D01*
Y371532D02*
X349031Y368500D01*
X352000D01*
X366000Y345468D02*
Y347500D01*
X368000Y349500D01*
X376500Y347969D02*
Y351000D01*
X371000Y295969D02*
X371031Y296000D01*
X371000Y277941D02*
Y295969D01*
X365968Y296000D02*
X366000Y295969D01*
Y277941D02*
Y295969D01*
X376000Y286469D02*
X376031Y286500D01*
X376000Y277941D02*
Y286469D01*
X360968Y286500D02*
X361000Y286469D01*
Y277941D02*
Y286469D01*
D25*
X446953Y305000D02*
X454000D01*
X455000Y310000D02*
X457500Y307500D01*
Y305000D02*
Y307500D01*
X458000Y278000D02*
Y291547D01*
X460394Y293941D01*
X466772Y296382D02*
Y299272D01*
X464331Y293941D02*
X466772Y296382D01*
X461394Y311106D02*
X461831Y310669D01*
Y302441D02*
Y310669D01*
X454000Y305000D02*
X457500D01*
X446953Y299882D02*
X457500D01*
X446362Y304409D02*
X446953Y305000D01*
X458000Y298787D02*
Y299000D01*
Y298787D02*
X460394Y296394D01*
Y293941D02*
Y296394D01*
X461831Y297831D01*
Y302441D01*
X466772Y299272D02*
X468228D01*
X474587Y292913D01*
X474890Y302441D02*
X475362Y301969D01*
X466161Y302441D02*
X474890D01*
X376000Y254000D02*
X383000Y247000D01*
X376000Y254000D02*
Y258059D01*
X371000Y249000D02*
X373000Y247000D01*
X371000Y249000D02*
Y258059D01*
X363000Y247000D02*
X366000Y250000D01*
Y258059D01*
X353000Y247000D02*
X361000Y255000D01*
Y258059D01*
D26*
X359000Y362500D02*
Y372103D01*
Y362500D02*
X361500Y360000D01*
Y351000D02*
Y360000D01*
X358500Y348000D02*
X361500Y351000D01*
X355000Y293531D02*
Y302449D01*
X358500Y320579D02*
Y348000D01*
X357653Y319733D02*
X358500Y320579D01*
X357653Y315614D02*
Y319733D01*
Y315614D02*
X359000Y314267D01*
Y304500D02*
Y314267D01*
X356949Y302449D02*
X359000Y304500D01*
X355000Y302449D02*
X356949D01*
X354468Y293000D02*
X355000Y293531D01*
X356000Y365500D02*
Y370000D01*
X350505Y376437D02*
X350788Y376153D01*
X354654Y364154D02*
X356000Y365500D01*
X354654Y308898D02*
Y364154D01*
Y308898D02*
X355000Y308551D01*
X361000Y317000D02*
X410169Y267831D01*
X438500Y281500D02*
Y308000D01*
Y281500D02*
X443000Y277000D01*
Y269000D02*
Y277000D01*
Y269000D02*
X449000D01*
X440500D02*
X443000D01*
X403500Y260000D02*
Y264000D01*
X400032Y256532D02*
X403500Y260000D01*
X400032Y251500D02*
Y256532D01*
X410169Y265000D02*
Y267831D01*
X387968Y257063D02*
X393831D01*
X386500Y258531D02*
X387968Y257063D01*
X406000Y249000D02*
Y250500D01*
X404000Y247000D02*
X406000Y249000D01*
X393000Y247000D02*
X404000D01*
X393831Y255169D02*
Y257063D01*
Y255169D02*
X397500Y251500D01*
X400032D01*
X410169Y255169D02*
Y257063D01*
X406500Y251500D02*
X410169Y255169D01*
X403968Y251500D02*
X406500D01*
X381000Y258059D02*
X386028D01*
X438500Y267000D02*
X440500Y269000D01*
X433138Y267000D02*
X438500D01*
X449000Y269000D02*
X451740Y266260D01*
X474500Y247500D02*
Y250500D01*
X479000Y255000D01*
Y257531D01*
D27*
X380500Y331500D02*
Y358000D01*
X374362Y364138D02*
X380500Y358000D01*
X361824Y296000D02*
X362032D01*
X357031Y291207D02*
X361824Y296000D01*
X357031Y286500D02*
Y291207D01*
X385469Y312469D02*
Y315000D01*
X382500Y309500D02*
X385469Y312469D01*
X382500Y304500D02*
Y309500D01*
X385000Y286500D02*
Y287000D01*
X376000Y296000D02*
X385000Y287000D01*
X374969Y296000D02*
X376000D01*
X385000Y286500D02*
X387500Y284000D01*
X379969Y286500D02*
X385000D01*
X397500Y291000D02*
X400146Y288354D01*
X403000D01*
X416000Y282000D02*
X418000Y284000D01*
Y288354D01*
X410734Y281734D02*
X411469Y281000D01*
X416234Y276234D02*
X423500Y283500D01*
Y302146D01*
X418000Y307646D02*
X423500Y302146D01*
X413000Y296500D02*
X418000Y291500D01*
Y288354D02*
Y291500D01*
X403000Y288354D02*
Y291844D01*
X412500Y296000D02*
X413000Y296500D01*
X407156Y296000D02*
X412500D01*
X413000Y296500D02*
Y307646D01*
Y288354D02*
Y296500D01*
X403000Y291844D02*
X407156Y296000D01*
X344500Y288000D02*
X346468Y289968D01*
X350532D01*
X363500Y320500D02*
X365000Y319000D01*
X381532D01*
X418000Y309500D02*
X422000Y313500D01*
X418000Y307646D02*
Y309500D01*
X399256Y331500D02*
Y341835D01*
Y321559D02*
Y331500D01*
X366000Y334000D02*
Y341531D01*
X381532Y315000D02*
Y319000D01*
X390988Y319000D02*
X393547Y321559D01*
X385469Y319000D02*
X390988D01*
X393547Y321559D02*
Y341835D01*
X374000Y341531D02*
X376500Y344032D01*
X366000Y341531D02*
X374000D01*
X381000Y267969D02*
X386500Y262469D01*
X381000Y267969D02*
Y277941D01*
X388870Y264839D02*
X393831D01*
X386500Y262469D02*
X388870Y264839D01*
X350532Y289968D02*
Y293000D01*
Y289968D02*
X354000Y286500D01*
X357031D01*
X348949Y294583D02*
Y297500D01*
Y294583D02*
X350532Y293000D01*
X379969Y286500D02*
X381000Y285469D01*
Y277941D02*
Y285469D01*
X426882Y272862D02*
X427776Y271969D01*
X486484Y263016D02*
Y267595D01*
D28*
X408000Y284469D02*
X410734Y281734D01*
X411469Y281000D02*
X416234Y276234D01*
X420500Y271969D01*
X408000Y284469D02*
Y288354D01*
X405532Y297031D02*
X408500Y300000D01*
X397500Y297031D02*
X405532D01*
X401177Y309469D02*
X403000Y307646D01*
X397500Y309469D02*
X401177D01*
X408000Y300500D02*
Y307646D01*
Y300500D02*
X408500Y300000D01*
X403000D02*
Y307646D01*
X491000Y286500D02*
Y289000D01*
X488453Y283953D02*
X491000Y286500D01*
X488453Y279405D02*
Y283953D01*
X486484Y279405D02*
Y286516D01*
X469000Y259500D02*
Y267350D01*
X420500Y266500D02*
X424000Y263000D01*
X420500Y266500D02*
Y268032D01*
X397500Y300969D02*
Y305532D01*
X498000Y259500D02*
X500500Y257000D01*
X497000Y259500D02*
X498000D01*
X497000D02*
Y263500D01*
Y257000D02*
Y259500D01*
X481000Y246500D02*
X483500Y249000D01*
Y257531D01*
X469000Y267350D02*
X474000Y272350D01*
X469000Y259500D02*
X470968Y257531D01*
X475000D01*
X430469Y259032D02*
X438500D01*
X428031Y261469D02*
X430469Y259032D01*
X428031Y261469D02*
Y263000D01*
X386028Y258059D02*
X386500Y258531D01*
X465331Y312441D02*
X466161Y311610D01*
Y305000D02*
Y311610D01*
X454000Y302500D02*
Y305000D01*
Y302500D02*
X454059Y302441D01*
X457500D01*
X466161Y299882D02*
X466772Y299272D01*
X474587Y292913D02*
X475362D01*
X431968Y286500D02*
Y289968D01*
X427350Y280000D02*
Y285819D01*
X428031Y286500D01*
X432106Y268032D02*
X433138Y267000D01*
X451740Y264429D02*
Y266260D01*
X431968Y263000D02*
X432106Y263138D01*
Y268032D01*
Y270000D02*
X434500D01*
X428031Y263000D02*
Y267776D01*
X426000Y273744D02*
X426882Y272862D01*
X426000Y278650D02*
X427350Y280000D01*
X426882Y267138D02*
X427776Y268032D01*
X421394Y267138D02*
X426882D01*
X420500Y268032D02*
X421394Y267138D01*
X420500Y271969D02*
X421394Y272862D01*
X426882D01*
X430500Y275000D02*
X432106Y273394D01*
Y271969D02*
Y273394D01*
X424000Y270000D02*
X427776D01*
X488453Y266547D02*
Y267595D01*
Y266547D02*
X489500Y265500D01*
Y263500D02*
Y265500D01*
X484516Y264516D02*
Y267595D01*
X496500Y256500D02*
X497000Y257000D01*
X494551Y256500D02*
X496500D01*
X487862Y272638D02*
Y273500D01*
Y272638D02*
X497000Y263500D01*
X479000Y261469D02*
X479000Y261469D01*
X475000Y261469D02*
X479000D01*
X483500D02*
Y263500D01*
X484516Y264516D01*
X479000Y261469D02*
Y262500D01*
X482547Y266047D01*
Y267595D01*
X484516Y279405D02*
Y281484D01*
X483500Y282500D02*
X484516Y281484D01*
X474000Y278650D02*
Y280000D01*
X476500Y282500D01*
X483500D01*
X474000Y272350D02*
X481988D01*
X483138Y273500D01*
X479000Y257531D02*
X479514D01*
X483451Y261469D01*
X483500D01*
X438500Y262968D02*
X439961Y264429D01*
X444260D01*
D29*
X465000Y291500D02*
X467250Y293750D01*
X465000Y272858D02*
Y291500D01*
X456571Y264429D02*
X465000Y272858D01*
X488500Y247500D02*
Y254949D01*
X428500Y247500D02*
X435898D01*
X448102D02*
Y255469D01*
X448000Y255571D02*
X456071D01*
X457500Y257000D01*
X451740Y264429D02*
X456571D01*
X457000Y264000D01*
D43*
X353000Y247000D02*
D03*
X363000D02*
D03*
X373000D02*
D03*
X383000D02*
D03*
X428500Y247500D02*
D03*
X418500D02*
D03*
X498500D02*
D03*
X488500D02*
D03*
X474500D02*
D03*
X464500D02*
D03*
D44*
X393000Y247000D02*
D03*
D45*
X448000Y285500D02*
D03*
X326000Y254000D02*
D03*
X385000Y407000D02*
D03*
D46*
X374362Y368862D02*
D03*
Y364138D02*
D03*
X369638Y368862D02*
D03*
Y364138D02*
D03*
X487862Y273500D02*
D03*
X483138D02*
D03*
D47*
X346000Y322500D02*
D03*
X382500Y304500D02*
D03*
X387500Y284000D02*
D03*
X396500Y290500D02*
D03*
X416000Y282000D02*
D03*
X393500Y302500D02*
D03*
X371000Y300500D02*
D03*
X375500Y290500D02*
D03*
X362000Y301000D02*
D03*
X349500Y310500D02*
D03*
X361000Y291000D02*
D03*
X344500Y288000D02*
D03*
X363500Y320500D02*
D03*
X361000Y317000D02*
D03*
X392000Y314000D02*
D03*
X455000Y310000D02*
D03*
X408500Y300000D02*
D03*
X403000D02*
D03*
X491000Y289000D02*
D03*
X486484Y286516D02*
D03*
X424000Y263000D02*
D03*
X458000Y278000D02*
D03*
X438500Y308000D02*
D03*
X403500Y264000D02*
D03*
X373500Y313500D02*
D03*
X422000D02*
D03*
X399256Y331500D02*
D03*
X373500Y412500D02*
D03*
X396000Y377500D02*
D03*
X399500Y392500D02*
D03*
X402000Y348500D02*
D03*
Y383500D02*
D03*
X387000Y395000D02*
D03*
X468500Y264000D02*
D03*
X500500Y257000D02*
D03*
X481000Y246500D02*
D03*
X402000Y365500D02*
D03*
X391000Y370500D02*
D03*
X396500Y369000D02*
D03*
X366000Y383000D02*
D03*
X362000D02*
D03*
X370000Y382500D02*
D03*
X374500Y384000D02*
D03*
X390000Y376500D02*
D03*
X381968Y386469D02*
D03*
X346000Y350500D02*
D03*
X350500Y332000D02*
D03*
X366000Y334000D02*
D03*
X380500Y331500D02*
D03*
X386000Y353000D02*
D03*
X368000Y349500D02*
D03*
X376500Y351000D02*
D03*
X364000Y398500D02*
D03*
X359000D02*
D03*
X345500Y414000D02*
D03*
X359000Y416000D02*
D03*
X365000D02*
D03*
X358000Y381500D02*
D03*
X357500Y377500D02*
D03*
X353500Y379500D02*
D03*
X350505Y376437D02*
D03*
X346000Y384000D02*
D03*
X351500Y372500D02*
D03*
X348500Y380000D02*
D03*
X352000Y368500D02*
D03*
X346000Y363000D02*
D03*
Y359000D02*
D03*
Y355000D02*
D03*
X358000Y353000D02*
D03*
X431968Y289968D02*
D03*
X430500Y275000D02*
D03*
X424000Y270000D02*
D03*
X391500Y401000D02*
D03*
X393500Y394500D02*
D03*
X373000Y323500D02*
D03*
X349000Y303500D02*
D03*
X387500Y304000D02*
D03*
X346500Y247500D02*
D03*
X392500Y277500D02*
D03*
X387000Y296500D02*
D03*
X408000Y277000D02*
D03*
X367500Y266500D02*
D03*
X358000D02*
D03*
X377500D02*
D03*
X409500Y247500D02*
D03*
X429500Y309000D02*
D03*
X442000Y312000D02*
D03*
X477500Y310500D02*
D03*
X500500Y267000D02*
D03*
Y278000D02*
D03*
X487500Y293500D02*
D03*
X473000Y266000D02*
D03*
X451500Y276000D02*
D03*
X469500Y283500D02*
D03*
X427000Y291500D02*
D03*
X442500Y292500D02*
D03*
X434500Y301000D02*
D03*
D48*
X457500Y299882D02*
D03*
Y302441D02*
D03*
Y305000D02*
D03*
X466161D02*
D03*
Y302441D02*
D03*
Y299882D02*
D03*
D49*
X461831Y302441D02*
D03*
D50*
X444260Y264429D02*
D03*
X451740D02*
D03*
X448000Y255571D02*
D03*
D51*
X418000Y288354D02*
D03*
X413000D02*
D03*
X408000D02*
D03*
X403000D02*
D03*
X418000Y307646D02*
D03*
X413000D02*
D03*
X408000D02*
D03*
X403000D02*
D03*
D52*
X435898Y247500D02*
D03*
X448102D02*
D03*
D53*
X485500Y273500D02*
D03*
D54*
X482547Y267595D02*
D03*
X484516D02*
D03*
X486484D02*
D03*
X488453D02*
D03*
Y279405D02*
D03*
X486484D02*
D03*
X484516D02*
D03*
X482547D02*
D03*
D55*
X393831Y257161D02*
D03*
Y259720D02*
D03*
Y262280D02*
D03*
Y264839D02*
D03*
X410169Y257161D02*
D03*
Y259720D02*
D03*
Y262280D02*
D03*
Y264839D02*
D03*
D56*
X427776Y271969D02*
D03*
Y270000D02*
D03*
Y268032D02*
D03*
X432106D02*
D03*
Y270000D02*
D03*
Y271969D02*
D03*
D57*
X474000Y272350D02*
D03*
Y278650D02*
D03*
D58*
X381000Y258059D02*
D03*
X376000D02*
D03*
X371000D02*
D03*
X366000D02*
D03*
X361000D02*
D03*
X356000D02*
D03*
X351000D02*
D03*
X346000D02*
D03*
X381000Y277941D02*
D03*
X376000D02*
D03*
X371000D02*
D03*
X366000D02*
D03*
X361000D02*
D03*
X356000D02*
D03*
X351000D02*
D03*
X346000D02*
D03*
D59*
X475362Y292913D02*
D03*
Y301969D02*
D03*
D60*
X355051Y297500D02*
D03*
X348949D02*
D03*
X488449Y256500D02*
D03*
X494551D02*
D03*
D61*
X427350Y280000D02*
D03*
X433650D02*
D03*
D62*
X402000Y379551D02*
D03*
Y373449D02*
D03*
Y353449D02*
D03*
Y359551D02*
D03*
X355000Y302449D02*
D03*
Y308551D02*
D03*
D63*
X436500Y272000D02*
Y277150D01*
X433650Y280000D02*
X436500Y277150D01*
X426000Y273744D02*
Y278650D01*
D64*
X434500Y270000D02*
X436500Y272000D01*
X486484Y263016D02*
X488500Y261000D01*
Y254949D02*
Y261000D01*
X494551Y256500D02*
Y258449D01*
X489500Y263500D02*
X494551Y258449D01*
M02*
