%FSLAX25Y25*%
%MOIN*%
G70*
G01*
G75*
G04 Layer_Color=8421504*
%ADD10O,0.00984X0.02559*%
%ADD11O,0.02559X0.00984*%
%ADD12R,0.17716X0.17716*%
%ADD13R,0.02953X0.03543*%
%ADD14R,0.05315X0.03740*%
%ADD15R,0.01575X0.01575*%
%ADD16R,0.00039X0.11811*%
%ADD17R,0.02559X0.06102*%
%ADD18R,0.03543X0.03937*%
%ADD19R,0.03937X0.01378*%
%ADD20R,0.02953X0.09449*%
%ADD21R,0.01969X0.02362*%
%ADD22R,0.02362X0.01969*%
%ADD23C,0.03937*%
%ADD24C,0.00787*%
%ADD25C,0.02000*%
%ADD26C,0.01969*%
%ADD27C,0.01181*%
%ADD28C,0.01000*%
%ADD29C,0.03937*%
%ADD30R,0.02913X0.03937*%
%ADD31R,0.03150X0.04724*%
%ADD32R,0.05079X0.19193*%
%ADD33R,0.03937X0.36142*%
%ADD34R,0.04764X1.00709*%
%ADD35R,0.15590X0.08583*%
%ADD36R,0.04764X0.12598*%
%ADD37R,0.05079X0.12598*%
%ADD38R,0.07992X0.01811*%
G04:AMPARAMS|DCode=39|XSize=18.11mil|YSize=66.44mil|CornerRadius=0mil|HoleSize=0mil|Usage=FLASHONLY|Rotation=124.500|XOffset=0mil|YOffset=0mil|HoleType=Round|Shape=Rectangle|*
%AMROTATEDRECTD39*
4,1,4,0.03251,0.01135,-0.02225,-0.02628,-0.03251,-0.01135,0.02225,0.02628,0.03251,0.01135,0.0*
%
%ADD39ROTATEDRECTD39*%

%ADD40R,0.03500X0.06000*%
%ADD41R,0.04000X0.03870*%
%ADD42R,0.04000X0.03709*%
%ADD43C,0.05906*%
%ADD44R,0.05906X0.05906*%
%ADD45C,0.11811*%
%ADD46C,0.02598*%
%ADD47C,0.03150*%
%ADD48R,0.02559X0.00984*%
%ADD49R,0.03150X0.05512*%
%ADD50R,0.02362X0.04528*%
%ADD51O,0.02362X0.07284*%
%ADD52R,0.03937X0.06496*%
%ADD53R,0.08268X0.05512*%
%ADD54O,0.00984X0.02362*%
%ADD55O,0.05118X0.01772*%
%ADD56R,0.01969X0.00984*%
%ADD57R,0.05118X0.03937*%
%ADD58O,0.02362X0.08071*%
%ADD59R,0.08071X0.03150*%
%ADD60R,0.03543X0.03150*%
%ADD61R,0.03937X0.05118*%
%ADD62R,0.03150X0.03543*%
%ADD63C,0.03150*%
%ADD64C,0.01575*%
%ADD65C,0.00984*%
D10*
X380858Y378410D02*
D03*
X378890D02*
D03*
X376921D02*
D03*
X374953D02*
D03*
X372984D02*
D03*
X371016D02*
D03*
X369047D02*
D03*
X367079D02*
D03*
X365110D02*
D03*
X363142D02*
D03*
Y354591D02*
D03*
X365110D02*
D03*
X367079D02*
D03*
X369047D02*
D03*
X371016D02*
D03*
X372984D02*
D03*
X374953D02*
D03*
X376921D02*
D03*
X378890D02*
D03*
X380858D02*
D03*
D11*
X360090Y375358D02*
D03*
Y373390D02*
D03*
Y371421D02*
D03*
Y369453D02*
D03*
Y367484D02*
D03*
Y365516D02*
D03*
Y363547D02*
D03*
Y361579D02*
D03*
Y359610D02*
D03*
Y357642D02*
D03*
X383910D02*
D03*
Y359610D02*
D03*
Y361579D02*
D03*
Y363547D02*
D03*
Y365516D02*
D03*
Y367484D02*
D03*
Y369453D02*
D03*
Y371421D02*
D03*
Y373390D02*
D03*
Y375358D02*
D03*
D12*
X372000Y366500D02*
D03*
D13*
X402000Y353842D02*
D03*
Y359157D02*
D03*
Y379658D02*
D03*
Y374342D02*
D03*
D14*
X392000Y356252D02*
D03*
Y362748D02*
D03*
D15*
X341000Y327000D02*
D03*
D16*
X342000Y318000D02*
D03*
D17*
X393547Y321665D02*
D03*
X399256D02*
D03*
Y341941D02*
D03*
X393547D02*
D03*
D18*
X359756Y346429D02*
D03*
X353850D02*
D03*
X353752Y338161D02*
D03*
X359658D02*
D03*
D19*
X368358Y338941D02*
D03*
Y341500D02*
D03*
Y344059D02*
D03*
X375543D02*
D03*
Y341500D02*
D03*
Y338941D02*
D03*
D20*
X369000Y408874D02*
D03*
X364000D02*
D03*
X359000D02*
D03*
X354000D02*
D03*
X349000D02*
D03*
X369000Y393126D02*
D03*
X364000D02*
D03*
X359000D02*
D03*
X354000D02*
D03*
X349000D02*
D03*
D21*
X385500Y328969D02*
D03*
Y325031D02*
D03*
X380500Y345532D02*
D03*
Y349468D02*
D03*
X394000Y386469D02*
D03*
Y382531D02*
D03*
X366000Y309032D02*
D03*
Y312968D02*
D03*
X389000Y346532D02*
D03*
Y350468D02*
D03*
X390000Y386469D02*
D03*
Y382531D02*
D03*
X346500Y334968D02*
D03*
Y331031D02*
D03*
X397000Y353031D02*
D03*
Y356968D02*
D03*
X397000Y364968D02*
D03*
Y361032D02*
D03*
X385500Y386469D02*
D03*
Y382531D02*
D03*
X348000Y346468D02*
D03*
Y342531D02*
D03*
X385500Y335032D02*
D03*
Y338968D02*
D03*
X370000Y312968D02*
D03*
Y309032D02*
D03*
X384500Y349468D02*
D03*
Y345532D02*
D03*
X381500Y335032D02*
D03*
Y338968D02*
D03*
D22*
X350532Y354000D02*
D03*
X354468D02*
D03*
X351031Y383500D02*
D03*
X354969D02*
D03*
X358968Y332500D02*
D03*
X355031D02*
D03*
X342531Y327000D02*
D03*
X346468D02*
D03*
X379969Y394000D02*
D03*
X376031D02*
D03*
D23*
X318000Y246500D02*
D03*
X398000Y410500D02*
D03*
X498500Y290500D02*
D03*
X322500Y410500D02*
D03*
M02*
