%FSLAX25Y25*%
%MOIN*%
G70*
G01*
G75*
G04 Layer_Color=32896*
%ADD10O,0.00984X0.02559*%
%ADD11O,0.02559X0.00984*%
%ADD12R,0.17716X0.17716*%
%ADD13R,0.02953X0.03543*%
%ADD14R,0.05315X0.03740*%
%ADD15R,0.01575X0.01575*%
%ADD16R,0.00039X0.11811*%
%ADD17R,0.02559X0.06102*%
%ADD18R,0.03543X0.03937*%
%ADD19R,0.03937X0.01378*%
%ADD20R,0.02953X0.09449*%
%ADD21R,0.01969X0.02362*%
%ADD22R,0.02362X0.01969*%
%ADD23C,0.03937*%
%ADD24C,0.00787*%
%ADD25C,0.02000*%
%ADD26C,0.01969*%
%ADD27C,0.01181*%
%ADD28C,0.01000*%
%ADD29C,0.03937*%
%ADD30R,0.02913X0.03937*%
%ADD31R,0.03150X0.04724*%
%ADD32R,0.05079X0.19193*%
%ADD33R,0.03937X0.36142*%
%ADD34R,0.04764X1.00709*%
%ADD35R,0.15590X0.08583*%
%ADD36R,0.04764X0.12598*%
%ADD37R,0.05079X0.12598*%
%ADD38R,0.07992X0.01811*%
G04:AMPARAMS|DCode=39|XSize=18.11mil|YSize=66.44mil|CornerRadius=0mil|HoleSize=0mil|Usage=FLASHONLY|Rotation=124.500|XOffset=0mil|YOffset=0mil|HoleType=Round|Shape=Rectangle|*
%AMROTATEDRECTD39*
4,1,4,0.03251,0.01135,-0.02225,-0.02628,-0.03251,-0.01135,0.02225,0.02628,0.03251,0.01135,0.0*
%
%ADD39ROTATEDRECTD39*%

%ADD40R,0.03500X0.06000*%
%ADD41R,0.04000X0.03870*%
%ADD42R,0.04000X0.03709*%
%ADD43C,0.05906*%
%ADD44R,0.05906X0.05906*%
%ADD45C,0.11811*%
%ADD46C,0.02598*%
%ADD47C,0.03150*%
%ADD48R,0.02559X0.00984*%
%ADD49R,0.03150X0.05512*%
%ADD50R,0.02362X0.04528*%
%ADD51O,0.02362X0.07284*%
%ADD52R,0.03937X0.06496*%
%ADD53R,0.08268X0.05512*%
%ADD54O,0.00984X0.02362*%
%ADD55O,0.05118X0.01772*%
%ADD56R,0.01969X0.00984*%
%ADD57R,0.05118X0.03937*%
%ADD58O,0.02362X0.08071*%
%ADD59R,0.08071X0.03150*%
%ADD60R,0.03543X0.03150*%
%ADD61R,0.03937X0.05118*%
%ADD62R,0.03150X0.03543*%
%ADD63C,0.03150*%
%ADD64C,0.01575*%
%ADD65C,0.00984*%
%ADD66C,0.11811*%
%ADD67C,0.02362*%
D24*
X457697Y298110D02*
Y298307D01*
X461437D01*
X462224D02*
X465965D01*
Y298110D02*
Y298307D01*
Y306575D02*
Y306772D01*
X462224Y306575D02*
X465965D01*
X457697D02*
X461437D01*
X457697D02*
Y306772D01*
X442095Y257244D02*
Y260787D01*
Y257244D02*
X445244D01*
X453905D02*
Y260787D01*
X450756Y257244D02*
X453905D01*
X400658Y293571D02*
X420342D01*
X400658Y302429D02*
X420342D01*
Y293571D02*
Y302429D01*
X400658Y293571D02*
Y302429D01*
X439441Y244646D02*
X444559D01*
X439441Y250354D02*
X444559D01*
X491405Y279405D02*
X491504D01*
X491405Y275567D02*
Y279405D01*
Y267595D02*
Y271433D01*
Y267595D02*
X491504D01*
X479496D02*
X479595D01*
Y271433D01*
Y275567D02*
Y279405D01*
X479496D02*
X479595D01*
X397965Y254898D02*
Y267102D01*
X406035Y254898D02*
Y267102D01*
X397965Y254898D02*
X406035D01*
X397965Y267102D02*
X406035D01*
X471835Y275500D02*
X476165D01*
X383185Y263669D02*
Y272331D01*
X343815Y263669D02*
Y272331D01*
Y263669D02*
X383185D01*
X343815Y272331D02*
X383185D01*
X479004Y296063D02*
Y298819D01*
X471720Y296063D02*
Y298819D01*
X351606Y298681D02*
X352394D01*
X351606Y296319D02*
X352394D01*
X430500Y277835D02*
Y282165D01*
X491106Y255319D02*
X491894D01*
X491106Y257681D02*
X491894D01*
X400819Y376106D02*
Y376894D01*
X403181Y376106D02*
Y376894D01*
X403181Y356106D02*
Y356894D01*
X400819Y356106D02*
Y356894D01*
X356181Y305106D02*
Y305894D01*
X353819Y305106D02*
Y305894D01*
X389610Y340752D02*
X389709D01*
X389610Y330417D02*
Y340752D01*
Y322248D02*
Y332583D01*
Y322248D02*
X389709D01*
X403291D02*
X403390D01*
Y332583D01*
Y330417D02*
Y340752D01*
X403291D02*
X403390D01*
X473436Y305500D02*
X470156D01*
X469500Y306156D01*
Y307468D01*
X470156Y308124D01*
X473436D01*
X472780Y309436D02*
X473436Y310092D01*
Y311404D01*
X472780Y312060D01*
X472124D01*
X471468Y311404D01*
Y310748D01*
Y311404D01*
X470812Y312060D01*
X470156D01*
X469500Y311404D01*
Y310092D01*
X470156Y309436D01*
X451376Y269656D02*
Y272280D01*
X452032Y272936D01*
X453344D01*
X454000Y272280D01*
Y269656D01*
X453344Y269000D01*
X452032D01*
X452688Y270312D02*
X451376Y269000D01*
X452032D02*
X451376Y269656D01*
X450064Y269000D02*
X448752D01*
X449408D01*
Y272936D01*
X450064Y272280D01*
X426936Y295000D02*
X423656D01*
X423000Y295656D01*
Y296968D01*
X423656Y297624D01*
X426936D01*
Y298936D02*
Y301560D01*
X426280D01*
X423656Y298936D01*
X423000D01*
X455936Y247624D02*
Y245000D01*
X453968D01*
Y246312D01*
Y245000D01*
X452000D01*
Y248936D02*
Y250248D01*
Y249592D01*
X455936D01*
X455280Y248936D01*
X497436Y272500D02*
X494156D01*
X493500Y273156D01*
Y274468D01*
X494156Y275124D01*
X497436D01*
X493500Y279060D02*
Y276436D01*
X496124Y279060D01*
X496780D01*
X497436Y278404D01*
Y277092D01*
X496780Y276436D01*
X408500Y272936D02*
Y269656D01*
X407844Y269000D01*
X406532D01*
X405876Y269656D01*
Y272936D01*
X401940D02*
X404564D01*
Y270968D01*
X403252Y271624D01*
X402596D01*
X401940Y270968D01*
Y269656D01*
X402596Y269000D01*
X403908D01*
X404564Y269656D01*
X441436Y269500D02*
X438156D01*
X437500Y270156D01*
Y271468D01*
X438156Y272124D01*
X441436D01*
X437500Y273436D02*
Y274748D01*
Y274092D01*
X441436D01*
X440780Y273436D01*
X469000Y279000D02*
X465064D01*
Y277032D01*
X465720Y276376D01*
X467032D01*
X467688Y277032D01*
Y279000D01*
Y277688D02*
X469000Y276376D01*
X465064Y272440D02*
Y275064D01*
X467032D01*
X466376Y273752D01*
Y273096D01*
X467032Y272440D01*
X468344D01*
X469000Y273096D01*
Y274408D01*
X468344Y275064D01*
X389936Y269500D02*
X386656D01*
X386000Y270156D01*
Y271468D01*
X386656Y272124D01*
X389936D01*
Y276060D02*
X389280Y274748D01*
X387968Y273436D01*
X386656D01*
X386000Y274092D01*
Y275404D01*
X386656Y276060D01*
X387312D01*
X387968Y275404D01*
Y273436D01*
X485436Y295000D02*
X481500D01*
Y297624D01*
X484780Y298936D02*
X485436Y299592D01*
Y300904D01*
X484780Y301560D01*
X484124D01*
X483468Y300904D01*
Y300248D01*
Y300904D01*
X482812Y301560D01*
X482156D01*
X481500Y300904D01*
Y299592D01*
X482156Y298936D01*
X345500Y301500D02*
X341564D01*
Y299532D01*
X342220Y298876D01*
X343532D01*
X344188Y299532D01*
Y301500D01*
Y300188D02*
X345500Y298876D01*
X341564Y297564D02*
Y294940D01*
Y296252D01*
X345500D01*
Y293629D02*
Y292317D01*
Y292973D01*
X341564D01*
X342220Y293629D01*
X430124Y257220D02*
X429468Y256564D01*
X428156D01*
X427500Y257220D01*
Y259844D01*
X428156Y260500D01*
X429468D01*
X430124Y259844D01*
X431436Y260500D02*
X432748D01*
X432092D01*
Y256564D01*
X431436Y257220D01*
X415376Y270901D02*
X414851Y271426D01*
Y272475D01*
X415376Y273000D01*
X417475D01*
X418000Y272475D01*
Y271426D01*
X417475Y270901D01*
X418000Y267752D02*
Y269851D01*
X415901Y267752D01*
X415376D01*
X414851Y268277D01*
Y269327D01*
X415376Y269851D01*
X359720Y342876D02*
X359064Y343532D01*
Y344844D01*
X359720Y345500D01*
X362344D01*
X363000Y344844D01*
Y343532D01*
X362344Y342876D01*
X359064Y338940D02*
Y341564D01*
X361032D01*
X360376Y340252D01*
Y339596D01*
X361032Y338940D01*
X362344D01*
X363000Y339596D01*
Y340908D01*
X362344Y341564D01*
X370720Y345376D02*
X370064Y346032D01*
Y347344D01*
X370720Y348000D01*
X373344D01*
X374000Y347344D01*
Y346032D01*
X373344Y345376D01*
X370064Y341440D02*
X370720Y342752D01*
X372032Y344064D01*
X373344D01*
X374000Y343408D01*
Y342096D01*
X373344Y341440D01*
X372688D01*
X372032Y342096D01*
Y344064D01*
X481099Y250876D02*
X480574Y250351D01*
X479525D01*
X479000Y250876D01*
Y252975D01*
X479525Y253500D01*
X480574D01*
X481099Y252975D01*
X482149Y253500D02*
X483198D01*
X482673D01*
Y250351D01*
X482149Y250876D01*
X486871Y253500D02*
X484772D01*
X486871Y251401D01*
Y250876D01*
X486347Y250351D01*
X485297D01*
X484772Y250876D01*
X469220Y259376D02*
X468564Y260032D01*
Y261344D01*
X469220Y262000D01*
X471844D01*
X472500Y261344D01*
Y260032D01*
X471844Y259376D01*
X472500Y258064D02*
Y256752D01*
Y257408D01*
X468564D01*
X469220Y258064D01*
Y254784D02*
X468564Y254129D01*
Y252817D01*
X469220Y252161D01*
X469876D01*
X470532Y252817D01*
Y253473D01*
Y252817D01*
X471188Y252161D01*
X471844D01*
X472500Y252817D01*
Y254129D01*
X471844Y254784D01*
X451952Y309361D02*
X452542Y308771D01*
Y307590D01*
X451952Y307000D01*
X449590D01*
X449000Y307590D01*
Y308771D01*
X449590Y309361D01*
X449000Y310542D02*
Y311723D01*
Y311133D01*
X452542D01*
X451952Y310542D01*
X449000Y315265D02*
X452542D01*
X450771Y313494D01*
Y315855D01*
X440220Y303376D02*
X439564Y304032D01*
Y305344D01*
X440220Y306000D01*
X442844D01*
X443500Y305344D01*
Y304032D01*
X442844Y303376D01*
X443500Y302064D02*
Y300752D01*
Y301408D01*
X439564D01*
X440220Y302064D01*
X439564Y296161D02*
Y298784D01*
X441532D01*
X440876Y297473D01*
Y296817D01*
X441532Y296161D01*
X442844D01*
X443500Y296817D01*
Y298129D01*
X442844Y298784D01*
X461124Y288220D02*
X460468Y287564D01*
X459156D01*
X458500Y288220D01*
Y290844D01*
X459156Y291500D01*
X460468D01*
X461124Y290844D01*
X462436Y291500D02*
X463748D01*
X463092D01*
Y287564D01*
X462436Y288220D01*
X468339Y287564D02*
X467027Y288220D01*
X465716Y289532D01*
Y290844D01*
X466371Y291500D01*
X467683D01*
X468339Y290844D01*
Y290188D01*
X467683Y289532D01*
X465716D01*
X385837Y252204D02*
X385378Y251745D01*
X384459D01*
X384000Y252204D01*
Y254041D01*
X384459Y254500D01*
X385378D01*
X385837Y254041D01*
X386755Y254500D02*
X387673D01*
X387214D01*
Y251745D01*
X386755Y252204D01*
X389051D02*
X389510Y251745D01*
X390428D01*
X390888Y252204D01*
Y252663D01*
X390428Y253122D01*
X390888Y253582D01*
Y254041D01*
X390428Y254500D01*
X389510D01*
X389051Y254041D01*
Y253582D01*
X389510Y253122D01*
X389051Y252663D01*
Y252204D01*
X389510Y253122D02*
X390428D01*
X380624Y309220D02*
X379968Y308564D01*
X378656D01*
X378000Y309220D01*
Y311844D01*
X378656Y312500D01*
X379968D01*
X380624Y311844D01*
X384560Y312500D02*
X381936D01*
X384560Y309876D01*
Y309220D01*
X383904Y308564D01*
X382592D01*
X381936Y309220D01*
X388495Y312500D02*
X385872D01*
X388495Y309876D01*
Y309220D01*
X387839Y308564D01*
X386527D01*
X385872Y309220D01*
X348837Y288204D02*
X348377Y287745D01*
X347459D01*
X347000Y288204D01*
Y290041D01*
X347459Y290500D01*
X348377D01*
X348837Y290041D01*
X351592Y290500D02*
X349755D01*
X351592Y288663D01*
Y288204D01*
X351132Y287745D01*
X350214D01*
X349755Y288204D01*
X354347Y287745D02*
X353428Y288204D01*
X352510Y289123D01*
Y290041D01*
X352969Y290500D01*
X353888D01*
X354347Y290041D01*
Y289582D01*
X353888Y289123D01*
X352510D01*
X420064Y281500D02*
X424000D01*
Y278876D01*
Y277564D02*
Y276252D01*
Y276908D01*
X420064D01*
X420720Y277564D01*
X460000Y257500D02*
X463936D01*
Y259468D01*
X463280Y260124D01*
X461968D01*
X461312Y259468D01*
Y257500D01*
Y258812D02*
X460000Y260124D01*
Y261436D02*
Y262748D01*
Y262092D01*
X463936D01*
X463280Y261436D01*
X434500Y285000D02*
X437649D01*
Y286574D01*
X437124Y287099D01*
X436074D01*
X435549Y286574D01*
Y285000D01*
Y286050D02*
X434500Y287099D01*
Y290248D02*
Y288149D01*
X436599Y290248D01*
X437124D01*
X437649Y289723D01*
Y288673D01*
X437124Y288149D01*
X434500Y256500D02*
Y253351D01*
X436074D01*
X436599Y253876D01*
Y254926D01*
X436074Y255451D01*
X434500D01*
X435549D02*
X436599Y256500D01*
X437649Y253876D02*
X438173Y253351D01*
X439223D01*
X439748Y253876D01*
Y254401D01*
X439223Y254926D01*
X438698D01*
X439223D01*
X439748Y255451D01*
Y255975D01*
X439223Y256500D01*
X438173D01*
X437649Y255975D01*
X496000Y259500D02*
Y263436D01*
X494032D01*
X493376Y262780D01*
Y261468D01*
X494032Y260812D01*
X496000D01*
X494688D02*
X493376Y259500D01*
X490096D02*
Y263436D01*
X492064Y261468D01*
X489440D01*
X481500Y263500D02*
Y266649D01*
X479926D01*
X479401Y266124D01*
Y265074D01*
X479926Y264549D01*
X481500D01*
X480450D02*
X479401Y263500D01*
X476252Y266649D02*
X477302Y266124D01*
X478351Y265074D01*
Y264025D01*
X477827Y263500D01*
X476777D01*
X476252Y264025D01*
Y264549D01*
X476777Y265074D01*
X478351D01*
X466000Y314500D02*
Y318436D01*
X464032D01*
X463376Y317780D01*
Y316468D01*
X464032Y315812D01*
X466000D01*
X464688D02*
X463376Y314500D01*
X462064Y318436D02*
X459440D01*
Y317780D01*
X462064Y315156D01*
Y314500D01*
X399000Y249000D02*
Y245064D01*
X400968D01*
X401624Y245720D01*
Y247032D01*
X400968Y247688D01*
X399000D01*
X400312D02*
X401624Y249000D01*
X402936Y248344D02*
X403592Y249000D01*
X404904D01*
X405560Y248344D01*
Y245720D01*
X404904Y245064D01*
X403592D01*
X402936Y245720D01*
Y246376D01*
X403592Y247032D01*
X405560D01*
X395000Y311500D02*
X392245D01*
Y310122D01*
X392704Y309663D01*
X393622D01*
X394082Y310122D01*
Y311500D01*
Y310582D02*
X395000Y309663D01*
Y308745D02*
Y307827D01*
Y308286D01*
X392245D01*
X392704Y308745D01*
Y306449D02*
X392245Y305990D01*
Y305072D01*
X392704Y304612D01*
X394541D01*
X395000Y305072D01*
Y305990D01*
X394541Y306449D01*
X392704D01*
X394500Y300000D02*
X390564D01*
Y298032D01*
X391220Y297376D01*
X392532D01*
X393188Y298032D01*
Y300000D01*
Y298688D02*
X394500Y297376D01*
Y296064D02*
Y294752D01*
Y295408D01*
X390564D01*
X391220Y296064D01*
X394500Y292785D02*
Y291473D01*
Y292128D01*
X390564D01*
X391220Y292785D01*
X385000Y289000D02*
Y291755D01*
X383623D01*
X383163Y291296D01*
Y290377D01*
X383623Y289918D01*
X385000D01*
X384082D02*
X383163Y289000D01*
X382245D02*
X381327D01*
X381786D01*
Y291755D01*
X382245Y291296D01*
X378112Y289000D02*
X379949D01*
X378112Y290837D01*
Y291296D01*
X378572Y291755D01*
X379490D01*
X379949Y291296D01*
X377500Y293000D02*
X380649D01*
Y294574D01*
X380124Y295099D01*
X379074D01*
X378550Y294574D01*
Y293000D01*
Y294050D02*
X377500Y295099D01*
Y296149D02*
Y297198D01*
Y296673D01*
X380649D01*
X380124Y296149D01*
Y298772D02*
X380649Y299297D01*
Y300347D01*
X380124Y300871D01*
X379599D01*
X379074Y300347D01*
Y299822D01*
Y300347D01*
X378550Y300871D01*
X378025D01*
X377500Y300347D01*
Y299297D01*
X378025Y298772D01*
X363000Y293500D02*
Y290745D01*
X364377D01*
X364837Y291204D01*
Y292123D01*
X364377Y292582D01*
X363000D01*
X363918D02*
X364837Y293500D01*
X365755D02*
X366673D01*
X366214D01*
Y290745D01*
X365755Y291204D01*
X369428Y293500D02*
Y290745D01*
X368051Y292123D01*
X369888D01*
X364000Y283000D02*
X366755D01*
Y284378D01*
X366296Y284837D01*
X365377D01*
X364918Y284378D01*
Y283000D01*
Y283918D02*
X364000Y284837D01*
Y285755D02*
Y286673D01*
Y286214D01*
X366755D01*
X366296Y285755D01*
X366755Y289888D02*
Y288051D01*
X365377D01*
X365837Y288969D01*
Y289428D01*
X365377Y289888D01*
X364459D01*
X364000Y289428D01*
Y288510D01*
X364459Y288051D01*
X387500Y321500D02*
Y325436D01*
X385532D01*
X384876Y324780D01*
Y323468D01*
X385532Y322812D01*
X387500D01*
X386188D02*
X384876Y321500D01*
X383564D02*
X382252D01*
X382908D01*
Y325436D01*
X383564Y324780D01*
X380285Y325436D02*
X377661D01*
Y324780D01*
X380285Y322156D01*
Y321500D01*
X343500Y377500D02*
X339564D01*
Y375532D01*
X340220Y374876D01*
X341532D01*
X342188Y375532D01*
Y377500D01*
Y376188D02*
X343500Y374876D01*
Y373564D02*
Y372252D01*
Y372908D01*
X339564D01*
X340220Y373564D01*
Y370285D02*
X339564Y369629D01*
Y368317D01*
X340220Y367661D01*
X340876D01*
X341532Y368317D01*
X342188Y367661D01*
X342844D01*
X343500Y368317D01*
Y369629D01*
X342844Y370285D01*
X342188D01*
X341532Y369629D01*
X340876Y370285D01*
X340220D01*
X341532Y369629D02*
Y368317D01*
X399500Y388000D02*
X395564D01*
Y386032D01*
X396220Y385376D01*
X397532D01*
X398188Y386032D01*
Y388000D01*
Y386688D02*
X399500Y385376D01*
Y381440D02*
Y384064D01*
X396876Y381440D01*
X396220D01*
X395564Y382096D01*
Y383408D01*
X396220Y384064D01*
X399500Y380129D02*
Y378817D01*
Y379473D01*
X395564D01*
X396220Y380129D01*
X398000Y361000D02*
X394064D01*
Y359032D01*
X394720Y358376D01*
X396032D01*
X396688Y359032D01*
Y361000D01*
Y359688D02*
X398000Y358376D01*
Y354440D02*
Y357064D01*
X395376Y354440D01*
X394720D01*
X394064Y355096D01*
Y356408D01*
X394720Y357064D01*
X398000Y350505D02*
Y353129D01*
X395376Y350505D01*
X394720D01*
X394064Y351161D01*
Y352473D01*
X394720Y353129D01*
X358500Y303500D02*
X362436D01*
Y305468D01*
X361780Y306124D01*
X360468D01*
X359812Y305468D01*
Y303500D01*
Y304812D02*
X358500Y306124D01*
Y310060D02*
Y307436D01*
X361124Y310060D01*
X361780D01*
X362436Y309404D01*
Y308092D01*
X361780Y307436D01*
Y311371D02*
X362436Y312027D01*
Y313339D01*
X361780Y313995D01*
X361124D01*
X360468Y313339D01*
Y312683D01*
Y313339D01*
X359812Y313995D01*
X359156D01*
X358500Y313339D01*
Y312027D01*
X359156Y311371D01*
X384220Y332876D02*
X383564Y333532D01*
Y334844D01*
X384220Y335500D01*
X384876D01*
X385532Y334844D01*
Y333532D01*
X386188Y332876D01*
X386844D01*
X387500Y333532D01*
Y334844D01*
X386844Y335500D01*
X387500Y331564D02*
Y330252D01*
Y330908D01*
X383564D01*
X384220Y331564D01*
D65*
X454646Y299882D02*
G03*
X454646Y299882I-492J0D01*
G01*
X441405Y264429D02*
G03*
X441405Y264429I-492J0D01*
G01*
X421839Y288354D02*
G03*
X421839Y288354I-492J0D01*
G01*
X480480Y282260D02*
G03*
X480480Y282260I-492J0D01*
G01*
X394323Y254110D02*
G03*
X394323Y254110I-492J0D01*
G01*
X435748Y271969D02*
G03*
X435748Y271969I-492J0D01*
G01*
X343146Y277941D02*
G03*
X343146Y277941I-492J0D01*
G01*
X389709Y345772D02*
G03*
X389709Y345772I-492J0D01*
G01*
D67*
X417587Y297508D02*
G03*
X417587Y297508I-1181J0D01*
G01*
X403083Y258835D02*
G03*
X403083Y258835I-1181J0D01*
G01*
X348933Y268394D02*
G03*
X348933Y268394I-1181J0D01*
G01*
M02*
