M48
;Layer_Color=9474304
;FILE_FORMAT=2:5
INCH,LZ
;TYPE=PLATED
T1F00S00C0.01181
T2F00S00C0.01299
T3F00S00C0.03543
T4F00S00C0.04331
T5F00S00C0.11811
%
T01
X0481Y02465
X0473Y0266
X04695Y02835
X0486484Y0286516
X0491Y0289
X04875Y02935
X04775Y03105
X05005Y0278
Y0267
Y0257
X04685Y0264
X0458Y0278
X04515Y0276
X04305Y0275
X0424Y027
Y0263
X04035Y0264
X0408Y0277
X0416Y0282
X0427Y02915
X0431968Y0289968
X04425Y02925
X04345Y0301
X04385Y0308
X0442Y0312
X0455Y031
X04295Y0309
X04085Y03
X0403
X03935Y03025
X03875Y0304
X03825Y03045
X0387Y02965
X03875Y0284
X03925Y02775
X03965Y02905
X03755
X0371Y03005
X0362Y0301
X0361Y0291
X03445Y0288
X0349Y03035
X03495Y03105
X0358Y02665
X03675
X03775
X03465Y02475
X04095
X0422Y03135
X0392Y0314
X03735Y03135
X0373Y03235
X03635Y03205
X0361Y0317
X0346Y03225
X03505Y0332
X0366Y0334
X03805Y03315
X0399256
X0402Y03485
Y03655
X03965Y0369
X0391Y03705
X039Y03765
X0396Y03775
X0402Y03835
X03995Y03925
X03935Y03945
X0387Y0395
X03915Y0401
X0381968Y0386469
X03745Y0384
X037Y03825
X0366Y0383
X0362
X0358Y03815
X03575Y03775
X03535Y03795
X03485Y038
X0350505Y0376437
X03515Y03725
X0352Y03685
X0346Y0363
Y0359
Y0355
Y03505
X0358Y0353
X0368Y03495
X03765Y0351
X0386Y0353
X0374362Y0364138
Y0368862
X0369638
Y0364138
X0364Y03985
X0359
Y0416
X0365
X03735Y04125
X03455Y0414
X0346Y0384
T02
X0483138Y02735
X0487862
T03
X0353Y0247
X0363
X0373
X0383
X0393
T04
X04745Y02475
X04885
X04985
X04645
X04285
X04185
T05
X0326Y0254
X0448Y02855
X0385Y0407
M30
