%FSLAX25Y25*%
%MOIN*%
G70*
G01*
G75*
%ADD10O,0.00984X0.02559*%
%ADD11O,0.02559X0.00984*%
%ADD12R,0.17716X0.17716*%
%ADD13R,0.02953X0.03543*%
%ADD14R,0.05315X0.03740*%
%ADD15R,0.01575X0.01575*%
%ADD16R,0.00039X0.11811*%
%ADD17R,0.02559X0.06102*%
%ADD18R,0.03543X0.03937*%
%ADD19R,0.03937X0.01378*%
%ADD20R,0.02953X0.09449*%
%ADD21R,0.01969X0.02362*%
%ADD22R,0.02362X0.01969*%
%ADD23C,0.03937*%
%ADD24C,0.00787*%
%ADD25C,0.02000*%
%ADD26C,0.01969*%
%ADD27C,0.01181*%
%ADD28C,0.01000*%
%ADD29C,0.03937*%
%ADD30R,0.02913X0.03937*%
%ADD31R,0.03150X0.04724*%
%ADD32R,0.05079X0.19193*%
%ADD33R,0.03937X0.36142*%
%ADD34R,0.04764X1.00709*%
%ADD35R,0.15590X0.08583*%
%ADD36R,0.04764X0.12598*%
%ADD37R,0.05079X0.12598*%
%ADD38R,0.07992X0.01811*%
G04:AMPARAMS|DCode=39|XSize=18.11mil|YSize=66.44mil|CornerRadius=0mil|HoleSize=0mil|Usage=FLASHONLY|Rotation=124.500|XOffset=0mil|YOffset=0mil|HoleType=Round|Shape=Rectangle|*
%AMROTATEDRECTD39*
4,1,4,0.03251,0.01135,-0.02225,-0.02628,-0.03251,-0.01135,0.02225,0.02628,0.03251,0.01135,0.0*
%
%ADD39ROTATEDRECTD39*%

%ADD40R,0.03500X0.06000*%
%ADD41R,0.04000X0.03870*%
%ADD42R,0.04000X0.03709*%
%ADD43C,0.05906*%
%ADD44R,0.05906X0.05906*%
%ADD45C,0.11811*%
%ADD46C,0.02598*%
%ADD47C,0.03150*%
%ADD48R,0.02559X0.00984*%
%ADD49R,0.03150X0.05512*%
%ADD50R,0.02362X0.04528*%
%ADD51O,0.02362X0.07284*%
%ADD52R,0.03937X0.06496*%
%ADD53R,0.08268X0.05512*%
%ADD54O,0.00984X0.02362*%
%ADD55O,0.05118X0.01772*%
%ADD56R,0.01969X0.00984*%
%ADD57R,0.05118X0.03937*%
%ADD58O,0.02362X0.08071*%
%ADD59R,0.08071X0.03150*%
%ADD60R,0.03543X0.03150*%
%ADD61R,0.03937X0.05118*%
%ADD62R,0.03150X0.03543*%
%ADD63C,0.03150*%
%ADD64C,0.01575*%
%ADD65C,0.00984*%
D24*
X381941Y378705D02*
X384205D01*
Y376441D02*
Y378705D01*
Y354295D02*
Y356559D01*
X381941Y354295D02*
X384205D01*
X359795D02*
X362059D01*
X359795D02*
Y356559D01*
Y376441D02*
Y378705D01*
X362059D01*
X400735Y362000D02*
X402900D01*
X348000Y252000D02*
X398000D01*
X351333Y257000D02*
Y270333D01*
X353000Y272000D01*
X354667Y270333D01*
Y257000D02*
Y270333D01*
X361333Y257000D02*
Y270333D01*
X363000Y272000D01*
X364667Y270333D01*
Y257000D02*
Y270333D01*
X371333Y257000D02*
Y270333D01*
X373000Y272000D01*
X374667Y270333D01*
Y257000D02*
Y270333D01*
X381333Y257000D02*
Y270333D01*
X383000Y272000D01*
X384667Y270333D01*
Y257000D02*
Y270333D01*
X391333Y257000D02*
Y270333D01*
X393000Y272000D01*
X394667Y270333D01*
Y257000D02*
Y270333D01*
X398000Y252000D02*
Y257000D01*
X348000D02*
X398000D01*
X348000Y252000D02*
Y257000D01*
X391500Y322748D02*
Y333083D01*
Y330917D02*
Y341252D01*
X403291D02*
X403390D01*
Y330917D02*
Y341252D01*
Y322748D02*
Y333083D01*
X403291Y322748D02*
X403390D01*
X413047Y242579D02*
Y247500D01*
Y242579D02*
X434602D01*
Y252716D01*
X413047D02*
X434602D01*
X413047Y247500D02*
Y252716D01*
X355327Y343181D02*
X358772D01*
X355327Y341213D02*
Y343181D01*
Y341213D02*
X358772D01*
Y343181D01*
X357098Y343280D02*
Y344657D01*
X357049Y338998D02*
Y341213D01*
Y338998D02*
X357098Y338949D01*
X372295Y345929D02*
X374559D01*
X369835Y345929D02*
X372098D01*
X369933Y336972D02*
X372197D01*
X372295Y336972D02*
X374559D01*
X372779Y400902D02*
Y401098D01*
X345220Y400902D02*
Y401098D01*
Y400902D02*
X372779D01*
X345220Y401098D02*
X372779D01*
X401100Y371500D02*
X403265D01*
X483047Y242579D02*
Y247500D01*
Y242579D02*
X504602D01*
Y252716D01*
X483047D02*
X504602D01*
X483047Y247500D02*
Y252716D01*
X459047Y242579D02*
Y247500D01*
Y242579D02*
X480602D01*
Y252716D01*
X459047D02*
X480602D01*
X459047Y247500D02*
Y252716D01*
X372500Y390436D02*
Y387156D01*
X373156Y386500D01*
X374468D01*
X375124Y387156D01*
Y390436D01*
X378404Y386500D02*
Y390436D01*
X376436Y388468D01*
X379060D01*
X408149Y359500D02*
X405000D01*
Y357926D01*
X405525Y357401D01*
X407624D01*
X408149Y357926D01*
Y359500D01*
X405000Y354252D02*
Y356351D01*
X407099Y354252D01*
X407624D01*
X408149Y354777D01*
Y355827D01*
X407624Y356351D01*
X348000Y261500D02*
X344064D01*
Y263468D01*
X344720Y264124D01*
X346032D01*
X346688Y263468D01*
Y261500D01*
X348000Y267404D02*
X344064D01*
X346032Y265436D01*
Y268060D01*
X388500Y368255D02*
Y365500D01*
X389878D01*
X390337Y365959D01*
Y366418D01*
X389878Y366878D01*
X388500D01*
X389878D01*
X390337Y367337D01*
Y367796D01*
X389878Y368255D01*
X388500D01*
X393092Y365959D02*
Y367796D01*
X392633Y368255D01*
X391714D01*
X391255Y367796D01*
Y365959D01*
X391714Y365500D01*
X392633D01*
X392173Y366418D02*
X393092Y365500D01*
X392633D02*
X393092Y365959D01*
X394010Y365500D02*
X394928D01*
X394469D01*
Y368255D01*
X394010Y367796D01*
X327500Y282500D02*
Y279876D01*
X326188Y278564D01*
X324876Y279876D01*
Y282500D01*
Y280532D01*
X327500D01*
X323564Y282500D02*
X322252D01*
X322908D01*
Y278564D01*
X323564Y279220D01*
X399376Y313220D02*
X400032Y312564D01*
X401344D01*
X402000Y313220D01*
Y313876D01*
X401344Y314532D01*
X400032D01*
X399376Y315188D01*
Y315844D01*
X400032Y316500D01*
X401344D01*
X402000Y315844D01*
X395440Y316500D02*
X398064D01*
X395440Y313876D01*
Y313220D01*
X396096Y312564D01*
X397408D01*
X398064Y313220D01*
X417000Y255500D02*
Y259436D01*
X418968D01*
X419624Y258780D01*
Y257468D01*
X418968Y256812D01*
X417000D01*
X420936Y258780D02*
X421592Y259436D01*
X422904D01*
X423560Y258780D01*
Y258124D01*
X422904Y257468D01*
X422248D01*
X422904D01*
X423560Y256812D01*
Y256156D01*
X422904Y255500D01*
X421592D01*
X420936Y256156D01*
X365255Y345000D02*
X362500D01*
Y343622D01*
X362959Y343163D01*
X363418D01*
X363878Y343622D01*
Y345000D01*
Y343622D01*
X364337Y343163D01*
X364796D01*
X365255Y343622D01*
Y345000D01*
X362959Y340408D02*
X364796D01*
X365255Y340867D01*
Y341786D01*
X364796Y342245D01*
X362959D01*
X362500Y341786D01*
Y340867D01*
X363418Y341327D02*
X362500Y340408D01*
Y340867D02*
X362959Y340408D01*
X362500Y337653D02*
Y339490D01*
X364337Y337653D01*
X364796D01*
X365255Y338112D01*
Y339031D01*
X364796Y339490D01*
X370000Y350936D02*
Y347000D01*
X371968D01*
X372624Y347656D01*
Y348312D01*
X371968Y348968D01*
X370000D01*
X371968D01*
X372624Y349624D01*
Y350280D01*
X371968Y350936D01*
X370000D01*
X373936Y347000D02*
X375248D01*
X374592D01*
Y350936D01*
X373936Y350280D01*
X342000Y399000D02*
X338064D01*
Y400968D01*
X338720Y401624D01*
X340032D01*
X340688Y400968D01*
Y399000D01*
X338064Y405560D02*
Y402936D01*
X340032D01*
X339376Y404248D01*
Y404904D01*
X340032Y405560D01*
X341344D01*
X342000Y404904D01*
Y403592D01*
X341344Y402936D01*
X383000Y321500D02*
X380245D01*
Y322878D01*
X380704Y323337D01*
X381623D01*
X382082Y322878D01*
Y321500D01*
Y322418D02*
X383000Y323337D01*
Y326092D02*
Y324255D01*
X381163Y326092D01*
X380704D01*
X380245Y325633D01*
Y324714D01*
X380704Y324255D01*
Y327010D02*
X380245Y327469D01*
Y328388D01*
X380704Y328847D01*
X382541D01*
X383000Y328388D01*
Y327469D01*
X382541Y327010D01*
X380704D01*
X380926Y341532D02*
X381319Y341139D01*
X382106D01*
X382500Y341532D01*
Y343106D01*
X382106Y343500D01*
X381319D01*
X380926Y343106D01*
X380139Y341532D02*
X379745Y341139D01*
X378958D01*
X378564Y341532D01*
Y341926D01*
X378958Y342319D01*
X379351D01*
X378958D01*
X378564Y342713D01*
Y343106D01*
X378958Y343500D01*
X379745D01*
X380139Y343106D01*
X399124Y384401D02*
X399649Y384926D01*
Y385975D01*
X399124Y386500D01*
X397025D01*
X396500Y385975D01*
Y384926D01*
X397025Y384401D01*
X396500Y381777D02*
X399649D01*
X398074Y383351D01*
Y381252D01*
X359720Y310124D02*
X359064Y309468D01*
Y308156D01*
X359720Y307500D01*
X362344D01*
X363000Y308156D01*
Y309468D01*
X362344Y310124D01*
X359064Y311436D02*
Y314060D01*
X359720D01*
X362344Y311436D01*
X363000D01*
X351624Y359780D02*
X350968Y360436D01*
X349656D01*
X349000Y359780D01*
Y357156D01*
X349656Y356500D01*
X350968D01*
X351624Y357156D01*
X352936Y359780D02*
X353592Y360436D01*
X354904D01*
X355560Y359780D01*
Y359124D01*
X354904Y358468D01*
X355560Y357812D01*
Y357156D01*
X354904Y356500D01*
X353592D01*
X352936Y357156D01*
Y357812D01*
X353592Y358468D01*
X352936Y359124D01*
Y359780D01*
X353592Y358468D02*
X354904D01*
X340720Y383124D02*
X340064Y382468D01*
Y381156D01*
X340720Y380500D01*
X343344D01*
X344000Y381156D01*
Y382468D01*
X343344Y383124D01*
Y384436D02*
X344000Y385092D01*
Y386404D01*
X343344Y387060D01*
X340720D01*
X340064Y386404D01*
Y385092D01*
X340720Y384436D01*
X341376D01*
X342032Y385092D01*
Y387060D01*
X392968Y350426D02*
X393361Y350819D01*
Y351606D01*
X392968Y352000D01*
X391394D01*
X391000Y351606D01*
Y350819D01*
X391394Y350426D01*
X391000Y349639D02*
Y348851D01*
Y349245D01*
X393361D01*
X392968Y349639D01*
Y347671D02*
X393361Y347277D01*
Y346490D01*
X392968Y346096D01*
X391394D01*
X391000Y346490D01*
Y347277D01*
X391394Y347671D01*
X392968D01*
X391099Y391624D02*
X390574Y392149D01*
X389525D01*
X389000Y391624D01*
Y389525D01*
X389525Y389000D01*
X390574D01*
X391099Y389525D01*
X392149Y389000D02*
X393198D01*
X392673D01*
Y392149D01*
X392149Y391624D01*
X394772Y389000D02*
X395822D01*
X395297D01*
Y392149D01*
X394772Y391624D01*
X340220Y332124D02*
X339564Y331468D01*
Y330156D01*
X340220Y329500D01*
X342844D01*
X343500Y330156D01*
Y331468D01*
X342844Y332124D01*
X343500Y333436D02*
Y334748D01*
Y334092D01*
X339564D01*
X340220Y333436D01*
X339564Y336716D02*
Y339339D01*
X340220D01*
X342844Y336716D01*
X343500D01*
X398426Y349032D02*
X398819Y348639D01*
X399606D01*
X400000Y349032D01*
Y350606D01*
X399606Y351000D01*
X398819D01*
X398426Y350606D01*
X397639Y351000D02*
X396851D01*
X397245D01*
Y348639D01*
X397639Y349032D01*
X395671Y350606D02*
X395277Y351000D01*
X394490D01*
X394096Y350606D01*
Y349032D01*
X394490Y348639D01*
X395277D01*
X395671Y349032D01*
Y349426D01*
X395277Y349819D01*
X394096D01*
X394337Y373296D02*
X393878Y373755D01*
X392959D01*
X392500Y373296D01*
Y371459D01*
X392959Y371000D01*
X393878D01*
X394337Y371459D01*
X397092Y371000D02*
X395255D01*
X397092Y372837D01*
Y373296D01*
X396633Y373755D01*
X395714D01*
X395255Y373296D01*
X398010D02*
X398469Y373755D01*
X399388D01*
X399847Y373296D01*
Y371459D01*
X399388Y371000D01*
X398469D01*
X398010Y371459D01*
Y373296D01*
X382099Y391624D02*
X381574Y392149D01*
X380525D01*
X380000Y391624D01*
Y389525D01*
X380525Y389000D01*
X381574D01*
X382099Y389525D01*
X385248Y389000D02*
X383149D01*
X385248Y391099D01*
Y391624D01*
X384723Y392149D01*
X383673D01*
X383149Y391624D01*
X386297Y389000D02*
X387347D01*
X386822D01*
Y392149D01*
X386297Y391624D01*
X342376Y341599D02*
X341851Y341074D01*
Y340025D01*
X342376Y339500D01*
X344475D01*
X345000Y340025D01*
Y341074D01*
X344475Y341599D01*
X345000Y344748D02*
Y342649D01*
X342901Y344748D01*
X342376D01*
X341851Y344223D01*
Y343173D01*
X342376Y342649D01*
Y345797D02*
X341851Y346322D01*
Y347372D01*
X342376Y347896D01*
X342901D01*
X343426Y347372D01*
Y346847D01*
Y347372D01*
X343951Y347896D01*
X344475D01*
X345000Y347372D01*
Y346322D01*
X344475Y345797D01*
X362876Y326220D02*
X363532Y325564D01*
X364844D01*
X365500Y326220D01*
Y328844D01*
X364844Y329500D01*
X363532D01*
X362876Y328844D01*
X358940Y329500D02*
X361564D01*
X358940Y326876D01*
Y326220D01*
X359596Y325564D01*
X360908D01*
X361564Y326220D01*
X355661Y329500D02*
Y325564D01*
X357628Y327532D01*
X355005D01*
X389968Y337926D02*
X390361Y338319D01*
Y339106D01*
X389968Y339500D01*
X388394D01*
X388000Y339106D01*
Y338319D01*
X388394Y337926D01*
X388000Y335564D02*
Y337139D01*
X389574Y335564D01*
X389968D01*
X390361Y335958D01*
Y336745D01*
X389968Y337139D01*
X390361Y333203D02*
Y334777D01*
X389181D01*
X389574Y333990D01*
Y333596D01*
X389181Y333203D01*
X388394D01*
X388000Y333596D01*
Y334384D01*
X388394Y334777D01*
X407649Y379500D02*
X404500D01*
Y377926D01*
X405025Y377401D01*
X407124D01*
X407649Y377926D01*
Y379500D01*
X404500Y376351D02*
Y375302D01*
Y375827D01*
X407649D01*
X407124Y376351D01*
X376436Y311000D02*
X372500D01*
Y308376D01*
Y304440D02*
Y307064D01*
X375124Y304440D01*
X375780D01*
X376436Y305096D01*
Y306408D01*
X375780Y307064D01*
X388000Y341139D02*
Y343500D01*
X386426D01*
X384458D02*
Y341139D01*
X385639Y342319D01*
X384064D01*
X487000Y255500D02*
Y259436D01*
X488968D01*
X489624Y258780D01*
Y257468D01*
X488968Y256812D01*
X487000D01*
X490936Y255500D02*
X492248D01*
X491592D01*
Y259436D01*
X490936Y258780D01*
X462500Y255500D02*
Y259436D01*
X464468D01*
X465124Y258780D01*
Y257468D01*
X464468Y256812D01*
X462500D01*
X469060Y255500D02*
X466436D01*
X469060Y258124D01*
Y258780D01*
X468404Y259436D01*
X467092D01*
X466436Y258780D01*
X349000Y328500D02*
X352936D01*
Y326532D01*
X352280Y325876D01*
X350968D01*
X350312Y326532D01*
Y328500D01*
Y327188D02*
X349000Y325876D01*
X352280Y324564D02*
X352936Y323908D01*
Y322596D01*
X352280Y321940D01*
X351624D01*
X350968Y322596D01*
X350312Y321940D01*
X349656D01*
X349000Y322596D01*
Y323908D01*
X349656Y324564D01*
X350312D01*
X350968Y323908D01*
X351624Y324564D01*
X352280D01*
X350968Y323908D02*
Y322596D01*
X377500Y327500D02*
X374745D01*
Y328877D01*
X375204Y329337D01*
X376122D01*
X376582Y328877D01*
Y327500D01*
Y328418D02*
X377500Y329337D01*
Y330255D02*
Y331173D01*
Y330714D01*
X374745D01*
X375204Y330255D01*
X374745Y334388D02*
X375204Y333469D01*
X376122Y332551D01*
X377041D01*
X377500Y333010D01*
Y333928D01*
X377041Y334388D01*
X376582D01*
X376122Y333928D01*
Y332551D01*
X374500Y396000D02*
Y399936D01*
X376468D01*
X377124Y399280D01*
Y397968D01*
X376468Y397312D01*
X374500D01*
X375812D02*
X377124Y396000D01*
X378436D02*
X379748D01*
X379092D01*
Y399936D01*
X378436Y399280D01*
X381715Y396656D02*
X382371Y396000D01*
X383683D01*
X384339Y396656D01*
Y399280D01*
X383683Y399936D01*
X382371D01*
X381715Y399280D01*
Y398624D01*
X382371Y397968D01*
X384339D01*
D28*
X413000Y252500D02*
Y259898D01*
X434500Y253000D02*
Y260398D01*
X459000Y252500D02*
Y259898D01*
X480500Y252500D02*
Y259898D01*
X483000Y252500D02*
Y259898D01*
X504500Y252500D02*
Y259898D01*
X328000Y340000D02*
X324012D01*
X322018Y341994D01*
X324012Y343988D01*
X328000D01*
X325009D01*
Y340000D01*
X323015Y349971D02*
X322018Y348973D01*
Y346979D01*
X323015Y345982D01*
X324012D01*
X325009Y346979D01*
Y348973D01*
X326006Y349971D01*
X327003D01*
X328000Y348973D01*
Y346979D01*
X327003Y345982D01*
X322018Y355953D02*
Y351965D01*
X328000D01*
Y355953D01*
X325009Y351965D02*
Y353959D01*
X328000Y363929D02*
Y365923D01*
Y364926D01*
X322018D01*
X323015Y363929D01*
X328000Y368915D02*
X327003D01*
Y369912D01*
X328000D01*
Y368915D01*
X323015Y373900D02*
X322018Y374897D01*
Y376891D01*
X323015Y377888D01*
X327003D01*
X328000Y376891D01*
Y374897D01*
X327003Y373900D01*
X323015D01*
D65*
X381350Y381854D02*
G03*
X381350Y381854I-492J0D01*
G01*
X389709Y317728D02*
G03*
X389709Y317728I-492J0D01*
G01*
X352177Y352039D02*
G03*
X352177Y352039I-492J0D01*
G01*
X377610Y336776D02*
G03*
X377610Y336776I-492J0D01*
G01*
X345457Y393126D02*
G03*
X345457Y393126I-492J0D01*
G01*
M02*
