%FSLAX25Y25*%
%MOIN*%
G70*
G01*
G75*
G04 Layer_Physical_Order=2*
G04 Layer_Color=36540*
%ADD10O,0.00984X0.02559*%
%ADD11O,0.02559X0.00984*%
%ADD12R,0.17716X0.17716*%
%ADD13R,0.02953X0.03543*%
%ADD14R,0.05315X0.03740*%
%ADD15R,0.01575X0.01575*%
%ADD16R,0.00039X0.11811*%
%ADD17R,0.02559X0.06102*%
%ADD18R,0.03543X0.03937*%
%ADD19R,0.03937X0.01378*%
%ADD20R,0.02953X0.09449*%
%ADD21R,0.01969X0.02362*%
%ADD22R,0.02362X0.01969*%
%ADD23C,0.03937*%
%ADD24C,0.00787*%
%ADD25C,0.02000*%
%ADD26C,0.01969*%
%ADD27C,0.01181*%
%ADD28C,0.01000*%
%ADD29C,0.03937*%
%ADD30R,0.02913X0.03937*%
%ADD31R,0.03150X0.04724*%
%ADD32R,0.05079X0.19193*%
%ADD33R,0.03937X0.36142*%
%ADD34R,0.04764X1.00709*%
%ADD35R,0.15590X0.08583*%
%ADD36R,0.04764X0.12598*%
%ADD37R,0.05079X0.12598*%
%ADD38R,0.07992X0.01811*%
G04:AMPARAMS|DCode=39|XSize=18.11mil|YSize=66.44mil|CornerRadius=0mil|HoleSize=0mil|Usage=FLASHONLY|Rotation=124.500|XOffset=0mil|YOffset=0mil|HoleType=Round|Shape=Rectangle|*
%AMROTATEDRECTD39*
4,1,4,0.03251,0.01135,-0.02225,-0.02628,-0.03251,-0.01135,0.02225,0.02628,0.03251,0.01135,0.0*
%
%ADD39ROTATEDRECTD39*%

%ADD40R,0.03500X0.06000*%
%ADD41R,0.04000X0.03870*%
%ADD42R,0.04000X0.03709*%
%ADD43C,0.05906*%
%ADD44R,0.05906X0.05906*%
%ADD45C,0.11811*%
%ADD46C,0.02598*%
%ADD47C,0.03150*%
G36*
X403796Y363329D02*
Y350672D01*
X403355Y350436D01*
X402922Y350725D01*
X402000Y350908D01*
X401078Y350725D01*
X400889Y350599D01*
X400448Y350834D01*
Y363165D01*
X400889Y363401D01*
X401078Y363275D01*
X402000Y363091D01*
X402922Y363275D01*
X403355Y363564D01*
X403796Y363329D01*
D02*
G37*
G36*
X356714Y416613D02*
X356592Y416000D01*
X356709Y415412D01*
X342962Y401665D01*
X342500Y401856D01*
Y417000D01*
X356396D01*
X356714Y416613D01*
D02*
G37*
G36*
X404500Y394856D02*
X404038Y394665D01*
X400351Y398352D01*
X399961Y398613D01*
X399500Y398704D01*
X399500Y398704D01*
X393177D01*
X393032Y399183D01*
X393203Y399297D01*
X393725Y400078D01*
X393909Y401000D01*
X393725Y401922D01*
X393203Y402703D01*
X392422Y403225D01*
X391500Y403408D01*
X391144Y403338D01*
X390846Y403739D01*
X391213Y404426D01*
X391596Y405688D01*
X391725Y407000D01*
X391596Y408312D01*
X391213Y409574D01*
X390592Y410736D01*
X389756Y411756D01*
X388736Y412592D01*
X387574Y413213D01*
X386312Y413596D01*
X385000Y413725D01*
X383688Y413596D01*
X382426Y413213D01*
X381264Y412592D01*
X380244Y411756D01*
X379408Y410736D01*
X378787Y409574D01*
X378404Y408312D01*
X378275Y407000D01*
X378404Y405688D01*
X378787Y404426D01*
X379408Y403264D01*
X380244Y402245D01*
X381264Y401408D01*
X382426Y400787D01*
X383688Y400404D01*
X385000Y400275D01*
X386312Y400404D01*
X387574Y400787D01*
X388709Y401394D01*
X389110Y401096D01*
X389091Y401000D01*
X389275Y400078D01*
X389797Y399297D01*
X389968Y399183D01*
X389823Y398704D01*
X389500D01*
X389039Y398613D01*
X388883Y398508D01*
X388649Y398352D01*
X388649Y398352D01*
X387588Y397291D01*
X387000Y397409D01*
X386078Y397225D01*
X385297Y396703D01*
X384775Y395922D01*
X384592Y395000D01*
X384775Y394078D01*
X385297Y393297D01*
X385315Y393285D01*
X385170Y392806D01*
X362500D01*
X361809Y392669D01*
X361223Y392277D01*
X356723Y387777D01*
X356331Y387191D01*
X356194Y386500D01*
Y383048D01*
X355775Y382422D01*
X355592Y381500D01*
X355592Y381499D01*
X355176Y381221D01*
X354422Y381725D01*
X353500Y381908D01*
X352578Y381725D01*
X351797Y381203D01*
X351291Y380446D01*
X350800Y380543D01*
X350725Y380922D01*
X350203Y381703D01*
X349422Y382225D01*
X348500Y382408D01*
X348308Y382370D01*
X348030Y382786D01*
X348225Y383078D01*
X348409Y384000D01*
X348225Y384922D01*
X347703Y385703D01*
X346922Y386225D01*
X346000Y386408D01*
X345078Y386225D01*
X344889Y386099D01*
X344448Y386334D01*
Y399745D01*
X358412Y413709D01*
X359000Y413591D01*
X359922Y413775D01*
X360703Y414297D01*
X361225Y415078D01*
X361408Y416000D01*
X361286Y416613D01*
X361604Y417000D01*
X362396D01*
X362714Y416613D01*
X362592Y416000D01*
X362775Y415078D01*
X363297Y414297D01*
X364078Y413775D01*
X365000Y413591D01*
X365922Y413775D01*
X366703Y414297D01*
X367225Y415078D01*
X367408Y416000D01*
X367286Y416613D01*
X367604Y417000D01*
X404500D01*
Y394856D01*
D02*
G37*
G36*
X388194Y385752D02*
Y378048D01*
X387775Y377422D01*
X387592Y376500D01*
X387733Y375788D01*
X385723Y373777D01*
X385331Y373191D01*
X385194Y372500D01*
Y355248D01*
X385078Y355225D01*
X384297Y354703D01*
X383775Y353922D01*
X383628Y353182D01*
X383252Y352806D01*
X378048D01*
X377422Y353225D01*
X376500Y353409D01*
X375578Y353225D01*
X374952Y352806D01*
X369500D01*
X368809Y352669D01*
X368223Y352277D01*
X367818Y351872D01*
X367078Y351725D01*
X366452Y351306D01*
X362248D01*
X360372Y353182D01*
X360225Y353922D01*
X359703Y354703D01*
X358922Y355225D01*
X358000Y355409D01*
X357078Y355225D01*
X356923Y355122D01*
X356570Y355475D01*
X356613Y355539D01*
X356613Y355539D01*
X356613Y355539D01*
X356704Y356000D01*
X356704Y356000D01*
Y368897D01*
X356704Y368897D01*
X356613Y369358D01*
X356351Y369749D01*
X353857Y372243D01*
X353908Y372500D01*
X353725Y373422D01*
X353203Y374203D01*
X352564Y374630D01*
X352466Y375121D01*
X352730Y375515D01*
X352913Y376437D01*
X352841Y376799D01*
X353195Y377152D01*
X353500Y377092D01*
X354422Y377275D01*
X354678Y377446D01*
X355140Y377255D01*
X355275Y376578D01*
X355797Y375797D01*
X356578Y375275D01*
X357500Y375092D01*
X358422Y375275D01*
X359203Y375797D01*
X359725Y376578D01*
X359909Y377500D01*
X359725Y378422D01*
X359279Y379089D01*
X359377Y379579D01*
X359703Y379797D01*
X360225Y380578D01*
X360272Y380814D01*
X360734Y381005D01*
X361078Y380775D01*
X362000Y380592D01*
X362922Y380775D01*
X363703Y381297D01*
X363750Y381367D01*
X364250D01*
X364297Y381297D01*
X365078Y380775D01*
X366000Y380592D01*
X366922Y380775D01*
X367589Y381221D01*
X368079Y381123D01*
X368297Y380797D01*
X369078Y380275D01*
X370000Y380092D01*
X370922Y380275D01*
X371703Y380797D01*
X372225Y381578D01*
X372302Y381966D01*
X372797Y382297D01*
X373578Y381775D01*
X374500Y381592D01*
X375422Y381775D01*
X376203Y382297D01*
X376725Y383078D01*
X376908Y384000D01*
X376725Y384922D01*
X376203Y385703D01*
X375422Y386225D01*
X374500Y386408D01*
X373578Y386225D01*
X372797Y385703D01*
X372275Y384922D01*
X372198Y384534D01*
X371703Y384203D01*
X370922Y384725D01*
X370000Y384909D01*
X369078Y384725D01*
X368411Y384279D01*
X367921Y384377D01*
X367703Y384703D01*
X366922Y385225D01*
X366000Y385408D01*
X365078Y385225D01*
X364297Y384703D01*
X364250Y384633D01*
X363750D01*
X363703Y384703D01*
X362922Y385225D01*
X362000Y385408D01*
X361078Y385225D01*
X360297Y384703D01*
X360285Y384685D01*
X359806Y384830D01*
Y385752D01*
X363248Y389194D01*
X381010D01*
X381059Y388696D01*
X381047Y388694D01*
X380265Y388172D01*
X379743Y387390D01*
X379560Y386469D01*
X379743Y385547D01*
X380265Y384766D01*
X380764Y384432D01*
Y380967D01*
X373511Y373714D01*
X373250Y373323D01*
X373158Y372862D01*
X373158Y372862D01*
Y370567D01*
X372858Y370367D01*
X372397Y369676D01*
X372250Y368939D01*
X371750D01*
X371603Y369676D01*
X371142Y370367D01*
X370452Y370828D01*
X369638Y370990D01*
X368824Y370828D01*
X368133Y370367D01*
X367672Y369676D01*
X367510Y368862D01*
X367672Y368048D01*
X368133Y367358D01*
X368824Y366897D01*
X369561Y366750D01*
Y366250D01*
X368824Y366103D01*
X368133Y365642D01*
X367672Y364952D01*
X367510Y364138D01*
X367672Y363324D01*
X368133Y362633D01*
X368824Y362172D01*
X369638Y362010D01*
X370452Y362172D01*
X371142Y362633D01*
X371603Y363324D01*
X371750Y364061D01*
X372250D01*
X372397Y363324D01*
X372858Y362633D01*
X373548Y362172D01*
X374362Y362010D01*
X375176Y362172D01*
X375867Y362633D01*
X376328Y363324D01*
X376490Y364138D01*
X376328Y364952D01*
X375867Y365642D01*
X375176Y366103D01*
X374439Y366250D01*
Y366750D01*
X375176Y366897D01*
X375867Y367358D01*
X376328Y368048D01*
X376490Y368862D01*
X376328Y369676D01*
X375867Y370367D01*
X375566Y370567D01*
Y372363D01*
X382820Y379617D01*
X382820Y379617D01*
X383081Y380008D01*
X383173Y380469D01*
Y384432D01*
X383672Y384766D01*
X384194Y385547D01*
X384377Y386469D01*
X384194Y387390D01*
X383672Y388172D01*
X382890Y388694D01*
X382878Y388696D01*
X382927Y389194D01*
X384752D01*
X388194Y385752D01*
D02*
G37*
G36*
X400000Y395297D02*
X399764Y394856D01*
X399500Y394908D01*
X398578Y394725D01*
X397797Y394203D01*
X397275Y393422D01*
X397092Y392500D01*
X397275Y391578D01*
X397797Y390797D01*
X398578Y390275D01*
X399500Y390091D01*
X400422Y390275D01*
X401203Y390797D01*
X401725Y391578D01*
X401908Y392500D01*
X401856Y392764D01*
X402297Y393000D01*
X403796Y391501D01*
Y385671D01*
X403355Y385436D01*
X402922Y385725D01*
X402000Y385909D01*
X401078Y385725D01*
X400297Y385203D01*
X399775Y384422D01*
X399591Y383500D01*
X399775Y382578D01*
X400297Y381797D01*
X401078Y381275D01*
X402000Y381091D01*
X402922Y381275D01*
X403355Y381564D01*
X403796Y381329D01*
Y367671D01*
X403355Y367436D01*
X402922Y367725D01*
X402000Y367909D01*
X401078Y367725D01*
X400901Y367607D01*
X400460Y367843D01*
Y374244D01*
X400368Y374705D01*
X400107Y375096D01*
X400107Y375096D01*
X398291Y376912D01*
X398409Y377500D01*
X398225Y378422D01*
X397703Y379203D01*
X396922Y379725D01*
X396000Y379908D01*
X395078Y379725D01*
X394297Y379203D01*
X393775Y378422D01*
X393591Y377500D01*
X393775Y376578D01*
X394297Y375797D01*
X395078Y375275D01*
X396000Y375092D01*
X396588Y375209D01*
X398052Y373745D01*
Y371335D01*
X397611Y371099D01*
X397422Y371225D01*
X396500Y371409D01*
X395578Y371225D01*
X394797Y370703D01*
X394275Y369922D01*
X394092Y369000D01*
X394275Y368078D01*
X394797Y367297D01*
X395578Y366775D01*
X396500Y366592D01*
X397422Y366775D01*
X397602Y366895D01*
X397951Y366704D01*
X398040Y366641D01*
D01*
X398040Y366641D01*
Y339743D01*
X394649Y336351D01*
X394387Y335961D01*
X394296Y335500D01*
X394296Y335500D01*
Y317999D01*
X392588Y316291D01*
X392000Y316408D01*
X391078Y316225D01*
X390297Y315703D01*
X389775Y314922D01*
X389592Y314000D01*
X389775Y313078D01*
X390297Y312297D01*
X391078Y311775D01*
X392000Y311592D01*
X392922Y311775D01*
X393703Y312297D01*
X394225Y313078D01*
X394408Y314000D01*
X394291Y314588D01*
X396352Y316649D01*
X396352Y316649D01*
X396613Y317039D01*
X396613Y317039D01*
X396613Y317039D01*
X396704Y317500D01*
X396704Y317500D01*
Y330206D01*
X397183Y330351D01*
X397553Y329797D01*
X397851Y329598D01*
Y293838D01*
X396852Y292839D01*
X396500Y292909D01*
X395578Y292725D01*
X394797Y292203D01*
X394275Y291422D01*
X394092Y290500D01*
X394275Y289578D01*
X394797Y288797D01*
X395578Y288275D01*
X396500Y288091D01*
X397422Y288275D01*
X398203Y288797D01*
X398725Y289578D01*
X398908Y290500D01*
X398838Y290852D01*
X400249Y292263D01*
X400554Y292718D01*
X400661Y293256D01*
Y298388D01*
X401139Y298533D01*
X401297Y298297D01*
X402078Y297775D01*
X403000Y297591D01*
X403922Y297775D01*
X404703Y298297D01*
X405225Y299078D01*
X405408Y300000D01*
X405225Y300922D01*
X404703Y301703D01*
X403922Y302225D01*
X403000Y302409D01*
X402078Y302225D01*
X401297Y301703D01*
X401139Y301467D01*
X400661Y301612D01*
Y329598D01*
X400959Y329797D01*
X401481Y330578D01*
X401664Y331500D01*
X401481Y332422D01*
X400959Y333203D01*
X400178Y333725D01*
X399256Y333909D01*
X398334Y333725D01*
X397553Y333203D01*
X397183Y332649D01*
X396704Y332794D01*
Y335001D01*
X400096Y338392D01*
X400096Y338393D01*
X400357Y338783D01*
X400448Y339244D01*
Y346165D01*
X400889Y346401D01*
X401078Y346275D01*
X402000Y346092D01*
X402922Y346275D01*
X403355Y346564D01*
X403796Y346328D01*
Y319000D01*
X403796Y319000D01*
X403887Y318539D01*
X404148Y318148D01*
X404500Y317797D01*
Y317000D01*
X405297D01*
X406648Y315649D01*
X406648Y315649D01*
X406883Y315492D01*
X407039Y315387D01*
X407500Y315296D01*
X419829D01*
X420064Y314855D01*
X419775Y314422D01*
X419691Y314000D01*
X424309D01*
X424225Y314422D01*
X423936Y314855D01*
X424171Y315296D01*
X429501D01*
X436209Y308588D01*
X436092Y308000D01*
X436275Y307078D01*
X436797Y306297D01*
X437578Y305775D01*
X438500Y305592D01*
X439422Y305775D01*
X440203Y306297D01*
X440725Y307078D01*
X440908Y308000D01*
X440725Y308922D01*
X440203Y309703D01*
X439422Y310225D01*
X438500Y310408D01*
X437912Y310291D01*
X431665Y316538D01*
X431856Y317000D01*
X483500D01*
Y297000D01*
X505000D01*
Y244000D01*
X500860D01*
X500700Y244474D01*
X501167Y244832D01*
X501767Y245614D01*
X502144Y246524D01*
X502272Y247500D01*
X502144Y248476D01*
X501767Y249386D01*
X501167Y250167D01*
X500386Y250767D01*
X499476Y251144D01*
X498500Y251272D01*
X497524Y251144D01*
X496614Y250767D01*
X495832Y250167D01*
X495233Y249386D01*
X494856Y248476D01*
X494728Y247500D01*
X494856Y246524D01*
X495233Y245614D01*
X495832Y244832D01*
X496300Y244474D01*
X496140Y244000D01*
X490860D01*
X490700Y244474D01*
X491167Y244832D01*
X491767Y245614D01*
X492144Y246524D01*
X492272Y247500D01*
X492144Y248476D01*
X491767Y249386D01*
X491167Y250167D01*
X490386Y250767D01*
X489476Y251144D01*
X488500Y251272D01*
X487524Y251144D01*
X486614Y250767D01*
X485833Y250167D01*
X485233Y249386D01*
X484856Y248476D01*
X484728Y247500D01*
X484856Y246524D01*
X485233Y245614D01*
X485833Y244832D01*
X486300Y244474D01*
X486140Y244000D01*
X482372D01*
X482226Y244479D01*
X482703Y244797D01*
X483225Y245578D01*
X483408Y246500D01*
X483225Y247422D01*
X482703Y248203D01*
X482313Y248464D01*
Y250956D01*
X484544Y253187D01*
X498500D01*
X499002Y253287D01*
X499428Y253572D01*
X499428Y253572D01*
X499428Y253572D01*
X500456Y254600D01*
X500500Y254591D01*
X501422Y254775D01*
X502203Y255297D01*
X502725Y256078D01*
X502909Y257000D01*
X502725Y257922D01*
X502203Y258703D01*
X501422Y259225D01*
X500500Y259408D01*
X499578Y259225D01*
X498797Y258703D01*
X498275Y257922D01*
X498092Y257000D01*
X498251Y256199D01*
X497934Y255813D01*
X484000D01*
X483498Y255713D01*
X483072Y255428D01*
X481000Y253356D01*
X470817Y263539D01*
X470908Y264000D01*
X470908Y264001D01*
X471324Y264279D01*
X472078Y263775D01*
X473000Y263592D01*
X473922Y263775D01*
X474703Y264297D01*
X475225Y265078D01*
X475409Y266000D01*
X475225Y266922D01*
X474703Y267703D01*
X473922Y268225D01*
X473000Y268408D01*
X472078Y268225D01*
X471297Y267703D01*
X470775Y266922D01*
X470591Y266000D01*
X470592Y265999D01*
X470176Y265721D01*
X469422Y266225D01*
X468500Y266408D01*
X467578Y266225D01*
X466797Y265703D01*
X466275Y264922D01*
X466091Y264000D01*
X466275Y263078D01*
X466797Y262297D01*
X467578Y261775D01*
X468500Y261592D01*
X468961Y261683D01*
X479687Y250956D01*
Y248464D01*
X479297Y248203D01*
X478775Y247422D01*
X478749Y247292D01*
X478256Y247374D01*
X478272Y247500D01*
X478144Y248476D01*
X477767Y249386D01*
X477168Y250167D01*
X476386Y250767D01*
X475476Y251144D01*
X474500Y251272D01*
X473524Y251144D01*
X472614Y250767D01*
X471833Y250167D01*
X471233Y249386D01*
X470856Y248476D01*
X470728Y247500D01*
X470856Y246524D01*
X471233Y245614D01*
X471833Y244832D01*
X472300Y244474D01*
X472140Y244000D01*
X466860D01*
X466700Y244474D01*
X467168Y244832D01*
X467767Y245614D01*
X468144Y246524D01*
X468272Y247500D01*
X468144Y248476D01*
X467767Y249386D01*
X467168Y250167D01*
X466386Y250767D01*
X465476Y251144D01*
X464500Y251272D01*
X463524Y251144D01*
X462614Y250767D01*
X461833Y250167D01*
X461233Y249386D01*
X460856Y248476D01*
X460728Y247500D01*
X460856Y246524D01*
X461233Y245614D01*
X461833Y244832D01*
X462300Y244474D01*
X462140Y244000D01*
X430860D01*
X430700Y244474D01*
X431168Y244832D01*
X431767Y245614D01*
X432144Y246524D01*
X432272Y247500D01*
X432144Y248476D01*
X431767Y249386D01*
X431168Y250167D01*
X430386Y250767D01*
X429476Y251144D01*
X428500Y251272D01*
X427524Y251144D01*
X426614Y250767D01*
X425833Y250167D01*
X425233Y249386D01*
X424856Y248476D01*
X424728Y247500D01*
X424856Y246524D01*
X425233Y245614D01*
X425833Y244832D01*
X426300Y244474D01*
X426140Y244000D01*
X420860D01*
X420700Y244474D01*
X421168Y244832D01*
X421767Y245614D01*
X422144Y246524D01*
X422272Y247500D01*
X422144Y248476D01*
X421767Y249386D01*
X421168Y250167D01*
X420386Y250767D01*
X419476Y251144D01*
X418500Y251272D01*
X417524Y251144D01*
X416614Y250767D01*
X415833Y250167D01*
X415233Y249386D01*
X414856Y248476D01*
X414728Y247500D01*
X414856Y246524D01*
X415233Y245614D01*
X415833Y244832D01*
X416300Y244474D01*
X416140Y244000D01*
X396740D01*
Y250740D01*
X389260D01*
Y244000D01*
X385978D01*
X385756Y244448D01*
X386267Y245114D01*
X386644Y246024D01*
X386772Y247000D01*
X386644Y247976D01*
X386267Y248886D01*
X385667Y249668D01*
X384886Y250267D01*
X383976Y250644D01*
X383000Y250772D01*
X382024Y250644D01*
X381114Y250267D01*
X380332Y249668D01*
X379733Y248886D01*
X379356Y247976D01*
X379228Y247000D01*
X379356Y246024D01*
X379733Y245114D01*
X380243Y244448D01*
X380022Y244000D01*
X375978D01*
X375757Y244448D01*
X376267Y245114D01*
X376644Y246024D01*
X376772Y247000D01*
X376644Y247976D01*
X376267Y248886D01*
X375668Y249668D01*
X374886Y250267D01*
X373976Y250644D01*
X373000Y250772D01*
X372024Y250644D01*
X371114Y250267D01*
X370333Y249668D01*
X369733Y248886D01*
X369356Y247976D01*
X369228Y247000D01*
X369356Y246024D01*
X369733Y245114D01*
X370244Y244448D01*
X370022Y244000D01*
X365978D01*
X365757Y244448D01*
X366267Y245114D01*
X366644Y246024D01*
X366772Y247000D01*
X366644Y247976D01*
X366267Y248886D01*
X365668Y249668D01*
X364886Y250267D01*
X363976Y250644D01*
X363000Y250772D01*
X362024Y250644D01*
X361114Y250267D01*
X360332Y249668D01*
X359733Y248886D01*
X359356Y247976D01*
X359228Y247000D01*
X359356Y246024D01*
X359733Y245114D01*
X360244Y244448D01*
X360022Y244000D01*
X355978D01*
X355756Y244448D01*
X356267Y245114D01*
X356644Y246024D01*
X356772Y247000D01*
X356644Y247976D01*
X356267Y248886D01*
X355667Y249668D01*
X354886Y250267D01*
X353976Y250644D01*
X353000Y250772D01*
X352024Y250644D01*
X351114Y250267D01*
X350332Y249668D01*
X349733Y248886D01*
X349356Y247976D01*
X349340Y247857D01*
X348841Y247841D01*
X348725Y248422D01*
X348203Y249203D01*
X347422Y249725D01*
X346500Y249908D01*
X345578Y249725D01*
X344797Y249203D01*
X344275Y248422D01*
X344092Y247500D01*
X344275Y246578D01*
X344797Y245797D01*
X345578Y245275D01*
X346500Y245092D01*
X347422Y245275D01*
X348203Y245797D01*
X348725Y246578D01*
X348762Y246761D01*
X349261Y246745D01*
X349356Y246024D01*
X349733Y245114D01*
X350243Y244448D01*
X350022Y244000D01*
X342500D01*
Y285965D01*
X342941Y286201D01*
X343578Y285775D01*
X344500Y285592D01*
X345422Y285775D01*
X346203Y286297D01*
X346725Y287078D01*
X346908Y288000D01*
X346725Y288922D01*
X346203Y289703D01*
X345422Y290225D01*
X344500Y290408D01*
X343578Y290225D01*
X342941Y289799D01*
X342500Y290035D01*
Y378188D01*
X342962Y378379D01*
X349154Y372188D01*
X349275Y371578D01*
X349797Y370797D01*
X350123Y370579D01*
X350220Y370089D01*
X349775Y369422D01*
X349591Y368500D01*
X349775Y367578D01*
X350297Y366797D01*
X351078Y366275D01*
X352000Y366091D01*
X352922Y366275D01*
X353703Y366797D01*
X353817Y366968D01*
X354296Y366823D01*
Y356499D01*
X353591Y355794D01*
X353129Y355986D01*
Y356075D01*
X353129Y356075D01*
X353038Y356536D01*
X352777Y356926D01*
X352777Y356926D01*
X349851Y359852D01*
X349461Y360113D01*
X349000Y360204D01*
X349000Y360204D01*
X348036D01*
X347703Y360703D01*
X347633Y360750D01*
Y361250D01*
X347703Y361297D01*
X348225Y362078D01*
X348409Y363000D01*
X348225Y363922D01*
X347703Y364703D01*
X346922Y365225D01*
X346000Y365408D01*
X345078Y365225D01*
X344297Y364703D01*
X343775Y363922D01*
X343591Y363000D01*
X343775Y362078D01*
X344297Y361297D01*
X344367Y361250D01*
Y360750D01*
X344297Y360703D01*
X343775Y359922D01*
X343591Y359000D01*
X343775Y358078D01*
X344297Y357297D01*
X344367Y357250D01*
Y356750D01*
X344297Y356703D01*
X343775Y355922D01*
X343591Y355000D01*
X343775Y354078D01*
X344297Y353297D01*
X344741Y353000D01*
Y352500D01*
X344297Y352203D01*
X343775Y351422D01*
X343591Y350500D01*
X343775Y349578D01*
X344297Y348797D01*
X345078Y348275D01*
X346000Y348092D01*
X346922Y348275D01*
X347703Y348797D01*
X348225Y349578D01*
X348409Y350500D01*
X348225Y351422D01*
X347703Y352203D01*
X347259Y352500D01*
Y353000D01*
X347703Y353297D01*
X348225Y354078D01*
X348409Y355000D01*
X348225Y355922D01*
X347703Y356703D01*
X347633Y356750D01*
Y357250D01*
X347703Y357297D01*
X348004Y357747D01*
X348501Y357796D01*
Y357796D01*
X348501Y357796D01*
X350721Y355576D01*
Y338575D01*
X350721Y338575D01*
X350813Y338114D01*
X351074Y337723D01*
X353221Y335576D01*
Y333020D01*
X352725Y332922D01*
X352203Y333703D01*
X351422Y334225D01*
X350500Y334408D01*
X349578Y334225D01*
X348797Y333703D01*
X348275Y332922D01*
X348092Y332000D01*
X348275Y331078D01*
X348694Y330452D01*
Y327748D01*
X345818Y324872D01*
X345078Y324725D01*
X344297Y324203D01*
X343775Y323422D01*
X343591Y322500D01*
X343775Y321578D01*
X344297Y320797D01*
X345078Y320275D01*
X346000Y320092D01*
X346922Y320275D01*
X347703Y320797D01*
X348225Y321578D01*
X348372Y322318D01*
X351777Y325723D01*
X352169Y326309D01*
X352306Y327000D01*
X352306Y327000D01*
X352306Y327000D01*
Y327000D01*
Y330452D01*
X352725Y331078D01*
X353221Y330980D01*
Y276575D01*
X353221Y276575D01*
X353313Y276114D01*
X353574Y275723D01*
X360149Y269148D01*
X360539Y268887D01*
X361000Y268796D01*
X365823D01*
X365968Y268317D01*
X365797Y268203D01*
X365275Y267422D01*
X365091Y266500D01*
X365275Y265578D01*
X365797Y264797D01*
X366578Y264275D01*
X367500Y264091D01*
X368422Y264275D01*
X369203Y264797D01*
X369725Y265578D01*
X369908Y266500D01*
X369725Y267422D01*
X369203Y268203D01*
X369032Y268317D01*
X369177Y268796D01*
X375823D01*
X375968Y268317D01*
X375797Y268203D01*
X375275Y267422D01*
X375092Y266500D01*
X375275Y265578D01*
X375797Y264797D01*
X376578Y264275D01*
X377500Y264091D01*
X378422Y264275D01*
X379203Y264797D01*
X379725Y265578D01*
X379908Y266500D01*
X379725Y267422D01*
X379203Y268203D01*
X379032Y268317D01*
X379177Y268796D01*
X421964D01*
X422297Y268297D01*
X423078Y267775D01*
X424000Y267592D01*
X424922Y267775D01*
X425703Y268297D01*
X426225Y269078D01*
X426408Y270000D01*
X426225Y270922D01*
X425703Y271703D01*
X424922Y272225D01*
X424000Y272409D01*
X423078Y272225D01*
X422297Y271703D01*
X421964Y271204D01*
X361499D01*
X355629Y277074D01*
Y290014D01*
X356091Y290206D01*
X356149Y290148D01*
X356149Y290148D01*
X356383Y289992D01*
X356539Y289887D01*
X357000Y289796D01*
X358964D01*
X359297Y289297D01*
X360078Y288775D01*
X361000Y288592D01*
X361922Y288775D01*
X362703Y289297D01*
X363225Y290078D01*
X363408Y291000D01*
X363225Y291922D01*
X362703Y292703D01*
X361922Y293225D01*
X361000Y293408D01*
X360078Y293225D01*
X359297Y292703D01*
X358964Y292204D01*
X357499D01*
X357204Y292499D01*
Y338500D01*
X357113Y338961D01*
X357008Y339117D01*
X356852Y339352D01*
X356852Y339352D01*
X354704Y341499D01*
Y353501D01*
X355327Y354124D01*
X355768Y353889D01*
X355592Y353000D01*
X355775Y352078D01*
X356297Y351297D01*
X357078Y350775D01*
X357818Y350628D01*
X360223Y348223D01*
X360809Y347831D01*
X361500Y347694D01*
X366452D01*
X367078Y347275D01*
X368000Y347092D01*
X368922Y347275D01*
X369703Y347797D01*
X370225Y348578D01*
X370347Y349194D01*
X374952D01*
X375578Y348775D01*
X376318Y348628D01*
X382694Y342252D01*
Y333330D01*
X382215Y333185D01*
X382203Y333203D01*
X381422Y333725D01*
X380500Y333909D01*
X379578Y333725D01*
X378797Y333203D01*
X378275Y332422D01*
X378092Y331500D01*
X378275Y330578D01*
X378797Y329797D01*
X379578Y329275D01*
X380500Y329092D01*
X381422Y329275D01*
X382203Y329797D01*
X382215Y329815D01*
X382694Y329670D01*
Y325248D01*
X373318Y315872D01*
X372578Y315725D01*
X371797Y315203D01*
X371275Y314422D01*
X371092Y313500D01*
X371275Y312578D01*
X371797Y311797D01*
X372578Y311275D01*
X373500Y311091D01*
X374422Y311275D01*
X375203Y311797D01*
X375725Y312578D01*
X375872Y313318D01*
X385777Y323223D01*
X386169Y323809D01*
X386306Y324500D01*
Y343000D01*
X386306Y343000D01*
X386306Y343000D01*
Y343000D01*
X386306D01*
X386306Y343000D01*
X386169Y343691D01*
X385777Y344277D01*
X381323Y348732D01*
X381514Y349194D01*
X384000D01*
X384691Y349331D01*
X385277Y349723D01*
X386182Y350628D01*
X386922Y350775D01*
X387703Y351297D01*
X388225Y352078D01*
X388386Y352885D01*
X388669Y353309D01*
X388806Y354000D01*
Y368670D01*
X389285Y368815D01*
X389297Y368797D01*
X390078Y368275D01*
X391000Y368092D01*
X391922Y368275D01*
X392703Y368797D01*
X393225Y369578D01*
X393408Y370500D01*
X393225Y371422D01*
X392703Y372203D01*
X391922Y372725D01*
X391000Y372908D01*
X390550Y372819D01*
X390315Y373260D01*
X391277Y374223D01*
X391627Y374746D01*
X391703Y374797D01*
X392225Y375578D01*
X392408Y376500D01*
X392225Y377422D01*
X391806Y378048D01*
Y386500D01*
X391669Y387191D01*
X391277Y387777D01*
X386927Y392127D01*
X387072Y392606D01*
X387922Y392775D01*
X388703Y393297D01*
X389225Y394078D01*
X389408Y395000D01*
X389291Y395588D01*
X389999Y396296D01*
X391329D01*
X391564Y395855D01*
X391275Y395422D01*
X391091Y394500D01*
X391275Y393578D01*
X391797Y392797D01*
X392578Y392275D01*
X393500Y392091D01*
X394422Y392275D01*
X395203Y392797D01*
X395725Y393578D01*
X395908Y394500D01*
X395725Y395422D01*
X395436Y395855D01*
X395672Y396296D01*
X399001D01*
X400000Y395297D01*
D02*
G37*
%LPC*%
G36*
X375500Y292909D02*
X374578Y292725D01*
X373797Y292203D01*
X373275Y291422D01*
X373092Y290500D01*
X373275Y289578D01*
X373797Y288797D01*
X374578Y288275D01*
X375500Y288091D01*
X376422Y288275D01*
X377203Y288797D01*
X377725Y289578D01*
X377908Y290500D01*
X377725Y291422D01*
X377203Y292203D01*
X376422Y292725D01*
X375500Y292909D01*
D02*
G37*
G36*
X469500Y285909D02*
X468578Y285725D01*
X467797Y285203D01*
X467275Y284422D01*
X467092Y283500D01*
X467275Y282578D01*
X467797Y281797D01*
X468578Y281275D01*
X469500Y281091D01*
X470422Y281275D01*
X471203Y281797D01*
X471725Y282578D01*
X471909Y283500D01*
X471725Y284422D01*
X471203Y285203D01*
X470422Y285725D01*
X469500Y285909D01*
D02*
G37*
G36*
X455000Y312408D02*
X454078Y312225D01*
X453297Y311703D01*
X452775Y310922D01*
X452592Y310000D01*
X452775Y309078D01*
X453297Y308297D01*
X454078Y307775D01*
X454818Y307628D01*
X460194Y302252D01*
Y279830D01*
X459715Y279685D01*
X459703Y279703D01*
X458922Y280225D01*
X458000Y280409D01*
X457078Y280225D01*
X456297Y279703D01*
X455775Y278922D01*
X455591Y278000D01*
X455775Y277078D01*
X456297Y276297D01*
X457078Y275775D01*
X458000Y275591D01*
X458922Y275775D01*
X459703Y276297D01*
X459715Y276315D01*
X460194Y276170D01*
Y271748D01*
X448752Y260306D01*
X425082D01*
X424937Y260785D01*
X425703Y261297D01*
X426225Y262078D01*
X426408Y263000D01*
X426225Y263922D01*
X425703Y264703D01*
X424922Y265225D01*
X424000Y265408D01*
X423078Y265225D01*
X422297Y264703D01*
X421775Y263922D01*
X421592Y263000D01*
X421775Y262078D01*
X422297Y261297D01*
X423063Y260785D01*
X422918Y260306D01*
X421248D01*
X416277Y265277D01*
X415691Y265669D01*
X415000Y265806D01*
X405048D01*
X404422Y266225D01*
X403500Y266408D01*
X402578Y266225D01*
X401797Y265703D01*
X401275Y264922D01*
X401091Y264000D01*
X401275Y263078D01*
X401797Y262297D01*
X402578Y261775D01*
X403500Y261592D01*
X404422Y261775D01*
X405048Y262194D01*
X414252D01*
X419223Y257223D01*
X419223Y257223D01*
X419223D01*
X419223Y257223D01*
X419223D01*
X419223Y257223D01*
Y257223D01*
Y257223D01*
D01*
D01*
X419223D01*
Y257223D01*
X419809Y256831D01*
X420500Y256694D01*
X449500D01*
X450191Y256831D01*
X450777Y257223D01*
X463277Y269723D01*
X463669Y270309D01*
X463806Y271000D01*
X463806Y271000D01*
X463806Y271000D01*
Y271000D01*
Y303000D01*
X463669Y303691D01*
X463277Y304277D01*
X457372Y310182D01*
X457225Y310922D01*
X456703Y311703D01*
X455922Y312225D01*
X455000Y312408D01*
D02*
G37*
G36*
X427000Y293909D02*
X426078Y293725D01*
X425297Y293203D01*
X424775Y292422D01*
X424591Y291500D01*
X424775Y290578D01*
X425297Y289797D01*
X426078Y289275D01*
X427000Y289091D01*
X427922Y289275D01*
X428703Y289797D01*
X429163Y290485D01*
X429625Y290294D01*
X429560Y289968D01*
X429743Y289047D01*
X430266Y288265D01*
X431047Y287743D01*
X431968Y287560D01*
X432890Y287743D01*
X433672Y288265D01*
X434194Y289047D01*
X434377Y289968D01*
X434194Y290890D01*
X433672Y291672D01*
X432890Y292194D01*
X431968Y292377D01*
X431047Y292194D01*
X430266Y291672D01*
X429806Y290984D01*
X429344Y291175D01*
X429409Y291500D01*
X429225Y292422D01*
X428703Y293203D01*
X427922Y293725D01*
X427000Y293909D01*
D02*
G37*
G36*
X387500Y286408D02*
X386578Y286225D01*
X385797Y285703D01*
X385275Y284922D01*
X385091Y284000D01*
X385275Y283078D01*
X385797Y282297D01*
X386578Y281775D01*
X387500Y281592D01*
X388422Y281775D01*
X389203Y282297D01*
X389725Y283078D01*
X389909Y284000D01*
X389725Y284922D01*
X389203Y285703D01*
X388422Y286225D01*
X387500Y286408D01*
D02*
G37*
G36*
X408500Y302409D02*
X407578Y302225D01*
X406797Y301703D01*
X406275Y300922D01*
X406091Y300000D01*
X406275Y299078D01*
X406797Y298297D01*
X407578Y297775D01*
X408500Y297591D01*
X409422Y297775D01*
X410203Y298297D01*
X410725Y299078D01*
X410909Y300000D01*
X410725Y300922D01*
X410203Y301703D01*
X409422Y302225D01*
X408500Y302409D01*
D02*
G37*
G36*
X371000Y302908D02*
X370078Y302725D01*
X369297Y302203D01*
X368775Y301422D01*
X368591Y300500D01*
X368775Y299578D01*
X369297Y298797D01*
X370078Y298275D01*
X371000Y298092D01*
X371922Y298275D01*
X372703Y298797D01*
X373225Y299578D01*
X373409Y300500D01*
X373225Y301422D01*
X372703Y302203D01*
X371922Y302725D01*
X371000Y302908D01*
D02*
G37*
G36*
X362000Y303409D02*
X361078Y303225D01*
X360297Y302703D01*
X359775Y301922D01*
X359592Y301000D01*
X359775Y300078D01*
X360297Y299297D01*
X361078Y298775D01*
X362000Y298591D01*
X362922Y298775D01*
X363703Y299297D01*
X364225Y300078D01*
X364408Y301000D01*
X364225Y301922D01*
X363703Y302703D01*
X362922Y303225D01*
X362000Y303409D01*
D02*
G37*
G36*
X491000Y291408D02*
X490078Y291225D01*
X489297Y290703D01*
X488775Y289922D01*
X488591Y289000D01*
X488734Y288283D01*
X488272Y288092D01*
X488187Y288219D01*
X487406Y288741D01*
X486484Y288924D01*
X485563Y288741D01*
X484781Y288219D01*
X484259Y287437D01*
X484076Y286516D01*
X484259Y285594D01*
X484781Y284813D01*
X485563Y284291D01*
X486484Y284107D01*
X487406Y284291D01*
X488187Y284813D01*
X488709Y285594D01*
X488893Y286516D01*
X488750Y287233D01*
X489212Y287424D01*
X489297Y287297D01*
X490078Y286775D01*
X491000Y286592D01*
X491922Y286775D01*
X492703Y287297D01*
X493225Y288078D01*
X493408Y289000D01*
X493225Y289922D01*
X492703Y290703D01*
X491922Y291225D01*
X491000Y291408D01*
D02*
G37*
G36*
X487500Y295908D02*
X486578Y295725D01*
X485797Y295203D01*
X485275Y294422D01*
X485091Y293500D01*
X485275Y292578D01*
X485797Y291797D01*
X486578Y291275D01*
X487500Y291091D01*
X488422Y291275D01*
X489203Y291797D01*
X489725Y292578D01*
X489909Y293500D01*
X489725Y294422D01*
X489203Y295203D01*
X488422Y295725D01*
X487500Y295908D01*
D02*
G37*
G36*
X387000Y298908D02*
X386078Y298725D01*
X385297Y298203D01*
X384775Y297422D01*
X384592Y296500D01*
X384775Y295578D01*
X385297Y294797D01*
X386078Y294275D01*
X387000Y294092D01*
X387922Y294275D01*
X388703Y294797D01*
X389225Y295578D01*
X389408Y296500D01*
X389225Y297422D01*
X388703Y298203D01*
X387922Y298725D01*
X387000Y298908D01*
D02*
G37*
G36*
X430500Y277409D02*
X429578Y277225D01*
X428797Y276703D01*
X428275Y275922D01*
X428091Y275000D01*
X428275Y274078D01*
X428797Y273297D01*
X429578Y272775D01*
X430500Y272591D01*
X431422Y272775D01*
X432203Y273297D01*
X432725Y274078D01*
X432908Y275000D01*
X432725Y275922D01*
X432203Y276703D01*
X431422Y277225D01*
X430500Y277409D01*
D02*
G37*
G36*
X487862Y275627D02*
X487048Y275465D01*
X486358Y275004D01*
X485897Y274314D01*
X485750Y273577D01*
X485250D01*
X485103Y274314D01*
X484642Y275004D01*
X483952Y275465D01*
X483138Y275627D01*
X482324Y275465D01*
X481633Y275004D01*
X481172Y274314D01*
X481010Y273500D01*
X481172Y272686D01*
X481633Y271996D01*
X482324Y271534D01*
X483138Y271373D01*
X483952Y271534D01*
X484642Y271996D01*
X485103Y272686D01*
X485250Y273423D01*
X485750D01*
X485897Y272686D01*
X486358Y271996D01*
X487048Y271534D01*
X487862Y271373D01*
X488676Y271534D01*
X489367Y271996D01*
X489828Y272686D01*
X489990Y273500D01*
X489828Y274314D01*
X489367Y275004D01*
X488676Y275465D01*
X487862Y275627D01*
D02*
G37*
G36*
X500500Y269408D02*
X499578Y269225D01*
X498797Y268703D01*
X498275Y267922D01*
X498092Y267000D01*
X498275Y266078D01*
X498797Y265297D01*
X499578Y264775D01*
X500500Y264592D01*
X501422Y264775D01*
X502203Y265297D01*
X502725Y266078D01*
X502909Y267000D01*
X502725Y267922D01*
X502203Y268703D01*
X501422Y269225D01*
X500500Y269408D01*
D02*
G37*
G36*
X409500Y249908D02*
X408578Y249725D01*
X407797Y249203D01*
X407275Y248422D01*
X407092Y247500D01*
X407275Y246578D01*
X407797Y245797D01*
X408578Y245275D01*
X409500Y245092D01*
X410422Y245275D01*
X411203Y245797D01*
X411725Y246578D01*
X411908Y247500D01*
X411725Y248422D01*
X411203Y249203D01*
X410422Y249725D01*
X409500Y249908D01*
D02*
G37*
G36*
X358000Y268909D02*
X357078Y268725D01*
X356297Y268203D01*
X355775Y267422D01*
X355592Y266500D01*
X355775Y265578D01*
X356297Y264797D01*
X357078Y264275D01*
X358000Y264091D01*
X358922Y264275D01*
X359703Y264797D01*
X360225Y265578D01*
X360408Y266500D01*
X360225Y267422D01*
X359703Y268203D01*
X358922Y268725D01*
X358000Y268909D01*
D02*
G37*
G36*
X451500Y278409D02*
X450578Y278225D01*
X449797Y277703D01*
X449275Y276922D01*
X449091Y276000D01*
X449275Y275078D01*
X449797Y274297D01*
X450578Y273775D01*
X451500Y273591D01*
X452422Y273775D01*
X453203Y274297D01*
X453725Y275078D01*
X453908Y276000D01*
X453725Y276922D01*
X453203Y277703D01*
X452422Y278225D01*
X451500Y278409D01*
D02*
G37*
G36*
X442500Y294908D02*
X441578Y294725D01*
X440797Y294203D01*
X440275Y293422D01*
X440092Y292500D01*
X440275Y291578D01*
X440797Y290797D01*
X441578Y290275D01*
X442500Y290091D01*
X442501Y290092D01*
X442758Y289663D01*
X442408Y289236D01*
X441787Y288074D01*
X441404Y286812D01*
X441275Y285500D01*
X441404Y284188D01*
X441787Y282926D01*
X442408Y281764D01*
X443245Y280745D01*
X444264Y279908D01*
X445426Y279287D01*
X446688Y278904D01*
X448000Y278775D01*
X449312Y278904D01*
X450574Y279287D01*
X451736Y279908D01*
X452755Y280745D01*
X453592Y281764D01*
X454213Y282926D01*
X454596Y284188D01*
X454725Y285500D01*
X454596Y286812D01*
X454213Y288074D01*
X453592Y289236D01*
X452755Y290255D01*
X451736Y291092D01*
X450574Y291713D01*
X449312Y292096D01*
X448000Y292225D01*
X446688Y292096D01*
X445426Y291713D01*
X445188Y291586D01*
X444786Y291883D01*
X444909Y292500D01*
X444725Y293422D01*
X444203Y294203D01*
X443422Y294725D01*
X442500Y294908D01*
D02*
G37*
G36*
X416000Y284408D02*
X415078Y284225D01*
X414297Y283703D01*
X413775Y282922D01*
X413591Y282000D01*
X413775Y281078D01*
X414297Y280297D01*
X415078Y279775D01*
X416000Y279591D01*
X416922Y279775D01*
X417703Y280297D01*
X418225Y281078D01*
X418408Y282000D01*
X418225Y282922D01*
X417703Y283703D01*
X416922Y284225D01*
X416000Y284408D01*
D02*
G37*
G36*
X500500Y280409D02*
X499578Y280225D01*
X498797Y279703D01*
X498275Y278922D01*
X498092Y278000D01*
X498275Y277078D01*
X498797Y276297D01*
X499578Y275775D01*
X500500Y275591D01*
X501422Y275775D01*
X502203Y276297D01*
X502725Y277078D01*
X502909Y278000D01*
X502725Y278922D01*
X502203Y279703D01*
X501422Y280225D01*
X500500Y280409D01*
D02*
G37*
G36*
X408000Y279409D02*
X407078Y279225D01*
X406297Y278703D01*
X405775Y277922D01*
X405591Y277000D01*
X405775Y276078D01*
X406297Y275297D01*
X407078Y274775D01*
X408000Y274591D01*
X408922Y274775D01*
X409703Y275297D01*
X410225Y276078D01*
X410408Y277000D01*
X410225Y277922D01*
X409703Y278703D01*
X408922Y279225D01*
X408000Y279409D01*
D02*
G37*
G36*
X392500Y279908D02*
X391578Y279725D01*
X390797Y279203D01*
X390275Y278422D01*
X390091Y277500D01*
X390275Y276578D01*
X390797Y275797D01*
X391578Y275275D01*
X392500Y275092D01*
X393422Y275275D01*
X394203Y275797D01*
X394725Y276578D01*
X394908Y277500D01*
X394725Y278422D01*
X394203Y279203D01*
X393422Y279725D01*
X392500Y279908D01*
D02*
G37*
G36*
X373000Y325908D02*
X372078Y325725D01*
X371297Y325203D01*
X370775Y324422D01*
X370591Y323500D01*
X370775Y322578D01*
X371297Y321797D01*
X372078Y321275D01*
X373000Y321092D01*
X373922Y321275D01*
X374703Y321797D01*
X375225Y322578D01*
X375409Y323500D01*
X375225Y324422D01*
X374703Y325203D01*
X373922Y325725D01*
X373000Y325908D01*
D02*
G37*
G36*
X366000Y336408D02*
X365078Y336225D01*
X364297Y335703D01*
X363775Y334922D01*
X363592Y334000D01*
X363775Y333078D01*
X364297Y332297D01*
X365078Y331775D01*
X366000Y331592D01*
X366922Y331775D01*
X367703Y332297D01*
X368225Y333078D01*
X368408Y334000D01*
X368225Y334922D01*
X367703Y335703D01*
X366922Y336225D01*
X366000Y336408D01*
D02*
G37*
G36*
X363500Y322908D02*
X362578Y322725D01*
X361797Y322203D01*
X361275Y321422D01*
X361091Y320500D01*
X361154Y320184D01*
X361000Y319408D01*
X360078Y319225D01*
X359297Y318703D01*
X358775Y317922D01*
X358592Y317000D01*
X358775Y316078D01*
X359297Y315297D01*
X360078Y314775D01*
X361000Y314592D01*
X361922Y314775D01*
X362703Y315297D01*
X363225Y316078D01*
X363408Y317000D01*
X363346Y317316D01*
X363500Y318092D01*
X364422Y318275D01*
X365203Y318797D01*
X365725Y319578D01*
X365909Y320500D01*
X365725Y321422D01*
X365203Y322203D01*
X364422Y322725D01*
X363500Y322908D01*
D02*
G37*
G36*
X421500Y313000D02*
X419691D01*
X419775Y312578D01*
X420297Y311797D01*
X421078Y311275D01*
X421500Y311191D01*
Y313000D01*
D02*
G37*
G36*
X424309D02*
X422500D01*
Y311191D01*
X422922Y311275D01*
X423703Y311797D01*
X424225Y312578D01*
X424309Y313000D01*
D02*
G37*
G36*
X364000Y400909D02*
X363078Y400725D01*
X362297Y400203D01*
X361775Y399422D01*
X361750Y399297D01*
X361250D01*
X361225Y399422D01*
X360703Y400203D01*
X359922Y400725D01*
X359000Y400909D01*
X358078Y400725D01*
X357297Y400203D01*
X356775Y399422D01*
X356592Y398500D01*
X356775Y397578D01*
X357297Y396797D01*
X358078Y396275D01*
X359000Y396092D01*
X359922Y396275D01*
X360703Y396797D01*
X361225Y397578D01*
X361250Y397703D01*
X361750D01*
X361775Y397578D01*
X362297Y396797D01*
X363078Y396275D01*
X364000Y396092D01*
X364922Y396275D01*
X365703Y396797D01*
X366225Y397578D01*
X366408Y398500D01*
X366225Y399422D01*
X365703Y400203D01*
X364922Y400725D01*
X364000Y400909D01*
D02*
G37*
G36*
X345000Y416309D02*
X344578Y416225D01*
X343797Y415703D01*
X343275Y414922D01*
X343191Y414500D01*
X345000D01*
Y416309D01*
D02*
G37*
G36*
X346000D02*
Y414500D01*
X347809D01*
X347725Y414922D01*
X347203Y415703D01*
X346422Y416225D01*
X346000Y416309D01*
D02*
G37*
G36*
X347809Y413500D02*
X346000D01*
Y411691D01*
X346422Y411775D01*
X347203Y412297D01*
X347725Y413078D01*
X347809Y413500D01*
D02*
G37*
G36*
X373500Y414909D02*
X372578Y414725D01*
X371797Y414203D01*
X371275Y413422D01*
X371092Y412500D01*
X371275Y411578D01*
X371797Y410797D01*
X372578Y410275D01*
X373500Y410091D01*
X374422Y410275D01*
X375203Y410797D01*
X375725Y411578D01*
X375908Y412500D01*
X375725Y413422D01*
X375203Y414203D01*
X374422Y414725D01*
X373500Y414909D01*
D02*
G37*
G36*
X345000Y413500D02*
X343191D01*
X343275Y413078D01*
X343797Y412297D01*
X344578Y411775D01*
X345000Y411691D01*
Y413500D01*
D02*
G37*
G36*
X349000Y305908D02*
X348078Y305725D01*
X347297Y305203D01*
X346775Y304422D01*
X346591Y303500D01*
X346775Y302578D01*
X347297Y301797D01*
X348078Y301275D01*
X349000Y301092D01*
X349922Y301275D01*
X350703Y301797D01*
X351225Y302578D01*
X351409Y303500D01*
X351225Y304422D01*
X350703Y305203D01*
X349922Y305725D01*
X349000Y305908D01*
D02*
G37*
G36*
X382500Y306908D02*
X381578Y306725D01*
X380797Y306203D01*
X380275Y305422D01*
X380092Y304500D01*
X380275Y303578D01*
X380797Y302797D01*
X381578Y302275D01*
X382500Y302092D01*
X383422Y302275D01*
X384203Y302797D01*
X384709Y303554D01*
X385200Y303457D01*
X385275Y303078D01*
X385797Y302297D01*
X386578Y301775D01*
X387500Y301591D01*
X388422Y301775D01*
X389203Y302297D01*
X389725Y303078D01*
X389909Y304000D01*
X389725Y304922D01*
X389203Y305703D01*
X388422Y306225D01*
X387500Y306409D01*
X386578Y306225D01*
X385797Y305703D01*
X385291Y304946D01*
X384800Y305043D01*
X384725Y305422D01*
X384203Y306203D01*
X383422Y306725D01*
X382500Y306908D01*
D02*
G37*
G36*
X395809Y302000D02*
X394000D01*
Y300191D01*
X394422Y300275D01*
X395203Y300797D01*
X395725Y301578D01*
X395809Y302000D01*
D02*
G37*
G36*
X434500Y303409D02*
X433578Y303225D01*
X432797Y302703D01*
X432275Y301922D01*
X432092Y301000D01*
X432275Y300078D01*
X432797Y299297D01*
X433578Y298775D01*
X434500Y298591D01*
X435422Y298775D01*
X436203Y299297D01*
X436725Y300078D01*
X436908Y301000D01*
X436725Y301922D01*
X436203Y302703D01*
X435422Y303225D01*
X434500Y303409D01*
D02*
G37*
G36*
X393000Y302000D02*
X391191D01*
X391275Y301578D01*
X391797Y300797D01*
X392578Y300275D01*
X393000Y300191D01*
Y302000D01*
D02*
G37*
G36*
Y304809D02*
X392578Y304725D01*
X391797Y304203D01*
X391275Y303422D01*
X391191Y303000D01*
X393000D01*
Y304809D01*
D02*
G37*
G36*
X477500Y312909D02*
X476578Y312725D01*
X475797Y312203D01*
X475275Y311422D01*
X475092Y310500D01*
X475275Y309578D01*
X475797Y308797D01*
X476578Y308275D01*
X477500Y308091D01*
X478422Y308275D01*
X479203Y308797D01*
X479725Y309578D01*
X479909Y310500D01*
X479725Y311422D01*
X479203Y312203D01*
X478422Y312725D01*
X477500Y312909D01*
D02*
G37*
G36*
X442000Y314408D02*
X441078Y314225D01*
X440297Y313703D01*
X439775Y312922D01*
X439592Y312000D01*
X439775Y311078D01*
X440297Y310297D01*
X441078Y309775D01*
X442000Y309592D01*
X442922Y309775D01*
X443703Y310297D01*
X444225Y311078D01*
X444409Y312000D01*
X444225Y312922D01*
X443703Y313703D01*
X442922Y314225D01*
X442000Y314408D01*
D02*
G37*
G36*
X349500Y312909D02*
X348578Y312725D01*
X347797Y312203D01*
X347275Y311422D01*
X347092Y310500D01*
X347275Y309578D01*
X347797Y308797D01*
X348578Y308275D01*
X349500Y308091D01*
X350422Y308275D01*
X351203Y308797D01*
X351725Y309578D01*
X351908Y310500D01*
X351725Y311422D01*
X351203Y312203D01*
X350422Y312725D01*
X349500Y312909D01*
D02*
G37*
G36*
X394000Y304809D02*
Y303000D01*
X395809D01*
X395725Y303422D01*
X395203Y304203D01*
X394422Y304725D01*
X394000Y304809D01*
D02*
G37*
G36*
X429500Y311408D02*
X428578Y311225D01*
X427797Y310703D01*
X427275Y309922D01*
X427092Y309000D01*
X427275Y308078D01*
X427797Y307297D01*
X428578Y306775D01*
X429500Y306592D01*
X430422Y306775D01*
X431203Y307297D01*
X431725Y308078D01*
X431909Y309000D01*
X431725Y309922D01*
X431203Y310703D01*
X430422Y311225D01*
X429500Y311408D01*
D02*
G37*
%LPD*%
D24*
X430000Y316500D02*
X438500Y308000D01*
X407500Y316500D02*
X430000D01*
X381968Y380469D02*
Y386469D01*
X374362Y372862D02*
X381968Y380469D01*
X374362Y368862D02*
Y372862D01*
X361000Y270000D02*
X424000D01*
X354425Y276575D02*
X361000Y270000D01*
X354425Y276575D02*
Y336075D01*
X356000Y292000D02*
Y338500D01*
Y292000D02*
X357000Y291000D01*
X351925Y338575D02*
X354425Y336075D01*
X351925Y338575D02*
Y356075D01*
X353500Y341000D02*
X356000Y338500D01*
X353500Y341000D02*
Y354000D01*
X349000Y359000D02*
X351925Y356075D01*
X346000Y359000D02*
X349000D01*
X357000Y291000D02*
X361000D01*
X353500Y354000D02*
X355500Y356000D01*
Y368897D01*
X351897Y372500D02*
X355500Y368897D01*
X351500Y372500D02*
X351897D01*
X392000Y314000D02*
X395500Y317500D01*
Y335500D01*
X399244Y339244D01*
Y366641D01*
X399256Y366653D01*
Y374244D01*
X396000Y377500D02*
X399256Y374244D01*
X405000Y319000D02*
X407500Y316500D01*
X405000Y319000D02*
Y392000D01*
X390000Y375500D02*
Y376500D01*
X343244Y400244D02*
X359000Y416000D01*
X343244Y379800D02*
Y400244D01*
Y379800D02*
X350544Y372500D01*
X351500D01*
X387000Y395000D02*
X389500Y397500D01*
X399500D01*
X405000Y392000D01*
D26*
X350500Y327000D02*
Y332000D01*
X346000Y322500D02*
X350500Y327000D01*
X373500Y313500D02*
X384500Y324500D01*
X455000Y310000D02*
X462000Y303000D01*
Y271000D02*
Y303000D01*
X449500Y258500D02*
X462000Y271000D01*
X420500Y258500D02*
X449500D01*
X415000Y264000D02*
X420500Y258500D01*
X403500Y264000D02*
X415000D01*
X387000Y372500D02*
X390000Y375500D01*
X387000Y354000D02*
Y372500D01*
X386000Y353000D02*
X387000Y354000D01*
X368000Y349500D02*
X369500Y351000D01*
X376500D01*
X384500Y324500D02*
Y343000D01*
X376500Y351000D02*
X384500Y343000D01*
X358000Y353000D02*
X361500Y349500D01*
X368000D01*
X376500Y351000D02*
X384000D01*
X386000Y353000D01*
X390000Y376500D02*
Y386500D01*
X385500Y391000D02*
X390000Y386500D01*
X362500Y391000D02*
X385500D01*
X358000Y386500D02*
X362500Y391000D01*
X358000Y381500D02*
Y386500D01*
D27*
X396500Y290500D02*
X399256Y293256D01*
Y331500D01*
D28*
X468500Y264000D02*
X481000Y251500D01*
X500500Y256500D02*
Y257000D01*
X498500Y254500D02*
X500500Y256500D01*
X484000Y254500D02*
X498500D01*
X481000Y251500D02*
X484000Y254500D01*
X481000Y246500D02*
Y251500D01*
D46*
X374362Y368862D02*
D03*
D47*
X346000Y322500D02*
D03*
X396500Y290500D02*
D03*
X393500Y302500D02*
D03*
X361000Y291000D02*
D03*
X392000Y314000D02*
D03*
X455000Y310000D02*
D03*
X438500Y308000D02*
D03*
X403500Y264000D02*
D03*
X373500Y313500D02*
D03*
X422000D02*
D03*
X399256Y331500D02*
D03*
X396000Y377500D02*
D03*
X387000Y395000D02*
D03*
X468500Y264000D02*
D03*
X500500Y257000D02*
D03*
X481000Y246500D02*
D03*
X390000Y376500D02*
D03*
X381968Y386469D02*
D03*
X350500Y332000D02*
D03*
X386000Y353000D02*
D03*
X368000Y349500D02*
D03*
X376500Y351000D02*
D03*
X345500Y414000D02*
D03*
X359000Y416000D02*
D03*
X358000Y381500D02*
D03*
X351500Y372500D02*
D03*
X346000Y359000D02*
D03*
X358000Y353000D02*
D03*
X424000Y270000D02*
D03*
M02*
