%FSLAX25Y25*%
%MOIN*%
G70*
G01*
G75*
G04 Layer_Color=32896*
%ADD10R,0.01378X0.05512*%
%ADD11R,0.17716X0.12992*%
%ADD12R,0.07874X0.07087*%
%ADD13O,0.00787X0.02362*%
%ADD14O,0.01772X0.04528*%
%ADD15R,0.03740X0.02362*%
%ADD16R,0.04528X0.02362*%
%ADD17O,0.06299X0.01772*%
%ADD18R,0.05118X0.07480*%
%ADD19O,0.07087X0.02362*%
%ADD20O,0.02362X0.07284*%
%ADD21O,0.07284X0.02362*%
%ADD22R,0.03543X0.02953*%
%ADD23R,0.04331X0.11221*%
%ADD24R,0.22244X0.20866*%
%ADD25R,0.08268X0.08071*%
%ADD26R,0.14488X0.05000*%
%ADD27O,0.05512X0.08465*%
%ADD28R,0.05906X0.07874*%
%ADD29R,0.03543X0.03347*%
%ADD30R,0.05118X0.03937*%
%ADD31O,0.05512X0.01772*%
%ADD32O,0.05118X0.01772*%
%ADD33R,0.03150X0.06496*%
%ADD34R,0.03543X0.03150*%
%ADD35R,0.01969X0.02362*%
%ADD36R,0.03937X0.05118*%
%ADD37R,0.03150X0.03543*%
%ADD38R,0.02362X0.04528*%
%ADD39R,0.03347X0.03543*%
%ADD40R,0.02953X0.03543*%
%ADD41R,0.06496X0.03150*%
%ADD42R,0.07874X0.05906*%
%ADD43R,0.05512X0.01378*%
%ADD44R,0.12992X0.17716*%
%ADD45O,0.01772X0.05118*%
%ADD46C,0.03937*%
%ADD47C,0.01000*%
%ADD48C,0.00787*%
%ADD49C,0.02953*%
%ADD50C,0.03937*%
%ADD51C,0.01969*%
%ADD52C,0.04331*%
%ADD53C,0.02000*%
%ADD54C,0.07874*%
%ADD55C,0.08661*%
%ADD56C,0.06299*%
%ADD57C,0.05906*%
%ADD58C,0.01181*%
%ADD59C,0.11811*%
%ADD60C,0.02756*%
%ADD61C,0.01575*%
%ADD62C,0.05906*%
%ADD63C,0.06299*%
%ADD64C,0.06000*%
%ADD65C,0.11811*%
%ADD66C,0.07874*%
%ADD67R,0.05906X0.05906*%
%ADD68R,0.05906X0.05906*%
%ADD69O,0.04331X0.04724*%
%ADD70P,0.08097X8X292.5*%
%ADD71C,0.07480*%
%ADD72C,0.05512*%
%ADD73R,0.05512X0.09843*%
%ADD74O,0.05512X0.09843*%
%ADD75C,0.08661*%
%ADD76R,0.09843X0.05512*%
%ADD77O,0.09843X0.05512*%
%ADD78C,0.02598*%
%ADD79C,0.03150*%
%ADD80C,0.05000*%
%ADD81R,0.09843X0.14961*%
%ADD82R,0.03347X0.02559*%
%ADD83R,0.06496X0.04921*%
%ADD84R,0.05000X0.14488*%
%ADD85R,0.43307X0.31102*%
%ADD86R,0.04331X0.11417*%
%ADD87R,0.08858X0.09449*%
%ADD88R,0.08858X0.11417*%
%ADD89R,0.06890X0.08268*%
%ADD90R,0.06890X0.07087*%
%ADD91R,0.06890X0.11417*%
%ADD92R,0.14961X0.09843*%
%ADD93R,0.04921X0.06496*%
%ADD94C,0.09843*%
%ADD95C,0.11417*%
%ADD96C,0.04724*%
%ADD97C,0.00984*%
%ADD98C,0.02362*%
%ADD99C,0.00800*%
%ADD100C,0.11811*%
%ADD101C,0.00709*%
D47*
X1811276Y1432350D02*
G03*
X1811276Y1432350I-45276J0D01*
G01*
X1645213Y1569591D02*
Y1574709D01*
Y1574709D02*
X1671591D01*
Y1569591D02*
Y1574709D01*
X1630547Y1388980D02*
Y1565555D01*
X1686453Y1388980D02*
Y1565555D01*
X1658500Y1388980D02*
X1686453D01*
X1630547D02*
X1658500D01*
X1630547Y1565555D02*
X1658500D01*
X1686453D01*
X1658402Y1569591D02*
X1671591D01*
Y1565654D02*
Y1569591D01*
X1645213Y1565654D02*
Y1569591D01*
X1658402D01*
X1550039Y1419941D02*
Y1429980D01*
Y1410000D02*
Y1420039D01*
Y1410000D02*
Y1415020D01*
X1515000Y1396122D02*
X1549842D01*
X1549941D02*
Y1402520D01*
Y1448779D01*
X1515000Y1448878D02*
X1549941D01*
X1484488D02*
X1515000D01*
X1484488Y1442480D02*
Y1448878D01*
Y1396122D02*
Y1442480D01*
Y1396122D02*
X1515000D01*
X2280996Y2165890D02*
X2329500D01*
X2378004D01*
X2280996Y2226913D02*
X2329500D01*
X2378004D01*
X2280996Y2165890D02*
Y2226913D01*
X2378004Y2165890D02*
Y2226913D01*
X2635858Y2186634D02*
X2652000D01*
X2635858Y2178858D02*
Y2186634D01*
X2652000D02*
X2666468D01*
Y2178858D02*
Y2186634D01*
Y2153366D02*
Y2178858D01*
X2652000Y2153366D02*
X2666468D01*
X2635858D02*
Y2178858D01*
Y2153366D02*
X2652000D01*
X1754189Y1494949D02*
X1777811D01*
X1777811Y1476051D02*
Y1494949D01*
X1754189Y1476051D02*
Y1494949D01*
X2447496Y1940028D02*
X2498874D01*
Y1956169D01*
X2447594D02*
X2498874D01*
X2447496Y1956071D02*
X2447594Y1956169D01*
X2447496Y1940028D02*
Y1956071D01*
X2596028Y1712004D02*
X2612071D01*
X2612169Y1711905D01*
Y1660626D02*
Y1711905D01*
X2596028Y1660626D02*
X2612169D01*
X2596028D02*
Y1712004D01*
X1984815Y1576106D02*
Y1593429D01*
X1947315Y1576598D02*
Y1588016D01*
X1947315Y1588016D02*
X1947315Y1588016D01*
Y1601008D01*
Y1588016D02*
Y1601008D01*
Y1568528D02*
Y1601008D01*
Y1618134D01*
X1947413D02*
X1967000D01*
X1947413Y1568528D02*
X1967000D01*
X1984815D01*
Y1601008D01*
Y1618134D01*
X1967000D02*
X1984716D01*
X2618350Y1797236D02*
X2618390Y1797276D01*
X2665634D01*
Y1737079D02*
Y1797276D01*
X2618350Y1736803D02*
Y1797236D01*
Y1736803D02*
X2665358D01*
X2665634Y1737079D01*
X2234567Y2256213D02*
X2275472D01*
X2234567Y2208969D02*
X2275472D01*
Y2256291D02*
X2275512Y2256252D01*
Y2208929D02*
Y2256252D01*
X2234567Y2208969D02*
Y2256213D01*
Y2208969D02*
X2234606Y2208929D01*
X2618350Y1816618D02*
Y2016736D01*
Y1816618D02*
X2618429Y1816539D01*
X2665555D01*
X2665634Y1816618D01*
Y2016776D01*
X2618390D02*
X2665634D01*
X2618350Y2016736D02*
X2618390Y2016776D01*
X2595028Y1743626D02*
Y1795004D01*
Y1743626D02*
X2611169D01*
Y1794905D01*
X2611071Y1795004D02*
X2611169Y1794905D01*
X2595028Y1795004D02*
X2611071D01*
X2446496Y2014528D02*
Y2030571D01*
X2446594Y2030669D01*
X2497874D01*
Y2014528D02*
Y2030669D01*
X2446496Y2014528D02*
X2497874D01*
X1739004Y1808929D02*
Y1824972D01*
X1738906Y1808831D02*
X1739004Y1808929D01*
X1687626Y1808831D02*
X1738906D01*
X1687626D02*
Y1824972D01*
X1739004D01*
X2596028Y1387126D02*
Y1438504D01*
Y1387126D02*
X2612169D01*
Y1438406D01*
X2612071Y1438504D02*
X2612169Y1438406D01*
X2596028Y1438504D02*
X2612071D01*
X1650996Y1870028D02*
Y1886071D01*
X1651094Y1886169D01*
X1702374D01*
Y1870028D02*
Y1886169D01*
X1650996Y1870028D02*
X1702374D01*
X2596028Y1494004D02*
X2612071D01*
X2612169Y1493906D01*
Y1442626D02*
Y1493906D01*
X2596028Y1442626D02*
X2612169D01*
X2596028D02*
Y1494004D01*
X2448996Y1873528D02*
Y1889571D01*
X2449095Y1889669D01*
X2500374D01*
Y1873528D02*
Y1889669D01*
X2448996Y1873528D02*
X2500374D01*
X2596028Y1548504D02*
X2612071D01*
X2612169Y1548405D01*
Y1497126D02*
Y1548405D01*
X2596028Y1497126D02*
X2612169D01*
X2596028D02*
Y1548504D01*
X1651496Y1947028D02*
Y1963071D01*
X1651595Y1963169D01*
X1702874D01*
Y1947028D02*
Y1963169D01*
X1651496Y1947028D02*
X1702874D01*
X2596028Y1551626D02*
Y1603004D01*
Y1551626D02*
X2612169D01*
Y1602905D01*
X2612071Y1603004D02*
X2612169Y1602905D01*
X2596028Y1603004D02*
X2612071D01*
X2596028Y1657004D02*
X2612071D01*
X2612169Y1656906D01*
Y1605626D02*
Y1656906D01*
X2596028Y1605626D02*
X2612169D01*
X2596028D02*
Y1657004D01*
X1972496Y1876028D02*
Y1892071D01*
X1972594Y1892169D01*
X2023874D01*
Y1876028D02*
Y1892169D01*
X1972496Y1876028D02*
X2023874D01*
X2025996Y2106390D02*
X2074500D01*
X2123004D01*
X2025996Y2167413D02*
X2074500D01*
X2123004D01*
X2025996Y2106390D02*
Y2167413D01*
X2123004Y2106390D02*
Y2167413D01*
X1533150Y1816579D02*
Y2016697D01*
X1533071Y2016776D02*
X1533150Y2016697D01*
X1485945Y2016776D02*
X1533071D01*
X1485866Y2016697D02*
X1485945Y2016776D01*
X1485866Y1816539D02*
Y2016697D01*
Y1816539D02*
X1533110D01*
X1533150Y1816579D01*
X2618429Y1442394D02*
X2618468Y1442433D01*
X2665713D01*
X2618429Y1401488D02*
X2665752D01*
X2665791Y1401528D01*
X2618468D02*
Y1442433D01*
X2665713Y1401528D02*
Y1442433D01*
X2618429Y1496694D02*
X2618468Y1496733D01*
X2665713D01*
X2618429Y1455788D02*
X2665752D01*
X2665791Y1455828D01*
X2618468D02*
Y1496733D01*
X2665713Y1455828D02*
Y1496733D01*
X2618429Y1550994D02*
X2618468Y1551033D01*
X2665713D01*
X2618429Y1510088D02*
X2665752D01*
X2665791Y1510128D01*
X2618468D02*
Y1551033D01*
X2665713Y1510128D02*
Y1551033D01*
X1551039Y1563441D02*
Y1573480D01*
Y1553500D02*
Y1563539D01*
Y1553500D02*
Y1558520D01*
X1516000Y1539622D02*
X1550842D01*
X1550941D02*
Y1546020D01*
Y1592280D01*
X1516000Y1592378D02*
X1550941D01*
X1485488D02*
X1516000D01*
X1485488Y1585980D02*
Y1592378D01*
Y1539622D02*
Y1585980D01*
Y1539622D02*
X1516000D01*
X2618429Y1605294D02*
X2618468Y1605333D01*
X2665713D01*
X2618429Y1564388D02*
X2665752D01*
X2665791Y1564428D01*
X2618468D02*
Y1605333D01*
X2665713Y1564428D02*
Y1605333D01*
X2618429Y1659594D02*
X2618468Y1659633D01*
X2665713D01*
X2618429Y1618688D02*
X2665752D01*
X2665791Y1618728D01*
X2618468D02*
Y1659633D01*
X2665713Y1618728D02*
Y1659633D01*
X1550539Y1491691D02*
Y1501730D01*
Y1481750D02*
Y1491789D01*
Y1481750D02*
Y1486770D01*
X1515500Y1467872D02*
X1550342D01*
X1550441D02*
Y1474270D01*
Y1520529D01*
X1515500Y1520628D02*
X1550441D01*
X1484988D02*
X1515500D01*
X1484988Y1514230D02*
Y1520628D01*
Y1467872D02*
Y1514230D01*
Y1467872D02*
X1515500D01*
X2618429Y1713894D02*
X2618468Y1713933D01*
X2665713D01*
X2618429Y1672988D02*
X2665752D01*
X2665791Y1673028D01*
X2618468D02*
Y1713933D01*
X2665713Y1673028D02*
Y1713933D01*
X1533031Y1750988D02*
X1533071Y1751027D01*
X1485787Y1750988D02*
X1533031D01*
X1485748Y1791933D02*
X1533071D01*
X1485709Y1791894D02*
X1485748Y1791933D01*
X1533031Y1750988D02*
Y1791894D01*
X1485787Y1750988D02*
Y1791894D01*
X1533031Y1691488D02*
X1533071Y1691528D01*
X1485787Y1691488D02*
X1533031D01*
X1485748Y1732433D02*
X1533071D01*
X1485709Y1732394D02*
X1485748Y1732433D01*
X1533031Y1691488D02*
Y1732394D01*
X1485787Y1691488D02*
Y1732394D01*
X1533031Y1631988D02*
X1533071Y1632027D01*
X1485787Y1631988D02*
X1533031D01*
X1485748Y1672933D02*
X1533071D01*
X1485709Y1672894D02*
X1485748Y1672933D01*
X1533031Y1631988D02*
Y1672894D01*
X1485787Y1631988D02*
Y1672894D01*
X2510067Y2207468D02*
X2510106Y2207429D01*
X2510067Y2207468D02*
Y2254713D01*
X2551012Y2207429D02*
Y2254752D01*
X2550972Y2254791D02*
X2551012Y2254752D01*
X2510067Y2207468D02*
X2550972D01*
X2510067Y2254713D02*
X2550972D01*
X2188067Y2256213D02*
X2228972D01*
X2188067Y2208969D02*
X2228972D01*
Y2256291D02*
X2229012Y2256252D01*
Y2208929D02*
Y2256252D01*
X2188067Y2208969D02*
Y2256213D01*
Y2208969D02*
X2188106Y2208929D01*
X1727000Y1813000D02*
Y1821000D01*
X1699500Y1813000D02*
X1727000D01*
X1699500D02*
Y1820500D01*
X1700000Y1821000D02*
X1727000D01*
X1699500Y1820500D02*
X1700000Y1821000D01*
X1690500Y1874000D02*
Y1882000D01*
X1663000Y1874000D02*
X1690500D01*
X1663000D02*
Y1881500D01*
X1663500Y1882000D02*
X1690500D01*
X1663000Y1881500D02*
X1663500Y1882000D01*
X2012500Y1880000D02*
Y1888000D01*
X1985000Y1880000D02*
X2012500D01*
X1985000D02*
Y1887500D01*
X1985500Y1888000D02*
X2012500D01*
X1985000Y1887500D02*
X1985500Y1888000D01*
X2600000Y1399000D02*
X2608000D01*
X2600000D02*
Y1426500D01*
X2607500D01*
X2608000Y1399000D02*
Y1426000D01*
X2607500Y1426500D02*
X2608000Y1426000D01*
X2600000Y1454500D02*
X2608000D01*
X2600000D02*
Y1482000D01*
X2607500D01*
X2608000Y1454500D02*
Y1481500D01*
X2607500Y1482000D02*
X2608000Y1481500D01*
X2600000Y1509000D02*
X2608000D01*
X2600000D02*
Y1536500D01*
X2607500D01*
X2608000Y1509000D02*
Y1536000D01*
X2607500Y1536500D02*
X2608000Y1536000D01*
X2600000Y1563500D02*
X2608000D01*
X2600000D02*
Y1591000D01*
X2607500D01*
X2608000Y1563500D02*
Y1590500D01*
X2607500Y1591000D02*
X2608000Y1590500D01*
X2600000Y1617500D02*
X2608000D01*
X2600000D02*
Y1645000D01*
X2607500D01*
X2608000Y1617500D02*
Y1644500D01*
X2607500Y1645000D02*
X2608000Y1644500D01*
X2600000Y1672500D02*
X2608000D01*
X2600000D02*
Y1700000D01*
X2607500D01*
X2608000Y1672500D02*
Y1699500D01*
X2607500Y1700000D02*
X2608000Y1699500D01*
X2599000Y1755500D02*
X2607000D01*
X2599000D02*
Y1783000D01*
X2606500D01*
X2607000Y1755500D02*
Y1782500D01*
X2606500Y1783000D02*
X2607000Y1782500D01*
X2488500Y1877500D02*
Y1885500D01*
X2461000Y1877500D02*
X2488500D01*
X2461000D02*
Y1885000D01*
X2461500Y1885500D02*
X2488500D01*
X2461000Y1885000D02*
X2461500Y1885500D01*
X2487000Y1944000D02*
Y1952000D01*
X2459500Y1944000D02*
X2487000D01*
X2459500D02*
Y1951500D01*
X2460000Y1952000D02*
X2487000D01*
X2459500Y1951500D02*
X2460000Y1952000D01*
X2486000Y2018500D02*
Y2026500D01*
X2458500Y2018500D02*
X2486000D01*
X2458500D02*
Y2026000D01*
X2459000Y2026500D02*
X2486000D01*
X2458500Y2026000D02*
X2459000Y2026500D01*
X1663500Y1958500D02*
X1664000Y1959000D01*
X1691000D01*
X1663500Y1951000D02*
Y1958500D01*
Y1951000D02*
X1691000D01*
Y1959000D01*
X1686000Y1591498D02*
Y1586500D01*
X1685000Y1585500D01*
X1683001D01*
X1682001Y1586500D01*
Y1591498D01*
X1677003Y1585500D02*
Y1591498D01*
X1680002Y1588499D01*
X1676003D01*
X1674004Y1590498D02*
X1673004Y1591498D01*
X1671005D01*
X1670005Y1590498D01*
Y1586500D01*
X1671005Y1585500D01*
X1673004D01*
X1674004Y1586500D01*
Y1590498D01*
X2541500Y2186500D02*
X2535502D01*
Y2183501D01*
X2536502Y2182501D01*
X2538501D01*
X2539501Y2183501D01*
Y2186500D01*
Y2184501D02*
X2541500Y2182501D01*
X2535502Y2180502D02*
Y2176503D01*
Y2178503D01*
X2541500D01*
Y2174504D02*
Y2172504D01*
Y2173504D01*
X2535502D01*
X2536502Y2174504D01*
X2249000Y2206000D02*
Y2200002D01*
X2251999D01*
X2252999Y2201002D01*
Y2203001D01*
X2251999Y2204001D01*
X2249000D01*
X2258997Y2206000D02*
X2254998D01*
X2258997Y2202001D01*
Y2201002D01*
X2257997Y2200002D01*
X2255998D01*
X2254998Y2201002D01*
X2263995Y2206000D02*
Y2200002D01*
X2260996Y2203001D01*
X2264995D01*
X2203000Y2205000D02*
Y2199002D01*
X2205999D01*
X2206999Y2200002D01*
Y2202001D01*
X2205999Y2203001D01*
X2203000D01*
X2212997Y2205000D02*
X2208998D01*
X2212997Y2201001D01*
Y2200002D01*
X2211997Y2199002D01*
X2209998D01*
X2208998Y2200002D01*
X2214996D02*
X2215996Y2199002D01*
X2217995D01*
X2218995Y2200002D01*
Y2201001D01*
X2217995Y2202001D01*
X2216995D01*
X2217995D01*
X2218995Y2203001D01*
Y2204000D01*
X2217995Y2205000D01*
X2215996D01*
X2214996Y2204000D01*
D48*
X2277354Y2083500D02*
G03*
X2277354Y2083500I-15354J0D01*
G01*
X1936968Y1422500D02*
G03*
X1936968Y1422500I-26969J0D01*
G01*
X2381575Y2052654D02*
G03*
X2381575Y2057653I0J2500D01*
G01*
X1735925Y1771346D02*
G03*
X1735925Y1766347I0J-2500D01*
G01*
X1780846Y1761575D02*
G03*
X1775846Y1761575I-2500J0D01*
G01*
X1614153Y1891425D02*
G03*
X1619154Y1891425I2500J0D01*
G01*
X1735925Y1911847D02*
G03*
X1735925Y1906846I0J-2500D01*
G01*
X1837425Y1912346D02*
G03*
X1837425Y1907347I0J-2500D01*
G01*
X2475575Y1765653D02*
G03*
X2475575Y1770654I0J2500D01*
G01*
X2483309Y1910604D02*
G03*
X2483309Y1915604I0J2500D01*
G01*
X2381575Y1911153D02*
G03*
X2381575Y1916154I0J2500D01*
G01*
X1735925Y1989846D02*
G03*
X1735925Y1984846I0J-2500D01*
G01*
X1837425Y1990347D02*
G03*
X1837425Y1985346I0J-2500D01*
G01*
X2475575Y1414153D02*
G03*
X2475575Y1419153I0J2500D01*
G01*
Y1578553D02*
G03*
X2475575Y1583554I0J2500D01*
G01*
X2483309Y1979153D02*
G03*
X2483309Y1984154I0J2500D01*
G01*
X2381575Y1978654D02*
G03*
X2381575Y1983653I0J2500D01*
G01*
X2475575Y1468954D02*
G03*
X2475575Y1473954I0J2500D01*
G01*
Y1633353D02*
G03*
X2475575Y1638354I0J2500D01*
G01*
X2013425Y1985847D02*
G03*
X2013425Y1980846I0J-2500D01*
G01*
X2110925Y1984846D02*
G03*
X2110925Y1979847I0J-2500D01*
G01*
X2475575Y1523754D02*
G03*
X2475575Y1528753I0J2500D01*
G01*
Y1688153D02*
G03*
X2475575Y1693154I0J2500D01*
G01*
X2483309Y2053153D02*
G03*
X2483309Y2058154I0J2500D01*
G01*
X2287587Y2066654D02*
X2292706D01*
X2283650Y2070591D02*
X2287587Y2066654D01*
X2283650Y2070591D02*
Y2070591D01*
Y2096575D01*
X2292706D01*
X2308454D02*
X2317509D01*
Y2070591D02*
Y2096575D01*
Y2070591D02*
Y2070591D01*
X2313572Y2066654D02*
X2317509Y2070591D01*
X2308454Y2066654D02*
X2313572D01*
X1693638Y1571807D02*
Y1583618D01*
X1696787Y1571807D02*
Y1583618D01*
X1693638Y1571807D02*
X1696787D01*
X1693638Y1583618D02*
X1696787D01*
X2590748Y1674441D02*
Y1679559D01*
X2584252Y1674441D02*
Y1679559D01*
Y1674441D02*
X2590748D01*
X2584252Y1679559D02*
X2590748D01*
X2544378Y2165354D02*
Y2205216D01*
X2566327D01*
Y2165354D02*
Y2205216D01*
X2544378Y2165354D02*
X2566327D01*
X2385008Y1519961D02*
X2385500D01*
Y1531673D01*
Y1528327D02*
Y1540039D01*
X2385008D02*
X2385500D01*
X2314634Y1528327D02*
Y1540039D01*
Y1519961D02*
Y1531673D01*
X2433579Y2202362D02*
Y2210630D01*
X2393421D02*
X2433579D01*
X2393421Y2202362D02*
Y2210630D01*
X2380744Y2213161D02*
X2386256D01*
X2380646Y2201744D02*
Y2207256D01*
X2386354Y2201744D02*
Y2207256D01*
X1991449Y1488461D02*
Y1500173D01*
Y1496827D02*
Y1508539D01*
X1951842Y1498047D02*
Y1509760D01*
X1951882Y1486551D02*
Y1498264D01*
X2381575Y2057653D02*
Y2061945D01*
Y2048362D02*
Y2052654D01*
Y2048362D02*
X2458917D01*
Y2061945D01*
X2381575D02*
X2458917D01*
X2379720Y1503102D02*
X2382280D01*
X1765819Y1567031D02*
X1766606D01*
X1765819Y1569394D02*
X1766606D01*
X1790106Y1637819D02*
X1790894D01*
X1790106Y1640181D02*
X1790894D01*
X1694319Y1567031D02*
X1695106D01*
X1694319Y1569394D02*
X1695106D01*
X1709606Y1639319D02*
X1710394D01*
X1709606Y1641681D02*
X1710394D01*
X2228346Y2139587D02*
Y2144706D01*
X2224409Y2135650D02*
X2228346Y2139587D01*
X2224409Y2135650D02*
X2224409D01*
X2198425D02*
X2224409D01*
X2198425D02*
Y2144706D01*
Y2160454D02*
Y2169509D01*
X2224409D01*
X2224409D01*
X2228346Y2165572D01*
Y2160454D02*
Y2165572D01*
X2189146Y2180244D02*
Y2185756D01*
X2194854Y2180244D02*
Y2185756D01*
X2057874Y2096855D02*
X2062992D01*
X2066929Y2092918D01*
Y2092918D02*
Y2092918D01*
Y2066934D02*
Y2092918D01*
X2057874Y2066934D02*
X2066929D01*
X2033071D02*
X2042126D01*
X2033071D02*
Y2092918D01*
Y2092918D01*
X2037008Y2096855D01*
X2042126D01*
X2097374D02*
X2102492D01*
X2106429Y2092918D01*
Y2092918D02*
Y2092918D01*
Y2066934D02*
Y2092918D01*
X2097374Y2066934D02*
X2106429D01*
X2072571D02*
X2081626D01*
X2072571D02*
Y2092918D01*
Y2092918D01*
X2076508Y2096855D01*
X2081626D01*
X2024319Y2088606D02*
Y2089394D01*
X2026681Y2088606D02*
Y2089394D01*
X2478794Y2224846D02*
X2483913D01*
X2487850Y2220909D01*
Y2220909D02*
Y2220909D01*
Y2194925D02*
Y2220909D01*
X2478794Y2194925D02*
X2487850D01*
X2453991D02*
X2463046D01*
X2453991D02*
Y2220909D01*
Y2220909D01*
X2457928Y2224846D01*
X2463046D01*
X2442646Y2201744D02*
Y2207256D01*
X2448354Y2201744D02*
Y2207256D01*
X2314454Y2151346D02*
X2319572D01*
X2323509Y2147409D01*
Y2147409D02*
Y2147409D01*
Y2121425D02*
Y2147409D01*
X2314454Y2121425D02*
X2323509D01*
X2289650D02*
X2298705D01*
X2289650D02*
Y2147409D01*
Y2147409D01*
X2293587Y2151346D01*
X2298705D01*
X2353954D02*
X2359072D01*
X2363009Y2147409D01*
Y2147409D02*
Y2147409D01*
Y2121425D02*
Y2147409D01*
X2353954Y2121425D02*
X2363009D01*
X2329150D02*
X2338206D01*
X2329150D02*
Y2147409D01*
Y2147409D01*
X2333087Y2151346D01*
X2338206D01*
X2281319Y2138606D02*
Y2139394D01*
X2283681Y2138606D02*
Y2139394D01*
X2126244Y2207161D02*
X2131756D01*
X2126146Y2195744D02*
Y2201256D01*
X2131854Y2195744D02*
Y2201256D01*
X1735925Y1762055D02*
Y1766347D01*
Y1771346D02*
Y1775638D01*
X1658583D02*
X1735925D01*
X1658583Y1762055D02*
Y1775638D01*
Y1762055D02*
X1735925D01*
X1771555Y1761575D02*
X1775846D01*
X1780846D02*
X1785138D01*
Y1838917D01*
X1771555D02*
X1785138D01*
X1771555Y1761575D02*
Y1838917D01*
X1619154Y1891425D02*
X1623445D01*
X1609862D02*
X1614153D01*
X1609862Y1814083D02*
Y1891425D01*
Y1814083D02*
X1623445D01*
Y1891425D01*
X1735925Y1902555D02*
Y1906846D01*
Y1911847D02*
Y1916138D01*
X1658583D02*
X1735925D01*
X1658583Y1902555D02*
Y1916138D01*
Y1902555D02*
X1735925D01*
X1837425Y1903055D02*
Y1907347D01*
Y1912346D02*
Y1916638D01*
X1760083D02*
X1837425D01*
X1760083Y1903055D02*
Y1916638D01*
Y1903055D02*
X1837425D01*
X2475575Y1770654D02*
Y1774945D01*
Y1761362D02*
Y1765653D01*
Y1761362D02*
X2552917D01*
Y1774945D01*
X2475575D02*
X2552917D01*
X2483309Y1915604D02*
Y1919896D01*
Y1906313D02*
Y1910604D01*
Y1906313D02*
X2560652D01*
Y1919896D01*
X2483309D02*
X2560652D01*
X2381575Y1916154D02*
Y1920445D01*
Y1906862D02*
Y1911153D01*
Y1906862D02*
X2458917D01*
Y1920445D01*
X2381575D02*
X2458917D01*
X1735925Y1980555D02*
Y1984846D01*
Y1989846D02*
Y1994138D01*
X1658583D02*
X1735925D01*
X1658583Y1980555D02*
Y1994138D01*
Y1980555D02*
X1735925D01*
X1837425Y1981055D02*
Y1985346D01*
Y1990347D02*
Y1994638D01*
X1760083D02*
X1837425D01*
X1760083Y1981055D02*
Y1994638D01*
Y1981055D02*
X1837425D01*
X2475575Y1419153D02*
Y1423445D01*
Y1409862D02*
Y1414153D01*
Y1409862D02*
X2552917D01*
Y1423445D01*
X2475575D02*
X2552917D01*
X2475575Y1583554D02*
Y1587845D01*
Y1574262D02*
Y1578553D01*
Y1574262D02*
X2552917D01*
Y1587845D01*
X2475575D02*
X2552917D01*
X2483309Y1984154D02*
Y1988445D01*
Y1974862D02*
Y1979153D01*
Y1974862D02*
X2560652D01*
Y1988445D01*
X2483309D02*
X2560652D01*
X2381575Y1983653D02*
Y1987945D01*
Y1974362D02*
Y1978654D01*
Y1974362D02*
X2458917D01*
Y1987945D01*
X2381575D02*
X2458917D01*
X2475575Y1473954D02*
Y1478245D01*
Y1464662D02*
Y1468954D01*
Y1464662D02*
X2552917D01*
Y1478245D01*
X2475575D02*
X2552917D01*
X2475575Y1638354D02*
Y1642645D01*
Y1629062D02*
Y1633353D01*
Y1629062D02*
X2552917D01*
Y1642645D01*
X2475575D02*
X2552917D01*
X2013425Y1976555D02*
Y1980846D01*
Y1985847D02*
Y1990138D01*
X1936083D02*
X2013425D01*
X1936083Y1976555D02*
Y1990138D01*
Y1976555D02*
X2013425D01*
X2110925Y1975555D02*
Y1979847D01*
Y1984846D02*
Y1989138D01*
X2033583D02*
X2110925D01*
X2033583Y1975555D02*
Y1989138D01*
Y1975555D02*
X2110925D01*
X2475575Y1528753D02*
Y1533045D01*
Y1519462D02*
Y1523754D01*
Y1519462D02*
X2552917D01*
Y1533045D01*
X2475575D02*
X2552917D01*
X2475575Y1693154D02*
Y1697445D01*
Y1683862D02*
Y1688153D01*
Y1683862D02*
X2552917D01*
Y1697445D01*
X2475575D02*
X2552917D01*
X2483309Y2058154D02*
Y2062445D01*
Y2048862D02*
Y2053153D01*
Y2048862D02*
X2560652D01*
Y2062445D01*
X2483309D02*
X2560652D01*
X2351181Y1556106D02*
Y1556894D01*
X2348819Y1556106D02*
Y1556894D01*
X2341681Y1556106D02*
Y1556894D01*
X2339319Y1556106D02*
Y1556894D01*
X2590248Y1757941D02*
Y1763059D01*
X2583752Y1757941D02*
Y1763059D01*
Y1757941D02*
X2590248D01*
X2583752Y1763059D02*
X2590248D01*
X2508941Y2019252D02*
X2514059D01*
X2508941Y2025748D02*
X2514059D01*
X2508941Y2019252D02*
Y2025748D01*
X2514059Y2019252D02*
Y2025748D01*
X1695941Y1798752D02*
X1701059D01*
X1695941Y1805248D02*
X1701059D01*
X1695941Y1798752D02*
Y1805248D01*
X1701059Y1798752D02*
Y1805248D01*
X2591748Y1403441D02*
Y1408559D01*
X2585252Y1403441D02*
Y1408559D01*
Y1403441D02*
X2591748D01*
X2585252Y1408559D02*
X2591748D01*
X1711941Y1875752D02*
X1717059D01*
X1711941Y1882248D02*
X1717059D01*
X1711941Y1875752D02*
Y1882248D01*
X1717059Y1875752D02*
Y1882248D01*
X2591748Y1457441D02*
Y1462559D01*
X2585252Y1457441D02*
Y1462559D01*
Y1457441D02*
X2591748D01*
X2585252Y1462559D02*
X2591748D01*
X2511941Y1878252D02*
X2517059D01*
X2511941Y1884748D02*
X2517059D01*
X2511941Y1878252D02*
Y1884748D01*
X2517059Y1878252D02*
Y1884748D01*
X2591248Y1511441D02*
Y1516559D01*
X2584752Y1511441D02*
Y1516559D01*
Y1511441D02*
X2591248D01*
X2584752Y1516559D02*
X2591248D01*
X1712941Y1951752D02*
X1718059D01*
X1712941Y1958248D02*
X1718059D01*
X1712941Y1951752D02*
Y1958248D01*
X1718059Y1951752D02*
Y1958248D01*
X2590748Y1566441D02*
Y1571559D01*
X2584252Y1566441D02*
Y1571559D01*
Y1566441D02*
X2590748D01*
X2584252Y1571559D02*
X2590748D01*
X2509941Y1944752D02*
X2515059D01*
X2509941Y1951248D02*
X2515059D01*
X2509941Y1944752D02*
Y1951248D01*
X2515059Y1944752D02*
Y1951248D01*
X2590248Y1620441D02*
Y1625559D01*
X2583752Y1620441D02*
Y1625559D01*
Y1620441D02*
X2590248D01*
X2583752Y1625559D02*
X2590248D01*
X1981748Y1944941D02*
Y1950059D01*
X1975252Y1944941D02*
Y1950059D01*
Y1944941D02*
X1981748D01*
X1975252Y1950059D02*
X1981748D01*
X1982606Y1474681D02*
X1983394D01*
X1982606Y1472319D02*
X1983394D01*
X1962106Y1472319D02*
X1962894D01*
X1962106Y1474681D02*
X1962894D01*
X1788925Y1623594D02*
Y1635406D01*
X1792075Y1623594D02*
Y1635406D01*
X1788925Y1623594D02*
X1792075D01*
X1788925Y1635406D02*
X1792075D01*
X1764638Y1571807D02*
Y1583618D01*
X1767787Y1571807D02*
Y1583618D01*
X1764638Y1571807D02*
X1767787D01*
X1764638Y1583618D02*
X1767787D01*
X1708425Y1625094D02*
Y1636905D01*
X1711575Y1625094D02*
Y1636905D01*
X1708425Y1625094D02*
X1711575D01*
X1708425Y1636905D02*
X1711575D01*
X2178579Y2196862D02*
Y2205130D01*
X2138421D02*
X2178579D01*
X2138421Y2196862D02*
Y2205130D01*
X2311376Y2109280D02*
X2312032Y2109936D01*
X2313344D01*
X2314000Y2109280D01*
Y2106656D01*
X2313344Y2106000D01*
X2312032D01*
X2311376Y2106656D01*
X2310064Y2109280D02*
X2309408Y2109936D01*
X2308096D01*
X2307440Y2109280D01*
Y2108624D01*
X2308096Y2107968D01*
X2307440Y2107312D01*
Y2106656D01*
X2308096Y2106000D01*
X2309408D01*
X2310064Y2106656D01*
Y2107312D01*
X2309408Y2107968D01*
X2310064Y2108624D01*
Y2109280D01*
X2309408Y2107968D02*
X2308096D01*
X2306129Y2109280D02*
X2305473Y2109936D01*
X2304161D01*
X2303505Y2109280D01*
Y2108624D01*
X2304161Y2107968D01*
X2303505Y2107312D01*
Y2106656D01*
X2304161Y2106000D01*
X2305473D01*
X2306129Y2106656D01*
Y2107312D01*
X2305473Y2107968D01*
X2306129Y2108624D01*
Y2109280D01*
X2305473Y2107968D02*
X2304161D01*
X1682064Y1583500D02*
X1685344D01*
X1686000Y1582844D01*
Y1581532D01*
X1685344Y1580876D01*
X1682064D01*
X1686000Y1579564D02*
Y1578252D01*
Y1578908D01*
X1682064D01*
X1682720Y1579564D01*
Y1576285D02*
X1682064Y1575628D01*
Y1574317D01*
X1682720Y1573661D01*
X1683376D01*
X1684032Y1574317D01*
X1684688Y1573661D01*
X1685344D01*
X1686000Y1574317D01*
Y1575628D01*
X1685344Y1576285D01*
X1684688D01*
X1684032Y1575628D01*
X1683376Y1576285D01*
X1682720D01*
X1684032Y1575628D02*
Y1574317D01*
X1546000Y1453500D02*
Y1457436D01*
X1544032D01*
X1543376Y1456780D01*
Y1455468D01*
X1544032Y1454812D01*
X1546000D01*
X1542064Y1453500D02*
X1540752D01*
X1541408D01*
Y1457436D01*
X1542064Y1456780D01*
X1536161Y1457436D02*
X1538785D01*
Y1455468D01*
X1537473Y1456124D01*
X1536817D01*
X1536161Y1455468D01*
Y1454156D01*
X1536817Y1453500D01*
X1538128D01*
X1538785Y1454156D01*
X2591100Y1689900D02*
Y1693836D01*
X2589132D01*
X2588476Y1693180D01*
Y1691868D01*
X2589132Y1691212D01*
X2591100D01*
X2589788D02*
X2588476Y1689900D01*
X2587164Y1693836D02*
X2584540D01*
Y1693180D01*
X2587164Y1690556D01*
Y1689900D01*
X2580605Y1693836D02*
X2583228D01*
Y1691868D01*
X2581917Y1692524D01*
X2581261D01*
X2580605Y1691868D01*
Y1690556D01*
X2581261Y1689900D01*
X2582573D01*
X2583228Y1690556D01*
X2368500Y2234436D02*
Y2230500D01*
X2365876D01*
X2361940D02*
X2364564D01*
X2361940Y2233124D01*
Y2233780D01*
X2362596Y2234436D01*
X2363908D01*
X2364564Y2233780D01*
X2386300Y1551000D02*
Y1554936D01*
X2384332D01*
X2383676Y1554280D01*
Y1552968D01*
X2384332Y1552312D01*
X2386300D01*
X2382364Y1551000D02*
X2381052D01*
X2381708D01*
Y1554936D01*
X2382364Y1554280D01*
X2274500Y2105936D02*
Y2102000D01*
X2271876D01*
X2270564Y2105280D02*
X2269908Y2105936D01*
X2268596D01*
X2267940Y2105280D01*
Y2104624D01*
X2268596Y2103968D01*
X2269252D01*
X2268596D01*
X2267940Y2103312D01*
Y2102656D01*
X2268596Y2102000D01*
X2269908D01*
X2270564Y2102656D01*
X2442436Y2172000D02*
X2439156D01*
X2438500Y2172656D01*
Y2173968D01*
X2439156Y2174624D01*
X2442436D01*
X2441780Y2175936D02*
X2442436Y2176592D01*
Y2177904D01*
X2441780Y2178560D01*
X2441124D01*
X2440468Y2177904D01*
Y2177248D01*
Y2177904D01*
X2439812Y2178560D01*
X2439156D01*
X2438500Y2177904D01*
Y2176592D01*
X2439156Y2175936D01*
X2442436Y2179872D02*
Y2182495D01*
X2441780D01*
X2439156Y2179872D01*
X2438500D01*
X2389500Y2219436D02*
Y2215500D01*
X2387532D01*
X2386876Y2216156D01*
Y2218780D01*
X2387532Y2219436D01*
X2389500D01*
X2385564Y2218780D02*
X2384908Y2219436D01*
X2383596D01*
X2382940Y2218780D01*
Y2218124D01*
X2383596Y2217468D01*
X2384252D01*
X2383596D01*
X2382940Y2216812D01*
Y2216156D01*
X2383596Y2215500D01*
X2384908D01*
X2385564Y2216156D01*
X2379005Y2219436D02*
X2380317Y2218780D01*
X2381628Y2217468D01*
Y2216156D01*
X2380973Y2215500D01*
X2379661D01*
X2379005Y2216156D01*
Y2216812D01*
X2379661Y2217468D01*
X2381628D01*
X1994500Y1500000D02*
X1998436D01*
Y1501968D01*
X1997780Y1502624D01*
X1996468D01*
X1995812Y1501968D01*
Y1500000D01*
X1994500Y1506560D02*
Y1503936D01*
X1997124Y1506560D01*
X1997780D01*
X1998436Y1505904D01*
Y1504592D01*
X1997780Y1503936D01*
X1994500Y1510495D02*
Y1507872D01*
X1997124Y1510495D01*
X1997780D01*
X1998436Y1509839D01*
Y1508527D01*
X1997780Y1507872D01*
X1936600Y1456536D02*
Y1452600D01*
X1933976D01*
X1930040Y1455880D02*
X1930696Y1456536D01*
X1932008D01*
X1932664Y1455880D01*
Y1455224D01*
X1932008Y1454568D01*
X1930696D01*
X1930040Y1453912D01*
Y1453256D01*
X1930696Y1452600D01*
X1932008D01*
X1932664Y1453256D01*
X1928728Y1452600D02*
X1927417D01*
X1928073D01*
Y1456536D01*
X1928728Y1455880D01*
X2648376Y2193280D02*
X2649032Y2193936D01*
X2650344D01*
X2651000Y2193280D01*
Y2192624D01*
X2650344Y2191968D01*
X2649032D01*
X2648376Y2191312D01*
Y2190656D01*
X2649032Y2190000D01*
X2650344D01*
X2651000Y2190656D01*
X2647064Y2190000D02*
X2645752D01*
X2646408D01*
Y2193936D01*
X2647064Y2193280D01*
X1805000Y1485936D02*
Y1482000D01*
X1803032D01*
X1802376Y1482656D01*
Y1483312D01*
X1803032Y1483968D01*
X1805000D01*
X1803032D01*
X1802376Y1484624D01*
Y1485280D01*
X1803032Y1485936D01*
X1805000D01*
X1801064Y1482000D02*
Y1484624D01*
X1799752Y1485936D01*
X1798440Y1484624D01*
Y1482000D01*
Y1483968D01*
X1801064D01*
X1797128Y1485936D02*
X1794505D01*
X1795817D01*
Y1482000D01*
X1793193D02*
X1791881D01*
X1792537D01*
Y1485936D01*
X1793193Y1485280D01*
X2472624Y1935220D02*
X2471968Y1934564D01*
X2470656D01*
X2470000Y1935220D01*
Y1937844D01*
X2470656Y1938500D01*
X2471968D01*
X2472624Y1937844D01*
X2473936Y1935220D02*
X2474592Y1934564D01*
X2475904D01*
X2476560Y1935220D01*
Y1935876D01*
X2475904Y1936532D01*
X2475248D01*
X2475904D01*
X2476560Y1937188D01*
Y1937844D01*
X2475904Y1938500D01*
X2474592D01*
X2473936Y1937844D01*
X2477872Y1935220D02*
X2478527Y1934564D01*
X2479839D01*
X2480495Y1935220D01*
Y1937844D01*
X2479839Y1938500D01*
X2478527D01*
X2477872Y1937844D01*
Y1935220D01*
X2607376Y1717280D02*
X2608032Y1717936D01*
X2609344D01*
X2610000Y1717280D01*
Y1714656D01*
X2609344Y1714000D01*
X2608032D01*
X2607376Y1714656D01*
X2606064Y1717280D02*
X2605408Y1717936D01*
X2604096D01*
X2603440Y1717280D01*
Y1716624D01*
X2604096Y1715968D01*
X2604752D01*
X2604096D01*
X2603440Y1715312D01*
Y1714656D01*
X2604096Y1714000D01*
X2605408D01*
X2606064Y1714656D01*
X2602128Y1717936D02*
X2599505D01*
Y1717280D01*
X2602128Y1714656D01*
Y1714000D01*
X2461500Y2082236D02*
Y2078300D01*
Y2079612D01*
X2458876Y2082236D01*
X2460844Y2080268D01*
X2458876Y2078300D01*
X2454940D02*
X2457564D01*
X2454940Y2080924D01*
Y2081580D01*
X2455596Y2082236D01*
X2456908D01*
X2457564Y2081580D01*
X2451005Y2078300D02*
X2453629D01*
X2451005Y2080924D01*
Y2081580D01*
X2451661Y2082236D01*
X2452973D01*
X2453629Y2081580D01*
X1987776Y1625336D02*
X1989088D01*
X1988432D01*
Y1622056D01*
X1989088Y1621400D01*
X1989744D01*
X1990400Y1622056D01*
X1986464Y1621400D02*
X1985152D01*
X1985808D01*
Y1625336D01*
X1986464Y1624680D01*
X2643000Y1800000D02*
Y1803936D01*
X2641032D01*
X2640376Y1803280D01*
Y1801968D01*
X2641032Y1801312D01*
X2643000D01*
X2636440Y1803936D02*
X2637752Y1803280D01*
X2639064Y1801968D01*
Y1800656D01*
X2638408Y1800000D01*
X2637096D01*
X2636440Y1800656D01*
Y1801312D01*
X2637096Y1801968D01*
X2639064D01*
X2627500Y2020500D02*
Y2024436D01*
X2625532D01*
X2624876Y2023780D01*
Y2022468D01*
X2625532Y2021812D01*
X2627500D01*
X2621596Y2020500D02*
Y2024436D01*
X2623564Y2022468D01*
X2620940D01*
X2373220Y1498376D02*
X2372564Y1499032D01*
Y1500344D01*
X2373220Y1501000D01*
X2375844D01*
X2376500Y1500344D01*
Y1499032D01*
X2375844Y1498376D01*
X2372564Y1494440D02*
Y1497064D01*
X2374532D01*
X2373876Y1495752D01*
Y1495096D01*
X2374532Y1494440D01*
X2375844D01*
X2376500Y1495096D01*
Y1496408D01*
X2375844Y1497064D01*
X2605876Y1800280D02*
X2606532Y1800936D01*
X2607844D01*
X2608500Y1800280D01*
Y1797656D01*
X2607844Y1797000D01*
X2606532D01*
X2605876Y1797656D01*
X2604564Y1797000D02*
X2603252D01*
X2603908D01*
Y1800936D01*
X2604564Y1800280D01*
X2601284D02*
X2600628Y1800936D01*
X2599317D01*
X2598661Y1800280D01*
Y1799624D01*
X2599317Y1798968D01*
X2599973D01*
X2599317D01*
X2598661Y1798312D01*
Y1797656D01*
X2599317Y1797000D01*
X2600628D01*
X2601284Y1797656D01*
X2481124Y2009220D02*
X2480468Y2008564D01*
X2479156D01*
X2478500Y2009220D01*
Y2011844D01*
X2479156Y2012500D01*
X2480468D01*
X2481124Y2011844D01*
X2482436Y2012500D02*
X2483748D01*
X2483092D01*
Y2008564D01*
X2482436Y2009220D01*
X2487683Y2012500D02*
Y2008564D01*
X2485715Y2010532D01*
X2488339D01*
X1707376Y1829780D02*
X1708032Y1830436D01*
X1709344D01*
X1710000Y1829780D01*
Y1827156D01*
X1709344Y1826500D01*
X1708032D01*
X1707376Y1827156D01*
X1706064Y1826500D02*
X1704752D01*
X1705408D01*
Y1830436D01*
X1706064Y1829780D01*
X1700161Y1830436D02*
X1701473Y1829780D01*
X1702785Y1828468D01*
Y1827156D01*
X1702128Y1826500D01*
X1700817D01*
X1700161Y1827156D01*
Y1827812D01*
X1700817Y1828468D01*
X1702785D01*
X2591220Y1435376D02*
X2590564Y1436032D01*
Y1437344D01*
X2591220Y1438000D01*
X2593844D01*
X2594500Y1437344D01*
Y1436032D01*
X2593844Y1435376D01*
X2594500Y1434064D02*
Y1432752D01*
Y1433408D01*
X2590564D01*
X2591220Y1434064D01*
X2590564Y1430785D02*
Y1428161D01*
X2591220D01*
X2593844Y1430785D01*
X2594500D01*
X1764124Y1560720D02*
X1763468Y1560064D01*
X1762156D01*
X1761500Y1560720D01*
Y1563344D01*
X1762156Y1564000D01*
X1763468D01*
X1764124Y1563344D01*
X1765436Y1564000D02*
X1766748D01*
X1766092D01*
Y1560064D01*
X1765436Y1560720D01*
X1768715D02*
X1769371Y1560064D01*
X1770683D01*
X1771339Y1560720D01*
Y1561376D01*
X1770683Y1562032D01*
X1771339Y1562688D01*
Y1563344D01*
X1770683Y1564000D01*
X1769371D01*
X1768715Y1563344D01*
Y1562688D01*
X1769371Y1562032D01*
X1768715Y1561376D01*
Y1560720D01*
X1769371Y1562032D02*
X1770683D01*
X1780376Y1640280D02*
X1781032Y1640936D01*
X1782344D01*
X1783000Y1640280D01*
Y1637656D01*
X1782344Y1637000D01*
X1781032D01*
X1780376Y1637656D01*
X1779064Y1637000D02*
X1777752D01*
X1778408D01*
Y1640936D01*
X1779064Y1640280D01*
X1775784Y1637656D02*
X1775129Y1637000D01*
X1773817D01*
X1773161Y1637656D01*
Y1640280D01*
X1773817Y1640936D01*
X1775129D01*
X1775784Y1640280D01*
Y1639624D01*
X1775129Y1638968D01*
X1773161D01*
X1665124Y1864720D02*
X1664468Y1864064D01*
X1663156D01*
X1662500Y1864720D01*
Y1867344D01*
X1663156Y1868000D01*
X1664468D01*
X1665124Y1867344D01*
X1669060Y1868000D02*
X1666436D01*
X1669060Y1865376D01*
Y1864720D01*
X1668404Y1864064D01*
X1667092D01*
X1666436Y1864720D01*
X1672995Y1868000D02*
X1670371D01*
X1672995Y1865376D01*
Y1864720D01*
X1672339Y1864064D01*
X1671027D01*
X1670371Y1864720D01*
X2591220Y1490876D02*
X2590564Y1491532D01*
Y1492844D01*
X2591220Y1493500D01*
X2593844D01*
X2594500Y1492844D01*
Y1491532D01*
X2593844Y1490876D01*
X2594500Y1486940D02*
Y1489564D01*
X2591876Y1486940D01*
X2591220D01*
X2590564Y1487596D01*
Y1488908D01*
X2591220Y1489564D01*
Y1485629D02*
X2590564Y1484973D01*
Y1483661D01*
X2591220Y1483005D01*
X2591876D01*
X2592532Y1483661D01*
Y1484317D01*
Y1483661D01*
X2593188Y1483005D01*
X2593844D01*
X2594500Y1483661D01*
Y1484973D01*
X2593844Y1485629D01*
X2473124Y1868220D02*
X2472468Y1867564D01*
X2471156D01*
X2470500Y1868220D01*
Y1870844D01*
X2471156Y1871500D01*
X2472468D01*
X2473124Y1870844D01*
X2477060Y1871500D02*
X2474436D01*
X2477060Y1868876D01*
Y1868220D01*
X2476404Y1867564D01*
X2475092D01*
X2474436Y1868220D01*
X2480339Y1871500D02*
Y1867564D01*
X2478371Y1869532D01*
X2480995D01*
X2591220Y1545376D02*
X2590564Y1546032D01*
Y1547344D01*
X2591220Y1548000D01*
X2593844D01*
X2594500Y1547344D01*
Y1546032D01*
X2593844Y1545376D01*
X2594500Y1541440D02*
Y1544064D01*
X2591876Y1541440D01*
X2591220D01*
X2590564Y1542096D01*
Y1543408D01*
X2591220Y1544064D01*
X2590564Y1537505D02*
Y1540129D01*
X2592532D01*
X2591876Y1538817D01*
Y1538161D01*
X2592532Y1537505D01*
X2593844D01*
X2594500Y1538161D01*
Y1539473D01*
X2593844Y1540129D01*
X1675124Y1941720D02*
X1674468Y1941064D01*
X1673156D01*
X1672500Y1941720D01*
Y1944344D01*
X1673156Y1945000D01*
X1674468D01*
X1675124Y1944344D01*
X1679060Y1945000D02*
X1676436D01*
X1679060Y1942376D01*
Y1941720D01*
X1678404Y1941064D01*
X1677092D01*
X1676436Y1941720D01*
X1680371D02*
X1681027Y1941064D01*
X1682339D01*
X1682995Y1941720D01*
Y1942376D01*
X1682339Y1943032D01*
X1682995Y1943688D01*
Y1944344D01*
X1682339Y1945000D01*
X1681027D01*
X1680371Y1944344D01*
Y1943688D01*
X1681027Y1943032D01*
X1680371Y1942376D01*
Y1941720D01*
X1681027Y1943032D02*
X1682339D01*
X2590720Y1600376D02*
X2590064Y1601032D01*
Y1602344D01*
X2590720Y1603000D01*
X2593344D01*
X2594000Y1602344D01*
Y1601032D01*
X2593344Y1600376D01*
X2594000Y1596440D02*
Y1599064D01*
X2591376Y1596440D01*
X2590720D01*
X2590064Y1597096D01*
Y1598408D01*
X2590720Y1599064D01*
X2593344Y1595129D02*
X2594000Y1594473D01*
Y1593161D01*
X2593344Y1592505D01*
X2590720D01*
X2590064Y1593161D01*
Y1594473D01*
X2590720Y1595129D01*
X2591376D01*
X2592032Y1594473D01*
Y1592505D01*
X2590720Y1654876D02*
X2590064Y1655532D01*
Y1656844D01*
X2590720Y1657500D01*
X2593344D01*
X2594000Y1656844D01*
Y1655532D01*
X2593344Y1654876D01*
X2590720Y1653564D02*
X2590064Y1652908D01*
Y1651596D01*
X2590720Y1650940D01*
X2591376D01*
X2592032Y1651596D01*
Y1652252D01*
Y1651596D01*
X2592688Y1650940D01*
X2593344D01*
X2594000Y1651596D01*
Y1652908D01*
X2593344Y1653564D01*
X2594000Y1649628D02*
Y1648317D01*
Y1648973D01*
X2590064D01*
X2590720Y1649628D01*
X1692124Y1561720D02*
X1691468Y1561064D01*
X1690156D01*
X1689500Y1561720D01*
Y1564344D01*
X1690156Y1565000D01*
X1691468D01*
X1692124Y1564344D01*
X1693436Y1561720D02*
X1694092Y1561064D01*
X1695404D01*
X1696060Y1561720D01*
Y1562376D01*
X1695404Y1563032D01*
X1694748D01*
X1695404D01*
X1696060Y1563688D01*
Y1564344D01*
X1695404Y1565000D01*
X1694092D01*
X1693436Y1564344D01*
X1699995Y1565000D02*
X1697371D01*
X1699995Y1562376D01*
Y1561720D01*
X1699339Y1561064D01*
X1698027D01*
X1697371Y1561720D01*
X1711776Y1648780D02*
X1712432Y1649436D01*
X1713744D01*
X1714400Y1648780D01*
Y1646156D01*
X1713744Y1645500D01*
X1712432D01*
X1711776Y1646156D01*
X1710464Y1648780D02*
X1709808Y1649436D01*
X1708496D01*
X1707840Y1648780D01*
Y1648124D01*
X1708496Y1647468D01*
X1709152D01*
X1708496D01*
X1707840Y1646812D01*
Y1646156D01*
X1708496Y1645500D01*
X1709808D01*
X1710464Y1646156D01*
X1706528Y1648780D02*
X1705873Y1649436D01*
X1704561D01*
X1703905Y1648780D01*
Y1648124D01*
X1704561Y1647468D01*
X1705217D01*
X1704561D01*
X1703905Y1646812D01*
Y1646156D01*
X1704561Y1645500D01*
X1705873D01*
X1706528Y1646156D01*
X1981376Y1897280D02*
X1982032Y1897936D01*
X1983344D01*
X1984000Y1897280D01*
Y1894656D01*
X1983344Y1894000D01*
X1982032D01*
X1981376Y1894656D01*
X1980064Y1897280D02*
X1979408Y1897936D01*
X1978096D01*
X1977440Y1897280D01*
Y1896624D01*
X1978096Y1895968D01*
X1978752D01*
X1978096D01*
X1977440Y1895312D01*
Y1894656D01*
X1978096Y1894000D01*
X1979408D01*
X1980064Y1894656D01*
X1973505Y1897936D02*
X1974817Y1897280D01*
X1976129Y1895968D01*
Y1894656D01*
X1975473Y1894000D01*
X1974161D01*
X1973505Y1894656D01*
Y1895312D01*
X1974161Y1895968D01*
X1976129D01*
X2239280Y2143624D02*
X2239936Y2142968D01*
Y2141656D01*
X2239280Y2141000D01*
X2236656D01*
X2236000Y2141656D01*
Y2142968D01*
X2236656Y2143624D01*
X2239936Y2144936D02*
Y2147560D01*
X2239280D01*
X2236656Y2144936D01*
X2236000D01*
X2239280Y2148871D02*
X2239936Y2149527D01*
Y2150839D01*
X2239280Y2151495D01*
X2236656D01*
X2236000Y2150839D01*
Y2149527D01*
X2236656Y2148871D01*
X2239280D01*
X2193376Y2196280D02*
X2194032Y2196936D01*
X2195344D01*
X2196000Y2196280D01*
Y2193656D01*
X2195344Y2193000D01*
X2194032D01*
X2193376Y2193656D01*
X2192064Y2196936D02*
X2189440D01*
Y2196280D01*
X2192064Y2193656D01*
Y2193000D01*
X2188128D02*
X2186817D01*
X2187473D01*
Y2196936D01*
X2188128Y2196280D01*
X2034624Y2056220D02*
X2033968Y2055564D01*
X2032656D01*
X2032000Y2056220D01*
Y2058844D01*
X2032656Y2059500D01*
X2033968D01*
X2034624Y2058844D01*
X2035936Y2055564D02*
X2038560D01*
Y2056220D01*
X2035936Y2058844D01*
Y2059500D01*
X2042495Y2055564D02*
X2041183Y2056220D01*
X2039871Y2057532D01*
Y2058844D01*
X2040527Y2059500D01*
X2041839D01*
X2042495Y2058844D01*
Y2058188D01*
X2041839Y2057532D01*
X2039871D01*
X2113780Y2074624D02*
X2114436Y2073968D01*
Y2072656D01*
X2113780Y2072000D01*
X2111156D01*
X2110500Y2072656D01*
Y2073968D01*
X2111156Y2074624D01*
X2114436Y2075936D02*
Y2078560D01*
X2113780D01*
X2111156Y2075936D01*
X2110500D01*
X2114436Y2079872D02*
Y2082495D01*
X2113780D01*
X2111156Y2079872D01*
X2110500D01*
X2018220Y2086876D02*
X2017564Y2087532D01*
Y2088844D01*
X2018220Y2089500D01*
X2020844D01*
X2021500Y2088844D01*
Y2087532D01*
X2020844Y2086876D01*
X2017564Y2085564D02*
Y2082940D01*
X2018220D01*
X2020844Y2085564D01*
X2021500D01*
X2018220Y2081628D02*
X2017564Y2080973D01*
Y2079661D01*
X2018220Y2079005D01*
X2018876D01*
X2019532Y2079661D01*
X2020188Y2079005D01*
X2020844D01*
X2021500Y2079661D01*
Y2080973D01*
X2020844Y2081628D01*
X2020188D01*
X2019532Y2080973D01*
X2018876Y2081628D01*
X2018220D01*
X2019532Y2080973D02*
Y2079661D01*
X2495280Y2202124D02*
X2495936Y2201468D01*
Y2200156D01*
X2495280Y2199500D01*
X2492656D01*
X2492000Y2200156D01*
Y2201468D01*
X2492656Y2202124D01*
X2495280Y2203436D02*
X2495936Y2204092D01*
Y2205404D01*
X2495280Y2206060D01*
X2494624D01*
X2493968Y2205404D01*
X2493312Y2206060D01*
X2492656D01*
X2492000Y2205404D01*
Y2204092D01*
X2492656Y2203436D01*
X2493312D01*
X2493968Y2204092D01*
X2494624Y2203436D01*
X2495280D01*
X2493968Y2204092D02*
Y2205404D01*
X2495280Y2207372D02*
X2495936Y2208027D01*
Y2209339D01*
X2495280Y2209995D01*
X2494624D01*
X2493968Y2209339D01*
Y2208683D01*
Y2209339D01*
X2493312Y2209995D01*
X2492656D01*
X2492000Y2209339D01*
Y2208027D01*
X2492656Y2207372D01*
X2447876Y2217780D02*
X2448532Y2218436D01*
X2449844D01*
X2450500Y2217780D01*
Y2215156D01*
X2449844Y2214500D01*
X2448532D01*
X2447876Y2215156D01*
X2446564Y2217780D02*
X2445908Y2218436D01*
X2444596D01*
X2443940Y2217780D01*
Y2217124D01*
X2444596Y2216468D01*
X2443940Y2215812D01*
Y2215156D01*
X2444596Y2214500D01*
X2445908D01*
X2446564Y2215156D01*
Y2215812D01*
X2445908Y2216468D01*
X2446564Y2217124D01*
Y2217780D01*
X2445908Y2216468D02*
X2444596D01*
X2440661Y2214500D02*
Y2218436D01*
X2442628Y2216468D01*
X2440005D01*
X2320476Y2162780D02*
X2321132Y2163436D01*
X2322444D01*
X2323100Y2162780D01*
Y2160156D01*
X2322444Y2159500D01*
X2321132D01*
X2320476Y2160156D01*
X2319164Y2162780D02*
X2318508Y2163436D01*
X2317196D01*
X2316540Y2162780D01*
Y2162124D01*
X2317196Y2161468D01*
X2316540Y2160812D01*
Y2160156D01*
X2317196Y2159500D01*
X2318508D01*
X2319164Y2160156D01*
Y2160812D01*
X2318508Y2161468D01*
X2319164Y2162124D01*
Y2162780D01*
X2318508Y2161468D02*
X2317196D01*
X2312605Y2163436D02*
X2315228D01*
Y2161468D01*
X2313917Y2162124D01*
X2313261D01*
X2312605Y2161468D01*
Y2160156D01*
X2313261Y2159500D01*
X2314573D01*
X2315228Y2160156D01*
X2359976Y2162780D02*
X2360632Y2163436D01*
X2361944D01*
X2362600Y2162780D01*
Y2160156D01*
X2361944Y2159500D01*
X2360632D01*
X2359976Y2160156D01*
X2358664Y2162780D02*
X2358008Y2163436D01*
X2356696D01*
X2356040Y2162780D01*
Y2162124D01*
X2356696Y2161468D01*
X2356040Y2160812D01*
Y2160156D01*
X2356696Y2159500D01*
X2358008D01*
X2358664Y2160156D01*
Y2160812D01*
X2358008Y2161468D01*
X2358664Y2162124D01*
Y2162780D01*
X2358008Y2161468D02*
X2356696D01*
X2352105Y2163436D02*
X2353417Y2162780D01*
X2354729Y2161468D01*
Y2160156D01*
X2354073Y2159500D01*
X2352761D01*
X2352105Y2160156D01*
Y2160812D01*
X2352761Y2161468D01*
X2354729D01*
X2275220Y2135376D02*
X2274564Y2136032D01*
Y2137344D01*
X2275220Y2138000D01*
X2277844D01*
X2278500Y2137344D01*
Y2136032D01*
X2277844Y2135376D01*
X2275220Y2134064D02*
X2274564Y2133408D01*
Y2132096D01*
X2275220Y2131440D01*
X2275876D01*
X2276532Y2132096D01*
X2277188Y2131440D01*
X2277844D01*
X2278500Y2132096D01*
Y2133408D01*
X2277844Y2134064D01*
X2277188D01*
X2276532Y2133408D01*
X2275876Y2134064D01*
X2275220D01*
X2276532Y2133408D02*
Y2132096D01*
X2274564Y2130128D02*
Y2127505D01*
X2275220D01*
X2277844Y2130128D01*
X2278500D01*
X2132100Y2214236D02*
Y2210300D01*
X2130132D01*
X2129476Y2210956D01*
Y2213580D01*
X2130132Y2214236D01*
X2132100D01*
X2128164Y2213580D02*
X2127508Y2214236D01*
X2126196D01*
X2125540Y2213580D01*
Y2212924D01*
X2126196Y2212268D01*
X2126852D01*
X2126196D01*
X2125540Y2211612D01*
Y2210956D01*
X2126196Y2210300D01*
X2127508D01*
X2128164Y2210956D01*
X2124228Y2213580D02*
X2123573Y2214236D01*
X2122261D01*
X2121605Y2213580D01*
Y2212924D01*
X2122261Y2212268D01*
X2122917D01*
X2122261D01*
X2121605Y2211612D01*
Y2210956D01*
X2122261Y2210300D01*
X2123573D01*
X2124228Y2210956D01*
X1738300Y1795936D02*
Y1792000D01*
Y1793312D01*
X1735676Y1795936D01*
X1737644Y1793968D01*
X1735676Y1792000D01*
X1734364D02*
X1733052D01*
X1733708D01*
Y1795936D01*
X1734364Y1795280D01*
X1797900Y1849036D02*
Y1845100D01*
Y1846412D01*
X1795276Y1849036D01*
X1797244Y1847068D01*
X1795276Y1845100D01*
X1791340D02*
X1793964D01*
X1791340Y1847724D01*
Y1848380D01*
X1791996Y1849036D01*
X1793308D01*
X1793964Y1848380D01*
X1636200Y1901336D02*
Y1897400D01*
Y1898712D01*
X1633576Y1901336D01*
X1635544Y1899368D01*
X1633576Y1897400D01*
X1632264Y1900680D02*
X1631608Y1901336D01*
X1630296D01*
X1629640Y1900680D01*
Y1900024D01*
X1630296Y1899368D01*
X1630952D01*
X1630296D01*
X1629640Y1898712D01*
Y1898056D01*
X1630296Y1897400D01*
X1631608D01*
X1632264Y1898056D01*
X1738300Y1936436D02*
Y1932500D01*
Y1933812D01*
X1735676Y1936436D01*
X1737644Y1934468D01*
X1735676Y1932500D01*
X1732396D02*
Y1936436D01*
X1734364Y1934468D01*
X1731740D01*
X1839800Y1936936D02*
Y1933000D01*
Y1934312D01*
X1837176Y1936936D01*
X1839144Y1934968D01*
X1837176Y1933000D01*
X1833240Y1936936D02*
X1835864D01*
Y1934968D01*
X1834552Y1935624D01*
X1833896D01*
X1833240Y1934968D01*
Y1933656D01*
X1833896Y1933000D01*
X1835208D01*
X1835864Y1933656D01*
X2555500Y1795236D02*
Y1791300D01*
Y1792612D01*
X2552876Y1795236D01*
X2554844Y1793268D01*
X2552876Y1791300D01*
X2548940Y1795236D02*
X2550252Y1794580D01*
X2551564Y1793268D01*
Y1791956D01*
X2550908Y1791300D01*
X2549596D01*
X2548940Y1791956D01*
Y1792612D01*
X2549596Y1793268D01*
X2551564D01*
X2563200Y1940136D02*
Y1936200D01*
Y1937512D01*
X2560576Y1940136D01*
X2562544Y1938168D01*
X2560576Y1936200D01*
X2559264Y1940136D02*
X2556640D01*
Y1939480D01*
X2559264Y1936856D01*
Y1936200D01*
X2465936Y1911500D02*
X2462000D01*
X2463312D01*
X2465936Y1914124D01*
X2463968Y1912156D01*
X2462000Y1914124D01*
X2465280Y1915436D02*
X2465936Y1916092D01*
Y1917404D01*
X2465280Y1918060D01*
X2464624D01*
X2463968Y1917404D01*
X2463312Y1918060D01*
X2462656D01*
X2462000Y1917404D01*
Y1916092D01*
X2462656Y1915436D01*
X2463312D01*
X2463968Y1916092D01*
X2464624Y1915436D01*
X2465280D01*
X2463968Y1916092D02*
Y1917404D01*
X1738300Y2014436D02*
Y2010500D01*
Y2011812D01*
X1735676Y2014436D01*
X1737644Y2012468D01*
X1735676Y2010500D01*
X1734364Y2011156D02*
X1733708Y2010500D01*
X1732396D01*
X1731740Y2011156D01*
Y2013780D01*
X1732396Y2014436D01*
X1733708D01*
X1734364Y2013780D01*
Y2013124D01*
X1733708Y2012468D01*
X1731740D01*
X1839800Y2014936D02*
Y2011000D01*
Y2012312D01*
X1837176Y2014936D01*
X1839144Y2012968D01*
X1837176Y2011000D01*
X1835864D02*
X1834552D01*
X1835208D01*
Y2014936D01*
X1835864Y2014280D01*
X1832585D02*
X1831928Y2014936D01*
X1830617D01*
X1829961Y2014280D01*
Y2011656D01*
X1830617Y2011000D01*
X1831928D01*
X1832585Y2011656D01*
Y2014280D01*
X2555500Y1443736D02*
Y1439800D01*
Y1441112D01*
X2552876Y1443736D01*
X2554844Y1441768D01*
X2552876Y1439800D01*
X2551564D02*
X2550252D01*
X2550908D01*
Y1443736D01*
X2551564Y1443080D01*
X2548285Y1439800D02*
X2546973D01*
X2547629D01*
Y1443736D01*
X2548285Y1443080D01*
X2555500Y1608136D02*
Y1604200D01*
Y1605512D01*
X2552876Y1608136D01*
X2554844Y1606168D01*
X2552876Y1604200D01*
X2551564D02*
X2550252D01*
X2550908D01*
Y1608136D01*
X2551564Y1607480D01*
X2545661Y1604200D02*
X2548285D01*
X2545661Y1606824D01*
Y1607480D01*
X2546317Y1608136D01*
X2547629D01*
X2548285Y1607480D01*
X2563234Y2008736D02*
Y2004800D01*
Y2006112D01*
X2560610Y2008736D01*
X2562578Y2006768D01*
X2560610Y2004800D01*
X2559298D02*
X2557986D01*
X2558643D01*
Y2008736D01*
X2559298Y2008080D01*
X2556019D02*
X2555363Y2008736D01*
X2554051D01*
X2553395Y2008080D01*
Y2007424D01*
X2554051Y2006768D01*
X2554707D01*
X2554051D01*
X2553395Y2006112D01*
Y2005456D01*
X2554051Y2004800D01*
X2555363D01*
X2556019Y2005456D01*
X2461500Y2008236D02*
Y2004300D01*
Y2005612D01*
X2458876Y2008236D01*
X2460844Y2006268D01*
X2458876Y2004300D01*
X2457564D02*
X2456252D01*
X2456908D01*
Y2008236D01*
X2457564Y2007580D01*
X2452317Y2004300D02*
Y2008236D01*
X2454284Y2006268D01*
X2451661D01*
X2555500Y1498536D02*
Y1494600D01*
Y1495912D01*
X2552876Y1498536D01*
X2554844Y1496568D01*
X2552876Y1494600D01*
X2551564D02*
X2550252D01*
X2550908D01*
Y1498536D01*
X2551564Y1497880D01*
X2545661Y1498536D02*
X2548285D01*
Y1496568D01*
X2546973Y1497224D01*
X2546317D01*
X2545661Y1496568D01*
Y1495256D01*
X2546317Y1494600D01*
X2547629D01*
X2548285Y1495256D01*
X2555500Y1662936D02*
Y1659000D01*
Y1660312D01*
X2552876Y1662936D01*
X2554844Y1660968D01*
X2552876Y1659000D01*
X2551564D02*
X2550252D01*
X2550908D01*
Y1662936D01*
X2551564Y1662280D01*
X2545661Y1662936D02*
X2546973Y1662280D01*
X2548285Y1660968D01*
Y1659656D01*
X2547629Y1659000D01*
X2546317D01*
X2545661Y1659656D01*
Y1660312D01*
X2546317Y1660968D01*
X2548285D01*
X2015800Y2010436D02*
Y2006500D01*
Y2007812D01*
X2013176Y2010436D01*
X2015144Y2008468D01*
X2013176Y2006500D01*
X2011864D02*
X2010552D01*
X2011208D01*
Y2010436D01*
X2011864Y2009780D01*
X2008585Y2010436D02*
X2005961D01*
Y2009780D01*
X2008585Y2007156D01*
Y2006500D01*
X2113300Y2009436D02*
Y2005500D01*
Y2006812D01*
X2110676Y2009436D01*
X2112644Y2007468D01*
X2110676Y2005500D01*
X2109364D02*
X2108052D01*
X2108708D01*
Y2009436D01*
X2109364Y2008780D01*
X2106084D02*
X2105429Y2009436D01*
X2104117D01*
X2103461Y2008780D01*
Y2008124D01*
X2104117Y2007468D01*
X2103461Y2006812D01*
Y2006156D01*
X2104117Y2005500D01*
X2105429D01*
X2106084Y2006156D01*
Y2006812D01*
X2105429Y2007468D01*
X2106084Y2008124D01*
Y2008780D01*
X2105429Y2007468D02*
X2104117D01*
X2555500Y1553336D02*
Y1549400D01*
Y1550712D01*
X2552876Y1553336D01*
X2554844Y1551368D01*
X2552876Y1549400D01*
X2551564D02*
X2550252D01*
X2550908D01*
Y1553336D01*
X2551564Y1552680D01*
X2548285Y1550056D02*
X2547629Y1549400D01*
X2546317D01*
X2545661Y1550056D01*
Y1552680D01*
X2546317Y1553336D01*
X2547629D01*
X2548285Y1552680D01*
Y1552024D01*
X2547629Y1551368D01*
X2545661D01*
X2555500Y1717736D02*
Y1713800D01*
Y1715112D01*
X2552876Y1717736D01*
X2554844Y1715768D01*
X2552876Y1713800D01*
X2548940D02*
X2551564D01*
X2548940Y1716424D01*
Y1717080D01*
X2549596Y1717736D01*
X2550908D01*
X2551564Y1717080D01*
X2547629D02*
X2546973Y1717736D01*
X2545661D01*
X2545005Y1717080D01*
Y1714456D01*
X2545661Y1713800D01*
X2546973D01*
X2547629Y1714456D01*
Y1717080D01*
X2563234Y2082736D02*
Y2078800D01*
Y2080112D01*
X2560610Y2082736D01*
X2562578Y2080768D01*
X2560610Y2078800D01*
X2556675D02*
X2559298D01*
X2556675Y2081424D01*
Y2082080D01*
X2557331Y2082736D01*
X2558643D01*
X2559298Y2082080D01*
X2555363Y2078800D02*
X2554051D01*
X2554707D01*
Y2082736D01*
X2555363Y2082080D01*
X2122700Y2174639D02*
Y2170703D01*
X2120076D01*
X2118764D02*
X2117452D01*
X2118108D01*
Y2174639D01*
X2118764Y2173983D01*
X1532900Y2020100D02*
Y2024036D01*
X1530932D01*
X1530276Y2023380D01*
Y2022068D01*
X1530932Y2021412D01*
X1532900D01*
X1528964Y2023380D02*
X1528308Y2024036D01*
X1526996D01*
X1526340Y2023380D01*
Y2022724D01*
X1526996Y2022068D01*
X1527652D01*
X1526996D01*
X1526340Y2021412D01*
Y2020756D01*
X1526996Y2020100D01*
X1528308D01*
X1528964Y2020756D01*
X2631000Y1445000D02*
Y1448936D01*
X2629032D01*
X2628376Y1448280D01*
Y1446968D01*
X2629032Y1446312D01*
X2631000D01*
X2627064Y1448936D02*
X2624440D01*
Y1448280D01*
X2627064Y1445656D01*
Y1445000D01*
X2632500Y1499500D02*
Y1503436D01*
X2630532D01*
X2629876Y1502780D01*
Y1501468D01*
X2630532Y1500812D01*
X2632500D01*
X2628564Y1502780D02*
X2627908Y1503436D01*
X2626596D01*
X2625940Y1502780D01*
Y1502124D01*
X2626596Y1501468D01*
X2625940Y1500812D01*
Y1500156D01*
X2626596Y1499500D01*
X2627908D01*
X2628564Y1500156D01*
Y1500812D01*
X2627908Y1501468D01*
X2628564Y1502124D01*
Y1502780D01*
X2627908Y1501468D02*
X2626596D01*
X2633500Y1553500D02*
Y1557436D01*
X2631532D01*
X2630876Y1556780D01*
Y1555468D01*
X2631532Y1554812D01*
X2633500D01*
X2629564Y1554156D02*
X2628908Y1553500D01*
X2627596D01*
X2626940Y1554156D01*
Y1556780D01*
X2627596Y1557436D01*
X2628908D01*
X2629564Y1556780D01*
Y1556124D01*
X2628908Y1555468D01*
X2626940D01*
X1553800Y1595700D02*
Y1599636D01*
X1551832D01*
X1551176Y1598980D01*
Y1597668D01*
X1551832Y1597012D01*
X1553800D01*
X1549864Y1595700D02*
X1548552D01*
X1549208D01*
Y1599636D01*
X1549864Y1598980D01*
X1546585D02*
X1545928Y1599636D01*
X1544617D01*
X1543961Y1598980D01*
Y1596356D01*
X1544617Y1595700D01*
X1545928D01*
X1546585Y1596356D01*
Y1598980D01*
X2633500Y1607500D02*
Y1611436D01*
X2631532D01*
X2630876Y1610780D01*
Y1609468D01*
X2631532Y1608812D01*
X2633500D01*
X2629564Y1607500D02*
X2628252D01*
X2628908D01*
Y1611436D01*
X2629564Y1610780D01*
X2626284Y1607500D02*
X2624973D01*
X2625628D01*
Y1611436D01*
X2626284Y1610780D01*
X2633500Y1662500D02*
Y1666436D01*
X2631532D01*
X2630876Y1665780D01*
Y1664468D01*
X2631532Y1663812D01*
X2633500D01*
X2629564Y1662500D02*
X2628252D01*
X2628908D01*
Y1666436D01*
X2629564Y1665780D01*
X2623661Y1662500D02*
X2626284D01*
X2623661Y1665124D01*
Y1665780D01*
X2624317Y1666436D01*
X2625628D01*
X2626284Y1665780D01*
X1553300Y1523900D02*
Y1527836D01*
X1551332D01*
X1550676Y1527180D01*
Y1525868D01*
X1551332Y1525212D01*
X1553300D01*
X1549364Y1523900D02*
X1548052D01*
X1548708D01*
Y1527836D01*
X1549364Y1527180D01*
X1546084D02*
X1545428Y1527836D01*
X1544117D01*
X1543461Y1527180D01*
Y1526524D01*
X1544117Y1525868D01*
X1544773D01*
X1544117D01*
X1543461Y1525212D01*
Y1524556D01*
X1544117Y1523900D01*
X1545428D01*
X1546084Y1524556D01*
X2639500Y1718500D02*
Y1722436D01*
X2637532D01*
X2636876Y1721780D01*
Y1720468D01*
X2637532Y1719812D01*
X2639500D01*
X2635564Y1718500D02*
X2634252D01*
X2634908D01*
Y1722436D01*
X2635564Y1721780D01*
X2630317Y1718500D02*
Y1722436D01*
X2632285Y1720468D01*
X2629661D01*
X1532800Y1795200D02*
Y1799136D01*
X1530832D01*
X1530176Y1798480D01*
Y1797168D01*
X1530832Y1796512D01*
X1532800D01*
X1528864Y1795200D02*
X1527552D01*
X1528208D01*
Y1799136D01*
X1528864Y1798480D01*
X1525585Y1799136D02*
X1522961D01*
Y1798480D01*
X1525585Y1795856D01*
Y1795200D01*
X1532800Y1735700D02*
Y1739636D01*
X1530832D01*
X1530176Y1738980D01*
Y1737668D01*
X1530832Y1737012D01*
X1532800D01*
X1528864Y1735700D02*
X1527552D01*
X1528208D01*
Y1739636D01*
X1528864Y1738980D01*
X1525585D02*
X1524928Y1739636D01*
X1523617D01*
X1522961Y1738980D01*
Y1738324D01*
X1523617Y1737668D01*
X1522961Y1737012D01*
Y1736356D01*
X1523617Y1735700D01*
X1524928D01*
X1525585Y1736356D01*
Y1737012D01*
X1524928Y1737668D01*
X1525585Y1738324D01*
Y1738980D01*
X1524928Y1737668D02*
X1523617D01*
X1532800Y1676200D02*
Y1680136D01*
X1530832D01*
X1530176Y1679480D01*
Y1678168D01*
X1530832Y1677512D01*
X1532800D01*
X1526240Y1676200D02*
X1528864D01*
X1526240Y1678824D01*
Y1679480D01*
X1526896Y1680136D01*
X1528208D01*
X1528864Y1679480D01*
X1524928D02*
X1524273Y1680136D01*
X1522961D01*
X1522305Y1679480D01*
Y1676856D01*
X1522961Y1676200D01*
X1524273D01*
X1524928Y1676856D01*
Y1679480D01*
X2556500Y2215000D02*
X2560436D01*
Y2216968D01*
X2559780Y2217624D01*
X2558468D01*
X2557812Y2216968D01*
Y2215000D01*
X2556500Y2221560D02*
Y2218936D01*
X2559124Y2221560D01*
X2559780D01*
X2560436Y2220904D01*
Y2219592D01*
X2559780Y2218936D01*
X2556500Y2222872D02*
Y2224183D01*
Y2223527D01*
X2560436D01*
X2559780Y2222872D01*
X2357000Y1564000D02*
Y1567936D01*
X2355032D01*
X2354376Y1567280D01*
Y1565968D01*
X2355032Y1565312D01*
X2357000D01*
X2355688D02*
X2354376Y1564000D01*
X2353064D02*
X2351752D01*
X2352408D01*
Y1567936D01*
X2353064Y1567280D01*
X2349784D02*
X2349129Y1567936D01*
X2347817D01*
X2347161Y1567280D01*
Y1566624D01*
X2347817Y1565968D01*
X2348473D01*
X2347817D01*
X2347161Y1565312D01*
Y1564656D01*
X2347817Y1564000D01*
X2349129D01*
X2349784Y1564656D01*
X2341000Y1563500D02*
Y1567436D01*
X2339032D01*
X2338376Y1566780D01*
Y1565468D01*
X2339032Y1564812D01*
X2341000D01*
X2339688D02*
X2338376Y1563500D01*
X2337064D02*
X2335752D01*
X2336408D01*
Y1567436D01*
X2337064Y1566780D01*
X2331817Y1563500D02*
Y1567436D01*
X2333784Y1565468D01*
X2331161D01*
X2590600Y1773400D02*
Y1777336D01*
X2588632D01*
X2587976Y1776680D01*
Y1775368D01*
X2588632Y1774712D01*
X2590600D01*
X2589288D02*
X2587976Y1773400D01*
X2584696D02*
Y1777336D01*
X2586664Y1775368D01*
X2584040D01*
X2580105Y1773400D02*
X2582729D01*
X2580105Y1776024D01*
Y1776680D01*
X2580761Y1777336D01*
X2582073D01*
X2582729Y1776680D01*
X2520900Y2029700D02*
Y2033636D01*
X2518932D01*
X2518276Y2032980D01*
Y2031668D01*
X2518932Y2031012D01*
X2520900D01*
X2519588D02*
X2518276Y2029700D01*
X2514996D02*
Y2033636D01*
X2516964Y2031668D01*
X2514340D01*
X2513029Y2032980D02*
X2512373Y2033636D01*
X2511061D01*
X2510405Y2032980D01*
Y2032324D01*
X2511061Y2031668D01*
X2511717D01*
X2511061D01*
X2510405Y2031012D01*
Y2030356D01*
X2511061Y2029700D01*
X2512373D01*
X2513029Y2030356D01*
X1686500Y1806500D02*
X1682564D01*
Y1804532D01*
X1683220Y1803876D01*
X1684532D01*
X1685188Y1804532D01*
Y1806500D01*
Y1805188D02*
X1686500Y1803876D01*
Y1800596D02*
X1682564D01*
X1684532Y1802564D01*
Y1799940D01*
X1682564Y1796005D02*
X1683220Y1797317D01*
X1684532Y1798628D01*
X1685844D01*
X1686500Y1797973D01*
Y1796661D01*
X1685844Y1796005D01*
X1685188D01*
X1684532Y1796661D01*
Y1798628D01*
X2592100Y1418900D02*
Y1422836D01*
X2590132D01*
X2589476Y1422180D01*
Y1420868D01*
X2590132Y1420212D01*
X2592100D01*
X2590788D02*
X2589476Y1418900D01*
X2586196D02*
Y1422836D01*
X2588164Y1420868D01*
X2585540D01*
X2584229Y1422836D02*
X2581605D01*
Y1422180D01*
X2584229Y1419556D01*
Y1418900D01*
X1727500Y1873500D02*
X1731436D01*
Y1875468D01*
X1730780Y1876124D01*
X1729468D01*
X1728812Y1875468D01*
Y1873500D01*
Y1874812D02*
X1727500Y1876124D01*
X1731436Y1880060D02*
Y1877436D01*
X1729468D01*
X1730124Y1878748D01*
Y1879404D01*
X1729468Y1880060D01*
X1728156D01*
X1727500Y1879404D01*
Y1878092D01*
X1728156Y1877436D01*
X1730780Y1881371D02*
X1731436Y1882027D01*
Y1883339D01*
X1730780Y1883995D01*
X1728156D01*
X1727500Y1883339D01*
Y1882027D01*
X1728156Y1881371D01*
X1730780D01*
X2592100Y1472900D02*
Y1476836D01*
X2590132D01*
X2589476Y1476180D01*
Y1474868D01*
X2590132Y1474212D01*
X2592100D01*
X2590788D02*
X2589476Y1472900D01*
X2585540Y1476836D02*
X2588164D01*
Y1474868D01*
X2586852Y1475524D01*
X2586196D01*
X2585540Y1474868D01*
Y1473556D01*
X2586196Y1472900D01*
X2587508D01*
X2588164Y1473556D01*
X2584229Y1472900D02*
X2582917D01*
X2583573D01*
Y1476836D01*
X2584229Y1476180D01*
X2527000Y1877500D02*
X2530936D01*
Y1879468D01*
X2530280Y1880124D01*
X2528968D01*
X2528312Y1879468D01*
Y1877500D01*
Y1878812D02*
X2527000Y1880124D01*
X2530936Y1884060D02*
Y1881436D01*
X2528968D01*
X2529624Y1882748D01*
Y1883404D01*
X2528968Y1884060D01*
X2527656D01*
X2527000Y1883404D01*
Y1882092D01*
X2527656Y1881436D01*
X2530936Y1887995D02*
X2530280Y1886683D01*
X2528968Y1885372D01*
X2527656D01*
X2527000Y1886027D01*
Y1887339D01*
X2527656Y1887995D01*
X2528312D01*
X2528968Y1887339D01*
Y1885372D01*
X2591600Y1526900D02*
Y1530836D01*
X2589632D01*
X2588976Y1530180D01*
Y1528868D01*
X2589632Y1528212D01*
X2591600D01*
X2590288D02*
X2588976Y1526900D01*
X2585040Y1530836D02*
X2587664D01*
Y1528868D01*
X2586352Y1529524D01*
X2585696D01*
X2585040Y1528868D01*
Y1527556D01*
X2585696Y1526900D01*
X2587008D01*
X2587664Y1527556D01*
X2583728Y1530836D02*
X2581105D01*
Y1530180D01*
X2583728Y1527556D01*
Y1526900D01*
X1728000Y1951500D02*
X1731936D01*
Y1953468D01*
X1731280Y1954124D01*
X1729968D01*
X1729312Y1953468D01*
Y1951500D01*
Y1952812D02*
X1728000Y1954124D01*
X1731936Y1958060D02*
X1731280Y1956748D01*
X1729968Y1955436D01*
X1728656D01*
X1728000Y1956092D01*
Y1957404D01*
X1728656Y1958060D01*
X1729312D01*
X1729968Y1957404D01*
Y1955436D01*
X1728000Y1959372D02*
Y1960683D01*
Y1960027D01*
X1731936D01*
X1731280Y1959372D01*
X2591100Y1581900D02*
Y1585836D01*
X2589132D01*
X2588476Y1585180D01*
Y1583868D01*
X2589132Y1583212D01*
X2591100D01*
X2589788D02*
X2588476Y1581900D01*
X2584540Y1585836D02*
X2585852Y1585180D01*
X2587164Y1583868D01*
Y1582556D01*
X2586508Y1581900D01*
X2585196D01*
X2584540Y1582556D01*
Y1583212D01*
X2585196Y1583868D01*
X2587164D01*
X2580605Y1581900D02*
X2583228D01*
X2580605Y1584524D01*
Y1585180D01*
X2581261Y1585836D01*
X2582573D01*
X2583228Y1585180D01*
X2521900Y1955200D02*
Y1959136D01*
X2519932D01*
X2519276Y1958480D01*
Y1957168D01*
X2519932Y1956512D01*
X2521900D01*
X2520588D02*
X2519276Y1955200D01*
X2515340Y1959136D02*
X2516652Y1958480D01*
X2517964Y1957168D01*
Y1955856D01*
X2517308Y1955200D01*
X2515996D01*
X2515340Y1955856D01*
Y1956512D01*
X2515996Y1957168D01*
X2517964D01*
X2511405Y1959136D02*
X2514029D01*
Y1957168D01*
X2512717Y1957824D01*
X2512061D01*
X2511405Y1957168D01*
Y1955856D01*
X2512061Y1955200D01*
X2513373D01*
X2514029Y1955856D01*
X2590600Y1635900D02*
Y1639836D01*
X2588632D01*
X2587976Y1639180D01*
Y1637868D01*
X2588632Y1637212D01*
X2590600D01*
X2589288D02*
X2587976Y1635900D01*
X2584040Y1639836D02*
X2585352Y1639180D01*
X2586664Y1637868D01*
Y1636556D01*
X2586008Y1635900D01*
X2584696D01*
X2584040Y1636556D01*
Y1637212D01*
X2584696Y1637868D01*
X2586664D01*
X2580105Y1639836D02*
X2581417Y1639180D01*
X2582729Y1637868D01*
Y1636556D01*
X2582073Y1635900D01*
X2580761D01*
X2580105Y1636556D01*
Y1637212D01*
X2580761Y1637868D01*
X2582729D01*
X1984500Y1944000D02*
X1988436D01*
Y1945968D01*
X1987780Y1946624D01*
X1986468D01*
X1985812Y1945968D01*
Y1944000D01*
Y1945312D02*
X1984500Y1946624D01*
X1988436Y1947936D02*
Y1950560D01*
X1987780D01*
X1985156Y1947936D01*
X1984500D01*
Y1953839D02*
X1988436D01*
X1986468Y1951871D01*
Y1954495D01*
X1983000Y1470000D02*
Y1466064D01*
X1984968D01*
X1985624Y1466720D01*
Y1468032D01*
X1984968Y1468688D01*
X1983000D01*
X1984312D02*
X1985624Y1470000D01*
X1986936D02*
X1988248D01*
X1987592D01*
Y1466064D01*
X1986936Y1466720D01*
X1990215Y1470000D02*
X1991527D01*
X1990871D01*
Y1466064D01*
X1990215Y1466720D01*
X1993495D02*
X1994151Y1466064D01*
X1995463D01*
X1996119Y1466720D01*
Y1467376D01*
X1995463Y1468032D01*
X1994807D01*
X1995463D01*
X1996119Y1468688D01*
Y1469344D01*
X1995463Y1470000D01*
X1994151D01*
X1993495Y1469344D01*
X1961500Y1470000D02*
Y1466064D01*
X1963468D01*
X1964124Y1466720D01*
Y1468032D01*
X1963468Y1468688D01*
X1961500D01*
X1962812D02*
X1964124Y1470000D01*
X1965436D02*
X1966748D01*
X1966092D01*
Y1466064D01*
X1965436Y1466720D01*
X1968715Y1470000D02*
X1970027D01*
X1969371D01*
Y1466064D01*
X1968715Y1466720D01*
X1974619Y1466064D02*
X1973307Y1466720D01*
X1971995Y1468032D01*
Y1469344D01*
X1972651Y1470000D01*
X1973963D01*
X1974619Y1469344D01*
Y1468688D01*
X1973963Y1468032D01*
X1971995D01*
X1804936Y1625500D02*
X1801656D01*
X1801000Y1626156D01*
Y1627468D01*
X1801656Y1628124D01*
X1804936D01*
X1801000Y1629436D02*
Y1630748D01*
Y1630092D01*
X1804936D01*
X1804280Y1629436D01*
X1801000Y1635339D02*
Y1632715D01*
X1803624Y1635339D01*
X1804280D01*
X1804936Y1634683D01*
Y1633372D01*
X1804280Y1632715D01*
X1753564Y1583000D02*
X1756844D01*
X1757500Y1582344D01*
Y1581032D01*
X1756844Y1580376D01*
X1753564D01*
X1757500Y1579064D02*
Y1577752D01*
Y1578408D01*
X1753564D01*
X1754220Y1579064D01*
Y1575784D02*
X1753564Y1575128D01*
Y1573817D01*
X1754220Y1573161D01*
X1754876D01*
X1755532Y1573817D01*
Y1574473D01*
Y1573817D01*
X1756188Y1573161D01*
X1756844D01*
X1757500Y1573817D01*
Y1575128D01*
X1756844Y1575784D01*
X1723436Y1628500D02*
X1720156D01*
X1719500Y1629156D01*
Y1630468D01*
X1720156Y1631124D01*
X1723436D01*
X1719500Y1632436D02*
Y1633748D01*
Y1633092D01*
X1723436D01*
X1722780Y1632436D01*
X1723436Y1635715D02*
Y1638339D01*
X1722780D01*
X1720156Y1635715D01*
X1719500D01*
X2166000Y2156564D02*
Y2159844D01*
X2166656Y2160500D01*
X2167968D01*
X2168624Y2159844D01*
Y2156564D01*
X2169936Y2157220D02*
X2170592Y2156564D01*
X2171904D01*
X2172560Y2157220D01*
Y2157876D01*
X2171904Y2158532D01*
X2171248D01*
X2171904D01*
X2172560Y2159188D01*
Y2159844D01*
X2171904Y2160500D01*
X2170592D01*
X2169936Y2159844D01*
X2176495Y2160500D02*
X2173871D01*
X2176495Y2157876D01*
Y2157220D01*
X2175839Y2156564D01*
X2174527D01*
X2173871Y2157220D01*
X1718000Y1818936D02*
Y1816312D01*
X1716688Y1815000D01*
X1715376Y1816312D01*
Y1818936D01*
X1714064Y1815000D02*
Y1818936D01*
X1712096D01*
X1711440Y1818280D01*
Y1816968D01*
X1712096Y1816312D01*
X1714064D01*
X1712752D02*
X1711440Y1815000D01*
X1710129Y1818280D02*
X1709473Y1818936D01*
X1708161D01*
X1707505Y1818280D01*
Y1817624D01*
X1708161Y1816968D01*
X1708817D01*
X1708161D01*
X1707505Y1816312D01*
Y1815656D01*
X1708161Y1815000D01*
X1709473D01*
X1710129Y1815656D01*
X1681500Y1879936D02*
Y1877312D01*
X1680188Y1876000D01*
X1678876Y1877312D01*
Y1879936D01*
X1677564Y1876000D02*
Y1879936D01*
X1675596D01*
X1674940Y1879280D01*
Y1877968D01*
X1675596Y1877312D01*
X1677564D01*
X1676252D02*
X1674940Y1876000D01*
X1671005Y1879936D02*
X1673628D01*
Y1877968D01*
X1672317Y1878624D01*
X1671661D01*
X1671005Y1877968D01*
Y1876656D01*
X1671661Y1876000D01*
X1672973D01*
X1673628Y1876656D01*
X2005000Y1885936D02*
Y1883312D01*
X2003688Y1882000D01*
X2002376Y1883312D01*
Y1885936D01*
X2001064Y1882000D02*
Y1885936D01*
X1999096D01*
X1998440Y1885280D01*
Y1883968D01*
X1999096Y1883312D01*
X2001064D01*
X1999752D02*
X1998440Y1882000D01*
X1997128D02*
X1995817D01*
X1996473D01*
Y1885936D01*
X1997128Y1885280D01*
X1993849D02*
X1993193Y1885936D01*
X1991881D01*
X1991225Y1885280D01*
Y1884624D01*
X1991881Y1883968D01*
X1992537D01*
X1991881D01*
X1991225Y1883312D01*
Y1882656D01*
X1991881Y1882000D01*
X1993193D01*
X1993849Y1882656D01*
X2605936Y1408000D02*
X2603312D01*
X2602000Y1409312D01*
X2603312Y1410624D01*
X2605936D01*
X2602000Y1411936D02*
X2605936D01*
Y1413904D01*
X2605280Y1414560D01*
X2603968D01*
X2603312Y1413904D01*
Y1411936D01*
Y1413248D02*
X2602000Y1414560D01*
Y1417839D02*
X2605936D01*
X2603968Y1415872D01*
Y1418495D01*
X2605936Y1463500D02*
X2603312D01*
X2602000Y1464812D01*
X2603312Y1466124D01*
X2605936D01*
X2602000Y1467436D02*
X2605936D01*
Y1469404D01*
X2605280Y1470060D01*
X2603968D01*
X2603312Y1469404D01*
Y1467436D01*
Y1468748D02*
X2602000Y1470060D01*
X2605936Y1473995D02*
X2605280Y1472683D01*
X2603968Y1471371D01*
X2602656D01*
X2602000Y1472027D01*
Y1473339D01*
X2602656Y1473995D01*
X2603312D01*
X2603968Y1473339D01*
Y1471371D01*
X2605936Y1518000D02*
X2603312D01*
X2602000Y1519312D01*
X2603312Y1520624D01*
X2605936D01*
X2602000Y1521936D02*
X2605936D01*
Y1523904D01*
X2605280Y1524560D01*
X2603968D01*
X2603312Y1523904D01*
Y1521936D01*
Y1523248D02*
X2602000Y1524560D01*
X2605280Y1525871D02*
X2605936Y1526527D01*
Y1527839D01*
X2605280Y1528495D01*
X2604624D01*
X2603968Y1527839D01*
X2603312Y1528495D01*
X2602656D01*
X2602000Y1527839D01*
Y1526527D01*
X2602656Y1525871D01*
X2603312D01*
X2603968Y1526527D01*
X2604624Y1525871D01*
X2605280D01*
X2603968Y1526527D02*
Y1527839D01*
X2606436Y1624500D02*
X2603812D01*
X2602500Y1625812D01*
X2603812Y1627124D01*
X2606436D01*
X2602500Y1628436D02*
X2606436D01*
Y1630404D01*
X2605780Y1631060D01*
X2604468D01*
X2603812Y1630404D01*
Y1628436D01*
Y1629748D02*
X2602500Y1631060D01*
Y1632372D02*
Y1633683D01*
Y1633027D01*
X2606436D01*
X2605780Y1632372D01*
X2602500Y1638275D02*
Y1635651D01*
X2605124Y1638275D01*
X2605780D01*
X2606436Y1637619D01*
Y1636307D01*
X2605780Y1635651D01*
X2605936Y1679500D02*
X2603312D01*
X2602000Y1680812D01*
X2603312Y1682124D01*
X2605936D01*
X2602000Y1683436D02*
X2605936D01*
Y1685404D01*
X2605280Y1686060D01*
X2603968D01*
X2603312Y1685404D01*
Y1683436D01*
Y1684748D02*
X2602000Y1686060D01*
Y1687371D02*
Y1688683D01*
Y1688027D01*
X2605936D01*
X2605280Y1687371D01*
X2602000Y1692619D02*
X2605936D01*
X2603968Y1690651D01*
Y1693275D01*
X2604936Y1764500D02*
X2602312D01*
X2601000Y1765812D01*
X2602312Y1767124D01*
X2604936D01*
X2601000Y1768436D02*
X2604936D01*
Y1770404D01*
X2604280Y1771060D01*
X2602968D01*
X2602312Y1770404D01*
Y1768436D01*
Y1769748D02*
X2601000Y1771060D01*
Y1772371D02*
Y1773683D01*
Y1773027D01*
X2604936D01*
X2604280Y1772371D01*
X2479500Y1883436D02*
Y1880812D01*
X2478188Y1879500D01*
X2476876Y1880812D01*
Y1883436D01*
X2475564Y1879500D02*
Y1883436D01*
X2473596D01*
X2472940Y1882780D01*
Y1881468D01*
X2473596Y1880812D01*
X2475564D01*
X2474252D02*
X2472940Y1879500D01*
X2471629Y1883436D02*
X2469005D01*
Y1882780D01*
X2471629Y1880156D01*
Y1879500D01*
X2478000Y1949936D02*
Y1947312D01*
X2476688Y1946000D01*
X2475376Y1947312D01*
Y1949936D01*
X2474064Y1946000D02*
Y1949936D01*
X2472096D01*
X2471440Y1949280D01*
Y1947968D01*
X2472096Y1947312D01*
X2474064D01*
X2472752D02*
X2471440Y1946000D01*
X2470128D02*
X2468817D01*
X2469473D01*
Y1949936D01*
X2470128Y1949280D01*
X2466849Y1946000D02*
X2465537D01*
X2466193D01*
Y1949936D01*
X2466849Y1949280D01*
X2477000Y2024436D02*
Y2021812D01*
X2475688Y2020500D01*
X2474376Y2021812D01*
Y2024436D01*
X2473064Y2020500D02*
Y2024436D01*
X2471096D01*
X2470440Y2023780D01*
Y2022468D01*
X2471096Y2021812D01*
X2473064D01*
X2471752D02*
X2470440Y2020500D01*
X2466505D02*
X2469128D01*
X2466505Y2023124D01*
Y2023780D01*
X2467161Y2024436D01*
X2468473D01*
X2469128Y2023780D01*
X1682000Y1956936D02*
Y1954312D01*
X1680688Y1953000D01*
X1679376Y1954312D01*
Y1956936D01*
X1678064Y1953000D02*
Y1956936D01*
X1676096D01*
X1675440Y1956280D01*
Y1954968D01*
X1676096Y1954312D01*
X1678064D01*
X1676752D02*
X1675440Y1953000D01*
X1674129Y1953656D02*
X1673473Y1953000D01*
X1672161D01*
X1671505Y1953656D01*
Y1956280D01*
X1672161Y1956936D01*
X1673473D01*
X1674129Y1956280D01*
Y1955624D01*
X1673473Y1954968D01*
X1671505D01*
D97*
X1700528Y1584898D02*
G03*
X1700528Y1584898I-492J0D01*
G01*
X2386189Y1510413D02*
G03*
X2386189Y1510413I-492J0D01*
G01*
X2396276Y2224606D02*
G03*
X2396276Y2224606I-492J0D01*
G01*
X1994894Y1481197D02*
G03*
X1994894Y1481197I-492J0D01*
G01*
X1795815Y1636685D02*
G03*
X1795815Y1636685I-492J0D01*
G01*
X1771528Y1584898D02*
G03*
X1771528Y1584898I-492J0D01*
G01*
X1715315Y1638185D02*
G03*
X1715315Y1638185I-492J0D01*
G01*
X2141276Y2219106D02*
G03*
X2141276Y2219106I-492J0D01*
G01*
D101*
X2606436Y1570500D02*
X2603812D01*
X2602500Y1571812D01*
X2603812Y1573124D01*
X2606436D01*
X2602500Y1574436D02*
X2606436D01*
Y1576404D01*
X2605780Y1577060D01*
X2604468D01*
X2603812Y1576404D01*
Y1574436D01*
Y1575748D02*
X2602500Y1577060D01*
Y1578372D02*
Y1579683D01*
Y1579027D01*
X2606436D01*
X2605780Y1578372D01*
Y1581651D02*
X2606436Y1582307D01*
Y1583619D01*
X2605780Y1584275D01*
X2603156D01*
X2602500Y1583619D01*
Y1582307D01*
X2603156Y1581651D01*
X2605780D01*
M02*
