M48
;Layer_Color=9474304
;FILE_FORMAT=2:5
INCH,LZ
;TYPE=PLATED
T1F00S00C0.01181
T2F00S00C0.01299
T3F00S00C0.02756
T4F00S00C0.02800
T5F00S00C0.03150
T6F00S00C0.03543
T7F00S00C0.03937
T8F00S00C0.04331
T9F00S00C0.05118
T10F00S00C0.06299
T11F00S00C0.07087
T12F00S00C0.07874
T13F00S00C0.12992
T14F00S00C0.13386
T15F00S00C0.15748
%
T01
X1558Y13825
X15365
X1514Y1384
X16Y13845
X16195Y13905
X17675Y13895
X17755Y139
X17885Y1389
X17655Y1382
X1872Y1389
X18775Y13895
X22435Y1397
X2249Y1395
X2353Y13965
X24265Y1396
X24345
X24425
X2449
X2455
X2467
X24635Y13995
X2469Y13785
X24955Y139
X2502Y13895
X2507Y139
X2512Y13905
X25735Y14045
X26485Y13855
X2647Y14105
X265Y1434
X2651Y1488
X26505Y15425
X2573Y1531
X25665Y15565
X2571Y15
X2572Y14755
X2571Y14595
X25715Y14225
X25135Y1527
X25085
X25045Y15275
X2501Y15295
X2502Y1547
X24975Y15515
Y1524
X2486
X2455Y1545
X242Y155
X241Y154
X2395Y1536
X23955Y15465
X24Y1549
X23605Y15485
X23555Y1559
X23875Y1502
X2403Y1505
X24025Y14985
Y1493
X2398Y14885
X2402Y1484
X24105
X2435Y14755
X2438Y14565
Y1447
X2449Y1444
X2454
X2456Y1455
X24625Y14565
X2447Y14605
X24495Y14325
X2457Y1428
X2466Y14205
X246925Y141325
X24685Y140825
X24625Y1481
Y1494
X24405Y15035
X23925Y1433
X2388Y1435
X23825Y14365
X23745Y14295
X23725Y14195
X238Y14205
X2352Y14585
X23435
X23425Y1448
X2333Y143
X23335Y14255
X2332Y142
X2339Y1423
X2329Y1433
X2318Y14295
X2315Y14255
X23185Y142
X2306Y1422
X2311Y14325
X2307Y14375
X22965Y1448
X22925Y14445
X2278Y1453
X22815Y14805
X22725Y1485
X22735Y151
X2274Y15175
X22665Y152
X22575Y15215
X22585Y15145
X2251Y15165
Y15025
X2239Y1507
X22315Y15035
X22255
X2219
X22015Y15045
X21995Y15145
X22145Y1519
X22165Y1528
X2219Y1533
X22135Y15455
X22165Y155
X22275Y15475
X2234Y1545
X22355Y15395
Y15505
X22475Y1554
X2253Y15615
X227Y15585
X2274Y15575
X2277Y15545
X22725Y15385
X22885Y15345
X22945Y1535
Y1524
X2288Y15235
X2302Y1524
X23105Y152
X2295Y1511
X22905Y151
X22965Y14825
X2303Y1462
X22485Y146
X2227Y14605
X2226Y1465
X22225Y1456
X22075Y1454
X22
X2196Y14955
X2225Y14905
X22305Y1495
Y1475
X2239Y14775
X2222Y1483
X22325Y1522
X2237
X2241Y15215
X21885Y1529
X2223Y14285
X2335Y1499
X23305Y1504
X2332Y1554
X23235Y15605
X2317Y15555
X21845Y15615
X2172Y155
X21715Y1544
Y1516
X21835Y1517
X21865Y1521
X21805Y15045
X2176Y1504
X21705Y15035
X2164Y1504
X21555
X2156Y1521
X2138Y1529
X2126Y15365
X21115Y15405
X2086Y1549
Y1559
X20885Y15285
X20625Y15045
X20525Y1476
X20885Y14715
X2096
X2108Y1468
X21185Y14535
X2124Y14455
X2133Y14425
X21425Y1428
X2146Y1417
X2158Y1411
X2163Y14245
X21655Y1435
X2169Y14385
X2171Y14305
X2177Y1441
X21685Y14545
X21595Y1448
X2146Y14625
X21425Y14935
X21355Y14945
X2122Y15075
X21175
X2114Y1504
X21115Y14995
X2098Y1486
X20805Y1444
X20785Y1439
X20745Y1436
X2069Y14285
X211
Y14385
X21705Y14805
X21675Y14985
X215Y15575
X21315Y15595
X2029Y15615
X20135
X1977Y15515
X1966425Y1555425
X1939Y156
X1947Y1517
X19525Y1476
X19585Y1467
X198Y14665
X1986Y1455
X1964Y14415
X1961Y14385
X1957Y14375
X19545Y1434
X1952Y14295
X19495Y14265
X1947Y14225
X1942Y14275
X19645Y14265
X19635Y1422
X19615Y1418
X1957
X1954Y14155
X197Y14275
X19705Y1432
X1998Y14225
X19945Y1419
X1992Y14145
X1988Y1411
X2003Y1426
X2015Y1496
X1997Y1518
X1927Y14785
X18895Y1504
X188075Y153225
X18795Y154
X1882Y15535
X1878Y1559
X186
X1862Y15505
X18655Y154
X1863Y15325
X18255Y15275
X1815Y15335
X18005Y1527
X1799Y15115
X18205
X1821Y14725
X18295Y14605
X1839Y14665
X18485Y1467
X1849Y1436
X18365Y14315
X1834Y14425
X18205Y14405
X18155Y14305
X18625Y1432
X17775Y1447
X1784Y1455
X17705Y14675
X1755Y14495
X1745Y14315
X1748Y1491
X1754Y14915
X17575Y14885
X1748Y1500768
X17405Y1505
Y1496
X171965Y149015
X1726Y1519949
X1737Y15295
X17355Y154
X172525Y1544
X17295Y1551
X1719Y1534
X17555Y1532
X1763Y15195
X1764Y1554
X177
X178
X18425Y15615
X171Y1551
X1706Y1522
X1708Y1505
X17135Y1506
Y1494
Y14855
X16985Y1482
X17035Y14735
X1704Y1444
X17075Y14465
X1701Y1439
X1712Y1436
X1715Y1439
X1714Y14215
X171Y1422
X1706Y1423
X1703Y1416
X16975Y14155
X16935Y141
X1689Y1411
X1691Y14285
X1679Y1454
X16445Y14535
X1641Y14835
X16475Y14935
X1638Y15005
X16425Y15105
X1636Y1518
X16305Y1516
X1618949Y1501449
X1624Y14845
X15885Y148
X1595929Y1496429
X15925Y15185
X1578Y15255
X15705Y1551
X15995Y1545
X16105Y1537
X16185Y15435
X1621Y155
X1619Y15555
X1629551Y1555551
X1635406Y1551095
X1642Y15445
X1644Y153
X166
X16745Y1506
X1661Y14785
X1659Y14215
X1631661Y1429839
X1615039Y1425461
X16165Y142
X16175Y1407
X16045Y14265
X1608Y14415
X16065Y14615
X1578Y1465
X1563Y1464
X15775Y1445
X15835Y1427
X1567Y141
X15205Y14285
X14995Y1413
X15155Y1491
X1515Y15665
X15095Y1608
X153Y1603
X15505Y1607
X1547Y16795
X15675Y16855
X1581
X15805Y16925
X1593Y1667
X1607Y1679
X16235Y1667
X1649Y1675
X1668Y1667
X1688Y1651
X16505Y16485
X1647Y16215
X16525Y16135
X16325Y1622
X16255Y1619
X16225Y16305
X1605779Y162928
X16105Y1615
Y1608
X16035Y161
X1598Y1614
X1581Y16105
X15795Y1606
X15745Y1607
Y1617
X15815Y1628
X15875Y16365
X1596Y16435
X15645Y16695
X1611051Y1714551
X16445Y1716
X1658Y1696
X16805Y1693
X1713Y16975
X171Y16205
X17
Y15875
X171
X169
X16785Y1594
X1671Y16265
X1648Y15635
X15995Y15655
X1702Y15645
X173Y15875
X174
X176
X177
X178
X17925Y15635
X18135Y1575
X1837406Y1604095
X18475Y16275
X1848Y16325
X1853Y1638
Y16235
X1869Y1617
X18635Y1581
Y16585
X18585Y1671
X18735Y16705
X18425Y16715
X18335Y1689
X18365Y16925
X18385Y1696602
X1845Y1704
X18475Y17095
X18535Y1713
X1804
X1798Y17095
X1799Y1704
X1787Y17
X1776Y17125
X17685Y1718
X17615Y17135
Y16985
X1764Y1682
X1772Y1684
X18035Y16715
X18235Y16795
X1827Y1683
X1828Y1688
X18445Y16445
X18195Y1624
X18Y1621
X179Y1618
X1787449Y1645
X1778
X1767Y16415
X176Y1621
X175
X174
X172Y16205
X17315Y1652
X1747
X1732Y16885
X1741Y17095
X1799Y1645
X18755Y1627
X18845Y1634
X1893Y16375
X1891Y1662
X1879Y1672
X18815Y1617
X189Y15945
X1879Y1581
X18905Y1569
X194574Y156476
X19575Y15645
X198639Y156461
X2008Y1583
X20285Y1596
X20165Y1656
X19925Y1667
X19825Y16655
X1963Y16755
X1959Y16795
X19515Y1683
X19545Y16875
X1954Y16925
X1949898Y1696602
X19505Y1707
X1955Y17045
X19545Y1711
X1992Y17025
X19955Y17045
X20005Y17025
X20045Y1706
X19705Y1641
X1949Y1636
X1938Y16385
X19445Y1657
X1913Y1629
X19215Y16045
X2048Y16
X20445Y16275
X2059Y1655
X20815Y16375
X21045Y16265
X21085Y163
X2108Y16205
X2117Y1621
X2115Y1609
X21335Y1605
X21315Y1597
X21395Y15975
X2131Y158775
X21295Y1582
X21405Y15795
X2148
X2163Y15715
X21675Y15655
X21855Y1567
X2187Y1575
X2182
X21815Y15925
X2163Y15915
X2175Y1628
X2177Y16365
X21545Y1638
X21485Y1634
X2143Y16305
X21325Y1629
X2127Y16295
X20995Y1657
X21015Y1712
X2117Y17055
X2124Y17115
X2157Y17055
X2163
X21685Y1706
X2174Y1705
X2186602Y1696602
X21835Y16925
X21855Y16875
X2186Y1683
X21865Y16775
X2186Y1673
X21825Y1662
X21625Y16565
X20815Y171
X20635Y17125
X2042
X20575Y15655
X20775
X2087
X2088Y15765
X2105Y15715
X2189Y1591
X21935Y1593
X21915Y15975
X2196Y1589
X2199Y15855
X22045Y16015
X22015Y1609
X21995Y16205
X2193Y162
X2213Y1632
X222
X2245
X2246Y1639
X22565Y1633
X22615Y16315
X2273Y16355
X22875Y16475
X2289Y16525
X23025Y16585
X2279Y1667
X2278Y16715
X2275Y16845
X22595Y16785
X2244Y16645
X223Y1677354
X22265Y1681
X22295Y16935
X2239Y16885
X22115Y16905
X22075Y17035
X2219Y1709
X2194Y1707
X21925Y17165
X2197398Y1696602
X21945Y1683
X2196Y16765
X22015Y1675
X21995Y16505
X2206Y16455
X2237Y1621
X2244Y162
X2248Y16095
X22395Y16055
X22335
X22315Y1588
X2235516Y1585516
X2224Y1575
X2223Y1568
X2255Y15685
X2254Y15765
X22675Y157625
X2261543Y1582957
X22675Y1589
X2274Y15885
X22795Y1589
X2284
X22885
X22945
X2297Y1598
X22935Y1601
X23055Y16
X2306Y1605
X2303Y1609
X231Y15985
X2315Y1595
X23145Y1589
X2319Y15925
X23225Y1589
X2315Y15645
X22895Y1564
X2283Y1565
X22745Y15705
X23425Y1631
X23375Y1651
X2336Y16955
X22685Y17165
X2381Y1702
X23965Y1667
X239628Y1619279
X2402Y1603
X24025Y1594
X2395Y15985
X23885Y16025
Y1594
X2387051Y1574051
X2378224Y1565776
X23675Y1574
X2361Y15765
X2356Y15805
X2364Y15875
X2369Y1598
X2361Y16005
X23665Y1619
X23505Y1622
X23475Y1627
X24145Y16235
X24205Y15965
X2418Y15785
X2458Y15955
Y1616
Y16245
X245Y17045
X2424Y1693
X25415Y17165
X25815
X2593Y17185
X25775Y17
X25755Y16705
X2571Y16565
Y1641
X25695Y1616
X257Y15855
X26515Y1597
X26505Y1651
X2651Y1705
X25785Y17215
X2579Y17465
X2586Y17915
X26555Y1806
X2541Y17215
X2523Y17385
X24625Y17405
X24515Y17355
X2437Y1721
X2422Y1749
X2432Y17685
X24405Y17755
X24555Y1788
X24675Y18045
X23695
X2386Y17325
X23405Y1743
X2339Y1783
X2338Y1806
X2322Y1797
X2317Y18015
X23065Y18005
Y1806
X23Y1801
X22945Y1799
X229Y1801
X22865Y1803
X22835Y17985
X2278949Y1798051
X22785Y17795
X2283Y1776
X22875Y1773
X2288Y17675
X22915Y17625
X22865Y17805
X226Y1773
X22525Y1764
X22305Y1765
X2223Y17455
X22405Y17275
X2254Y1728
X2268
X22545Y18045
X2197Y1807
X22055Y18365
X22155Y1782
X22735Y1856
X2284
X2307
X23405Y18365
X2136Y1825
X21275Y18665
X21085Y18565
X21Y1772
X2097Y1755
Y1742
X21035Y17355
X214Y17405
X2119Y17635
X20645Y1768
X2065Y1782
X20735
X2042Y17785
X2032Y17745
X20355Y17705
X2038Y1767
X2042Y1763
X20435Y17565
X2033043Y1743543
X2032Y1735
X2049Y1731
X2066Y173
X2047Y1792
X2178Y17805
X2174Y1773
X21845
X20305Y1786
X2031Y17905
X203Y1795
X2029Y1799
X1988Y1806
X19895Y1818
X1968Y18025
X19675Y17975
Y17925
X1968Y17875
X1987Y1783
X19885Y1765
X1989Y1743
X19965Y1739
X2008Y17475
X2014Y17355
X19745Y1732
X19665Y1736
X19615Y1742
X19365Y173
X1943Y172
X19815Y17245
X1932Y1765
X19305Y17845
X19535Y17965
X195Y18005
X19475Y1805
X1945Y1809
X1953Y18075
X1952Y1818
X1975Y1857
X18825Y1795
X1878Y1797
X18825Y1787362
X1882Y178
X1887Y17685
X1875Y17445
X1865Y17515
X187Y17275
X1855Y1721
X18445Y17195
X1844Y1734
X18365Y17285
X18325Y1724
Y1739
X1823Y1738
X18165Y1731
X1802Y1721
X17915Y172
X1776Y17235
X17615Y1723
X1745Y1724
X1743Y1745
X17605Y1742
X1762Y17495
X176978Y1738
X1793Y174
X1801Y17565
X18275Y17505
X18345Y177
X18435Y17755
X18505Y177
X18565Y1789
X18695Y1788
X18625Y1808
X1858Y180775
X18535Y18075
X1849
X18705Y1871
X1733Y1858
X1749Y17845
X1719Y1738
X17205Y17225
X17075Y17215
X16945Y17405
X1679Y17415
X16795Y17295
X16655Y17345
X1658Y1719
X16185Y1737
X1618Y17475
X15925Y1741
X15775
X1583Y17815
X1574Y17965
X16365Y1791
X1645Y1781
X1547406Y1798906
X1555Y17545
X1541Y17515
X15375Y17395
X15465Y17305
X1559Y1739
X1561Y18775
X15585Y1891
X15355Y18935
X15605Y1919
X15585Y198
X1557Y19965
X15405Y19935
X15395Y19785
X1538Y19705
X1508Y20215
X1496Y1917
X1568Y1912
X1592Y1915
X1594Y18765
X16405Y18995
X16275Y1926
X1635Y19675
X16215Y1979
X1629Y20035
X16375Y1997
X16455Y20035
X16Y20205
X157Y202
X15655Y1954
X1691Y1906
X17105Y19085
X17475Y1906
X1747Y1925
X17495Y19635
Y20025
X1719Y1976
X1722Y19425
X18215Y19655
X1846Y19605
X1861Y19655
X1858Y19945
X185Y1925
X18555Y19085
X18805Y18935
Y19295
X1901484Y1928984
Y1917016
X1966Y19315
X1997Y19325
X19975Y19
X20175Y1911
X19525Y1885
X1956Y19535
X19215Y19805
X19205Y19975
X19275Y2
X1879Y19945
X20735Y20275
X213Y19725
X2149Y1976
X2156Y19705
X21615Y1965
X21435Y19305
X21315Y1929
X21015Y1926
X21225Y1904
X21785Y19245
X2054Y1927
X22115Y1925
X22235Y19285
X2236Y19465
X2241Y1946
X2224Y1972
X2218Y19795
X22125Y1985
X2265Y1996153
X2268Y1975
X2291Y1931
X2305Y1928
X22705Y189
X22565Y1885
X22465Y18845
X2229Y1888
X2299Y2022
X23675Y20285
X2583Y19985
X2584Y1956
X2589Y19525
Y1941
X2582Y19395
X25735Y192
X2583Y19015
X2575Y18915
X2542Y1879
X25345Y18805
X25845Y2049
X26045Y2038
X2616Y2089
X26165Y21195
X26415Y211
X2642Y2134
X26025Y21435
X25815Y2149
Y2125
X25945Y21765
X25045Y21775
X2505Y21575
X2507Y21385
X26545Y2092
X2636Y20695
X24845Y21225
X2477Y2134
X2469Y21455
X24785Y21575
X2476Y2175
X2463Y2171
X24495Y2161
X2428Y2133
X2434Y2124
X24155Y2125
X24025Y21255
X24035Y2136
X24075Y2148
X23965Y2149
X23845Y2136
X23885Y21255
X2372Y2127
X2373Y21565
X23805Y21625
X23835Y21725
X2384Y21845
X24175Y21435
X23505Y20805
X23265Y2035
X22895Y21085
X2281
X22725Y21135
X225Y21195
X2225Y21095
X21985Y2114
X22155Y21415
X22305Y2179
X2245Y2176
X226Y2167
X22665Y218
X2226Y20715
X21815Y21065
X21715Y21175
X21575Y2125
X2169Y21365
X2177Y21445
X21395Y2147
X2127Y2153
X2123Y21435
X21155Y21295
X21065Y21305
Y2121
X20975Y21355
X2091Y2146
X21335Y21245
X2122Y2099
X20695Y21025
X2075504Y2058
X19935Y2052
X19895Y20625
X19865Y2072
X20045Y20755
X2005Y20835
X1997Y21035
X2008Y2112
X20175Y21085
Y21245
X20085Y2167
X19885Y21785
X1968Y2165
X19465Y21735
X1928Y2187
X1927Y2157
X193Y2141
X1923Y2119
X19315Y21045
X1949Y21035
X19545Y21235
X1957Y2145
X1968Y2066
X1976Y20515
X19815Y2042
X19605Y2045
X19525Y2054
X19165Y20495
X1923Y2081
X19315Y2213
X1926Y2232
X1943Y22335
X19605Y2223
X19785Y22215
X19775Y22445
X19745Y2191
X19595Y2199
X19905
X20105Y2191
X2006Y22135
X20315Y22385
X2165193Y2227693
X21885Y2242
X2214Y219
X2234Y2194
X22535Y2193
X2295Y21975
X22855Y2239
X2311Y22425
X23445Y22345
X23725Y2236
X2384Y22335
X2420193Y2234
X24435Y22255
X24835Y2247
X2498Y2246
X2504Y21975
X2574Y21935
X25745Y22205
X2591Y22295
X26175Y2235
X26375Y2233
X26315Y22135
X2651Y22065
X2605Y2209
T02
X1970362Y1537
X1965638
T03
X2186559Y1392
X2181539
X217652
X21715
X2604Y139313
Y14325
Y144863
Y1488
Y150313
Y15425
Y155763
Y1597
Y161163
Y1651
Y166663
Y1706
X2603Y174963
Y1789
X1733Y1817
X169363
X169637Y1878
X1657
X16575Y1955
X169687
X19785Y1884
X201787
X2455Y18815
X249437
X249287Y1948
X24535
X24525Y20225
X249187
T04
X21585Y13915
X21445Y14015
X21965Y1401
Y1395
Y1407
X21865Y14105
X218
X21735
X16785Y1417
X1667
X16545
X16425
Y1431
X16545
X1667
X16785
Y14445
X1667
X16545
X16425
X1639Y14645
X1651
X16635
X1675
X16725Y1558
X16425Y15515
X1647Y1593
Y16045
X16595Y1605
X167
X1671Y15945
X16615
X16355Y15935
X16585Y162
X2465Y1852
X23165Y18265
X15455Y1954
X15505Y20005
X23455Y201
X2371Y19845
X236Y1941
X23565Y1907
X24305Y1881
X24365Y19515
Y201
X2538625Y2012
X22465Y21525
X2202Y21285
X2184Y2205
X21775Y2237
X217
X21605
X21525
X2147Y2249
X21865
X2132106Y2219106
X239Y22245
X2409Y22395
X24155
X2425
X24315
X24395Y225
X2404
X2431Y22105
X24955Y2222
X2482Y2237
T05
X2604Y1402972
Y1422657
Y1458472
Y1478158
Y1512972
Y1532658
X2550555Y1541253
Y1486454
Y1431653
Y1596054
Y1650854
Y1705654
X2604Y1696157
Y1676472
Y1641158
Y1621472
Y1587158
Y1567472
X2603Y1759472
Y1779157
X2550555Y1783154
X24195Y17895
Y17995
Y1771
Y1761
X2388516
Y1771
Y17895
Y17995
X2185984Y17905
Y17805
X2183484Y1756
Y1746
X21525
Y1756
X2155Y17805
Y17905
X1763346Y1836555
X1723158Y1817
X1703472
X1631654Y1816445
X1603484Y17895
Y17795
X15725
Y17895
X1660945Y1753847
X15445Y18845
Y18945
X1575484
Y18845
X1605Y19155
Y19255
X1635984
Y19155
X1660945Y1894346
X1666842Y1878
X1686528
X1687028Y1955
X1667343
X1660945Y1972346
X1600484Y19735
Y19635
X15695
Y19735
X1762445Y1972846
Y1894847
X18705Y1966
Y1976
X1901484
Y1966
X1938445Y1968346
X1988342Y1884
X2008028
X2035945Y1967347
X2463342Y1948
X2483028
X2456555Y1928654
X2464842Y18815
X2484528
X2456555Y1996153
X2462342Y20225
X2482028
X2558289Y1996654
Y1928104
Y2070654
X2456555Y2070153
X2282Y2045
Y2035
X2251016
Y2045
T06
X2480575Y1401653
X2510575
X2530575
X2550555
X2530575Y1431653
X2510575
Y1456454
X2530575
X2550555
X2530575Y1486454
X2510575
Y1511254
X2530575
X2550555
X2530575Y1541253
X2510575
X2480575
Y1511254
Y1486454
Y1456454
Y1431653
X1550039Y142998
Y1420039
Y141
X154Y141502
Y1425059
Y1435098
X15405Y148677
Y1496809
Y1506848
X1550539Y150173
Y1491789
Y148175
X1551039Y15535
X1541Y155852
Y1568559
Y1578598
X1551039Y157348
Y1563539
X169Y16005
X17
X171
Y16105
X17
X169
X172
X173
X174
X175
X176
X177
X178
X179
X18
X181
Y16005
X18
X179
X178
X177
X176
X175
X174
X173
X172
X2480575Y1596054
Y1620853
Y1650854
Y1675653
Y1705654
Y1566053
X2510575
X2530575
X2550555
X2530575Y1596054
X2510575
Y1620853
X2530575
X2550555
X2530575Y1650854
X2510575
Y1675653
X2530575
X2550555
X2530575Y1705654
X2510575
Y1753153
X2530575
X2550555
X2530575Y1783154
X2510575
X2480575
Y1753153
X1793346Y1766575
X1763346
Y1796575
Y1816575
X1793346
Y1836555
Y1796575
X1730925Y1783846
Y1753847
X1700925
X1680925
Y1783846
X1660945
X1700925
X1631654Y1836425
Y1856425
X1601653
Y1836425
Y1816445
Y1886425
X1631654
X1680925Y1894346
X1700925
Y1924347
X1680925
X1660945
X1680925Y1972346
X1700925
Y2002346
X1680925
X1660945
X1730925
Y1972346
Y1924347
Y1894346
X1782425Y1894847
X1802425
X1832425
Y1924846
X1802425
X1782425
X1762445
X1782425Y1972846
X1802425
X1832425
Y2002847
X1802425
X1782425
X1762445
X1938445Y1998347
X1958425
X1978425
Y1968346
X1958425
X2008425
Y1998347
X2035945Y1997346
X2055925
X2075925
Y1967347
X2055925
X2105925
Y1997346
X2386575Y1996153
X2416575
X2436575
Y1966154
X2456555
X2488309Y1966653
Y1996654
Y1928104
Y1898104
X2456555Y1898653
X2436575
X2416575
Y1928654
X2436575
X2386575
Y1898653
Y1966154
X2416575
X2518309Y1966653
X2538309
X2558289
X2538309Y1996654
X2518309
Y1928104
X2538309
Y1898104
X2558289
X2518309
Y2040653
X2538309
X2558289
X2538309Y2070654
X2518309
X262Y21645
Y21745
X2488309Y2070654
Y2040653
X2456555Y2040154
X2436575
X2416575
Y2070153
X2436575
X2386575
Y2040154
T07
X1673319Y1382681
X16585
X1643681
X191Y1407441
Y1437559
X1673319Y1580319
X16585
X1643681
X25555Y2170472
X2652Y2178858
Y2161142
X2262Y2093343
Y2073657
X25555Y22
T08
X20575Y1462
X20475
X18955Y14615
X18855
X1766Y14855
Y140676
T09
X2642158Y218378
Y215622
T10
X2626579Y1540757
Y1520757
Y1486458
Y1466457
Y1432158
Y1412158
X1524921Y1642264
Y1662264
Y1701764
X1967Y1601008
Y1576992
X2626579Y1575058
Y1595057
Y1629358
Y1649357
Y1683657
Y1703658
X26265Y1747
Y1767
Y1787
Y18265
Y18465
Y18665
X1525Y1866815
Y1846815
Y1826815
X1524921Y1781264
Y1761264
Y1721764
X1525Y1886815
Y1906815
Y1926815
Y1946815
Y1966815
Y1986815
Y2006815
X26265Y20065
Y19865
Y19665
Y19465
Y19265
Y19065
Y18865
X2264842Y2217079
X2244843
X2218343
X2198343
X2520342Y2215579
X2540343
T11
X23295Y2173842
X20745Y21595
Y2114342
X23295Y2219
T12
X2094504Y2182
X2076
X2057496
X2066059Y2232
X2086039
T13
X1515Y140252
Y144248
X15155Y147427
Y151423
X1516Y154602
Y158598
T14
X15835Y13855
X2391Y14025
X2568Y13855
X15835Y2014
X20035Y22395
X2568
T15
X22495Y1695
Y19295
M30
