%FSLAX25Y25*%
%MOIN*%
G70*
G01*
G75*
G04 Layer_Color=128*
%ADD10R,0.01378X0.05512*%
%ADD11R,0.17716X0.12992*%
%ADD12R,0.07874X0.07087*%
%ADD13O,0.00787X0.02362*%
%ADD14O,0.01772X0.04528*%
%ADD15R,0.03740X0.02362*%
%ADD16R,0.04528X0.02362*%
%ADD17O,0.06299X0.01772*%
%ADD18R,0.05118X0.07480*%
%ADD19O,0.07087X0.02362*%
%ADD20O,0.02362X0.07284*%
%ADD21O,0.07284X0.02362*%
%ADD22R,0.03543X0.02953*%
%ADD23R,0.04331X0.11221*%
%ADD24R,0.22244X0.20866*%
%ADD25R,0.08268X0.08071*%
%ADD26R,0.14488X0.05000*%
%ADD27O,0.05512X0.08465*%
%ADD28R,0.05906X0.07874*%
%ADD29R,0.03543X0.03347*%
%ADD30R,0.05118X0.03937*%
%ADD31O,0.05512X0.01772*%
%ADD32O,0.05118X0.01772*%
%ADD33R,0.03150X0.06496*%
%ADD34R,0.03543X0.03150*%
%ADD35R,0.01969X0.02362*%
%ADD36R,0.03937X0.05118*%
%ADD37R,0.03150X0.03543*%
%ADD38R,0.02362X0.04528*%
%ADD39R,0.03347X0.03543*%
%ADD40R,0.02953X0.03543*%
%ADD41R,0.06496X0.03150*%
%ADD42R,0.07874X0.05906*%
%ADD43R,0.05512X0.01378*%
%ADD44R,0.12992X0.17716*%
%ADD45O,0.01772X0.05118*%
%ADD46C,0.03937*%
%ADD47C,0.01000*%
%ADD48C,0.00787*%
%ADD49C,0.02953*%
%ADD50C,0.03937*%
%ADD51C,0.01969*%
%ADD52C,0.04331*%
%ADD53C,0.02000*%
%ADD54C,0.07874*%
%ADD55C,0.08661*%
%ADD56C,0.06299*%
%ADD57C,0.05906*%
%ADD58C,0.01181*%
%ADD59C,0.11811*%
%ADD60C,0.02756*%
%ADD61C,0.01575*%
%ADD62C,0.05906*%
%ADD63C,0.06299*%
%ADD64C,0.06000*%
%ADD65C,0.11811*%
%ADD66C,0.07874*%
%ADD67R,0.05906X0.05906*%
%ADD68R,0.05906X0.05906*%
%ADD69O,0.04331X0.04724*%
%ADD70P,0.08097X8X292.5*%
%ADD71C,0.07480*%
%ADD72C,0.05512*%
%ADD73R,0.05512X0.09843*%
%ADD74O,0.05512X0.09843*%
%ADD75C,0.08661*%
%ADD76R,0.09843X0.05512*%
%ADD77O,0.09843X0.05512*%
%ADD78C,0.02598*%
%ADD79C,0.03150*%
%ADD80C,0.05000*%
%ADD81R,0.09843X0.14961*%
%ADD82R,0.03347X0.02559*%
%ADD83R,0.06496X0.04921*%
%ADD84R,0.05000X0.14488*%
%ADD85R,0.43307X0.31102*%
%ADD86R,0.04331X0.11417*%
%ADD87R,0.08858X0.09449*%
%ADD88R,0.08858X0.11417*%
%ADD89R,0.06890X0.08268*%
%ADD90R,0.06890X0.07087*%
%ADD91R,0.06890X0.11417*%
%ADD92R,0.14961X0.09843*%
%ADD93R,0.04921X0.06496*%
%ADD94C,0.09843*%
%ADD95C,0.11417*%
%ADD96C,0.04724*%
%ADD97C,0.00984*%
%ADD98C,0.02362*%
%ADD99C,0.00800*%
%ADD100C,0.11811*%
D34*
X1763161Y1568213D02*
D03*
X1769264D02*
D03*
X1787449Y1639000D02*
D03*
X1793551D02*
D03*
X1691661Y1568213D02*
D03*
X1697764D02*
D03*
X1706949Y1640500D02*
D03*
X1713051D02*
D03*
X1986051Y1473500D02*
D03*
X1979949D02*
D03*
X1959449D02*
D03*
X1965551D02*
D03*
D37*
X2025500Y2092051D02*
D03*
Y2085949D02*
D03*
X2282500Y2142051D02*
D03*
Y2135949D02*
D03*
X2350000Y1553449D02*
D03*
Y1559551D02*
D03*
X2340500Y1553449D02*
D03*
Y1559551D02*
D03*
D39*
X2381000Y1500150D02*
D03*
Y1493850D02*
D03*
D41*
X2383500Y2210406D02*
D03*
Y2198594D02*
D03*
X2192000Y2188906D02*
D03*
Y2177094D02*
D03*
X2445500Y2210406D02*
D03*
Y2198594D02*
D03*
X2129000Y2204406D02*
D03*
Y2192595D02*
D03*
D46*
X1493500Y1382000D02*
D03*
X2656500D02*
D03*
Y2247500D02*
D03*
D81*
X2300598Y2095295D02*
D03*
Y2069213D02*
D03*
X2049981Y2068213D02*
D03*
Y2094296D02*
D03*
X2089481Y2068213D02*
D03*
Y2094296D02*
D03*
X2470902Y2196205D02*
D03*
Y2222287D02*
D03*
X2306561Y2122705D02*
D03*
Y2148787D02*
D03*
X2346061Y2122705D02*
D03*
Y2148787D02*
D03*
D82*
X1690390Y1581453D02*
D03*
Y1577713D02*
D03*
Y1573973D02*
D03*
X1700035D02*
D03*
Y1577713D02*
D03*
Y1581453D02*
D03*
X1785677Y1633240D02*
D03*
Y1629500D02*
D03*
Y1625760D02*
D03*
X1795323D02*
D03*
Y1629500D02*
D03*
Y1633240D02*
D03*
X1761390Y1581453D02*
D03*
Y1577713D02*
D03*
Y1573973D02*
D03*
X1771035D02*
D03*
Y1577713D02*
D03*
Y1581453D02*
D03*
X1705177Y1634740D02*
D03*
Y1631000D02*
D03*
Y1627260D02*
D03*
X1714823D02*
D03*
Y1631000D02*
D03*
Y1634740D02*
D03*
D83*
X2587500Y1670504D02*
D03*
Y1683496D02*
D03*
X2587000Y1754004D02*
D03*
Y1766996D02*
D03*
X2588500Y1399504D02*
D03*
Y1412496D02*
D03*
Y1453504D02*
D03*
Y1466496D02*
D03*
X2588000Y1507504D02*
D03*
Y1520496D02*
D03*
X2587500Y1562504D02*
D03*
Y1575496D02*
D03*
X2587000Y1616504D02*
D03*
Y1629496D02*
D03*
X1978500Y1941004D02*
D03*
Y1953996D02*
D03*
D84*
X2380500Y1521043D02*
D03*
X2370500D02*
D03*
X2360500D02*
D03*
X2350500D02*
D03*
X2340500D02*
D03*
X2330500D02*
D03*
X2320500D02*
D03*
X2320500Y1539449D02*
D03*
X2330500D02*
D03*
X2340500D02*
D03*
X2350500D02*
D03*
X2360500D02*
D03*
X2370500D02*
D03*
X2380500D02*
D03*
X1986882Y1489268D02*
D03*
X1976882D02*
D03*
X1966882D02*
D03*
X1956882D02*
D03*
X1956882Y1507673D02*
D03*
X1966882D02*
D03*
X1976882D02*
D03*
X1986882D02*
D03*
D85*
X2413500Y2185236D02*
D03*
X2158500Y2179736D02*
D03*
D86*
X2426886Y2224606D02*
D03*
X2420193D02*
D03*
X2413500D02*
D03*
X2406807D02*
D03*
X2400114D02*
D03*
X2171886Y2219106D02*
D03*
X2165193D02*
D03*
X2158500D02*
D03*
X2151807D02*
D03*
X2145114D02*
D03*
D87*
X1986390Y1593331D02*
D03*
D88*
Y1576008D02*
D03*
D89*
X1945740Y1576598D02*
D03*
D90*
Y1588016D02*
D03*
D91*
X1945937Y1601008D02*
D03*
D92*
X2199705Y2152598D02*
D03*
X2225787D02*
D03*
D93*
X2505004Y2022500D02*
D03*
X2517996D02*
D03*
X1692004Y1802000D02*
D03*
X1704996D02*
D03*
X1708004Y1879000D02*
D03*
X1720996D02*
D03*
X2508004Y1881500D02*
D03*
X2520996D02*
D03*
X1709004Y1955000D02*
D03*
X1721996D02*
D03*
X2506004Y1948000D02*
D03*
X2518996D02*
D03*
M02*
