%FSLAX25Y25*%
%MOIN*%
G70*
G01*
G75*
G04 Layer_Color=8421504*
%ADD10R,0.01378X0.05512*%
%ADD11R,0.17716X0.12992*%
%ADD12R,0.07874X0.07087*%
%ADD13O,0.00787X0.02362*%
%ADD14O,0.01772X0.04528*%
%ADD15R,0.03740X0.02362*%
%ADD16R,0.04528X0.02362*%
%ADD17O,0.06299X0.01772*%
%ADD18R,0.05118X0.07480*%
%ADD19O,0.07087X0.02362*%
%ADD20O,0.02362X0.07284*%
%ADD21O,0.07284X0.02362*%
%ADD22R,0.03543X0.02953*%
%ADD23R,0.04331X0.11221*%
%ADD24R,0.22244X0.20866*%
%ADD25R,0.08268X0.08071*%
%ADD26R,0.14488X0.05000*%
%ADD27O,0.05512X0.08465*%
%ADD28R,0.05906X0.07874*%
%ADD29R,0.03543X0.03347*%
%ADD30R,0.05118X0.03937*%
%ADD31O,0.05512X0.01772*%
%ADD32O,0.05118X0.01772*%
%ADD33R,0.03150X0.06496*%
%ADD34R,0.03543X0.03150*%
%ADD35R,0.01969X0.02362*%
%ADD36R,0.03937X0.05118*%
%ADD37R,0.03150X0.03543*%
%ADD38R,0.02362X0.04528*%
%ADD39R,0.03347X0.03543*%
%ADD40R,0.02953X0.03543*%
%ADD41R,0.06496X0.03150*%
%ADD42R,0.07874X0.05906*%
%ADD43R,0.05512X0.01378*%
%ADD44R,0.12992X0.17716*%
%ADD45O,0.01772X0.05118*%
%ADD46C,0.03937*%
%ADD47C,0.01000*%
%ADD48C,0.00787*%
%ADD49C,0.02953*%
%ADD50C,0.03937*%
%ADD51C,0.01969*%
%ADD52C,0.04331*%
%ADD53C,0.02000*%
%ADD54C,0.07874*%
%ADD55C,0.08661*%
%ADD56C,0.06299*%
%ADD57C,0.05906*%
%ADD58C,0.01181*%
%ADD59C,0.11811*%
%ADD60C,0.02756*%
%ADD61C,0.01575*%
%ADD62C,0.05906*%
%ADD63C,0.06299*%
%ADD64C,0.06000*%
%ADD65C,0.11811*%
%ADD66C,0.07874*%
%ADD67R,0.05906X0.05906*%
%ADD68R,0.05906X0.05906*%
%ADD69O,0.04331X0.04724*%
%ADD70P,0.08097X8X292.5*%
%ADD71C,0.07480*%
%ADD72C,0.05512*%
%ADD73R,0.05512X0.09843*%
%ADD74O,0.05512X0.09843*%
%ADD75C,0.08661*%
%ADD76R,0.09843X0.05512*%
%ADD77O,0.09843X0.05512*%
%ADD78C,0.02598*%
%ADD79C,0.03150*%
%ADD80C,0.05000*%
%ADD81R,0.09843X0.14961*%
%ADD82R,0.03347X0.02559*%
%ADD83R,0.06496X0.04921*%
%ADD84R,0.05000X0.14488*%
%ADD85R,0.43307X0.31102*%
%ADD86R,0.04331X0.11417*%
%ADD87R,0.08858X0.09449*%
%ADD88R,0.08858X0.11417*%
%ADD89R,0.06890X0.08268*%
%ADD90R,0.06890X0.07087*%
%ADD91R,0.06890X0.11417*%
%ADD92R,0.14961X0.09843*%
%ADD93R,0.04921X0.06496*%
%ADD94C,0.09843*%
%ADD95C,0.11417*%
%ADD96C,0.04724*%
%ADD97C,0.00984*%
%ADD98C,0.02362*%
%ADD99C,0.00800*%
D10*
X2383484Y1587181D02*
D03*
X2386043D02*
D03*
X2388602D02*
D03*
X2391161D02*
D03*
X2393720D02*
D03*
X2396280D02*
D03*
X2398839D02*
D03*
X2401398D02*
D03*
X2403957D02*
D03*
X2406516D02*
D03*
X2383484Y1609819D02*
D03*
X2386043D02*
D03*
X2388602D02*
D03*
X2391161D02*
D03*
X2393720D02*
D03*
X2396280D02*
D03*
X2398839D02*
D03*
X2401398D02*
D03*
X2403957D02*
D03*
X2406516D02*
D03*
X1756984Y1706681D02*
D03*
X1759543D02*
D03*
X1762102D02*
D03*
X1764661D02*
D03*
X1767220D02*
D03*
X1769780D02*
D03*
X1772339D02*
D03*
X1774898D02*
D03*
X1777457D02*
D03*
X1780016D02*
D03*
X1756984Y1729319D02*
D03*
X1759543D02*
D03*
X1762102D02*
D03*
X1764661D02*
D03*
X1767220D02*
D03*
X1769780D02*
D03*
X1772339D02*
D03*
X1774898D02*
D03*
X1777457D02*
D03*
X1780016D02*
D03*
D11*
X2395000Y1598500D02*
D03*
X1768500Y1718000D02*
D03*
D12*
X1968000Y1537000D02*
D03*
D13*
X1972724Y1531094D02*
D03*
X1971150D02*
D03*
X1969575D02*
D03*
X1968000D02*
D03*
X1966425D02*
D03*
X1964850D02*
D03*
X1963276D02*
D03*
Y1542906D02*
D03*
X1964850D02*
D03*
X1966425D02*
D03*
X1968000D02*
D03*
X1969575D02*
D03*
X1971150D02*
D03*
X1972724D02*
D03*
D14*
X1723661Y1500768D02*
D03*
X1726221D02*
D03*
X1728779D02*
D03*
X1731339D02*
D03*
X1723661Y1509232D02*
D03*
X1726221D02*
D03*
X1728779D02*
D03*
X1731339D02*
D03*
D15*
X1608126Y1580240D02*
D03*
Y1572760D02*
D03*
X1598874D02*
D03*
Y1576500D02*
D03*
Y1580240D02*
D03*
D16*
X2166571Y2057740D02*
D03*
Y2050260D02*
D03*
X2175429Y2054000D02*
D03*
Y2074500D02*
D03*
X2166571Y2070760D02*
D03*
Y2078240D02*
D03*
Y2036740D02*
D03*
Y2029260D02*
D03*
X2175429Y2033000D02*
D03*
D17*
X2215721Y1590634D02*
D03*
Y1588075D02*
D03*
Y1585516D02*
D03*
Y1582957D02*
D03*
Y1580398D02*
D03*
Y1577839D02*
D03*
Y1575280D02*
D03*
Y1572721D02*
D03*
Y1570161D02*
D03*
Y1567602D02*
D03*
Y1565043D02*
D03*
Y1562484D02*
D03*
Y1559925D02*
D03*
Y1557366D02*
D03*
X2243279Y1590634D02*
D03*
Y1588075D02*
D03*
Y1585516D02*
D03*
Y1582957D02*
D03*
Y1580398D02*
D03*
Y1577839D02*
D03*
Y1575280D02*
D03*
Y1572721D02*
D03*
Y1570161D02*
D03*
Y1567602D02*
D03*
Y1565043D02*
D03*
Y1562484D02*
D03*
Y1559925D02*
D03*
Y1557366D02*
D03*
X2234720Y1672634D02*
D03*
Y1670075D02*
D03*
Y1667516D02*
D03*
Y1664957D02*
D03*
Y1662398D02*
D03*
Y1659839D02*
D03*
Y1657280D02*
D03*
Y1654720D02*
D03*
Y1652161D02*
D03*
Y1649602D02*
D03*
Y1647043D02*
D03*
Y1644484D02*
D03*
Y1641925D02*
D03*
Y1639366D02*
D03*
X2262280Y1672634D02*
D03*
Y1670075D02*
D03*
Y1667516D02*
D03*
Y1664957D02*
D03*
Y1662398D02*
D03*
Y1659839D02*
D03*
Y1657280D02*
D03*
Y1654720D02*
D03*
Y1652161D02*
D03*
Y1649602D02*
D03*
Y1647043D02*
D03*
Y1644484D02*
D03*
Y1641925D02*
D03*
Y1639366D02*
D03*
D18*
X1802110Y1427528D02*
D03*
X1780260Y1427626D02*
D03*
Y1415126D02*
D03*
X1802110D02*
D03*
D19*
X1603866Y1492500D02*
D03*
Y1487500D02*
D03*
Y1482500D02*
D03*
Y1477500D02*
D03*
X1631622Y1492500D02*
D03*
Y1487500D02*
D03*
Y1482500D02*
D03*
Y1477500D02*
D03*
X1829366Y1423500D02*
D03*
Y1418500D02*
D03*
Y1413500D02*
D03*
Y1408500D02*
D03*
X1857122Y1423500D02*
D03*
Y1418500D02*
D03*
Y1413500D02*
D03*
Y1408500D02*
D03*
D20*
X1565000Y1701854D02*
D03*
X1570000D02*
D03*
X1575000D02*
D03*
X1580000D02*
D03*
X1585000D02*
D03*
X1590000D02*
D03*
X1595000D02*
D03*
X1565000Y1721146D02*
D03*
X1570000D02*
D03*
X1575000D02*
D03*
X1580000D02*
D03*
X1585000D02*
D03*
X1590000D02*
D03*
X1595000D02*
D03*
D21*
X1665354Y1528500D02*
D03*
Y1523500D02*
D03*
Y1518500D02*
D03*
Y1513500D02*
D03*
X1684646Y1528500D02*
D03*
Y1523500D02*
D03*
Y1518500D02*
D03*
Y1513500D02*
D03*
D22*
X2655709Y1966681D02*
D03*
X2650394D02*
D03*
X2207158Y1671000D02*
D03*
X2201842D02*
D03*
X2280843Y1657000D02*
D03*
X2286157D02*
D03*
X2205658Y1661000D02*
D03*
X2200343D02*
D03*
X1497342Y1887000D02*
D03*
X1502658D02*
D03*
X1497843Y1907000D02*
D03*
X1503158D02*
D03*
X1497342Y1927000D02*
D03*
X1502658D02*
D03*
X1496842Y1947000D02*
D03*
X1502157D02*
D03*
X2656157Y1847000D02*
D03*
X2650842D02*
D03*
X2656157Y1827000D02*
D03*
X2650842D02*
D03*
X2656157Y1787500D02*
D03*
X2650842D02*
D03*
X1496342Y2007000D02*
D03*
X1501657D02*
D03*
X1496500Y1986500D02*
D03*
X1501815D02*
D03*
X1496842Y1967000D02*
D03*
X1502157D02*
D03*
X2656157Y1422500D02*
D03*
X2650842D02*
D03*
X2655658Y1477000D02*
D03*
X2650343D02*
D03*
X2656051Y1531181D02*
D03*
X2650736D02*
D03*
X2656657Y1585500D02*
D03*
X2651343D02*
D03*
X2655658Y1887000D02*
D03*
X2650343D02*
D03*
X2655658Y1907000D02*
D03*
X2650343D02*
D03*
X2654658Y1926500D02*
D03*
X2649343D02*
D03*
X2655658Y1947000D02*
D03*
X2650343D02*
D03*
X2656157Y1767000D02*
D03*
X2650842D02*
D03*
X2657158Y2006500D02*
D03*
X2651842D02*
D03*
X2657158Y1986500D02*
D03*
X2651842D02*
D03*
X2656764Y1694319D02*
D03*
X2651449D02*
D03*
X2657158Y1640000D02*
D03*
X2651842D02*
D03*
D23*
X1901484Y1663465D02*
D03*
X1919516D02*
D03*
D24*
X1910500Y1691417D02*
D03*
D25*
X2539465Y2125000D02*
D03*
X2522732D02*
D03*
D26*
X1917606Y1807362D02*
D03*
Y1797362D02*
D03*
Y1787362D02*
D03*
Y1777362D02*
D03*
Y1767362D02*
D03*
Y1757362D02*
D03*
Y1747362D02*
D03*
Y1737362D02*
D03*
X1899201Y1737362D02*
D03*
Y1747362D02*
D03*
Y1757362D02*
D03*
Y1767362D02*
D03*
Y1777362D02*
D03*
Y1787362D02*
D03*
Y1797362D02*
D03*
Y1807362D02*
D03*
Y1727283D02*
D03*
Y1717283D02*
D03*
X1917606Y1717283D02*
D03*
Y1727283D02*
D03*
X1917409Y1827382D02*
D03*
Y1817382D02*
D03*
X1899004Y1817382D02*
D03*
Y1827382D02*
D03*
Y1907461D02*
D03*
Y1897461D02*
D03*
Y1887461D02*
D03*
Y1877461D02*
D03*
Y1867461D02*
D03*
Y1857461D02*
D03*
Y1847461D02*
D03*
Y1837461D02*
D03*
X1917409Y1837461D02*
D03*
Y1847461D02*
D03*
Y1857461D02*
D03*
Y1867461D02*
D03*
Y1877461D02*
D03*
Y1887461D02*
D03*
Y1897461D02*
D03*
Y1907461D02*
D03*
D27*
X2525921Y2144925D02*
D03*
X2536669Y2144886D02*
D03*
X2525567Y2171106D02*
D03*
X2536472Y2171106D02*
D03*
D28*
X1827283Y1593000D02*
D03*
X1837913D02*
D03*
D29*
X1883650Y1727500D02*
D03*
X1877350D02*
D03*
X2262650Y1858500D02*
D03*
X2256350D02*
D03*
X1920850Y1434500D02*
D03*
X1927150D02*
D03*
X2151650Y1487500D02*
D03*
X2145350D02*
D03*
X2215650D02*
D03*
X2209350D02*
D03*
X2290150Y1488000D02*
D03*
X2283850D02*
D03*
X1609350Y1565500D02*
D03*
X1615650D02*
D03*
D30*
X1582000Y1506850D02*
D03*
Y1513150D02*
D03*
X1780000Y1625850D02*
D03*
Y1632150D02*
D03*
Y1575350D02*
D03*
Y1581650D02*
D03*
X1800000Y1625850D02*
D03*
Y1632150D02*
D03*
X1770000Y1575350D02*
D03*
Y1581650D02*
D03*
X1790000Y1625850D02*
D03*
Y1632150D02*
D03*
X1760000Y1575350D02*
D03*
Y1581650D02*
D03*
Y1625850D02*
D03*
Y1632150D02*
D03*
X1740000Y1575350D02*
D03*
Y1581650D02*
D03*
X1750000Y1625850D02*
D03*
Y1632150D02*
D03*
X1730000Y1575350D02*
D03*
Y1581650D02*
D03*
X1740000Y1625850D02*
D03*
Y1632150D02*
D03*
X1710000Y1575350D02*
D03*
Y1581650D02*
D03*
X1720000Y1625850D02*
D03*
Y1632150D02*
D03*
X1700000Y1575350D02*
D03*
Y1581650D02*
D03*
X1710000Y1625850D02*
D03*
Y1632150D02*
D03*
X1690000Y1575350D02*
D03*
Y1581650D02*
D03*
X1700000Y1625850D02*
D03*
Y1632150D02*
D03*
D31*
X2193476Y1481075D02*
D03*
Y1478516D02*
D03*
Y1475957D02*
D03*
Y1473398D02*
D03*
Y1470839D02*
D03*
Y1468279D02*
D03*
Y1465720D02*
D03*
Y1463161D02*
D03*
Y1460602D02*
D03*
Y1458043D02*
D03*
Y1455484D02*
D03*
Y1452925D02*
D03*
X2215524Y1481075D02*
D03*
Y1478516D02*
D03*
Y1475957D02*
D03*
Y1473398D02*
D03*
Y1470839D02*
D03*
Y1468279D02*
D03*
Y1465720D02*
D03*
Y1463161D02*
D03*
Y1460602D02*
D03*
Y1458043D02*
D03*
Y1455484D02*
D03*
Y1452925D02*
D03*
X2129669Y1481075D02*
D03*
Y1478516D02*
D03*
Y1475957D02*
D03*
Y1473398D02*
D03*
Y1470839D02*
D03*
Y1468279D02*
D03*
Y1465720D02*
D03*
Y1463161D02*
D03*
Y1460602D02*
D03*
Y1458043D02*
D03*
Y1455484D02*
D03*
Y1452925D02*
D03*
X2151716Y1481075D02*
D03*
Y1478516D02*
D03*
Y1475957D02*
D03*
Y1473398D02*
D03*
Y1470839D02*
D03*
Y1468279D02*
D03*
Y1465720D02*
D03*
Y1463161D02*
D03*
Y1460602D02*
D03*
Y1458043D02*
D03*
Y1455484D02*
D03*
Y1452925D02*
D03*
X2267976Y1481075D02*
D03*
Y1478516D02*
D03*
Y1475957D02*
D03*
Y1473398D02*
D03*
Y1470839D02*
D03*
Y1468279D02*
D03*
Y1465720D02*
D03*
Y1463161D02*
D03*
Y1460602D02*
D03*
Y1458043D02*
D03*
Y1455484D02*
D03*
Y1452925D02*
D03*
X2290024Y1481075D02*
D03*
Y1478516D02*
D03*
Y1475957D02*
D03*
Y1473398D02*
D03*
Y1470839D02*
D03*
Y1468279D02*
D03*
Y1465720D02*
D03*
Y1463161D02*
D03*
Y1460602D02*
D03*
Y1458043D02*
D03*
Y1455484D02*
D03*
Y1452925D02*
D03*
D32*
X2019024Y1710543D02*
D03*
Y1713102D02*
D03*
Y1715661D02*
D03*
Y1718221D02*
D03*
Y1720779D02*
D03*
Y1723339D02*
D03*
Y1725898D02*
D03*
Y1728457D02*
D03*
X1996976Y1710543D02*
D03*
Y1713102D02*
D03*
Y1715661D02*
D03*
Y1718221D02*
D03*
Y1720779D02*
D03*
Y1723339D02*
D03*
Y1725898D02*
D03*
Y1728457D02*
D03*
X2018024Y1784043D02*
D03*
Y1786602D02*
D03*
Y1789161D02*
D03*
Y1791721D02*
D03*
Y1794279D02*
D03*
Y1796839D02*
D03*
Y1799398D02*
D03*
Y1801957D02*
D03*
X1995976Y1784043D02*
D03*
Y1786602D02*
D03*
Y1789161D02*
D03*
Y1791721D02*
D03*
Y1794279D02*
D03*
Y1796839D02*
D03*
Y1799398D02*
D03*
Y1801957D02*
D03*
X2018024Y1745043D02*
D03*
Y1747602D02*
D03*
Y1750161D02*
D03*
Y1752720D02*
D03*
Y1755280D02*
D03*
Y1757839D02*
D03*
Y1760398D02*
D03*
Y1762957D02*
D03*
X1995976Y1745043D02*
D03*
Y1747602D02*
D03*
Y1750161D02*
D03*
Y1752720D02*
D03*
Y1755280D02*
D03*
Y1757839D02*
D03*
Y1760398D02*
D03*
Y1762957D02*
D03*
X2076024Y1743543D02*
D03*
Y1746102D02*
D03*
Y1748661D02*
D03*
Y1751221D02*
D03*
Y1753779D02*
D03*
Y1756339D02*
D03*
Y1758898D02*
D03*
Y1761457D02*
D03*
X2053976Y1743543D02*
D03*
Y1746102D02*
D03*
Y1748661D02*
D03*
Y1751221D02*
D03*
Y1753779D02*
D03*
Y1756339D02*
D03*
Y1758898D02*
D03*
Y1761457D02*
D03*
D33*
X2474594Y1796500D02*
D03*
X2486406D02*
D03*
X1635406Y1564000D02*
D03*
X1623594D02*
D03*
X1598594Y1651500D02*
D03*
X1610406D02*
D03*
X1629406D02*
D03*
X1617595D02*
D03*
X1837406Y1613000D02*
D03*
X1825595D02*
D03*
X1580906Y1919000D02*
D03*
X1569094D02*
D03*
X1557405Y1963500D02*
D03*
X1545595D02*
D03*
X2141906Y1757000D02*
D03*
X2130095D02*
D03*
D34*
X1614949Y1533500D02*
D03*
X1621051D02*
D03*
X1623449Y1642500D02*
D03*
X1629551D02*
D03*
X1605051Y1660500D02*
D03*
X1598949D02*
D03*
X1639551Y1526500D02*
D03*
X1633449D02*
D03*
X1701051Y1522000D02*
D03*
X1694949D02*
D03*
X1633449Y1532500D02*
D03*
X1639551D02*
D03*
X1856551Y1430500D02*
D03*
X1850449D02*
D03*
X2018449Y1809000D02*
D03*
X2024551D02*
D03*
X1623949Y1582500D02*
D03*
X1630051D02*
D03*
X1623449Y1575500D02*
D03*
X1629551D02*
D03*
X2076051Y1768500D02*
D03*
X2069949D02*
D03*
X1608051Y1592500D02*
D03*
X1601949D02*
D03*
X1608051Y1586500D02*
D03*
X1601949D02*
D03*
X2017949Y1769000D02*
D03*
X2024051D02*
D03*
X2018949Y1735000D02*
D03*
X2025051D02*
D03*
X1761051Y1694500D02*
D03*
X1754949D02*
D03*
X1763551Y1687500D02*
D03*
X1757449D02*
D03*
X2017551Y2130000D02*
D03*
X2011449D02*
D03*
X2278949Y1869500D02*
D03*
X2285051D02*
D03*
X2278949Y1876000D02*
D03*
X2285051D02*
D03*
X2270051Y1681500D02*
D03*
X2263949D02*
D03*
X2261449Y1565000D02*
D03*
X2267551D02*
D03*
X2382051Y1572500D02*
D03*
X2375949D02*
D03*
X2388551Y1563500D02*
D03*
X2382449D02*
D03*
X1508051Y1940000D02*
D03*
X1501949D02*
D03*
X1581449Y1874500D02*
D03*
X1587551D02*
D03*
X1501949Y1960500D02*
D03*
X1508051D02*
D03*
X2636949Y1422500D02*
D03*
X2643051D02*
D03*
X2636949Y1477000D02*
D03*
X2643051D02*
D03*
X2636843Y1531181D02*
D03*
X2642945D02*
D03*
X2636949Y1585500D02*
D03*
X2643051D02*
D03*
X2643158Y1694319D02*
D03*
X2637055D02*
D03*
X2643051Y1640000D02*
D03*
X2636949D02*
D03*
X2643051Y2006500D02*
D03*
X2636949D02*
D03*
X1931449Y1817500D02*
D03*
X1937551D02*
D03*
X2161551Y2243000D02*
D03*
X2155449D02*
D03*
X2168949D02*
D03*
X2175051D02*
D03*
X2417051Y2245500D02*
D03*
X2410949D02*
D03*
X2423949D02*
D03*
X2430051D02*
D03*
D35*
X1662000Y1562469D02*
D03*
Y1558531D02*
D03*
D36*
X1937650Y1663500D02*
D03*
X1931350D02*
D03*
D37*
X2143000Y2077051D02*
D03*
Y2070949D02*
D03*
X1883500Y1695051D02*
D03*
Y1688949D02*
D03*
X1858500Y1683551D02*
D03*
Y1677449D02*
D03*
X1624500Y1600949D02*
D03*
Y1607051D02*
D03*
X1706000Y1510949D02*
D03*
Y1517051D02*
D03*
X1652500Y1556449D02*
D03*
Y1562551D02*
D03*
X1662500Y1544449D02*
D03*
Y1550551D02*
D03*
X1666500Y1562551D02*
D03*
Y1556449D02*
D03*
X1694500Y1535051D02*
D03*
Y1528949D02*
D03*
X1858500Y1593051D02*
D03*
Y1586949D02*
D03*
X1612000Y1501449D02*
D03*
Y1507551D02*
D03*
X1707000Y1528949D02*
D03*
Y1535051D02*
D03*
X1675500Y1535449D02*
D03*
Y1541551D02*
D03*
X1602000Y1714551D02*
D03*
Y1708449D02*
D03*
X1549000Y1775449D02*
D03*
Y1781551D02*
D03*
X1717000Y1512449D02*
D03*
Y1518551D02*
D03*
X1548500Y1715949D02*
D03*
Y1722051D02*
D03*
X1548000Y1655949D02*
D03*
Y1662051D02*
D03*
X1587000Y1613449D02*
D03*
Y1619551D02*
D03*
X1615000Y1580051D02*
D03*
Y1573949D02*
D03*
X1986500Y1558551D02*
D03*
Y1552449D02*
D03*
X1945500Y1558551D02*
D03*
Y1552449D02*
D03*
X1971000Y1557551D02*
D03*
Y1551449D02*
D03*
X1962000Y1557551D02*
D03*
Y1551449D02*
D03*
X1971000Y1516551D02*
D03*
Y1510449D02*
D03*
X2279000Y1645551D02*
D03*
Y1639449D02*
D03*
X1669500Y1535449D02*
D03*
Y1541551D02*
D03*
X1657000Y1544449D02*
D03*
Y1550551D02*
D03*
X1966000Y1389449D02*
D03*
Y1395551D02*
D03*
X1951500Y1389449D02*
D03*
Y1395551D02*
D03*
X1868000Y1418449D02*
D03*
Y1424551D02*
D03*
X1617000Y1774051D02*
D03*
Y1767949D02*
D03*
X2206000Y1788051D02*
D03*
Y1781949D02*
D03*
X1636000Y1936449D02*
D03*
Y1942551D02*
D03*
X2369500Y1792449D02*
D03*
Y1798551D02*
D03*
X1497500Y1874449D02*
D03*
Y1880551D02*
D03*
X1503500Y1894949D02*
D03*
Y1901051D02*
D03*
X1503000Y1915449D02*
D03*
Y1921551D02*
D03*
X1920000Y1967449D02*
D03*
Y1973551D02*
D03*
X2644500Y1847551D02*
D03*
Y1841449D02*
D03*
Y1827551D02*
D03*
Y1821449D02*
D03*
X2642000Y1787551D02*
D03*
Y1781449D02*
D03*
X1510500Y2006551D02*
D03*
Y2000449D02*
D03*
X1511000Y1986551D02*
D03*
Y1980449D02*
D03*
X1575500Y1489949D02*
D03*
Y1496051D02*
D03*
X1623500Y1972051D02*
D03*
Y1965949D02*
D03*
X2229500Y2037449D02*
D03*
Y2043551D02*
D03*
X2204000Y1752551D02*
D03*
Y1746449D02*
D03*
X2370000Y1763949D02*
D03*
Y1770051D02*
D03*
X2643000Y1880949D02*
D03*
Y1887051D02*
D03*
X2643500Y1900449D02*
D03*
Y1906551D02*
D03*
X2643000Y1920449D02*
D03*
Y1926551D02*
D03*
Y1940949D02*
D03*
Y1947051D02*
D03*
X1543000Y1762949D02*
D03*
Y1769051D02*
D03*
Y1781551D02*
D03*
Y1775449D02*
D03*
X2641500Y1767051D02*
D03*
Y1760949D02*
D03*
X1925000Y1389449D02*
D03*
Y1395551D02*
D03*
X2643500Y1986551D02*
D03*
Y1980449D02*
D03*
Y1966551D02*
D03*
Y1960449D02*
D03*
X1542000Y1702449D02*
D03*
Y1708551D02*
D03*
Y1722051D02*
D03*
Y1715949D02*
D03*
X1541000Y1642449D02*
D03*
Y1648551D02*
D03*
Y1662051D02*
D03*
Y1655949D02*
D03*
D38*
X1870000Y1686929D02*
D03*
X1873740Y1678071D02*
D03*
X1866260D02*
D03*
X1877000Y1712929D02*
D03*
X1880740Y1704071D02*
D03*
X1873260D02*
D03*
X1877260Y1418571D02*
D03*
X1884740D02*
D03*
X1881000Y1427429D02*
D03*
X1589740Y1496429D02*
D03*
X1582260D02*
D03*
X1586000Y1487571D02*
D03*
D39*
X1749000Y1706850D02*
D03*
Y1713150D02*
D03*
X2215000Y1654150D02*
D03*
Y1647850D02*
D03*
X2192500Y1571650D02*
D03*
Y1565350D02*
D03*
X2374500Y1587350D02*
D03*
Y1593650D02*
D03*
X1847500Y1593150D02*
D03*
Y1586850D02*
D03*
X1611000Y1787650D02*
D03*
Y1781350D02*
D03*
X2196000Y1788150D02*
D03*
Y1781850D02*
D03*
X1643500Y1923150D02*
D03*
Y1916850D02*
D03*
X2376500Y1792850D02*
D03*
Y1799150D02*
D03*
X1604000Y1501350D02*
D03*
Y1507650D02*
D03*
X1584000Y1893150D02*
D03*
Y1886850D02*
D03*
X1911000Y1973150D02*
D03*
Y1966850D02*
D03*
X1611500Y1972150D02*
D03*
Y1965850D02*
D03*
X2240000Y2037350D02*
D03*
Y2043650D02*
D03*
X1700500Y1528850D02*
D03*
Y1535150D02*
D03*
X2194000Y1753150D02*
D03*
Y1746850D02*
D03*
X2378000Y1763850D02*
D03*
Y1770150D02*
D03*
X1883500Y1899850D02*
D03*
Y1906150D02*
D03*
X1726000Y1490150D02*
D03*
Y1483850D02*
D03*
X1587000Y1606150D02*
D03*
Y1599850D02*
D03*
X1964000Y1516650D02*
D03*
Y1510350D02*
D03*
D40*
X1966000Y1377843D02*
D03*
Y1383158D02*
D03*
X1951500Y1377843D02*
D03*
Y1383158D02*
D03*
X1925000Y1377843D02*
D03*
Y1383158D02*
D03*
D41*
X1910500Y1428405D02*
D03*
Y1416595D02*
D03*
X1632500Y1612906D02*
D03*
Y1601094D02*
D03*
X1560000Y1787094D02*
D03*
Y1798906D02*
D03*
X2136000Y1785094D02*
D03*
Y1796906D02*
D03*
X2464500Y1832594D02*
D03*
Y1844406D02*
D03*
X1546000Y1907594D02*
D03*
Y1919406D02*
D03*
X1851000Y1969595D02*
D03*
Y1981405D02*
D03*
X2299000Y2039405D02*
D03*
Y2027595D02*
D03*
D42*
X2520000Y2194716D02*
D03*
Y2184087D02*
D03*
D43*
X2262819Y1865484D02*
D03*
Y1868043D02*
D03*
Y1870602D02*
D03*
Y1873161D02*
D03*
Y1875720D02*
D03*
Y1878279D02*
D03*
Y1880839D02*
D03*
Y1883398D02*
D03*
Y1885957D02*
D03*
Y1888516D02*
D03*
X2240181Y1865484D02*
D03*
Y1868043D02*
D03*
Y1870602D02*
D03*
Y1873161D02*
D03*
Y1875720D02*
D03*
Y1878279D02*
D03*
Y1880839D02*
D03*
Y1883398D02*
D03*
Y1885957D02*
D03*
Y1888516D02*
D03*
D44*
X2251500Y1877000D02*
D03*
D45*
X1613457Y1622524D02*
D03*
X1610898D02*
D03*
X1608339D02*
D03*
X1605779D02*
D03*
X1603221D02*
D03*
X1600661D02*
D03*
X1598102D02*
D03*
X1595543D02*
D03*
X1613457Y1600476D02*
D03*
X1610898D02*
D03*
X1608339D02*
D03*
X1605779D02*
D03*
X1603221D02*
D03*
X1600661D02*
D03*
X1598102D02*
D03*
X1595543D02*
D03*
D46*
X1493500Y1382000D02*
D03*
X2656500D02*
D03*
Y2247500D02*
D03*
M02*
