M48
;Layer_Color=9474304
;FILE_FORMAT=2:5
INCH,LZ
;TYPE=PLATED
T1F00S00C0.01181
T2F00S00C0.01299
T3F00S00C0.03543
T4F00S00C0.03937
T5F00S00C0.13386
%
T01
X03205Y0276
X0342Y0289
X0342531Y0293969
X0362Y02915
X03615Y0301
X03715
X03765Y02965
X036Y0311
X03615Y028
X03605Y02725
X0307Y0276
X02995Y0278
X0297Y02865
X02965Y0296
X0297Y03095
X03025Y0305
X0311Y0302
X02775Y02935
X02785Y02835
Y03145
X0278Y03245
X02785Y0334
X02945Y0342
X0305Y03455
X03055Y0367
X03025Y037
X02975Y03645
X0297Y03865
X0296Y03965
X03055Y0393
X0309Y0379
X0311Y0329
X03075Y03245
X02995Y03255
X02855Y0416
X03165Y0409
X03135Y03915
X0313Y0387
X03125Y0370397
X0323Y0376
X03235Y038
X03275
X0336Y03805
X0339Y03885
X03275Y0393
X03555Y0389
X03545Y0382
X03615Y0379
X0358Y0372
X036Y03685
X0351Y0356
X035Y0347
X0366Y03445
X0376Y03345
X0377Y032
X03655Y03125
X0338Y03225
X03375Y03265
X0336Y0339
X0327Y03395
X03195Y03425
X03155Y0343
X0313Y03255
X0324Y03225
X0329138Y0354638
Y0359362
X0333862
Y0354638
X03725Y0358
X0378Y0385
X03755Y0392
X03765Y0398
X0362Y0392
T02
X0327638Y0308138
X0332362
Y0312862
X0327638
T03
X02805Y03505
X02905
Y03605
X02805
Y03705
X02905
Y03805
X02805
Y03905
X02905
T04
X0303Y0404
Y0414
X0313
X0323
X0333
X0343
X0353
X0363
Y0404
X0353
X0343
X0333
X0323
X0313
T05
X03735Y0282
M30
