%FSLAX25Y25*%
%MOIN*%
G70*
G01*
G75*
G04 Layer_Color=8421504*
%ADD10R,0.17716X0.17716*%
%ADD11O,0.02559X0.00984*%
%ADD12O,0.00984X0.02559*%
%ADD13R,0.08661X0.08661*%
%ADD14O,0.03150X0.01496*%
%ADD15O,0.01496X0.03150*%
%ADD16R,0.05315X0.03740*%
%ADD17R,0.11811X0.00039*%
%ADD18R,0.01575X0.01575*%
%ADD19R,0.03937X0.14961*%
%ADD20R,0.14961X0.03937*%
%ADD21R,0.17913X0.03937*%
%ADD22R,0.03937X0.17913*%
%ADD23R,0.03937X0.03543*%
%ADD24R,0.03150X0.03543*%
%ADD25R,0.01969X0.02362*%
%ADD26R,0.02362X0.01969*%
%ADD27C,0.03937*%
%ADD28C,0.01969*%
%ADD29C,0.01000*%
%ADD30C,0.03937*%
%ADD31C,0.00787*%
%ADD32C,0.01181*%
G04:AMPARAMS|DCode=33|XSize=18.11mil|YSize=66.44mil|CornerRadius=0mil|HoleSize=0mil|Usage=FLASHONLY|Rotation=214.500|XOffset=0mil|YOffset=0mil|HoleType=Round|Shape=Rectangle|*
%AMROTATEDRECTD33*
4,1,4,-0.01135,0.03251,0.02628,-0.02225,0.01135,-0.03251,-0.02628,0.02225,-0.01135,0.03251,0.0*
%
%ADD33ROTATEDRECTD33*%

%ADD34R,0.01811X0.07992*%
%ADD35R,0.12598X0.05079*%
%ADD36R,0.12598X0.04764*%
%ADD37R,0.08583X0.15590*%
%ADD38R,1.00709X0.04764*%
%ADD39R,0.36142X0.03937*%
%ADD40R,0.19193X0.05079*%
%ADD41R,0.04724X0.03150*%
%ADD42R,0.03937X0.02913*%
%ADD43R,0.35500X0.02000*%
%ADD44C,0.05906*%
%ADD45R,0.05906X0.05906*%
%ADD46R,0.05512X0.05512*%
%ADD47C,0.05512*%
%ADD48C,0.06000*%
%ADD49C,0.02598*%
%ADD50C,0.03150*%
%ADD51C,0.00984*%
D10*
X331500Y357000D02*
D03*
D11*
X343409Y365858D02*
D03*
Y363890D02*
D03*
Y361921D02*
D03*
Y359953D02*
D03*
Y357984D02*
D03*
Y356016D02*
D03*
Y354047D02*
D03*
Y352079D02*
D03*
Y350110D02*
D03*
Y348142D02*
D03*
X319590D02*
D03*
Y350110D02*
D03*
Y352079D02*
D03*
Y354047D02*
D03*
Y356016D02*
D03*
Y357984D02*
D03*
Y359953D02*
D03*
Y361921D02*
D03*
Y363890D02*
D03*
Y365858D02*
D03*
D12*
X340358Y345091D02*
D03*
X338390D02*
D03*
X336421D02*
D03*
X334453D02*
D03*
X332484D02*
D03*
X330516D02*
D03*
X328547D02*
D03*
X326579D02*
D03*
X324610D02*
D03*
X322642D02*
D03*
Y368910D02*
D03*
X324610D02*
D03*
X326579D02*
D03*
X328547D02*
D03*
X330516D02*
D03*
X332484D02*
D03*
X334453D02*
D03*
X336421D02*
D03*
X338390D02*
D03*
X340358D02*
D03*
D13*
X330000Y310500D02*
D03*
D14*
X337677Y314339D02*
D03*
Y311779D02*
D03*
Y309221D02*
D03*
Y306661D02*
D03*
X322323D02*
D03*
Y309221D02*
D03*
Y311779D02*
D03*
Y314339D02*
D03*
D15*
X333839Y302823D02*
D03*
X331279D02*
D03*
X328720D02*
D03*
X326161D02*
D03*
Y318177D02*
D03*
X328720D02*
D03*
X331279D02*
D03*
X333839D02*
D03*
D16*
X356500Y356248D02*
D03*
Y349752D02*
D03*
D17*
X341500Y268500D02*
D03*
D18*
X332500Y267500D02*
D03*
D19*
X351390Y301902D02*
D03*
X287512D02*
D03*
D20*
X319303Y270209D02*
D03*
X319598Y334087D02*
D03*
D21*
X344303Y333988D02*
D03*
X344402Y270209D02*
D03*
X294697Y270209D02*
D03*
X294500Y334087D02*
D03*
D22*
X351390Y327000D02*
D03*
X351390Y277295D02*
D03*
X287610Y277197D02*
D03*
X287512Y327000D02*
D03*
D23*
X300661Y342843D02*
D03*
Y348748D02*
D03*
X308929Y348650D02*
D03*
Y342744D02*
D03*
D24*
X343000Y320949D02*
D03*
Y327051D02*
D03*
D25*
X365500Y375468D02*
D03*
Y371532D02*
D03*
X288000Y408968D02*
D03*
Y405031D02*
D03*
X308500Y385531D02*
D03*
Y389469D02*
D03*
X376500Y409469D02*
D03*
Y405532D02*
D03*
X372500Y405532D02*
D03*
Y409469D02*
D03*
X347000Y395468D02*
D03*
Y391531D02*
D03*
X343000Y391531D02*
D03*
Y395468D02*
D03*
X323500Y395468D02*
D03*
Y391531D02*
D03*
X319500Y391531D02*
D03*
Y395468D02*
D03*
X335500Y395468D02*
D03*
Y391531D02*
D03*
X331500Y391531D02*
D03*
Y395468D02*
D03*
X301500Y320468D02*
D03*
Y316531D02*
D03*
X307500Y320468D02*
D03*
Y316531D02*
D03*
X313000Y320468D02*
D03*
Y316531D02*
D03*
X329500Y288968D02*
D03*
Y285032D02*
D03*
X329000Y297468D02*
D03*
Y293531D02*
D03*
X365500Y384968D02*
D03*
Y381031D02*
D03*
X315000Y348031D02*
D03*
Y351969D02*
D03*
X330500Y280469D02*
D03*
Y276532D02*
D03*
X315500Y293531D02*
D03*
Y297468D02*
D03*
X311000Y293531D02*
D03*
Y297468D02*
D03*
X306000Y293531D02*
D03*
Y297468D02*
D03*
X352500Y367531D02*
D03*
Y371468D02*
D03*
X348500Y367531D02*
D03*
Y371468D02*
D03*
X318500Y375031D02*
D03*
Y378969D02*
D03*
X314000Y375031D02*
D03*
Y378969D02*
D03*
X369500Y375468D02*
D03*
Y371532D02*
D03*
D26*
X279031Y401500D02*
D03*
X282968D02*
D03*
X297532Y375000D02*
D03*
X301468D02*
D03*
X357031Y337000D02*
D03*
X360968D02*
D03*
X362968Y316000D02*
D03*
X359032D02*
D03*
X362968Y323500D02*
D03*
X359032D02*
D03*
X311531Y306500D02*
D03*
X315469D02*
D03*
X371969Y323500D02*
D03*
X368032D02*
D03*
X371969Y316000D02*
D03*
X368032D02*
D03*
X350468Y341000D02*
D03*
X346532D02*
D03*
X324468Y297500D02*
D03*
X320532D02*
D03*
X302468Y354000D02*
D03*
X298532D02*
D03*
X307031Y354000D02*
D03*
X310968D02*
D03*
X344468Y375500D02*
D03*
X340531D02*
D03*
X366968Y356500D02*
D03*
X363032D02*
D03*
X366968Y349500D02*
D03*
X363032D02*
D03*
X339469Y280500D02*
D03*
X335531D02*
D03*
X337968Y289000D02*
D03*
X334032D02*
D03*
X337469Y297500D02*
D03*
X333531D02*
D03*
X346468Y313500D02*
D03*
X342531D02*
D03*
X346468Y309500D02*
D03*
X342531D02*
D03*
X342531Y305500D02*
D03*
X346468D02*
D03*
X355532Y345000D02*
D03*
X359469D02*
D03*
X355532Y341000D02*
D03*
X359469D02*
D03*
X338032D02*
D03*
X341968D02*
D03*
D27*
X276000Y274000D02*
D03*
Y414500D02*
D03*
X380500Y274000D02*
D03*
M02*
