%FSLAX25Y25*%
%MOIN*%
G70*
G01*
G75*
G04 Layer_Color=65535*
%ADD10R,0.17716X0.17716*%
%ADD11O,0.02559X0.00984*%
%ADD12O,0.00984X0.02559*%
%ADD13R,0.08661X0.08661*%
%ADD14O,0.03150X0.01496*%
%ADD15O,0.01496X0.03150*%
%ADD16R,0.05315X0.03740*%
%ADD17R,0.11811X0.00039*%
%ADD18R,0.01575X0.01575*%
%ADD19R,0.03937X0.14961*%
%ADD20R,0.14961X0.03937*%
%ADD21R,0.17913X0.03937*%
%ADD22R,0.03937X0.17913*%
%ADD23R,0.03937X0.03543*%
%ADD24R,0.03150X0.03543*%
%ADD25R,0.01969X0.02362*%
%ADD26R,0.02362X0.01969*%
%ADD27C,0.03937*%
%ADD28C,0.01969*%
%ADD29C,0.01000*%
%ADD30C,0.03937*%
%ADD31C,0.00787*%
%ADD32C,0.01181*%
G04:AMPARAMS|DCode=33|XSize=18.11mil|YSize=66.44mil|CornerRadius=0mil|HoleSize=0mil|Usage=FLASHONLY|Rotation=214.500|XOffset=0mil|YOffset=0mil|HoleType=Round|Shape=Rectangle|*
%AMROTATEDRECTD33*
4,1,4,-0.01135,0.03251,0.02628,-0.02225,0.01135,-0.03251,-0.02628,0.02225,-0.01135,0.03251,0.0*
%
%ADD33ROTATEDRECTD33*%

%ADD34R,0.01811X0.07992*%
%ADD35R,0.12598X0.05079*%
%ADD36R,0.12598X0.04764*%
%ADD37R,0.08583X0.15590*%
%ADD38R,1.00709X0.04764*%
%ADD39R,0.36142X0.03937*%
%ADD40R,0.19193X0.05079*%
%ADD41R,0.04724X0.03150*%
%ADD42R,0.03937X0.02913*%
%ADD43R,0.35500X0.02000*%
%ADD44C,0.05906*%
%ADD45R,0.05906X0.05906*%
%ADD46R,0.05512X0.05512*%
%ADD47C,0.05512*%
%ADD48C,0.06000*%
%ADD49C,0.02598*%
%ADD50C,0.03150*%
%ADD51C,0.00984*%
D29*
X283772Y337630D02*
X355031D01*
Y266862D02*
Y337630D01*
X283772Y266862D02*
X355031D01*
X283772D02*
Y337630D01*
X348000Y266862D02*
X355031D01*
Y274000D01*
X283772Y330500D02*
Y337630D01*
X292500D01*
X291000Y323000D02*
Y330500D01*
X301500D01*
X339000Y273500D02*
X347500D01*
Y281500D01*
X291000Y273500D02*
X339000D01*
X291000D02*
Y323000D01*
X274000Y276500D02*
Y280499D01*
X275999Y282498D01*
X277999Y280499D01*
Y276500D01*
Y279499D01*
X274000D01*
X279998Y276500D02*
X281997D01*
X280998D01*
Y282498D01*
X279998Y281498D01*
X277500Y254000D02*
Y257999D01*
X279499Y259998D01*
X281499Y257999D01*
Y254000D01*
Y256999D01*
X277500D01*
X287497Y258998D02*
X286497Y259998D01*
X284498D01*
X283498Y258998D01*
Y257999D01*
X284498Y256999D01*
X286497D01*
X287497Y255999D01*
Y255000D01*
X286497Y254000D01*
X284498D01*
X283498Y255000D01*
X293495Y259998D02*
X289496D01*
Y254000D01*
X293495D01*
X289496Y256999D02*
X291495D01*
X301492Y259998D02*
Y255999D01*
X303492Y254000D01*
X305491Y255999D01*
Y259998D01*
X313488Y254000D02*
X315488D01*
X314488D01*
Y259998D01*
X313488Y258998D01*
X318487Y254000D02*
Y255000D01*
X319486D01*
Y254000D01*
X318487D01*
X327484D02*
X323485D01*
X327484Y257999D01*
Y258998D01*
X326484Y259998D01*
X324485D01*
X323485Y258998D01*
D31*
X319295Y369205D02*
X321559D01*
X319295Y366941D02*
Y369205D01*
Y344795D02*
Y347059D01*
Y344795D02*
X321559D01*
X341441D02*
X343705D01*
Y347059D01*
Y366941D02*
Y369205D01*
X341441D02*
X343705D01*
X321732Y318768D02*
X323602D01*
X321732Y316898D02*
Y318768D01*
Y302232D02*
Y304102D01*
Y302232D02*
X323602D01*
X336398D02*
X338268D01*
Y304102D01*
Y316898D02*
Y318768D01*
X336398D02*
X338268D01*
X275500Y345500D02*
Y395500D01*
X273000D02*
X275500Y393000D01*
X270500Y345500D02*
X275500D01*
X270500D02*
Y395500D01*
X275500D01*
X368000Y399236D02*
Y411500D01*
Y406500D02*
Y418626D01*
X297055D02*
X368000D01*
X297055Y399236D02*
Y418626D01*
Y399236D02*
X368000D01*
X301449Y345402D02*
X301498Y345451D01*
X303713D01*
X305780Y345402D02*
X307157D01*
X303713Y343728D02*
X305681D01*
X303713D02*
Y347173D01*
X305681D01*
Y343728D02*
Y347173D01*
X341819Y323606D02*
Y324394D01*
X344181Y323606D02*
Y324394D01*
X329500Y376936D02*
Y373656D01*
X330156Y373000D01*
X331468D01*
X332124Y373656D01*
Y376936D01*
X333436Y373000D02*
X334748D01*
X334092D01*
Y376936D01*
X333436Y376280D01*
X327344Y321500D02*
X330624D01*
X331279Y322156D01*
Y323468D01*
X330624Y324124D01*
X327344D01*
X331279Y328060D02*
Y325436D01*
X328656Y328060D01*
X328000D01*
X327344Y327404D01*
Y326092D01*
X328000Y325436D01*
X271000Y397000D02*
Y400936D01*
X272968D01*
X273624Y400280D01*
Y398968D01*
X272968Y398312D01*
X271000D01*
X277560Y397000D02*
X274936D01*
X277560Y399624D01*
Y400280D01*
X276904Y400936D01*
X275592D01*
X274936Y400280D01*
X288500Y395876D02*
Y398500D01*
X291124Y395876D01*
X291780D01*
X292436Y396532D01*
Y397844D01*
X291780Y398500D01*
X278500D02*
Y397188D01*
Y397844D01*
X282436D01*
X281780Y398500D01*
X279156Y344500D02*
X278500Y343844D01*
Y342532D01*
X279156Y341876D01*
X281780D01*
X282436Y342532D01*
Y343844D01*
X281780Y344500D01*
X281124D01*
X280468Y343844D01*
Y341876D01*
X288500Y344500D02*
Y343188D01*
Y343844D01*
X292436D01*
X291780Y344500D01*
Y341220D02*
X292436Y340564D01*
Y339252D01*
X291780Y338596D01*
X289156D01*
X288500Y339252D01*
Y340564D01*
X289156Y341220D01*
X291780D01*
X350000Y363786D02*
Y359850D01*
X351968D01*
X352624Y360506D01*
Y361162D01*
X351968Y361818D01*
X350000D01*
X351968D01*
X352624Y362474D01*
Y363130D01*
X351968Y363786D01*
X350000D01*
X356560Y360506D02*
Y363130D01*
X355904Y363786D01*
X354592D01*
X353936Y363130D01*
Y360506D01*
X354592Y359850D01*
X355904D01*
X355248Y361162D02*
X356560Y359850D01*
X355904D02*
X356560Y360506D01*
X357872Y359850D02*
X359183D01*
X358527D01*
Y363786D01*
X357872Y363130D01*
X295000Y413000D02*
X291064D01*
Y414968D01*
X291720Y415624D01*
X293032D01*
X293688Y414968D01*
Y413000D01*
X291720Y416936D02*
X291064Y417592D01*
Y418904D01*
X291720Y419560D01*
X292376D01*
X293032Y418904D01*
Y418248D01*
Y418904D01*
X293688Y419560D01*
X294344D01*
X295000Y418904D01*
Y417592D01*
X294344Y416936D01*
X278720Y301124D02*
X278064Y300468D01*
Y299156D01*
X278720Y298500D01*
X279376D01*
X280032Y299156D01*
Y300468D01*
X280688Y301124D01*
X281344D01*
X282000Y300468D01*
Y299156D01*
X281344Y298500D01*
X278720Y305060D02*
X278064Y304404D01*
Y303092D01*
X278720Y302436D01*
X281344D01*
X282000Y303092D01*
Y304404D01*
X281344Y305060D01*
X282000Y306371D02*
Y307683D01*
Y307027D01*
X278064D01*
X278720Y306371D01*
X294851Y344000D02*
X298000D01*
Y345574D01*
X297475Y346099D01*
X296951D01*
X296426Y345574D01*
Y344000D01*
Y345574D01*
X295901Y346099D01*
X295376D01*
X294851Y345574D01*
Y344000D01*
X297475Y349248D02*
X295376D01*
X294851Y348723D01*
Y347673D01*
X295376Y347149D01*
X297475D01*
X298000Y347673D01*
Y348723D01*
X296951Y348198D02*
X298000Y349248D01*
Y348723D02*
X297475Y349248D01*
X298000Y352396D02*
Y350297D01*
X295901Y352396D01*
X295376D01*
X294851Y351871D01*
Y350822D01*
X295376Y350297D01*
X348708Y327500D02*
X345559D01*
Y325401D01*
Y322252D02*
Y324351D01*
X347658Y322252D01*
X348183D01*
X348708Y322777D01*
Y323827D01*
X348183Y324351D01*
X365876Y365220D02*
X366532Y364564D01*
X367844D01*
X368500Y365220D01*
Y367844D01*
X367844Y368500D01*
X366532D01*
X365876Y367844D01*
X364564Y368500D02*
X363252D01*
X363908D01*
Y364564D01*
X364564Y365220D01*
X291000Y411000D02*
X294936D01*
Y409032D01*
X294280Y408376D01*
X292968D01*
X292312Y409032D01*
Y411000D01*
Y409688D02*
X291000Y408376D01*
Y404440D02*
Y407064D01*
X293624Y404440D01*
X294280D01*
X294936Y405096D01*
Y406408D01*
X294280Y407064D01*
X291000Y403128D02*
Y401817D01*
Y402473D01*
X294936D01*
X294280Y403128D01*
X306000Y382500D02*
X302851D01*
Y384074D01*
X303376Y384599D01*
X304426D01*
X304950Y384074D01*
Y382500D01*
Y383549D02*
X306000Y384599D01*
Y387748D02*
Y385649D01*
X303901Y387748D01*
X303376D01*
X302851Y387223D01*
Y386173D01*
X303376Y385649D01*
Y388797D02*
X302851Y389322D01*
Y390371D01*
X303376Y390896D01*
X305475D01*
X306000Y390371D01*
Y389322D01*
X305475Y388797D01*
X303376D01*
X379000Y411000D02*
X382936D01*
Y409032D01*
X382280Y408376D01*
X380968D01*
X380312Y409032D01*
Y411000D01*
Y409688D02*
X379000Y408376D01*
Y407064D02*
Y405752D01*
Y406408D01*
X382936D01*
X382280Y407064D01*
X379656Y403785D02*
X379000Y403128D01*
Y401817D01*
X379656Y401161D01*
X382280D01*
X382936Y401817D01*
Y403128D01*
X382280Y403785D01*
X381624D01*
X380968Y403128D01*
Y401161D01*
X369500Y412000D02*
Y415149D01*
X371074D01*
X371599Y414624D01*
Y413574D01*
X371074Y413050D01*
X369500D01*
X370550D02*
X371599Y412000D01*
X372649D02*
X373698D01*
X373173D01*
Y415149D01*
X372649Y414624D01*
X375272D02*
X375797Y415149D01*
X376847D01*
X377372Y414624D01*
Y414099D01*
X376847Y413574D01*
X377372Y413050D01*
Y412525D01*
X376847Y412000D01*
X375797D01*
X375272Y412525D01*
Y413050D01*
X375797Y413574D01*
X375272Y414099D01*
Y414624D01*
X375797Y413574D02*
X376847D01*
X349000Y397500D02*
X352936D01*
Y395532D01*
X352280Y394876D01*
X350968D01*
X350312Y395532D01*
Y397500D01*
Y396188D02*
X349000Y394876D01*
Y393564D02*
Y392252D01*
Y392908D01*
X352936D01*
X352280Y393564D01*
X352936Y390284D02*
Y387661D01*
X352280D01*
X349656Y390284D01*
X349000D01*
X344500Y382000D02*
X341745D01*
Y383378D01*
X342204Y383837D01*
X343123D01*
X343582Y383378D01*
Y382000D01*
Y382918D02*
X344500Y383837D01*
Y384755D02*
Y385673D01*
Y385214D01*
X341745D01*
X342204Y384755D01*
X341745Y388888D02*
X342204Y387969D01*
X343123Y387051D01*
X344041D01*
X344500Y387510D01*
Y388428D01*
X344041Y388888D01*
X343582D01*
X343123Y388428D01*
Y387051D01*
X275500Y404000D02*
Y407936D01*
X277468D01*
X278124Y407280D01*
Y405968D01*
X277468Y405312D01*
X275500D01*
X276812D02*
X278124Y404000D01*
X279436D02*
X280748D01*
X280092D01*
Y407936D01*
X279436Y407280D01*
X285339Y407936D02*
X282716D01*
Y405968D01*
X284027Y406624D01*
X284683D01*
X285339Y405968D01*
Y404656D01*
X284683Y404000D01*
X283371D01*
X282716Y404656D01*
X327000Y388500D02*
Y385351D01*
X325426D01*
X324901Y385876D01*
Y386926D01*
X325426Y387451D01*
X327000D01*
X325951D02*
X324901Y388500D01*
X323851D02*
X322802D01*
X323327D01*
Y385351D01*
X323851Y385876D01*
X319653Y388500D02*
Y385351D01*
X321228Y386926D01*
X319128D01*
X318000Y390000D02*
X315245D01*
Y391377D01*
X315704Y391837D01*
X316622D01*
X317082Y391377D01*
Y390000D01*
Y390918D02*
X318000Y391837D01*
Y392755D02*
Y393673D01*
Y393214D01*
X315245D01*
X315704Y392755D01*
Y395051D02*
X315245Y395510D01*
Y396428D01*
X315704Y396888D01*
X316163D01*
X316622Y396428D01*
Y395969D01*
Y396428D01*
X317082Y396888D01*
X317541D01*
X318000Y396428D01*
Y395510D01*
X317541Y395051D01*
X337500Y398000D02*
X340649D01*
Y396426D01*
X340124Y395901D01*
X339074D01*
X338549Y396426D01*
Y398000D01*
Y396951D02*
X337500Y395901D01*
Y394851D02*
Y393802D01*
Y394327D01*
X340649D01*
X340124Y394851D01*
X337500Y390128D02*
Y392228D01*
X339599Y390128D01*
X340124D01*
X340649Y390653D01*
Y391703D01*
X340124Y392228D01*
X335500Y388500D02*
Y385351D01*
X333926D01*
X333401Y385876D01*
Y386926D01*
X333926Y387451D01*
X335500D01*
X334451D02*
X333401Y388500D01*
X332351D02*
X331302D01*
X331827D01*
Y385351D01*
X332351Y385876D01*
X329728Y388500D02*
X328678D01*
X329203D01*
Y385351D01*
X329728Y385876D01*
X295500Y377500D02*
Y381436D01*
X297468D01*
X298124Y380780D01*
Y379468D01*
X297468Y378812D01*
X295500D01*
X296812D02*
X298124Y377500D01*
X299436D02*
X300748D01*
X300092D01*
Y381436D01*
X299436Y380780D01*
X302715D02*
X303372Y381436D01*
X304683D01*
X305339Y380780D01*
Y378156D01*
X304683Y377500D01*
X303372D01*
X302715Y378156D01*
Y380780D01*
X362000Y335000D02*
Y331851D01*
X360426D01*
X359901Y332376D01*
Y333426D01*
X360426Y333950D01*
X362000D01*
X360950D02*
X359901Y335000D01*
X358851Y334475D02*
X358327Y335000D01*
X357277D01*
X356752Y334475D01*
Y332376D01*
X357277Y331851D01*
X358327D01*
X358851Y332376D01*
Y332901D01*
X358327Y333426D01*
X356752D01*
X358000Y318000D02*
Y321149D01*
X359574D01*
X360099Y320624D01*
Y319574D01*
X359574Y319050D01*
X358000D01*
X359050D02*
X360099Y318000D01*
X361149Y320624D02*
X361673Y321149D01*
X362723D01*
X363248Y320624D01*
Y320099D01*
X362723Y319574D01*
X363248Y319050D01*
Y318525D01*
X362723Y318000D01*
X361673D01*
X361149Y318525D01*
Y319050D01*
X361673Y319574D01*
X361149Y320099D01*
Y320624D01*
X361673Y319574D02*
X362723D01*
X358531Y326059D02*
Y329995D01*
X360499D01*
X361155Y329339D01*
Y328027D01*
X360499Y327371D01*
X358531D01*
X359843D02*
X361155Y326059D01*
X362467Y329995D02*
X365091D01*
Y329339D01*
X362467Y326715D01*
Y326059D01*
X298500Y315000D02*
X294564D01*
Y316968D01*
X295220Y317624D01*
X296532D01*
X297188Y316968D01*
Y315000D01*
Y316312D02*
X298500Y317624D01*
X294564Y321560D02*
X295220Y320248D01*
X296532Y318936D01*
X297844D01*
X298500Y319592D01*
Y320904D01*
X297844Y321560D01*
X297188D01*
X296532Y320904D01*
Y318936D01*
X309876Y314156D02*
Y311007D01*
X308302D01*
X307777Y311532D01*
Y312581D01*
X308302Y313106D01*
X309876D01*
X308826D02*
X307777Y314156D01*
X304628Y311007D02*
X306727D01*
Y312581D01*
X305678Y312056D01*
X305153D01*
X304628Y312581D01*
Y313631D01*
X305153Y314156D01*
X306203D01*
X306727Y313631D01*
X312000Y308500D02*
Y311649D01*
X313574D01*
X314099Y311124D01*
Y310074D01*
X313574Y309549D01*
X312000D01*
X313050D02*
X314099Y308500D01*
X316723D02*
Y311649D01*
X315149Y310074D01*
X317248D01*
X368500Y326000D02*
Y329936D01*
X370468D01*
X371124Y329280D01*
Y327968D01*
X370468Y327312D01*
X368500D01*
X369812D02*
X371124Y326000D01*
X372436Y329280D02*
X373092Y329936D01*
X374404D01*
X375060Y329280D01*
Y328624D01*
X374404Y327968D01*
X373748D01*
X374404D01*
X375060Y327312D01*
Y326656D01*
X374404Y326000D01*
X373092D01*
X372436Y326656D01*
X375500Y313500D02*
Y309564D01*
X373532D01*
X372876Y310220D01*
Y311532D01*
X373532Y312188D01*
X375500D01*
X374188D02*
X372876Y313500D01*
X368940D02*
X371564D01*
X368940Y310876D01*
Y310220D01*
X369596Y309564D01*
X370908D01*
X371564Y310220D01*
X315559Y322500D02*
X319495D01*
Y320532D01*
X318839Y319876D01*
X317527D01*
X316871Y320532D01*
Y322500D01*
Y321188D02*
X315559Y319876D01*
Y318564D02*
Y317252D01*
Y317908D01*
X319495D01*
X318839Y318564D01*
X347000Y345649D02*
Y342500D01*
X349099D01*
X352248Y345649D02*
X351198Y345124D01*
X350149Y344074D01*
Y343025D01*
X350673Y342500D01*
X351723D01*
X352248Y343025D01*
Y343549D01*
X351723Y344074D01*
X350149D01*
X323351Y285500D02*
X326500D01*
Y287599D01*
X323351Y290748D02*
Y288649D01*
X324926D01*
X324401Y289698D01*
Y290223D01*
X324926Y290748D01*
X325975D01*
X326500Y290223D01*
Y289173D01*
X325975Y288649D01*
X334649Y295500D02*
X331500D01*
Y293401D01*
Y290777D02*
X334649D01*
X333074Y292351D01*
Y290252D01*
X325000Y291851D02*
Y295000D01*
X322901D01*
X321851Y292376D02*
X321327Y291851D01*
X320277D01*
X319752Y292376D01*
Y292901D01*
X320277Y293426D01*
X320802D01*
X320277D01*
X319752Y293951D01*
Y294475D01*
X320277Y295000D01*
X321327D01*
X321851Y294475D01*
X371995Y387724D02*
X368059D01*
Y385101D01*
Y383789D02*
Y382477D01*
Y383133D01*
X371995D01*
X371339Y383789D01*
X297099Y358624D02*
X296574Y359149D01*
X295525D01*
X295000Y358624D01*
Y356525D01*
X295525Y356000D01*
X296574D01*
X297099Y356525D01*
X300248Y356000D02*
X298149D01*
X300248Y358099D01*
Y358624D01*
X299723Y359149D01*
X298673D01*
X298149Y358624D01*
X303396Y359149D02*
X301297D01*
Y357574D01*
X302347Y358099D01*
X302871D01*
X303396Y357574D01*
Y356525D01*
X302871Y356000D01*
X301822D01*
X301297Y356525D01*
X306674Y358264D02*
X306150Y357740D01*
Y356690D01*
X306674Y356165D01*
X308773D01*
X309298Y356690D01*
Y357740D01*
X308773Y358264D01*
X309298Y361413D02*
Y359314D01*
X307199Y361413D01*
X306674D01*
X306150Y360888D01*
Y359839D01*
X306674Y359314D01*
X309298Y364037D02*
X306150D01*
X307724Y362462D01*
Y364562D01*
X313704Y356337D02*
X313245Y355877D01*
Y354959D01*
X313704Y354500D01*
X315541D01*
X316000Y354959D01*
Y355877D01*
X315541Y356337D01*
X316000Y359092D02*
Y357255D01*
X314163Y359092D01*
X313704D01*
X313245Y358632D01*
Y357714D01*
X313704Y357255D01*
Y360010D02*
X313245Y360469D01*
Y361388D01*
X313704Y361847D01*
X314163D01*
X314622Y361388D01*
Y360928D01*
Y361388D01*
X315082Y361847D01*
X315541D01*
X316000Y361388D01*
Y360469D01*
X315541Y360010D01*
X339837Y379796D02*
X339377Y380255D01*
X338459D01*
X338000Y379796D01*
Y377959D01*
X338459Y377500D01*
X339377D01*
X339837Y377959D01*
X342592Y377500D02*
X340755D01*
X342592Y379337D01*
Y379796D01*
X342132Y380255D01*
X341214D01*
X340755Y379796D01*
X345347Y377500D02*
X343510D01*
X345347Y379337D01*
Y379796D01*
X344888Y380255D01*
X343969D01*
X343510Y379796D01*
X363624Y361780D02*
X362968Y362436D01*
X361656D01*
X361000Y361780D01*
Y359156D01*
X361656Y358500D01*
X362968D01*
X363624Y359156D01*
X367560Y358500D02*
X364936D01*
X367560Y361124D01*
Y361780D01*
X366904Y362436D01*
X365592D01*
X364936Y361780D01*
X368871Y358500D02*
X370183D01*
X369527D01*
Y362436D01*
X368871Y361780D01*
X363099Y354124D02*
X362574Y354649D01*
X361525D01*
X361000Y354124D01*
Y352025D01*
X361525Y351500D01*
X362574D01*
X363099Y352025D01*
X366248Y351500D02*
X364149D01*
X366248Y353599D01*
Y354124D01*
X365723Y354649D01*
X364673D01*
X364149Y354124D01*
X367297D02*
X367822Y354649D01*
X368871D01*
X369396Y354124D01*
Y352025D01*
X368871Y351500D01*
X367822D01*
X367297Y352025D01*
Y354124D01*
X340401Y275876D02*
X340926Y275351D01*
X341975D01*
X342500Y275876D01*
Y277975D01*
X341975Y278500D01*
X340926D01*
X340401Y277975D01*
X339351Y278500D02*
X338302D01*
X338827D01*
Y275351D01*
X339351Y275876D01*
X336728Y277975D02*
X336203Y278500D01*
X335153D01*
X334629Y277975D01*
Y275876D01*
X335153Y275351D01*
X336203D01*
X336728Y275876D01*
Y276401D01*
X336203Y276926D01*
X334629D01*
X338062Y283817D02*
X338587Y283292D01*
X339636D01*
X340161Y283817D01*
Y285916D01*
X339636Y286441D01*
X338587D01*
X338062Y285916D01*
X337013Y286441D02*
X335963D01*
X336488D01*
Y283292D01*
X337013Y283817D01*
X334389D02*
X333864Y283292D01*
X332815D01*
X332290Y283817D01*
Y284342D01*
X332815Y284867D01*
X332290Y285391D01*
Y285916D01*
X332815Y286441D01*
X333864D01*
X334389Y285916D01*
Y285391D01*
X333864Y284867D01*
X334389Y284342D01*
Y283817D01*
X333864Y284867D02*
X332815D01*
X341337Y298296D02*
X340878Y298755D01*
X339959D01*
X339500Y298296D01*
Y296459D01*
X339959Y296000D01*
X340878D01*
X341337Y296459D01*
X342255Y296000D02*
X343173D01*
X342714D01*
Y298755D01*
X342255Y298296D01*
X344551Y298755D02*
X346388D01*
Y298296D01*
X344551Y296459D01*
Y296000D01*
X324376Y277099D02*
X323851Y276574D01*
Y275525D01*
X324376Y275000D01*
X326475D01*
X327000Y275525D01*
Y276574D01*
X326475Y277099D01*
X327000Y278149D02*
Y279198D01*
Y278673D01*
X323851D01*
X324376Y278149D01*
X323851Y282872D02*
X324376Y281822D01*
X325426Y280772D01*
X326475D01*
X327000Y281297D01*
Y282347D01*
X326475Y282872D01*
X325951D01*
X325426Y282347D01*
Y280772D01*
X317624Y287901D02*
X318149Y288426D01*
Y289475D01*
X317624Y290000D01*
X315525D01*
X315000Y289475D01*
Y288426D01*
X315525Y287901D01*
X315000Y286851D02*
Y285802D01*
Y286327D01*
X318149D01*
X317624Y286851D01*
X318149Y282129D02*
Y284228D01*
X316574D01*
X317099Y283178D01*
Y282653D01*
X316574Y282129D01*
X315525D01*
X315000Y282653D01*
Y283703D01*
X315525Y284228D01*
X312124Y287901D02*
X312649Y288426D01*
Y289475D01*
X312124Y290000D01*
X310025D01*
X309500Y289475D01*
Y288426D01*
X310025Y287901D01*
X309500Y286851D02*
Y285802D01*
Y286327D01*
X312649D01*
X312124Y286851D01*
X309500Y282653D02*
X312649D01*
X311074Y284228D01*
Y282129D01*
X306624Y287901D02*
X307149Y288426D01*
Y289475D01*
X306624Y290000D01*
X304525D01*
X304000Y289475D01*
Y288426D01*
X304525Y287901D01*
X304000Y286851D02*
Y285802D01*
Y286327D01*
X307149D01*
X306624Y286851D01*
Y284228D02*
X307149Y283703D01*
Y282653D01*
X306624Y282129D01*
X306099D01*
X305574Y282653D01*
Y283178D01*
Y282653D01*
X305049Y282129D01*
X304525D01*
X304000Y282653D01*
Y283703D01*
X304525Y284228D01*
X343337Y318296D02*
X342878Y318755D01*
X341959D01*
X341500Y318296D01*
Y316459D01*
X341959Y316000D01*
X342878D01*
X343337Y316459D01*
X344255Y316000D02*
X345173D01*
X344714D01*
Y318755D01*
X344255Y318296D01*
X348388Y316000D02*
X346551D01*
X348388Y317837D01*
Y318296D01*
X347928Y318755D01*
X347010D01*
X346551Y318296D01*
X350337Y312796D02*
X349878Y313255D01*
X348959D01*
X348500Y312796D01*
Y310959D01*
X348959Y310500D01*
X349878D01*
X350337Y310959D01*
X351255Y310500D02*
X352173D01*
X351714D01*
Y313255D01*
X351255Y312796D01*
X353551Y310500D02*
X354469D01*
X354010D01*
Y313255D01*
X353551Y312796D01*
X345901Y300876D02*
X346426Y300351D01*
X347475D01*
X348000Y300876D01*
Y302975D01*
X347475Y303500D01*
X346426D01*
X345901Y302975D01*
X344851Y303500D02*
X343802D01*
X344327D01*
Y300351D01*
X344851Y300876D01*
X342228D02*
X341703Y300351D01*
X340653D01*
X340128Y300876D01*
Y302975D01*
X340653Y303500D01*
X341703D01*
X342228Y302975D01*
Y300876D01*
X363796Y345163D02*
X364255Y345622D01*
Y346541D01*
X363796Y347000D01*
X361959D01*
X361500Y346541D01*
Y345622D01*
X361959Y345163D01*
Y344245D02*
X361500Y343786D01*
Y342867D01*
X361959Y342408D01*
X363796D01*
X364255Y342867D01*
Y343786D01*
X363796Y344245D01*
X363337D01*
X362877Y343786D01*
Y342408D01*
X365824Y340124D02*
X365299Y340649D01*
X364249D01*
X363724Y340124D01*
Y338025D01*
X364249Y337500D01*
X365299D01*
X365824Y338025D01*
X366873Y340124D02*
X367398Y340649D01*
X368447D01*
X368972Y340124D01*
Y339599D01*
X368447Y339074D01*
X368972Y338549D01*
Y338025D01*
X368447Y337500D01*
X367398D01*
X366873Y338025D01*
Y338549D01*
X367398Y339074D01*
X366873Y339599D01*
Y340124D01*
X367398Y339074D02*
X368447D01*
X352457Y376848D02*
X351801Y376192D01*
Y374880D01*
X352457Y374224D01*
X355081D01*
X355737Y374880D01*
Y376192D01*
X355081Y376848D01*
X351801Y378160D02*
Y380784D01*
X352457D01*
X355081Y378160D01*
X355737D01*
X347220Y376624D02*
X346564Y375968D01*
Y374656D01*
X347220Y374000D01*
X349844D01*
X350500Y374656D01*
Y375968D01*
X349844Y376624D01*
X346564Y380560D02*
X347220Y379248D01*
X348532Y377936D01*
X349844D01*
X350500Y378592D01*
Y379904D01*
X349844Y380560D01*
X349188D01*
X348532Y379904D01*
Y377936D01*
X319401Y370376D02*
X319926Y369851D01*
X320975D01*
X321500Y370376D01*
Y372475D01*
X320975Y373000D01*
X319926D01*
X319401Y372475D01*
X316252Y369851D02*
X318351D01*
Y371426D01*
X317302Y370901D01*
X316777D01*
X316252Y371426D01*
Y372475D01*
X316777Y373000D01*
X317827D01*
X318351Y372475D01*
X313124Y384280D02*
X312468Y384936D01*
X311156D01*
X310500Y384280D01*
Y381656D01*
X311156Y381000D01*
X312468D01*
X313124Y381656D01*
X316404Y381000D02*
Y384936D01*
X314436Y382968D01*
X317060D01*
X331099Y342124D02*
X330574Y342649D01*
X329525D01*
X329000Y342124D01*
Y340025D01*
X329525Y339500D01*
X330574D01*
X331099Y340025D01*
X332149Y342124D02*
X332673Y342649D01*
X333723D01*
X334248Y342124D01*
Y341599D01*
X333723Y341074D01*
X333198D01*
X333723D01*
X334248Y340549D01*
Y340025D01*
X333723Y339500D01*
X332673D01*
X332149Y340025D01*
X375780Y374376D02*
X376436Y375032D01*
Y376344D01*
X375780Y377000D01*
X373156D01*
X372500Y376344D01*
Y375032D01*
X373156Y374376D01*
X372500Y370440D02*
Y373064D01*
X375124Y370440D01*
X375780D01*
X376436Y371096D01*
Y372408D01*
X375780Y373064D01*
D51*
X340850Y372354D02*
G03*
X340850Y372354I-492J0D01*
G01*
X334331Y321917D02*
G03*
X334331Y321917I-492J0D01*
G01*
X312500Y351500D02*
G03*
X312500Y351500I-492J0D01*
G01*
M02*
