%FSLAX25Y25*%
%MOIN*%
G70*
G01*
G75*
G04 Layer_Physical_Order=1*
G04 Layer_Color=255*
%ADD10R,0.17716X0.17716*%
%ADD11O,0.02559X0.00984*%
%ADD12O,0.00984X0.02559*%
%ADD13R,0.08661X0.08661*%
%ADD14O,0.03150X0.01496*%
%ADD15O,0.01496X0.03150*%
%ADD16R,0.05315X0.03740*%
%ADD17R,0.11811X0.00039*%
%ADD18R,0.01575X0.01575*%
%ADD19R,0.03937X0.14961*%
%ADD20R,0.14961X0.03937*%
%ADD21R,0.17913X0.03937*%
%ADD22R,0.03937X0.17913*%
%ADD23R,0.03937X0.03543*%
%ADD24R,0.03150X0.03543*%
%ADD25R,0.01969X0.02362*%
%ADD26R,0.02362X0.01969*%
%ADD27C,0.03937*%
%ADD28C,0.01969*%
%ADD29C,0.01000*%
%ADD30C,0.03937*%
%ADD31C,0.00787*%
%ADD32C,0.01181*%
G04:AMPARAMS|DCode=33|XSize=18.11mil|YSize=66.44mil|CornerRadius=0mil|HoleSize=0mil|Usage=FLASHONLY|Rotation=214.500|XOffset=0mil|YOffset=0mil|HoleType=Round|Shape=Rectangle|*
%AMROTATEDRECTD33*
4,1,4,-0.01135,0.03251,0.02628,-0.02225,0.01135,-0.03251,-0.02628,0.02225,-0.01135,0.03251,0.0*
%
%ADD33ROTATEDRECTD33*%

%ADD34R,0.01811X0.07992*%
%ADD35R,0.12598X0.05079*%
%ADD36R,0.12598X0.04764*%
%ADD37R,0.08583X0.15590*%
%ADD38R,1.00709X0.04764*%
%ADD39R,0.36142X0.03937*%
%ADD40R,0.19193X0.05079*%
%ADD41R,0.04724X0.03150*%
%ADD42R,0.03937X0.02913*%
%ADD43R,0.35500X0.02000*%
%ADD44C,0.05906*%
%ADD45R,0.05906X0.05906*%
%ADD46R,0.05512X0.05512*%
%ADD47C,0.05512*%
%ADD48C,0.06000*%
%ADD49C,0.02598*%
%ADD50C,0.03150*%
G36*
X352289Y389500D02*
X358711D01*
X358962Y389786D01*
X359749Y389760D01*
X359754Y389754D01*
X360412Y389249D01*
X361178Y388931D01*
X362000Y388823D01*
X362822Y388931D01*
X362838Y388938D01*
X363493Y388501D01*
Y387724D01*
X362941D01*
Y383562D01*
X362322Y382068D01*
X362000Y382111D01*
Y379000D01*
X361500D01*
Y378500D01*
X358389D01*
X358432Y378178D01*
X358749Y377412D01*
X359254Y376754D01*
X359294Y376133D01*
X358299Y375137D01*
X358000Y375177D01*
X357178Y375068D01*
X356412Y374751D01*
X355754Y374246D01*
X355737Y374224D01*
X355059Y374224D01*
Y374224D01*
X353000D01*
Y371468D01*
X352000D01*
Y374224D01*
X349000D01*
Y371468D01*
X348000D01*
Y374224D01*
X347507D01*
Y374468D01*
X347354Y375237D01*
X347224Y375431D01*
Y378059D01*
D01*
Y378059D01*
X347658Y378493D01*
X353000D01*
X353768Y378646D01*
X354111Y378874D01*
X354500Y378823D01*
X355322Y378931D01*
X356088Y379249D01*
X356746Y379754D01*
X357251Y380412D01*
X357569Y381178D01*
X357677Y382000D01*
X357569Y382822D01*
X357251Y383588D01*
X356746Y384246D01*
X356088Y384751D01*
X355322Y385068D01*
X355413Y385756D01*
X355500Y385823D01*
X356322Y385931D01*
X357088Y386249D01*
X357746Y386754D01*
X358251Y387412D01*
X358569Y388178D01*
X358611Y388500D01*
X352389D01*
X352432Y388178D01*
X352749Y387412D01*
X353254Y386754D01*
X353912Y386249D01*
X354678Y385931D01*
X354587Y385244D01*
X354500Y385177D01*
X353678Y385068D01*
X352912Y384751D01*
X352254Y384246D01*
X351749Y383588D01*
X351431Y382822D01*
X351390Y382507D01*
X338430D01*
X338246Y382746D01*
X337588Y383251D01*
X336822Y383569D01*
X336000Y383677D01*
X335178Y383569D01*
X335146Y383555D01*
X334612Y383912D01*
X334535Y384696D01*
X336331Y386493D01*
X336331Y386493D01*
Y386493D01*
X336754Y386254D01*
X336754Y386254D01*
Y386254D01*
X337412Y385749D01*
X338178Y385432D01*
X339000Y385323D01*
X339822Y385432D01*
X340588Y385749D01*
X341246Y386254D01*
X341751Y386912D01*
X342069Y387678D01*
X342177Y388500D01*
X342419Y388776D01*
X344441D01*
Y388776D01*
X349559D01*
Y389993D01*
X351857D01*
X352289Y389500D01*
D02*
G37*
G36*
X328509Y389359D02*
Y383641D01*
X327917Y383122D01*
X327500Y383177D01*
X326678Y383068D01*
X325912Y382751D01*
X325500Y382435D01*
X325088Y382751D01*
X324322Y383068D01*
X323500Y383177D01*
X322678Y383068D01*
X321912Y382751D01*
X321254Y382246D01*
X320853Y381724D01*
X319000D01*
Y378969D01*
X318000D01*
Y381724D01*
X314500D01*
Y378969D01*
X313500D01*
Y381724D01*
X311441D01*
Y381724D01*
X310623Y381724D01*
X310588Y381751D01*
X309980Y382003D01*
X310133Y382776D01*
X311059D01*
Y383524D01*
X311531D01*
X312300Y383677D01*
X312597Y383876D01*
X313000Y383823D01*
X313822Y383931D01*
X314588Y384249D01*
X315246Y384754D01*
X315751Y385412D01*
X316069Y386178D01*
X316177Y387000D01*
X316069Y387822D01*
X315751Y388588D01*
X315428Y389009D01*
X315746Y389254D01*
X316195Y389839D01*
X316941Y389586D01*
Y388776D01*
X320941D01*
Y388776D01*
X326059D01*
Y389530D01*
X326800Y389677D01*
X327097Y389876D01*
X327500Y389823D01*
X327917Y389878D01*
X328509Y389359D01*
D02*
G37*
G36*
X320590Y304473D02*
X321496Y304293D01*
X323150D01*
X323258Y304315D01*
X323815Y303758D01*
X323793Y303650D01*
Y303323D01*
X326161D01*
Y302323D01*
X323793D01*
Y301996D01*
X323973Y301090D01*
X324198Y300753D01*
X323827Y300059D01*
X320699D01*
X320532Y300081D01*
X318059D01*
Y300224D01*
X314382D01*
X313945Y300879D01*
X314069Y301178D01*
X314177Y302000D01*
X314069Y302822D01*
X313876Y303286D01*
X314314Y303941D01*
X318224D01*
Y304546D01*
X320481D01*
X320590Y304473D01*
D02*
G37*
G36*
X287310Y394320D02*
X287271Y393729D01*
X286545Y392783D01*
X286089Y391682D01*
X285933Y390500D01*
X286089Y389318D01*
X286545Y388217D01*
X286548Y388213D01*
X286199Y387507D01*
X285028D01*
Y390000D01*
X280500D01*
Y390500D01*
X280000D01*
Y395028D01*
X276507D01*
Y396137D01*
X279311Y398941D01*
X282689D01*
X287310Y394320D01*
D02*
G37*
G36*
X286231Y372532D02*
X286361Y372338D01*
X286089Y371682D01*
X285933Y370500D01*
X286089Y369318D01*
X286545Y368217D01*
X287271Y367271D01*
X288217Y366545D01*
X289318Y366089D01*
X290500Y365933D01*
X291682Y366089D01*
X292783Y366545D01*
X293729Y367271D01*
X294455Y368217D01*
X294569Y368493D01*
X295910D01*
X296409Y367884D01*
X296317Y367419D01*
X295912Y367251D01*
X295254Y366746D01*
X294749Y366088D01*
X294431Y365322D01*
X294323Y364500D01*
X294361Y364214D01*
X294029Y363959D01*
X293687Y363762D01*
X292783Y364455D01*
X291682Y364911D01*
X290500Y365067D01*
X289318Y364911D01*
X288217Y364455D01*
X287271Y363729D01*
X286545Y362783D01*
X286089Y361682D01*
X285933Y360500D01*
X286089Y359318D01*
X286426Y358505D01*
X285771Y358067D01*
X284797Y359042D01*
X284911Y359318D01*
X285067Y360500D01*
X284911Y361682D01*
X284455Y362783D01*
X283729Y363729D01*
X282783Y364455D01*
X281682Y364911D01*
X280500Y365067D01*
X279318Y364911D01*
X279042Y364797D01*
X278628Y365210D01*
X278706Y365994D01*
X279028Y366209D01*
X279318Y366089D01*
X280500Y365933D01*
X281682Y366089D01*
X282783Y366545D01*
X283729Y367271D01*
X284455Y368217D01*
X284911Y369318D01*
X285067Y370500D01*
X284911Y371682D01*
X284797Y371958D01*
X285448Y372609D01*
X286231Y372532D01*
D02*
G37*
G36*
X309676Y368986D02*
X309749Y368809D01*
X310254Y368151D01*
X310912Y367646D01*
X311678Y367329D01*
X312500Y367221D01*
X313322Y367329D01*
X314088Y367646D01*
X314746Y368151D01*
X315251Y368809D01*
X315568Y369575D01*
X315677Y370397D01*
X315568Y371220D01*
X315402Y371621D01*
X315840Y372276D01*
X318418D01*
X320611Y370082D01*
X320534Y369697D01*
Y368122D01*
X320378Y367966D01*
X318803D01*
X317997Y367805D01*
X317313Y367348D01*
X316856Y366665D01*
X316733Y366046D01*
X309292D01*
X308637Y366701D01*
X308677Y367000D01*
X308569Y367822D01*
X308251Y368588D01*
X307746Y369246D01*
X307088Y369751D01*
X306322Y370069D01*
X305656Y370156D01*
X305569Y370822D01*
X305251Y371588D01*
X304746Y372246D01*
X304224Y372647D01*
Y373408D01*
X304952Y373710D01*
X309676Y368986D01*
D02*
G37*
G36*
X369941Y406713D02*
Y402776D01*
X370493D01*
Y378224D01*
X368059D01*
Y378276D01*
X368059D01*
Y382213D01*
Y387724D01*
X367507D01*
Y401500D01*
X367354Y402268D01*
X367117Y402623D01*
X367219Y402870D01*
X367368Y404000D01*
X367219Y405130D01*
X366783Y406184D01*
X366345Y406755D01*
X366693Y407461D01*
X369941D01*
Y406713D01*
D02*
G37*
G36*
X359493Y406543D02*
X359217Y406184D01*
X358781Y405130D01*
X358632Y404000D01*
X358781Y402870D01*
X359217Y401816D01*
X359911Y400911D01*
X360816Y400217D01*
X361870Y399781D01*
X363000Y399632D01*
X363493Y399200D01*
Y395499D01*
X362838Y395062D01*
X362822Y395069D01*
X362000Y395177D01*
X361178Y395069D01*
X360412Y394751D01*
X359754Y394246D01*
X359570Y394007D01*
X349559D01*
Y398224D01*
X349007D01*
Y400865D01*
X349753Y401118D01*
X349911Y400911D01*
X350816Y400217D01*
X351870Y399781D01*
X353000Y399632D01*
X354131Y399781D01*
X355184Y400217D01*
X356089Y400911D01*
X356783Y401816D01*
X357219Y402870D01*
X357368Y404000D01*
X357219Y405130D01*
X357146Y405307D01*
X358901Y407062D01*
X359493Y406543D01*
D02*
G37*
G36*
X332008Y259482D02*
X331689Y260508D01*
X333500D01*
X332008Y259482D01*
D02*
G37*
G36*
X301611Y418112D02*
X300816Y417783D01*
X299911Y417089D01*
X299217Y416184D01*
X298781Y415131D01*
X298698Y414500D01*
X303000D01*
Y413500D01*
X298698D01*
X298781Y412870D01*
X299217Y411816D01*
X299296Y411713D01*
X298948Y411007D01*
X290559D01*
Y411724D01*
X285441D01*
Y406213D01*
Y404059D01*
X276276D01*
Y401582D01*
X273081Y398388D01*
X272646Y397737D01*
X272493Y396969D01*
Y354500D01*
X272646Y353732D01*
X273081Y353081D01*
X275975Y350187D01*
X276089Y349318D01*
X276545Y348217D01*
X277271Y347271D01*
X278217Y346545D01*
X279318Y346089D01*
X280500Y345933D01*
X281682Y346089D01*
X282783Y346545D01*
X282979Y346695D01*
X283756Y346567D01*
X284081Y346081D01*
X289581Y340581D01*
X290232Y340146D01*
X290359Y340120D01*
X291000Y339993D01*
X292070D01*
X292254Y339754D01*
X292912Y339249D01*
X293678Y338931D01*
X294500Y338823D01*
X295322Y338931D01*
X296088Y339249D01*
X296411Y339496D01*
X297118Y339496D01*
Y339496D01*
X299665D01*
X300804Y338357D01*
X300503Y337630D01*
X295000D01*
Y334587D01*
X305031D01*
Y335993D01*
X310543D01*
Y334587D01*
X319598D01*
Y334087D01*
X320098D01*
Y330543D01*
X328400D01*
Y326392D01*
X327225Y325216D01*
X327005Y324888D01*
X326228Y324760D01*
X325588Y325251D01*
X324822Y325569D01*
X324500Y325611D01*
Y322500D01*
X324000D01*
Y322000D01*
X320889D01*
X320932Y321678D01*
X321249Y320912D01*
X321754Y320254D01*
X322412Y319749D01*
X323178Y319431D01*
X323519Y319387D01*
X323793Y319004D01*
Y318677D01*
X326161D01*
Y317677D01*
X323793D01*
Y317350D01*
X323815Y317242D01*
X323258Y316685D01*
X323150Y316707D01*
X321496D01*
X320590Y316527D01*
X320481Y316454D01*
X316069D01*
X315559Y316964D01*
Y317713D01*
Y323224D01*
X315559D01*
X315559Y323661D01*
X315751Y323912D01*
X316069Y324678D01*
X316177Y325500D01*
X316069Y326322D01*
X315751Y327088D01*
X315246Y327746D01*
X314588Y328251D01*
X314105Y328452D01*
X314177Y329000D01*
X314069Y329822D01*
X314041Y329889D01*
X314478Y330543D01*
X319098D01*
Y333587D01*
X310543D01*
Y332117D01*
X310178Y332068D01*
X309412Y331751D01*
X308754Y331246D01*
X308249Y330588D01*
X307931Y329822D01*
X307889Y329500D01*
X311000D01*
Y328500D01*
X307889D01*
X307916Y328293D01*
X307437Y327668D01*
X306678Y327569D01*
X305912Y327251D01*
X305254Y326746D01*
X304749Y326088D01*
X304432Y325322D01*
X304323Y324500D01*
X304413Y323816D01*
X304210Y323585D01*
X303450Y323789D01*
X303354Y324268D01*
X302919Y324919D01*
X302637Y325201D01*
X302677Y325500D01*
X302569Y326322D01*
X302251Y327088D01*
X301746Y327746D01*
X301088Y328251D01*
X300322Y328569D01*
X299500Y328677D01*
X298678Y328569D01*
X297912Y328251D01*
X297254Y327746D01*
X296749Y327088D01*
X296431Y326322D01*
X296323Y325500D01*
X296431Y324678D01*
X296749Y323912D01*
X297254Y323254D01*
X297912Y322749D01*
X298678Y322431D01*
X298941Y322397D01*
Y317713D01*
Y313776D01*
X301264D01*
X307315Y307725D01*
X307315Y307725D01*
X307315D01*
X307315Y307725D01*
X307315D01*
X307315Y307725D01*
Y307725D01*
Y307725D01*
D01*
D01*
X307315D01*
Y307725D01*
X308001Y307266D01*
X308776Y307112D01*
Y304263D01*
X308754Y304246D01*
X308249Y303588D01*
X307931Y302822D01*
X307823Y302000D01*
X307931Y301178D01*
X308055Y300879D01*
X307618Y300224D01*
X303441D01*
Y294713D01*
Y294032D01*
X306000D01*
Y293531D01*
X306500D01*
Y290776D01*
X310500D01*
Y293531D01*
X311500D01*
Y290776D01*
X315000D01*
Y293531D01*
X315500D01*
Y294032D01*
X318059D01*
Y294713D01*
Y294919D01*
X320532D01*
X320699Y294941D01*
X324301D01*
X324468Y294919D01*
X326441D01*
Y294713D01*
Y293699D01*
X326419Y293531D01*
Y289469D01*
X326507Y288801D01*
X326614Y288543D01*
X326765Y288178D01*
X326941Y287948D01*
Y286213D01*
Y285199D01*
X326919Y285032D01*
X326941Y284864D01*
Y282276D01*
X327919D01*
Y280469D01*
X327941Y280301D01*
Y279287D01*
Y277986D01*
X327405Y277287D01*
X327048Y276425D01*
X326926Y275500D01*
Y273752D01*
X324111D01*
X323251Y274412D01*
X323569Y275178D01*
X323611Y275500D01*
X317389D01*
X317431Y275178D01*
X317749Y274412D01*
X316889Y273752D01*
X310248D01*
Y270709D01*
X319303D01*
Y269709D01*
X310248D01*
Y268000D01*
X305228D01*
Y269709D01*
X284067D01*
Y268000D01*
X278958D01*
X278832Y268777D01*
X279500Y269000D01*
X281000Y270500D01*
X282000Y273500D01*
Y274500D01*
X281500Y276500D01*
X280500Y278000D01*
X278500Y279500D01*
X278069Y279586D01*
X278198Y280363D01*
X278500Y280323D01*
X279322Y280432D01*
X280088Y280749D01*
X280746Y281254D01*
X281251Y281912D01*
X281569Y282678D01*
X281611Y283000D01*
X275389D01*
X275431Y282678D01*
X275749Y281912D01*
X276254Y281254D01*
X276912Y280749D01*
X277528Y280494D01*
Y280494D01*
X277528Y280494D01*
X277299Y279740D01*
X276000Y280000D01*
X274000Y279500D01*
X272285Y278643D01*
X271616Y279057D01*
Y409589D01*
X272310Y409960D01*
X273000Y409500D01*
X275000Y408500D01*
X276500D01*
X279500Y409500D01*
X281000Y411000D01*
X282000Y414000D01*
Y414101D01*
X282749Y414412D01*
X283254Y413754D01*
X283912Y413249D01*
X284678Y412931D01*
X285000Y412889D01*
Y416000D01*
X285500D01*
Y416500D01*
X288611D01*
X288568Y416822D01*
X288251Y417588D01*
X287799Y418178D01*
X287986Y418559D01*
X288236Y418885D01*
X301458D01*
X301611Y418112D01*
D02*
G37*
G36*
X288263Y402146D02*
X289032Y401993D01*
X299144D01*
X299217Y401816D01*
X299911Y400911D01*
X300816Y400217D01*
X301870Y399781D01*
X301935Y399772D01*
X302188Y399026D01*
X300049Y396888D01*
X299899Y396662D01*
X299132Y396841D01*
X299068Y397322D01*
X298751Y398088D01*
X298246Y398746D01*
X297588Y399251D01*
X296822Y399569D01*
X296500Y399611D01*
Y396500D01*
X296000D01*
Y396000D01*
X292889D01*
X292932Y395678D01*
X293180Y395078D01*
X292987Y394885D01*
X292203Y394962D01*
X291919Y395388D01*
X285759Y401548D01*
X286060Y402276D01*
X288069D01*
X288263Y402146D01*
D02*
G37*
G36*
X384885Y278967D02*
X384180Y278615D01*
X383000Y279500D01*
X382049Y279690D01*
X381644Y280366D01*
X381648Y280379D01*
X381808Y282000D01*
X381648Y283621D01*
X381175Y285179D01*
X380408Y286615D01*
X379374Y287874D01*
X378116Y288908D01*
X376679Y289675D01*
X375121Y290148D01*
X373500Y290308D01*
X371879Y290148D01*
X370321Y289675D01*
X368884Y288908D01*
X367626Y287874D01*
X366592Y286615D01*
X365825Y285179D01*
X365352Y283621D01*
X365192Y282000D01*
X365276Y281149D01*
X364512Y280958D01*
X364251Y281588D01*
X363746Y282246D01*
X363088Y282751D01*
X362322Y283068D01*
X362000Y283111D01*
Y280000D01*
Y276889D01*
X362322Y276932D01*
X363088Y277249D01*
X363746Y277754D01*
X364251Y278412D01*
X364568Y279178D01*
X364672Y279968D01*
X365457Y280032D01*
X365825Y278821D01*
X366592Y277384D01*
X367626Y276126D01*
X368884Y275092D01*
X370321Y274325D01*
X371879Y273852D01*
X373500Y273692D01*
X374551Y273796D01*
X375000Y272000D01*
X376000Y270000D01*
X377500Y269000D01*
X377967Y268766D01*
X377786Y268000D01*
X354933D01*
Y269709D01*
X348896D01*
X348485Y269984D01*
X347870Y270106D01*
X344402D01*
Y270209D01*
X343902D01*
Y273752D01*
X334074D01*
Y275500D01*
X333952Y276425D01*
X333617Y277233D01*
X334055Y277887D01*
X335500D01*
X335907Y277941D01*
X338968D01*
Y280500D01*
Y283059D01*
X333081D01*
Y284032D01*
X332993Y284700D01*
X332735Y285322D01*
X332460Y285681D01*
X332762Y286293D01*
X332856Y286387D01*
X334000D01*
X334407Y286441D01*
X337469D01*
Y289000D01*
X338469D01*
Y286441D01*
X340161D01*
X340412Y286249D01*
X341178Y285931D01*
X341500Y285889D01*
Y289000D01*
X342000D01*
Y289500D01*
X345111D01*
X345069Y289822D01*
X344751Y290588D01*
X344552Y290847D01*
X344655Y291628D01*
X344778Y291722D01*
X345283Y292380D01*
X345600Y293146D01*
X345708Y293969D01*
X345600Y294791D01*
X345283Y295557D01*
X344778Y296215D01*
X344739Y296244D01*
Y302941D01*
X345969D01*
Y305500D01*
X346969D01*
Y302941D01*
X347847D01*
Y302402D01*
X350890D01*
Y310957D01*
X349224D01*
Y313000D01*
X346468D01*
Y314000D01*
X349224D01*
Y316059D01*
D01*
Y316059D01*
X349634Y316469D01*
X350890D01*
Y327000D01*
X351390D01*
Y327500D01*
X354933D01*
Y334441D01*
X360469D01*
Y337000D01*
X360968D01*
Y337500D01*
X363724D01*
Y339559D01*
X362224D01*
Y340500D01*
X359469D01*
Y341500D01*
X362224D01*
Y342441D01*
Y343367D01*
X362997Y343520D01*
X363249Y342912D01*
X363754Y342254D01*
X364412Y341749D01*
X365178Y341431D01*
X365500Y341389D01*
Y344500D01*
X366000D01*
Y345000D01*
X369111D01*
X369069Y345322D01*
X368751Y346088D01*
X368639Y346235D01*
X368987Y346941D01*
X369724D01*
Y349000D01*
X366968D01*
Y349500D01*
X366469D01*
Y352059D01*
X360732D01*
Y352803D01*
Y353941D01*
X366469D01*
Y356500D01*
X367469D01*
Y353941D01*
X369724D01*
Y355270D01*
X370431Y355618D01*
X370912Y355249D01*
X371678Y354931D01*
X372500Y354823D01*
X372657Y354844D01*
X373249Y354325D01*
Y342587D01*
X366612Y335951D01*
X366177Y335300D01*
X366024Y334531D01*
Y326059D01*
X359531D01*
Y323500D01*
Y320941D01*
X369961D01*
Y318559D01*
X359531D01*
Y316000D01*
X358531D01*
Y318559D01*
X356276D01*
Y313441D01*
X357013D01*
X357361Y312735D01*
X357249Y312588D01*
X356931Y311822D01*
X356823Y311000D01*
X356931Y310178D01*
X357249Y309412D01*
X357754Y308754D01*
X358412Y308249D01*
X359178Y307931D01*
X360000Y307823D01*
X360299Y307863D01*
X361081Y307081D01*
X361732Y306646D01*
X361859Y306620D01*
X362500Y306493D01*
X367500D01*
X368268Y306646D01*
X368919Y307081D01*
X368919Y307081D01*
X368919Y307081D01*
X373388Y311549D01*
X373823Y312200D01*
X373848Y312328D01*
X373976Y312968D01*
Y313441D01*
X374724D01*
Y316353D01*
X375412Y317249D01*
X376178Y316932D01*
X376500Y316889D01*
Y320000D01*
Y323111D01*
X376178Y323068D01*
X375412Y322751D01*
X374724Y323647D01*
Y326059D01*
X370039D01*
Y333700D01*
X372403Y336065D01*
X373058Y335627D01*
X372932Y335322D01*
X372889Y335000D01*
X375500D01*
Y337611D01*
X375178Y337568D01*
X374873Y337442D01*
X374435Y338097D01*
X376675Y340337D01*
X377110Y340988D01*
X377136Y341115D01*
X377263Y341756D01*
Y359141D01*
X377136Y359782D01*
X377110Y359910D01*
X376675Y360561D01*
X373891Y363344D01*
X373819Y363393D01*
X373742Y364176D01*
X375494Y365929D01*
X375929Y366580D01*
X376082Y367348D01*
Y381677D01*
X376737Y382114D01*
X377178Y381931D01*
X377500Y381889D01*
Y385000D01*
Y388111D01*
X377178Y388069D01*
X376737Y387886D01*
X376433Y388088D01*
X376356Y388676D01*
X376383Y388957D01*
X377088Y389249D01*
X377746Y389754D01*
X378251Y390412D01*
X378569Y391178D01*
X378677Y392000D01*
X378569Y392822D01*
X378251Y393588D01*
X377746Y394246D01*
X377642Y394326D01*
X377745Y395107D01*
X378088Y395249D01*
X378746Y395754D01*
X379251Y396412D01*
X379569Y397178D01*
X379611Y397500D01*
X376500D01*
Y398000D01*
X376000D01*
Y401111D01*
X375678Y401068D01*
X375162Y400855D01*
X374507Y401292D01*
Y402776D01*
X379059D01*
Y406713D01*
Y412224D01*
X378507D01*
Y413000D01*
X378354Y413768D01*
X377919Y414419D01*
X376919Y415419D01*
X376268Y415854D01*
X375500Y416007D01*
X367331D01*
Y418331D01*
D01*
Y418331D01*
X367885Y418885D01*
X384885D01*
Y278967D01*
D02*
G37*
%LPC*%
G36*
X305500Y293032D02*
X303441D01*
Y290776D01*
X305500D01*
Y293032D01*
D02*
G37*
G36*
X318059D02*
X316000D01*
Y290776D01*
X318059D01*
Y293032D01*
D02*
G37*
G36*
X291055Y301402D02*
X288012D01*
Y292846D01*
X291055D01*
Y301402D01*
D02*
G37*
G36*
X287012D02*
X283968D01*
Y292846D01*
X287012D01*
Y301402D01*
D02*
G37*
G36*
X361500Y294611D02*
X361178Y294568D01*
X360412Y294251D01*
X359754Y293746D01*
X359249Y293088D01*
X358931Y292322D01*
X358889Y292000D01*
X361500D01*
Y294611D01*
D02*
G37*
G36*
X362500D02*
Y292000D01*
X365111D01*
X365069Y292322D01*
X364751Y293088D01*
X364246Y293746D01*
X363588Y294251D01*
X362822Y294568D01*
X362500Y294611D01*
D02*
G37*
G36*
X280611Y293000D02*
X278000D01*
Y290389D01*
X278322Y290431D01*
X279088Y290749D01*
X279746Y291254D01*
X280251Y291912D01*
X280569Y292678D01*
X280611Y293000D01*
D02*
G37*
G36*
X297500Y289611D02*
Y287000D01*
X300111D01*
X300068Y287322D01*
X299751Y288088D01*
X299246Y288746D01*
X298588Y289251D01*
X297822Y289568D01*
X297500Y289611D01*
D02*
G37*
G36*
X296500D02*
X296178Y289568D01*
X295412Y289251D01*
X294754Y288746D01*
X294249Y288088D01*
X293932Y287322D01*
X293889Y287000D01*
X296500D01*
Y289611D01*
D02*
G37*
G36*
X345111Y288500D02*
X342500D01*
Y285889D01*
X342822Y285931D01*
X343588Y286249D01*
X344246Y286754D01*
X344751Y287412D01*
X345069Y288178D01*
X345111Y288500D01*
D02*
G37*
G36*
X277000Y293000D02*
X274389D01*
X274431Y292678D01*
X274749Y291912D01*
X275254Y291254D01*
X275912Y290749D01*
X276678Y290431D01*
X277000Y290389D01*
Y293000D01*
D02*
G37*
G36*
X365111Y291000D02*
X362500D01*
Y288389D01*
X362822Y288432D01*
X363588Y288749D01*
X364246Y289254D01*
X364751Y289912D01*
X365069Y290678D01*
X365111Y291000D01*
D02*
G37*
G36*
X361500D02*
X358889D01*
X358931Y290678D01*
X359249Y289912D01*
X359754Y289254D01*
X360412Y288749D01*
X361178Y288432D01*
X361500Y288389D01*
Y291000D01*
D02*
G37*
G36*
X297000Y299111D02*
Y296500D01*
X299611D01*
X299569Y296822D01*
X299251Y297588D01*
X298746Y298246D01*
X298088Y298751D01*
X297322Y299068D01*
X297000Y299111D01*
D02*
G37*
G36*
X296000D02*
X295678Y299068D01*
X294912Y298751D01*
X294254Y298246D01*
X293749Y297588D01*
X293431Y296822D01*
X293389Y296500D01*
X296000D01*
Y299111D01*
D02*
G37*
G36*
X278000Y296611D02*
Y294000D01*
X280611D01*
X280569Y294322D01*
X280251Y295088D01*
X279746Y295746D01*
X279088Y296251D01*
X278322Y296568D01*
X278000Y296611D01*
D02*
G37*
G36*
X361000Y300500D02*
X358389D01*
X358432Y300178D01*
X358749Y299412D01*
X359254Y298754D01*
X359912Y298249D01*
X360678Y297932D01*
X361000Y297889D01*
Y300500D01*
D02*
G37*
G36*
X377000Y299611D02*
Y297000D01*
X379611D01*
X379569Y297322D01*
X379251Y298088D01*
X378746Y298746D01*
X378088Y299251D01*
X377322Y299569D01*
X377000Y299611D01*
D02*
G37*
G36*
X374611Y300500D02*
X372000D01*
Y297889D01*
X372322Y297932D01*
X373015Y298219D01*
X373429Y297805D01*
X373561Y297634D01*
X373431Y297322D01*
X373389Y297000D01*
X376000D01*
Y299611D01*
X375678Y299569D01*
X374985Y299281D01*
X374571Y299695D01*
X374440Y299866D01*
X374569Y300178D01*
X374611Y300500D01*
D02*
G37*
G36*
X277000Y296611D02*
X276678Y296568D01*
X275912Y296251D01*
X275254Y295746D01*
X274749Y295088D01*
X274431Y294322D01*
X274389Y294000D01*
X277000D01*
Y296611D01*
D02*
G37*
G36*
X296000Y295500D02*
X293389D01*
X293431Y295178D01*
X293749Y294412D01*
X294254Y293754D01*
X294912Y293249D01*
X295678Y292932D01*
X296000Y292889D01*
Y295500D01*
D02*
G37*
G36*
X354933Y301402D02*
X351890D01*
Y292846D01*
X354933D01*
Y301402D01*
D02*
G37*
G36*
X350890D02*
X347847D01*
Y292846D01*
X350890D01*
Y301402D01*
D02*
G37*
G36*
X379611Y296000D02*
X377000D01*
Y293389D01*
X377322Y293431D01*
X378088Y293749D01*
X378746Y294254D01*
X379251Y294912D01*
X379569Y295678D01*
X379611Y296000D01*
D02*
G37*
G36*
X376000D02*
X373389D01*
X373431Y295678D01*
X373749Y294912D01*
X374254Y294254D01*
X374912Y293749D01*
X375678Y293431D01*
X376000Y293389D01*
Y296000D01*
D02*
G37*
G36*
X299611Y295500D02*
X297000D01*
Y292889D01*
X297322Y292932D01*
X298088Y293249D01*
X298746Y293754D01*
X299251Y294412D01*
X299569Y295178D01*
X299611Y295500D01*
D02*
G37*
G36*
X279000Y286611D02*
Y284000D01*
X281611D01*
X281569Y284322D01*
X281251Y285088D01*
X280746Y285746D01*
X280088Y286251D01*
X279322Y286568D01*
X279000Y286611D01*
D02*
G37*
G36*
X302611Y277500D02*
X300000D01*
Y274889D01*
X300322Y274932D01*
X301088Y275249D01*
X301746Y275754D01*
X302251Y276412D01*
X302569Y277178D01*
X302611Y277500D01*
D02*
G37*
G36*
X299000D02*
X296389D01*
X296431Y277178D01*
X296749Y276412D01*
X297254Y275754D01*
X297912Y275249D01*
X298678Y274932D01*
X299000Y274889D01*
Y277500D01*
D02*
G37*
G36*
X361000Y275611D02*
Y273000D01*
X363611D01*
X363568Y273322D01*
X363251Y274088D01*
X362746Y274746D01*
X362088Y275251D01*
X361322Y275569D01*
X361000Y275611D01*
D02*
G37*
G36*
X320000Y279111D02*
X319678Y279068D01*
X318912Y278751D01*
X318254Y278246D01*
X317749Y277588D01*
X317431Y276822D01*
X317389Y276500D01*
X320000D01*
Y279111D01*
D02*
G37*
G36*
X307500D02*
Y276500D01*
X310111D01*
X310068Y276822D01*
X309751Y277588D01*
X309246Y278246D01*
X308588Y278751D01*
X307822Y279068D01*
X307500Y279111D01*
D02*
G37*
G36*
X306500D02*
X306178Y279068D01*
X305412Y278751D01*
X304754Y278246D01*
X304249Y277588D01*
X303931Y276822D01*
X303889Y276500D01*
X306500D01*
Y279111D01*
D02*
G37*
G36*
X360000Y275611D02*
X359678Y275569D01*
X358912Y275251D01*
X358254Y274746D01*
X357749Y274088D01*
X357432Y273322D01*
X357389Y273000D01*
X360000D01*
Y275611D01*
D02*
G37*
G36*
X291154Y276697D02*
X284067D01*
Y270709D01*
X294197D01*
Y273752D01*
X291154D01*
Y276697D01*
D02*
G37*
G36*
X363611Y272000D02*
X361000D01*
Y269389D01*
X361322Y269431D01*
X362088Y269749D01*
X362746Y270254D01*
X363251Y270912D01*
X363568Y271678D01*
X363611Y272000D01*
D02*
G37*
G36*
X360000D02*
X357389D01*
X357432Y271678D01*
X357749Y270912D01*
X358254Y270254D01*
X358912Y269749D01*
X359678Y269431D01*
X360000Y269389D01*
Y272000D01*
D02*
G37*
G36*
X310111Y275500D02*
X307500D01*
Y272889D01*
X307822Y272932D01*
X308588Y273249D01*
X309246Y273754D01*
X309751Y274412D01*
X310068Y275178D01*
X310111Y275500D01*
D02*
G37*
G36*
X306500D02*
X303889D01*
X303931Y275178D01*
X304249Y274412D01*
X303389Y273752D01*
X295197D01*
Y270709D01*
X305228D01*
Y272616D01*
X305883Y273054D01*
X306178Y272932D01*
X306500Y272889D01*
Y275500D01*
D02*
G37*
G36*
X354933Y276795D02*
X347847D01*
Y273752D01*
X344902D01*
Y270709D01*
X354933D01*
Y276795D01*
D02*
G37*
G36*
X321000Y279111D02*
Y276500D01*
X323611D01*
X323569Y276822D01*
X323251Y277588D01*
X322746Y278246D01*
X322088Y278751D01*
X321322Y279068D01*
X321000Y279111D01*
D02*
G37*
G36*
X342224Y283059D02*
X339968D01*
Y281000D01*
X342224D01*
Y283059D01*
D02*
G37*
G36*
X361000Y283111D02*
X360678Y283068D01*
X359912Y282751D01*
X359254Y282246D01*
X358749Y281588D01*
X358432Y280822D01*
X358389Y280500D01*
X361000D01*
Y283111D01*
D02*
G37*
G36*
X300000Y281111D02*
Y278500D01*
X302611D01*
X302569Y278822D01*
X302251Y279588D01*
X301746Y280246D01*
X301088Y280751D01*
X300322Y281068D01*
X300000Y281111D01*
D02*
G37*
G36*
X278000Y286611D02*
X277678Y286568D01*
X276912Y286251D01*
X276254Y285746D01*
X275749Y285088D01*
X275431Y284322D01*
X275389Y284000D01*
X278000D01*
Y286611D01*
D02*
G37*
G36*
X300111Y286000D02*
X297500D01*
Y283389D01*
X297822Y283432D01*
X298588Y283749D01*
X299246Y284254D01*
X299751Y284912D01*
X300068Y285678D01*
X300111Y286000D01*
D02*
G37*
G36*
X296500D02*
X293889D01*
X293932Y285678D01*
X294249Y284912D01*
X294754Y284254D01*
X295412Y283749D01*
X296178Y283432D01*
X296500Y283389D01*
Y286000D01*
D02*
G37*
G36*
X299000Y281111D02*
X298678Y281068D01*
X297912Y280751D01*
X297254Y280246D01*
X296749Y279588D01*
X296431Y278822D01*
X296389Y278500D01*
X299000D01*
Y281111D01*
D02*
G37*
G36*
X291154Y287728D02*
X288110D01*
Y277697D01*
X291154D01*
Y287728D01*
D02*
G37*
G36*
X287110D02*
X284067D01*
Y277697D01*
X287110D01*
Y287728D01*
D02*
G37*
G36*
X361000Y279500D02*
X358389D01*
X358432Y279178D01*
X358749Y278412D01*
X359254Y277754D01*
X359912Y277249D01*
X360678Y276932D01*
X361000Y276889D01*
Y279500D01*
D02*
G37*
G36*
X342224Y280000D02*
X339968D01*
Y277941D01*
X342224D01*
Y280000D01*
D02*
G37*
G36*
X354933Y287827D02*
X351890D01*
Y277795D01*
X354933D01*
Y287827D01*
D02*
G37*
G36*
X350890D02*
X347847D01*
Y277795D01*
X350890D01*
Y287827D01*
D02*
G37*
G36*
X281611Y333500D02*
X279000D01*
Y330889D01*
X279322Y330931D01*
X280088Y331249D01*
X280746Y331754D01*
X281251Y332412D01*
X281569Y333178D01*
X281611Y333500D01*
D02*
G37*
G36*
X278000D02*
X275389D01*
X275431Y333178D01*
X275749Y332412D01*
X276254Y331754D01*
X276912Y331249D01*
X277678Y330931D01*
X278000Y330889D01*
Y333500D01*
D02*
G37*
G36*
X305031Y333587D02*
X295000D01*
Y330543D01*
X305031D01*
Y333587D01*
D02*
G37*
G36*
X363724Y336500D02*
X361469D01*
Y334441D01*
X363724D01*
Y336500D01*
D02*
G37*
G36*
X379111Y334000D02*
X376500D01*
Y331389D01*
X376822Y331432D01*
X377588Y331749D01*
X378246Y332254D01*
X378751Y332912D01*
X379068Y333678D01*
X379111Y334000D01*
D02*
G37*
G36*
X375500D02*
X372889D01*
X372932Y333678D01*
X373249Y332912D01*
X373754Y332254D01*
X374412Y331749D01*
X375178Y331432D01*
X375500Y331389D01*
Y334000D01*
D02*
G37*
G36*
X294000Y333587D02*
X288012D01*
Y327500D01*
X291055D01*
Y330543D01*
X294000D01*
Y333587D01*
D02*
G37*
G36*
X358531Y326059D02*
X356276D01*
Y324000D01*
X358531D01*
Y326059D01*
D02*
G37*
G36*
X323500Y325611D02*
X323178Y325569D01*
X322412Y325251D01*
X321754Y324746D01*
X321249Y324088D01*
X320932Y323322D01*
X320889Y323000D01*
X323500D01*
Y325611D01*
D02*
G37*
G36*
X281111Y324000D02*
X278500D01*
Y321389D01*
X278822Y321431D01*
X279588Y321749D01*
X280246Y322254D01*
X280751Y322912D01*
X281068Y323678D01*
X281111Y324000D01*
D02*
G37*
G36*
X287012Y333587D02*
X283968D01*
Y330543D01*
Y327500D01*
X287012D01*
Y333587D01*
D02*
G37*
G36*
X278500Y327611D02*
Y325000D01*
X281111D01*
X281068Y325322D01*
X280751Y326088D01*
X280246Y326746D01*
X279588Y327251D01*
X278822Y327569D01*
X278500Y327611D01*
D02*
G37*
G36*
X277500D02*
X277178Y327569D01*
X276412Y327251D01*
X275754Y326746D01*
X275249Y326088D01*
X274932Y325322D01*
X274889Y325000D01*
X277500D01*
Y327611D01*
D02*
G37*
G36*
X278000Y337111D02*
X277678Y337069D01*
X276912Y336751D01*
X276254Y336246D01*
X275749Y335588D01*
X275431Y334822D01*
X275389Y334500D01*
X278000D01*
Y337111D01*
D02*
G37*
G36*
X285028Y395028D02*
X281000D01*
Y391000D01*
X285028D01*
Y395028D01*
D02*
G37*
G36*
X378500Y388111D02*
Y385500D01*
X381111D01*
X381068Y385822D01*
X380751Y386588D01*
X380246Y387246D01*
X379588Y387751D01*
X378822Y388069D01*
X378500Y388111D01*
D02*
G37*
G36*
X381111Y384500D02*
X378500D01*
Y381889D01*
X378822Y381931D01*
X379588Y382249D01*
X380246Y382754D01*
X380751Y383412D01*
X381068Y384178D01*
X381111Y384500D01*
D02*
G37*
G36*
X288611Y415500D02*
X286000D01*
Y412889D01*
X286322Y412931D01*
X287088Y413249D01*
X287746Y413754D01*
X288251Y414412D01*
X288568Y415178D01*
X288611Y415500D01*
D02*
G37*
G36*
X377000Y401111D02*
Y398500D01*
X379611D01*
X379569Y398822D01*
X379251Y399588D01*
X378746Y400246D01*
X378088Y400751D01*
X377322Y401068D01*
X377000Y401111D01*
D02*
G37*
G36*
X295500Y399611D02*
X295178Y399569D01*
X294412Y399251D01*
X293754Y398746D01*
X293249Y398088D01*
X292932Y397322D01*
X292889Y397000D01*
X295500D01*
Y399611D01*
D02*
G37*
G36*
X361000Y382111D02*
X360678Y382068D01*
X359912Y381751D01*
X359254Y381246D01*
X358749Y380588D01*
X358432Y379822D01*
X358389Y379500D01*
X361000D01*
Y382111D01*
D02*
G37*
G36*
X294000Y337630D02*
X288012D01*
Y334587D01*
X294000D01*
Y337630D01*
D02*
G37*
G36*
X287012D02*
X283968D01*
Y334587D01*
X287012D01*
Y337630D01*
D02*
G37*
G36*
X279000Y337111D02*
Y334500D01*
X281611D01*
X281569Y334822D01*
X281251Y335588D01*
X280746Y336246D01*
X280088Y336751D01*
X279322Y337069D01*
X279000Y337111D01*
D02*
G37*
G36*
X369724Y352059D02*
X367469D01*
Y350000D01*
X369724D01*
Y352059D01*
D02*
G37*
G36*
X369111Y344000D02*
X366500D01*
Y341389D01*
X366822Y341431D01*
X367588Y341749D01*
X368246Y342254D01*
X368751Y342912D01*
X369069Y343678D01*
X369111Y344000D01*
D02*
G37*
G36*
X376500Y337611D02*
Y335000D01*
X379111D01*
X379068Y335322D01*
X378751Y336088D01*
X378246Y336746D01*
X377588Y337251D01*
X376822Y337568D01*
X376500Y337611D01*
D02*
G37*
G36*
X277500Y324000D02*
X274889D01*
X274932Y323678D01*
X275249Y322912D01*
X275754Y322254D01*
X276412Y321749D01*
X277178Y321431D01*
X277500Y321389D01*
Y324000D01*
D02*
G37*
G36*
X291055Y310957D02*
X288012D01*
Y302402D01*
X291055D01*
Y310957D01*
D02*
G37*
G36*
X287012D02*
X283968D01*
Y302402D01*
X287012D01*
Y310957D01*
D02*
G37*
G36*
X305611Y304500D02*
X303000D01*
Y301889D01*
X303322Y301932D01*
X304088Y302249D01*
X304746Y302754D01*
X305251Y303412D01*
X305569Y304178D01*
X305611Y304500D01*
D02*
G37*
G36*
X303000Y308111D02*
Y305500D01*
X305611D01*
X305569Y305822D01*
X305251Y306588D01*
X304746Y307246D01*
X304088Y307751D01*
X303322Y308068D01*
X303000Y308111D01*
D02*
G37*
G36*
X302000D02*
X301678Y308068D01*
X300912Y307751D01*
X300254Y307246D01*
X299749Y306588D01*
X299431Y305822D01*
X299389Y305500D01*
X302000D01*
Y308111D01*
D02*
G37*
G36*
X354933Y310957D02*
X351890D01*
Y302402D01*
X354933D01*
Y310957D01*
D02*
G37*
G36*
X302000Y304500D02*
X299389D01*
X299431Y304178D01*
X299749Y303412D01*
X300254Y302754D01*
X300912Y302249D01*
X301678Y301932D01*
X302000Y301889D01*
Y304500D01*
D02*
G37*
G36*
X361000Y304111D02*
X360678Y304068D01*
X359912Y303751D01*
X359254Y303246D01*
X358749Y302588D01*
X358432Y301822D01*
X358389Y301500D01*
X361000D01*
Y304111D01*
D02*
G37*
G36*
X371000Y300500D02*
X368389D01*
X368431Y300178D01*
X368749Y299412D01*
X369254Y298754D01*
X369912Y298249D01*
X370678Y297932D01*
X371000Y297889D01*
Y300500D01*
D02*
G37*
G36*
X364611D02*
X362000D01*
Y297889D01*
X362322Y297932D01*
X363088Y298249D01*
X363746Y298754D01*
X364251Y299412D01*
X364568Y300178D01*
X364611Y300500D01*
D02*
G37*
G36*
X372000Y304111D02*
Y301500D01*
X374611D01*
X374569Y301822D01*
X374251Y302588D01*
X373746Y303246D01*
X373088Y303751D01*
X372322Y304068D01*
X372000Y304111D01*
D02*
G37*
G36*
X371000D02*
X370678Y304068D01*
X369912Y303751D01*
X369254Y303246D01*
X368749Y302588D01*
X368431Y301822D01*
X368389Y301500D01*
X371000D01*
Y304111D01*
D02*
G37*
G36*
X362000D02*
Y301500D01*
X364611D01*
X364568Y301822D01*
X364251Y302588D01*
X363746Y303246D01*
X363088Y303751D01*
X362322Y304068D01*
X362000Y304111D01*
D02*
G37*
G36*
X296500Y309000D02*
X293889D01*
X293932Y308678D01*
X294249Y307912D01*
X294754Y307254D01*
X295412Y306749D01*
X296178Y306432D01*
X296500Y306389D01*
Y309000D01*
D02*
G37*
G36*
X354933Y326500D02*
X351890D01*
Y316469D01*
X354933D01*
Y326500D01*
D02*
G37*
G36*
X291055D02*
X288012D01*
Y316469D01*
X291055D01*
Y326500D01*
D02*
G37*
G36*
X287012D02*
X283968D01*
Y316469D01*
X287012D01*
Y326500D01*
D02*
G37*
G36*
X358531Y323000D02*
X356276D01*
Y320941D01*
X358531D01*
Y323000D01*
D02*
G37*
G36*
X377500Y323111D02*
Y320500D01*
X380111D01*
X380068Y320822D01*
X379751Y321588D01*
X379246Y322246D01*
X378588Y322751D01*
X377822Y323068D01*
X377500Y323111D01*
D02*
G37*
G36*
X380111Y319500D02*
X377500D01*
Y316889D01*
X377822Y316932D01*
X378588Y317249D01*
X379246Y317754D01*
X379751Y318412D01*
X380068Y319178D01*
X380111Y319500D01*
D02*
G37*
G36*
X279000Y317611D02*
Y315000D01*
X281611D01*
X281569Y315322D01*
X281251Y316088D01*
X280746Y316746D01*
X280088Y317251D01*
X279322Y317568D01*
X279000Y317611D01*
D02*
G37*
G36*
X297500Y312611D02*
Y310000D01*
X300111D01*
X300068Y310322D01*
X299751Y311088D01*
X299246Y311746D01*
X298588Y312251D01*
X297822Y312568D01*
X297500Y312611D01*
D02*
G37*
G36*
X296500D02*
X296178Y312568D01*
X295412Y312251D01*
X294754Y311746D01*
X294249Y311088D01*
X293932Y310322D01*
X293889Y310000D01*
X296500D01*
Y312611D01*
D02*
G37*
G36*
X300111Y309000D02*
X297500D01*
Y306389D01*
X297822Y306432D01*
X298588Y306749D01*
X299246Y307254D01*
X299751Y307912D01*
X300068Y308678D01*
X300111Y309000D01*
D02*
G37*
G36*
X278000Y317611D02*
X277678Y317568D01*
X276912Y317251D01*
X276254Y316746D01*
X275749Y316088D01*
X275431Y315322D01*
X275389Y315000D01*
X278000D01*
Y317611D01*
D02*
G37*
G36*
X281611Y314000D02*
X279000D01*
Y311389D01*
X279322Y311432D01*
X280088Y311749D01*
X280746Y312254D01*
X281251Y312912D01*
X281569Y313678D01*
X281611Y314000D01*
D02*
G37*
G36*
X278000D02*
X275389D01*
X275431Y313678D01*
X275749Y312912D01*
X276254Y312254D01*
X276912Y311749D01*
X277678Y311432D01*
X278000Y311389D01*
Y314000D01*
D02*
G37*
%LPD*%
D10*
X331500Y357000D02*
D03*
D11*
X343409Y365858D02*
D03*
Y363890D02*
D03*
Y361921D02*
D03*
Y359953D02*
D03*
Y357984D02*
D03*
Y356016D02*
D03*
Y354047D02*
D03*
Y352079D02*
D03*
Y350110D02*
D03*
Y348142D02*
D03*
X319590D02*
D03*
Y350110D02*
D03*
Y352079D02*
D03*
Y354047D02*
D03*
Y356016D02*
D03*
Y357984D02*
D03*
Y359953D02*
D03*
Y361921D02*
D03*
Y363890D02*
D03*
Y365858D02*
D03*
D12*
X340358Y345091D02*
D03*
X338390D02*
D03*
X336421D02*
D03*
X334453D02*
D03*
X332484D02*
D03*
X330516D02*
D03*
X328547D02*
D03*
X326579D02*
D03*
X324610D02*
D03*
X322642D02*
D03*
Y368910D02*
D03*
X324610D02*
D03*
X326579D02*
D03*
X328547D02*
D03*
X330516D02*
D03*
X332484D02*
D03*
X334453D02*
D03*
X336421D02*
D03*
X338390D02*
D03*
X340358D02*
D03*
D13*
X330000Y310500D02*
D03*
D14*
X337677Y314339D02*
D03*
Y311779D02*
D03*
Y309221D02*
D03*
Y306661D02*
D03*
X322323D02*
D03*
Y309221D02*
D03*
Y311779D02*
D03*
Y314339D02*
D03*
D15*
X333839Y302823D02*
D03*
X331279D02*
D03*
X328720D02*
D03*
X326161D02*
D03*
Y318177D02*
D03*
X328720D02*
D03*
X331279D02*
D03*
X333839D02*
D03*
D16*
X356500Y356248D02*
D03*
Y349752D02*
D03*
D17*
X341500Y268500D02*
D03*
D18*
X332500Y267500D02*
D03*
D19*
X351390Y301902D02*
D03*
X287512D02*
D03*
D20*
X319303Y270209D02*
D03*
X319598Y334087D02*
D03*
D21*
X344303Y333988D02*
D03*
X344402Y270209D02*
D03*
X294697Y270209D02*
D03*
X294500Y334087D02*
D03*
D22*
X351390Y327000D02*
D03*
X351390Y277295D02*
D03*
X287610Y277197D02*
D03*
X287512Y327000D02*
D03*
D23*
X300661Y342843D02*
D03*
Y348748D02*
D03*
X308929Y348650D02*
D03*
Y342744D02*
D03*
D24*
X343000Y320949D02*
D03*
Y327051D02*
D03*
D25*
X365500Y375468D02*
D03*
Y371532D02*
D03*
X288000Y408968D02*
D03*
Y405031D02*
D03*
X308500Y385531D02*
D03*
Y389469D02*
D03*
X376500Y409469D02*
D03*
Y405532D02*
D03*
X372500Y405532D02*
D03*
Y409469D02*
D03*
X347000Y395468D02*
D03*
Y391531D02*
D03*
X343000Y391531D02*
D03*
Y395468D02*
D03*
X323500Y395468D02*
D03*
Y391531D02*
D03*
X319500Y391531D02*
D03*
Y395468D02*
D03*
X335500Y395468D02*
D03*
Y391531D02*
D03*
X331500Y391531D02*
D03*
Y395468D02*
D03*
X301500Y320468D02*
D03*
Y316531D02*
D03*
X307500Y320468D02*
D03*
Y316531D02*
D03*
X313000Y320468D02*
D03*
Y316531D02*
D03*
X329500Y288968D02*
D03*
Y285032D02*
D03*
X329000Y297468D02*
D03*
Y293531D02*
D03*
X365500Y384968D02*
D03*
Y381031D02*
D03*
X315000Y348031D02*
D03*
Y351969D02*
D03*
X330500Y280469D02*
D03*
Y276532D02*
D03*
X315500Y293531D02*
D03*
Y297468D02*
D03*
X311000Y293531D02*
D03*
Y297468D02*
D03*
X306000Y293531D02*
D03*
Y297468D02*
D03*
X352500Y367531D02*
D03*
Y371468D02*
D03*
X348500Y367531D02*
D03*
Y371468D02*
D03*
X318500Y375031D02*
D03*
Y378969D02*
D03*
X314000Y375031D02*
D03*
Y378969D02*
D03*
X369500Y375468D02*
D03*
Y371532D02*
D03*
D26*
X279031Y401500D02*
D03*
X282968D02*
D03*
X297532Y375000D02*
D03*
X301468D02*
D03*
X357031Y337000D02*
D03*
X360968D02*
D03*
X362968Y316000D02*
D03*
X359032D02*
D03*
X362968Y323500D02*
D03*
X359032D02*
D03*
X311531Y306500D02*
D03*
X315469D02*
D03*
X371969Y323500D02*
D03*
X368032D02*
D03*
X371969Y316000D02*
D03*
X368032D02*
D03*
X350468Y341000D02*
D03*
X346532D02*
D03*
X324468Y297500D02*
D03*
X320532D02*
D03*
X302468Y354000D02*
D03*
X298532D02*
D03*
X307031Y354000D02*
D03*
X310968D02*
D03*
X344468Y375500D02*
D03*
X340531D02*
D03*
X366968Y356500D02*
D03*
X363032D02*
D03*
X366968Y349500D02*
D03*
X363032D02*
D03*
X339469Y280500D02*
D03*
X335531D02*
D03*
X337968Y289000D02*
D03*
X334032D02*
D03*
X337469Y297500D02*
D03*
X333531D02*
D03*
X346468Y313500D02*
D03*
X342531D02*
D03*
X346468Y309500D02*
D03*
X342531D02*
D03*
X342531Y305500D02*
D03*
X346468D02*
D03*
X355532Y345000D02*
D03*
X359469D02*
D03*
X355532Y341000D02*
D03*
X359469D02*
D03*
X338032D02*
D03*
X341968D02*
D03*
D27*
X276000Y274000D02*
D03*
Y414500D02*
D03*
X380500Y274000D02*
D03*
D28*
X329031Y297500D02*
X333531D01*
X329000Y289469D02*
X329500Y288968D01*
X329000Y289469D02*
Y293531D01*
X334000Y288968D02*
X334032Y289000D01*
X337968D02*
X339469Y287500D01*
Y280500D02*
Y287500D01*
X329500Y285032D02*
X330500Y284032D01*
Y280469D02*
Y284032D01*
X348185Y280500D02*
X349685Y279000D01*
X339469Y280500D02*
X348185D01*
X330500Y280469D02*
X335500D01*
X329500Y288968D02*
X334000D01*
X324468Y297500D02*
X328969D01*
X311000D02*
Y302000D01*
X306031Y297500D02*
X311000D01*
X320532D01*
D29*
X328720Y297748D02*
X328969Y297500D01*
X306000Y293531D02*
X311000D01*
X315500D01*
X315193Y314339D02*
X322323D01*
X313000Y316531D02*
X315193Y314339D01*
X312252Y311779D02*
X322323D01*
X307500Y316531D02*
X312252Y311779D01*
X308811Y309221D02*
X322323D01*
X301500Y316531D02*
X308811Y309221D01*
X315630Y306661D02*
X322323D01*
X331279Y318177D02*
Y322280D01*
X328720Y318177D02*
Y323721D01*
X331279Y322280D02*
X332484Y323484D01*
X328720Y323721D02*
X330516Y325516D01*
X332484Y323484D02*
Y345091D01*
X330516Y325516D02*
Y345091D01*
D30*
X330500Y269500D02*
Y275500D01*
Y269500D02*
X331750Y268250D01*
D31*
X300661Y341339D02*
Y342843D01*
X343409Y350110D02*
X356142D01*
X310968Y353468D02*
Y354000D01*
X308929Y351429D02*
X310968Y353468D01*
X308929Y348650D02*
Y351429D01*
X297000Y352468D02*
X298532Y354000D01*
X297000Y343500D02*
Y352468D01*
Y343500D02*
X297657Y342843D01*
X300661D01*
X315110Y348142D02*
X319590D01*
X356752Y356500D02*
X363032D01*
X356752Y349500D02*
X363032D01*
X337677Y306661D02*
X339839D01*
X341000Y305500D01*
X342531D01*
X337677Y309221D02*
X342252D01*
X337677Y311779D02*
X340811D01*
X342531Y313500D01*
X337469Y289500D02*
Y297500D01*
Y289500D02*
X337968Y289000D01*
X331279Y300721D02*
Y302823D01*
Y300721D02*
X331500Y300500D01*
X335000D02*
X337469Y298031D01*
Y297500D02*
Y298031D01*
X333839Y300661D02*
Y302823D01*
X331500Y300500D02*
X335000D01*
X344468Y375500D02*
X345500Y374468D01*
X340358Y368910D02*
Y375327D01*
X348500Y367531D02*
X352500D01*
X348500Y371468D02*
X352500D01*
X338390Y368910D02*
Y376890D01*
X339165Y377665D01*
X346835D02*
X348500Y376000D01*
X336421Y368910D02*
Y374921D01*
X338390Y376890D01*
X334453Y368910D02*
Y372953D01*
X336421Y374921D01*
X340531Y375500D02*
Y377634D01*
X339165Y377665D02*
X346835D01*
X343409Y348142D02*
X348858D01*
X350000Y347000D01*
X366968Y349500D02*
Y356500D01*
X352000Y345000D02*
X355532D01*
X350000Y347000D02*
X352000Y345000D01*
X359469D02*
X364500D01*
X366968Y347468D02*
Y349500D01*
X340358Y344142D02*
Y345091D01*
Y344142D02*
X341000Y343500D01*
X344032D01*
X346532Y341000D01*
X336421Y342500D02*
Y345091D01*
X338390Y343390D02*
Y345091D01*
X337500Y342500D02*
X338390Y343390D01*
X336421Y342500D02*
X337500D01*
X334453Y343047D02*
Y345091D01*
Y343047D02*
X335000Y342500D01*
X336421D01*
X355532Y337000D02*
X357031D01*
X337921Y341000D02*
X338032D01*
X336421Y342500D02*
X337921Y341000D01*
X359469D02*
X360968Y339500D01*
Y337000D02*
Y339500D01*
X355532Y341000D02*
Y345000D01*
X359469Y341000D02*
Y345000D01*
X350468Y341000D02*
X351532D01*
X355532Y337000D01*
X311000Y297468D02*
Y297500D01*
X304000Y306500D02*
X311531D01*
X301500Y296000D02*
Y304000D01*
Y296000D02*
X303969Y293531D01*
X306000D01*
X302468Y354000D02*
X304750D01*
X307031D01*
X304750Y351750D02*
Y354000D01*
X301748Y348748D02*
X304750Y351750D01*
X300661Y348748D02*
X301748D01*
X313968Y351969D02*
X315000D01*
X309298Y356165D02*
X312639D01*
X307133Y354000D02*
X309298Y356165D01*
X307031Y354000D02*
X307133D01*
X312639Y356165D02*
X313968Y354836D01*
X315000Y343500D02*
Y348031D01*
X311531Y306500D02*
X317531Y300500D01*
X323839D01*
X326161Y302823D01*
X308929Y342744D02*
Y343239D01*
X313968Y351969D02*
Y354836D01*
X363000Y414000D02*
X375500D01*
X376500Y413000D01*
Y409469D02*
Y413000D01*
X353000Y404000D02*
X358469Y409469D01*
X372500D01*
X372500Y405532D02*
X376500D01*
X343000Y395468D02*
Y404000D01*
X343000Y404000D01*
X347000Y408000D02*
X353000Y414000D01*
X347000Y395468D02*
Y408000D01*
X331500Y395468D02*
Y402500D01*
X333000Y404000D01*
X335500Y395468D02*
Y399500D01*
X337000Y401000D01*
Y410000D01*
X333000Y414000D02*
X337000Y410000D01*
X343000Y391531D02*
X347000D01*
X331500Y391531D02*
X335500D01*
X335500Y391531D01*
X319500Y395468D02*
Y400500D01*
X323000Y404000D01*
X323500Y395468D02*
X328000Y399969D01*
Y416500D01*
X330000Y418500D01*
X338500D01*
X343000Y414000D01*
X319500Y391531D02*
X323500D01*
X323500Y391531D01*
X314000Y375031D02*
X318500D01*
X314000Y378969D02*
X317469D01*
X348500Y371468D02*
Y376000D01*
X336032Y339000D02*
X338032Y341000D01*
X290500Y390500D02*
Y393969D01*
X282968Y401500D02*
X290500Y393969D01*
X278500Y350500D02*
X280500D01*
X323000Y411000D02*
Y414000D01*
X317500Y405500D02*
X323000Y411000D01*
X308500Y389469D02*
Y391500D01*
X280500Y370500D02*
X285000Y375000D01*
X297532D01*
X297532Y375000D01*
X362968Y323500D02*
X368032D01*
X372500Y405532D02*
X372500Y405532D01*
Y368000D02*
Y405532D01*
X343409Y354047D02*
X349047D01*
X369669Y365169D02*
X372500Y368000D01*
X348169Y365169D02*
X369669D01*
X348304Y367531D02*
X348500D01*
X343409Y365858D02*
X344404D01*
X345500Y366954D01*
Y374468D01*
X343409Y363890D02*
X344663D01*
X348304Y367531D01*
X343409Y361921D02*
X344921D01*
X348169Y365169D01*
X343409Y359953D02*
X345453D01*
X349000Y363500D01*
X370227D01*
X343409Y357984D02*
X345711D01*
X349652Y361925D01*
X343409Y356016D02*
X346165D01*
X349047Y354047D02*
X351000Y356000D01*
X346165Y356016D02*
X350500Y360350D01*
X343409Y352079D02*
X351079D01*
X355248Y356248D01*
X356500D01*
X330516Y368910D02*
Y390547D01*
X331500Y391531D01*
X332484Y368910D02*
Y385484D01*
X365500Y384968D02*
Y401500D01*
X363000Y404000D02*
X365500Y401500D01*
X370227Y363500D02*
X374075Y367348D01*
Y390575D01*
X375500Y392000D01*
X347468D02*
X362000D01*
X347000Y391531D02*
X347468Y392000D01*
X365500Y371532D02*
X369500D01*
X362469Y368500D02*
X365500Y371532D01*
X360000Y368500D02*
X362469D01*
X352500Y367531D02*
X353532D01*
X361469Y375468D02*
X365500D01*
X369500D01*
X365500D02*
Y381031D01*
X371969Y316000D02*
Y323500D01*
X306665Y342744D02*
X308929D01*
Y348650D02*
X312500Y345079D01*
X316984Y354047D02*
X319590D01*
X313291Y357740D02*
X316984Y354047D01*
X297740Y357740D02*
X313291D01*
X290500Y350500D02*
X297740Y357740D01*
X317243Y356016D02*
X319590D01*
X313943Y359315D02*
X317243Y356016D01*
X291685Y359315D02*
X313943D01*
X290500Y360500D02*
X291685Y359315D01*
X317501Y357984D02*
X319590D01*
X314596Y360890D02*
X317501Y357984D01*
X317760Y359953D02*
X319590D01*
X315248Y362465D02*
X317760Y359953D01*
X290500Y370500D02*
X297000D01*
X297500Y364500D02*
X301110Y360890D01*
X314596D01*
X301468Y371031D02*
Y375000D01*
Y371031D02*
X302500Y370000D01*
X350500Y360350D02*
X370150D01*
X372500Y358000D01*
X349652Y361925D02*
X372472D01*
X375256Y359141D01*
X368032Y323500D02*
Y334531D01*
X375256Y341756D01*
Y359141D01*
X362968Y316000D02*
X365500D01*
X368032D01*
X365500Y312500D02*
Y316000D01*
X352500Y371468D02*
X360032Y379000D01*
X361500D01*
X301500Y320468D02*
Y323500D01*
X299500Y325500D02*
X301500Y323500D01*
X319441Y364039D02*
X319590Y363890D01*
X336000Y339000D02*
X336032D01*
X300661Y341339D02*
X304000Y338000D01*
X319500Y342500D02*
X320051D01*
X322642Y345091D01*
X326579Y343404D02*
Y345091D01*
X320522Y339575D02*
X324610Y343663D01*
Y345091D01*
X321175Y338000D02*
X326579Y343404D01*
X327000Y338500D02*
Y339500D01*
X328547Y341047D02*
Y345091D01*
X327000Y339500D02*
X328547Y341047D01*
X280500Y360500D02*
X285500Y355500D01*
X315000Y343500D02*
X315500Y343000D01*
X285500Y347500D02*
Y355500D01*
X291000Y342000D02*
X294500D01*
X285500Y347500D02*
X291000Y342000D01*
X274500Y354500D02*
X278500Y350500D01*
X274500Y354500D02*
Y396969D01*
X279031Y401500D01*
X276366Y364634D02*
X280500Y360500D01*
X276366Y364634D02*
Y383866D01*
X278000Y385500D01*
X296000D01*
X297000Y386500D01*
X308500Y391500D02*
X317500Y400500D01*
Y405500D01*
X308500Y385531D02*
X311531D01*
X313000Y387000D01*
X307500Y320468D02*
Y324500D01*
X322642Y368910D02*
Y370890D01*
X318500Y375031D02*
X322642Y370890D01*
X324610Y368910D02*
Y373390D01*
X323000Y375000D02*
X324610Y373390D01*
X326579Y368910D02*
Y376421D01*
X324000Y379000D02*
X326579Y376421D01*
X328547Y368910D02*
Y378953D01*
X327500Y380000D02*
X328547Y378953D01*
X359032Y316000D02*
Y323500D01*
Y332531D01*
X360968Y334469D01*
Y337000D01*
X312500Y370397D02*
Y373532D01*
X314000Y375031D01*
X335500Y388500D02*
X339000D01*
X332484Y385484D02*
X335500Y388500D01*
X308000Y379000D02*
X309000D01*
X308000D02*
X308032Y378969D01*
X305035Y362465D02*
X315248D01*
X297000Y370500D02*
X305035Y362465D01*
X308461Y364039D02*
X319441D01*
X305500Y367000D02*
X308461Y364039D01*
X301468Y375000D02*
Y395468D01*
X310000Y404000D01*
X313000D01*
X300661Y348748D02*
X306665Y342744D01*
X311103Y370397D02*
X312500D01*
X304500Y377000D02*
X311103Y370397D01*
X304500Y377000D02*
Y393000D01*
X323500Y391531D02*
X326031D01*
X327500Y393000D01*
X336000Y380500D02*
X353000D01*
X354500Y382000D01*
X353532Y367531D02*
X358000Y372000D01*
X361469Y375468D01*
X336421Y361921D02*
Y368910D01*
X340358Y365858D02*
Y368910D01*
X331500Y357000D02*
X336421Y361921D01*
X331500Y357000D02*
X333862Y359362D01*
X336421Y361921D01*
X340358Y365858D01*
X313500Y391500D02*
X316000Y389000D01*
Y380968D02*
Y389000D01*
X314000Y378969D02*
X316000Y380968D01*
X308032Y378969D02*
X314000D01*
X364500Y345000D02*
X366968Y347468D01*
X361500Y379000D02*
Y383000D01*
X355500Y389000D02*
X361500Y383000D01*
X346468Y313500D02*
X356532D01*
X359032Y316000D01*
X326500Y314000D02*
X330000Y310500D01*
X371969Y312968D02*
Y316000D01*
X367500Y308500D02*
X371969Y312968D01*
X362500Y308500D02*
X367500D01*
X360000Y311000D02*
X362500Y308500D01*
X341968Y326500D02*
X342500Y325969D01*
X313000Y320468D02*
Y325500D01*
X313000Y325500D02*
X313000Y325500D01*
X326161Y318177D02*
Y320339D01*
X324000Y322500D02*
X326161Y320339D01*
X338000Y322339D02*
Y322500D01*
X337677Y314339D02*
Y322016D01*
X333839Y318177D02*
X337677Y322016D01*
X338000Y322339D01*
X337968Y289000D02*
X342000D01*
X342500D01*
X346468Y292969D01*
Y305500D01*
X302500Y305000D02*
X304000Y306500D01*
X341968Y341000D02*
X344303Y338665D01*
Y333988D02*
Y338665D01*
X351390Y327000D02*
X354890Y323500D01*
X359032D01*
X324000Y322500D02*
Y329685D01*
X319598Y334087D02*
X324000Y329685D01*
X287512Y301902D02*
X299402D01*
X301500Y304000D01*
X302500Y305000D01*
X346468Y305500D02*
Y313500D01*
Y305500D02*
X347791D01*
X351390Y301902D01*
X304000Y338000D02*
X321175D01*
X312500Y341000D02*
Y345079D01*
Y341000D02*
X313925Y339575D01*
X320522D01*
X289032Y404000D02*
X303000D01*
X288000Y405031D02*
X289032Y404000D01*
X288032Y409000D02*
X316500D01*
X288000Y408968D02*
X288032Y409000D01*
D32*
X328720Y297748D02*
Y302823D01*
X342531Y313500D02*
Y322000D01*
X342531Y305500D02*
Y313500D01*
Y293969D02*
Y305500D01*
X337500Y326500D02*
X341968D01*
D33*
X334635Y257257D02*
D03*
D34*
X332594Y264504D02*
D03*
D35*
X341571Y263047D02*
D03*
D36*
X341571Y255528D02*
D03*
D37*
X371059Y257791D02*
D03*
D38*
X324996Y243677D02*
D03*
D39*
X357279Y248028D02*
D03*
D40*
X357171Y263047D02*
D03*
D41*
X341571Y251571D02*
D03*
D42*
X337240Y267043D02*
D03*
X345901D02*
D03*
D43*
X357250Y246000D02*
D03*
D44*
X290500Y350500D02*
D03*
X280500D02*
D03*
X290500Y360500D02*
D03*
X280500D02*
D03*
X290500Y370500D02*
D03*
X280500D02*
D03*
X290500Y380500D02*
D03*
X280500D02*
D03*
X290500Y390500D02*
D03*
D45*
X280500D02*
D03*
D46*
X363000Y414000D02*
D03*
D47*
X353000D02*
D03*
X343000D02*
D03*
X333000D02*
D03*
X323000D02*
D03*
X313000D02*
D03*
X303000D02*
D03*
X363000Y404000D02*
D03*
X353000D02*
D03*
X343000D02*
D03*
X333000D02*
D03*
X323000D02*
D03*
X313000D02*
D03*
X303000D02*
D03*
D48*
X373500Y282000D02*
D03*
D49*
X329138Y354638D02*
D03*
Y359362D02*
D03*
X333862Y354638D02*
D03*
Y359362D02*
D03*
X327638Y308138D02*
D03*
Y312862D02*
D03*
X332362Y308138D02*
D03*
Y312862D02*
D03*
D50*
X285500Y416000D02*
D03*
X277500Y293500D02*
D03*
X311000Y329000D02*
D03*
X296000Y396500D02*
D03*
X376500Y398000D02*
D03*
X378000Y385000D02*
D03*
X377000Y320000D02*
D03*
X376000Y334500D02*
D03*
X278500Y334000D02*
D03*
X278000Y324500D02*
D03*
X278500Y314500D02*
D03*
Y283500D02*
D03*
X320500Y276000D02*
D03*
X376500Y296500D02*
D03*
X371500Y301000D02*
D03*
X361500Y280000D02*
D03*
X362000Y291500D02*
D03*
X361500Y301000D02*
D03*
X307000Y276000D02*
D03*
X299500Y278000D02*
D03*
X297000Y286500D02*
D03*
X296500Y296000D02*
D03*
X297000Y309500D02*
D03*
X350000Y347000D02*
D03*
X342531Y293969D02*
D03*
X311000Y302000D02*
D03*
X351000Y356000D02*
D03*
X375500Y392000D02*
D03*
X362000D02*
D03*
X360000Y368500D02*
D03*
X305000Y345500D02*
D03*
X297500Y364500D02*
D03*
X302500Y370000D02*
D03*
X372500Y358000D02*
D03*
X365500Y312500D02*
D03*
X361500Y379000D02*
D03*
X299500Y325500D02*
D03*
X336000Y339000D02*
D03*
X319500Y342500D02*
D03*
X327000Y339500D02*
D03*
X294500Y342000D02*
D03*
X297000Y386500D02*
D03*
X313000Y387000D02*
D03*
X307500Y324500D02*
D03*
X323000Y376000D02*
D03*
X327500Y380000D02*
D03*
X323500D02*
D03*
X312500Y370397D02*
D03*
X339000Y388500D02*
D03*
X309000Y379000D02*
D03*
X305500Y367000D02*
D03*
Y393000D02*
D03*
X327500D02*
D03*
X336000Y380500D02*
D03*
X354500Y382000D02*
D03*
X358000Y372000D02*
D03*
X313500Y391500D02*
D03*
X355500Y389000D02*
D03*
X360000Y311000D02*
D03*
X337500Y326500D02*
D03*
X302500Y305000D02*
D03*
X313000Y325500D02*
D03*
X324000Y322500D02*
D03*
X338000D02*
D03*
X342000Y289000D02*
D03*
X315500Y343000D02*
D03*
X366000Y344500D02*
D03*
X360500Y272500D02*
D03*
X316500Y409000D02*
D03*
M02*
