%FSLAX25Y25*%
%MOIN*%
G70*
G01*
G75*
G04 Layer_Color=16711935*
%ADD10R,0.17716X0.17716*%
%ADD11O,0.02559X0.00984*%
%ADD12O,0.00984X0.02559*%
%ADD13R,0.08661X0.08661*%
%ADD14O,0.03150X0.01496*%
%ADD15O,0.01496X0.03150*%
%ADD16R,0.05315X0.03740*%
%ADD17R,0.11811X0.00039*%
%ADD18R,0.01575X0.01575*%
%ADD19R,0.03937X0.14961*%
%ADD20R,0.14961X0.03937*%
%ADD21R,0.17913X0.03937*%
%ADD22R,0.03937X0.17913*%
%ADD23R,0.03937X0.03543*%
%ADD24R,0.03150X0.03543*%
%ADD25R,0.01969X0.02362*%
%ADD26R,0.02362X0.01969*%
%ADD27C,0.03937*%
%ADD28C,0.01969*%
%ADD29C,0.01000*%
%ADD30C,0.03937*%
%ADD31C,0.00787*%
%ADD32C,0.01181*%
G04:AMPARAMS|DCode=33|XSize=18.11mil|YSize=66.44mil|CornerRadius=0mil|HoleSize=0mil|Usage=FLASHONLY|Rotation=214.500|XOffset=0mil|YOffset=0mil|HoleType=Round|Shape=Rectangle|*
%AMROTATEDRECTD33*
4,1,4,-0.01135,0.03251,0.02628,-0.02225,0.01135,-0.03251,-0.02628,0.02225,-0.01135,0.03251,0.0*
%
%ADD33ROTATEDRECTD33*%

%ADD34R,0.01811X0.07992*%
%ADD35R,0.12598X0.05079*%
%ADD36R,0.12598X0.04764*%
%ADD37R,0.08583X0.15590*%
%ADD38R,1.00709X0.04764*%
%ADD39R,0.36142X0.03937*%
%ADD40R,0.19193X0.05079*%
%ADD41R,0.04724X0.03150*%
%ADD42R,0.03937X0.02913*%
%ADD43R,0.35500X0.02000*%
%ADD44C,0.05906*%
%ADD45R,0.05906X0.05906*%
%ADD46R,0.05512X0.05512*%
%ADD47C,0.05512*%
%ADD48C,0.06000*%
%ADD49C,0.02598*%
%ADD50C,0.03150*%
%ADD51C,0.00984*%
%ADD52C,0.11811*%
D44*
X290500Y350500D02*
D03*
X280500D02*
D03*
X290500Y360500D02*
D03*
X280500D02*
D03*
X290500Y370500D02*
D03*
X280500D02*
D03*
X290500Y380500D02*
D03*
X280500D02*
D03*
X290500Y390500D02*
D03*
D45*
X280500D02*
D03*
D46*
X363000Y414000D02*
D03*
D47*
X353000D02*
D03*
X343000D02*
D03*
X333000D02*
D03*
X323000D02*
D03*
X313000D02*
D03*
X303000D02*
D03*
X363000Y404000D02*
D03*
X353000D02*
D03*
X343000D02*
D03*
X333000D02*
D03*
X323000D02*
D03*
X313000D02*
D03*
X303000D02*
D03*
D48*
X373500Y282000D02*
D03*
D49*
X329138Y354638D02*
D03*
Y359362D02*
D03*
X333862Y354638D02*
D03*
Y359362D02*
D03*
X327638Y308138D02*
D03*
Y312862D02*
D03*
X332362Y308138D02*
D03*
Y312862D02*
D03*
D50*
X285500Y416000D02*
D03*
X277500Y293500D02*
D03*
X311000Y329000D02*
D03*
X296000Y396500D02*
D03*
X376500Y398000D02*
D03*
X378000Y385000D02*
D03*
X377000Y320000D02*
D03*
X376000Y334500D02*
D03*
X278500Y334000D02*
D03*
X278000Y324500D02*
D03*
X278500Y314500D02*
D03*
Y283500D02*
D03*
X320500Y276000D02*
D03*
X376500Y296500D02*
D03*
X371500Y301000D02*
D03*
X361500Y280000D02*
D03*
X362000Y291500D02*
D03*
X361500Y301000D02*
D03*
X307000Y276000D02*
D03*
X299500Y278000D02*
D03*
X297000Y286500D02*
D03*
X296500Y296000D02*
D03*
X297000Y309500D02*
D03*
X350000Y347000D02*
D03*
X342531Y293969D02*
D03*
X311000Y302000D02*
D03*
X351000Y356000D02*
D03*
X375500Y392000D02*
D03*
X362000D02*
D03*
X360000Y368500D02*
D03*
X305000Y345500D02*
D03*
X297500Y364500D02*
D03*
X302500Y370000D02*
D03*
X372500Y358000D02*
D03*
X365500Y312500D02*
D03*
X361500Y379000D02*
D03*
X299500Y325500D02*
D03*
X336000Y339000D02*
D03*
X319500Y342500D02*
D03*
X327000Y339500D02*
D03*
X294500Y342000D02*
D03*
X297000Y386500D02*
D03*
X313000Y387000D02*
D03*
X307500Y324500D02*
D03*
X323000Y376000D02*
D03*
X327500Y380000D02*
D03*
X323500D02*
D03*
X312500Y370397D02*
D03*
X339000Y388500D02*
D03*
X309000Y379000D02*
D03*
X305500Y367000D02*
D03*
Y393000D02*
D03*
X327500D02*
D03*
X336000Y380500D02*
D03*
X354500Y382000D02*
D03*
X358000Y372000D02*
D03*
X313500Y391500D02*
D03*
X355500Y389000D02*
D03*
X360000Y311000D02*
D03*
X337500Y326500D02*
D03*
X302500Y305000D02*
D03*
X313000Y325500D02*
D03*
X324000Y322500D02*
D03*
X338000D02*
D03*
X342000Y289000D02*
D03*
X315500Y343000D02*
D03*
X366000Y344500D02*
D03*
X360500Y272500D02*
D03*
X316500Y409000D02*
D03*
D52*
X380500Y274000D02*
D03*
X276000D02*
D03*
Y414500D02*
D03*
M02*
