%FSLAX25Y25*%
%MOIN*%
G70*
G01*
G75*
G04 Layer_Physical_Order=2*
G04 Layer_Color=16711680*
%ADD10R,0.17716X0.17716*%
%ADD11O,0.02559X0.00984*%
%ADD12O,0.00984X0.02559*%
%ADD13R,0.08661X0.08661*%
%ADD14O,0.03150X0.01496*%
%ADD15O,0.01496X0.03150*%
%ADD16R,0.05315X0.03740*%
%ADD17R,0.11811X0.00039*%
%ADD18R,0.01575X0.01575*%
%ADD19R,0.03937X0.14961*%
%ADD20R,0.14961X0.03937*%
%ADD21R,0.17913X0.03937*%
%ADD22R,0.03937X0.17913*%
%ADD23R,0.03937X0.03543*%
%ADD24R,0.03150X0.03543*%
%ADD25R,0.01969X0.02362*%
%ADD26R,0.02362X0.01969*%
%ADD27C,0.03937*%
%ADD28C,0.01969*%
%ADD29C,0.01000*%
%ADD30C,0.03937*%
%ADD31C,0.00787*%
%ADD32C,0.01181*%
G04:AMPARAMS|DCode=33|XSize=18.11mil|YSize=66.44mil|CornerRadius=0mil|HoleSize=0mil|Usage=FLASHONLY|Rotation=214.500|XOffset=0mil|YOffset=0mil|HoleType=Round|Shape=Rectangle|*
%AMROTATEDRECTD33*
4,1,4,-0.01135,0.03251,0.02628,-0.02225,0.01135,-0.03251,-0.02628,0.02225,-0.01135,0.03251,0.0*
%
%ADD33ROTATEDRECTD33*%

%ADD34R,0.01811X0.07992*%
%ADD35R,0.12598X0.05079*%
%ADD36R,0.12598X0.04764*%
%ADD37R,0.08583X0.15590*%
%ADD38R,1.00709X0.04764*%
%ADD39R,0.36142X0.03937*%
%ADD40R,0.19193X0.05079*%
%ADD41R,0.04724X0.03150*%
%ADD42R,0.03937X0.02913*%
%ADD43R,0.35500X0.02000*%
%ADD44C,0.05906*%
%ADD45R,0.05906X0.05906*%
%ADD46R,0.05512X0.05512*%
%ADD47C,0.05512*%
%ADD48C,0.06000*%
%ADD49C,0.02598*%
%ADD50C,0.03150*%
G36*
X384885Y278967D02*
X384180Y278615D01*
X383000Y279500D01*
X382049Y279690D01*
X381644Y280366D01*
X381648Y280379D01*
X381808Y282000D01*
X381648Y283621D01*
X381175Y285179D01*
X380408Y286615D01*
X379374Y287874D01*
X378116Y288908D01*
X376679Y289675D01*
X375121Y290148D01*
X373500Y290308D01*
X371879Y290148D01*
X370321Y289675D01*
X368884Y288908D01*
X367626Y287874D01*
X366592Y286615D01*
X365825Y285179D01*
X365352Y283621D01*
X365192Y282000D01*
X365276Y281149D01*
X364512Y280958D01*
X364251Y281588D01*
X363746Y282246D01*
X363088Y282751D01*
X362322Y283068D01*
X362000Y283111D01*
Y280000D01*
Y276889D01*
X362322Y276932D01*
X363088Y277249D01*
X363746Y277754D01*
X364251Y278412D01*
X364568Y279178D01*
X364672Y279968D01*
X365457Y280032D01*
X365825Y278821D01*
X366592Y277384D01*
X367626Y276126D01*
X368884Y275092D01*
X370321Y274325D01*
X371879Y273852D01*
X373500Y273692D01*
X374551Y273796D01*
X375000Y272000D01*
X376000Y270000D01*
X377500Y269000D01*
X377967Y268766D01*
X377786Y268000D01*
X278958D01*
X278832Y268777D01*
X279500Y269000D01*
X281000Y270500D01*
X282000Y273500D01*
Y274500D01*
X281500Y276500D01*
X280500Y278000D01*
X278500Y279500D01*
X278069Y279586D01*
X278198Y280363D01*
X278500Y280323D01*
X279322Y280432D01*
X280088Y280749D01*
X280746Y281254D01*
X281251Y281912D01*
X281569Y282678D01*
X281611Y283000D01*
X275389D01*
X275431Y282678D01*
X275749Y281912D01*
X276254Y281254D01*
X276912Y280749D01*
X277528Y280494D01*
Y280494D01*
X277528Y280494D01*
X277299Y279740D01*
X276000Y280000D01*
X274000Y279500D01*
X272285Y278643D01*
X271616Y279057D01*
Y409589D01*
X272310Y409960D01*
X273000Y409500D01*
X275000Y408500D01*
X276500D01*
X279500Y409500D01*
X281000Y411000D01*
X282000Y414000D01*
Y414101D01*
X282749Y414412D01*
X283254Y413754D01*
X283912Y413249D01*
X284678Y412931D01*
X285000Y412889D01*
Y416000D01*
X285500D01*
Y416500D01*
X288611D01*
X288568Y416822D01*
X288251Y417588D01*
X287799Y418178D01*
X287986Y418559D01*
X288236Y418885D01*
X301458D01*
X301611Y418112D01*
X300816Y417783D01*
X299911Y417089D01*
X299217Y416184D01*
X298781Y415131D01*
X298698Y414500D01*
X307302D01*
X307219Y415131D01*
X306783Y416184D01*
X306089Y417089D01*
X305184Y417783D01*
X304389Y418112D01*
X304542Y418885D01*
X311458D01*
X311611Y418112D01*
X310816Y417783D01*
X309911Y417089D01*
X309217Y416184D01*
X308781Y415131D01*
X308632Y414000D01*
X308781Y412870D01*
X309217Y411816D01*
X309911Y410911D01*
X310816Y410217D01*
X311870Y409781D01*
X312847Y409652D01*
X313327Y409027D01*
X313323Y409000D01*
X313327Y408973D01*
X312847Y408348D01*
X311870Y408219D01*
X310816Y407783D01*
X309911Y407089D01*
X309217Y406184D01*
X308781Y405130D01*
X308632Y404000D01*
X308781Y402870D01*
X309217Y401816D01*
X309911Y400911D01*
X310816Y400217D01*
X311870Y399781D01*
X313000Y399632D01*
X314130Y399781D01*
X315184Y400217D01*
X316089Y400911D01*
X316783Y401816D01*
X317219Y402870D01*
X317368Y404000D01*
X317219Y405130D01*
X317164Y405263D01*
X317465Y405991D01*
X318088Y406249D01*
X318576Y406623D01*
X319200Y406143D01*
X318781Y405130D01*
X318632Y404000D01*
X318781Y402870D01*
X319217Y401816D01*
X319911Y400911D01*
X320816Y400217D01*
X321869Y399781D01*
X323000Y399632D01*
X324131Y399781D01*
X325184Y400217D01*
X326089Y400911D01*
X326783Y401816D01*
X327219Y402870D01*
X327368Y404000D01*
X327219Y405130D01*
X326783Y406184D01*
X326704Y406287D01*
X327052Y406993D01*
X328000D01*
X328768Y407146D01*
X329194Y407431D01*
X329733Y406856D01*
X329217Y406184D01*
X328781Y405130D01*
X328632Y404000D01*
X328781Y402870D01*
X329217Y401816D01*
X329911Y400911D01*
X330816Y400217D01*
X331870Y399781D01*
X333000Y399632D01*
X334131Y399781D01*
X335184Y400217D01*
X336089Y400911D01*
X336783Y401816D01*
X337219Y402870D01*
X337368Y404000D01*
X337219Y405130D01*
X336783Y406184D01*
X336089Y407089D01*
X335184Y407783D01*
X334131Y408219D01*
X333000Y408368D01*
X331870Y408219D01*
X330816Y407783D01*
X330457Y407507D01*
X329938Y408099D01*
X331693Y409854D01*
X331870Y409781D01*
X333000Y409632D01*
X334131Y409781D01*
X335184Y410217D01*
X336089Y410911D01*
X336783Y411816D01*
X337219Y412870D01*
X337368Y414000D01*
X337219Y415131D01*
X336783Y416184D01*
X336089Y417089D01*
X335184Y417783D01*
X334389Y418112D01*
X334542Y418885D01*
X341458D01*
X341611Y418112D01*
X340816Y417783D01*
X339911Y417089D01*
X339217Y416184D01*
X338781Y415131D01*
X338632Y414000D01*
X338781Y412870D01*
X339217Y411816D01*
X339911Y410911D01*
X340816Y410217D01*
X341869Y409781D01*
X343000Y409632D01*
X344130Y409781D01*
X345184Y410217D01*
X346089Y410911D01*
X346783Y411816D01*
X347219Y412870D01*
X347368Y414000D01*
X347219Y415131D01*
X346783Y416184D01*
X346089Y417089D01*
X345184Y417783D01*
X344389Y418112D01*
X344542Y418885D01*
X351458D01*
X351611Y418112D01*
X350816Y417783D01*
X349911Y417089D01*
X349217Y416184D01*
X348781Y415131D01*
X348632Y414000D01*
X348781Y412870D01*
X349217Y411816D01*
X349911Y410911D01*
X350816Y410217D01*
X351870Y409781D01*
X353000Y409632D01*
X354131Y409781D01*
X355184Y410217D01*
X356089Y410911D01*
X356783Y411816D01*
X357219Y412870D01*
X357368Y414000D01*
X357219Y415131D01*
X356783Y416184D01*
X356089Y417089D01*
X355184Y417783D01*
X354389Y418112D01*
X354542Y418885D01*
X358669D01*
Y418885D01*
Y418331D01*
X358669Y418328D01*
X358669Y418328D01*
X358669D01*
Y409669D01*
X367331D01*
Y418328D01*
X367331D01*
X367331Y418328D01*
X367331Y418331D01*
X367885Y418885D01*
X384885D01*
Y278967D01*
D02*
G37*
%LPC*%
G36*
X277000Y296611D02*
X276678Y296568D01*
X275912Y296251D01*
X275254Y295746D01*
X274749Y295088D01*
X274431Y294322D01*
X274389Y294000D01*
X277000D01*
Y296611D01*
D02*
G37*
G36*
X379611Y296000D02*
X377000D01*
Y293389D01*
X377322Y293431D01*
X378088Y293749D01*
X378746Y294254D01*
X379251Y294912D01*
X379569Y295678D01*
X379611Y296000D01*
D02*
G37*
G36*
X376000D02*
X373389D01*
X373431Y295678D01*
X373749Y294912D01*
X374254Y294254D01*
X374912Y293749D01*
X375678Y293431D01*
X376000Y293389D01*
Y296000D01*
D02*
G37*
G36*
X278000Y296611D02*
Y294000D01*
X280611D01*
X280569Y294322D01*
X280251Y295088D01*
X279746Y295746D01*
X279088Y296251D01*
X278322Y296568D01*
X278000Y296611D01*
D02*
G37*
G36*
X297000Y299111D02*
Y296500D01*
X299611D01*
X299569Y296822D01*
X299251Y297588D01*
X298746Y298246D01*
X298088Y298751D01*
X297322Y299068D01*
X297000Y299111D01*
D02*
G37*
G36*
X296000D02*
X295678Y299068D01*
X294912Y298751D01*
X294254Y298246D01*
X293749Y297588D01*
X293431Y296822D01*
X293389Y296500D01*
X296000D01*
Y299111D01*
D02*
G37*
G36*
X374611Y300500D02*
X372000D01*
Y297889D01*
X372322Y297932D01*
X373015Y298219D01*
X373429Y297805D01*
X373561Y297634D01*
X373431Y297322D01*
X373389Y297000D01*
X376000D01*
Y299611D01*
X375678Y299569D01*
X374985Y299281D01*
X374571Y299695D01*
X374440Y299866D01*
X374569Y300178D01*
X374611Y300500D01*
D02*
G37*
G36*
X280611Y293000D02*
X278000D01*
Y290389D01*
X278322Y290431D01*
X279088Y290749D01*
X279746Y291254D01*
X280251Y291912D01*
X280569Y292678D01*
X280611Y293000D01*
D02*
G37*
G36*
X277000D02*
X274389D01*
X274431Y292678D01*
X274749Y291912D01*
X275254Y291254D01*
X275912Y290749D01*
X276678Y290431D01*
X277000Y290389D01*
Y293000D01*
D02*
G37*
G36*
X311000Y305177D02*
X310178Y305068D01*
X309412Y304751D01*
X308754Y304246D01*
X308249Y303588D01*
X307931Y302822D01*
X307823Y302000D01*
X307931Y301178D01*
X308249Y300412D01*
X308754Y299754D01*
X309412Y299249D01*
X310178Y298932D01*
X311000Y298823D01*
X311048Y298830D01*
X317470Y292407D01*
X317470Y292407D01*
X317470D01*
X317470Y292407D01*
X317470D01*
X317470Y292407D01*
Y292407D01*
Y292407D01*
D01*
D01*
X317470D01*
Y292407D01*
X318187Y291929D01*
X319032Y291761D01*
X339258D01*
X339606Y291055D01*
X339249Y290588D01*
X338931Y289822D01*
X338889Y289500D01*
X345111D01*
X345069Y289822D01*
X344751Y290588D01*
X344552Y290847D01*
X344655Y291628D01*
X344778Y291722D01*
X345283Y292380D01*
X345600Y293146D01*
X345708Y293969D01*
X345600Y294791D01*
X345283Y295557D01*
X344778Y296215D01*
X344120Y296720D01*
X343354Y297037D01*
X342531Y297145D01*
X341709Y297037D01*
X340943Y296720D01*
X340285Y296215D01*
X340256Y296176D01*
X319946D01*
X314170Y301952D01*
X314177Y302000D01*
X314069Y302822D01*
X313751Y303588D01*
X313246Y304246D01*
X312588Y304751D01*
X311822Y305068D01*
X311000Y305177D01*
D02*
G37*
G36*
X361500Y294611D02*
X361178Y294568D01*
X360412Y294251D01*
X359754Y293746D01*
X359249Y293088D01*
X358931Y292322D01*
X358889Y292000D01*
X361500D01*
Y294611D01*
D02*
G37*
G36*
X299611Y295500D02*
X297000D01*
Y292889D01*
X297322Y292932D01*
X298088Y293249D01*
X298746Y293754D01*
X299251Y294412D01*
X299569Y295178D01*
X299611Y295500D01*
D02*
G37*
G36*
X296000D02*
X293389D01*
X293431Y295178D01*
X293749Y294412D01*
X294254Y293754D01*
X294912Y293249D01*
X295678Y292932D01*
X296000Y292889D01*
Y295500D01*
D02*
G37*
G36*
X362500Y294611D02*
Y292000D01*
X365111D01*
X365069Y292322D01*
X364751Y293088D01*
X364246Y293746D01*
X363588Y294251D01*
X362822Y294568D01*
X362500Y294611D01*
D02*
G37*
G36*
X335195Y307638D02*
X332862D01*
Y305305D01*
X333113Y305338D01*
X333812Y305627D01*
X334412Y306088D01*
X334873Y306688D01*
X335162Y307387D01*
X335195Y307638D01*
D02*
G37*
G36*
X327138D02*
X324805D01*
X324838Y307387D01*
X325127Y306688D01*
X325588Y306088D01*
X326188Y305627D01*
X326887Y305338D01*
X327138Y305305D01*
Y307638D01*
D02*
G37*
G36*
X305611Y304500D02*
X303000D01*
Y301889D01*
X303322Y301932D01*
X304088Y302249D01*
X304746Y302754D01*
X305251Y303412D01*
X305569Y304178D01*
X305611Y304500D01*
D02*
G37*
G36*
X302000Y308111D02*
X301678Y308068D01*
X300912Y307751D01*
X300254Y307246D01*
X299749Y306588D01*
X299431Y305822D01*
X299389Y305500D01*
X302000D01*
Y308111D01*
D02*
G37*
G36*
X300111Y309000D02*
X297500D01*
Y306389D01*
X297822Y306432D01*
X298588Y306749D01*
X299246Y307254D01*
X299751Y307912D01*
X300068Y308678D01*
X300111Y309000D01*
D02*
G37*
G36*
X296500D02*
X293889D01*
X293932Y308678D01*
X294249Y307912D01*
X294754Y307254D01*
X295412Y306749D01*
X296178Y306432D01*
X296500Y306389D01*
Y309000D01*
D02*
G37*
G36*
X303000Y308111D02*
Y305500D01*
X305611D01*
X305569Y305822D01*
X305251Y306588D01*
X304746Y307246D01*
X304088Y307751D01*
X303322Y308068D01*
X303000Y308111D01*
D02*
G37*
G36*
X364611Y300500D02*
X362000D01*
Y297889D01*
X362322Y297932D01*
X363088Y298249D01*
X363746Y298754D01*
X364251Y299412D01*
X364568Y300178D01*
X364611Y300500D01*
D02*
G37*
G36*
X361000D02*
X358389D01*
X358432Y300178D01*
X358749Y299412D01*
X359254Y298754D01*
X359912Y298249D01*
X360678Y297932D01*
X361000Y297889D01*
Y300500D01*
D02*
G37*
G36*
X377000Y299611D02*
Y297000D01*
X379611D01*
X379569Y297322D01*
X379251Y298088D01*
X378746Y298746D01*
X378088Y299251D01*
X377322Y299569D01*
X377000Y299611D01*
D02*
G37*
G36*
X371000Y300500D02*
X368389D01*
X368431Y300178D01*
X368749Y299412D01*
X369254Y298754D01*
X369912Y298249D01*
X370678Y297932D01*
X371000Y297889D01*
Y300500D01*
D02*
G37*
G36*
X302000Y304500D02*
X299389D01*
X299431Y304178D01*
X299749Y303412D01*
X300254Y302754D01*
X300912Y302249D01*
X301678Y301932D01*
X302000Y301889D01*
Y304500D01*
D02*
G37*
G36*
X372000Y304111D02*
Y301500D01*
X374611D01*
X374569Y301822D01*
X374251Y302588D01*
X373746Y303246D01*
X373088Y303751D01*
X372322Y304068D01*
X372000Y304111D01*
D02*
G37*
G36*
X371000D02*
X370678Y304068D01*
X369912Y303751D01*
X369254Y303246D01*
X368749Y302588D01*
X368431Y301822D01*
X368389Y301500D01*
X371000D01*
Y304111D01*
D02*
G37*
G36*
X302611Y277500D02*
X300000D01*
Y274889D01*
X300322Y274932D01*
X301088Y275249D01*
X301746Y275754D01*
X302251Y276412D01*
X302569Y277178D01*
X302611Y277500D01*
D02*
G37*
G36*
X299000D02*
X296389D01*
X296431Y277178D01*
X296749Y276412D01*
X297254Y275754D01*
X297912Y275249D01*
X298678Y274932D01*
X299000Y274889D01*
Y277500D01*
D02*
G37*
G36*
X361000Y275611D02*
Y273000D01*
X363611D01*
X363568Y273322D01*
X363251Y274088D01*
X362746Y274746D01*
X362088Y275251D01*
X361322Y275569D01*
X361000Y275611D01*
D02*
G37*
G36*
X306500Y279111D02*
X306178Y279068D01*
X305412Y278751D01*
X304754Y278246D01*
X304249Y277588D01*
X303931Y276822D01*
X303889Y276500D01*
X306500D01*
Y279111D01*
D02*
G37*
G36*
X321000D02*
Y276500D01*
X323611D01*
X323569Y276822D01*
X323251Y277588D01*
X322746Y278246D01*
X322088Y278751D01*
X321322Y279068D01*
X321000Y279111D01*
D02*
G37*
G36*
X320000D02*
X319678Y279068D01*
X318912Y278751D01*
X318254Y278246D01*
X317749Y277588D01*
X317431Y276822D01*
X317389Y276500D01*
X320000D01*
Y279111D01*
D02*
G37*
G36*
X307500D02*
Y276500D01*
X310111D01*
X310068Y276822D01*
X309751Y277588D01*
X309246Y278246D01*
X308588Y278751D01*
X307822Y279068D01*
X307500Y279111D01*
D02*
G37*
G36*
X306500Y275500D02*
X303889D01*
X303931Y275178D01*
X304249Y274412D01*
X304754Y273754D01*
X305412Y273249D01*
X306178Y272932D01*
X306500Y272889D01*
Y275500D01*
D02*
G37*
G36*
X363611Y272000D02*
X361000D01*
Y269389D01*
X361322Y269431D01*
X362088Y269749D01*
X362746Y270254D01*
X363251Y270912D01*
X363568Y271678D01*
X363611Y272000D01*
D02*
G37*
G36*
X360000D02*
X357389D01*
X357432Y271678D01*
X357749Y270912D01*
X358254Y270254D01*
X358912Y269749D01*
X359678Y269431D01*
X360000Y269389D01*
Y272000D01*
D02*
G37*
G36*
X310111Y275500D02*
X307500D01*
Y272889D01*
X307822Y272932D01*
X308588Y273249D01*
X309246Y273754D01*
X309751Y274412D01*
X310068Y275178D01*
X310111Y275500D01*
D02*
G37*
G36*
X360000Y275611D02*
X359678Y275569D01*
X358912Y275251D01*
X358254Y274746D01*
X357749Y274088D01*
X357432Y273322D01*
X357389Y273000D01*
X360000D01*
Y275611D01*
D02*
G37*
G36*
X323611Y275500D02*
X321000D01*
Y272889D01*
X321322Y272932D01*
X322088Y273249D01*
X322746Y273754D01*
X323251Y274412D01*
X323569Y275178D01*
X323611Y275500D01*
D02*
G37*
G36*
X320000D02*
X317389D01*
X317431Y275178D01*
X317749Y274412D01*
X318254Y273754D01*
X318912Y273249D01*
X319678Y272932D01*
X320000Y272889D01*
Y275500D01*
D02*
G37*
G36*
X345111Y288500D02*
X342500D01*
Y285889D01*
X342822Y285931D01*
X343588Y286249D01*
X344246Y286754D01*
X344751Y287412D01*
X345069Y288178D01*
X345111Y288500D01*
D02*
G37*
G36*
X341500D02*
X338889D01*
X338931Y288178D01*
X339249Y287412D01*
X339754Y286754D01*
X340412Y286249D01*
X341178Y285931D01*
X341500Y285889D01*
Y288500D01*
D02*
G37*
G36*
X279000Y286611D02*
Y284000D01*
X281611D01*
X281569Y284322D01*
X281251Y285088D01*
X280746Y285746D01*
X280088Y286251D01*
X279322Y286568D01*
X279000Y286611D01*
D02*
G37*
G36*
X296500Y289611D02*
X296178Y289568D01*
X295412Y289251D01*
X294754Y288746D01*
X294249Y288088D01*
X293932Y287322D01*
X293889Y287000D01*
X296500D01*
Y289611D01*
D02*
G37*
G36*
X365111Y291000D02*
X362500D01*
Y288389D01*
X362822Y288432D01*
X363588Y288749D01*
X364246Y289254D01*
X364751Y289912D01*
X365069Y290678D01*
X365111Y291000D01*
D02*
G37*
G36*
X361500D02*
X358889D01*
X358931Y290678D01*
X359249Y289912D01*
X359754Y289254D01*
X360412Y288749D01*
X361178Y288432D01*
X361500Y288389D01*
Y291000D01*
D02*
G37*
G36*
X297500Y289611D02*
Y287000D01*
X300111D01*
X300068Y287322D01*
X299751Y288088D01*
X299246Y288746D01*
X298588Y289251D01*
X297822Y289568D01*
X297500Y289611D01*
D02*
G37*
G36*
X300000Y281111D02*
Y278500D01*
X302611D01*
X302569Y278822D01*
X302251Y279588D01*
X301746Y280246D01*
X301088Y280751D01*
X300322Y281068D01*
X300000Y281111D01*
D02*
G37*
G36*
X299000D02*
X298678Y281068D01*
X297912Y280751D01*
X297254Y280246D01*
X296749Y279588D01*
X296431Y278822D01*
X296389Y278500D01*
X299000D01*
Y281111D01*
D02*
G37*
G36*
X361000Y279500D02*
X358389D01*
X358432Y279178D01*
X358749Y278412D01*
X359254Y277754D01*
X359912Y277249D01*
X360678Y276932D01*
X361000Y276889D01*
Y279500D01*
D02*
G37*
G36*
Y283111D02*
X360678Y283068D01*
X359912Y282751D01*
X359254Y282246D01*
X358749Y281588D01*
X358432Y280822D01*
X358389Y280500D01*
X361000D01*
Y283111D01*
D02*
G37*
G36*
X278000Y286611D02*
X277678Y286568D01*
X276912Y286251D01*
X276254Y285746D01*
X275749Y285088D01*
X275431Y284322D01*
X275389Y284000D01*
X278000D01*
Y286611D01*
D02*
G37*
G36*
X300111Y286000D02*
X297500D01*
Y283389D01*
X297822Y283432D01*
X298588Y283749D01*
X299246Y284254D01*
X299751Y284912D01*
X300068Y285678D01*
X300111Y286000D01*
D02*
G37*
G36*
X296500D02*
X293889D01*
X293932Y285678D01*
X294249Y284912D01*
X294754Y284254D01*
X295412Y283749D01*
X296178Y283432D01*
X296500Y283389D01*
Y286000D01*
D02*
G37*
G36*
X377500Y388111D02*
X377178Y388069D01*
X376412Y387751D01*
X375754Y387246D01*
X375249Y386588D01*
X374932Y385822D01*
X374889Y385500D01*
X377500D01*
Y388111D01*
D02*
G37*
G36*
X381111Y384500D02*
X378500D01*
Y381889D01*
X378822Y381931D01*
X379588Y382249D01*
X380246Y382754D01*
X380751Y383412D01*
X381068Y384178D01*
X381111Y384500D01*
D02*
G37*
G36*
X378500Y388111D02*
Y385500D01*
X381111D01*
X381068Y385822D01*
X380751Y386588D01*
X380246Y387246D01*
X379588Y387751D01*
X378822Y388069D01*
X378500Y388111D01*
D02*
G37*
G36*
X280000Y395028D02*
X275972D01*
Y391000D01*
X280000D01*
Y395028D01*
D02*
G37*
G36*
X355000Y392111D02*
X354678Y392069D01*
X353912Y391751D01*
X353254Y391246D01*
X352749Y390588D01*
X352432Y389822D01*
X352389Y389500D01*
X355000D01*
Y392111D01*
D02*
G37*
G36*
X279000Y337111D02*
Y334500D01*
X281611D01*
X281569Y334822D01*
X281251Y335588D01*
X280746Y336246D01*
X280088Y336751D01*
X279322Y337069D01*
X279000Y337111D01*
D02*
G37*
G36*
X278000D02*
X277678Y337069D01*
X276912Y336751D01*
X276254Y336246D01*
X275749Y335588D01*
X275431Y334822D01*
X275389Y334500D01*
X278000D01*
Y337111D01*
D02*
G37*
G36*
X376500Y337611D02*
Y335000D01*
X379111D01*
X379068Y335322D01*
X378751Y336088D01*
X378246Y336746D01*
X377588Y337251D01*
X376822Y337568D01*
X376500Y337611D01*
D02*
G37*
G36*
X377500Y384500D02*
X374889D01*
X374932Y384178D01*
X375249Y383412D01*
X375754Y382754D01*
X376412Y382249D01*
X377178Y381931D01*
X377500Y381889D01*
Y384500D01*
D02*
G37*
G36*
X280500Y355067D02*
X279318Y354911D01*
X278217Y354455D01*
X277271Y353729D01*
X276545Y352783D01*
X276089Y351682D01*
X275933Y350500D01*
X276089Y349318D01*
X276545Y348217D01*
X277271Y347271D01*
X278217Y346545D01*
X279318Y346089D01*
X280500Y345933D01*
X281682Y346089D01*
X282783Y346545D01*
X283729Y347271D01*
X284455Y348217D01*
X284911Y349318D01*
X285067Y350500D01*
X284911Y351682D01*
X284455Y352783D01*
X283729Y353729D01*
X282783Y354455D01*
X281682Y354911D01*
X280500Y355067D01*
D02*
G37*
G36*
X313000Y394611D02*
X312678Y394568D01*
X311912Y394251D01*
X311254Y393746D01*
X310749Y393088D01*
X310432Y392322D01*
X310389Y392000D01*
X313000D01*
Y394611D01*
D02*
G37*
G36*
X353000Y408368D02*
X351870Y408219D01*
X350816Y407783D01*
X349911Y407089D01*
X349217Y406184D01*
X348781Y405130D01*
X348632Y404000D01*
X348781Y402870D01*
X349217Y401816D01*
X349911Y400911D01*
X350816Y400217D01*
X351870Y399781D01*
X353000Y399632D01*
X354131Y399781D01*
X355184Y400217D01*
X356089Y400911D01*
X356783Y401816D01*
X357219Y402870D01*
X357368Y404000D01*
X357219Y405130D01*
X356783Y406184D01*
X356089Y407089D01*
X355184Y407783D01*
X354131Y408219D01*
X353000Y408368D01*
D02*
G37*
G36*
X343000D02*
X341869Y408219D01*
X340816Y407783D01*
X339911Y407089D01*
X339217Y406184D01*
X338781Y405130D01*
X338632Y404000D01*
X338781Y402870D01*
X339217Y401816D01*
X339911Y400911D01*
X340816Y400217D01*
X341869Y399781D01*
X343000Y399632D01*
X344130Y399781D01*
X345184Y400217D01*
X346089Y400911D01*
X346783Y401816D01*
X347219Y402870D01*
X347368Y404000D01*
X347219Y405130D01*
X346783Y406184D01*
X346089Y407089D01*
X345184Y407783D01*
X344130Y408219D01*
X343000Y408368D01*
D02*
G37*
G36*
X302500Y413500D02*
X298698D01*
X298781Y412870D01*
X299217Y411816D01*
X299911Y410911D01*
X300816Y410217D01*
X301870Y409781D01*
X302500Y409698D01*
Y413500D01*
D02*
G37*
G36*
X288611Y415500D02*
X286000D01*
Y412889D01*
X286322Y412931D01*
X287088Y413249D01*
X287746Y413754D01*
X288251Y414412D01*
X288568Y415178D01*
X288611Y415500D01*
D02*
G37*
G36*
X307302Y413500D02*
X303500D01*
Y409698D01*
X304131Y409781D01*
X305184Y410217D01*
X306089Y410911D01*
X306783Y411816D01*
X307219Y412870D01*
X307302Y413500D01*
D02*
G37*
G36*
X296500Y399611D02*
Y397000D01*
X299111D01*
X299068Y397322D01*
X298751Y398088D01*
X298246Y398746D01*
X297588Y399251D01*
X296822Y399569D01*
X296500Y399611D01*
D02*
G37*
G36*
X314000Y394611D02*
Y392000D01*
X316611D01*
X316568Y392322D01*
X316251Y393088D01*
X315746Y393746D01*
X315088Y394251D01*
X314322Y394568D01*
X314000Y394611D01*
D02*
G37*
G36*
X376000Y401111D02*
X375678Y401068D01*
X374912Y400751D01*
X374254Y400246D01*
X373749Y399588D01*
X373431Y398822D01*
X373389Y398500D01*
X376000D01*
Y401111D01*
D02*
G37*
G36*
X363000Y408368D02*
X361870Y408219D01*
X360816Y407783D01*
X359911Y407089D01*
X359217Y406184D01*
X358781Y405130D01*
X358632Y404000D01*
X358781Y402870D01*
X359217Y401816D01*
X359911Y400911D01*
X360500Y400459D01*
X360552Y399674D01*
X357439Y396561D01*
X356960Y395845D01*
X356792Y395000D01*
Y392604D01*
X356200Y392085D01*
X356000Y392111D01*
Y389000D01*
X355500D01*
Y388500D01*
X352389D01*
X352410Y388343D01*
X351890Y387751D01*
X342675D01*
X342156Y388343D01*
X342177Y388500D01*
X342069Y389322D01*
X341751Y390088D01*
X341246Y390746D01*
X340588Y391251D01*
X339822Y391568D01*
X339000Y391677D01*
X338701Y391637D01*
X335919Y394419D01*
X335268Y394854D01*
X334500Y395007D01*
X329930D01*
X329746Y395246D01*
X329088Y395751D01*
X328322Y396069D01*
X327500Y396177D01*
X326678Y396069D01*
X325912Y395751D01*
X325254Y395246D01*
X324749Y394588D01*
X324431Y393822D01*
X324323Y393000D01*
X324431Y392178D01*
X324749Y391412D01*
X324901Y391213D01*
X324553Y390507D01*
X320000D01*
X319232Y390354D01*
X318581Y389919D01*
X316691Y388030D01*
X315919Y388183D01*
X315751Y388588D01*
X315672Y388691D01*
X315746Y389254D01*
X316251Y389912D01*
X316568Y390678D01*
X316611Y391000D01*
X310389D01*
X310432Y390678D01*
X310438Y390662D01*
X310001Y390007D01*
X307998D01*
X307745Y390753D01*
X307746Y390754D01*
X308251Y391412D01*
X308569Y392178D01*
X308677Y393000D01*
X308569Y393822D01*
X308251Y394588D01*
X307746Y395246D01*
X307088Y395751D01*
X306322Y396069D01*
X305500Y396177D01*
X304678Y396069D01*
X303912Y395751D01*
X303254Y395246D01*
X303070Y395007D01*
X299499D01*
X299062Y395662D01*
X299068Y395678D01*
X299111Y396000D01*
X296000D01*
Y396500D01*
X295500D01*
Y399611D01*
X295178Y399569D01*
X294873Y399442D01*
X294435Y400097D01*
X296331Y401993D01*
X299144D01*
X299217Y401816D01*
X299911Y400911D01*
X300816Y400217D01*
X301870Y399781D01*
X303000Y399632D01*
X304131Y399781D01*
X305184Y400217D01*
X306089Y400911D01*
X306783Y401816D01*
X307219Y402870D01*
X307368Y404000D01*
X307219Y405130D01*
X306783Y406184D01*
X306089Y407089D01*
X305184Y407783D01*
X304131Y408219D01*
X303000Y408368D01*
X301870Y408219D01*
X300816Y407783D01*
X299911Y407089D01*
X299217Y406184D01*
X299144Y406007D01*
X295500D01*
X294732Y405854D01*
X294081Y405419D01*
X284081Y395419D01*
X283819Y395028D01*
X281000D01*
Y390500D01*
X280500D01*
Y390000D01*
X275972D01*
Y386311D01*
X274581Y384919D01*
X274146Y384268D01*
X273993Y383500D01*
Y368000D01*
X273993Y368000D01*
X273993D01*
X274146Y367232D01*
X274581Y366581D01*
X277081Y364081D01*
X277271Y363729D01*
X277271Y363729D01*
X277271D01*
X276545Y362783D01*
X276089Y361682D01*
X275933Y360500D01*
X276089Y359318D01*
X276545Y358217D01*
X277271Y357271D01*
X278217Y356545D01*
X279318Y356089D01*
X280500Y355933D01*
X281682Y356089D01*
X282783Y356545D01*
X283729Y357271D01*
X284455Y358217D01*
X284911Y359318D01*
X285067Y360500D01*
X284985Y361122D01*
X285338Y361297D01*
X285978Y360838D01*
X285933Y360500D01*
X286089Y359318D01*
X286545Y358217D01*
X287271Y357271D01*
X288217Y356545D01*
X289318Y356089D01*
X290500Y355933D01*
X291682Y356089D01*
X292783Y356545D01*
X293389Y357010D01*
X294095Y356662D01*
Y354338D01*
X293389Y353990D01*
X292783Y354455D01*
X291682Y354911D01*
X290500Y355067D01*
X289318Y354911D01*
X288217Y354455D01*
X287271Y353729D01*
X286545Y352783D01*
X286089Y351682D01*
X285933Y350500D01*
X286089Y349318D01*
X286545Y348217D01*
X287271Y347271D01*
X288217Y346545D01*
X289318Y346089D01*
X290500Y345933D01*
X290665Y345955D01*
X291013Y345249D01*
X290325Y344561D01*
X289890Y343910D01*
X289737Y343142D01*
Y339244D01*
X289737Y339244D01*
X289737D01*
X289890Y338476D01*
X290325Y337825D01*
X297493Y330657D01*
Y327930D01*
X297254Y327746D01*
X296749Y327088D01*
X296431Y326322D01*
X296323Y325500D01*
X296431Y324678D01*
X296749Y323912D01*
X297254Y323254D01*
X297912Y322749D01*
X298678Y322431D01*
X299500Y322323D01*
X300322Y322431D01*
X301088Y322749D01*
X301746Y323254D01*
X301991Y323573D01*
X302737Y323320D01*
Y321756D01*
X302890Y320988D01*
X303325Y320337D01*
X307081Y316581D01*
X307732Y316146D01*
X307859Y316120D01*
X308500Y315993D01*
X314000D01*
X314768Y316146D01*
X315419Y316581D01*
X320309Y321470D01*
X321081Y321317D01*
X321249Y320912D01*
X321754Y320254D01*
X322412Y319749D01*
X323178Y319431D01*
X323500Y319389D01*
Y322500D01*
X324000D01*
Y323000D01*
X327111D01*
X327068Y323322D01*
X326751Y324088D01*
X326246Y324746D01*
X325588Y325251D01*
X325183Y325419D01*
X325030Y326191D01*
X328419Y329581D01*
X328854Y330232D01*
X329007Y331000D01*
X329007Y331000D01*
X329007Y331000D01*
Y331000D01*
Y337070D01*
X329246Y337254D01*
X329430Y337493D01*
X333215D01*
X333249Y337412D01*
X333754Y336754D01*
X334412Y336249D01*
X335178Y335931D01*
X336000Y335823D01*
X336822Y335931D01*
X337588Y336249D01*
X338246Y336754D01*
X338430Y336993D01*
X342000D01*
X342768Y337146D01*
X343419Y337581D01*
X349701Y343863D01*
X350000Y343823D01*
X350299Y343863D01*
X357993Y336169D01*
Y318000D01*
X357208D01*
X357040Y318845D01*
X356561Y319561D01*
X348061Y328061D01*
X347345Y328540D01*
X346500Y328708D01*
X339776D01*
X339746Y328746D01*
X339088Y329251D01*
X338322Y329569D01*
X337500Y329677D01*
X336678Y329569D01*
X335912Y329251D01*
X335254Y328746D01*
X334749Y328088D01*
X334432Y327322D01*
X334323Y326500D01*
X334432Y325678D01*
X334749Y324912D01*
X335254Y324254D01*
X335272Y324118D01*
X335249Y324088D01*
X334931Y323322D01*
X334889Y323000D01*
X341111D01*
X341069Y323322D01*
X340938Y323638D01*
X341375Y324292D01*
X345585D01*
X352792Y317086D01*
Y309000D01*
X352960Y308155D01*
X353439Y307439D01*
X353439Y307439D01*
X353439Y307439D01*
X355939Y304939D01*
X356655Y304460D01*
X357500Y304292D01*
X359392D01*
X359645Y303547D01*
X359254Y303246D01*
X358749Y302588D01*
X358432Y301822D01*
X358389Y301500D01*
X364611D01*
X364568Y301822D01*
X364251Y302588D01*
X363746Y303246D01*
X363355Y303547D01*
X363608Y304292D01*
X365000D01*
X365845Y304460D01*
X366561Y304939D01*
X372561Y310939D01*
X373040Y311655D01*
X373208Y312500D01*
Y318907D01*
X373980Y319060D01*
X374249Y318412D01*
X374754Y317754D01*
X375412Y317249D01*
X376178Y316932D01*
X376500Y316889D01*
Y320000D01*
Y323111D01*
X376178Y323068D01*
X375412Y322751D01*
X374754Y322246D01*
X374249Y321588D01*
X373980Y320939D01*
X373208Y321093D01*
Y331782D01*
X373914Y332131D01*
X374412Y331749D01*
X375178Y331432D01*
X375500Y331389D01*
Y334500D01*
Y337611D01*
X375178Y337568D01*
X374412Y337251D01*
X373914Y336869D01*
X373208Y337218D01*
Y350074D01*
X377561Y354427D01*
X377561Y354427D01*
X377561Y354427D01*
X378040Y355143D01*
X378208Y355988D01*
Y376000D01*
X378040Y376845D01*
X377561Y377561D01*
X365857Y389265D01*
X366158Y389993D01*
X373070D01*
X373254Y389754D01*
X373912Y389249D01*
X374678Y388931D01*
X375500Y388823D01*
X376322Y388931D01*
X377088Y389249D01*
X377746Y389754D01*
X378251Y390412D01*
X378569Y391178D01*
X378677Y392000D01*
X378569Y392822D01*
X378251Y393588D01*
X377746Y394246D01*
X377642Y394326D01*
X377745Y395107D01*
X378088Y395249D01*
X378746Y395754D01*
X379251Y396412D01*
X379569Y397178D01*
X379611Y397500D01*
X373389D01*
X373431Y397178D01*
X373749Y396412D01*
X374254Y395754D01*
X374358Y395674D01*
X374255Y394893D01*
X373912Y394751D01*
X373254Y394246D01*
X373070Y394007D01*
X364430D01*
X364246Y394246D01*
X363588Y394751D01*
X363030Y394982D01*
X362877Y395755D01*
X364561Y397439D01*
X365040Y398155D01*
X365208Y399000D01*
X365208Y399000D01*
X365208Y399000D01*
Y399000D01*
Y400235D01*
X366089Y400911D01*
X366783Y401816D01*
X367219Y402870D01*
X367368Y404000D01*
X367219Y405130D01*
X366783Y406184D01*
X366089Y407089D01*
X365184Y407783D01*
X364130Y408219D01*
X363000Y408368D01*
D02*
G37*
G36*
X377000Y401111D02*
Y398500D01*
X379611D01*
X379569Y398822D01*
X379251Y399588D01*
X378746Y400246D01*
X378088Y400751D01*
X377322Y401068D01*
X377000Y401111D01*
D02*
G37*
G36*
X379111Y334000D02*
X376500D01*
Y331389D01*
X376822Y331432D01*
X377588Y331749D01*
X378246Y332254D01*
X378751Y332912D01*
X379068Y333678D01*
X379111Y334000D01*
D02*
G37*
G36*
X327111Y322000D02*
X324500D01*
Y319389D01*
X324822Y319431D01*
X325588Y319749D01*
X326246Y320254D01*
X326751Y320912D01*
X327068Y321678D01*
X327111Y322000D01*
D02*
G37*
G36*
X337500D02*
X334889D01*
X334931Y321678D01*
X335249Y320912D01*
X335754Y320254D01*
X336412Y319749D01*
X337178Y319431D01*
X337500Y319389D01*
Y322000D01*
D02*
G37*
G36*
X380111Y319500D02*
X377500D01*
Y316889D01*
X377822Y316932D01*
X378588Y317249D01*
X379246Y317754D01*
X379751Y318412D01*
X380068Y319178D01*
X380111Y319500D01*
D02*
G37*
G36*
X278000Y317611D02*
X277678Y317568D01*
X276912Y317251D01*
X276254Y316746D01*
X275749Y316088D01*
X275431Y315322D01*
X275389Y315000D01*
X278000D01*
Y317611D01*
D02*
G37*
G36*
X279000D02*
Y315000D01*
X281611D01*
X281569Y315322D01*
X281251Y316088D01*
X280746Y316746D01*
X280088Y317251D01*
X279322Y317568D01*
X279000Y317611D01*
D02*
G37*
G36*
X281111Y324000D02*
X278500D01*
Y321389D01*
X278822Y321431D01*
X279588Y321749D01*
X280246Y322254D01*
X280751Y322912D01*
X281068Y323678D01*
X281111Y324000D01*
D02*
G37*
G36*
X277500D02*
X274889D01*
X274932Y323678D01*
X275249Y322912D01*
X275754Y322254D01*
X276412Y321749D01*
X277178Y321431D01*
X277500Y321389D01*
Y324000D01*
D02*
G37*
G36*
Y327611D02*
X277178Y327569D01*
X276412Y327251D01*
X275754Y326746D01*
X275249Y326088D01*
X274932Y325322D01*
X274889Y325000D01*
X277500D01*
Y327611D01*
D02*
G37*
G36*
X341111Y322000D02*
X338500D01*
Y319389D01*
X338822Y319431D01*
X339588Y319749D01*
X340246Y320254D01*
X340751Y320912D01*
X341069Y321678D01*
X341111Y322000D01*
D02*
G37*
G36*
X377500Y323111D02*
Y320500D01*
X380111D01*
X380068Y320822D01*
X379751Y321588D01*
X379246Y322246D01*
X378588Y322751D01*
X377822Y323068D01*
X377500Y323111D01*
D02*
G37*
G36*
X297500Y312611D02*
Y310000D01*
X300111D01*
X300068Y310322D01*
X299751Y311088D01*
X299246Y311746D01*
X298588Y312251D01*
X297822Y312568D01*
X297500Y312611D01*
D02*
G37*
G36*
X278000Y314000D02*
X275389D01*
X275431Y313678D01*
X275749Y312912D01*
X276254Y312254D01*
X276912Y311749D01*
X277678Y311432D01*
X278000Y311389D01*
Y314000D01*
D02*
G37*
G36*
X296500Y312611D02*
X296178Y312568D01*
X295412Y312251D01*
X294754Y311746D01*
X294249Y311088D01*
X293932Y310322D01*
X293889Y310000D01*
X296500D01*
Y312611D01*
D02*
G37*
G36*
X281611Y333500D02*
X279000D01*
Y330889D01*
X279322Y330931D01*
X280088Y331249D01*
X280746Y331754D01*
X281251Y332412D01*
X281569Y333178D01*
X281611Y333500D01*
D02*
G37*
G36*
X278000D02*
X275389D01*
X275431Y333178D01*
X275749Y332412D01*
X276254Y331754D01*
X276912Y331249D01*
X277678Y330931D01*
X278000Y330889D01*
Y333500D01*
D02*
G37*
G36*
X332862Y315695D02*
Y313362D01*
X335195D01*
X335162Y313613D01*
X334873Y314312D01*
X334412Y314912D01*
X333812Y315373D01*
X333113Y315662D01*
X332862Y315695D01*
D02*
G37*
G36*
X331862D02*
X331612Y315662D01*
X330913Y315373D01*
X330312Y314912D01*
X329688D01*
X329087Y315373D01*
X328388Y315662D01*
X328138Y315695D01*
Y312862D01*
X327638D01*
Y312362D01*
X324805D01*
X324838Y312112D01*
X325127Y311413D01*
X325588Y310812D01*
Y310188D01*
X325127Y309587D01*
X324838Y308888D01*
X324805Y308638D01*
X327638D01*
Y308138D01*
X328138D01*
Y305305D01*
X328388Y305338D01*
X329087Y305627D01*
X329688Y306088D01*
X330312D01*
X330913Y305627D01*
X331612Y305338D01*
X331862Y305305D01*
Y308138D01*
X332362D01*
Y308638D01*
X335195D01*
X335162Y308888D01*
X334873Y309587D01*
X334412Y310188D01*
Y310812D01*
X334873Y311413D01*
X335162Y312112D01*
X335195Y312362D01*
X332362D01*
Y312862D01*
X331862D01*
Y315695D01*
D02*
G37*
G36*
X327138D02*
X326887Y315662D01*
X326188Y315373D01*
X325588Y314912D01*
X325127Y314312D01*
X324838Y313613D01*
X324805Y313362D01*
X327138D01*
Y315695D01*
D02*
G37*
G36*
X278500Y327611D02*
Y325000D01*
X281111D01*
X281068Y325322D01*
X280751Y326088D01*
X280246Y326746D01*
X279588Y327251D01*
X278822Y327569D01*
X278500Y327611D01*
D02*
G37*
G36*
X281611Y314000D02*
X279000D01*
Y311389D01*
X279322Y311432D01*
X280088Y311749D01*
X280746Y312254D01*
X281251Y312912D01*
X281569Y313678D01*
X281611Y314000D01*
D02*
G37*
%LPD*%
G36*
X313427Y339265D02*
X303581Y329419D01*
X303146Y328768D01*
X302993Y328000D01*
Y327396D01*
X302336Y327123D01*
X302247Y327093D01*
X301746Y327746D01*
X301507Y327930D01*
Y331488D01*
X301380Y332129D01*
X301354Y332256D01*
X300919Y332907D01*
X295521Y338305D01*
X295675Y339078D01*
X296088Y339249D01*
X296746Y339754D01*
X296930Y339993D01*
X313126D01*
X313427Y339265D01*
D02*
G37*
G36*
X320418Y338847D02*
Y332257D01*
X318090Y329928D01*
X315246Y327746D01*
X314588Y328251D01*
X314105Y328452D01*
X314177Y329000D01*
X314069Y329822D01*
X313751Y330588D01*
X313246Y331246D01*
X312588Y331751D01*
X312537Y331772D01*
X312383Y332545D01*
X319201Y339363D01*
X319500Y339323D01*
X319826Y339366D01*
X320418Y338847D01*
D02*
G37*
G36*
X348993Y376669D02*
Y358430D01*
X348754Y358246D01*
X348249Y357588D01*
X347932Y356822D01*
X347823Y356000D01*
X347932Y355178D01*
X348249Y354412D01*
X348754Y353754D01*
X349412Y353249D01*
X350178Y352931D01*
X351000Y352823D01*
X351822Y352931D01*
X352127Y353058D01*
X352565Y352403D01*
X350299Y350137D01*
X350000Y350177D01*
X349178Y350068D01*
X348412Y349751D01*
X347754Y349246D01*
X347249Y348588D01*
X346932Y347822D01*
X346823Y347000D01*
X346863Y346701D01*
X341169Y341007D01*
X338430D01*
X338246Y341246D01*
X337588Y341751D01*
X336822Y342069D01*
X336000Y342177D01*
X335178Y342069D01*
X334412Y341751D01*
X334093Y341507D01*
X329430D01*
X329246Y341746D01*
X328588Y342251D01*
X327822Y342568D01*
X327000Y342677D01*
X326599Y342624D01*
X326007Y343143D01*
Y352772D01*
X326753Y353025D01*
X327088Y352588D01*
X327688Y352127D01*
X328387Y351838D01*
X328638Y351805D01*
Y354638D01*
X329638D01*
Y351805D01*
X329888Y351838D01*
X330587Y352127D01*
X331188Y352588D01*
X331812D01*
X332413Y352127D01*
X333112Y351838D01*
X333362Y351805D01*
Y354638D01*
X333862D01*
Y355138D01*
X336695D01*
X336662Y355388D01*
X336373Y356087D01*
X335912Y356688D01*
Y357312D01*
X336373Y357913D01*
X336662Y358612D01*
X336695Y358862D01*
X333862D01*
Y359362D01*
X333362D01*
Y362195D01*
X333112Y362162D01*
X332413Y361873D01*
X331812Y361412D01*
X331188D01*
X330587Y361873D01*
X329888Y362162D01*
X329638Y362195D01*
Y359362D01*
X328638D01*
Y362195D01*
X328387Y362162D01*
X327688Y361873D01*
X327088Y361412D01*
X326753Y360975D01*
X326007Y361228D01*
Y371169D01*
X328919Y374081D01*
X329354Y374732D01*
X329507Y375500D01*
Y377570D01*
X329746Y377754D01*
X330251Y378412D01*
X330569Y379178D01*
X330677Y380000D01*
X330569Y380822D01*
X330355Y381338D01*
X330792Y381993D01*
X331669D01*
X332863Y380799D01*
X332823Y380500D01*
X332931Y379678D01*
X333249Y378912D01*
X333754Y378254D01*
X334412Y377749D01*
X335178Y377432D01*
X336000Y377323D01*
X336822Y377432D01*
X337588Y377749D01*
X338246Y378254D01*
X338751Y378912D01*
X339069Y379678D01*
X339177Y380500D01*
X339069Y381322D01*
X338992Y381507D01*
X339429Y382162D01*
X343499D01*
X348993Y376669D01*
D02*
G37*
G36*
X323352Y384191D02*
X322081Y382919D01*
X321990Y382784D01*
X321912Y382751D01*
X321254Y382246D01*
X320749Y381588D01*
X320431Y380822D01*
X320323Y380000D01*
X320431Y379178D01*
X320749Y378412D01*
X320830Y378305D01*
X320754Y378246D01*
X320249Y377588D01*
X319932Y376822D01*
X319823Y376000D01*
X319932Y375178D01*
X320249Y374412D01*
X320418Y374191D01*
Y347461D01*
X319691Y347160D01*
X318263Y348587D01*
Y366641D01*
X318110Y367410D01*
X317675Y368061D01*
X315637Y370098D01*
X315677Y370397D01*
X315568Y371220D01*
X315251Y371986D01*
X314746Y372644D01*
X314088Y373149D01*
X313322Y373466D01*
X312500Y373574D01*
X311678Y373466D01*
X310912Y373149D01*
X310254Y372644D01*
X309749Y371986D01*
X309432Y371220D01*
X309323Y370397D01*
X309432Y369575D01*
X309749Y368809D01*
X310254Y368151D01*
X310912Y367646D01*
X311678Y367329D01*
X312500Y367221D01*
X312799Y367260D01*
X314249Y365810D01*
Y347756D01*
X314402Y346988D01*
X314595Y346699D01*
X314596Y346689D01*
X314369Y345941D01*
X313912Y345751D01*
X313254Y345246D01*
X312749Y344588D01*
X312508Y344007D01*
X308499D01*
X308062Y344662D01*
X308068Y344678D01*
X308111Y345000D01*
X301889D01*
X301932Y344678D01*
X301938Y344662D01*
X301501Y344007D01*
X296930D01*
X296746Y344246D01*
X296621Y344343D01*
X296569Y345128D01*
X297522Y346081D01*
X297957Y346732D01*
X298110Y347500D01*
X298110Y347500D01*
X298110Y347500D01*
Y347500D01*
Y356771D01*
X305201Y363863D01*
X305500Y363823D01*
X306322Y363931D01*
X307088Y364249D01*
X307746Y364754D01*
X308251Y365412D01*
X308569Y366178D01*
X308677Y367000D01*
X308569Y367822D01*
X308251Y368588D01*
X307746Y369246D01*
X307088Y369751D01*
X306322Y370069D01*
X305656Y370156D01*
X305569Y370822D01*
X305251Y371588D01*
X304746Y372246D01*
X304088Y372751D01*
X303322Y373068D01*
X302500Y373177D01*
X301678Y373068D01*
X300912Y372751D01*
X300254Y372246D01*
X299749Y371588D01*
X299431Y370822D01*
X299323Y370000D01*
X299363Y369701D01*
X297314Y367652D01*
X296678Y367568D01*
X295912Y367251D01*
X295254Y366746D01*
X294749Y366088D01*
X294431Y365322D01*
X294323Y364500D01*
X294361Y364214D01*
X294029Y363959D01*
X293687Y363762D01*
X292783Y364455D01*
X291682Y364911D01*
X290500Y365067D01*
X289318Y364911D01*
X288335Y364504D01*
X285919Y366919D01*
X285268Y367354D01*
X284720Y367463D01*
X284442Y368200D01*
X284455Y368217D01*
X284911Y369318D01*
X285067Y370500D01*
X284911Y371682D01*
X284455Y372783D01*
X283729Y373729D01*
X282783Y374455D01*
X281682Y374911D01*
X280500Y375067D01*
X279318Y374911D01*
X278662Y374639D01*
X278007Y375077D01*
Y375923D01*
X278662Y376361D01*
X279318Y376089D01*
X280500Y375933D01*
X281682Y376089D01*
X282783Y376545D01*
X283729Y377271D01*
X283937Y377541D01*
X284722Y377593D01*
X287368Y374947D01*
X287368Y374947D01*
X287368D01*
X287368Y374947D01*
X287368D01*
X287368Y374947D01*
Y374947D01*
Y374947D01*
D01*
D01*
X287368D01*
Y374947D01*
X287603Y374790D01*
X287629Y374004D01*
X287271Y373729D01*
X286545Y372783D01*
X286089Y371682D01*
X285933Y370500D01*
X286089Y369318D01*
X286545Y368217D01*
X287271Y367271D01*
X288217Y366545D01*
X289318Y366089D01*
X290500Y365933D01*
X291682Y366089D01*
X292783Y366545D01*
X293729Y367271D01*
X294455Y368217D01*
X294911Y369318D01*
X295067Y370500D01*
X294911Y371682D01*
X294455Y372783D01*
X293788Y373653D01*
X294136Y374359D01*
X296500D01*
X297268Y374512D01*
X297919Y374947D01*
X303465Y380493D01*
X305501D01*
X305938Y379838D01*
X305931Y379822D01*
X305889Y379500D01*
X312111D01*
X312069Y379822D01*
X312062Y379838D01*
X312499Y380493D01*
X316000D01*
X316768Y380646D01*
X316961Y380774D01*
X317164Y380815D01*
X317816Y381250D01*
X321484Y384918D01*
X323051D01*
X323352Y384191D01*
D02*
G37*
G36*
X358289Y379500D02*
X361500D01*
Y379000D01*
X362000D01*
Y375889D01*
X362322Y375932D01*
X363088Y376249D01*
X363746Y376754D01*
X363887Y376937D01*
X364673Y376989D01*
X366993Y374669D01*
Y348143D01*
X366500Y347711D01*
Y344500D01*
X366000D01*
Y344000D01*
X362889D01*
X362931Y343678D01*
X363249Y342912D01*
X363754Y342254D01*
X364412Y341749D01*
X364567Y341685D01*
X364732Y340854D01*
X364081Y340419D01*
X363646Y339768D01*
X363493Y339000D01*
Y314930D01*
X363254Y314746D01*
X362753Y314093D01*
X362664Y314124D01*
X362007Y314396D01*
Y337000D01*
X361854Y337768D01*
X361419Y338419D01*
X353137Y346701D01*
X353177Y347000D01*
X353137Y347299D01*
X356919Y351081D01*
X357354Y351732D01*
X357380Y351859D01*
X357507Y352500D01*
Y365553D01*
X358213Y365901D01*
X358412Y365749D01*
X359178Y365431D01*
X359500Y365389D01*
Y368500D01*
X360000D01*
Y369000D01*
X363111D01*
X363069Y369322D01*
X362751Y370088D01*
X362246Y370746D01*
X361588Y371251D01*
X361105Y371452D01*
X361177Y372000D01*
X361069Y372822D01*
X360751Y373588D01*
X360246Y374246D01*
X359588Y374751D01*
X358822Y375068D01*
X358000Y375177D01*
X357178Y375068D01*
X356412Y374751D01*
X355754Y374246D01*
X355249Y373588D01*
X354931Y372822D01*
X354823Y372000D01*
X354863Y371701D01*
X354081Y370919D01*
X353761Y370440D01*
X353007Y370669D01*
Y377500D01*
X352854Y378268D01*
X352680Y378529D01*
X353179Y379138D01*
X353678Y378931D01*
X354500Y378823D01*
X355322Y378931D01*
X356088Y379249D01*
X356746Y379754D01*
X356930Y379993D01*
X357857D01*
X358289Y379500D01*
D02*
G37*
%LPC*%
G36*
X305500Y348611D02*
Y346000D01*
X308111D01*
X308068Y346322D01*
X307751Y347088D01*
X307246Y347746D01*
X306588Y348251D01*
X305822Y348569D01*
X305500Y348611D01*
D02*
G37*
G36*
X304500D02*
X304178Y348569D01*
X303412Y348251D01*
X302754Y347746D01*
X302249Y347088D01*
X301932Y346322D01*
X301889Y346000D01*
X304500D01*
Y348611D01*
D02*
G37*
G36*
X365500Y347611D02*
X365178Y347568D01*
X364412Y347251D01*
X363754Y346746D01*
X363249Y346088D01*
X362931Y345322D01*
X362889Y345000D01*
X365500D01*
Y347611D01*
D02*
G37*
G36*
X336695Y354138D02*
X334362D01*
Y351805D01*
X334612Y351838D01*
X335312Y352127D01*
X335912Y352588D01*
X336373Y353188D01*
X336662Y353888D01*
X336695Y354138D01*
D02*
G37*
G36*
X312111Y378500D02*
X309500D01*
Y375889D01*
X309822Y375932D01*
X310588Y376249D01*
X311246Y376754D01*
X311751Y377412D01*
X312069Y378178D01*
X312111Y378500D01*
D02*
G37*
G36*
X361000D02*
X358389D01*
X358432Y378178D01*
X358749Y377412D01*
X359254Y376754D01*
X359912Y376249D01*
X360678Y375932D01*
X361000Y375889D01*
Y378500D01*
D02*
G37*
G36*
X308500D02*
X305889D01*
X305931Y378178D01*
X306249Y377412D01*
X306754Y376754D01*
X307412Y376249D01*
X308178Y375932D01*
X308500Y375889D01*
Y378500D01*
D02*
G37*
G36*
X334362Y362195D02*
Y359862D01*
X336695D01*
X336662Y360113D01*
X336373Y360812D01*
X335912Y361412D01*
X335312Y361873D01*
X334612Y362162D01*
X334362Y362195D01*
D02*
G37*
G36*
X363111Y368000D02*
X360500D01*
Y365389D01*
X360822Y365431D01*
X361588Y365749D01*
X362246Y366254D01*
X362751Y366912D01*
X363069Y367678D01*
X363111Y368000D01*
D02*
G37*
%LPD*%
D27*
X380500Y274000D02*
D03*
X276000D02*
D03*
Y414500D02*
D03*
D31*
X362000Y392000D02*
X375500D01*
X297500Y364500D02*
Y365000D01*
X302500Y370000D01*
X280500Y390500D02*
Y403000D01*
X291500Y414000D01*
X303000D01*
X327000Y339500D02*
X335500D01*
X336000Y339000D01*
X291744Y339244D02*
Y343142D01*
Y339244D02*
X299500Y331488D01*
Y325500D02*
Y331488D01*
X336000Y339000D02*
X342000D01*
X350000Y347000D01*
X316256Y347756D02*
Y366641D01*
X307500Y324500D02*
X310500Y321500D01*
X322425Y375425D02*
X323000Y376000D01*
X324000Y372000D02*
X327500Y375500D01*
Y380000D01*
X289500Y360500D02*
X290500D01*
X284500Y365500D02*
X289500Y360500D01*
X278500Y365500D02*
X284500D01*
X278000Y385500D02*
X284000D01*
X285500Y387000D01*
Y394000D01*
X295500Y404000D01*
X303000D01*
X276000Y368000D02*
X278500Y365500D01*
X276000Y368000D02*
Y383500D01*
X278000Y385500D01*
X297000Y386500D02*
X298500Y388000D01*
X312000D01*
X313000Y387000D01*
X290500Y380500D02*
X296000D01*
X301000Y385500D01*
X308500D01*
X372500Y358000D02*
Y376500D01*
X280500Y380500D02*
X284654D01*
X288788Y376366D01*
X312500Y370397D02*
X316256Y366641D01*
X363256Y385744D02*
X372500Y376500D01*
X308500Y385500D02*
X309756Y384244D01*
X288788Y376366D02*
X296500D01*
X302634Y382500D01*
X351000Y356000D02*
Y377500D01*
X344331Y384169D02*
X351000Y377500D01*
X291744Y343142D02*
X296103Y347500D01*
Y357603D02*
X305500Y367000D01*
X296103Y347500D02*
Y357603D01*
X305000Y345500D02*
Y361500D01*
X309000Y365500D01*
Y379000D01*
X293000Y393000D02*
X305500D01*
X290500Y390500D02*
X293000Y393000D01*
X327500D02*
X334500D01*
X339000Y388500D01*
X309756Y384244D02*
X315744D01*
X302634Y382500D02*
X316000D01*
X316169Y382669D02*
X316396D01*
X316000Y382500D02*
X316169Y382669D01*
X336500Y385744D02*
X363256D01*
X315744Y384244D02*
X320000Y388500D01*
X333744D01*
X336500Y385744D01*
X335500Y384169D02*
X344331D01*
X316396Y382669D02*
X320652Y386925D01*
X332744D01*
X335500Y384169D01*
X323500Y380000D02*
Y381500D01*
X326000Y384000D01*
X332500D01*
X336000Y380500D01*
X360000Y368500D02*
X361500Y370000D01*
Y379000D01*
X354500Y382000D02*
X362500D01*
X350000Y347000D02*
X355500Y352500D01*
Y369500D01*
X358000Y372000D01*
X304744Y321756D02*
X308500Y318000D01*
X304744Y321756D02*
Y325897D01*
X305000Y326153D01*
Y328000D01*
X319500Y342500D02*
Y344512D01*
X316256Y347756D02*
X319500Y344512D01*
X303000Y413000D02*
Y414000D01*
Y413000D02*
X308000Y408000D01*
Y398000D02*
Y408000D01*
X313500Y391500D02*
X314000Y392000D01*
X365500Y312500D02*
Y339000D01*
X366000D01*
X362500Y382000D02*
X369000Y375500D01*
X360000Y368500D02*
X365000Y363500D01*
Y345500D02*
Y363500D01*
X345000Y389000D02*
X355500D01*
X338000Y396000D02*
X345000Y389000D01*
X318000Y396000D02*
X338000D01*
X314000Y392000D02*
X318000Y396000D01*
X308000Y398000D02*
X314000Y392000D01*
X360000Y311000D02*
Y337000D01*
X350000Y347000D02*
X360000Y337000D01*
X313000Y325500D02*
X316500D01*
X322425Y331425D01*
Y375425D01*
X310500Y321500D02*
X315000D01*
X324000Y330500D01*
Y372000D01*
X308500Y318000D02*
X314000D01*
X327000Y331000D01*
Y339500D01*
X306000Y289000D02*
X342000D01*
X302500Y292500D02*
X306000Y289000D01*
X302500Y292500D02*
Y305000D01*
X294500Y342000D02*
X314500D01*
X315500Y343000D01*
X305000Y328000D02*
X319500Y342500D01*
X366000Y339000D02*
X369000Y342000D01*
Y375500D01*
X365000Y345500D02*
X366000Y344500D01*
X328000Y409000D02*
X333000Y414000D01*
X316500Y409000D02*
X328000D01*
D32*
X319032Y293969D02*
X342531D01*
X311000Y302000D02*
X319032Y293969D01*
X363000Y399000D02*
Y404000D01*
X359000Y395000D02*
X363000Y399000D01*
X359000Y388819D02*
Y395000D01*
X357500Y306500D02*
X365000D01*
X355000Y309000D02*
X357500Y306500D01*
X337500Y326500D02*
X346500D01*
X355000Y318000D01*
Y309000D02*
Y318000D01*
X365000Y306500D02*
X371000Y312500D01*
Y350988D01*
X376000Y355988D01*
Y376000D01*
X359000Y388819D02*
X359819Y388000D01*
X364000D01*
X376000Y376000D01*
D44*
X290500Y350500D02*
D03*
X280500D02*
D03*
X290500Y360500D02*
D03*
X280500D02*
D03*
X290500Y370500D02*
D03*
X280500D02*
D03*
X290500Y380500D02*
D03*
X280500D02*
D03*
X290500Y390500D02*
D03*
D45*
X280500D02*
D03*
D46*
X363000Y414000D02*
D03*
D47*
X353000D02*
D03*
X343000D02*
D03*
X333000D02*
D03*
X323000D02*
D03*
X313000D02*
D03*
X303000D02*
D03*
X363000Y404000D02*
D03*
X353000D02*
D03*
X343000D02*
D03*
X333000D02*
D03*
X323000D02*
D03*
X313000D02*
D03*
X303000D02*
D03*
D48*
X373500Y282000D02*
D03*
D49*
X329138Y354638D02*
D03*
Y359362D02*
D03*
X333862Y354638D02*
D03*
Y359362D02*
D03*
X327638Y308138D02*
D03*
Y312862D02*
D03*
X332362Y308138D02*
D03*
Y312862D02*
D03*
D50*
X285500Y416000D02*
D03*
X277500Y293500D02*
D03*
X311000Y329000D02*
D03*
X296000Y396500D02*
D03*
X376500Y398000D02*
D03*
X378000Y385000D02*
D03*
X377000Y320000D02*
D03*
X376000Y334500D02*
D03*
X278500Y334000D02*
D03*
X278000Y324500D02*
D03*
X278500Y314500D02*
D03*
Y283500D02*
D03*
X320500Y276000D02*
D03*
X376500Y296500D02*
D03*
X371500Y301000D02*
D03*
X361500Y280000D02*
D03*
X362000Y291500D02*
D03*
X361500Y301000D02*
D03*
X307000Y276000D02*
D03*
X299500Y278000D02*
D03*
X297000Y286500D02*
D03*
X296500Y296000D02*
D03*
X297000Y309500D02*
D03*
X350000Y347000D02*
D03*
X342531Y293969D02*
D03*
X311000Y302000D02*
D03*
X351000Y356000D02*
D03*
X375500Y392000D02*
D03*
X362000D02*
D03*
X360000Y368500D02*
D03*
X305000Y345500D02*
D03*
X297500Y364500D02*
D03*
X302500Y370000D02*
D03*
X372500Y358000D02*
D03*
X365500Y312500D02*
D03*
X361500Y379000D02*
D03*
X299500Y325500D02*
D03*
X336000Y339000D02*
D03*
X319500Y342500D02*
D03*
X327000Y339500D02*
D03*
X294500Y342000D02*
D03*
X297000Y386500D02*
D03*
X313000Y387000D02*
D03*
X307500Y324500D02*
D03*
X323000Y376000D02*
D03*
X327500Y380000D02*
D03*
X323500D02*
D03*
X312500Y370397D02*
D03*
X339000Y388500D02*
D03*
X309000Y379000D02*
D03*
X305500Y367000D02*
D03*
Y393000D02*
D03*
X327500D02*
D03*
X336000Y380500D02*
D03*
X354500Y382000D02*
D03*
X358000Y372000D02*
D03*
X313500Y391500D02*
D03*
X355500Y389000D02*
D03*
X360000Y311000D02*
D03*
X337500Y326500D02*
D03*
X302500Y305000D02*
D03*
X313000Y325500D02*
D03*
X324000Y322500D02*
D03*
X338000D02*
D03*
X342000Y289000D02*
D03*
X315500Y343000D02*
D03*
X366000Y344500D02*
D03*
X360500Y272500D02*
D03*
X316500Y409000D02*
D03*
M02*
